<svg xmlns="http://www.w3.org/2000/svg" width="146.2" height="146.2" viewBox="0 0 146.2 146.2">
  <g id="Grupo_17038" data-name="Grupo 17038" transform="translate(-375 -6682.4)">
    <g id="Grupo_16576" data-name="Grupo 16576" transform="translate(12.5 38.156)">
      <circle id="Elipse_930" data-name="Elipse 930" cx="73.1" cy="73.1" r="73.1" transform="translate(362.5 6644.244)" fill="#fbffce"/>
      <g id="Grupo_16574" data-name="Grupo 16574" transform="translate(348.471 5758.755)">
        <g id="Grupo_16572" data-name="Grupo 16572" transform="translate(27.864 899.683)">
          <path id="Trazado_25783" data-name="Trazado 25783" d="M136.65,926.387V899.908H42.165V954.73H65.447V926.387Z" transform="translate(-29.534 -899.908)" fill="#fff"/>
          <path id="Trazado_25784" data-name="Trazado 25784" d="M68.11,957.759V929.416h94.485v62.99H126.683V957.759Z" transform="translate(-32.197 -902.937)" fill="#fff"/>
          <path id="Trazado_25785" data-name="Trazado 25785" d="M153.785,985.433h-26.2l0-26.773h-50.7V940.028a1.837,1.837,0,0,1,1.837-1.838h75.062a1.837,1.837,0,0,1,1.837,1.838V983.6A1.837,1.837,0,0,1,153.785,985.433Z" transform="translate(-33.098 -903.838)" fill="#5f99d7"/>
          <path id="Trazado_25786" data-name="Trazado 25786" d="M133.381,966.851h7.873v21.524h-7.873Z" transform="translate(-38.897 -906.78)" fill="#3c87d0"/>
          <path id="Trazado_25787" data-name="Trazado 25787" d="M155.621,940.028v3.412H86.6a1.837,1.837,0,0,0-1.837,1.837v13.383H76.884V940.028a1.838,1.838,0,0,1,1.838-1.838h75.062A1.836,1.836,0,0,1,155.621,940.028Z" transform="translate(-33.098 -903.838)" fill="#3c87d0"/>
          <path id="Trazado_25788" data-name="Trazado 25788" d="M133.382,960.126c0-2.225,1.268-7.651,7.014-7.651a6.975,6.975,0,0,1,6.737,8.764c.078,0,.154-.01.233-.01a5.19,5.19,0,1,1,0,10.38H133.383Z" transform="translate(-38.897 -905.304)" fill="#eaf6ff"/>
          <path id="Trazado_25789" data-name="Trazado 25789" d="M129.675,927.288V910.52a1.836,1.836,0,0,0-1.837-1.837H52.776a1.836,1.836,0,0,0-1.837,1.837v43.274a1.836,1.836,0,0,0,1.837,1.837H66.347V927.288Z" transform="translate(-30.435 -900.809)" fill="#f07281"/>
          <path id="Trazado_25790" data-name="Trazado 25790" d="M129.675,910.52v3.412H60.649a1.839,1.839,0,0,0-1.837,1.837V955.63H52.776a1.838,1.838,0,0,1-1.838-1.837V910.52a1.84,1.84,0,0,1,1.838-1.838h75.062A1.838,1.838,0,0,1,129.675,910.52Z" transform="translate(-30.434 -900.809)" fill="#eb5569"/>
          <path id="Trazado_25791" data-name="Trazado 25791" d="M122.574,1023.991H28.089V961h94.485Z" transform="translate(-28.089 -906.179)" fill="#fff"/>
          <path id="Trazado_25792" data-name="Trazado 25792" d="M115.6,1015.18V971.613a1.837,1.837,0,0,0-1.837-1.838H38.7a1.837,1.837,0,0,0-1.837,1.838v43.567a1.837,1.837,0,0,0,1.837,1.838h75.062A1.837,1.837,0,0,0,115.6,1015.18Z" transform="translate(-28.99 -907.08)" fill="#d8ecfe"/>
          <path id="Trazado_25793" data-name="Trazado 25793" d="M115.6,971.613v3.412H46.572a1.837,1.837,0,0,0-1.837,1.837v40.156H38.7a1.838,1.838,0,0,1-1.838-1.838V971.613a1.838,1.838,0,0,1,1.838-1.838h75.062A1.836,1.836,0,0,1,115.6,971.613Z" transform="translate(-28.989 -907.08)" fill="#c4e2ff"/>
          <path id="Trazado_25794" data-name="Trazado 25794" d="M44.735,1007.01v9.953l-7.1,3.152a1.834,1.834,0,0,1-.772-1.5v-15.346l0,0Z" transform="translate(-28.989 -910.518)" fill="#9be27d"/>
          <path id="Trazado_25795" data-name="Trazado 25795" d="M98.69,1020.264h15.16a1.836,1.836,0,0,0,1.837-1.838v-7.475l-4.234-1.115-21.343-5.624L79.433,1001.4l-23.786,10.564h0l-17.924,7.96a1.83,1.83,0,0,0,1.066.342h59.9Z" transform="translate(-29.078 -910.326)" fill="#b0ef9a"/>
          <path id="Trazado_25796" data-name="Trazado 25796" d="M55.562,1012.154l-17.929,7.96a1.834,1.834,0,0,1-.772-1.5v-15.346l0,0Z" transform="translate(-28.989 -910.518)" fill="#b0ef9a"/>
          <path id="Trazado_25797" data-name="Trazado 25797" d="M44.735,1007.01v9.953l-7.1,3.152a1.834,1.834,0,0,1-.772-1.5v-15.346l0,0Z" transform="translate(-28.989 -910.518)" fill="#9be27d"/>
          <circle id="Elipse_923" data-name="Elipse 923" cx="8.427" cy="8.427" r="8.427" transform="translate(19.543 69.296)" fill="#fff0ad"/>
          <path id="Trazado_25798" data-name="Trazado 25798" d="M62.233,993.012a8.427,8.427,0,1,1,0-14.908,8.431,8.431,0,0,0,0,14.908Z" transform="translate(-30.325 -907.835)" fill="#ffde89"/>
        </g>
        <g id="Grupo_16573" data-name="Grupo 16573" transform="translate(25.896 897.714)">
          <path id="Trazado_25799" data-name="Trazado 25799" d="M158.261,924.194H136.947V899.683a1.968,1.968,0,0,0-1.968-1.969H65.9a1.968,1.968,0,1,0,0,3.937H133.01v22.543h-3.937v-14.8a3.811,3.811,0,0,0-3.806-3.806H50.205a3.811,3.811,0,0,0-3.806,3.806v43.142H42.463V901.651H57.326a1.968,1.968,0,0,0,0-3.937H40.494a1.969,1.969,0,0,0-1.969,1.969v52.853H27.864A1.968,1.968,0,0,0,25.9,954.5v62.99a1.969,1.969,0,0,0,1.968,1.969h94.485a1.969,1.969,0,0,0,1.968-1.969V991.12h33.945a1.968,1.968,0,0,0,1.968-1.969v-62.99a1.968,1.968,0,0,0-1.968-1.968ZM50.336,909.525h74.8v14.669H63.777a1.987,1.987,0,0,0-1.82,1.219,1.964,1.964,0,0,0-.148.749v26.374H50.336Zm-20.5,106V956.472h90.545l0,19.583v39.47ZM134.56,956.844a1.977,1.977,0,0,0,1.607.741l.145-.007.021,0a3.222,3.222,0,1,1,0,6.444H124.317V954.5c0-.057.058-5.682,5.046-5.682a5.007,5.007,0,0,1,4.835,6.289,1.967,1.967,0,0,0,.363,1.733Zm21.733,30.339H124.316v-3.938H148.55a3.81,3.81,0,0,0,3.806-3.806V951.077a1.969,1.969,0,0,0-3.938,0v28.232h-24.1V967.956h12.016a7.159,7.159,0,0,0,1.968-14.043v-.088a8.95,8.95,0,0,0-8.939-8.939c-5.537,0-8.109,4.06-8.79,7.65H73.619V936h74.8V942.5a1.969,1.969,0,0,0,3.938,0v-6.624a3.81,3.81,0,0,0-3.806-3.806H73.488a3.809,3.809,0,0,0-3.806,3.806v16.663H65.746V928.131h90.547Z" transform="translate(-25.896 -897.714)" fill="#00223d"/>
          <path id="Trazado_25800" data-name="Trazado 25800" d="M113.536,967.582H38.474a3.809,3.809,0,0,0-3.806,3.806v43.567a3.8,3.8,0,0,0,1.452,2.985,3.69,3.69,0,0,0,2.354.821H89.8a1.968,1.968,0,1,0,0-3.937H45.923l10.212-4.534.013-.007,23.139-10.276L113.405,1009v5.827H98.376a1.968,1.968,0,0,0,0,3.937h15.16a3.811,3.811,0,0,0,3.806-3.806V971.387a3.81,3.81,0,0,0-3.806-3.8ZM38.6,1013.766V1002.72l12.016,5.709Zm39.717-17.638-22.959,10.2L38.6,998.361V971.519h74.8v33.407l-33.783-8.9a1.971,1.971,0,0,0-1.3.1Z" transform="translate(-26.796 -904.886)" fill="#00223d"/>
          <path id="Trazado_25801" data-name="Trazado 25801" d="M58.069,974.938a10.4,10.4,0,1,0,10.4,10.4A10.408,10.408,0,0,0,58.069,974.938Zm0,16.854a6.459,6.459,0,1,1,6.459-6.458A6.466,6.466,0,0,1,58.069,991.792Z" transform="translate(-28.131 -905.641)" fill="#00223d"/>
          <path id="Trazado_25802" data-name="Trazado 25802" d="M102.852,980.906h.089a3.24,3.24,0,0,1,3.237,3.237,1.968,1.968,0,0,0,3.937,0,3.24,3.24,0,0,1,3.237-3.237h.089a1.968,1.968,0,0,0,0-3.937h-.089a7.148,7.148,0,0,0-5.2,2.245,7.154,7.154,0,0,0-5.206-2.245h-.089a1.968,1.968,0,0,0,0,3.937Z" transform="translate(-33.593 -905.849)" fill="#00223d"/>
          <path id="Trazado_25803" data-name="Trazado 25803" d="M85.8,994.233a1.969,1.969,0,0,0,1.968-1.969,3.241,3.241,0,0,1,3.238-3.237H91.1a1.968,1.968,0,1,0,0-3.937H91.01a7.152,7.152,0,0,0-5.206,2.245,7.154,7.154,0,0,0-5.206-2.245h-.088a1.968,1.968,0,1,0,0,3.937H80.6a3.24,3.24,0,0,1,3.237,3.237,1.969,1.969,0,0,0,1.969,1.969Z" transform="translate(-31.3 -906.683)" fill="#00223d"/>
        </g>
      </g>
    </g>
  </g>
</svg>
