<svg xmlns="http://www.w3.org/2000/svg" width="119.513" height="119.513" viewBox="0 0 119.513 119.513">
  <g id="Grupo_17039" data-name="Grupo 17039" transform="translate(-374 -7312.743)">
    <circle id="Elipse_928" data-name="Elipse 928" cx="59.757" cy="59.757" r="59.757" transform="translate(374 7312.743)" fill="#fbffce"/>
    <g id="Grupo_16575" data-name="Grupo 16575" transform="translate(-113.437 6668.407)">
      <path id="Trazado_25804" data-name="Trazado 25804" d="M529.156,747.521h52.6a3.868,3.868,0,0,0,3.868-3.867V669.982l-17.6-17.594H510.6a3.868,3.868,0,0,0-3.867,3.867v87.4a3.868,3.868,0,0,0,3.867,3.867Z" transform="translate(-1.116 -0.119)" fill="#f4f4f4"/>
      <path id="Trazado_25805" data-name="Trazado 25805" d="M571.788,652.628v13.5A3.868,3.868,0,0,0,575.656,670h13.5Z" transform="translate(-4.881 -0.133)" fill="#fec96b"/>
      <path id="Trazado_25806" data-name="Trazado 25806" d="M520.448,667.949a23.607,23.607,0,1,1-23.607,23.607h23.607V667.949Z" transform="translate(-0.544 -1.019)" fill="#a0e557"/>
      <path id="Trazado_25807" data-name="Trazado 25807" d="M521.9,691.556V667.949a23.533,23.533,0,0,1,16.693,6.914Z" transform="translate(-1.994 -1.019)" fill="#39ddd2"/>
      <path id="Trazado_25808" data-name="Trazado 25808" d="M513.1,660.6v23.607H489.489A23.608,23.608,0,0,1,513.1,660.6Z" transform="translate(-0.119 -0.594)" fill="#fec96b"/>
      <circle id="Elipse_924" data-name="Elipse 924" cx="3.867" cy="3.867" r="3.867" transform="translate(568.275 713.294)" fill="#39ddd2"/>
      <circle id="Elipse_925" data-name="Elipse 925" cx="3.867" cy="3.867" r="3.867" transform="translate(549.262 731.914)" fill="#fec96b"/>
      <circle id="Elipse_926" data-name="Elipse 926" cx="3.867" cy="3.867" r="3.867" transform="translate(533.984 717.161)" fill="#a0e557"/>
      <circle id="Elipse_927" data-name="Elipse 927" cx="3.867" cy="3.867" r="3.867" transform="translate(519.129 731.922)" fill="#ff5d5d"/>
      <path id="Trazado_25809" data-name="Trazado 25809" d="M585.871,668.5l-17.6-17.594a1.93,1.93,0,0,0-1.367-.566H509.48a5.807,5.807,0,0,0-5.8,5.8v3.687a25.582,25.582,0,0,0-16.242,23.788,1.934,1.934,0,0,0,1.933,1.933h23.608a1.934,1.934,0,0,0,1.933-1.933V660a1.934,1.934,0,0,0-1.933-1.934,25.558,25.558,0,0,0-5.432.583v-2.516a1.936,1.936,0,0,1,1.934-1.933h55.494V666a5.807,5.807,0,0,0,5.8,5.8h11.795v71.736a1.935,1.935,0,0,1-1.933,1.933H509.48a1.936,1.936,0,0,1-1.934-1.933V726.97a1.933,1.933,0,0,0-3.867,0v16.565a5.807,5.807,0,0,0,5.8,5.8h71.156a5.807,5.807,0,0,0,5.8-5.8V669.863A1.933,1.933,0,0,0,585.871,668.5Zm-74.827,13.182H491.39a21.709,21.709,0,0,1,19.654-19.655v19.655Zm57.8-15.68v-9.061l11,10.994h-9.062A1.935,1.935,0,0,1,568.842,666Z" fill="#193651"/>
      <path id="Trazado_25810" data-name="Trazado 25810" d="M505.243,722.734a1.933,1.933,0,1,0,1.367-.566A1.949,1.949,0,0,0,505.243,722.734Z" transform="translate(-0.998 -4.156)"/>
      <path id="Trazado_25811" data-name="Trazado 25811" d="M545.87,691.437a25.569,25.569,0,0,0-25.54-25.54,1.934,1.934,0,0,0-1.934,1.933V689.5H496.722a1.934,1.934,0,0,0-1.934,1.933,25.541,25.541,0,1,0,51.082,0Zm-11.651-16.624-11.957,11.956v-16.92A21.573,21.573,0,0,1,534.219,674.813Zm-35.478,18.557h21.588a1.926,1.926,0,0,0,1.366-.565h0l15.258-15.257a21.67,21.67,0,1,1-38.213,15.823Z" transform="translate(-0.425 -0.9)" fill="#193651"/>
      <path id="Trazado_25812" data-name="Trazado 25812" d="M545.48,724.776a5.8,5.8,0,1,0-11.066,2.429l-7.1,7.1a5.8,5.8,0,1,0,2.738,2.731l7.056-7.056a5.782,5.782,0,0,0,5.431-.158l7.19,7.189a5.8,5.8,0,1,0,10.473.056l11.035-11.036a5.8,5.8,0,1,0-2.613-2.856l-11.14,11.14a5.789,5.789,0,0,0-5.009-.026l-7.4-7.4A5.77,5.77,0,0,0,545.48,724.776ZM524.825,741.47a1.934,1.934,0,1,1,1.337-3.327c.008.009.015.017.023.026s.02.017.029.025a1.932,1.932,0,0,1-1.389,3.276Zm14.855-14.76a1.934,1.934,0,1,1,1.934-1.934A1.936,1.936,0,0,1,539.679,726.71Zm34.29-7.735a1.934,1.934,0,1,1-1.933,1.934A1.936,1.936,0,0,1,573.969,718.976Zm-17.08,20.553a1.934,1.934,0,1,1-1.933-1.933A1.935,1.935,0,0,1,556.89,739.528Z" transform="translate(-1.828 -3.748)" fill="#193651"/>
      <path id="Trazado_25813" data-name="Trazado 25813" d="M556.135,702.433h10.206a1.934,1.934,0,0,0,0-3.867H556.135a1.934,1.934,0,0,0,0,3.867Z" transform="translate(-3.863 -2.791)" fill="#193651"/>
      <path id="Trazado_25814" data-name="Trazado 25814" d="M574.945,699.132a1.934,1.934,0,1,0,1.367-.566A1.949,1.949,0,0,0,574.945,699.132Z" transform="translate(-5.031 -2.791)" fill="#193651"/>
      <path id="Trazado_25815" data-name="Trazado 25815" d="M556.135,682.731h23.62a1.934,1.934,0,0,0,0-3.868h-23.62a1.934,1.934,0,0,0,0,3.868Z" transform="translate(-3.863 -1.651)" fill="#193651"/>
      <path id="Trazado_25816" data-name="Trazado 25816" d="M556.135,692.582h23.62a1.933,1.933,0,1,0,0-3.867h-23.62a1.933,1.933,0,1,0,0,3.867Z" transform="translate(-3.863 -2.221)" fill="#193651"/>
    </g>
  </g>
</svg>
