<svg xmlns="http://www.w3.org/2000/svg" width="635.333" height="164" viewBox="0 0 635.333 164">
  <g id="Grupo_17038" data-name="Grupo 17038" transform="translate(1518 1927)">
    <g id="Grupo_16901" data-name="Grupo 16901" transform="translate(-1492.981 -1758.334)">
      <g id="Grupo_16896" data-name="Grupo 16896" transform="translate(-25.019 -111.022)">
        <g id="Grupo_16895" data-name="Grupo 16895">
          <path id="Trazado_26514" data-name="Trazado 26514" d="M198.159-58.419l-40.107-52.869v11.14H-25.019L6.641-58.419l-31.66,41.733H158.053V-5.551Z" transform="translate(25.019 111.288)" fill="#f9a825"/>
        </g>
      </g>
      <g id="Grupo_16898" data-name="Grupo 16898" transform="translate(181.058 -111.022)">
        <g id="Grupo_16897" data-name="Grupo 16897">
          <path id="Trazado_26515" data-name="Trazado 26515" d="M315.585-58.42l-40.107-52.868v11.14H92.407L124.065-58.42,92.407-16.687H275.477V-5.551Z" transform="translate(-92.407 111.288)" fill="#cddc39"/>
        </g>
      </g>
      <g id="Grupo_16900" data-name="Grupo 16900" transform="translate(384.521 -111.641)">
        <g id="Grupo_16899" data-name="Grupo 16899">
          <path id="Trazado_26516" data-name="Trazado 26516" d="M434.136-58.154,393.56-111.641v11.27H208.343l32.032,42.218L208.343-15.931H393.56V-4.666Z" transform="translate(-208.343 111.641)" fill="#e9f857"/>
        </g>
      </g>
    </g>
    <path id="Trazado_26781" data-name="Trazado 26781" d="M1.644,17V4.3h4.6a7.166,7.166,0,0,1,2.65.457,4.881,4.881,0,0,1,1.9,1.3,5.64,5.64,0,0,1,1.125,2,8.255,8.255,0,0,1,.382,2.593,8.286,8.286,0,0,1-.382,2.6,5.64,5.64,0,0,1-1.125,2,4.881,4.881,0,0,1-1.9,1.3A7.166,7.166,0,0,1,6.24,17ZM4.28,14.671H6.108a3.12,3.12,0,0,0,2.566-1.033,4.629,4.629,0,0,0,.844-2.993,4.629,4.629,0,0,0-.844-2.993A3.12,3.12,0,0,0,6.108,6.62H4.28Zm11.443-8.06a1.421,1.421,0,0,1-1.037-.426,1.4,1.4,0,0,1-.431-1.033,1.382,1.382,0,0,1,.435-1.024A1.425,1.425,0,0,1,15.724,3.7a1.463,1.463,0,0,1,1.45,1.45,1.463,1.463,0,0,1-1.45,1.459ZM14.432,17V7.965H16.98V17Zm8.35.176a5.049,5.049,0,0,1-2.637-.633,2.675,2.675,0,0,1-1.292-1.881l2.118-.6a1.7,1.7,0,0,0,1.811,1.345A1.87,1.87,0,0,0,23.7,15.2a.719.719,0,0,0,.36-.7.739.739,0,0,0-.149-.466,1.183,1.183,0,0,0-.461-.334,5.749,5.749,0,0,0-.615-.237q-.3-.1-.8-.233t-.835-.259a5.593,5.593,0,0,1-.8-.338,3.393,3.393,0,0,1-.659-.466,1.878,1.878,0,0,1-.492-.708,2.552,2.552,0,0,1-.171-.967,2.308,2.308,0,0,1,.98-2.021,4.379,4.379,0,0,1,2.562-.686,4.489,4.489,0,0,1,2.364.58A2.625,2.625,0,0,1,26.2,10.18l-1.96.439a1.535,1.535,0,0,0-1.608-1.143,1.761,1.761,0,0,0-.888.2.649.649,0,0,0-.352.6.685.685,0,0,0,.053.272.539.539,0,0,0,.185.22,2.692,2.692,0,0,0,.255.167,1.923,1.923,0,0,0,.36.145q.237.075.4.114l.461.119.47.123q.483.132.848.264a4.967,4.967,0,0,1,.778.369,2.792,2.792,0,0,1,.681.532,2.372,2.372,0,0,1,.444.747,2.759,2.759,0,0,1,.176,1.006,2.718,2.718,0,0,1-.3,1.31,2.276,2.276,0,0,1-.831.883,4.043,4.043,0,0,1-1.173.475A6.087,6.087,0,0,1,22.781,17.176Zm14.036-4.825-.026.606h-6.7a2.339,2.339,0,0,0,.721,1.652,2.3,2.3,0,0,0,1.591.571,2.221,2.221,0,0,0,1.191-.312,1.918,1.918,0,0,0,.76-.91l2.32.343a3.945,3.945,0,0,1-1.582,2.118,4.7,4.7,0,0,1-2.672.756,4.891,4.891,0,0,1-3.52-1.244,4.538,4.538,0,0,1-1.305-3.45,4.565,4.565,0,0,1,1.31-3.45,4.746,4.746,0,0,1,3.437-1.261,4.536,4.536,0,0,1,3.243,1.151A4.517,4.517,0,0,1,36.817,12.351ZM32.361,9.564a2,2,0,0,0-2.2,1.74h4.148a1.9,1.9,0,0,0-.624-1.292A1.978,1.978,0,0,0,32.361,9.564ZM42.1,5.548a.5.5,0,0,0-.457.308,1.8,1.8,0,0,0-.158.817h-1.2a2.7,2.7,0,0,1,.479-1.661,1.533,1.533,0,0,1,1.3-.642,1.719,1.719,0,0,1,1.538.905.615.615,0,0,0,.527.334q.589,0,.589-1.125h1.213a2.745,2.745,0,0,1-.47,1.657,1.524,1.524,0,0,1-1.305.646,1.755,1.755,0,0,1-1.547-.9A.613.613,0,0,0,42.1,5.548Zm1.978,2.241a3.522,3.522,0,0,1,2.5.813,3.014,3.014,0,0,1,.87,2.316V17H44.9V11.463a1.574,1.574,0,0,0-.453-1.248,1.705,1.705,0,0,0-1.165-.4,2.379,2.379,0,0,0-.756.114,1.942,1.942,0,0,0-.633.356,1.573,1.573,0,0,0-.453.681,3.15,3.15,0,0,0-.171,1.046V17H38.742V7.965h2.531v1A3.481,3.481,0,0,1,44.077,7.789Zm10.028,9.387a5.681,5.681,0,0,1-2.558-.554A4.138,4.138,0,0,1,49.794,15a4.846,4.846,0,0,1-.637-2.522,4.42,4.42,0,0,1,1.371-3.428,5.731,5.731,0,0,1,7.163,0,4.42,4.42,0,0,1,1.371,3.428,4.444,4.444,0,0,1-1.371,3.441A5.088,5.088,0,0,1,54.105,17.176Zm-.026-2.013a2.319,2.319,0,0,0,1.789-.738,2.764,2.764,0,0,0,.681-1.951,2.764,2.764,0,0,0-.681-1.951,2.319,2.319,0,0,0-1.789-.738,2.234,2.234,0,0,0-1.736.743,2.789,2.789,0,0,0-.672,1.947,2.789,2.789,0,0,0,.672,1.947A2.234,2.234,0,0,0,54.079,15.163Z" transform="translate(-1431.9 -1827.488)" fill="#fff"/>
    <path id="Trazado_26782" data-name="Trazado 26782" d="M9.009,6.62H4.3V9.5H8.473V11.8H4.3v2.874H9.009V17H1.644V4.3H9.009Zm3.683-.009a1.421,1.421,0,0,1-1.037-.426,1.4,1.4,0,0,1-.431-1.033,1.382,1.382,0,0,1,.435-1.024A1.425,1.425,0,0,1,12.691,3.7a1.463,1.463,0,0,1,1.45,1.45,1.463,1.463,0,0,1-1.45,1.459ZM9.545,21.236V19.259a2.912,2.912,0,0,0,.949-.127,1.061,1.061,0,0,0,.563-.453,2,2,0,0,0,.268-.778,8.77,8.77,0,0,0,.066-1.208V7.965h2.566v8.728a4.908,4.908,0,0,1-1.028,3.454A4.487,4.487,0,0,1,9.545,21.236Zm15.539-8.886-.026.606h-6.7a2.339,2.339,0,0,0,.721,1.652,2.3,2.3,0,0,0,1.591.571,2.221,2.221,0,0,0,1.191-.312,1.918,1.918,0,0,0,.76-.91l2.32.343a3.945,3.945,0,0,1-1.582,2.118,4.7,4.7,0,0,1-2.672.756,4.891,4.891,0,0,1-3.52-1.244,4.538,4.538,0,0,1-1.305-3.45,4.565,4.565,0,0,1,1.31-3.45A4.746,4.746,0,0,1,20.61,7.771a4.536,4.536,0,0,1,3.243,1.151A4.517,4.517,0,0,1,25.084,12.351ZM20.628,9.564a2,2,0,0,0-2.2,1.74h4.148a1.9,1.9,0,0,0-.624-1.292A1.978,1.978,0,0,0,20.628,9.564Zm10.468,7.6a4.827,4.827,0,0,1-3.489-1.3,4.493,4.493,0,0,1-1.354-3.393A4.483,4.483,0,0,1,27.6,9.081,4.842,4.842,0,0,1,31.1,7.789a4.814,4.814,0,0,1,2.927.87,3.885,3.885,0,0,1,1.512,2.452l-2.338.255a2,2,0,0,0-.756-1.187,2.3,2.3,0,0,0-1.371-.4,2.072,2.072,0,0,0-1.652.738,2.894,2.894,0,0,0-.633,1.951,2.9,2.9,0,0,0,.633,1.947,2.067,2.067,0,0,0,1.652.743,2.278,2.278,0,0,0,1.367-.4,2.05,2.05,0,0,0,.76-1.187l2.338.255a3.9,3.9,0,0,1-1.525,2.452A4.8,4.8,0,0,1,31.1,17.167Zm12.226-9.2h2.531V17h-2.4l-.062-1.09a3.45,3.45,0,0,1-2.874,1.266,3.522,3.522,0,0,1-2.5-.813,3.014,3.014,0,0,1-.87-2.316V7.965h2.54V13.5a1.562,1.562,0,0,0,.453,1.239,1.718,1.718,0,0,0,1.173.4,2.038,2.038,0,0,0,1.437-.514,2.209,2.209,0,0,0,.567-1.674Zm9.237,9.2a4.827,4.827,0,0,1-3.489-1.3,4.493,4.493,0,0,1-1.354-3.393,4.483,4.483,0,0,1,1.349-3.393,5.364,5.364,0,0,1,6.42-.422A3.885,3.885,0,0,1,57,11.111l-2.338.255A2,2,0,0,0,53.9,10.18a2.3,2.3,0,0,0-1.371-.4,2.072,2.072,0,0,0-1.652.738,2.894,2.894,0,0,0-.633,1.951,2.9,2.9,0,0,0,.633,1.947,2.067,2.067,0,0,0,1.652.743,2.278,2.278,0,0,0,1.367-.4,2.05,2.05,0,0,0,.76-1.187L57,13.836a3.9,3.9,0,0,1-1.525,2.452A4.8,4.8,0,0,1,52.559,17.167ZM60.091,6.611a1.421,1.421,0,0,1-1.037-.426,1.4,1.4,0,0,1-.431-1.033,1.382,1.382,0,0,1,.435-1.024A1.425,1.425,0,0,1,60.091,3.7a1.463,1.463,0,0,1,1.45,1.45,1.463,1.463,0,0,1-1.45,1.459ZM58.8,17V7.965h2.549V17Zm8.6-10.266L69.7,3.5l1.248.879-2,2.355Zm.782,10.441a5.681,5.681,0,0,1-2.558-.554A4.138,4.138,0,0,1,63.866,15a4.846,4.846,0,0,1-.637-2.522A4.42,4.42,0,0,1,64.6,9.046a5.731,5.731,0,0,1,7.163,0,4.42,4.42,0,0,1,1.371,3.428,4.444,4.444,0,0,1-1.371,3.441A5.088,5.088,0,0,1,68.177,17.176Zm-.026-2.013a2.319,2.319,0,0,0,1.789-.738,2.764,2.764,0,0,0,.681-1.951,2.764,2.764,0,0,0-.681-1.951,2.319,2.319,0,0,0-1.789-.738,2.234,2.234,0,0,0-1.736.743,2.789,2.789,0,0,0-.672,1.947,2.789,2.789,0,0,0,.672,1.947A2.234,2.234,0,0,0,68.15,15.163Zm12.2-7.374a3.522,3.522,0,0,1,2.5.813,3.014,3.014,0,0,1,.87,2.316V17h-2.54V11.463a1.574,1.574,0,0,0-.453-1.248,1.705,1.705,0,0,0-1.165-.4,2.379,2.379,0,0,0-.756.114,1.942,1.942,0,0,0-.633.356,1.573,1.573,0,0,0-.453.681,3.15,3.15,0,0,0-.171,1.046V17H75.015V7.965h2.531v1A3.481,3.481,0,0,1,80.35,7.789Z" transform="translate(-1234.5 -1827.488)" fill="#fff"/>
    <path id="Trazado_26783" data-name="Trazado 26783" d="M9.009,6.62H4.3V9.5H8.473V11.8H4.3v2.874H9.009V17H1.644V4.3H9.009Zm8.262,1.345h2.681L16.1,17H13.9L10.1,7.965h2.663l2.25,6.179Zm11.057,6.583a8.453,8.453,0,0,0,.22,2.206V17H26.183l-.2-.984a2.938,2.938,0,0,1-1.266.87,4.664,4.664,0,0,1-1.635.29,4.3,4.3,0,0,1-.844-.079,2.868,2.868,0,0,1-.76-.268,2.307,2.307,0,0,1-.628-.47,2.062,2.062,0,0,1-.422-.716,2.853,2.853,0,0,1-.158-.98,2.718,2.718,0,0,1,.167-.98,2.3,2.3,0,0,1,.439-.734,2.666,2.666,0,0,1,.712-.536,5.447,5.447,0,0,1,.9-.387,10.712,10.712,0,0,1,1.072-.281l1.485-.334a1.638,1.638,0,0,0,.672-.286.57.57,0,0,0,.2-.453.932.932,0,0,0-.444-.87,2.073,2.073,0,0,0-1.077-.264,1.549,1.549,0,0,0-1.767,1.38l-2.241-.4a3.034,3.034,0,0,1,1.31-2.061,5.2,5.2,0,0,1,2.839-.664q3.8,0,3.8,3.261Zm-4.456.914a2.036,2.036,0,0,0,1.564-.655,2.759,2.759,0,0,0,.606-1.938l-2.145.606a2.534,2.534,0,0,0-.9.369.758.758,0,0,0-.312.65.842.842,0,0,0,.334.716A1.382,1.382,0,0,0,23.871,15.462ZM30.788,17V3.5h2.558V17ZM41.95,7.965h2.531V17h-2.4l-.062-1.09a3.45,3.45,0,0,1-2.874,1.266,3.522,3.522,0,0,1-2.5-.813,3.014,3.014,0,0,1-.87-2.316V7.965h2.54V13.5a1.562,1.562,0,0,0,.453,1.239,1.718,1.718,0,0,0,1.173.4,2.038,2.038,0,0,0,1.437-.514,2.209,2.209,0,0,0,.567-1.674Zm12.56,6.583a8.453,8.453,0,0,0,.22,2.206V17H52.365l-.2-.984a2.938,2.938,0,0,1-1.266.87,4.664,4.664,0,0,1-1.635.29,4.3,4.3,0,0,1-.844-.079,2.868,2.868,0,0,1-.76-.268,2.307,2.307,0,0,1-.628-.47,2.062,2.062,0,0,1-.422-.716,2.853,2.853,0,0,1-.158-.98,2.718,2.718,0,0,1,.167-.98,2.3,2.3,0,0,1,.439-.734,2.666,2.666,0,0,1,.712-.536,5.447,5.447,0,0,1,.9-.387,10.712,10.712,0,0,1,1.072-.281l1.485-.334a1.638,1.638,0,0,0,.672-.286.57.57,0,0,0,.2-.453.932.932,0,0,0-.444-.87,2.073,2.073,0,0,0-1.077-.264,1.549,1.549,0,0,0-1.767,1.38l-2.241-.4a3.034,3.034,0,0,1,1.31-2.061,5.2,5.2,0,0,1,2.839-.664q3.8,0,3.8,3.261Zm-4.456.914a2.036,2.036,0,0,0,1.564-.655,2.759,2.759,0,0,0,.606-1.938l-2.145.606a2.534,2.534,0,0,0-.9.369.758.758,0,0,0-.312.65.842.842,0,0,0,.334.716A1.382,1.382,0,0,0,50.054,15.462Zm10.8,1.705a4.827,4.827,0,0,1-3.489-1.3,4.493,4.493,0,0,1-1.354-3.393,4.483,4.483,0,0,1,1.349-3.393,5.364,5.364,0,0,1,6.42-.422,3.885,3.885,0,0,1,1.512,2.452l-2.338.255A2,2,0,0,0,62.2,10.18a2.3,2.3,0,0,0-1.371-.4,2.072,2.072,0,0,0-1.652.738,2.894,2.894,0,0,0-.633,1.951,2.9,2.9,0,0,0,.633,1.947,2.067,2.067,0,0,0,1.652.743,2.278,2.278,0,0,0,1.367-.4,2.05,2.05,0,0,0,.76-1.187l2.338.255a3.9,3.9,0,0,1-1.525,2.452A4.8,4.8,0,0,1,60.855,17.167ZM68.388,6.611a1.421,1.421,0,0,1-1.037-.426,1.4,1.4,0,0,1-.431-1.033,1.382,1.382,0,0,1,.435-1.024A1.425,1.425,0,0,1,68.388,3.7a1.463,1.463,0,0,1,1.45,1.45,1.463,1.463,0,0,1-1.45,1.459ZM67.1,17V7.965h2.549V17Zm8.6-10.266,2.3-3.234,1.248.879-2,2.355Zm.782,10.441a5.681,5.681,0,0,1-2.558-.554A4.138,4.138,0,0,1,72.163,15a4.846,4.846,0,0,1-.637-2.522A4.42,4.42,0,0,1,72.9,9.046a5.731,5.731,0,0,1,7.163,0,4.42,4.42,0,0,1,1.371,3.428,4.444,4.444,0,0,1-1.371,3.441A5.088,5.088,0,0,1,76.474,17.176Zm-.026-2.013a2.319,2.319,0,0,0,1.789-.738,2.764,2.764,0,0,0,.681-1.951,2.764,2.764,0,0,0-.681-1.951,2.319,2.319,0,0,0-1.789-.738,2.234,2.234,0,0,0-1.736.743,2.789,2.789,0,0,0-.672,1.947,2.789,2.789,0,0,0,.672,1.947A2.234,2.234,0,0,0,76.447,15.163Zm12.2-7.374a3.522,3.522,0,0,1,2.5.813,3.014,3.014,0,0,1,.87,2.316V17h-2.54V11.463a1.574,1.574,0,0,0-.453-1.248,1.705,1.705,0,0,0-1.165-.4,2.379,2.379,0,0,0-.756.114,1.942,1.942,0,0,0-.633.356,1.573,1.573,0,0,0-.453.681,3.15,3.15,0,0,0-.171,1.046V17H83.312V7.965h2.531v1A3.481,3.481,0,0,1,88.646,7.789Z" transform="translate(-1046 -1827)" fill="#00223d"/>
    <g id="Grupo_16907" data-name="Grupo 16907" transform="translate(-2037.167 -1817.862)">
      <g id="Grupo_16905" data-name="Grupo 16905" transform="translate(594.405 -107.89)">
        <path id="Trazado_26517" data-name="Trazado 26517" d="M675.68-32.9l-73.807-73.807a4.451,4.451,0,0,0-7.6,3.147v70.374a7.883,7.883,0,0,0,7.884,7.884h70.374a4.451,4.451,0,0,0,3.147-7.6Zm-35.922-8.567H613.691a3.251,3.251,0,0,1-3.251-3.251V-70.787a1.861,1.861,0,0,1,3.178-1.316l27.456,27.456a1.862,1.862,0,0,1-1.316,3.178Z" transform="translate(-594.274 108.022)" fill="#cddc39"/>
        <g id="Grupo_16902" data-name="Grupo 16902">
          <path id="Trazado_26518" data-name="Trazado 26518" d="M615.492-75.839a1.863,1.863,0,0,0-3.128.883l26.573,26.573a1.862,1.862,0,0,1-1.316,3.178h4.012a1.861,1.861,0,0,0,1.316-3.178Z" transform="translate(-592.137 111.758)" fill="#adbb24"/>
          <path id="Trazado_26519" data-name="Trazado 26519" d="M598.286-33.188v-70.374a4.375,4.375,0,0,1,2.456-3.979,4.46,4.46,0,0,0-6.468,3.979v70.374a7.883,7.883,0,0,0,7.884,7.884h4.012A7.883,7.883,0,0,1,598.286-33.188Z" transform="translate(-594.274 108.022)" fill="#adbb24"/>
        </g>
        <g id="Grupo_16903" data-name="Grupo 16903" transform="translate(9.547 74.293)">
          <path id="Trazado_26520" data-name="Trazado 26520" d="M605.18-41.576a2.367,2.367,0,0,0-2.367,2.367v6.058h4.734v-6.058A2.367,2.367,0,0,0,605.18-41.576Z" transform="translate(-602.813 41.576)" fill="#ffe07d"/>
          <path id="Trazado_26521" data-name="Trazado 26521" d="M660.166-41.576a2.367,2.367,0,0,0-2.367,2.367v6.058h4.734v-6.058A2.367,2.367,0,0,0,660.166-41.576Z" transform="translate(-596.319 41.576)" fill="#ffe07d"/>
          <path id="Trazado_26522" data-name="Trazado 26522" d="M651-38.6a2.367,2.367,0,0,0-2.367,2.367V-33.5h4.733v-2.729A2.366,2.366,0,0,0,651-38.6Z" transform="translate(-597.401 41.928)" fill="#ffe07d"/>
          <path id="Trazado_26523" data-name="Trazado 26523" d="M641.837-38.6a2.367,2.367,0,0,0-2.367,2.367V-33.5H644.2v-2.729A2.367,2.367,0,0,0,641.837-38.6Z" transform="translate(-598.484 41.928)" fill="#ffe07d"/>
          <path id="Trazado_26524" data-name="Trazado 26524" d="M632.673-41.576a2.367,2.367,0,0,0-2.367,2.367v6.058h4.734v-6.058A2.367,2.367,0,0,0,632.673-41.576Z" transform="translate(-599.566 41.576)" fill="#ffe07d"/>
          <path id="Trazado_26525" data-name="Trazado 26525" d="M623.509-38.6a2.367,2.367,0,0,0-2.367,2.367V-33.5h4.733v-2.729A2.366,2.366,0,0,0,623.509-38.6Z" transform="translate(-600.648 41.928)" fill="#ffe07d"/>
          <path id="Trazado_26526" data-name="Trazado 26526" d="M614.344-38.6a2.366,2.366,0,0,0-2.366,2.367V-33.5h4.733v-2.729A2.367,2.367,0,0,0,614.344-38.6Z" transform="translate(-601.731 41.928)" fill="#ffe07d"/>
        </g>
        <g id="Grupo_16904" data-name="Grupo 16904" transform="translate(34.874 0.211)">
          <path id="Trazado_26527" data-name="Trazado 26527" d="M669.7-90.684,647.737-68.722c.065-1.186-2.553-.2-3.459-1.106a4.329,4.329,0,0,0-4.585-.992,4.332,4.332,0,0,0-.993-4.586,4.313,4.313,0,0,0-3.331-1.259,4.28,4.28,0,0,0-1.256.267,4.331,4.331,0,0,0-.992-4.586c-.907-.907.082-3.523-1.106-3.459L653.977-106.4a4.879,4.879,0,0,1,6.9,0l8.821,8.821A4.879,4.879,0,0,1,669.7-90.684Z" transform="translate(-624.69 107.833)" fill="#8eaadf"/>
          <path id="Trazado_26528" data-name="Trazado 26528" d="M635.368-76.665a4.28,4.28,0,0,0-1.256.267,4.331,4.331,0,0,0-.992-4.586c-.907-.907.082-3.523-1.106-3.458L653.977-106.4a4.879,4.879,0,0,1,6.9,0l1.621,1.621L636.308-78.594Z" transform="translate(-624.69 107.833)" fill="#698ed5"/>
          <path id="Trazado_26529" data-name="Trazado 26529" d="M648.244-71.192l-14.882,4.807-5.646-5.646,4.807-14.882a4.321,4.321,0,0,1,3.3,1.263,4.332,4.332,0,0,1,.993,4.586,4.328,4.328,0,0,1,4.585.993,4.328,4.328,0,0,1,.993,4.585,4.332,4.332,0,0,1,4.586.993,4.321,4.321,0,0,1,1.263,3.3Z" transform="translate(-625.198 110.303)" fill="#f6eeda"/>
          <path id="Trazado_26530" data-name="Trazado 26530" d="M630.045-69.7l-2.329-2.328,4.807-14.882a4.325,4.325,0,0,1,3.3,1.263,4.332,4.332,0,0,1,.993,4.586l-4.006,8.209Z" transform="translate(-625.198 110.303)" fill="#efe1c1"/>
          <path id="Trazado_26531" data-name="Trazado 26531" d="M633.847-68.029l-3.96,3.96a1.705,1.705,0,0,1-2.811-.633l-.941-2.639-.5-1.4a2.934,2.934,0,0,1,.69-3.058l1.877-1.877a4,4,0,0,1,4.875-.6,4.078,4.078,0,0,1,.773.6,3.978,3.978,0,0,1,1.168,2.824,3.981,3.981,0,0,1-1.17,2.824Z" transform="translate(-625.464 111.729)" fill="#4a80aa"/>
          <path id="Trazado_26532" data-name="Trazado 26532" d="M633.075-74.28l-6.94,6.94-.5-1.4a2.934,2.934,0,0,1,.69-3.058l1.877-1.876A3.991,3.991,0,0,1,633.075-74.28Z" transform="translate(-625.464 111.729)" fill="#407093"/>
        </g>
      </g>
      <g id="Grupo_16906" data-name="Grupo 16906" transform="translate(593.162 -109.138)">
        <path id="Trazado_26533" data-name="Trazado 26533" d="M612.117-43.829H638.18a3.1,3.1,0,0,0,2.872-1.919,3.1,3.1,0,0,0-.673-3.389L612.925-76.59a3.1,3.1,0,0,0-3.388-.673,3.1,3.1,0,0,0-1.919,2.871v26.063a4.5,4.5,0,0,0,4.5,4.5Zm-2-30.562a.6.6,0,0,1,1.047-.433l27.453,27.453a.6.6,0,0,1-.433,1.045H612.117a2,2,0,0,1-2-2V-74.392Z" transform="translate(-591.455 112.874)" fill="#00223d"/>
        <path id="Trazado_26534" data-name="Trazado 26534" d="M676.689-33.657,645.344-65l7.363-2.378h0a1.238,1.238,0,0,0,.5-.3L667.039-81.52a1.247,1.247,0,0,0,0-1.764,1.248,1.248,0,0,0-1.766,0l-12.19,12.19a5.584,5.584,0,0,0-1.143-1.656A5.587,5.587,0,0,0,648-74.383a5.594,5.594,0,0,0-1.634-3.946,5.587,5.587,0,0,0-3.945-1.631,5.587,5.587,0,0,0-1.631-3.945,5.586,5.586,0,0,0-1.656-1.143l20.314-20.316a3.635,3.635,0,0,1,5.133,0l8.821,8.822a3.606,3.606,0,0,1,1.063,2.566,3.606,3.606,0,0,1-1.064,2.567l-4.6,4.6a1.247,1.247,0,0,0,0,1.764,1.248,1.248,0,0,0,1.766,0l4.6-4.6a6.086,6.086,0,0,0,1.795-4.332,6.082,6.082,0,0,0-1.795-4.332l-8.821-8.822a6.134,6.134,0,0,0-8.662,0L635.723-85.168a1.239,1.239,0,0,0-.3.5h0l-2.378,7.363-30.147-30.146a5.61,5.61,0,0,0-6.211-1.235,5.608,5.608,0,0,0-3.518,5.264v55.3a1.248,1.248,0,0,0,1.248,1.248,1.247,1.247,0,0,0,1.248-1.248v-55.3a3.159,3.159,0,0,1,1.978-2.959,3.16,3.16,0,0,1,3.491.694l31.05,31.051L630.7-70.077l-1.446,1.446a4.194,4.194,0,0,0-.98,4.359l1.441,4.04a2.934,2.934,0,0,0,2.133,1.887,2.956,2.956,0,0,0,.654.074,2.935,2.935,0,0,0,2.081-.867l3.529-3.529,4.562-1.474,32.247,32.247a3.159,3.159,0,0,1,.694,3.491,3.159,3.159,0,0,1-2.96,1.978H671.41v-4.81a3.619,3.619,0,0,0-3.615-3.615,3.62,3.62,0,0,0-3.615,3.615v4.81h-3.016v-1.481a3.619,3.619,0,0,0-3.615-3.615,3.619,3.619,0,0,0-3.615,3.615v1.481H650.92v-1.481a3.619,3.619,0,0,0-3.615-3.615,3.618,3.618,0,0,0-3.615,3.615v1.481h-3.017v-4.81a3.619,3.619,0,0,0-3.614-3.615,3.619,3.619,0,0,0-3.615,3.615v4.81h-3.017v-1.481a3.619,3.619,0,0,0-3.615-3.615,3.618,3.618,0,0,0-3.614,3.615v1.481h-3.017v-1.481a3.618,3.618,0,0,0-3.615-3.615,3.619,3.619,0,0,0-3.615,3.615v1.481h-3.016v-4.81a3.619,3.619,0,0,0-3.615-3.615,3.619,3.619,0,0,0-3.615,3.615v4.81h-.416a6.643,6.643,0,0,1-6.635-6.636V-43.133a1.248,1.248,0,0,0-1.248-1.248,1.248,1.248,0,0,0-1.248,1.248V-33.06a9.142,9.142,0,0,0,9.131,9.132h70.365a5.61,5.61,0,0,0,5.264-3.518,5.611,5.611,0,0,0-1.234-6.211ZM639.728-78.875a1.25,1.25,0,0,0,.286,1.32,1.25,1.25,0,0,0,1.32.286,3.091,3.091,0,0,1,3.264.706,3.093,3.093,0,0,1,.708,3.266,1.248,1.248,0,0,0,.287,1.32,1.245,1.245,0,0,0,1.321.285,3.091,3.091,0,0,1,3.264.707,3.084,3.084,0,0,1,.829,1.531L640-65.9a5.234,5.234,0,0,0-1.454-4.611,5.237,5.237,0,0,0-4.611-1.454L637.49-82.97a3.093,3.093,0,0,1,1.532.83,3.092,3.092,0,0,1,.706,3.265ZM632.82-60.9a.442.442,0,0,1-.751-.17l-1.442-4.039a1.693,1.693,0,0,1,.395-1.757l1.878-1.877a2.747,2.747,0,0,1,3.881,0,2.749,2.749,0,0,1,0,3.882ZM605.205-26.425v-4.809a1.12,1.12,0,0,1,1.118-1.118,1.119,1.119,0,0,1,1.118,1.118v4.809Zm10.245,0v-1.48a1.119,1.119,0,0,1,1.118-1.118,1.119,1.119,0,0,1,1.119,1.118v1.48Zm10.245,0v-1.48a1.12,1.12,0,0,1,1.119-1.118,1.119,1.119,0,0,1,1.118,1.118v1.48Zm10.246,0v-4.809a1.119,1.119,0,0,1,1.118-1.118,1.12,1.12,0,0,1,1.118,1.118v4.809Zm10.245,0v-1.48a1.119,1.119,0,0,1,1.118-1.118,1.118,1.118,0,0,1,1.118,1.118v1.48Zm10.245,0v-1.48a1.118,1.118,0,0,1,1.118-1.118,1.119,1.119,0,0,1,1.118,1.118v1.48Zm10.245,0v-4.809a1.12,1.12,0,0,1,1.118-1.118,1.12,1.12,0,0,1,1.119,1.118v4.809Z" transform="translate(-593.162 109.138)" fill="#00223d"/>
      </g>
    </g>
    <g id="Grupo_16908" data-name="Grupo 16908" transform="translate(-1613.855 -1815.058)">
      <path id="Trazado_26535" data-name="Trazado 26535" d="M455.014-59.028V-70.5a1.687,1.687,0,0,0-1.687-1.687h-6.311A34.085,34.085,0,0,0,442.455-83.2l4.461-4.46a1.686,1.686,0,0,0,0-2.385l-8.11-8.11a1.686,1.686,0,0,0-2.385,0L431.96-93.7a34.1,34.1,0,0,0-11.017-4.56v-6.312a1.686,1.686,0,0,0-1.687-1.686H407.787a1.686,1.686,0,0,0-1.687,1.686v6.321a34.075,34.075,0,0,0-11,4.568l-4.477-4.477a1.686,1.686,0,0,0-2.385,0l-8.11,8.11a1.686,1.686,0,0,0,0,2.385l4.487,4.487a34.079,34.079,0,0,0-4.545,10.991h-6.354a1.686,1.686,0,0,0-1.686,1.687v11.469a1.686,1.686,0,0,0,1.686,1.687h6.364a34.1,34.1,0,0,0,4.551,10.975l-4.5,4.5a1.686,1.686,0,0,0,0,2.385l8.11,8.11a1.686,1.686,0,0,0,2.385,0l4.5-4.5A34.1,34.1,0,0,0,406.1-31.32v6.363a1.687,1.687,0,0,0,1.687,1.687h11.469a1.687,1.687,0,0,0,1.687-1.687v-6.354a34.064,34.064,0,0,0,10.99-4.544l4.488,4.487a1.686,1.686,0,0,0,2.385,0l8.11-8.11a1.686,1.686,0,0,0,0-2.385l-4.477-4.478a34.091,34.091,0,0,0,4.568-11h6.32A1.687,1.687,0,0,0,455.014-59.028Z" fill="#79b2ff"/>
      <path id="Trazado_26536" data-name="Trazado 26536" d="M419.256-21.583H407.787a3.378,3.378,0,0,1-3.374-3.374v-5.035a35.65,35.65,0,0,1-9.034-3.747l-3.564,3.564a3.378,3.378,0,0,1-4.771,0l-8.11-8.111a3.375,3.375,0,0,1,0-4.77L382.5-46.62a35.661,35.661,0,0,1-3.746-9.034h-5.036a3.378,3.378,0,0,1-3.373-3.374V-70.5a3.378,3.378,0,0,1,3.373-3.374h5.025a35.635,35.635,0,0,1,3.742-9.05l-3.548-3.549a3.375,3.375,0,0,1,0-4.77l8.11-8.11a3.378,3.378,0,0,1,4.771,0l3.536,3.536a35.668,35.668,0,0,1,9.062-3.762v-4.993a3.378,3.378,0,0,1,3.374-3.373h11.469a3.377,3.377,0,0,1,3.373,3.373v4.982a35.656,35.656,0,0,1,9.078,3.758l3.521-3.521a3.377,3.377,0,0,1,4.77,0l8.111,8.11a3.378,3.378,0,0,1,0,4.771l-3.521,3.521a35.671,35.671,0,0,1,3.758,9.077h4.981A3.378,3.378,0,0,1,456.7-70.5v11.469a3.378,3.378,0,0,1-3.374,3.374h-4.993a35.668,35.668,0,0,1-3.762,9.062l3.536,3.536a3.377,3.377,0,0,1,0,4.77L440-30.175a3.377,3.377,0,0,1-4.77,0l-3.548-3.549a35.658,35.658,0,0,1-9.051,3.743v5.024A3.378,3.378,0,0,1,419.256-21.583Zm-24.13-15.975a1.683,1.683,0,0,1,.907.265,32.3,32.3,0,0,0,10.431,4.326,1.687,1.687,0,0,1,1.323,1.647v6.363h11.469v-6.354a1.686,1.686,0,0,1,1.324-1.647,32.318,32.318,0,0,0,10.447-4.319,1.687,1.687,0,0,1,2.1.229l4.487,4.487,8.11-8.11-4.477-4.477a1.686,1.686,0,0,1-.228-2.1,32.3,32.3,0,0,0,4.342-10.457,1.687,1.687,0,0,1,1.647-1.322h6.32V-70.5h-6.311a1.686,1.686,0,0,1-1.647-1.325,32.3,32.3,0,0,0-4.336-10.472,1.687,1.687,0,0,1,.23-2.1l4.46-4.461-8.11-8.11-4.46,4.461a1.688,1.688,0,0,1-2.1.229A32.314,32.314,0,0,0,420.58-96.61a1.686,1.686,0,0,1-1.324-1.647v-6.312H407.787v6.321a1.687,1.687,0,0,1-1.322,1.647,32.315,32.315,0,0,0-10.457,4.341,1.686,1.686,0,0,1-2.1-.228l-4.478-4.477-8.11,8.11,4.487,4.488a1.684,1.684,0,0,1,.23,2.1,32.314,32.314,0,0,0-4.319,10.447,1.687,1.687,0,0,1-1.648,1.325h-6.354v11.469h6.364a1.687,1.687,0,0,1,1.647,1.322,32.308,32.308,0,0,0,4.326,10.432,1.686,1.686,0,0,1-.229,2.1l-4.5,4.5,8.11,8.111,4.5-4.5A1.687,1.687,0,0,1,395.126-37.558Z" fill="#00223d"/>
      <path id="Trazado_26537" data-name="Trazado 26537" d="M436.46-64.763a22.939,22.939,0,0,1-22.939,22.939,22.939,22.939,0,0,1-22.939-22.939A22.94,22.94,0,0,1,413.521-87.7,22.939,22.939,0,0,1,436.46-64.763Z" fill="#fff"/>
      <path id="Trazado_26538" data-name="Trazado 26538" d="M413.521-40.148a24.553,24.553,0,0,1-17.413-7.2,24.656,24.656,0,0,1,0-34.827,24.4,24.4,0,0,1,14.2-7,24.8,24.8,0,0,1,15.25,2.927,1.686,1.686,0,0,1,.646,2.295,1.686,1.686,0,0,1-2.3.647,21.322,21.322,0,0,0-25.415,3.52,21.275,21.275,0,0,0,0,30.055,21.192,21.192,0,0,0,15.027,6.215,21.182,21.182,0,0,0,15.028-6.215,21.226,21.226,0,0,0,3.992-24.524,1.687,1.687,0,0,1,.755-2.264,1.687,1.687,0,0,1,2.262.756,24.6,24.6,0,0,1-4.624,28.418A24.553,24.553,0,0,1,413.521-40.148Z" fill="#00223d"/>
      <path id="Trazado_26539" data-name="Trazado 26539" d="M420.518-75.5l-9.377,9.377-4.617-4.616-6.05,6.049,4.617,4.617,6.05,6.05,15.427-15.427Z" fill="#cbe558"/>
      <path id="Trazado_26540" data-name="Trazado 26540" d="M411.141-52.337a1.689,1.689,0,0,1-1.193-.494L399.282-63.5a1.686,1.686,0,0,1,0-2.385l6.05-6.051a1.686,1.686,0,0,1,1.192-.493,1.686,1.686,0,0,1,1.193.493l3.424,3.424,8.185-8.184a1.686,1.686,0,0,1,2.385,0l6.05,6.05a1.686,1.686,0,0,1,0,2.385L412.334-52.831A1.691,1.691,0,0,1,411.141-52.337ZM402.86-64.691l8.281,8.281,13.042-13.041-3.665-3.665-8.184,8.185a1.689,1.689,0,0,1-1.193.494,1.689,1.689,0,0,1-1.193-.494l-3.424-3.424Z" fill="#00223d"/>
    </g>
    <g id="Grupo_16909" data-name="Grupo 16909" transform="translate(-1518.106 -1810.904)">
      <path id="Trazado_26541" data-name="Trazado 26541" d="M487.647-110.247H544.32a4.049,4.049,0,0,1,4.048,4.048V-31.31a4.049,4.049,0,0,1-4.048,4.048H487.647A4.049,4.049,0,0,1,483.6-31.31V-106.2A4.049,4.049,0,0,1,487.647-110.247Z" transform="translate(-0.162 -0.162)" fill="#5cd6b3"/>
      <path id="Trazado_26542" data-name="Trazado 26542" d="M529.844-102.852H542.27V-33.36H490.994v-69.492H503.42" transform="translate(-0.811 -0.811)" fill="#fff"/>
      <path id="Trazado_26543" data-name="Trazado 26543" d="M508.783-98.1h18.188a3.583,3.583,0,0,0,3.584-3.584v-8.56H505.2v8.56A3.584,3.584,0,0,0,508.783-98.1Z" transform="translate(-2.056 -0.162)" fill="#ff6977"/>
      <path id="Trazado_26544" data-name="Trazado 26544" d="M508.783-98.1h18.188a3.583,3.583,0,0,0,3.584-3.584v-8.56H505.2v8.56A3.584,3.584,0,0,0,508.783-98.1Z" transform="translate(-2.056 -0.162)" fill="#bdd9ff"/>
      <path id="Trazado_26545" data-name="Trazado 26545" d="M544.064-65.949l19.763-19.763a4.462,4.462,0,0,1,6.309,0,4.462,4.462,0,0,1,0,6.309L550.373-59.64,539-54.578Z" transform="translate(-5.02 -2.199)" fill="#ffc15a"/>
      <path id="Trazado_26546" data-name="Trazado 26546" d="M550.373-57.615l-6.309-6.309L539-52.553Z" transform="translate(-5.02 -4.224)" fill="#98a1b3"/>
      <path id="Trazado_26547" data-name="Trazado 26547" d="M570.145-77.233l2.169-2.169a4.462,4.462,0,0,0,0-6.309,4.462,4.462,0,0,0-6.309,0l-2.169,2.169Z" transform="translate(-7.198 -2.199)" fill="#ff6977"/>
      <path id="Trazado_26548" data-name="Trazado 26548" d="M499.869-88.061h10.794v10.795H499.869Z" transform="translate(-1.589 -2.107)" fill="#cbe558"/>
      <path id="Trazado_26549" data-name="Trazado 26549" d="M499.869-67.725h10.794v10.8H499.869Z" transform="translate(-1.589 -3.891)" fill="#cbe558"/>
      <path id="Trazado_26550" data-name="Trazado 26550" d="M499.869-47.388h10.794v10.795H499.869Z" transform="translate(-1.589 -5.674)" fill="#ff6977"/>
      <path id="Trazado_26551" data-name="Trazado 26551" d="M518.934-28.53a1.7,1.7,0,0,0-1.192.494,1.7,1.7,0,0,0-.494,1.192,1.7,1.7,0,0,0,.494,1.192,1.7,1.7,0,0,0,1.192.494,1.7,1.7,0,0,0,1.192-.494,1.7,1.7,0,0,0,.495-1.192,1.7,1.7,0,0,0-.495-1.192A1.7,1.7,0,0,0,518.934-28.53Z" transform="translate(-3.112 -7.327)" fill="#00223d"/>
      <path id="Trazado_26552" data-name="Trazado 26552" d="M566.308-89.1a6.154,6.154,0,0,0-8.693,0l-7.722,7.722v-24.98a5.741,5.741,0,0,0-5.735-5.735H487.485a5.741,5.741,0,0,0-5.735,5.735v74.889a5.741,5.741,0,0,0,5.735,5.735h56.673a5.741,5.741,0,0,0,5.735-5.735V-63.993l16.415-16.416A6.155,6.155,0,0,0,566.308-89.1Zm-19.789-17.258v28.354l-3.373,3.373v-29.028a1.687,1.687,0,0,0-1.687-1.687H530.187v-3.373h13.971A2.364,2.364,0,0,1,546.519-106.361ZM537.31-60.1l2.276-5.115,2.839,2.838Zm-10.5-48.618v6.873a1.9,1.9,0,0,1-1.9,1.9H506.727a1.9,1.9,0,0,1-1.9-1.9v-6.873Zm17.345,79.612H487.485a2.364,2.364,0,0,1-2.361-2.361v-74.889a2.364,2.364,0,0,1,2.361-2.361h13.971v3.373H490.183a1.686,1.686,0,0,0-1.686,1.687V-34.17a1.686,1.686,0,0,0,1.686,1.686h18.891a1.686,1.686,0,0,0,1.687-1.686,1.687,1.687,0,0,0-1.687-1.687h-17.2v-66.118h9.586v.127a5.277,5.277,0,0,0,5.271,5.27h18.188a5.277,5.277,0,0,0,5.271-5.27v-.127h9.586v30.715l-1.921,1.92a1.709,1.709,0,0,0-.348.506l-5.062,11.372a1.685,1.685,0,0,0,.348,1.878,1.687,1.687,0,0,0,1.193.494,1.681,1.681,0,0,0,.686-.146l5.1-2.273v21.65h-17.2a1.687,1.687,0,0,0-1.687,1.687,1.686,1.686,0,0,0,1.687,1.686h18.891a1.687,1.687,0,0,0,1.687-1.686V-59.01l2.893-1.288a1.661,1.661,0,0,0,.48-.324v29.15A2.364,2.364,0,0,1,544.158-29.111Zm13.479-47.4L545.353-64.224l-3.924-3.924,15.209-15.208,3.923,3.924Zm6.287-6.286-.976.976-3.923-3.923.975-.976a2.777,2.777,0,0,1,3.924,0A2.778,2.778,0,0,1,563.923-82.794Z" transform="translate(0 0)" fill="#00223d"/>
      <path id="Trazado_26553" data-name="Trazado 26553" d="M510.5-89.91H499.707a1.686,1.686,0,0,0-1.687,1.687v10.795a1.686,1.686,0,0,0,1.687,1.687H510.5a1.687,1.687,0,0,0,1.687-1.687V-88.223A1.686,1.686,0,0,0,510.5-89.91Zm-1.687,10.795h-7.422v-7.422h7.422Z" transform="translate(-1.427 -1.945)" fill="#00223d"/>
      <path id="Trazado_26554" data-name="Trazado 26554" d="M510.5-69.573H499.707a1.686,1.686,0,0,0-1.687,1.686v10.8a1.686,1.686,0,0,0,1.687,1.686H510.5a1.686,1.686,0,0,0,1.687-1.686v-10.8A1.686,1.686,0,0,0,510.5-69.573Zm-1.687,10.795h-7.422V-66.2h7.422Z" transform="translate(-1.427 -3.729)" fill="#00223d"/>
      <path id="Trazado_26555" data-name="Trazado 26555" d="M510.5-49.237H499.707a1.686,1.686,0,0,0-1.687,1.687v10.795a1.686,1.686,0,0,0,1.687,1.687H510.5a1.686,1.686,0,0,0,1.687-1.687V-47.55A1.687,1.687,0,0,0,510.5-49.237Zm-1.687,10.8h-7.422v-7.422h7.422Z" transform="translate(-1.427 -5.512)" fill="#00223d"/>
      <path id="Trazado_26556" data-name="Trazado 26556" d="M524.526-77.674a1.681,1.681,0,0,0,1.192.494,1.685,1.685,0,0,0,1.193-.494l7.615-7.615a1.688,1.688,0,0,0,0-2.385,1.687,1.687,0,0,0-2.386,0l-6.423,6.422-2.559-2.56a1.687,1.687,0,0,0-2.386,0,1.687,1.687,0,0,0,0,2.386Z" transform="translate(-3.378 -2.098)" fill="#00223d"/>
      <path id="Trazado_26557" data-name="Trazado 26557" d="M524.526-57.337a1.686,1.686,0,0,0,1.192.494,1.687,1.687,0,0,0,1.193-.494l7.615-7.614a1.689,1.689,0,0,0,0-2.386,1.687,1.687,0,0,0-2.386,0l-6.423,6.423-2.559-2.56a1.687,1.687,0,0,0-2.386,0,1.686,1.686,0,0,0,0,2.385Z" transform="translate(-3.378 -3.881)" fill="#00223d"/>
      <path id="Trazado_26558" data-name="Trazado 26558" d="M527.83-39.614,530.445-37a1.685,1.685,0,0,0,1.193.494A1.682,1.682,0,0,0,532.83-37a1.686,1.686,0,0,0,0-2.385L530.216-42l2.615-2.615a1.686,1.686,0,0,0,0-2.385,1.686,1.686,0,0,0-2.386,0l-2.615,2.614L525.215-47a1.686,1.686,0,0,0-2.386,0,1.688,1.688,0,0,0,0,2.385L525.445-42l-2.616,2.616a1.688,1.688,0,0,0,0,2.385,1.685,1.685,0,0,0,1.193.494A1.682,1.682,0,0,0,525.215-37Z" transform="translate(-3.559 -5.664)" fill="#00223d"/>
    </g>
  </g>
</svg>
