<svg xmlns="http://www.w3.org/2000/svg" width="151" height="151" viewBox="0 0 151 151">
  <g id="Grupo_17186" data-name="Grupo 17186" transform="translate(-4070 3955)">
    <g id="Grupo_17179" data-name="Grupo 17179" transform="translate(3430 -1537)">
      <rect id="Rect치ngulo_4278" data-name="Rect치ngulo 4278" width="151" height="151" transform="translate(640 -2418)" fill="none"/>
      <rect id="Rect치ngulo_4284" data-name="Rect치ngulo 4284" width="135" height="135" transform="translate(648 -2410)" fill="none"/>
    </g>
    <g id="Grupo_17183" data-name="Grupo 17183" transform="translate(3591.162 -4596.737)">
      <path id="Trazado_26625" data-name="Trazado 26625" d="M537.2,781.638h71.459a5.255,5.255,0,0,0,5.255-5.255V676.291L590,652.388H511.983a5.255,5.255,0,0,0-5.254,5.254V776.384a5.255,5.255,0,0,0,5.254,5.255Z" transform="translate(5.402 0.575)" fill="#f4f4f4"/>
      <path id="Trazado_26626" data-name="Trazado 26626" d="M571.788,652.628v18.345a5.255,5.255,0,0,0,5.254,5.255h18.345Z" transform="translate(23.619 0.642)" fill="#fec96b"/>
      <path id="Trazado_26627" data-name="Trazado 26627" d="M528.914,667.949a32.073,32.073,0,1,1-32.073,32.073h32.073V667.949Z" transform="translate(2.633 4.932)" fill="#a0e557"/>
      <path id="Trazado_26628" data-name="Trazado 26628" d="M521.9,700.022V667.949a31.971,31.971,0,0,1,22.679,9.394Z" transform="translate(9.649 4.932)" fill="#39ddd2"/>
      <path id="Trazado_26629" data-name="Trazado 26629" d="M521.563,660.6v32.073H489.489A32.073,32.073,0,0,1,521.563,660.6Z" transform="translate(0.575 2.873)" fill="#fec96b"/>
      <circle id="Elipse_980" data-name="Elipse 980" cx="5.254" cy="5.254" r="5.254" transform="translate(597.265 735.871)" fill="#39ddd2"/>
      <circle id="Elipse_981" data-name="Elipse 981" cx="5.254" cy="5.254" r="5.254" transform="translate(571.433 761.169)" fill="#fec96b"/>
      <circle id="Elipse_982" data-name="Elipse 982" cx="5.254" cy="5.254" r="5.254" transform="translate(550.677 741.125)" fill="#a0e557"/>
      <circle id="Elipse_983" data-name="Elipse 983" cx="5.254" cy="5.254" r="5.254" transform="translate(530.494 761.18)" fill="#ff5d5d"/>
      <path id="Trazado_26630" data-name="Trazado 26630" d="M621.171,675.008l-23.907-23.9a2.622,2.622,0,0,0-1.857-.769H517.385a7.89,7.89,0,0,0-7.881,7.881v5.009a34.756,34.756,0,0,0-22.067,32.319,2.627,2.627,0,0,0,2.627,2.626h32.074a2.627,2.627,0,0,0,2.627-2.626V663.471a2.627,2.627,0,0,0-2.627-2.628,34.732,34.732,0,0,0-7.38.792v-3.419a2.63,2.63,0,0,1,2.628-2.627H592.78v16.025a7.89,7.89,0,0,0,7.881,7.881h16.024v97.462a2.629,2.629,0,0,1-2.627,2.627H517.385a2.63,2.63,0,0,1-2.628-2.627V754.453a2.627,2.627,0,1,0-5.253,0v22.505a7.89,7.89,0,0,0,7.881,7.881h96.674a7.89,7.89,0,0,0,7.881-7.881V676.865A2.626,2.626,0,0,0,621.171,675.008ZM519.51,692.918h-26.7a29.494,29.494,0,0,1,26.7-26.7v26.7Zm78.524-21.3V659.3l14.939,14.936H600.661A2.629,2.629,0,0,1,598.035,671.615Z" transform="translate(0 0)" fill="#193651"/>
      <path id="Trazado_26631" data-name="Trazado 26631" d="M505.446,722.937a2.627,2.627,0,1,0,1.857-.769A2.647,2.647,0,0,0,505.446,722.937Z" transform="translate(4.827 20.113)"/>
      <path id="Trazado_26632" data-name="Trazado 26632" d="M564.189,700.6a34.739,34.739,0,0,0-34.7-34.7,2.628,2.628,0,0,0-2.628,2.627V697.97H497.416a2.627,2.627,0,0,0-2.628,2.627,34.7,34.7,0,1,0,69.4,0ZM548.36,678.011l-16.245,16.243V671.267A29.309,29.309,0,0,1,548.36,678.011Zm-48.2,25.212h29.33a2.618,2.618,0,0,0,1.856-.768h0l20.73-20.729a29.441,29.441,0,1,1-51.917,21.5Z" transform="translate(2.058 4.357)" fill="#193651"/>
      <path id="Trazado_26633" data-name="Trazado 26633" d="M554.968,728.243a7.881,7.881,0,1,0-15.035,3.3l-9.64,9.64a7.88,7.88,0,1,0,3.72,3.711l9.586-9.586a7.855,7.855,0,0,0,7.379-.215l9.768,9.768a7.881,7.881,0,1,0,14.229.075l14.993-14.994a7.874,7.874,0,1,0-3.55-3.88L571.283,741.2a7.866,7.866,0,0,0-6.806-.036L554.426,731.11A7.837,7.837,0,0,0,554.968,728.243Zm-28.063,22.68a2.627,2.627,0,1,1,1.816-4.52c.012.011.02.023.031.035s.027.023.04.035a2.624,2.624,0,0,1-1.887,4.451Zm20.182-20.053a2.627,2.627,0,1,1,2.628-2.628A2.63,2.63,0,0,1,547.087,730.871Zm46.587-10.509a2.627,2.627,0,1,1-2.627,2.628A2.631,2.631,0,0,1,593.674,720.362Zm-23.205,27.923a2.627,2.627,0,1,1-2.627-2.626A2.63,2.63,0,0,1,570.469,748.285Z" transform="translate(8.845 18.137)" fill="#193651"/>
      <path id="Trazado_26634" data-name="Trazado 26634" d="M556.829,703.82h13.866a2.627,2.627,0,0,0,0-5.255H556.829a2.627,2.627,0,0,0,0,5.255Z" transform="translate(18.694 13.505)" fill="#193651"/>
      <path id="Trazado_26635" data-name="Trazado 26635" d="M575.148,699.335a2.627,2.627,0,1,0,1.857-.769A2.647,2.647,0,0,0,575.148,699.335Z" transform="translate(24.344 13.505)" fill="#193651"/>
      <path id="Trazado_26636" data-name="Trazado 26636" d="M556.829,684.118H588.92a2.627,2.627,0,0,0,0-5.255H556.829a2.627,2.627,0,0,0,0,5.255Z" transform="translate(18.694 7.988)" fill="#193651"/>
      <path id="Trazado_26637" data-name="Trazado 26637" d="M556.829,693.968H588.92a2.627,2.627,0,1,0,0-5.253H556.829a2.627,2.627,0,1,0,0,5.253Z" transform="translate(18.694 10.746)" fill="#193651"/>
    </g>
  </g>
</svg>
