<svg xmlns="http://www.w3.org/2000/svg" width="117.152" height="117" viewBox="0 0 117.152 117">
  <g id="Solution" transform="translate(62.223 394.32)">
    <path id="Trazado_26749" data-name="Trazado 26749" d="M2.313-312.315v-25.047a8.038,8.038,0,0,0-7.043-8.109,7.81,7.81,0,0,0-8.539,7.005,7.622,7.622,0,0,0-.039.768v6.482l-6.912-6.912a9.705,9.705,0,0,1-8.189,11.016,9.7,9.7,0,0,1-3.965-.238l-5.391,16.174a7.812,7.812,0,0,0,.2,5.468l8.641,20.728v3.9H2.313v-5.857l1.808-3.616A19.526,19.526,0,0,0,4.6-306.971Z" transform="translate(1.851 3.755)" fill="#ffbcab"/>
    <path id="Trazado_26750" data-name="Trazado 26750" d="M4.184-338.655l-.43.43h.391C4.164-338.367,4.164-338.512,4.184-338.655Z" transform="translate(5.076 4.282)" fill="#57a4ff"/>
    <path id="Trazado_26751" data-name="Trazado 26751" d="M7.27-330.407a9.713,9.713,0,0,1-2.79-7.849h-.39L-.579-333.59v12.906a9.763,9.763,0,0,0,9.762,9.763h1.952a3.905,3.905,0,0,0,3.9-3.9v-12.809A9.7,9.7,0,0,1,7.27-330.407Z" transform="translate(4.742 4.313)" fill="#e5a99a"/>
    <path id="Trazado_26752" data-name="Trazado 26752" d="M15.982-342.791l13.8-13.824L17.368-369.034a9.782,9.782,0,0,1-2.772,5.526,9.859,9.859,0,0,1-13.8,0A9.774,9.774,0,0,1,.81-377.33a9.777,9.777,0,0,1,5.508-2.754L-6.1-392.5l-13.825,13.8A9.762,9.762,0,0,0-28.2-389.747a9.764,9.764,0,0,0-11.049,8.279,9.763,9.763,0,0,0,8.279,11.048,9.7,9.7,0,0,0,2.77,0l-13.8,13.8,13.8,13.824a9.762,9.762,0,0,0-11.049,8.278,9.763,9.763,0,0,0,8.279,11.049,9.762,9.762,0,0,0,11.048-8.278,9.71,9.71,0,0,0,0-2.771l6.912,6.912v-6.482a7.81,7.81,0,0,1,7.811-7.81,7.81,7.81,0,0,1,7.81,7.81v4.666l5.1-5.1a9.762,9.762,0,0,0,8.278,11.049,9.763,9.763,0,0,0,11.049-8.278,9.763,9.763,0,0,0-8.278-11.049,9.792,9.792,0,0,0-2.771,0Z" transform="translate(1.555 0.14)" fill="#ffcd00"/>
    <path id="Trazado_26753" data-name="Trazado 26753" d="M12.966-344.467l13.8-13.824L14.352-370.71a9.782,9.782,0,0,1-2.772,5.526,9.671,9.671,0,0,1-4.56,2.538A66.791,66.791,0,0,1-2.8-341.363a7.766,7.766,0,0,1,2.392,5.6v4.666l5.1-5.1a9.762,9.762,0,0,0,8.278,11.049,9.763,9.763,0,0,0,11.049-8.278,9.763,9.763,0,0,0-8.278-11.049,9.792,9.792,0,0,0-2.771,0Z" transform="translate(4.571 1.816)" fill="#e5b800"/>
    <g id="Grupo_17018" data-name="Grupo 17018" transform="translate(-62.223 -394.32)">
      <path id="Trazado_26754" data-name="Trazado 26754" d="M31.307-357.855,18.888-370.273a1.953,1.953,0,0,0-2.761-.012,1.955,1.955,0,0,0-.558,1.11,7.811,7.811,0,0,1-8.837,6.626,7.81,7.81,0,0,1-6.625-8.837,7.808,7.808,0,0,1,6.625-6.625A1.954,1.954,0,0,0,8.39-380.22a1.962,1.962,0,0,0-.558-1.111L-4.586-393.749a1.955,1.955,0,0,0-2.761,0l-10.783,10.78a11.715,11.715,0,0,0-14.343-8.293,11.714,11.714,0,0,0-8.293,14.341,11.714,11.714,0,0,0,8.29,8.293l-10.771,10.773a1.951,1.951,0,0,0,0,2.76l10.776,10.79a11.716,11.716,0,0,0-8.275,14.353,11.719,11.719,0,0,0,6.856,7.795l-4.56,13.149a9.769,9.769,0,0,0,.336,8.606l6.854,16.206a1.564,1.564,0,0,0,.088.181,5.971,5.971,0,0,1,.728,2.869v1.874a1.952,1.952,0,0,0,1.952,1.952,1.952,1.952,0,0,0,1.952-1.952v-1.874a9.881,9.881,0,0,0-1.172-4.656l-6.855-16.206a2.157,2.157,0,0,0-.094-.195,5.929,5.929,0,0,1-.172-5.358l4.776-13.746c.2,0,.406.029.613.029a11.691,11.691,0,0,0,11.307-8.673l3.312,3.3v20.045a1.953,1.953,0,0,0,1.952,1.952,1.952,1.952,0,0,0,1.952-1.952v-27.336A5.858,5.858,0,0,1-5.062-339.8,5.857,5.857,0,0,1,.8-333.943V-310.3a17.66,17.66,0,0,0,1.854,7.858L3.365-301a13.723,13.723,0,0,1,0,12.223l-1.952,3.9a5.871,5.871,0,0,0-.617,2.62v2.983a1.952,1.952,0,0,0,1.952,1.952A1.952,1.952,0,0,0,4.7-279.273v-2.983a1.986,1.986,0,0,1,.195-.872l1.952-3.906a17.644,17.644,0,0,0,0-15.716l-.714-1.433a13.721,13.721,0,0,1-1.342-4.48,13.633,13.633,0,0,0,9.671,4.008,5.857,5.857,0,0,0,5.857-5.857v-11.13a11.7,11.7,0,0,0,8.55-14.171,11.7,11.7,0,0,0-8.337-8.495L31.307-355.1a1.951,1.951,0,0,0,0-2.757Zm-16.844,49.3A9.774,9.774,0,0,1,4.7-318.323v-10.152l1.492-1.493a11.684,11.684,0,0,0,10.223,8.631v10.825A1.953,1.953,0,0,1,14.462-308.56Zm.279-35.472a1.953,1.953,0,0,0-.015,2.761,1.952,1.952,0,0,0,1.679.558,7.81,7.81,0,0,1,8.828,6.639,7.81,7.81,0,0,1-6.638,8.827,7.809,7.809,0,0,1-8.828-6.638,7.759,7.759,0,0,1,0-2.188,1.953,1.953,0,0,0-1.64-2.222,1.948,1.948,0,0,0-1.679.558L4.7-333.986a9.763,9.763,0,0,0-9.784-9.741,9.763,9.763,0,0,0-9.742,9.784h0v1.769l-3.579-3.58a1.953,1.953,0,0,0-2.761-.015,1.952,1.952,0,0,0-.558,1.679,7.81,7.81,0,0,1-6.638,8.828,7.81,7.81,0,0,1-8.828-6.638,7.809,7.809,0,0,1,6.638-8.828,7.766,7.766,0,0,1,2.189,0,1.953,1.953,0,0,0,2.223-1.638,1.95,1.95,0,0,0-.558-1.681l-12.412-12.429,12.426-12.418a1.953,1.953,0,0,0,.015-2.761,1.955,1.955,0,0,0-1.679-.558,7.809,7.809,0,0,1-8.816-6.653,7.811,7.811,0,0,1,2.2-6.592,8,8,0,0,1,11.044,0,7.806,7.806,0,0,1,2.2,6.615,1.953,1.953,0,0,0,1.64,2.222,1.952,1.952,0,0,0,1.679-.558L-5.961-389.6l8.749,8.751A11.716,11.716,0,0,0-2.734-365.23a11.715,11.715,0,0,0,15.62,5.523,11.716,11.716,0,0,0,5.522-5.523l8.751,8.749Z" transform="translate(63.639 394.32)" fill="#00223d"/>
      <path id="Trazado_26755" data-name="Trazado 26755" d="M45.723-356.107H34.008a1.952,1.952,0,0,1-1.952-1.953,1.952,1.952,0,0,1,1.952-1.954H45.723a1.953,1.953,0,0,1,1.952,1.954A1.953,1.953,0,0,1,45.723-356.107Z" transform="translate(69.476 396.959)" fill="#00223d"/>
      <path id="Trazado_26756" data-name="Trazado 26756" d="M32.048-376.539a1.953,1.953,0,0,1-1.952-1.954,1.953,1.953,0,0,1,.976-1.691l10.153-5.857a1.952,1.952,0,0,1,2.662.732,1.951,1.951,0,0,1-.71,2.649L33.024-376.8A1.951,1.951,0,0,1,32.048-376.539Z" transform="translate(69.325 394.938)" fill="#00223d"/>
      <path id="Trazado_26757" data-name="Trazado 26757" d="M42.194-329.4a1.941,1.941,0,0,1-.977-.262l-10.153-5.857a1.953,1.953,0,0,1-.732-2.662,1.952,1.952,0,0,1,2.662-.733l.023.013,10.153,5.858a1.952,1.952,0,0,1,.715,2.667,1.954,1.954,0,0,1-1.691.977Z" transform="translate(69.323 398.563)" fill="#00223d"/>
      <path id="Trazado_26758" data-name="Trazado 26758" d="M-48.555-356.107H-60.271a1.953,1.953,0,0,1-1.952-1.953,1.953,1.953,0,0,1,1.952-1.954h11.716a1.953,1.953,0,0,1,1.952,1.954A1.953,1.953,0,0,1-48.555-356.107Z" transform="translate(62.223 396.959)" fill="#00223d"/>
      <path id="Trazado_26759" data-name="Trazado 26759" d="M-46.708-376.539a1.951,1.951,0,0,1-.976-.262l-10.153-5.858a1.952,1.952,0,0,1-.7-2.672,1.953,1.953,0,0,1,2.649-.71l10.153,5.857a1.953,1.953,0,0,1,.714,2.668A1.953,1.953,0,0,1-46.708-376.539Z" transform="translate(62.486 394.938)" fill="#00223d"/>
      <path id="Trazado_26760" data-name="Trazado 26760" d="M-56.851-329.4a1.952,1.952,0,0,1-1.952-1.952,1.95,1.95,0,0,1,.976-1.691l10.153-5.858a1.953,1.953,0,0,1,2.672.7,1.952,1.952,0,0,1-.7,2.672l-.023.014-10.153,5.857a1.94,1.94,0,0,1-.976.262Z" transform="translate(62.486 398.563)" fill="#00223d"/>
    </g>
  </g>
</svg>
