<svg xmlns="http://www.w3.org/2000/svg" width="125" height="125" viewBox="0 0 125 125">
  <g id="Grupo_17164" data-name="Grupo 17164" transform="translate(-6547 2631)">
    <rect id="Rectángulo_4288" data-name="Rectángulo 4288" width="125" height="125" transform="translate(6547 -2631)" fill="none"/>
    <g id="Grupo_17163" data-name="Grupo 17163" transform="translate(6481.046 -2219.608)">
      <g id="Grupo_16985" data-name="Grupo 16985" transform="translate(100.287 -389.458)">
        <path id="Trazado_26729" data-name="Trazado 26729" d="M122.733-297.457l7.968-2.167,7.969,2.167v.665a7.968,7.968,0,0,1-7.969,7.968,7.968,7.968,0,0,1-7.968-7.968Z" transform="translate(-102.62 382.944)" fill="#60b7ff"/>
        <path id="Trazado_26730" data-name="Trazado 26730" d="M136.378-298.9H122.473a2.841,2.841,0,0,1-2.84-2.841v-18.912l10.876-2.166,8.711,2.166v18.912a2.841,2.841,0,0,1-2.841,2.841Z" transform="translate(-102.428 384.382)" fill="#c4e2ff"/>
        <path id="Trazado_26731" data-name="Trazado 26731" d="M136.4-321.482v19.828a2.841,2.841,0,0,1-2.841,2.841h5.849a2.841,2.841,0,0,0,2.841-2.841v-18.912Z" transform="translate(-103.292 384.3)" fill="#8ac9fe"/>
        <path id="Trazado_26732" data-name="Trazado 26732" d="M155.341-360.346c0-15.405-10.227-27.915-25.586-28.106a28.308,28.308,0,0,0-28.465,28.106,28.034,28.034,0,0,0,9.349,20.931,24.669,24.669,0,0,1,7.794,14.319l.063.375h21.753l.053-.318c.938-5.606,1.632-10.684,5.838-14.509a28.03,28.03,0,0,0,9.2-20.8Z" transform="translate(-101.29 388.454)" fill="#fed402"/>
        <path id="Trazado_26733" data-name="Trazado 26733" d="M131.423-388.452a27.477,27.477,0,0,0-3.253.153,28.11,28.11,0,0,1,25.155,27.953,28.032,28.032,0,0,1-9.2,20.8,25.29,25.29,0,0,0-8,14.509l-.053.317h5.849l.053-.317a25.285,25.285,0,0,1,8-14.509,28.032,28.032,0,0,0,9.2-20.8,28.108,28.108,0,0,0-27.752-28.106Z" transform="translate(-102.957 388.454)" fill="#fac600"/>
        <path id="Trazado_26734" data-name="Trazado 26734" d="M148.989-357.384V-362.1a1.083,1.083,0,0,0-1.083-1.083h-4.45a13.8,13.8,0,0,0-1.508-3.636l3.149-3.149a1.083,1.083,0,0,0,0-1.532l-3.336-3.335a1.083,1.083,0,0,0-1.532,0l-3.148,3.148a13.806,13.806,0,0,0-3.636-1.507v-4.451a1.083,1.083,0,0,0-1.083-1.083h-4.718a1.083,1.083,0,0,0-1.083,1.083v4.451a13.793,13.793,0,0,0-3.636,1.507l-3.149-3.148a1.081,1.081,0,0,0-1.532,0l-3.335,3.335a1.083,1.083,0,0,0,0,1.532l3.148,3.149a13.8,13.8,0,0,0-1.507,3.636H112.1a1.083,1.083,0,0,0-1.083,1.082v4.719A1.083,1.083,0,0,0,112.1-356.3h4.451a13.8,13.8,0,0,0,1.507,3.636l-3.148,3.149a1.083,1.083,0,0,0,0,1.532l3.335,3.335a1.083,1.083,0,0,0,1.532,0l3.149-3.148a13.8,13.8,0,0,0,3.636,1.507v4.451a1.083,1.083,0,0,0,1.083,1.083h4.718a1.083,1.083,0,0,0,1.082-1.083v-4.451a13.8,13.8,0,0,0,3.636-1.507l3.149,3.148a1.083,1.083,0,0,0,1.532,0l3.336-3.335a1.083,1.083,0,0,0,0-1.532l-3.149-3.149a13.8,13.8,0,0,0,1.508-3.636h4.45a1.082,1.082,0,0,0,1.083-1.082ZM130-353.034a6.708,6.708,0,0,1-6.709-6.708A6.709,6.709,0,0,1,130-366.452a6.709,6.709,0,0,1,6.708,6.709A6.708,6.708,0,0,1,130-353.034Z" transform="translate(-101.893 387.851)" fill="#efedef"/>
      </g>
      <g id="_13_idea" data-name="13 idea" transform="translate(85.121 -404.627)">
        <path id="Trazado_26735" data-name="Trazado 26735" d="M131.15-394.085a1.625,1.625,0,0,0,1.625-1.625V-403a1.625,1.625,0,0,0-1.625-1.626A1.626,1.626,0,0,0,129.525-403v7.292A1.625,1.625,0,0,0,131.15-394.085Z" transform="translate(-87.876 404.627)" fill="#00223d"/>
        <path id="Trazado_26736" data-name="Trazado 26736" d="M161.059-391.145l-5.156,5.156a1.625,1.625,0,0,0,0,2.3,1.623,1.623,0,0,0,1.149.477,1.618,1.618,0,0,0,1.149-.477l5.156-5.156a1.623,1.623,0,0,0,0-2.3,1.624,1.624,0,0,0-2.3,0Z" transform="translate(-89.482 403.82)" fill="#00223d"/>
        <path id="Trazado_26737" data-name="Trazado 26737" d="M103.758-333.844,98.6-328.688a1.624,1.624,0,0,0,0,2.3,1.619,1.619,0,0,0,1.148.476,1.619,1.619,0,0,0,1.149-.476l5.157-5.157a1.625,1.625,0,0,0,0-2.3A1.626,1.626,0,0,0,103.758-333.844Z" transform="translate(-85.928 400.266)" fill="#00223d"/>
        <path id="Trazado_26738" data-name="Trazado 26738" d="M103.758-383.691a1.622,1.622,0,0,0,1.149.477,1.62,1.62,0,0,0,1.149-.477,1.625,1.625,0,0,0,0-2.3l-5.157-5.156a1.623,1.623,0,0,0-2.3,0,1.623,1.623,0,0,0,0,2.3Z" transform="translate(-85.928 403.82)" fill="#00223d"/>
        <path id="Trazado_26739" data-name="Trazado 26739" d="M158.2-333.844a1.626,1.626,0,0,0-2.3,0,1.625,1.625,0,0,0,0,2.3l5.157,5.157a1.619,1.619,0,0,0,1.149.476,1.623,1.623,0,0,0,1.149-.476,1.626,1.626,0,0,0,0-2.3Z" transform="translate(-89.482 400.266)" fill="#00223d"/>
        <path id="Trazado_26740" data-name="Trazado 26740" d="M94.037-360.222H86.746a1.625,1.625,0,0,0-1.625,1.625,1.624,1.624,0,0,0,1.625,1.625h7.292a1.624,1.624,0,0,0,1.625-1.625A1.625,1.625,0,0,0,94.037-360.222Z" transform="translate(-85.121 401.872)" fill="#00223d"/>
        <path id="Trazado_26741" data-name="Trazado 26741" d="M175.072-360.222h-7.292a1.625,1.625,0,0,0-1.625,1.625,1.624,1.624,0,0,0,1.625,1.625h7.292A1.624,1.624,0,0,0,176.7-358.6,1.625,1.625,0,0,0,175.072-360.222Z" transform="translate(-90.148 401.872)" fill="#00223d"/>
        <path id="Trazado_26742" data-name="Trazado 26742" d="M142.364-313.892a1.625,1.625,0,0,0,1.625-1.626,1.625,1.625,0,0,0-1.625-1.625h-.587v-5.491l.031-.185a22.991,22.991,0,0,1,1.77-5.769,1.625,1.625,0,0,0-.8-2.153,1.623,1.623,0,0,0-2.153.8,26.293,26.293,0,0,0-1.822,5.544H119.753a26.328,26.328,0,0,0-8.126-14.28,26.407,26.407,0,0,1-8.652-16.822,1.626,1.626,0,0,0-1.792-1.44,1.625,1.625,0,0,0-1.439,1.792,29.658,29.658,0,0,0,9.713,18.889,23.111,23.111,0,0,1,7.276,13.377l.04.243v5.491h-.533a1.625,1.625,0,0,0-1.625,1.625,1.625,1.625,0,0,0,1.625,1.626h.533v4h-.533a1.625,1.625,0,0,0-1.625,1.625,1.625,1.625,0,0,0,1.625,1.625h.533v2.786a4.468,4.468,0,0,0,2.932,4.188,9.539,9.539,0,0,0,5.306,7.914,1.614,1.614,0,0,0,.721.17,1.626,1.626,0,0,0,1.457-.9,1.625,1.625,0,0,0-.733-2.178,6.309,6.309,0,0,1-3.453-4.725h12.542a6.309,6.309,0,0,1-3.453,4.725,1.624,1.624,0,0,0-.733,2.178,1.626,1.626,0,0,0,1.457.9,1.615,1.615,0,0,0,.721-.171,9.537,9.537,0,0,0,5.306-7.913,4.469,4.469,0,0,0,2.931-4.188v-2.786h.587a1.625,1.625,0,0,0,1.625-1.625,1.624,1.624,0,0,0-1.625-1.625h-.587v-4Zm-22.34-7.251h18.5v4h-18.5Zm18.5,17.288a1.217,1.217,0,0,1-1.216,1.216H121.239a1.217,1.217,0,0,1-1.216-1.216v-2.786h18.5Zm0-6.035h-18.5v-4h18.5Z" transform="translate(-86.028 401.669)" fill="#00223d"/>
        <path id="Trazado_26743" data-name="Trazado 26743" d="M130.707-350.707a8.343,8.343,0,0,0,8.333-8.334,8.342,8.342,0,0,0-8.333-8.333,8.343,8.343,0,0,0-8.334,8.333A8.343,8.343,0,0,0,130.707-350.707Zm0-13.418a5.09,5.09,0,0,1,5.084,5.084,5.09,5.09,0,0,1-5.084,5.084,5.09,5.09,0,0,1-5.085-5.084A5.09,5.09,0,0,1,130.707-364.125Z" transform="translate(-87.432 402.316)" fill="#00223d"/>
        <path id="Trazado_26744" data-name="Trazado 26744" d="M111.991-364.92a2.711,2.711,0,0,0-2.708,2.708v4.718a2.711,2.711,0,0,0,2.708,2.708h3.243a15.456,15.456,0,0,0,.712,1.716l-2.293,2.294a2.709,2.709,0,0,0,0,3.829l3.335,3.336a2.712,2.712,0,0,0,3.83,0l2.294-2.293a15.48,15.48,0,0,0,1.716.712v3.243a2.711,2.711,0,0,0,2.708,2.708h4.717a2.711,2.711,0,0,0,2.708-2.708v-3.243a15.479,15.479,0,0,0,1.716-.712l2.294,2.293a2.69,2.69,0,0,0,1.914.794,2.694,2.694,0,0,0,1.915-.794l3.335-3.336a2.709,2.709,0,0,0,0-3.829l-2.293-2.294a15.453,15.453,0,0,0,.712-1.716H147.8a2.711,2.711,0,0,0,2.708-2.708v-4.718a2.711,2.711,0,0,0-2.708-2.708h-3.243a15.449,15.449,0,0,0-.712-1.716l2.293-2.293a2.711,2.711,0,0,0,0-3.83L142.8-376.1a2.693,2.693,0,0,0-1.915-.793,2.69,2.69,0,0,0-1.914.793l-2.294,2.294a15.311,15.311,0,0,0-1.716-.712v-3.243a2.711,2.711,0,0,0-2.708-2.708h-4.717a2.711,2.711,0,0,0-2.708,2.708v3.243a15.312,15.312,0,0,0-1.716.712l-2.294-2.294a2.712,2.712,0,0,0-3.83,0l-3.335,3.336a2.711,2.711,0,0,0,0,3.83l2.293,2.293a15.452,15.452,0,0,0-.712,1.716Zm7.107-3.159-2.766-2.765,2.571-2.571,2.765,2.766a1.626,1.626,0,0,0,1.978.248,12.16,12.16,0,0,1,3.208-1.33,1.626,1.626,0,0,0,1.223-1.575v-3.909h3.635v3.909a1.626,1.626,0,0,0,1.223,1.575,12.129,12.129,0,0,1,3.208,1.33,1.625,1.625,0,0,0,1.978-.248l2.765-2.766,2.571,2.571-2.766,2.765a1.626,1.626,0,0,0-.248,1.978,12.191,12.191,0,0,1,1.33,3.208,1.626,1.626,0,0,0,1.575,1.223h3.908v3.635h-3.908a1.625,1.625,0,0,0-1.575,1.223,12.191,12.191,0,0,1-1.33,3.208,1.626,1.626,0,0,0,.248,1.978l2.766,2.765-2.571,2.571-2.765-2.766a1.623,1.623,0,0,0-1.978-.248,12.179,12.179,0,0,1-3.208,1.33,1.626,1.626,0,0,0-1.223,1.575v3.909h-3.635V-346.4a1.626,1.626,0,0,0-1.223-1.575,12.192,12.192,0,0,1-3.208-1.33,1.625,1.625,0,0,0-1.978.248L118.9-346.29l-2.571-2.571,2.766-2.765a1.625,1.625,0,0,0,.248-1.978,12.226,12.226,0,0,1-1.331-3.208,1.624,1.624,0,0,0-1.574-1.223h-3.909v-3.635h3.909a1.624,1.624,0,0,0,1.574-1.223,12.194,12.194,0,0,1,1.331-3.208,1.623,1.623,0,0,0-.248-1.978Z" transform="translate(-86.62 403.128)" fill="#00223d"/>
        <path id="Trazado_26745" data-name="Trazado 26745" d="M150.455-381.356a29.554,29.554,0,0,0-20.771-8.831,29.614,29.614,0,0,0-19.906,7.419A29.81,29.81,0,0,0,99.813-364.2a1.626,1.626,0,0,0,1.4,1.82,1.625,1.625,0,0,0,1.82-1.4,26.555,26.555,0,0,1,8.884-16.536,26.354,26.354,0,0,1,17.723-6.613,26.317,26.317,0,0,1,18.5,7.866,26.322,26.322,0,0,1,7.647,18.616,26.547,26.547,0,0,1-8.671,19.6,27.962,27.962,0,0,0-2.4,2.468,1.625,1.625,0,0,0,.175,2.291,1.618,1.618,0,0,0,1.057.392,1.618,1.618,0,0,0,1.233-.567,24.834,24.834,0,0,1,2.119-2.18,29.8,29.8,0,0,0,9.734-22,29.554,29.554,0,0,0-8.584-20.9Z" transform="translate(-86.032 403.731)" fill="#00223d"/>
      </g>
    </g>
  </g>
</svg>
