<svg xmlns="http://www.w3.org/2000/svg" width="104.911" height="106.56" viewBox="0 0 104.911 106.56">
  <g id="Grupo_16978" data-name="Grupo 16978" transform="translate(-732.386 417.86)">
    <path id="Trazado_26720" data-name="Trazado 26720" d="M827.129-359.5a46.544,46.544,0,0,1-46.544,46.542,46.361,46.361,0,0,1-17.8-3.527,46.589,46.589,0,0,1-28.3-36.618,46.536,46.536,0,0,1-.438-6.4,46.543,46.543,0,0,1,46.542-46.544A46.545,46.545,0,0,1,827.129-359.5Z" fill="#937de2"/>
    <path id="Trazado_26721" data-name="Trazado 26721" d="M780.585-406.044a47,47,0,0,0-7.234.56A46.556,46.556,0,0,1,812.662-359.5a46.553,46.553,0,0,1-39.307,45.981,46.944,46.944,0,0,0,7.23.561A46.544,46.544,0,0,0,827.129-359.5,46.545,46.545,0,0,0,780.585-406.044Z" fill="#7570d6"/>
    <path id="Trazado_26722" data-name="Trazado 26722" d="M832.939-362.941l-26.578,17.6a9.05,9.05,0,0,1-6.429,1.394,9.077,9.077,0,0,0-6.444,1.39l-3.557,2.357-19.919-29.361,4.887-21.113a22.034,22.034,0,0,0,.568-4.968A22.041,22.041,0,0,0,771.8-407.81a5.248,5.248,0,0,1-.875-2.9,5.26,5.26,0,0,1,2.359-4.4,5.265,5.265,0,0,1,6.575.609l3.166,3.067a33.854,33.854,0,0,1,8.168,12.52l1.717,4.622,17.678-11.68a6.029,6.029,0,0,1,8.446,1.839,6.109,6.109,0,0,1-1.893,8.282.065.065,0,0,0-.025.083.068.068,0,0,0,.087.034,5.967,5.967,0,0,1,2.154-.4,6.065,6.065,0,0,1,3.285.967,6.015,6.015,0,0,1,1.747,1.732,6,6,0,0,1,.886,4.5,6.163,6.163,0,0,1-2.527,3.818.129.129,0,0,0-.033.179l0,0a.127.127,0,0,0,.17.033,6.191,6.191,0,0,1,1.463-.172,6.35,6.35,0,0,1,3.4.985,5.917,5.917,0,0,1,1.758,1.725,6.027,6.027,0,0,1-1.7,8.354c-.068.046-.136.092-.205.136a.1.1,0,0,0-.031.118.058.058,0,0,0,.022.022.1.1,0,0,0,.12-.005,5.9,5.9,0,0,1,5.114.659,6.108,6.108,0,0,1,1.8,1.785A6.03,6.03,0,0,1,832.939-362.941Z" fill="#fdd7bd"/>
    <path id="Trazado_26723" data-name="Trazado 26723" d="M790.185-334.629,778.974-327.2l-16.188,10.72a46.592,46.592,0,0,1-28.3-36.619l18.785-12.441,11.436-7.573a2.86,2.86,0,0,1,3.965.809L790.993-338.6A2.862,2.862,0,0,1,790.185-334.629Z" fill="#87dbff"/>
    <path id="Trazado_26724" data-name="Trazado 26724" d="M790.185-334.629,778.974-327.2l-25.708-38.34,11.436-7.573a2.86,2.86,0,0,1,3.965.809L790.993-338.6A2.862,2.862,0,0,1,790.185-334.629Z" fill="#6fc7ff"/>
    <g id="Grupo_16977" data-name="Grupo 16977">
      <path id="Trazado_26725" data-name="Trazado 26725" d="M822.646-395.168l-8.843,4.732a2.866,2.866,0,0,1-3.655-.821l6.972-4.512a.068.068,0,0,0,.087.034,5.967,5.967,0,0,1,2.154-.4A6.071,6.071,0,0,1,822.646-395.168Z" fill="#fac5aa"/>
      <path id="Trazado_26726" data-name="Trazado 26726" d="M827.756-384.09l-8.651,4.626a2.863,2.863,0,0,1-3.654-.82l6.972-4.511.3-.142a.127.127,0,0,0,.17.034,6.2,6.2,0,0,1,1.463-.173A6.343,6.343,0,0,1,827.756-384.09Z" fill="#fac5aa"/>
      <path id="Trazado_26727" data-name="Trazado 26727" d="M832.835-373.082l-7.62,4.077a2.866,2.866,0,0,1-3.653-.822l6.039-3.908a.1.1,0,0,0,.12-.005A5.9,5.9,0,0,1,832.835-373.082Z" fill="#fac5aa"/>
    </g>
    <path id="Trazado_26728" data-name="Trazado 26728" d="M836.017-372.211a7.626,7.626,0,0,0-4.726-3.253,7.692,7.692,0,0,0-.4-7.816,7.664,7.664,0,0,0-4.725-3.25,7.686,7.686,0,0,0,.727-2.045,7.635,7.635,0,0,0-1.124-5.774,7.628,7.628,0,0,0-4.727-3.254,7.692,7.692,0,0,0-.4-7.816A7.7,7.7,0,0,0,810-407.583l-7.65,5.066a47.819,47.819,0,0,0-12.917-4.371,35.532,35.532,0,0,0-4.929-5.963l-3.165-3.068a6.966,6.966,0,0,0-8.644-.8,6.933,6.933,0,0,0-1.95,9.6c.083.126.164.253.245.38a48.211,48.211,0,0,0-26.828,15.672A48.184,48.184,0,0,0,732.386-359.5a48.36,48.36,0,0,0,.453,6.622,48.346,48.346,0,0,0,29.312,37.924,47.914,47.914,0,0,0,18.432,3.652,47.882,47.882,0,0,0,27.99-8.954,48.072,48.072,0,0,0,17.359-22.874,1.656,1.656,0,0,0-.995-2.121,1.657,1.657,0,0,0-2.121,1,44.773,44.773,0,0,1-16.169,21.3,44.582,44.582,0,0,1-26.064,8.337,44.676,44.676,0,0,1-14.171-2.284l13.481-8.927,0,0h0l11.2-7.42h0a4.493,4.493,0,0,0,1.933-2.867,4.488,4.488,0,0,0-.66-3.395l-.148-.224,2.176-1.442a7.377,7.377,0,0,1,5.259-1.136,10.685,10.685,0,0,0,7.614-1.647l18.051-11.954a44.773,44.773,0,0,1-.61,4.654,1.655,1.655,0,0,0,1.327,1.931,1.571,1.571,0,0,0,.3.029,1.658,1.658,0,0,0,1.627-1.355,48.467,48.467,0,0,0,.791-7.536l5.087-3.369a7.631,7.631,0,0,0,3.288-4.877A7.632,7.632,0,0,0,836.017-372.211Zm-36.883-28.175-5.063,3.352-1-2.685a35.714,35.714,0,0,0-1.422-3.293A44.434,44.434,0,0,1,799.134-400.386ZM746.666-388.9a44.9,44.9,0,0,1,25.91-14.773,20.472,20.472,0,0,1,1.033,12.4l-4.04,17.452a4.474,4.474,0,0,0-2.388-1.334,4.478,4.478,0,0,0-3.4.66l-11.443,7.577h0l-16.5,10.929c-.09-1.165-.137-2.338-.137-3.51A44.876,44.876,0,0,1,746.666-388.9Zm43.122,52.123a1.2,1.2,0,0,1-.517.766h0l-9.841,6.516-18.263-27.237a1.657,1.657,0,0,0-2.3-.453,1.656,1.656,0,0,0-.452,2.3l18.252,27.222-14.048,9.3a45.023,45.023,0,0,1-26.349-34l16.523-10.906,1.9,2.837a1.659,1.659,0,0,0,1.378.734,1.645,1.645,0,0,0,.921-.28,1.656,1.656,0,0,0,.454-2.3L755.56-365.1l10.056-6.638a1.189,1.189,0,0,1,.9-.176,1.2,1.2,0,0,1,.766.516l22.326,33.713A1.2,1.2,0,0,1,789.788-336.777Zm44.106-30.32a4.342,4.342,0,0,1-1.871,2.774l-5.815,3.852-.006,0-20.756,13.746a7.378,7.378,0,0,1-5.259,1.136,10.692,10.692,0,0,0-7.614,1.647L790.4-342.5l-18.286-27.611,4.727-20.418a23.812,23.812,0,0,0-1.743-15.628c-.021-.05-.044-.1-.07-.147a23.567,23.567,0,0,0-1.516-2.651,3.615,3.615,0,0,1,1.017-5.005,3.635,3.635,0,0,1,4.508.418l3.165,3.068a32.391,32.391,0,0,1,7.769,11.907l1.723,4.643.01.024.013.032a.625.625,0,0,0,.036.077,1.581,1.581,0,0,0,.113.2,1.656,1.656,0,0,0,2.3.466l17.672-11.7a4.375,4.375,0,0,1,6.058,1.231,4.377,4.377,0,0,1-1.23,6.059l-1.535,1.016h0l-3.422,2.266-.013.009c-.019.014-.038.027-.054.04a1.655,1.655,0,0,0-.4,2.247,1.658,1.658,0,0,0,2.3.467l3.424-2.269a4.346,4.346,0,0,1,3.282-.637,4.342,4.342,0,0,1,2.774,1.871,4.338,4.338,0,0,1,.64,3.283,4.341,4.341,0,0,1-1.871,2.775l-4.957,3.284a1.655,1.655,0,0,0-.467,2.3,1.657,1.657,0,0,0,1.383.742,1.651,1.651,0,0,0,.913-.276l.767-.508,2.656-1.758a4.376,4.376,0,0,1,6.058,1.231,4.377,4.377,0,0,1-1.231,6.059l-2.476,1.64-.039.026-2.442,1.617a1.655,1.655,0,0,0-.467,2.3,1.653,1.653,0,0,0,1.383.742,1.65,1.65,0,0,0,.913-.275l.767-.508h0l2.655-1.758a4.342,4.342,0,0,1,3.284-.639,4.343,4.343,0,0,1,2.775,1.87A4.347,4.347,0,0,1,833.894-367.1Z" fill="#00223d"/>
  </g>
</svg>
