<svg xmlns="http://www.w3.org/2000/svg" width="151" height="151" viewBox="0 0 151 151">
  <g id="Grupo_17187" data-name="Grupo 17187" transform="translate(-4070 3776)">
    <g id="Grupo_17180" data-name="Grupo 17180" transform="translate(3430 -1358)">
      <rect id="Rect치ngulo_4278" data-name="Rect치ngulo 4278" width="151" height="151" transform="translate(640 -2418)" fill="none"/>
      <rect id="Rect치ngulo_4284" data-name="Rect치ngulo 4284" width="135" height="135" transform="translate(648 -2410)" fill="none"/>
    </g>
    <g id="Grupo_17184" data-name="Grupo 17184" transform="translate(2018.919 -4106.19)">
      <g id="Grupo_16963" data-name="Grupo 16963" transform="translate(2061.954 339.569)">
        <g id="Grupo_16959" data-name="Grupo 16959">
          <path id="Trazado_26638" data-name="Trazado 26638" d="M2148.306,465.825h-68.934a18.223,18.223,0,0,1-18.224-18.223V365.444a18.224,18.224,0,0,1,18.224-18.224H2148.3a18.224,18.224,0,0,1,18.224,18.224V447.6a18.223,18.223,0,0,1-18.223,18.223Z" transform="translate(-2061.148 -333.058)" fill="#f4fbff"/>
          <path id="Trazado_26639" data-name="Trazado 26639" d="M2088.04,465.826h-8.665a18.223,18.223,0,0,1-18.226-18.226V365.444a18.222,18.222,0,0,1,18.226-18.222h8.665a18.221,18.221,0,0,0-18.223,18.222V447.6a18.222,18.222,0,0,0,18.223,18.226Z" transform="translate(-2061.147 -333.057)" fill="#e4f6ff"/>
          <path id="Trazado_26640" data-name="Trazado 26640" d="M2121.3,349.282a16.66,16.66,0,0,0-30.975,0h-5.869a11.4,11.4,0,1,0,0,22.8h42.712a11.4,11.4,0,0,0,0-22.8Z" transform="translate(-2053.119 -338.762)" fill="#ffe07d"/>
          <path id="Trazado_26641" data-name="Trazado 26641" d="M2111.243,339.671a16.7,16.7,0,0,0-10.059,9.609h-5.868a11.4,11.4,0,0,0,0,22.8h-10.86a11.4,11.4,0,1,1,0-22.8h5.865a16.669,16.669,0,0,1,20.922-9.609Z" transform="translate(-2053.119 -338.762)" fill="#ffd064"/>
          <circle id="Elipse_984" data-name="Elipse 984" cx="6.817" cy="6.817" r="6.817" transform="translate(45.874 9.845)" fill="#365e7d"/>
        </g>
        <g id="Grupo_16960" data-name="Grupo 16960" transform="translate(15.142 45.309)">
          <path id="Trazado_26642" data-name="Trazado 26642" d="M2088.656,391.062h-11.691a6.776,6.776,0,0,1-6.775-6.775V372.6a6.776,6.776,0,0,1,6.775-6.775h11.691a6.776,6.776,0,0,1,6.775,6.775v11.691A6.776,6.776,0,0,1,2088.656,391.062Z" transform="translate(-2070.191 -365.822)" fill="#b3e59f"/>
        </g>
        <g id="Grupo_16961" data-name="Grupo 16961" transform="translate(15.142 83.459)">
          <path id="Trazado_26643" data-name="Trazado 26643" d="M2088.656,413.846h-11.691a6.776,6.776,0,0,1-6.775-6.775V395.381a6.776,6.776,0,0,1,6.775-6.775h11.691a6.776,6.776,0,0,1,6.775,6.775v11.691A6.776,6.776,0,0,1,2088.656,413.846Z" transform="translate(-2070.191 -388.606)" fill="#b3e59f"/>
        </g>
        <g id="Grupo_16962" data-name="Grupo 16962" transform="translate(64.326 13.847)">
          <path id="Trazado_26644" data-name="Trazado 26644" d="M2124.723,387.864a6.515,6.515,0,0,0,9.148-1.105l13.9-17.71A6.516,6.516,0,1,0,2137.513,361l-13.894,17.71A6.515,6.515,0,0,0,2124.723,387.864Z" transform="translate(-2084.281 -339.291)" fill="#80b4fb"/>
          <path id="Trazado_26645" data-name="Trazado 26645" d="M2116,395.831l-2.319,2.955a7.9,7.9,0,0,1-12.429-9.752l2.319-2.955,12.389-1.073Z" transform="translate(-2099.565 -321.422)" fill="#ffe07d"/>
          <path id="Trazado_26646" data-name="Trazado 26646" d="M2104.5,398.689a7.956,7.956,0,0,0,.915,2.855,7.9,7.9,0,0,1-4.167-12.509l2.319-2.954,12.387-1.075.017,4.255-7.523.65-2.318,2.955A7.879,7.879,0,0,0,2104.5,398.689Z" transform="translate(-2099.566 -321.422)" fill="#ffd064"/>
          <path id="Trazado_26647" data-name="Trazado 26647" d="M2147.682,370.021l-33.3,42.438-12.427-9.75,33.236-42.361" transform="translate(-2097.953 -338.051)" fill="#e27f83"/>
          <path id="Trazado_26648" data-name="Trazado 26648" d="M2140.137,364.1l-33.3,42.438-4.884-3.831,33.236-42.361" transform="translate(-2097.953 -338.051)" fill="#c8646d"/>
          <path id="Trazado_26649" data-name="Trazado 26649" d="M2135.652,373.426l12.059-18.4a5.161,5.161,0,0,0-8.09-6.349l-15,16.093" transform="translate(-2082.671 -347.031)" fill="#9dc6fb"/>
          <path id="Trazado_26650" data-name="Trazado 26650" d="M2146.582,348.132c-.2-.156-.7.106-1.356.665a19.234,19.234,0,0,0-2.319,2.456L2129.1,368.282l-4.482-3.516,15-16.091a5.162,5.162,0,0,1,6.962-.543Z" transform="translate(-2082.67 -347.032)" fill="#80b4fb"/>
          <path id="Trazado_26651" data-name="Trazado 26651" d="M2138.25,366.625l-11.036-8.658a3.989,3.989,0,1,0-4.924,6.276l11.036,8.658a3.988,3.988,0,0,0,4.924-6.276Z" transform="translate(-2085.27 -340.231)" fill="#9dc6fb"/>
          <path id="Trazado_26652" data-name="Trazado 26652" d="M2126.281,365.889a3.979,3.979,0,0,0,1.5,2.659l-5.488-4.307a3.989,3.989,0,0,1,4.924-6.277l5.489,4.307a3.99,3.99,0,0,0-6.423,3.618Z" transform="translate(-2085.27 -340.232)" fill="#80b4fb"/>
        </g>
      </g>
      <g id="Grupo_16964" data-name="Grupo 16964" transform="translate(2059.952 337.566)">
        <path id="Trazado_26653" data-name="Trazado 26653" d="M2096.169,343.445a8.82,8.82,0,1,0,8.82,8.821A8.83,8.83,0,0,0,2096.169,343.445Zm0,13.633a4.813,4.813,0,1,1,4.813-4.812A4.817,4.817,0,0,1,2096.169,357.078Z" transform="translate(-2041.475 -333.601)" fill="#00223d"/>
        <path id="Trazado_26654" data-name="Trazado 26654" d="M2077.772,393.871h11.69a8.787,8.787,0,0,0,8.777-8.777V373.4a8.788,8.788,0,0,0-8.777-8.777h-11.69A8.787,8.787,0,0,0,2069,373.4v11.691A8.786,8.786,0,0,0,2077.772,393.871ZM2073,373.4a4.776,4.776,0,0,1,4.771-4.77h11.69a4.776,4.776,0,0,1,4.771,4.77v11.691a4.776,4.776,0,0,1-4.771,4.77h-11.69a4.776,4.776,0,0,1-4.771-4.77Z" transform="translate(-2053.853 -319.317)" fill="#00223d"/>
        <path id="Trazado_26655" data-name="Trazado 26655" d="M2078.083,383.455a2.005,2.005,0,0,0,1.545.728c.044,0,.086,0,.129,0a2,2,0,0,0,1.568-.934l6.987-11.111A2,2,0,1,0,2084.92,370l-5.509,8.762-2.905-3.525a2,2,0,0,0-3.093,2.548Z" transform="translate(-2051.182 -316.324)" fill="#00223d"/>
        <path id="Trazado_26656" data-name="Trazado 26656" d="M2091.417,373.144h31.211a2,2,0,0,0,0-4.007h-31.211a2,2,0,1,0,0,4.007Z" transform="translate(-2040.084 -316.274)" fill="#00223d"/>
        <path id="Trazado_26657" data-name="Trazado 26657" d="M2091.417,379.195h15.6a2,2,0,0,0,0-4.007h-15.6a2,2,0,1,0,0,4.007Z" transform="translate(-2040.084 -312.194)" fill="#00223d"/>
        <path id="Trazado_26658" data-name="Trazado 26658" d="M2069,407.878a8.787,8.787,0,0,0,8.777,8.777h11.69a8.788,8.788,0,0,0,8.777-8.777V396.187a8.787,8.787,0,0,0-8.777-8.777h-11.69a8.786,8.786,0,0,0-8.777,8.777ZM2073,396.187a4.776,4.776,0,0,1,4.771-4.77h11.69a4.776,4.776,0,0,1,4.771,4.77v11.691a4.776,4.776,0,0,1-4.771,4.77h-11.69a4.776,4.776,0,0,1-4.771-4.77Z" transform="translate(-2053.853 -303.951)" fill="#00223d"/>
        <path id="Trazado_26659" data-name="Trazado 26659" d="M2078.083,406.238a2,2,0,0,0,1.545.73c.044,0,.086,0,.129-.005a2,2,0,0,0,1.568-.933l6.987-11.111a2,2,0,0,0-3.392-2.133l-5.509,8.762-2.905-3.525a2,2,0,1,0-3.093,2.548Z" transform="translate(-2051.182 -300.958)" fill="#00223d"/>
        <path id="Trazado_26660" data-name="Trazado 26660" d="M2107.021,401.979a2,2,0,0,0,0-4.008h-15.6a2,2,0,1,0,0,4.008Z" transform="translate(-2040.084 -296.829)" fill="#00223d"/>
        <path id="Trazado_26661" data-name="Trazado 26661" d="M2189.9,372.449a8.522,8.522,0,0,0-2.52-1.37L2193,362.5A7.167,7.167,0,0,0,2187,351.412a7.2,7.2,0,0,0-5.24,2.279L2179.607,356a2,2,0,1,0,2.93,2.733l2.158-2.312a3.157,3.157,0,0,1,4.95,3.885l-10.862,16.578-7.605-5.968,5.9-6.324a2,2,0,0,0-2.932-2.733l-5.294,5.678a20.315,20.315,0,0,0-19.738-15.811h-3.938a13.35,13.35,0,0,0-9.173-3.643h-4.563a18.665,18.665,0,0,0-33.587,0h-4.562a13.354,13.354,0,0,0-9.172,3.644h-3.937a20.251,20.251,0,0,0-20.229,20.225v82.16a20.253,20.253,0,0,0,20.229,20.228h4.658a2,2,0,1,0,0-4.007h-4.658a16.24,16.24,0,0,1-16.222-16.222v-82.16a16.238,16.238,0,0,1,16.222-16.217h1a13.4,13.4,0,0,0,12.1,19.159H2136a13.4,13.4,0,0,0,12.1-19.159h1.006a16.285,16.285,0,0,1,15.815,12.625,5.984,5.984,0,0,0-4.677,8.275l-33.86,43.156a9.836,9.836,0,0,0-2.041,7.3,9.97,9.97,0,0,0,.3,1.489h-13.364a2,2,0,0,0,0,4.007h15.108l-1.217,1.554a2,2,0,1,0,3.151,2.473l1.445-1.842a9.794,9.794,0,0,0,4.392,1.036,10.062,10.062,0,0,0,1.206-.074,9.835,9.835,0,0,0,6.6-3.717l22.807-29.073c.176.172.362.335.552.494v50.674a16.238,16.238,0,0,1-16.217,16.222h-56.26a2,2,0,1,0,0,4.007h56.26a20.251,20.251,0,0,0,20.225-20.228V405.264a8.539,8.539,0,0,0,8.109-3.141l13.9-17.712a8.521,8.521,0,0,0-1.445-11.962Zm-53.9-1.562H2093.29a9.4,9.4,0,0,1,0-18.793h5.868a2,2,0,0,0,1.862-1.266,14.658,14.658,0,0,1,27.251,0,2,2,0,0,0,1.862,1.266H2136a9.4,9.4,0,0,1,0,18.793Zm28.2,2.177a1.971,1.971,0,0,1,1.323-.745,2,2,0,0,1,.243-.015,1.961,1.961,0,0,1,1.221.424l11.036,8.658h0a1.985,1.985,0,0,1-2.45,3.124l-11.038-8.66a1.983,1.983,0,0,1-.335-2.786Zm-21.829,51.947-3.061-2.4,21.923-27.942a2,2,0,1,0-3.153-2.473l-21.921,27.942-3.063-2.4,29.846-38.041,9.275,7.277Zm-7.486,6.746a5.894,5.894,0,0,1-5.343-9.49l1.082-1.38,9.276,7.279-1.083,1.378A5.847,5.847,0,0,1,2134.887,431.756Zm53.3-49.818-13.9,17.71a4.5,4.5,0,0,1-7.012.105l8.548-10.894a6.168,6.168,0,0,0,.961.077,5.987,5.987,0,0,0,4.99-9.315l3.254-4.968a4.516,4.516,0,0,1,3.156,7.284Z" transform="translate(-2059.952 -337.566)" fill="#00223d"/>
      </g>
    </g>
  </g>
</svg>
