<svg xmlns="http://www.w3.org/2000/svg" width="103.356" height="103.356" viewBox="0 0 103.356 103.356">
  <g id="Grupo_16970" data-name="Grupo 16970" transform="translate(-287 -2633)">
    <circle id="Elipse_655" data-name="Elipse 655" cx="51.678" cy="51.678" r="51.678" transform="translate(287 2736.356) rotate(-90)" fill="#f7ffab"/>
    <g id="Grupo_16969" data-name="Grupo 16969" transform="translate(-267.826 3052.379)">
      <path id="Trazado_26688" data-name="Trazado 26688" d="M605.417-375.206l-5.682-.584a17.475,17.475,0,0,1-14.715-11.072l-3.787-9.616a2.956,2.956,0,0,1,1.6-3.788h.147l30.741-11.073a3.032,3.032,0,0,1,3.788,1.749l3.205,9.616a17.4,17.4,0,0,1-3.351,16.9l-3.934,4.516,15.589,40.794h5.828a2.666,2.666,0,0,1,2.622,1.895l.875,2.185-21.416,8.45-.875-2.185a2.932,2.932,0,0,1,.729-3.205l4.225-4.079Z" transform="translate(-4.546 -0.44)" fill="#f4a422"/>
      <path id="Trazado_26689" data-name="Trazado 26689" d="M620.51-383.194l-2.04-2.04c6.41-6.411-.146-17.047-.146-17.192l2.476-1.6C621.093-403.446,628.523-391.207,620.51-383.194Z" transform="translate(-13.374 -2.214)" fill="#edc17c"/>
      <path id="Trazado_26690" data-name="Trazado 26690" d="M648.268-312.805a2.8,2.8,0,0,0-2.622-1.894h-5.828l-8.013,3.206-4.225,4.079a2.931,2.931,0,0,0-.729,3.205l.875,2.185,21.416-8.45Z" transform="translate(-15.345 -23.359)" fill="#e8821c"/>
      <path id="Trazado_26691" data-name="Trazado 26691" d="M630.191-343.016l-8.3-22.292a2.972,2.972,0,0,0-3.788-1.747h-.146l-16.027,6.992a3.445,3.445,0,0,0-1.747,2.04l-1.166,5.828-36.423,14.57v20.4l42.251-17.483,10.781,1.312a2.878,2.878,0,0,0,1.6-.292l11.51-5.682A3.063,3.063,0,0,0,630.191-343.016Z" transform="translate(-0.181 -10.922)" fill="#efccbf"/>
      <path id="Trazado_26692" data-name="Trazado 26692" d="M605.79-347.53,591.22-341.7l5.828,17.629,14.57-5.974Z" transform="translate(-6.958 -15.587)" fill="#676b7f"/>
      <g id="Grupo_16968" data-name="Grupo 16968" transform="translate(562.408 -406.825)">
        <path id="Trazado_26693" data-name="Trazado 26693" d="M655.316-404.792v1.457a8.767,8.767,0,0,1-8.742,8.741,8.767,8.767,0,0,1,8.742,8.742v0a8.768,8.768,0,0,1,8.741-8.742,8.767,8.767,0,0,1-8.741-8.741Z" transform="translate(-582.469 404.792)" fill="#f4c167"/>
        <path id="Trazado_26694" data-name="Trazado 26694" d="M571.331-366.617v1.456a8.767,8.767,0,0,1-8.742,8.742,8.767,8.767,0,0,1,8.742,8.741v0a8.768,8.768,0,0,1,8.741-8.741,8.767,8.767,0,0,1-8.741-8.742Z" transform="translate(-562.589 395.756)" fill="#f4c167"/>
        <path id="Trazado_26695" data-name="Trazado 26695" d="M662.951-366.617v1.456a8.767,8.767,0,0,1-8.742,8.742,8.767,8.767,0,0,1,8.742,8.741v0a8.768,8.768,0,0,1,8.741-8.741,8.767,8.767,0,0,1-8.741-8.742Z" transform="translate(-584.276 395.756)" fill="#f4c167"/>
      </g>
      <path id="Trazado_26696" data-name="Trazado 26696" d="M590.27-322.266l-27.681,11.51v-20.4l21.854-8.742Z" transform="translate(-0.181 -17.395)" fill="#4a4a56"/>
      <path id="Trazado_26697" data-name="Trazado 26697" d="M601.554-330.162l2.622-.875-4.225-12.675-2.622,1.02Z" transform="translate(-8.404 -16.491)" fill="#4a4a56"/>
      <path id="Trazado_26698" data-name="Trazado 26698" d="M639.182-360.7l-8.45,2.914.874,2.623,8.6-2.769Z" transform="translate(-16.311 -12.47)" fill="#d8b4ad"/>
      <path id="Trazado_26699" data-name="Trazado 26699" d="M642.854-350.965l-8.3,2.768.875,2.623,8.45-2.769Z" transform="translate(-17.214 -14.774)" fill="#d8b4ad"/>
      <path id="Trazado_26700" data-name="Trazado 26700" d="M646.38-341.421l-8.013,2.768.874,2.623,8.159-2.623Z" transform="translate(-18.118 -17.033)" fill="#d8b4ad"/>
      <path id="Trazado_26701" data-name="Trazado 26701" d="M605.417-375.206l-5.682-.584a17.475,17.475,0,0,1-14.715-11.072l-3.787-9.616a2.956,2.956,0,0,1,1.6-3.788h.147l30.741-11.073a3.032,3.032,0,0,1,3.788,1.749l3.205,9.616a17.4,17.4,0,0,1-3.351,16.9l-3.934,4.516,15.589,40.794h5.828a2.666,2.666,0,0,1,2.622,1.895l.875,2.185-21.416,8.45-.875-2.185a2.932,2.932,0,0,1,.729-3.205l4.225-4.079Z" transform="translate(-4.546 -0.44)" fill="#f4a422"/>
      <path id="Trazado_26702" data-name="Trazado 26702" d="M620.51-383.194l-2.04-2.04c6.41-6.411-.146-17.047-.146-17.192l2.476-1.6C621.093-403.446,628.523-391.207,620.51-383.194Z" transform="translate(-13.374 -2.214)" fill="#edc17c"/>
      <path id="Trazado_26703" data-name="Trazado 26703" d="M648.268-312.805a2.8,2.8,0,0,0-2.622-1.894h-5.828l-8.013,3.206-4.225,4.079a2.931,2.931,0,0,0-.729,3.205l.875,2.185,21.416-8.45Z" transform="translate(-15.345 -23.359)" fill="#e8821c"/>
      <path id="Trazado_26704" data-name="Trazado 26704" d="M630.191-343.016l-8.3-22.292a2.972,2.972,0,0,0-3.788-1.747h-.146l-16.027,6.992a3.445,3.445,0,0,0-1.747,2.04l-1.166,5.828-36.423,14.57v20.4l42.251-17.483,10.781,1.312a2.878,2.878,0,0,0,1.6-.292l11.51-5.682A3.063,3.063,0,0,0,630.191-343.016Z" transform="translate(-0.181 -10.922)" fill="#efccbf"/>
      <path id="Trazado_26705" data-name="Trazado 26705" d="M605.79-347.53,591.22-341.7l5.828,17.629,14.57-5.974Z" transform="translate(-6.958 -15.587)" fill="#676b7f"/>
      <path id="Trazado_26706" data-name="Trazado 26706" d="M655.316-404.792v1.457a8.767,8.767,0,0,1-8.742,8.741,8.767,8.767,0,0,1,8.742,8.742v0a8.768,8.768,0,0,1,8.741-8.742,8.767,8.767,0,0,1-8.741-8.741Z" transform="translate(-20.061 -2.033)" fill="#f4c167"/>
      <path id="Trazado_26707" data-name="Trazado 26707" d="M571.331-366.617v1.456a8.767,8.767,0,0,1-8.742,8.742,8.767,8.767,0,0,1,8.742,8.741v0a8.768,8.768,0,0,1,8.741-8.741,8.767,8.767,0,0,1-8.741-8.742Z" transform="translate(-0.181 -11.069)" fill="#f4c167"/>
      <path id="Trazado_26708" data-name="Trazado 26708" d="M662.951-366.617v1.456a8.767,8.767,0,0,1-8.742,8.742,8.767,8.767,0,0,1,8.742,8.741v0a8.768,8.768,0,0,1,8.741-8.741,8.767,8.767,0,0,1-8.741-8.742Z" transform="translate(-21.868 -11.069)" fill="#f4c167"/>
      <path id="Trazado_26709" data-name="Trazado 26709" d="M590.27-322.266l-27.681,11.51v-20.4l21.854-8.742Z" transform="translate(-0.181 -17.395)" fill="#4a4a56"/>
      <path id="Trazado_26710" data-name="Trazado 26710" d="M601.554-330.162l2.622-.875-4.225-12.675-2.622,1.02Z" transform="translate(-8.404 -16.491)" fill="#4a4a56"/>
      <path id="Trazado_26711" data-name="Trazado 26711" d="M639.182-360.7l-8.45,2.914.874,2.623,8.6-2.769Z" transform="translate(-16.311 -12.47)" fill="#d8b4ad"/>
      <path id="Trazado_26712" data-name="Trazado 26712" d="M642.854-350.965l-8.3,2.768.875,2.623,8.45-2.769Z" transform="translate(-17.214 -14.774)" fill="#d8b4ad"/>
      <path id="Trazado_26713" data-name="Trazado 26713" d="M646.38-341.421l-8.013,2.768.874,2.623,8.159-2.623Z" transform="translate(-18.118 -17.033)" fill="#d8b4ad"/>
      <path id="Trazado_26714" data-name="Trazado 26714" d="M653.859-385.852v1.456h2.914v-1.456a7.214,7.214,0,0,1,7.285-7.285v-2.914a7.214,7.214,0,0,1-7.285-7.284v-1.457h-2.914v1.457a7.213,7.213,0,0,1-7.285,7.284v2.914A7.214,7.214,0,0,1,653.859-385.852Zm1.457-12.239a10.036,10.036,0,0,0,3.5,3.5,10.045,10.045,0,0,0-3.5,3.5,10.046,10.046,0,0,0-3.5-3.5A10.038,10.038,0,0,0,655.316-398.09Z" transform="translate(-20.061 -2.033)" fill="#00223d"/>
      <path id="Trazado_26715" data-name="Trazado 26715" d="M569.874-347.677v1.457h2.914v-1.457a7.213,7.213,0,0,1,7.284-7.284v-2.914a7.213,7.213,0,0,1-7.284-7.285v-1.456h-2.914v1.456a7.213,7.213,0,0,1-7.285,7.285v2.914A7.214,7.214,0,0,1,569.874-347.677Zm1.457-12.238a10.039,10.039,0,0,0,3.5,3.5,10.041,10.041,0,0,0-3.5,3.5,10.046,10.046,0,0,0-3.5-3.5A10.044,10.044,0,0,0,571.331-359.915Z" transform="translate(-0.181 -11.069)" fill="#00223d"/>
      <path id="Trazado_26716" data-name="Trazado 26716" d="M630.3-339.369h-4.807l-2.623-6.265,6.411-3.205a4.377,4.377,0,0,0,2.185-5.39l-8.3-22.291a4.488,4.488,0,0,0-5.682-2.623.143.143,0,0,0-.146.146l-6.119,2.623-.728-2.04,3.352-3.933a17.145,17.145,0,0,0,4.225-9.324l4.225-5.1a7.652,7.652,0,0,0-1.021-10.782,12.2,12.2,0,0,0-1.747-1.165,7.234,7.234,0,0,0-4.954-.437l-.437-1.312a4.213,4.213,0,0,0-5.536-2.622l-30.742,11.072a4.264,4.264,0,0,0-2.622,5.536v.146l.728,1.894a8.072,8.072,0,0,0-4.226,9.908,8.286,8.286,0,0,0,6.7,5.39l6.847.728a18.971,18.971,0,0,0,9.47,3.642l4.807.437.875,2.186a4.335,4.335,0,0,0-2.039,2.913l-1.021,4.954-35.549,14.423,1.02,2.768,20.4-8.158,4.953,14.861-26.37,10.926,1.166,2.623,41.814-17.338,7.285.874,2.622,8.013-3.5,3.352a4.2,4.2,0,0,0-1.019,4.808l1.456,3.642,24.185-9.469-1.311-3.5A4.646,4.646,0,0,0,630.3-339.369Zm-7.867.292-5.245,1.748-1.894-5.535a3.238,3.238,0,0,0,2.331-.438l2.477-1.165ZM618.5-376.666a1.446,1.446,0,0,1,1.894.729l1.166,3.059-7.139,2.331.874,2.768,7.139-2.331,1.748,4.662-6.847,2.33.875,2.769,6.993-2.332,1.749,4.662-6.7,2.185.874,2.768,6.847-2.331.728,1.894a1.286,1.286,0,0,1-.728,1.749l-11.51,5.682a1.846,1.846,0,0,1-.874.146l-9.907-1.166-5.39-16.171,1.02-5.391a1.54,1.54,0,0,1,.875-1.02Zm-.146-29.43a4.827,4.827,0,0,1,2.477,6.265,5.091,5.091,0,0,1-.728,1.166l-1.749,2.185a21.722,21.722,0,0,0-.874-4.225l-1.894-5.682A5.824,5.824,0,0,1,618.354-406.1Zm-43.708,20.835a5.018,5.018,0,0,1,2.477-6.265l2.039,4.954a21.117,21.117,0,0,0,2.914,4.954l-3.059-.292A4.873,4.873,0,0,1,574.647-385.262Zm20.688,7.721a15.923,15.923,0,0,1-13.4-10.053l-3.787-9.616a1.445,1.445,0,0,1,.729-1.894l30.74-11.073a1.61,1.61,0,0,1,1.166,0,1.492,1.492,0,0,1,.728.875l3.205,9.615a16.014,16.014,0,0,1-3.059,15.443L607.136-379l1.311,3.5-5.245,2.185-1.457-3.642Zm-9.324,21.126,3.351-1.311L593-346.653l2.768-.875-3.787-11.364,5.828-2.331,4.954,14.715-11.8,4.953Zm27.244,29.139-.437-.875a2.021,2.021,0,0,1,.292-1.6l4.954-4.662,6.264-2.039h5.828a1.475,1.475,0,0,1,1.311.874l.292.874Z" fill="#00223d"/>
      <path id="Trazado_26717" data-name="Trazado 26717" d="M664.407-365.161v-1.456h-2.914v1.456a7.213,7.213,0,0,1-7.285,7.285v2.914a7.214,7.214,0,0,1,7.285,7.284v1.457h2.914v-1.457a7.214,7.214,0,0,1,7.285-7.284v-2.914A7.214,7.214,0,0,1,664.407-365.161Zm-1.456,12.239a10.046,10.046,0,0,0-3.5-3.5,10.044,10.044,0,0,0,3.5-3.5,10.043,10.043,0,0,0,3.5,3.5A10.045,10.045,0,0,0,662.951-352.921Z" transform="translate(-21.868 -11.069)" fill="#00223d"/>
      <path id="Trazado_26718" data-name="Trazado 26718" d="M618.426-385.189l2.04,2.04c8.013-8.013.582-20.252.146-20.689l-2.477,1.6C618.28-402.235,624.836-391.6,618.426-385.189Z" transform="translate(-13.329 -2.259)"/>
    </g>
  </g>
</svg>
