<svg xmlns="http://www.w3.org/2000/svg" width="93.008" height="93" viewBox="0 0 93.008 93">
  <g id="Grupo_17043" data-name="Grupo 17043" transform="translate(-360.805 -932.757)">
    <g id="Grupo_16473" data-name="Grupo 16473" transform="translate(362.621 941.836)">
      <circle id="Elipse_914" data-name="Elipse 914" cx="41.052" cy="41.052" r="41.052" fill="#ff7b79"/>
    </g>
    <g id="Grupo_16474" data-name="Grupo 16474" transform="translate(374.247 953.461)">
      <circle id="Elipse_915" data-name="Elipse 915" cx="29.427" cy="29.427" r="29.427" fill="#fff"/>
    </g>
    <g id="Grupo_16475" data-name="Grupo 16475" transform="translate(385.872 965.087)">
      <circle id="Elipse_916" data-name="Elipse 916" cx="17.801" cy="17.801" r="17.801" fill="#ff7b79"/>
    </g>
    <g id="Grupo_16476" data-name="Grupo 16476" transform="translate(397.498 976.712)">
      <circle id="Elipse_917" data-name="Elipse 917" cx="6.176" cy="6.176" r="6.176" fill="#fff"/>
    </g>
    <g id="Grupo_16483" data-name="Grupo 16483" transform="translate(408.063 934.569)">
      <g id="Grupo_16478" data-name="Grupo 16478" transform="translate(6.507 13.981)">
        <g id="Grupo_16477" data-name="Grupo 16477">
          <path id="Trazado_25596" data-name="Trazado 25596" d="M411.937,964.988l17.211-17.211,6.233,6.233L418.17,971.221Z" transform="translate(-411.937 -947.777)" fill="#66e0f7"/>
        </g>
      </g>
      <g id="Grupo_16479" data-name="Grupo 16479" transform="translate(0 31.188)">
        <path id="Trazado_25597" data-name="Trazado 25597" d="M411.982,976.891l-6.223-.01-.011-6.224,6.515-6.515,6.234,6.234Z" transform="translate(-405.749 -964.142)" fill="#c193dc"/>
      </g>
      <g id="Grupo_16482" data-name="Grupo 16482" transform="translate(22.365)">
        <g id="Grupo_16480" data-name="Grupo 16480" transform="translate(2.532 7.274)">
          <path id="Trazado_25598" data-name="Trazado 25598" d="M441.44,955.7l-12.013-2.533,10.26-10.26a5.143,5.143,0,0,1,7.273,7.273Z" transform="translate(-429.427 -941.398)" fill="#ccf5fc"/>
        </g>
        <g id="Grupo_16481" data-name="Grupo 16481">
          <path id="Trazado_25599" data-name="Trazado 25599" d="M427.019,941.507l2.532,12.013,10.26-10.26a5.142,5.142,0,0,0-7.273-7.272Z" transform="translate(-427.019 -934.481)" fill="#ccf5fc"/>
        </g>
      </g>
    </g>
    <g id="Grupo_16484" data-name="Grupo 16484" transform="translate(360.805 932.757)">
      <path id="Trazado_25600" data-name="Trazado 25600" d="M444.6,957.919a1.819,1.819,0,0,0,1.659-.493l5.519-5.519a6.96,6.96,0,0,0-4.921-11.881c-.107,0-.215,0-.321.007,0-.106.007-.213.007-.321a6.96,6.96,0,0,0-11.881-4.921l-5.519,5.52a1.814,1.814,0,0,0-.493,1.658l1.244,5.9-.626.627a42.859,42.859,0,1,0,8.8,8.8l.628-.627Zm-23.787,11.5-3.666-3.664,13.642-13.642.394,1.868a1.817,1.817,0,0,0,1.4,1.4l1.868.393Zm-1.154,13.465a15.983,15.983,0,1,1-9.969-14.81l-2.911,2.912a1.812,1.812,0,0,0-.532,1.287l.005,3.048a8,8,0,1,0,4.988,4.995l3.054.005h0a1.816,1.816,0,0,0,1.285-.532l2.908-2.908a16.011,16.011,0,0,1,1.169,6Zm-6.113-6.2-3.659-.006-.006-3.658,4.7-4.7,3.664,3.665Zm-5.512,6.2A4.363,4.363,0,1,1,405.2,978.8L403.1,980.9a1.817,1.817,0,0,0,2.57,2.569l2.088-2.089A4.327,4.327,0,0,1,408.034,982.888Zm38.823-39.228a3.326,3.326,0,0,1,2.352,5.678l-4.823,4.823-7.77-1.638,7.888-7.888h0a3.307,3.307,0,0,1,2.352-.974Zm-9.624-6.3a3.326,3.326,0,1,1,4.7,4.7h0l-7.888,7.888-1.638-7.769Zm5.677,45.527a39.236,39.236,0,1,1-39.235-39.235,38.766,38.766,0,0,1,23,7.443l-5.743,5.742a31.25,31.25,0,0,0-44.578,41.213,1.817,1.817,0,0,0,3.176-1.766,27.617,27.617,0,0,1,38.775-36.82l-5.866,5.867a19.606,19.606,0,1,0,8.8,8.8l5.867-5.867a27.618,27.618,0,0,1-36.83,38.764,1.816,1.816,0,0,0-1.765,3.174,31.248,31.248,0,0,0,41.224-44.565l5.741-5.741A39.354,39.354,0,0,1,442.909,982.888Z" transform="translate(-360.805 -932.757)" fill="#00223d"/>
      <path id="Trazado_25601" data-name="Trazado 25601" d="M381.875,998.495a1.818,1.818,0,1,0,1.284.532A1.827,1.827,0,0,0,381.875,998.495Z" transform="translate(-359.814 -929.372)" fill="#00223d"/>
    </g>
  </g>
</svg>
