<svg xmlns="http://www.w3.org/2000/svg" width="321.804" height="251.781" viewBox="0 0 321.804 251.781">
  <g id="Grupo_17162" data-name="Grupo 17162" transform="translate(-5851.196 1665)">
    <path id="Trazado_26975" data-name="Trazado 26975" d="M5.891,5a3.257,3.257,0,0,1,1.723.457A3.087,3.087,0,0,1,8.77,6.68a3.588,3.588,0,0,1,.4,1.7,3.338,3.338,0,0,1-.91,2.395,3.123,3.123,0,0,1-2.371.957H3.125V16h-1.4V5Zm-.2,5.508a2,2,0,0,0,1.531-.59,2.183,2.183,0,0,0,.555-1.559,2.189,2.189,0,0,0-.555-1.551,1.986,1.986,0,0,0-1.531-.6H3.125v4.3Zm6.672,5.641a2.613,2.613,0,0,1-1.684-.527,1.894,1.894,0,0,1-.66-1.574,2.237,2.237,0,0,1,.211-1,1.77,1.77,0,0,1,.625-.7,3.749,3.749,0,0,1,.9-.434,8.341,8.341,0,0,1,1.168-.277l1.242-.2q.68-.125.68-.711a1.342,1.342,0,0,0-.48-1.145,1.958,1.958,0,0,0-1.215-.363,1.994,1.994,0,0,0-1.2.352,1.471,1.471,0,0,0-.57,1.078l-1.219-.258a2.346,2.346,0,0,1,.961-1.645,3.59,3.59,0,0,1,2.094-.551,4.247,4.247,0,0,1,1.113.137,3.025,3.025,0,0,1,.93.43,1.927,1.927,0,0,1,.664.828,3.081,3.081,0,0,1,.238,1.262v3.172a1.3,1.3,0,0,0,.176.8.759.759,0,0,0,.605.207h.125V16h-.672a1.281,1.281,0,0,1-1.453-1.039h-.062A2.935,2.935,0,0,1,12.359,16.148Zm.313-1.094a2.049,2.049,0,0,0,1.648-.742,3.056,3.056,0,0,0,.625-2.031l-2.031.391a2.734,2.734,0,0,0-1.191.426.99.99,0,0,0-.387.84.979.979,0,0,0,.371.844A1.586,1.586,0,0,0,12.672,15.055ZM21.4,16.148a3.641,3.641,0,0,1-2.07-.555,2.294,2.294,0,0,1-1.008-1.578l1.18-.336a1.645,1.645,0,0,0,.629,1.066,2.04,2.04,0,0,0,1.262.379,2.518,2.518,0,0,0,.738-.1,1.184,1.184,0,0,0,.566-.379,1.057,1.057,0,0,0,.164-1.016,1.357,1.357,0,0,0-.125-.254.774.774,0,0,0-.219-.211A2.885,2.885,0,0,0,22.25,13a2.726,2.726,0,0,0-.348-.145q-.23-.082-.371-.125t-.43-.125q-.289-.082-.445-.129a8.33,8.33,0,0,1-.8-.281,3.5,3.5,0,0,1-.648-.371,1.493,1.493,0,0,1-.5-.605,2.049,2.049,0,0,1-.168-.859,1.986,1.986,0,0,1,.375-1.227,2.11,2.11,0,0,1,.973-.723,3.888,3.888,0,0,1,1.363-.223,3.337,3.337,0,0,1,1.871.5,2.134,2.134,0,0,1,.934,1.5l-1.109.281a1.471,1.471,0,0,0-.586-.973,1.865,1.865,0,0,0-1.1-.324,1.9,1.9,0,0,0-1.031.27.906.906,0,0,0-.43.824.82.82,0,0,0,.113.426,1.352,1.352,0,0,0,.23.3,1.417,1.417,0,0,0,.422.23q.3.121.453.164t.563.145q.078.023.117.031.453.117.738.207a4.538,4.538,0,0,1,.664.281,2.208,2.208,0,0,1,.6.418,1.936,1.936,0,0,1,.375.594,2.1,2.1,0,0,1,.156.828A2.237,2.237,0,0,1,24,14.926a1.8,1.8,0,0,1-.629.707,3.042,3.042,0,0,1-.895.387A4.262,4.262,0,0,1,21.4,16.148Zm6.727,0a2.613,2.613,0,0,1-1.684-.527,1.894,1.894,0,0,1-.66-1.574,2.237,2.237,0,0,1,.211-1,1.77,1.77,0,0,1,.625-.7,3.749,3.749,0,0,1,.9-.434,8.341,8.341,0,0,1,1.168-.277l1.242-.2q.68-.125.68-.711a1.342,1.342,0,0,0-.48-1.145,1.958,1.958,0,0,0-1.215-.363,1.994,1.994,0,0,0-1.2.352,1.471,1.471,0,0,0-.57,1.078l-1.219-.258a2.346,2.346,0,0,1,.961-1.645,3.59,3.59,0,0,1,2.094-.551,4.247,4.247,0,0,1,1.113.137,3.025,3.025,0,0,1,.93.43,1.927,1.927,0,0,1,.664.828,3.081,3.081,0,0,1,.238,1.262v3.172a1.3,1.3,0,0,0,.176.8.759.759,0,0,0,.605.207h.125V16h-.672A1.281,1.281,0,0,1,30.7,14.961h-.062A2.935,2.935,0,0,1,28.125,16.148Zm.313-1.094a2.049,2.049,0,0,0,1.648-.742,3.056,3.056,0,0,0,.625-2.031l-2.031.391a2.734,2.734,0,0,0-1.191.426.99.99,0,0,0-.387.84.979.979,0,0,0,.371.844A1.586,1.586,0,0,0,28.438,15.055Zm9.922-6.883a2.671,2.671,0,0,1,1.934.7,2.594,2.594,0,0,1,.723,1.961V16H39.664V11.133A1.816,1.816,0,0,0,39.2,9.758a1.676,1.676,0,0,0-1.2-.445,1.858,1.858,0,0,0-1.367.527,2.14,2.14,0,0,0-.539,1.566V16H34.734V8.32h1.352V9.3A2.565,2.565,0,0,1,38.359,8.172ZM50.875,4.711h2.141V16H50.773V7.023L48.18,9.438V7.125ZM58.7,18.875H57.094l.977-5.109h2.313Zm15.813-7.023v2.008H73.156V16h-2.25V13.859h-5.2V11.844l4-7.133h3.445v7.141Zm-6.719,0h3.109V6.063Zm9.867,7.023H76.055l.977-5.109h2.313Zm15.594-6.664a3.68,3.68,0,0,1-.332,1.586,3.742,3.742,0,0,1-.914,1.254,4.3,4.3,0,0,1-1.34.8,4.543,4.543,0,0,1-3.23-.008,4.011,4.011,0,0,1-1.32-.824,3.881,3.881,0,0,1-1.191-2.8,4.692,4.692,0,0,1,1-2.758l3.516-4.75H92l-2.93,3.82a3.806,3.806,0,0,1,.516-.031,3.68,3.68,0,0,1,1.387.266,3.755,3.755,0,0,1,1.168.738,3.416,3.416,0,0,1,.809,1.176A3.949,3.949,0,0,1,93.258,12.211Zm-2.2-.055a1.928,1.928,0,0,0-.547-1.457,1.989,1.989,0,0,0-1.477-.566,1.907,1.907,0,0,0-1.43.57,2.015,2.015,0,0,0-.57,1.422,1.852,1.852,0,0,0,1.977,2,2.035,2.035,0,0,0,1.469-.547A1.906,1.906,0,0,0,91.055,12.156Zm13.406-4.187h2.3l-4.953,11.813H99.531l1.836-4.109-3.3-7.7h2.453l1.914,5.281Zm7.352-3.258h7.945V6.445L114.656,16h-2.547l5.117-9.289h-5.414ZM123.07,16.156a1.294,1.294,0,0,1-1.281-1.281,1.254,1.254,0,0,1,.379-.914,1.226,1.226,0,0,1,.9-.383,1.307,1.307,0,0,1,1.3,1.3,1.226,1.226,0,0,1-.383.9A1.254,1.254,0,0,1,123.07,16.156Z" transform="translate(5940 -1433)" fill="#00223d"/>
    <g id="Grupo_17032" data-name="Grupo 17032" transform="translate(5851.196 -1665)">
      <path id="Trazado_26779" data-name="Trazado 26779" d="M-640.706-209.44h175.6l2.852,30.418-75.1,41.825-.475,20.913-30.894,16.16L-570.14-135.3l-74.62-41.825Z" transform="translate(715.794 310.851)" fill="#ff8c8c"/>
      <circle id="Elipse_991" data-name="Elipse 991" cx="26.299" cy="26.299" r="26.299" transform="translate(5.881 5.882)" fill="#ffcd69"/>
      <circle id="Elipse_992" data-name="Elipse 992" cx="26.299" cy="26.299" r="26.299" transform="translate(134.603 5.882)" fill="#b3e59f"/>
      <circle id="Elipse_993" data-name="Elipse 993" cx="26.299" cy="26.299" r="26.299" transform="translate(263.325 5.882)" fill="#03ddd7"/>
      <g id="Grupo_17031" data-name="Grupo 17031" transform="translate(0 0)">
        <g id="Grupo_17030" data-name="Grupo 17030">
          <path id="Trazado_26780" data-name="Trazado 26780" d="M-408.939-286.253a32.213,32.213,0,0,0-32.181,32.181,32.211,32.211,0,0,0,26.817,31.7v11.21h-64.36a5.365,5.365,0,0,0-5.364,5.363v16.09H-532.3v-32.663a32.2,32.2,0,0,0,26.817-31.7,32.213,32.213,0,0,0-32.18-32.181,32.213,32.213,0,0,0-32.181,32.181,32.211,32.211,0,0,0,26.817,31.7v32.663H-591.3V-205.8a5.365,5.365,0,0,0-5.363-5.363H-661.02v-11.21a32.2,32.2,0,0,0,26.818-31.7,32.214,32.214,0,0,0-32.181-32.181,32.213,32.213,0,0,0-32.181,32.181,32.211,32.211,0,0,0,26.817,31.7V-205.8a5.365,5.365,0,0,0,5.364,5.363h64.36v10.727H-628.84a5.365,5.365,0,0,0-5.363,5.364v32.181a5.366,5.366,0,0,0,2.713,4.666l72.374,41.121v34.663a5.365,5.365,0,0,0,2.832,4.73,5.364,5.364,0,0,0,2.531.634,5.4,5.4,0,0,0,2.977-.9l32.181-21.453a5.373,5.373,0,0,0,2.386-4.462v-13.21l72.374-41.121a5.365,5.365,0,0,0,2.714-4.666v-32.181a5.366,5.366,0,0,0-5.364-5.364H-473.3v-10.727h64.362a5.364,5.364,0,0,0,5.363-5.363v-16.573a32.2,32.2,0,0,0,26.817-31.7A32.213,32.213,0,0,0-408.939-286.253Zm-278.9,32.181a21.475,21.475,0,0,1,21.454-21.454,21.475,21.475,0,0,1,21.454,21.454,21.475,21.475,0,0,1-21.454,21.454A21.475,21.475,0,0,1-687.837-254.072Zm128.722,0a21.475,21.475,0,0,1,21.454-21.454,21.475,21.475,0,0,1,21.453,21.454,21.475,21.475,0,0,1-21.453,21.454A21.475,21.475,0,0,1-559.115-254.072Zm107.268,75.087v23.7l-72.374,41.121a5.366,5.366,0,0,0-2.713,4.666V-96.04l-21.454,14.3V-109.5a5.365,5.365,0,0,0-2.714-4.666l-72.374-41.121v-23.7Zm42.908-53.633a21.475,21.475,0,0,1-21.454-21.454,21.475,21.475,0,0,1,21.454-21.454,21.475,21.475,0,0,1,21.453,21.454A21.475,21.475,0,0,1-408.939-232.618Z" transform="translate(698.564 286.253)"/>
        </g>
      </g>
    </g>
    <path id="Trazado_26976" data-name="Trazado 26976" d="M13.523,4.3h2.628V17H13.1L7.477,7.921V17H4.849V4.3H7.863l5.66,9.026Z" transform="translate(5873 -1645)" fill="#00223d"/>
    <path id="Trazado_26977" data-name="Trazado 26977" d="M10.153,4.3h2.408V17H10.039V6.9L7.121,9.617v-2.6Z" transform="translate(6002 -1645)" fill="#00223d"/>
    <path id="Trazado_26978" data-name="Trazado 26978" d="M9.546,14.741H14.96V17H6V15.093l5.054-5.159a3.18,3.18,0,0,0,1.1-2.188A1.548,1.548,0,0,0,11.7,6.567a1.782,1.782,0,0,0-1.279-.431q-1.8,0-1.8,2.048v.94L6.1,8.87V8.237a3.961,3.961,0,0,1,1.16-3.054,4.443,4.443,0,0,1,3.146-1.077,4.655,4.655,0,0,1,3.063.976,3.288,3.288,0,0,1,1.182,2.681,3.8,3.8,0,0,1-.4,1.74,7.274,7.274,0,0,1-1.27,1.7Z" transform="translate(6132 -1645)" fill="#00223d"/>
  </g>
</svg>
