<svg xmlns="http://www.w3.org/2000/svg" width="597.167" height="327" viewBox="0 0 597.167 327">
  <g id="Grupo_17169" data-name="Grupo 17169" transform="translate(-6139 -1003.5)">
    <path id="Trazado_26979" data-name="Trazado 26979" d="M8,0H140.167a8,8,0,0,1,8,8V37a8,8,0,0,1-8,8H8a8,8,0,0,1-8-8V8A8,8,0,0,1,8,0Z" transform="translate(6139 1285.5)" fill="#c1dfef"/>
    <path id="Trazado_26980" data-name="Trazado 26980" d="M8,0H140.167a8,8,0,0,1,8,8V37a8,8,0,0,1-8,8H8a8,8,0,0,1-8-8V8A8,8,0,0,1,8,0Z" transform="translate(6139 1194.5)" fill="#c1dfef"/>
    <path id="Trazado_26981" data-name="Trazado 26981" d="M8,0H140.167a8,8,0,0,1,8,8V37a8,8,0,0,1-8,8H8a8,8,0,0,1-8-8V8A8,8,0,0,1,8,0Z" transform="translate(6139 1097.5)" fill="#c1dfef"/>
    <path id="Trazado_26982" data-name="Trazado 26982" d="M8,0H140.167a8,8,0,0,1,8,8V37a8,8,0,0,1-8,8H8a8,8,0,0,1-8-8V8A8,8,0,0,1,8,0Z" transform="translate(6139 1003.5)" fill="#c1dfef"/>
    <path id="Trazado_26983" data-name="Trazado 26983" d="M8,0H341.167a8,8,0,0,1,8,8V37a8,8,0,0,1-8,8H8a8,8,0,0,1-8-8V8A8,8,0,0,1,8,0Z" transform="translate(6387 1285.5)" fill="#e2f5ff"/>
    <path id="Trazado_26984" data-name="Trazado 26984" d="M8,0H341.167a8,8,0,0,1,8,8V37a8,8,0,0,1-8,8H8a8,8,0,0,1-8-8V8A8,8,0,0,1,8,0Z" transform="translate(6387 1194.5)" fill="#e2f5ff"/>
    <path id="Trazado_26985" data-name="Trazado 26985" d="M8,0H341.167a8,8,0,0,1,8,8V37a8,8,0,0,1-8,8H8a8,8,0,0,1-8-8V8A8,8,0,0,1,8,0Z" transform="translate(6387 1097.5)" fill="#e2f5ff"/>
    <path id="Trazado_26986" data-name="Trazado 26986" d="M8,0H341.167a8,8,0,0,1,8,8V37a8,8,0,0,1-8,8H8a8,8,0,0,1-8-8V8A8,8,0,0,1,8,0Z" transform="translate(6387 1003.5)" fill="#e2f5ff"/>
    <path id="Trazado_26987" data-name="Trazado 26987" d="M28.535,6.773h-4.3V9.336h3.711v2.039H24.238V16H21.879V4.711h6.656Zm2.852-.008a1.263,1.263,0,0,1-.922-.379,1.244,1.244,0,0,1-.383-.918,1.229,1.229,0,0,1,.387-.91,1.267,1.267,0,0,1,.918-.379,1.3,1.3,0,0,1,1.289,1.289,1.3,1.3,0,0,1-1.289,1.3ZM30.238,16V7.969H32.5V16Zm9.336-8.187a3.131,3.131,0,0,1,2.219.723,2.68,2.68,0,0,1,.773,2.059V16H40.309V11.078a1.4,1.4,0,0,0-.4-1.109,1.516,1.516,0,0,0-1.035-.352,2.115,2.115,0,0,0-.672.1,1.726,1.726,0,0,0-.562.316,1.4,1.4,0,0,0-.4.605,2.8,2.8,0,0,0-.152.93V16h-2.25V7.969h2.25v.891A3.1,3.1,0,0,1,39.574,7.813Z" transform="translate(6180.167 1015.5)" fill="#00223d"/>
    <path id="Trazado_26988" data-name="Trazado 26988" d="M14.871,4.711a3.4,3.4,0,0,1,2.6,1.051,3.655,3.655,0,0,1,.984,2.6,3.565,3.565,0,0,1-.977,2.582,3.459,3.459,0,0,1-2.609,1.012H12.52V16H10.176V4.711ZM14.48,9.992a1.722,1.722,0,0,0,1.289-.441,1.679,1.679,0,0,0,.43-1.223,1.665,1.665,0,0,0-.434-1.207,1.707,1.707,0,0,0-1.285-.449H12.52v3.32Zm7.8-.75a2.607,2.607,0,0,1,1.055-.965,3.218,3.218,0,0,1,1.57-.4V9.883a3.043,3.043,0,0,0-1.922.484,2.115,2.115,0,0,0-.594,1.719V16H20.129V7.969h2.156Zm7.641,6.914a5.05,5.05,0,0,1-2.273-.492,3.679,3.679,0,0,1-1.559-1.445,4.307,4.307,0,0,1-.566-2.242A3.929,3.929,0,0,1,26.746,8.93a4.521,4.521,0,0,1,3.18-1.117A4.532,4.532,0,0,1,33.113,8.93a3.929,3.929,0,0,1,1.219,3.047,3.951,3.951,0,0,1-1.219,3.059A4.523,4.523,0,0,1,29.926,16.156ZM29.9,14.367a2.061,2.061,0,0,0,1.59-.656,2.457,2.457,0,0,0,.605-1.734,2.457,2.457,0,0,0-.605-1.734,2.061,2.061,0,0,0-1.59-.656,1.986,1.986,0,0,0-1.543.66,2.479,2.479,0,0,0-.6,1.73,2.479,2.479,0,0,0,.6,1.73A1.986,1.986,0,0,0,29.9,14.367ZM40.715,7.813a3.906,3.906,0,0,1,1.5.289,3.754,3.754,0,0,1,1.23.813,3.676,3.676,0,0,1,.832,1.324,5.246,5.246,0,0,1,0,3.523,3.676,3.676,0,0,1-.832,1.324,3.754,3.754,0,0,1-1.23.813,3.906,3.906,0,0,1-1.5.289,3.485,3.485,0,0,1-1.453-.3,2.277,2.277,0,0,1-1.008-.844v4.859H36V7.969h2.133L38.2,9.047a2.2,2.2,0,0,1,1-.91A3.45,3.45,0,0,1,40.715,7.813Zm-.508,6.508a2.021,2.021,0,0,0,1.52-.629A2.336,2.336,0,0,0,42.332,12a2.336,2.336,0,0,0-.605-1.691,2.15,2.15,0,0,0-3.051.012A2.336,2.336,0,0,0,38.066,12a2.336,2.336,0,0,0,.609,1.68A2.025,2.025,0,0,0,40.207,14.32Zm9.117-7.445L51.371,4l1.109.781L50.707,6.875Zm.7,9.281a5.05,5.05,0,0,1-2.273-.492,3.679,3.679,0,0,1-1.559-1.445,4.307,4.307,0,0,1-.566-2.242A3.929,3.929,0,0,1,46.84,8.93a5.095,5.095,0,0,1,6.367,0,3.929,3.929,0,0,1,1.219,3.047,3.951,3.951,0,0,1-1.219,3.059A4.523,4.523,0,0,1,50.02,16.156ZM50,14.367a2.061,2.061,0,0,0,1.59-.656,2.457,2.457,0,0,0,.605-1.734,2.457,2.457,0,0,0-.605-1.734A2.061,2.061,0,0,0,50,9.586a1.986,1.986,0,0,0-1.543.66,2.479,2.479,0,0,0-.6,1.73,2.479,2.479,0,0,0,.6,1.73A1.986,1.986,0,0,0,50,14.367Zm8.93,1.789a4.488,4.488,0,0,1-2.344-.562,2.378,2.378,0,0,1-1.148-1.672l1.883-.531a1.513,1.513,0,0,0,1.609,1.2,1.662,1.662,0,0,0,.82-.184.639.639,0,0,0,.32-.621.657.657,0,0,0-.133-.414,1.052,1.052,0,0,0-.41-.3,5.11,5.11,0,0,0-.547-.211q-.27-.086-.715-.207t-.742-.23a4.972,4.972,0,0,1-.707-.3,3.016,3.016,0,0,1-.586-.414,1.669,1.669,0,0,1-.437-.629,2.269,2.269,0,0,1-.152-.859,2.052,2.052,0,0,1,.871-1.8,3.892,3.892,0,0,1,2.277-.609,3.99,3.99,0,0,1,2.1.516,2.334,2.334,0,0,1,1.078,1.609l-1.742.391a1.365,1.365,0,0,0-1.43-1.016,1.566,1.566,0,0,0-.789.18.577.577,0,0,0-.312.531.609.609,0,0,0,.047.242.479.479,0,0,0,.164.2,2.393,2.393,0,0,0,.227.148,1.709,1.709,0,0,0,.32.129q.211.066.352.1l.41.105.418.109q.43.117.754.234a4.416,4.416,0,0,1,.691.328,2.481,2.481,0,0,1,.605.473,2.108,2.108,0,0,1,.395.664,2.453,2.453,0,0,1,.156.895,2.416,2.416,0,0,1-.27,1.164,2.023,2.023,0,0,1-.738.785,3.593,3.593,0,0,1-1.043.422A5.41,5.41,0,0,1,58.926,16.156ZM65,6.766a1.263,1.263,0,0,1-.922-.379,1.244,1.244,0,0,1-.383-.918,1.229,1.229,0,0,1,.387-.91A1.267,1.267,0,0,1,65,4.18a1.3,1.3,0,0,1,1.289,1.289A1.3,1.3,0,0,1,65,6.766ZM63.848,16V7.969h2.266V16Zm7.586,0a2.426,2.426,0,0,1-1.812-.652,2.537,2.537,0,0,1-.641-1.855V9.7H67.4V7.969h.508a1.325,1.325,0,0,0,1-.336,1.73,1.73,0,0,0,.32-1.2V5.375h2.031V7.969h1.656V9.7H71.262V13.25q0,1.039.93,1.039h.727V16Zm6.938.156a5.05,5.05,0,0,1-2.273-.492,3.679,3.679,0,0,1-1.559-1.445,4.307,4.307,0,0,1-.566-2.242A3.929,3.929,0,0,1,75.191,8.93a5.095,5.095,0,0,1,6.367,0,3.929,3.929,0,0,1,1.219,3.047,3.951,3.951,0,0,1-1.219,3.059A4.523,4.523,0,0,1,78.371,16.156Zm-.023-1.789a2.061,2.061,0,0,0,1.59-.656,2.457,2.457,0,0,0,.605-1.734,2.457,2.457,0,0,0-.605-1.734,2.061,2.061,0,0,0-1.59-.656,1.986,1.986,0,0,0-1.543.66,2.479,2.479,0,0,0-.6,1.73,2.479,2.479,0,0,0,.6,1.73A1.986,1.986,0,0,0,78.348,14.367Z" transform="translate(6166.167 1109.5)" fill="#00223d"/>
    <path id="Trazado_26989" data-name="Trazado 26989" d="M11.461,16.156a6.3,6.3,0,0,1-2.3-.414,5.41,5.41,0,0,1-1.832-1.156,5.212,5.212,0,0,1-1.2-1.836,6.4,6.4,0,0,1-.437-2.4,6.115,6.115,0,0,1,.75-3.066A5.106,5.106,0,0,1,8.5,5.258a6.164,6.164,0,0,1,2.965-.7,5.99,5.99,0,0,1,3.313.914A5,5,0,0,1,16.8,7.984l-2.187.8A3.092,3.092,0,0,0,13.4,7.258a3.459,3.459,0,0,0-1.937-.547A3.316,3.316,0,0,0,8.992,7.7a3.622,3.622,0,0,0-.969,2.656A3.627,3.627,0,0,0,9,13.012,3.312,3.312,0,0,0,11.461,14a3.446,3.446,0,0,0,1.934-.551,3.107,3.107,0,0,0,1.215-1.527l2.188.8a5.024,5.024,0,0,1-2.023,2.52A5.971,5.971,0,0,1,11.461,16.156Zm10.7,0a5.05,5.05,0,0,1-2.273-.492,3.679,3.679,0,0,1-1.559-1.445,4.307,4.307,0,0,1-.566-2.242A3.929,3.929,0,0,1,18.984,8.93a4.521,4.521,0,0,1,3.18-1.117A4.532,4.532,0,0,1,25.352,8.93a3.929,3.929,0,0,1,1.219,3.047,3.951,3.951,0,0,1-1.219,3.059A4.523,4.523,0,0,1,22.164,16.156Zm-.023-1.789a2.061,2.061,0,0,0,1.59-.656,2.457,2.457,0,0,0,.605-1.734,2.457,2.457,0,0,0-.605-1.734,2.061,2.061,0,0,0-1.59-.656,1.986,1.986,0,0,0-1.543.66,2.479,2.479,0,0,0-.6,1.73,2.479,2.479,0,0,0,.6,1.73A1.986,1.986,0,0,0,22.141,14.367ZM37.758,7.813a3.068,3.068,0,0,1,2.07.652,2.334,2.334,0,0,1,.758,1.871V16h-2.25V10.977a1.342,1.342,0,0,0-.359-1.016,1.259,1.259,0,0,0-.906-.344,1.452,1.452,0,0,0-1.094.438,1.987,1.987,0,0,0-.422,1.414V16H33.281V11a1.377,1.377,0,0,0-.359-1.035,1.281,1.281,0,0,0-.93-.348,1.405,1.405,0,0,0-1.086.461,2.2,2.2,0,0,0-.422,1.508V16H28.242V7.969h2.242v.945a2.731,2.731,0,0,1,2.328-1.1,3.434,3.434,0,0,1,1.512.309,2.058,2.058,0,0,1,.949.895A2.84,2.84,0,0,1,37.758,7.813Zm9.727,0a3.906,3.906,0,0,1,1.5.289,3.754,3.754,0,0,1,1.23.813,3.676,3.676,0,0,1,.832,1.324,5.246,5.246,0,0,1,0,3.523,3.676,3.676,0,0,1-.832,1.324,3.754,3.754,0,0,1-1.23.813,3.906,3.906,0,0,1-1.5.289,3.485,3.485,0,0,1-1.453-.3,2.277,2.277,0,0,1-1.008-.844v4.859h-2.25V7.969h2.133l.063,1.078a2.2,2.2,0,0,1,1-.91A3.45,3.45,0,0,1,47.484,7.813Zm-.508,6.508a2.021,2.021,0,0,0,1.52-.629A2.336,2.336,0,0,0,49.1,12a2.336,2.336,0,0,0-.605-1.691,2.15,2.15,0,0,0-3.051.012A2.336,2.336,0,0,0,44.836,12a2.336,2.336,0,0,0,.609,1.68A2.025,2.025,0,0,0,46.977,14.32Zm9.813,1.836a5.05,5.05,0,0,1-2.273-.492,3.679,3.679,0,0,1-1.559-1.445,4.307,4.307,0,0,1-.566-2.242A3.929,3.929,0,0,1,53.609,8.93a5.095,5.095,0,0,1,6.367,0A3.929,3.929,0,0,1,61.2,11.977a3.951,3.951,0,0,1-1.219,3.059A4.523,4.523,0,0,1,56.789,16.156Zm-.023-1.789a2.061,2.061,0,0,0,1.59-.656,2.457,2.457,0,0,0,.605-1.734,2.457,2.457,0,0,0-.605-1.734,2.061,2.061,0,0,0-1.59-.656,1.986,1.986,0,0,0-1.543.66,2.479,2.479,0,0,0-.6,1.73,2.479,2.479,0,0,0,.6,1.73A1.986,1.986,0,0,0,56.766,14.367ZM67.609,7.813a3.131,3.131,0,0,1,2.219.723,2.68,2.68,0,0,1,.773,2.059V16H68.344V11.078a1.4,1.4,0,0,0-.4-1.109,1.516,1.516,0,0,0-1.035-.352,2.115,2.115,0,0,0-.672.1,1.726,1.726,0,0,0-.562.316,1.4,1.4,0,0,0-.4.605,2.8,2.8,0,0,0-.152.93V16h-2.25V7.969h2.25v.891A3.1,3.1,0,0,1,67.609,7.813Zm12.727,4.055-.023.539H74.359A2.079,2.079,0,0,0,75,13.875a2.049,2.049,0,0,0,1.414.508,1.974,1.974,0,0,0,1.059-.277,1.7,1.7,0,0,0,.676-.809l2.063.3A3.506,3.506,0,0,1,78.8,15.484a4.181,4.181,0,0,1-2.375.672A4.348,4.348,0,0,1,73.3,15.051a4.034,4.034,0,0,1-1.16-3.066A4.058,4.058,0,0,1,73.3,8.918,4.219,4.219,0,0,1,76.359,7.8,4.032,4.032,0,0,1,79.242,8.82,4.015,4.015,0,0,1,80.336,11.867ZM76.375,9.391a1.778,1.778,0,0,0-1.953,1.547h3.688a1.691,1.691,0,0,0-.555-1.148A1.758,1.758,0,0,0,76.375,9.391ZM86.789,7.813a3.131,3.131,0,0,1,2.219.723,2.68,2.68,0,0,1,.773,2.059V16H87.523V11.078a1.4,1.4,0,0,0-.4-1.109,1.516,1.516,0,0,0-1.035-.352,2.115,2.115,0,0,0-.672.1,1.726,1.726,0,0,0-.562.316,1.4,1.4,0,0,0-.4.605,2.8,2.8,0,0,0-.152.93V16h-2.25V7.969H84.3v.891A3.1,3.1,0,0,1,86.789,7.813ZM94.953,16a2.426,2.426,0,0,1-1.812-.652,2.537,2.537,0,0,1-.641-1.855V9.7H90.922V7.969h.508a1.325,1.325,0,0,0,1-.336,1.73,1.73,0,0,0,.32-1.2V5.375h2.031V7.969h1.656V9.7H94.781V13.25q0,1.039.93,1.039h.727V16Zm10.75-4.133-.023.539H99.727a2.079,2.079,0,0,0,.641,1.469,2.049,2.049,0,0,0,1.414.508,1.974,1.974,0,0,0,1.059-.277,1.7,1.7,0,0,0,.676-.809l2.063.3a3.506,3.506,0,0,1-1.406,1.883,4.181,4.181,0,0,1-2.375.672,4.348,4.348,0,0,1-3.129-1.105,4.034,4.034,0,0,1-1.16-3.066,4.058,4.058,0,0,1,1.164-3.066A4.219,4.219,0,0,1,101.727,7.8a4.032,4.032,0,0,1,2.883,1.023A4.015,4.015,0,0,1,105.7,11.867Zm-3.961-2.477a1.778,1.778,0,0,0-1.953,1.547h3.688a1.691,1.691,0,0,0-.555-1.148A1.758,1.758,0,0,0,101.742,9.391Zm8.5,6.766a4.488,4.488,0,0,1-2.344-.562,2.378,2.378,0,0,1-1.148-1.672l1.883-.531a1.513,1.513,0,0,0,1.609,1.2,1.662,1.662,0,0,0,.82-.184.639.639,0,0,0,.32-.621.657.657,0,0,0-.133-.414,1.052,1.052,0,0,0-.41-.3,5.11,5.11,0,0,0-.547-.211q-.27-.086-.715-.207t-.742-.23a4.972,4.972,0,0,1-.707-.3,3.016,3.016,0,0,1-.586-.414,1.669,1.669,0,0,1-.437-.629,2.269,2.269,0,0,1-.152-.859,2.052,2.052,0,0,1,.871-1.8,3.892,3.892,0,0,1,2.277-.609,3.99,3.99,0,0,1,2.1.516,2.334,2.334,0,0,1,1.078,1.609l-1.742.391a1.365,1.365,0,0,0-1.43-1.016,1.566,1.566,0,0,0-.789.18.577.577,0,0,0-.312.531.609.609,0,0,0,.047.242.479.479,0,0,0,.164.2,2.393,2.393,0,0,0,.227.148,1.709,1.709,0,0,0,.32.129q.211.066.352.1l.41.105.418.109q.43.117.754.234a4.415,4.415,0,0,1,.691.328,2.481,2.481,0,0,1,.605.473,2.108,2.108,0,0,1,.395.664,2.453,2.453,0,0,1,.156.895,2.416,2.416,0,0,1-.27,1.164,2.023,2.023,0,0,1-.738.785,3.593,3.593,0,0,1-1.043.422A5.41,5.41,0,0,1,110.242,16.156Z" transform="translate(6154.167 1206.5)" fill="#00223d"/>
    <path id="Trazado_26990" data-name="Trazado 26990" d="M22.949,16l-.82-2.328H17.387L16.566,16h-2.4L18.324,4.711h2.867L25.348,16Zm-4.875-4.289h3.367l-1.68-4.789Zm12.258,4.438a4.291,4.291,0,0,1-3.1-1.156,3.994,3.994,0,0,1-1.2-3.016,3.984,3.984,0,0,1,1.2-3.016,4.3,4.3,0,0,1,3.105-1.148,4.279,4.279,0,0,1,2.6.773,3.453,3.453,0,0,1,1.344,2.18l-2.078.227a1.78,1.78,0,0,0-.672-1.055,2.043,2.043,0,0,0-1.219-.352,1.842,1.842,0,0,0-1.469.656,2.573,2.573,0,0,0-.562,1.734,2.576,2.576,0,0,0,.563,1.73,1.837,1.837,0,0,0,1.469.66,2.025,2.025,0,0,0,1.215-.352,1.822,1.822,0,0,0,.676-1.055l2.078.227a3.463,3.463,0,0,1-1.355,2.18A4.262,4.262,0,0,1,30.332,16.148ZM38.871,16a2.426,2.426,0,0,1-1.812-.652,2.537,2.537,0,0,1-.641-1.855V9.7H34.84V7.969h.508a1.325,1.325,0,0,0,1-.336,1.73,1.73,0,0,0,.32-1.2V5.375H38.7V7.969h1.656V9.7H38.7V13.25q0,1.039.93,1.039h.727V16Zm4.375-9.234a1.263,1.263,0,0,1-.922-.379,1.244,1.244,0,0,1-.383-.918,1.229,1.229,0,0,1,.387-.91,1.267,1.267,0,0,1,.918-.379,1.3,1.3,0,0,1,1.289,1.289,1.3,1.3,0,0,1-1.289,1.3ZM42.1,16V7.969h2.266V16Zm9.82-8.031H54.3L50.879,16H48.926L45.543,7.969H47.91l2,5.492Zm4.711-1.2a1.263,1.263,0,0,1-.922-.379,1.244,1.244,0,0,1-.383-.918,1.229,1.229,0,0,1,.387-.91,1.267,1.267,0,0,1,.918-.379,1.3,1.3,0,0,1,1.289,1.289,1.3,1.3,0,0,1-1.289,1.3ZM55.48,16V7.969h2.266V16ZM65.77,4h2.25V16H65.887l-.055-1.047a2.294,2.294,0,0,1-1.02.91,3.432,3.432,0,0,1-1.5.324,3.906,3.906,0,0,1-1.5-.289,3.613,3.613,0,0,1-2.062-2.141,4.885,4.885,0,0,1-.3-1.758,4.566,4.566,0,0,1,.531-2.238,3.64,3.64,0,0,1,1.4-1.457,3.862,3.862,0,0,1,1.934-.492,3.518,3.518,0,0,1,1.457.293,2.275,2.275,0,0,1,1,.832ZM63.824,14.32a2,2,0,0,0,1.52-.641A2.345,2.345,0,0,0,65.949,12a2.35,2.35,0,0,0-.609-1.684,2,2,0,0,0-1.516-.645A2.024,2.024,0,0,0,62.3,10.3a2.35,2.35,0,0,0-.605,1.7,2.339,2.339,0,0,0,.605,1.688A2.024,2.024,0,0,0,63.824,14.32Zm13.109-.5a7.513,7.513,0,0,0,.2,1.961V16h-2.1l-.18-.875a2.611,2.611,0,0,1-1.125.773,4.146,4.146,0,0,1-1.453.258,3.821,3.821,0,0,1-.75-.07,2.55,2.55,0,0,1-.676-.238,2.051,2.051,0,0,1-.559-.418,1.833,1.833,0,0,1-.375-.637,2.536,2.536,0,0,1-.141-.871,2.416,2.416,0,0,1,.148-.871,2.042,2.042,0,0,1,.391-.652,2.369,2.369,0,0,1,.633-.477,4.842,4.842,0,0,1,.8-.344,9.521,9.521,0,0,1,.953-.25l1.32-.3a1.456,1.456,0,0,0,.6-.254.506.506,0,0,0,.176-.4.829.829,0,0,0-.395-.773,1.842,1.842,0,0,0-.957-.234,1.377,1.377,0,0,0-1.57,1.227l-1.992-.359A2.7,2.7,0,0,1,71.035,8.4a4.627,4.627,0,0,1,2.523-.59q3.375,0,3.375,2.9Zm-3.961.813a1.81,1.81,0,0,0,1.391-.582,2.453,2.453,0,0,0,.539-1.723L73,12.867a2.253,2.253,0,0,0-.8.328.674.674,0,0,0-.277.578.748.748,0,0,0,.3.637A1.229,1.229,0,0,0,72.973,14.633ZM84.637,4h2.25V16H84.754L84.7,14.953a2.294,2.294,0,0,1-1.02.91,3.432,3.432,0,0,1-1.5.324,3.906,3.906,0,0,1-1.5-.289,3.613,3.613,0,0,1-2.062-2.141,4.885,4.885,0,0,1-.3-1.758,4.566,4.566,0,0,1,.531-2.238,3.64,3.64,0,0,1,1.4-1.457,3.862,3.862,0,0,1,1.934-.492,3.518,3.518,0,0,1,1.457.293,2.275,2.275,0,0,1,1,.832ZM82.691,14.32a2,2,0,0,0,1.52-.641A2.345,2.345,0,0,0,84.816,12a2.35,2.35,0,0,0-.609-1.684,2,2,0,0,0-1.516-.645,2.024,2.024,0,0,0-1.527.633,2.35,2.35,0,0,0-.605,1.7,2.339,2.339,0,0,0,.605,1.688A2.024,2.024,0,0,0,82.691,14.32ZM96.77,11.867l-.023.539H90.793a2.079,2.079,0,0,0,.641,1.469,2.049,2.049,0,0,0,1.414.508,1.974,1.974,0,0,0,1.059-.277,1.7,1.7,0,0,0,.676-.809l2.063.3a3.506,3.506,0,0,1-1.406,1.883,4.181,4.181,0,0,1-2.375.672,4.348,4.348,0,0,1-3.129-1.105,4.034,4.034,0,0,1-1.16-3.066,4.058,4.058,0,0,1,1.164-3.066A4.219,4.219,0,0,1,92.793,7.8,4.032,4.032,0,0,1,95.676,8.82,4.015,4.015,0,0,1,96.77,11.867ZM92.809,9.391a1.778,1.778,0,0,0-1.953,1.547h3.688a1.691,1.691,0,0,0-.555-1.148A1.758,1.758,0,0,0,92.809,9.391Zm8.5,6.766a4.488,4.488,0,0,1-2.344-.562,2.378,2.378,0,0,1-1.148-1.672l1.883-.531a1.513,1.513,0,0,0,1.609,1.2,1.662,1.662,0,0,0,.82-.184.639.639,0,0,0,.32-.621.657.657,0,0,0-.133-.414,1.052,1.052,0,0,0-.41-.3,5.11,5.11,0,0,0-.547-.211q-.27-.086-.715-.207t-.742-.23a4.972,4.972,0,0,1-.707-.3,3.016,3.016,0,0,1-.586-.414,1.669,1.669,0,0,1-.437-.629,2.269,2.269,0,0,1-.152-.859,2.052,2.052,0,0,1,.871-1.8,3.892,3.892,0,0,1,2.277-.609,3.99,3.99,0,0,1,2.1.516,2.334,2.334,0,0,1,1.078,1.609l-1.742.391a1.365,1.365,0,0,0-1.43-1.016,1.566,1.566,0,0,0-.789.18.577.577,0,0,0-.312.531.609.609,0,0,0,.047.242.479.479,0,0,0,.164.2,2.393,2.393,0,0,0,.227.148,1.709,1.709,0,0,0,.32.129q.211.066.352.1l.41.105.418.109q.43.117.754.234a4.415,4.415,0,0,1,.691.328,2.481,2.481,0,0,1,.605.473,2.108,2.108,0,0,1,.395.664,2.453,2.453,0,0,1,.156.895,2.416,2.416,0,0,1-.27,1.164,2.023,2.023,0,0,1-.738.785,3.593,3.593,0,0,1-1.043.422A5.41,5.41,0,0,1,101.309,16.156Z" transform="translate(6152.167 1297.5)" fill="#00223d"/>
    <path id="Trazado_26991" data-name="Trazado 26991" d="M3.82,14.4V11.383H.8V9.672H3.82V6.664h1.7V9.672H8.531v1.711H5.523V14.4Zm14.8,1.75a5.021,5.021,0,0,1-2.871-.777,3.291,3.291,0,0,1-1.434-2.137l1.414-.336a2.319,2.319,0,0,0,.992,1.5,3.355,3.355,0,0,0,1.945.547,4.058,4.058,0,0,0,.727-.062,2.779,2.779,0,0,0,.66-.207,2.021,2.021,0,0,0,.543-.355,1.484,1.484,0,0,0,.359-.539,1.845,1.845,0,0,0,.125-.734,1.588,1.588,0,0,0-.1-.52,1.649,1.649,0,0,0-.219-.41,1.473,1.473,0,0,0-.371-.332,4.973,4.973,0,0,0-.445-.266,4.025,4.025,0,0,0-.551-.223q-.348-.117-.582-.184l-.633-.176q-.078-.023-.117-.031-.453-.117-.738-.2t-.684-.238a4.5,4.5,0,0,1-.652-.3,4.416,4.416,0,0,1-.535-.375,1.921,1.921,0,0,1-.441-.488,2.577,2.577,0,0,1-.266-.621,2.764,2.764,0,0,1-.105-.781,2.79,2.79,0,0,1,.512-1.687,2.994,2.994,0,0,1,1.32-1.031,4.793,4.793,0,0,1,1.816-.328,4.973,4.973,0,0,1,2.645.676,3.011,3.011,0,0,1,1.4,2l-1.359.344a2.069,2.069,0,0,0-.914-1.352,3.132,3.132,0,0,0-1.719-.453,3.4,3.4,0,0,0-.844.1,2.507,2.507,0,0,0-.73.313,1.517,1.517,0,0,0-.527.574,1.746,1.746,0,0,0-.2.84,1.35,1.35,0,0,0,.078.465,1.427,1.427,0,0,0,.2.371,1.391,1.391,0,0,0,.336.3,3.412,3.412,0,0,0,.41.242,4.157,4.157,0,0,0,.512.2q.32.105.547.172t.6.16a12.727,12.727,0,0,1,2.117.7,2.679,2.679,0,0,1,1.633,2.023,3.488,3.488,0,0,1,.031.477,3.074,3.074,0,0,1-.316,1.422,2.565,2.565,0,0,1-.867.984,4.146,4.146,0,0,1-1.234.551A5.661,5.661,0,0,1,18.617,16.148ZM29.578,8.32H30.93V16h-1.3L29.6,14.984a2.4,2.4,0,0,1-.953.863,2.932,2.932,0,0,1-1.344.3,2.671,2.671,0,0,1-1.934-.7,2.594,2.594,0,0,1-.723-1.961V8.32H26v4.867a1.822,1.822,0,0,0,.473,1.375,1.673,1.673,0,0,0,1.207.453,1.837,1.837,0,0,0,1.363-.531,2.164,2.164,0,0,0,.535-1.57Zm8.156-.148a3.493,3.493,0,0,1,1.391.281,3.421,3.421,0,0,1,1.141.789,3.688,3.688,0,0,1,.77,1.266,4.667,4.667,0,0,1,.285,1.656,4.061,4.061,0,0,1-1.035,2.9,3.362,3.362,0,0,1-2.551,1.1,3.04,3.04,0,0,1-1.605-.437,2.867,2.867,0,0,1-1.1-1.18v5.32H33.68V8.32h1.3l.031,1.492a2.811,2.811,0,0,1,1.094-1.2A3.068,3.068,0,0,1,37.734,8.172Zm-.266,6.82a2.332,2.332,0,0,0,1.777-.777,2.892,2.892,0,0,0,.723-2.051,2.877,2.877,0,0,0-.723-2.047,2.423,2.423,0,0,0-3.582.035,2.88,2.88,0,0,0-.734,2.012,2.891,2.891,0,0,0,.734,2.02A2.343,2.343,0,0,0,37.469,14.992ZM48.234,8.32h1.352V16h-1.3l-.031-1.016a2.4,2.4,0,0,1-.953.863,2.932,2.932,0,0,1-1.344.3,2.671,2.671,0,0,1-1.934-.7,2.594,2.594,0,0,1-.723-1.961V8.32h1.352v4.867a1.822,1.822,0,0,0,.473,1.375,1.673,1.673,0,0,0,1.207.453,1.837,1.837,0,0,0,1.363-.531,2.164,2.164,0,0,0,.535-1.57Zm10.82,3.688-.016.367h-6a2.714,2.714,0,0,0,.734,1.965,2.411,2.411,0,0,0,1.75.684,2.3,2.3,0,0,0,1.273-.367,2.383,2.383,0,0,0,.875-1.016l1.219.258a3.464,3.464,0,0,1-1.312,1.648,3.581,3.581,0,0,1-2.039.6,3.71,3.71,0,0,1-2.766-1.07,3.982,3.982,0,0,1-1.055-2.922,3.962,3.962,0,0,1,1.059-2.914A3.664,3.664,0,0,1,55.5,8.172a3.467,3.467,0,0,1,2.582.984A3.889,3.889,0,0,1,59.055,12.008ZM55.5,9.211a2.4,2.4,0,0,0-1.6.543,2.488,2.488,0,0,0-.809,1.582h4.6a2.282,2.282,0,0,0-.672-1.582A2.17,2.17,0,0,0,55.5,9.211Zm8.1,6.938a3.641,3.641,0,0,1-2.07-.555,2.294,2.294,0,0,1-1.008-1.578l1.18-.336a1.645,1.645,0,0,0,.629,1.066,2.04,2.04,0,0,0,1.262.379,2.518,2.518,0,0,0,.738-.1,1.184,1.184,0,0,0,.566-.379,1.057,1.057,0,0,0,.164-1.016,1.357,1.357,0,0,0-.125-.254.774.774,0,0,0-.219-.211A2.885,2.885,0,0,0,64.453,13a2.726,2.726,0,0,0-.348-.145q-.23-.082-.371-.125t-.43-.125q-.289-.082-.445-.129a8.33,8.33,0,0,1-.8-.281,3.5,3.5,0,0,1-.648-.371,1.493,1.493,0,0,1-.5-.605,2.049,2.049,0,0,1-.168-.859,1.986,1.986,0,0,1,.375-1.227,2.11,2.11,0,0,1,.973-.723,3.888,3.888,0,0,1,1.363-.223,3.337,3.337,0,0,1,1.871.5,2.134,2.134,0,0,1,.934,1.5l-1.109.281a1.471,1.471,0,0,0-.586-.973,1.865,1.865,0,0,0-1.1-.324,1.9,1.9,0,0,0-1.031.27.906.906,0,0,0-.43.824.82.82,0,0,0,.113.426,1.352,1.352,0,0,0,.23.3,1.417,1.417,0,0,0,.422.23q.3.121.453.164t.563.145q.078.023.117.031.453.117.738.207a4.538,4.538,0,0,1,.664.281,2.208,2.208,0,0,1,.6.418,1.936,1.936,0,0,1,.375.594,2.1,2.1,0,0,1,.156.828,2.237,2.237,0,0,1-.23,1.035,1.8,1.8,0,0,1-.629.707,3.042,3.042,0,0,1-.895.387A4.262,4.262,0,0,1,63.6,16.148ZM71.008,16a2.019,2.019,0,0,1-1.5-.551,2.084,2.084,0,0,1-.547-1.535V9.4h-1.57V8.32h.578a1.11,1.11,0,0,0,.848-.27,1.326,1.326,0,0,0,.246-.9V5.758H70.32V8.32h1.766V9.4H70.32v4.375a1.164,1.164,0,0,0,.293.848,1.026,1.026,0,0,0,.77.3h.7V16Zm6.172.148a4.048,4.048,0,0,1-1.969-.477,3.47,3.47,0,0,1-1.387-1.395,4.283,4.283,0,0,1-.512-2.121A3.912,3.912,0,0,1,74.4,9.262a4.089,4.089,0,0,1,5.559,0,3.92,3.92,0,0,1,1.086,2.895,3.923,3.923,0,0,1-1.09,2.9A3.762,3.762,0,0,1,77.18,16.148Zm-.008-1.125a2.359,2.359,0,0,0,1.816-.789,2.957,2.957,0,0,0,.723-2.078,2.945,2.945,0,0,0-.723-2.07A2.359,2.359,0,0,0,77.172,9.3a2.326,2.326,0,0,0-1.8.789,2.965,2.965,0,0,0-.715,2.07,2.976,2.976,0,0,0,.715,2.078A2.326,2.326,0,0,0,77.172,15.023Zm8.422,1.125a3.641,3.641,0,0,1-2.07-.555,2.294,2.294,0,0,1-1.008-1.578l1.18-.336a1.645,1.645,0,0,0,.629,1.066,2.04,2.04,0,0,0,1.262.379,2.518,2.518,0,0,0,.738-.1,1.184,1.184,0,0,0,.566-.379,1.057,1.057,0,0,0,.164-1.016,1.357,1.357,0,0,0-.125-.254.774.774,0,0,0-.219-.211A2.885,2.885,0,0,0,86.445,13a2.726,2.726,0,0,0-.348-.145q-.23-.082-.371-.125t-.43-.125q-.289-.082-.445-.129a8.331,8.331,0,0,1-.8-.281,3.5,3.5,0,0,1-.648-.371,1.493,1.493,0,0,1-.5-.605,2.049,2.049,0,0,1-.168-.859,1.986,1.986,0,0,1,.375-1.227,2.11,2.11,0,0,1,.973-.723,3.888,3.888,0,0,1,1.363-.223,3.337,3.337,0,0,1,1.871.5,2.134,2.134,0,0,1,.934,1.5l-1.109.281a1.471,1.471,0,0,0-.586-.973,1.865,1.865,0,0,0-1.1-.324,1.9,1.9,0,0,0-1.031.27.906.906,0,0,0-.43.824.82.82,0,0,0,.113.426,1.352,1.352,0,0,0,.23.3,1.417,1.417,0,0,0,.422.23q.3.121.453.164t.563.145q.078.023.117.031.453.117.738.207a4.538,4.538,0,0,1,.664.281,2.208,2.208,0,0,1,.6.418,1.936,1.936,0,0,1,.375.594,2.1,2.1,0,0,1,.156.828,2.237,2.237,0,0,1-.23,1.035,1.8,1.8,0,0,1-.629.707,3.042,3.042,0,0,1-.895.387A4.262,4.262,0,0,1,85.594,16.148Zm11.539,0a3.641,3.641,0,0,1-2.07-.555,2.294,2.294,0,0,1-1.008-1.578l1.18-.336a1.645,1.645,0,0,0,.629,1.066,2.04,2.04,0,0,0,1.262.379,2.518,2.518,0,0,0,.738-.1,1.184,1.184,0,0,0,.566-.379,1.057,1.057,0,0,0,.164-1.016,1.357,1.357,0,0,0-.125-.254.774.774,0,0,0-.219-.211A2.885,2.885,0,0,0,97.984,13a2.726,2.726,0,0,0-.348-.145q-.23-.082-.371-.125t-.43-.125q-.289-.082-.445-.129a8.331,8.331,0,0,1-.8-.281,3.5,3.5,0,0,1-.648-.371,1.493,1.493,0,0,1-.5-.605,2.049,2.049,0,0,1-.168-.859,1.986,1.986,0,0,1,.375-1.227,2.11,2.11,0,0,1,.973-.723,3.888,3.888,0,0,1,1.363-.223,3.337,3.337,0,0,1,1.871.5,2.134,2.134,0,0,1,.934,1.5l-1.109.281a1.471,1.471,0,0,0-.586-.973,1.865,1.865,0,0,0-1.1-.324,1.9,1.9,0,0,0-1.031.27.906.906,0,0,0-.43.824.82.82,0,0,0,.113.426,1.352,1.352,0,0,0,.23.3,1.417,1.417,0,0,0,.422.23q.3.121.453.164t.563.145q.078.023.117.031.453.117.738.207a4.538,4.538,0,0,1,.664.281,2.208,2.208,0,0,1,.6.418,1.936,1.936,0,0,1,.375.594,2.1,2.1,0,0,1,.156.828,2.237,2.237,0,0,1-.23,1.035,1.8,1.8,0,0,1-.629.707,3.042,3.042,0,0,1-.895.387A4.262,4.262,0,0,1,97.133,16.148Zm8.188,0a4.048,4.048,0,0,1-1.969-.477,3.47,3.47,0,0,1-1.387-1.395,4.283,4.283,0,0,1-.512-2.121,3.912,3.912,0,0,1,1.09-2.895,4.089,4.089,0,0,1,5.559,0,3.92,3.92,0,0,1,1.086,2.895,3.923,3.923,0,0,1-1.09,2.9A3.762,3.762,0,0,1,105.32,16.148Zm-.008-1.125a2.359,2.359,0,0,0,1.816-.789,2.957,2.957,0,0,0,.723-2.078,2.945,2.945,0,0,0-.723-2.07,2.359,2.359,0,0,0-1.816-.789,2.326,2.326,0,0,0-1.8.789,2.965,2.965,0,0,0-.715,2.07,2.976,2.976,0,0,0,.715,2.078A2.326,2.326,0,0,0,105.313,15.023Zm10.063-6.852a3.346,3.346,0,0,1,2.539,1.109,4.047,4.047,0,0,1,1.039,2.883,4.076,4.076,0,0,1-1.031,2.891,3.339,3.339,0,0,1-2.547,1.109,3.082,3.082,0,0,1-1.637-.445,2.818,2.818,0,0,1-1.1-1.211L112.609,16h-1.3V4h1.344l.008,5.789a2.83,2.83,0,0,1,1.1-1.184A3.09,3.09,0,0,1,115.375,8.172Zm-.3,6.82a2.35,2.35,0,0,0,1.8-.785,2.889,2.889,0,0,0,.727-2.043,2.889,2.889,0,0,0-.727-2.043,2.35,2.35,0,0,0-1.8-.785,2.3,2.3,0,0,0-1.781.813,2.913,2.913,0,0,0-.727,2.016,2.919,2.919,0,0,0,.723,2.02A2.3,2.3,0,0,0,115.078,14.992Zm7.32-5.32a2.322,2.322,0,0,1,.953-1.031,2.87,2.87,0,0,1,1.477-.406V9.508a2.53,2.53,0,0,0-1.785.57,2.382,2.382,0,0,0-.613,1.82V16h-1.352V8.32h1.32Zm10.641,2.336-.016.367h-6a2.714,2.714,0,0,0,.734,1.965,2.411,2.411,0,0,0,1.75.684,2.3,2.3,0,0,0,1.273-.367,2.383,2.383,0,0,0,.875-1.016l1.219.258a3.464,3.464,0,0,1-1.312,1.648,3.581,3.581,0,0,1-2.039.6,3.71,3.71,0,0,1-2.766-1.07,3.982,3.982,0,0,1-1.055-2.922,3.962,3.962,0,0,1,1.059-2.914,3.664,3.664,0,0,1,2.723-1.07,3.467,3.467,0,0,1,2.582.984A3.889,3.889,0,0,1,133.039,12.008Zm-3.555-2.8a2.4,2.4,0,0,0-1.6.543,2.488,2.488,0,0,0-.809,1.582h4.6a2.282,2.282,0,0,0-.672-1.582A2.17,2.17,0,0,0,129.484,9.211Zm12.258,6.938a3.641,3.641,0,0,1-2.07-.555,2.294,2.294,0,0,1-1.008-1.578l1.18-.336a1.645,1.645,0,0,0,.629,1.066,2.04,2.04,0,0,0,1.262.379,2.518,2.518,0,0,0,.738-.1,1.183,1.183,0,0,0,.566-.379,1.057,1.057,0,0,0,.164-1.016,1.356,1.356,0,0,0-.125-.254.774.774,0,0,0-.219-.211,2.884,2.884,0,0,0-.266-.164,2.727,2.727,0,0,0-.348-.145q-.23-.082-.371-.125t-.43-.125q-.289-.082-.445-.129a8.329,8.329,0,0,1-.8-.281,3.5,3.5,0,0,1-.648-.371,1.493,1.493,0,0,1-.5-.605,2.048,2.048,0,0,1-.168-.859,1.986,1.986,0,0,1,.375-1.227,2.11,2.11,0,0,1,.973-.723,3.888,3.888,0,0,1,1.363-.223,3.337,3.337,0,0,1,1.871.5,2.134,2.134,0,0,1,.934,1.5l-1.109.281A1.471,1.471,0,0,0,142.7,9.5a1.866,1.866,0,0,0-1.1-.324,1.9,1.9,0,0,0-1.031.27.906.906,0,0,0-.43.824.82.82,0,0,0,.113.426,1.352,1.352,0,0,0,.23.3,1.417,1.417,0,0,0,.422.23q.3.121.453.164t.563.145q.078.023.117.031.453.117.738.207a4.538,4.538,0,0,1,.664.281,2.208,2.208,0,0,1,.6.418,1.937,1.937,0,0,1,.375.594,2.1,2.1,0,0,1,.156.828,2.237,2.237,0,0,1-.23,1.035,1.8,1.8,0,0,1-.629.707,3.042,3.042,0,0,1-.895.387A4.262,4.262,0,0,1,141.742,16.148Zm8.188,0a4.048,4.048,0,0,1-1.969-.477,3.47,3.47,0,0,1-1.387-1.395,4.284,4.284,0,0,1-.512-2.121,3.912,3.912,0,0,1,1.09-2.895,4.089,4.089,0,0,1,5.559,0,3.92,3.92,0,0,1,1.086,2.895,3.923,3.923,0,0,1-1.09,2.9A3.762,3.762,0,0,1,149.93,16.148Zm-.008-1.125a2.359,2.359,0,0,0,1.816-.789,2.957,2.957,0,0,0,.723-2.078,2.945,2.945,0,0,0-.723-2.07,2.359,2.359,0,0,0-1.816-.789,2.326,2.326,0,0,0-1.8.789,2.965,2.965,0,0,0-.715,2.07,2.976,2.976,0,0,0,.715,2.078A2.326,2.326,0,0,0,149.922,15.023Zm8.422,1.125a3.641,3.641,0,0,1-2.07-.555,2.294,2.294,0,0,1-1.008-1.578l1.18-.336a1.645,1.645,0,0,0,.629,1.066,2.04,2.04,0,0,0,1.262.379,2.518,2.518,0,0,0,.738-.1,1.183,1.183,0,0,0,.566-.379,1.057,1.057,0,0,0,.164-1.016,1.356,1.356,0,0,0-.125-.254.774.774,0,0,0-.219-.211A2.884,2.884,0,0,0,159.2,13a2.727,2.727,0,0,0-.348-.145q-.23-.082-.371-.125t-.43-.125q-.289-.082-.445-.129a8.329,8.329,0,0,1-.8-.281,3.5,3.5,0,0,1-.648-.371,1.493,1.493,0,0,1-.5-.605,2.048,2.048,0,0,1-.168-.859,1.986,1.986,0,0,1,.375-1.227,2.11,2.11,0,0,1,.973-.723,3.888,3.888,0,0,1,1.363-.223,3.337,3.337,0,0,1,1.871.5,2.134,2.134,0,0,1,.934,1.5l-1.109.281A1.471,1.471,0,0,0,159.3,9.5a1.866,1.866,0,0,0-1.1-.324,1.9,1.9,0,0,0-1.031.27.906.906,0,0,0-.43.824.82.82,0,0,0,.113.426,1.352,1.352,0,0,0,.23.3,1.417,1.417,0,0,0,.422.23q.3.121.453.164t.563.145q.078.023.117.031.453.117.738.207a4.538,4.538,0,0,1,.664.281,2.208,2.208,0,0,1,.6.418,1.937,1.937,0,0,1,.375.594,2.1,2.1,0,0,1,.156.828,2.237,2.237,0,0,1-.23,1.035,1.8,1.8,0,0,1-.629.707,3.042,3.042,0,0,1-.895.387A4.262,4.262,0,0,1,158.344,16.148ZM165.75,16a2.019,2.019,0,0,1-1.5-.551,2.084,2.084,0,0,1-.547-1.535V9.4h-1.57V8.32h.578a1.11,1.11,0,0,0,.848-.27,1.326,1.326,0,0,0,.246-.9V5.758h1.258V8.32h1.766V9.4h-1.766v4.375a1.164,1.164,0,0,0,.293.848,1.026,1.026,0,0,0,.77.3h.7V16Zm9.656-3.992-.016.367h-6a2.714,2.714,0,0,0,.734,1.965,2.411,2.411,0,0,0,1.75.684,2.3,2.3,0,0,0,1.273-.367,2.383,2.383,0,0,0,.875-1.016l1.219.258a3.464,3.464,0,0,1-1.312,1.648,3.581,3.581,0,0,1-2.039.6,3.71,3.71,0,0,1-2.766-1.07,3.982,3.982,0,0,1-1.055-2.922,3.962,3.962,0,0,1,1.059-2.914,3.664,3.664,0,0,1,2.723-1.07,3.467,3.467,0,0,1,2.582.984A3.889,3.889,0,0,1,175.406,12.008Zm-3.555-2.8a2.4,2.4,0,0,0-1.6.543,2.488,2.488,0,0,0-.809,1.582h4.6a2.282,2.282,0,0,0-.672-1.582A2.17,2.17,0,0,0,171.852,9.211Zm9.3-1.039a2.671,2.671,0,0,1,1.934.7,2.594,2.594,0,0,1,.723,1.961V16h-1.352V11.133a1.816,1.816,0,0,0-.469-1.375,1.676,1.676,0,0,0-1.2-.445,1.858,1.858,0,0,0-1.367.527,2.14,2.14,0,0,0-.539,1.566V16h-1.352V8.32h1.352V9.3A2.565,2.565,0,0,1,181.148,8.172ZM187.1,6.516a.92.92,0,0,1-.914-.914.867.867,0,0,1,.27-.641A.886.886,0,0,1,187.1,4.7a.877.877,0,0,1,.637.266.867.867,0,0,1,.27.641.88.88,0,0,1-.27.645A.871.871,0,0,1,187.1,6.516ZM186.414,16V8.32h1.359V16Zm8.18-7.828a3.346,3.346,0,0,1,2.539,1.109,4.047,4.047,0,0,1,1.039,2.883,4.076,4.076,0,0,1-1.031,2.891,3.339,3.339,0,0,1-2.547,1.109,3.082,3.082,0,0,1-1.637-.445,2.818,2.818,0,0,1-1.1-1.211L191.828,16h-1.3V4h1.344l.008,5.789a2.83,2.83,0,0,1,1.1-1.184A3.09,3.09,0,0,1,194.594,8.172Zm-.3,6.82a2.35,2.35,0,0,0,1.8-.785,2.889,2.889,0,0,0,.727-2.043,2.889,2.889,0,0,0-.727-2.043,2.35,2.35,0,0,0-1.8-.785,2.3,2.3,0,0,0-1.781.813,2.913,2.913,0,0,0-.727,2.016,2.919,2.919,0,0,0,.723,2.02A2.3,2.3,0,0,0,194.3,14.992Zm6.688-8.477a.92.92,0,0,1-.914-.914.867.867,0,0,1,.27-.641.886.886,0,0,1,.645-.266.877.877,0,0,1,.637.266.867.867,0,0,1,.27.641.88.88,0,0,1-.27.645A.871.871,0,0,1,200.984,6.516ZM200.3,16V8.32h1.359V16Zm4.109,0V4h1.367V16Zm4.8-9.484A.92.92,0,0,1,208.3,5.6a.867.867,0,0,1,.27-.641.886.886,0,0,1,.645-.266.877.877,0,0,1,.637.266.867.867,0,0,1,.27.641.88.88,0,0,1-.27.645A.871.871,0,0,1,209.211,6.516ZM208.523,16V8.32h1.359V16ZM218.3,4h1.352V16h-1.3l-.031-1.492a2.826,2.826,0,0,1-1.094,1.211,3.048,3.048,0,0,1-1.625.445,3.49,3.49,0,0,1-2.535-1.082,3.7,3.7,0,0,1-.773-1.27,4.644,4.644,0,0,1-.285-1.648,4.038,4.038,0,0,1,1.043-2.883A3.367,3.367,0,0,1,215.6,8.172a3.061,3.061,0,0,1,1.605.434,2.842,2.842,0,0,1,1.1,1.176Zm-2.422,10.992a2.3,2.3,0,0,0,1.785-.809,2.919,2.919,0,0,0,.723-2.02,2.913,2.913,0,0,0-.727-2.016,2.3,2.3,0,0,0-1.781-.812,2.35,2.35,0,0,0-1.8.785,2.889,2.889,0,0,0-.727,2.043,2.889,2.889,0,0,0,.727,2.043A2.35,2.35,0,0,0,215.883,14.992Zm8.3,1.156a2.613,2.613,0,0,1-1.684-.527,1.894,1.894,0,0,1-.66-1.574,2.237,2.237,0,0,1,.211-1,1.77,1.77,0,0,1,.625-.7,3.749,3.749,0,0,1,.9-.434,8.341,8.341,0,0,1,1.168-.277l1.242-.2q.68-.125.68-.711a1.342,1.342,0,0,0-.48-1.145,1.958,1.958,0,0,0-1.215-.363,1.994,1.994,0,0,0-1.2.352,1.471,1.471,0,0,0-.57,1.078l-1.219-.258a2.346,2.346,0,0,1,.961-1.645,3.59,3.59,0,0,1,2.094-.551,4.247,4.247,0,0,1,1.113.137,3.026,3.026,0,0,1,.93.43,1.927,1.927,0,0,1,.664.828,3.081,3.081,0,0,1,.238,1.262v3.172a1.3,1.3,0,0,0,.176.8.759.759,0,0,0,.605.207h.125V16h-.672a1.281,1.281,0,0,1-1.453-1.039H226.7A2.935,2.935,0,0,1,224.18,16.148Zm.313-1.094a2.049,2.049,0,0,0,1.648-.742,3.056,3.056,0,0,0,.625-2.031l-2.031.391a2.734,2.734,0,0,0-1.191.426.99.99,0,0,0-.387.84.979.979,0,0,0,.371.844A1.586,1.586,0,0,0,224.492,15.055ZM236.3,4h1.352V16h-1.3l-.031-1.492a2.826,2.826,0,0,1-1.094,1.211,3.048,3.048,0,0,1-1.625.445,3.49,3.49,0,0,1-2.535-1.082,3.7,3.7,0,0,1-.773-1.27,4.644,4.644,0,0,1-.285-1.648,4.038,4.038,0,0,1,1.043-2.883A3.367,3.367,0,0,1,233.6,8.172a3.061,3.061,0,0,1,1.605.434,2.842,2.842,0,0,1,1.1,1.176Zm-2.422,10.992a2.3,2.3,0,0,0,1.785-.809,2.919,2.919,0,0,0,.723-2.02,2.913,2.913,0,0,0-.727-2.016,2.3,2.3,0,0,0-1.781-.812,2.35,2.35,0,0,0-1.8.785,2.889,2.889,0,0,0-.727,2.043,2.889,2.889,0,0,0,.727,2.043A2.35,2.35,0,0,0,233.883,14.992Z" transform="translate(6409.167 1015.5)" fill="#00223d"/>
    <path id="Trazado_26992" data-name="Trazado 26992" d="M3.82,14.4V11.383H.8V9.672H3.82V6.664h1.7V9.672H8.531v1.711H5.523V14.4Zm14.8,1.75a5.021,5.021,0,0,1-2.871-.777,3.291,3.291,0,0,1-1.434-2.137l1.414-.336a2.319,2.319,0,0,0,.992,1.5,3.355,3.355,0,0,0,1.945.547,4.058,4.058,0,0,0,.727-.062,2.779,2.779,0,0,0,.66-.207,2.021,2.021,0,0,0,.543-.355,1.484,1.484,0,0,0,.359-.539,1.845,1.845,0,0,0,.125-.734,1.588,1.588,0,0,0-.1-.52,1.649,1.649,0,0,0-.219-.41,1.473,1.473,0,0,0-.371-.332,4.973,4.973,0,0,0-.445-.266,4.025,4.025,0,0,0-.551-.223q-.348-.117-.582-.184l-.633-.176q-.078-.023-.117-.031-.453-.117-.738-.2t-.684-.238a4.5,4.5,0,0,1-.652-.3,4.416,4.416,0,0,1-.535-.375,1.921,1.921,0,0,1-.441-.488,2.577,2.577,0,0,1-.266-.621,2.764,2.764,0,0,1-.105-.781,2.79,2.79,0,0,1,.512-1.687,2.994,2.994,0,0,1,1.32-1.031,4.793,4.793,0,0,1,1.816-.328,4.973,4.973,0,0,1,2.645.676,3.011,3.011,0,0,1,1.4,2l-1.359.344a2.069,2.069,0,0,0-.914-1.352,3.132,3.132,0,0,0-1.719-.453,3.4,3.4,0,0,0-.844.1,2.507,2.507,0,0,0-.73.313,1.517,1.517,0,0,0-.527.574,1.746,1.746,0,0,0-.2.84,1.35,1.35,0,0,0,.078.465,1.427,1.427,0,0,0,.2.371,1.391,1.391,0,0,0,.336.3,3.412,3.412,0,0,0,.41.242,4.157,4.157,0,0,0,.512.2q.32.105.547.172t.6.16a12.727,12.727,0,0,1,2.117.7,2.679,2.679,0,0,1,1.633,2.023,3.488,3.488,0,0,1,.031.477,3.074,3.074,0,0,1-.316,1.422,2.565,2.565,0,0,1-.867.984,4.146,4.146,0,0,1-1.234.551A5.661,5.661,0,0,1,18.617,16.148ZM29.578,8.32H30.93V16h-1.3L29.6,14.984a2.4,2.4,0,0,1-.953.863,2.932,2.932,0,0,1-1.344.3,2.671,2.671,0,0,1-1.934-.7,2.594,2.594,0,0,1-.723-1.961V8.32H26v4.867a1.822,1.822,0,0,0,.473,1.375,1.673,1.673,0,0,0,1.207.453,1.837,1.837,0,0,0,1.363-.531,2.164,2.164,0,0,0,.535-1.57Zm8.156-.148a3.493,3.493,0,0,1,1.391.281,3.421,3.421,0,0,1,1.141.789,3.688,3.688,0,0,1,.77,1.266,4.667,4.667,0,0,1,.285,1.656,4.061,4.061,0,0,1-1.035,2.9,3.362,3.362,0,0,1-2.551,1.1,3.04,3.04,0,0,1-1.605-.437,2.867,2.867,0,0,1-1.1-1.18v5.32H33.68V8.32h1.3l.031,1.492a2.811,2.811,0,0,1,1.094-1.2A3.068,3.068,0,0,1,37.734,8.172Zm-.266,6.82a2.332,2.332,0,0,0,1.777-.777,2.892,2.892,0,0,0,.723-2.051,2.877,2.877,0,0,0-.723-2.047,2.423,2.423,0,0,0-3.582.035,2.88,2.88,0,0,0-.734,2.012,2.891,2.891,0,0,0,.734,2.02A2.343,2.343,0,0,0,37.469,14.992ZM48.234,8.32h1.352V16h-1.3l-.031-1.016a2.4,2.4,0,0,1-.953.863,2.932,2.932,0,0,1-1.344.3,2.671,2.671,0,0,1-1.934-.7,2.594,2.594,0,0,1-.723-1.961V8.32h1.352v4.867a1.822,1.822,0,0,0,.473,1.375,1.673,1.673,0,0,0,1.207.453,1.837,1.837,0,0,0,1.363-.531,2.164,2.164,0,0,0,.535-1.57Zm10.82,3.688-.016.367h-6a2.714,2.714,0,0,0,.734,1.965,2.411,2.411,0,0,0,1.75.684,2.3,2.3,0,0,0,1.273-.367,2.383,2.383,0,0,0,.875-1.016l1.219.258a3.464,3.464,0,0,1-1.312,1.648,3.581,3.581,0,0,1-2.039.6,3.71,3.71,0,0,1-2.766-1.07,3.982,3.982,0,0,1-1.055-2.922,3.962,3.962,0,0,1,1.059-2.914A3.664,3.664,0,0,1,55.5,8.172a3.467,3.467,0,0,1,2.582.984A3.889,3.889,0,0,1,59.055,12.008ZM55.5,9.211a2.4,2.4,0,0,0-1.6.543,2.488,2.488,0,0,0-.809,1.582h4.6a2.282,2.282,0,0,0-.672-1.582A2.17,2.17,0,0,0,55.5,9.211Zm8.1,6.938a3.641,3.641,0,0,1-2.07-.555,2.294,2.294,0,0,1-1.008-1.578l1.18-.336a1.645,1.645,0,0,0,.629,1.066,2.04,2.04,0,0,0,1.262.379,2.518,2.518,0,0,0,.738-.1,1.184,1.184,0,0,0,.566-.379,1.057,1.057,0,0,0,.164-1.016,1.357,1.357,0,0,0-.125-.254.774.774,0,0,0-.219-.211A2.885,2.885,0,0,0,64.453,13a2.726,2.726,0,0,0-.348-.145q-.23-.082-.371-.125t-.43-.125q-.289-.082-.445-.129a8.33,8.33,0,0,1-.8-.281,3.5,3.5,0,0,1-.648-.371,1.493,1.493,0,0,1-.5-.605,2.049,2.049,0,0,1-.168-.859,1.986,1.986,0,0,1,.375-1.227,2.11,2.11,0,0,1,.973-.723,3.888,3.888,0,0,1,1.363-.223,3.337,3.337,0,0,1,1.871.5,2.134,2.134,0,0,1,.934,1.5l-1.109.281a1.471,1.471,0,0,0-.586-.973,1.865,1.865,0,0,0-1.1-.324,1.9,1.9,0,0,0-1.031.27.906.906,0,0,0-.43.824.82.82,0,0,0,.113.426,1.352,1.352,0,0,0,.23.3,1.417,1.417,0,0,0,.422.23q.3.121.453.164t.563.145q.078.023.117.031.453.117.738.207a4.538,4.538,0,0,1,.664.281,2.208,2.208,0,0,1,.6.418,1.936,1.936,0,0,1,.375.594,2.1,2.1,0,0,1,.156.828,2.237,2.237,0,0,1-.23,1.035,1.8,1.8,0,0,1-.629.707,3.042,3.042,0,0,1-.895.387A4.262,4.262,0,0,1,63.6,16.148ZM71.008,16a2.019,2.019,0,0,1-1.5-.551,2.084,2.084,0,0,1-.547-1.535V9.4h-1.57V8.32h.578a1.11,1.11,0,0,0,.848-.27,1.326,1.326,0,0,0,.246-.9V5.758H70.32V8.32h1.766V9.4H70.32v4.375a1.164,1.164,0,0,0,.293.848,1.026,1.026,0,0,0,.77.3h.7V16Zm6.172.148a4.048,4.048,0,0,1-1.969-.477,3.47,3.47,0,0,1-1.387-1.395,4.283,4.283,0,0,1-.512-2.121A3.912,3.912,0,0,1,74.4,9.262a4.089,4.089,0,0,1,5.559,0,3.92,3.92,0,0,1,1.086,2.895,3.923,3.923,0,0,1-1.09,2.9A3.762,3.762,0,0,1,77.18,16.148Zm-.008-1.125a2.359,2.359,0,0,0,1.816-.789,2.957,2.957,0,0,0,.723-2.078,2.945,2.945,0,0,0-.723-2.07A2.359,2.359,0,0,0,77.172,9.3a2.326,2.326,0,0,0-1.8.789,2.965,2.965,0,0,0-.715,2.07,2.976,2.976,0,0,0,.715,2.078A2.326,2.326,0,0,0,77.172,15.023Zm8.422,1.125a3.641,3.641,0,0,1-2.07-.555,2.294,2.294,0,0,1-1.008-1.578l1.18-.336a1.645,1.645,0,0,0,.629,1.066,2.04,2.04,0,0,0,1.262.379,2.518,2.518,0,0,0,.738-.1,1.184,1.184,0,0,0,.566-.379,1.057,1.057,0,0,0,.164-1.016,1.357,1.357,0,0,0-.125-.254.774.774,0,0,0-.219-.211A2.885,2.885,0,0,0,86.445,13a2.726,2.726,0,0,0-.348-.145q-.23-.082-.371-.125t-.43-.125q-.289-.082-.445-.129a8.331,8.331,0,0,1-.8-.281,3.5,3.5,0,0,1-.648-.371,1.493,1.493,0,0,1-.5-.605,2.049,2.049,0,0,1-.168-.859,1.986,1.986,0,0,1,.375-1.227,2.11,2.11,0,0,1,.973-.723,3.888,3.888,0,0,1,1.363-.223,3.337,3.337,0,0,1,1.871.5,2.134,2.134,0,0,1,.934,1.5l-1.109.281a1.471,1.471,0,0,0-.586-.973,1.865,1.865,0,0,0-1.1-.324,1.9,1.9,0,0,0-1.031.27.906.906,0,0,0-.43.824.82.82,0,0,0,.113.426,1.352,1.352,0,0,0,.23.3,1.417,1.417,0,0,0,.422.23q.3.121.453.164t.563.145q.078.023.117.031.453.117.738.207a4.538,4.538,0,0,1,.664.281,2.208,2.208,0,0,1,.6.418,1.936,1.936,0,0,1,.375.594,2.1,2.1,0,0,1,.156.828,2.237,2.237,0,0,1-.23,1.035,1.8,1.8,0,0,1-.629.707,3.042,3.042,0,0,1-.895.387A4.262,4.262,0,0,1,85.594,16.148ZM99.219,5a3.257,3.257,0,0,1,1.723.457A3.087,3.087,0,0,1,102.1,6.68a3.588,3.588,0,0,1,.4,1.7,3.338,3.338,0,0,1-.91,2.395,3.123,3.123,0,0,1-2.371.957H96.453V16h-1.4V5Zm-.2,5.508a2,2,0,0,0,1.531-.59,2.183,2.183,0,0,0,.555-1.559,2.189,2.189,0,0,0-.555-1.551,1.986,1.986,0,0,0-1.531-.6H96.453v4.3Zm6.906-.836a2.322,2.322,0,0,1,.953-1.031,2.87,2.87,0,0,1,1.477-.406V9.508a2.53,2.53,0,0,0-1.785.57,2.382,2.382,0,0,0-.613,1.82V16H104.6V8.32h1.32Zm7.156,6.477a4.048,4.048,0,0,1-1.969-.477,3.47,3.47,0,0,1-1.387-1.395,4.283,4.283,0,0,1-.512-2.121,3.912,3.912,0,0,1,1.09-2.895,4.089,4.089,0,0,1,5.559,0,3.92,3.92,0,0,1,1.086,2.895,3.923,3.923,0,0,1-1.09,2.9A3.762,3.762,0,0,1,113.078,16.148Zm-.008-1.125a2.359,2.359,0,0,0,1.816-.789,2.957,2.957,0,0,0,.723-2.078,2.945,2.945,0,0,0-.723-2.07A2.359,2.359,0,0,0,113.07,9.3a2.326,2.326,0,0,0-1.8.789,2.965,2.965,0,0,0-.715,2.07,2.976,2.976,0,0,0,.715,2.078A2.326,2.326,0,0,0,113.07,15.023Zm10.047-6.852a3.493,3.493,0,0,1,1.391.281,3.421,3.421,0,0,1,1.141.789,3.688,3.688,0,0,1,.77,1.266,4.667,4.667,0,0,1,.285,1.656,4.061,4.061,0,0,1-1.035,2.9,3.362,3.362,0,0,1-2.551,1.1,3.04,3.04,0,0,1-1.605-.437,2.867,2.867,0,0,1-1.1-1.18v5.32h-1.352V8.32h1.3l.031,1.492a2.811,2.811,0,0,1,1.094-1.2A3.068,3.068,0,0,1,123.117,8.172Zm-.266,6.82a2.332,2.332,0,0,0,1.777-.777,2.891,2.891,0,0,0,.723-2.051,2.877,2.877,0,0,0-.723-2.047,2.423,2.423,0,0,0-3.582.035,2.88,2.88,0,0,0-.734,2.012,2.891,2.891,0,0,0,.734,2.02A2.343,2.343,0,0,0,122.852,14.992ZM131.555,7l1.961-2.547.719.523L132.484,7Zm.516,9.148a4.048,4.048,0,0,1-1.969-.477,3.47,3.47,0,0,1-1.387-1.395,4.284,4.284,0,0,1-.512-2.121,3.912,3.912,0,0,1,1.09-2.895,4.089,4.089,0,0,1,5.559,0,3.92,3.92,0,0,1,1.086,2.895,3.923,3.923,0,0,1-1.09,2.9A3.762,3.762,0,0,1,132.07,16.148Zm-.008-1.125a2.359,2.359,0,0,0,1.816-.789,2.957,2.957,0,0,0,.723-2.078,2.945,2.945,0,0,0-.723-2.07,2.359,2.359,0,0,0-1.816-.789,2.326,2.326,0,0,0-1.8.789,2.965,2.965,0,0,0-.715,2.07,2.976,2.976,0,0,0,.715,2.078A2.326,2.326,0,0,0,132.063,15.023Zm8.422,1.125a3.641,3.641,0,0,1-2.07-.555,2.294,2.294,0,0,1-1.008-1.578l1.18-.336a1.645,1.645,0,0,0,.629,1.066,2.04,2.04,0,0,0,1.262.379,2.518,2.518,0,0,0,.738-.1,1.183,1.183,0,0,0,.566-.379,1.057,1.057,0,0,0,.164-1.016,1.356,1.356,0,0,0-.125-.254.774.774,0,0,0-.219-.211,2.884,2.884,0,0,0-.266-.164,2.727,2.727,0,0,0-.348-.145q-.23-.082-.371-.125t-.43-.125q-.289-.082-.445-.129a8.329,8.329,0,0,1-.8-.281,3.5,3.5,0,0,1-.648-.371,1.493,1.493,0,0,1-.5-.605,2.048,2.048,0,0,1-.168-.859A1.986,1.986,0,0,1,138,9.133a2.11,2.11,0,0,1,.973-.723,3.888,3.888,0,0,1,1.363-.223,3.337,3.337,0,0,1,1.871.5,2.134,2.134,0,0,1,.934,1.5l-1.109.281a1.471,1.471,0,0,0-.586-.973,1.866,1.866,0,0,0-1.1-.324,1.9,1.9,0,0,0-1.031.27.906.906,0,0,0-.43.824.82.82,0,0,0,.113.426,1.352,1.352,0,0,0,.23.3,1.417,1.417,0,0,0,.422.23q.3.121.453.164t.563.145q.078.023.117.031.453.117.738.207a4.538,4.538,0,0,1,.664.281,2.208,2.208,0,0,1,.6.418,1.937,1.937,0,0,1,.375.594,2.1,2.1,0,0,1,.156.828,2.237,2.237,0,0,1-.23,1.035,1.8,1.8,0,0,1-.629.707,3.042,3.042,0,0,1-.895.387A4.262,4.262,0,0,1,140.484,16.148Zm5.641-9.633a.92.92,0,0,1-.914-.914.867.867,0,0,1,.27-.641.886.886,0,0,1,.645-.266.877.877,0,0,1,.637.266.867.867,0,0,1,.27.641.88.88,0,0,1-.27.645A.871.871,0,0,1,146.125,6.516ZM145.438,16V8.32H146.8V16ZM152,16a2.019,2.019,0,0,1-1.5-.551,2.084,2.084,0,0,1-.547-1.535V9.4h-1.57V8.32h.578a1.11,1.11,0,0,0,.848-.27,1.326,1.326,0,0,0,.246-.9V5.758h1.258V8.32h1.766V9.4h-1.766v4.375a1.164,1.164,0,0,0,.293.848,1.026,1.026,0,0,0,.77.3h.7V16Zm6.172.148a4.048,4.048,0,0,1-1.969-.477,3.47,3.47,0,0,1-1.387-1.395,4.284,4.284,0,0,1-.512-2.121,3.912,3.912,0,0,1,1.09-2.895,4.089,4.089,0,0,1,5.559,0,3.92,3.92,0,0,1,1.086,2.895,3.923,3.923,0,0,1-1.09,2.9A3.762,3.762,0,0,1,158.172,16.148Zm-.008-1.125a2.359,2.359,0,0,0,1.816-.789,2.957,2.957,0,0,0,.723-2.078,2.945,2.945,0,0,0-.723-2.07,2.359,2.359,0,0,0-1.816-.789,2.326,2.326,0,0,0-1.8.789,2.965,2.965,0,0,0-.715,2.07,2.976,2.976,0,0,0,.715,2.078A2.326,2.326,0,0,0,158.164,15.023Zm9.914-2.242V10.9h5.6v1.883Zm18.57-6.508h-4.516V9.867h3.938v1.266h-3.937V16H180.7V5h5.945Zm2.7.242a.92.92,0,0,1-.914-.914.867.867,0,0,1,.27-.641.886.886,0,0,1,.645-.266.877.877,0,0,1,.637.266.867.867,0,0,1,.27.641.88.88,0,0,1-.27.645A.871.871,0,0,1,189.344,6.516ZM188.656,16V8.32h1.359V16Zm7.734-7.828a2.671,2.671,0,0,1,1.934.7,2.594,2.594,0,0,1,.723,1.961V16H197.7V11.133a1.816,1.816,0,0,0-.469-1.375,1.676,1.676,0,0,0-1.2-.445,1.858,1.858,0,0,0-1.367.527,2.14,2.14,0,0,0-.539,1.566V16h-1.352V8.32h1.352V9.3A2.565,2.565,0,0,1,196.391,8.172Z" transform="translate(6409.167 1109.5)" fill="#00223d"/>
    <path id="Trazado_26993" data-name="Trazado 26993" d="M3.82,14.4V11.383H.8V9.672H3.82V6.664h1.7V9.672H8.531v1.711H5.523V14.4Zm14.8,1.75a5.021,5.021,0,0,1-2.871-.777,3.291,3.291,0,0,1-1.434-2.137l1.414-.336a2.319,2.319,0,0,0,.992,1.5,3.355,3.355,0,0,0,1.945.547,4.058,4.058,0,0,0,.727-.062,2.779,2.779,0,0,0,.66-.207,2.021,2.021,0,0,0,.543-.355,1.484,1.484,0,0,0,.359-.539,1.845,1.845,0,0,0,.125-.734,1.588,1.588,0,0,0-.1-.52,1.649,1.649,0,0,0-.219-.41,1.473,1.473,0,0,0-.371-.332,4.973,4.973,0,0,0-.445-.266,4.025,4.025,0,0,0-.551-.223q-.348-.117-.582-.184l-.633-.176q-.078-.023-.117-.031-.453-.117-.738-.2t-.684-.238a4.5,4.5,0,0,1-.652-.3,4.416,4.416,0,0,1-.535-.375,1.921,1.921,0,0,1-.441-.488,2.577,2.577,0,0,1-.266-.621,2.764,2.764,0,0,1-.105-.781,2.79,2.79,0,0,1,.512-1.687,2.994,2.994,0,0,1,1.32-1.031,4.793,4.793,0,0,1,1.816-.328,4.973,4.973,0,0,1,2.645.676,3.011,3.011,0,0,1,1.4,2l-1.359.344a2.069,2.069,0,0,0-.914-1.352,3.132,3.132,0,0,0-1.719-.453,3.4,3.4,0,0,0-.844.1,2.507,2.507,0,0,0-.73.313,1.517,1.517,0,0,0-.527.574,1.746,1.746,0,0,0-.2.84,1.35,1.35,0,0,0,.078.465,1.427,1.427,0,0,0,.2.371,1.391,1.391,0,0,0,.336.3,3.412,3.412,0,0,0,.41.242,4.157,4.157,0,0,0,.512.2q.32.105.547.172t.6.16a12.727,12.727,0,0,1,2.117.7,2.679,2.679,0,0,1,1.633,2.023,3.488,3.488,0,0,1,.031.477,3.074,3.074,0,0,1-.316,1.422,2.565,2.565,0,0,1-.867.984,4.146,4.146,0,0,1-1.234.551A5.661,5.661,0,0,1,18.617,16.148ZM29.578,8.32H30.93V16h-1.3L29.6,14.984a2.4,2.4,0,0,1-.953.863,2.932,2.932,0,0,1-1.344.3,2.671,2.671,0,0,1-1.934-.7,2.594,2.594,0,0,1-.723-1.961V8.32H26v4.867a1.822,1.822,0,0,0,.473,1.375,1.673,1.673,0,0,0,1.207.453,1.837,1.837,0,0,0,1.363-.531,2.164,2.164,0,0,0,.535-1.57Zm8.156-.148a3.493,3.493,0,0,1,1.391.281,3.421,3.421,0,0,1,1.141.789,3.688,3.688,0,0,1,.77,1.266,4.667,4.667,0,0,1,.285,1.656,4.061,4.061,0,0,1-1.035,2.9,3.362,3.362,0,0,1-2.551,1.1,3.04,3.04,0,0,1-1.605-.437,2.867,2.867,0,0,1-1.1-1.18v5.32H33.68V8.32h1.3l.031,1.492a2.811,2.811,0,0,1,1.094-1.2A3.068,3.068,0,0,1,37.734,8.172Zm-.266,6.82a2.332,2.332,0,0,0,1.777-.777,2.892,2.892,0,0,0,.723-2.051,2.877,2.877,0,0,0-.723-2.047,2.423,2.423,0,0,0-3.582.035,2.88,2.88,0,0,0-.734,2.012,2.891,2.891,0,0,0,.734,2.02A2.343,2.343,0,0,0,37.469,14.992ZM48.234,8.32h1.352V16h-1.3l-.031-1.016a2.4,2.4,0,0,1-.953.863,2.932,2.932,0,0,1-1.344.3,2.671,2.671,0,0,1-1.934-.7,2.594,2.594,0,0,1-.723-1.961V8.32h1.352v4.867a1.822,1.822,0,0,0,.473,1.375,1.673,1.673,0,0,0,1.207.453,1.837,1.837,0,0,0,1.363-.531,2.164,2.164,0,0,0,.535-1.57Zm10.82,3.688-.016.367h-6a2.714,2.714,0,0,0,.734,1.965,2.411,2.411,0,0,0,1.75.684,2.3,2.3,0,0,0,1.273-.367,2.383,2.383,0,0,0,.875-1.016l1.219.258a3.464,3.464,0,0,1-1.312,1.648,3.581,3.581,0,0,1-2.039.6,3.71,3.71,0,0,1-2.766-1.07,3.982,3.982,0,0,1-1.055-2.922,3.962,3.962,0,0,1,1.059-2.914A3.664,3.664,0,0,1,55.5,8.172a3.467,3.467,0,0,1,2.582.984A3.889,3.889,0,0,1,59.055,12.008ZM55.5,9.211a2.4,2.4,0,0,0-1.6.543,2.488,2.488,0,0,0-.809,1.582h4.6a2.282,2.282,0,0,0-.672-1.582A2.17,2.17,0,0,0,55.5,9.211Zm8.1,6.938a3.641,3.641,0,0,1-2.07-.555,2.294,2.294,0,0,1-1.008-1.578l1.18-.336a1.645,1.645,0,0,0,.629,1.066,2.04,2.04,0,0,0,1.262.379,2.518,2.518,0,0,0,.738-.1,1.184,1.184,0,0,0,.566-.379,1.057,1.057,0,0,0,.164-1.016,1.357,1.357,0,0,0-.125-.254.774.774,0,0,0-.219-.211A2.885,2.885,0,0,0,64.453,13a2.726,2.726,0,0,0-.348-.145q-.23-.082-.371-.125t-.43-.125q-.289-.082-.445-.129a8.33,8.33,0,0,1-.8-.281,3.5,3.5,0,0,1-.648-.371,1.493,1.493,0,0,1-.5-.605,2.049,2.049,0,0,1-.168-.859,1.986,1.986,0,0,1,.375-1.227,2.11,2.11,0,0,1,.973-.723,3.888,3.888,0,0,1,1.363-.223,3.337,3.337,0,0,1,1.871.5,2.134,2.134,0,0,1,.934,1.5l-1.109.281a1.471,1.471,0,0,0-.586-.973,1.865,1.865,0,0,0-1.1-.324,1.9,1.9,0,0,0-1.031.27.906.906,0,0,0-.43.824.82.82,0,0,0,.113.426,1.352,1.352,0,0,0,.23.3,1.417,1.417,0,0,0,.422.23q.3.121.453.164t.563.145q.078.023.117.031.453.117.738.207a4.538,4.538,0,0,1,.664.281,2.208,2.208,0,0,1,.6.418,1.936,1.936,0,0,1,.375.594,2.1,2.1,0,0,1,.156.828,2.237,2.237,0,0,1-.23,1.035,1.8,1.8,0,0,1-.629.707,3.042,3.042,0,0,1-.895.387A4.262,4.262,0,0,1,63.6,16.148ZM71.008,16a2.019,2.019,0,0,1-1.5-.551,2.084,2.084,0,0,1-.547-1.535V9.4h-1.57V8.32h.578a1.11,1.11,0,0,0,.848-.27,1.326,1.326,0,0,0,.246-.9V5.758H70.32V8.32h1.766V9.4H70.32v4.375a1.164,1.164,0,0,0,.293.848,1.026,1.026,0,0,0,.77.3h.7V16Zm6.172.148a4.048,4.048,0,0,1-1.969-.477,3.47,3.47,0,0,1-1.387-1.395,4.283,4.283,0,0,1-.512-2.121A3.912,3.912,0,0,1,74.4,9.262a4.089,4.089,0,0,1,5.559,0,3.92,3.92,0,0,1,1.086,2.895,3.923,3.923,0,0,1-1.09,2.9A3.762,3.762,0,0,1,77.18,16.148Zm-.008-1.125a2.359,2.359,0,0,0,1.816-.789,2.957,2.957,0,0,0,.723-2.078,2.945,2.945,0,0,0-.723-2.07A2.359,2.359,0,0,0,77.172,9.3a2.326,2.326,0,0,0-1.8.789,2.965,2.965,0,0,0-.715,2.07,2.976,2.976,0,0,0,.715,2.078A2.326,2.326,0,0,0,77.172,15.023Zm8.422,1.125a3.641,3.641,0,0,1-2.07-.555,2.294,2.294,0,0,1-1.008-1.578l1.18-.336a1.645,1.645,0,0,0,.629,1.066,2.04,2.04,0,0,0,1.262.379,2.518,2.518,0,0,0,.738-.1,1.184,1.184,0,0,0,.566-.379,1.057,1.057,0,0,0,.164-1.016,1.357,1.357,0,0,0-.125-.254.774.774,0,0,0-.219-.211A2.885,2.885,0,0,0,86.445,13a2.726,2.726,0,0,0-.348-.145q-.23-.082-.371-.125t-.43-.125q-.289-.082-.445-.129a8.331,8.331,0,0,1-.8-.281,3.5,3.5,0,0,1-.648-.371,1.493,1.493,0,0,1-.5-.605,2.049,2.049,0,0,1-.168-.859,1.986,1.986,0,0,1,.375-1.227,2.11,2.11,0,0,1,.973-.723,3.888,3.888,0,0,1,1.363-.223,3.337,3.337,0,0,1,1.871.5,2.134,2.134,0,0,1,.934,1.5l-1.109.281a1.471,1.471,0,0,0-.586-.973,1.865,1.865,0,0,0-1.1-.324,1.9,1.9,0,0,0-1.031.27.906.906,0,0,0-.43.824.82.82,0,0,0,.113.426,1.352,1.352,0,0,0,.23.3,1.417,1.417,0,0,0,.422.23q.3.121.453.164t.563.145q.078.023.117.031.453.117.738.207a4.538,4.538,0,0,1,.664.281,2.208,2.208,0,0,1,.6.418,1.936,1.936,0,0,1,.375.594,2.1,2.1,0,0,1,.156.828,2.237,2.237,0,0,1-.23,1.035,1.8,1.8,0,0,1-.629.707,3.042,3.042,0,0,1-.895.387A4.262,4.262,0,0,1,85.594,16.148Zm14.172,0a5.844,5.844,0,0,1-2.164-.395,5.226,5.226,0,0,1-1.738-1.109,4.949,4.949,0,0,1-1.156-1.785,6.456,6.456,0,0,1-.418-2.367,6.35,6.35,0,0,1,.422-2.355A4.939,4.939,0,0,1,97.6,5.242a5.9,5.9,0,0,1,2.164-.391,5.589,5.589,0,0,1,2.926.773,4.819,4.819,0,0,1,1.934,2.148l-1.289.531a3.622,3.622,0,0,0-1.441-1.566,4.137,4.137,0,0,0-2.129-.551,4.374,4.374,0,0,0-1.6.289,3.838,3.838,0,0,0-1.3.828A3.739,3.739,0,0,0,96,8.664a5.044,5.044,0,0,0-.316,1.828A5.075,5.075,0,0,0,96,12.324a3.733,3.733,0,0,0,.871,1.363,3.888,3.888,0,0,0,1.3.832,4.323,4.323,0,0,0,1.6.293,4.137,4.137,0,0,0,2.129-.551,3.631,3.631,0,0,0,1.441-1.559l1.289.523a4.794,4.794,0,0,1-1.93,2.152A5.6,5.6,0,0,1,99.766,16.148Zm10.141,0a4.048,4.048,0,0,1-1.969-.477,3.47,3.47,0,0,1-1.387-1.395,4.283,4.283,0,0,1-.512-2.121,3.912,3.912,0,0,1,1.09-2.895,4.089,4.089,0,0,1,5.559,0,3.92,3.92,0,0,1,1.086,2.895,3.923,3.923,0,0,1-1.09,2.9A3.762,3.762,0,0,1,109.906,16.148Zm-.008-1.125a2.359,2.359,0,0,0,1.816-.789,2.957,2.957,0,0,0,.723-2.078,2.945,2.945,0,0,0-.723-2.07A2.359,2.359,0,0,0,109.9,9.3a2.326,2.326,0,0,0-1.8.789,2.965,2.965,0,0,0-.715,2.07,2.976,2.976,0,0,0,.715,2.078A2.326,2.326,0,0,0,109.9,15.023Zm13.844-6.852a2.476,2.476,0,0,1,1.789.652,2.42,2.42,0,0,1,.68,1.832V16h-1.352V11.008a1.735,1.735,0,0,0-.422-1.266,1.436,1.436,0,0,0-1.07-.43A1.517,1.517,0,0,0,122.2,9.8a2.083,2.083,0,0,0-.445,1.453V16h-1.375V11.063a1.815,1.815,0,0,0-.426-1.309,1.448,1.448,0,0,0-1.09-.441,1.5,1.5,0,0,0-1.168.5,2.155,2.155,0,0,0-.449,1.488V16h-1.352V8.32h1.352v.992a2.333,2.333,0,0,1,.879-.844,2.506,2.506,0,0,1,1.223-.3,2.609,2.609,0,0,1,1.313.324,2.018,2.018,0,0,1,.852.934,2.39,2.39,0,0,1,.922-.934A2.637,2.637,0,0,1,123.742,8.172Zm9.141,0a3.493,3.493,0,0,1,1.391.281,3.421,3.421,0,0,1,1.141.789,3.688,3.688,0,0,1,.77,1.266,4.667,4.667,0,0,1,.285,1.656,4.06,4.06,0,0,1-1.035,2.9,3.362,3.362,0,0,1-2.551,1.1,3.04,3.04,0,0,1-1.605-.437,2.867,2.867,0,0,1-1.1-1.18v5.32h-1.352V8.32h1.3l.031,1.492a2.811,2.811,0,0,1,1.094-1.2A3.068,3.068,0,0,1,132.883,8.172Zm-.266,6.82a2.332,2.332,0,0,0,1.777-.777,2.892,2.892,0,0,0,.723-2.051,2.877,2.877,0,0,0-.723-2.047,2.423,2.423,0,0,0-3.582.035,2.88,2.88,0,0,0-.734,2.012,2.891,2.891,0,0,0,.734,2.02A2.343,2.343,0,0,0,132.617,14.992Zm9.219,1.156a4.048,4.048,0,0,1-1.969-.477,3.47,3.47,0,0,1-1.387-1.395,4.284,4.284,0,0,1-.512-2.121,3.912,3.912,0,0,1,1.09-2.895,4.089,4.089,0,0,1,5.559,0,3.92,3.92,0,0,1,1.086,2.895,3.923,3.923,0,0,1-1.09,2.9A3.762,3.762,0,0,1,141.836,16.148Zm-.008-1.125a2.359,2.359,0,0,0,1.816-.789,2.957,2.957,0,0,0,.723-2.078,2.945,2.945,0,0,0-.723-2.07,2.359,2.359,0,0,0-1.816-.789,2.326,2.326,0,0,0-1.8.789,2.965,2.965,0,0,0-.715,2.07,2.976,2.976,0,0,0,.715,2.078A2.326,2.326,0,0,0,141.828,15.023Zm9.617-6.852a2.671,2.671,0,0,1,1.934.7,2.594,2.594,0,0,1,.723,1.961V16H152.75V11.133a1.816,1.816,0,0,0-.469-1.375,1.676,1.676,0,0,0-1.2-.445,1.858,1.858,0,0,0-1.367.527,2.14,2.14,0,0,0-.539,1.566V16H147.82V8.32h1.352V9.3A2.565,2.565,0,0,1,151.445,8.172Zm11.984,3.836-.016.367h-6a2.714,2.714,0,0,0,.734,1.965,2.411,2.411,0,0,0,1.75.684,2.3,2.3,0,0,0,1.273-.367,2.383,2.383,0,0,0,.875-1.016l1.219.258a3.464,3.464,0,0,1-1.312,1.648,3.581,3.581,0,0,1-2.039.6,3.71,3.71,0,0,1-2.766-1.07,3.982,3.982,0,0,1-1.055-2.922,3.962,3.962,0,0,1,1.059-2.914,3.664,3.664,0,0,1,2.723-1.07,3.467,3.467,0,0,1,2.582.984A3.889,3.889,0,0,1,163.43,12.008Zm-3.555-2.8a2.4,2.4,0,0,0-1.6.543,2.488,2.488,0,0,0-.809,1.582h4.6a2.282,2.282,0,0,0-.672-1.582A2.17,2.17,0,0,0,159.875,9.211Zm9.3-1.039a2.671,2.671,0,0,1,1.934.7,2.594,2.594,0,0,1,.723,1.961V16h-1.352V11.133a1.816,1.816,0,0,0-.469-1.375,1.676,1.676,0,0,0-1.2-.445,1.858,1.858,0,0,0-1.367.527,2.14,2.14,0,0,0-.539,1.566V16h-1.352V8.32H166.9V9.3A2.565,2.565,0,0,1,169.172,8.172ZM176.891,16a2.019,2.019,0,0,1-1.5-.551,2.084,2.084,0,0,1-.547-1.535V9.4h-1.57V8.32h.578a1.11,1.11,0,0,0,.848-.27,1.326,1.326,0,0,0,.246-.9V5.758H176.2V8.32h1.766V9.4H176.2v4.375a1.164,1.164,0,0,0,.293.848,1.026,1.026,0,0,0,.77.3h.7V16Zm9.656-3.992-.016.367h-6a2.714,2.714,0,0,0,.734,1.965,2.411,2.411,0,0,0,1.75.684,2.3,2.3,0,0,0,1.273-.367,2.383,2.383,0,0,0,.875-1.016l1.219.258a3.464,3.464,0,0,1-1.312,1.648,3.581,3.581,0,0,1-2.039.6,3.71,3.71,0,0,1-2.766-1.07,3.982,3.982,0,0,1-1.055-2.922,3.962,3.962,0,0,1,1.059-2.914,3.664,3.664,0,0,1,2.723-1.07,3.467,3.467,0,0,1,2.582.984A3.889,3.889,0,0,1,186.547,12.008Zm-3.555-2.8a2.4,2.4,0,0,0-1.6.543,2.488,2.488,0,0,0-.809,1.582h4.6a2.282,2.282,0,0,0-.672-1.582A2.17,2.17,0,0,0,182.992,9.211Zm8.1,6.938a3.641,3.641,0,0,1-2.07-.555,2.294,2.294,0,0,1-1.008-1.578l1.18-.336a1.645,1.645,0,0,0,.629,1.066,2.04,2.04,0,0,0,1.262.379,2.518,2.518,0,0,0,.738-.1,1.183,1.183,0,0,0,.566-.379,1.057,1.057,0,0,0,.164-1.016,1.356,1.356,0,0,0-.125-.254.774.774,0,0,0-.219-.211,2.884,2.884,0,0,0-.266-.164,2.727,2.727,0,0,0-.348-.145q-.23-.082-.371-.125t-.43-.125q-.289-.082-.445-.129a8.329,8.329,0,0,1-.8-.281,3.5,3.5,0,0,1-.648-.371,1.493,1.493,0,0,1-.5-.605,2.048,2.048,0,0,1-.168-.859,1.986,1.986,0,0,1,.375-1.227,2.11,2.11,0,0,1,.973-.723,3.888,3.888,0,0,1,1.363-.223,3.337,3.337,0,0,1,1.871.5,2.134,2.134,0,0,1,.934,1.5l-1.109.281a1.471,1.471,0,0,0-.586-.973,1.866,1.866,0,0,0-1.1-.324,1.9,1.9,0,0,0-1.031.27.906.906,0,0,0-.43.824.82.82,0,0,0,.113.426,1.352,1.352,0,0,0,.23.3,1.417,1.417,0,0,0,.422.23q.3.121.453.164t.563.145q.078.023.117.031.453.117.738.207a4.538,4.538,0,0,1,.664.281,2.208,2.208,0,0,1,.6.418,1.937,1.937,0,0,1,.375.594,2.1,2.1,0,0,1,.156.828,2.237,2.237,0,0,1-.23,1.035,1.8,1.8,0,0,1-.629.707,3.042,3.042,0,0,1-.895.387A4.262,4.262,0,0,1,191.094,16.148Zm8.875-3.367V10.9h5.6v1.883ZM216.758,5a3.257,3.257,0,0,1,1.723.457,3.087,3.087,0,0,1,1.156,1.223,3.588,3.588,0,0,1,.4,1.7,3.338,3.338,0,0,1-.91,2.395,3.123,3.123,0,0,1-2.371.957h-2.766V16h-1.4V5Zm-.2,5.508a2,2,0,0,0,1.531-.59,2.182,2.182,0,0,0,.555-1.559,2.189,2.189,0,0,0-.555-1.551,1.986,1.986,0,0,0-1.531-.6h-2.562v4.3Zm6.906-.836a2.322,2.322,0,0,1,.953-1.031,2.87,2.87,0,0,1,1.477-.406V9.508a2.53,2.53,0,0,0-1.785.57,2.382,2.382,0,0,0-.613,1.82V16h-1.352V8.32h1.32Zm7.156,6.477a4.048,4.048,0,0,1-1.969-.477,3.47,3.47,0,0,1-1.387-1.395,4.284,4.284,0,0,1-.512-2.121,3.912,3.912,0,0,1,1.09-2.895,4.089,4.089,0,0,1,5.559,0,3.92,3.92,0,0,1,1.086,2.895,3.923,3.923,0,0,1-1.09,2.9A3.762,3.762,0,0,1,230.617,16.148Zm-.008-1.125a2.359,2.359,0,0,0,1.816-.789,2.957,2.957,0,0,0,.723-2.078,2.945,2.945,0,0,0-.723-2.07,2.359,2.359,0,0,0-1.816-.789,2.326,2.326,0,0,0-1.8.789,2.965,2.965,0,0,0-.715,2.07,2.976,2.976,0,0,0,.715,2.078A2.326,2.326,0,0,0,230.609,15.023Zm10.047-6.852a3.493,3.493,0,0,1,1.391.281,3.421,3.421,0,0,1,1.141.789,3.688,3.688,0,0,1,.77,1.266,4.667,4.667,0,0,1,.285,1.656,4.06,4.06,0,0,1-1.035,2.9,3.362,3.362,0,0,1-2.551,1.1,3.04,3.04,0,0,1-1.605-.437,2.867,2.867,0,0,1-1.1-1.18v5.32H236.6V8.32h1.3l.031,1.492a2.811,2.811,0,0,1,1.094-1.2A3.068,3.068,0,0,1,240.656,8.172Zm-.266,6.82a2.332,2.332,0,0,0,1.777-.777,2.892,2.892,0,0,0,.723-2.051,2.877,2.877,0,0,0-.723-2.047,2.423,2.423,0,0,0-3.582.035,2.88,2.88,0,0,0-.734,2.012,2.891,2.891,0,0,0,.734,2.02A2.343,2.343,0,0,0,240.391,14.992ZM249.094,7l1.961-2.547.719.523L250.023,7Zm.516,9.148a4.048,4.048,0,0,1-1.969-.477,3.47,3.47,0,0,1-1.387-1.395,4.284,4.284,0,0,1-.512-2.121,3.912,3.912,0,0,1,1.09-2.895,4.089,4.089,0,0,1,5.559,0,3.92,3.92,0,0,1,1.086,2.895,3.923,3.923,0,0,1-1.09,2.9A3.762,3.762,0,0,1,249.609,16.148Zm-.008-1.125a2.359,2.359,0,0,0,1.816-.789,2.957,2.957,0,0,0,.723-2.078,2.945,2.945,0,0,0-.723-2.07A2.359,2.359,0,0,0,249.6,9.3a2.326,2.326,0,0,0-1.8.789,2.965,2.965,0,0,0-.715,2.07,2.976,2.976,0,0,0,.715,2.078A2.326,2.326,0,0,0,249.6,15.023Zm8.422,1.125a3.641,3.641,0,0,1-2.07-.555,2.294,2.294,0,0,1-1.008-1.578l1.18-.336a1.645,1.645,0,0,0,.629,1.066,2.04,2.04,0,0,0,1.262.379,2.518,2.518,0,0,0,.738-.1,1.184,1.184,0,0,0,.566-.379,1.057,1.057,0,0,0,.164-1.016,1.357,1.357,0,0,0-.125-.254.773.773,0,0,0-.219-.211,2.886,2.886,0,0,0-.266-.164,2.726,2.726,0,0,0-.348-.145q-.23-.082-.371-.125t-.43-.125q-.289-.082-.445-.129a8.332,8.332,0,0,1-.8-.281,3.5,3.5,0,0,1-.648-.371,1.493,1.493,0,0,1-.5-.605,2.048,2.048,0,0,1-.168-.859,1.986,1.986,0,0,1,.375-1.227,2.11,2.11,0,0,1,.973-.723,3.888,3.888,0,0,1,1.363-.223,3.337,3.337,0,0,1,1.871.5,2.134,2.134,0,0,1,.934,1.5l-1.109.281a1.471,1.471,0,0,0-.586-.973,1.865,1.865,0,0,0-1.1-.324,1.9,1.9,0,0,0-1.031.27.906.906,0,0,0-.43.824.82.82,0,0,0,.113.426,1.352,1.352,0,0,0,.23.3,1.417,1.417,0,0,0,.422.23q.3.121.453.164t.563.145q.078.023.117.031.453.117.738.207a4.538,4.538,0,0,1,.664.281,2.208,2.208,0,0,1,.6.418,1.936,1.936,0,0,1,.375.594,2.1,2.1,0,0,1,.156.828,2.236,2.236,0,0,1-.23,1.035,1.8,1.8,0,0,1-.629.707,3.042,3.042,0,0,1-.895.387A4.262,4.262,0,0,1,258.023,16.148Zm5.641-9.633a.92.92,0,0,1-.914-.914.867.867,0,0,1,.27-.641.886.886,0,0,1,.645-.266.877.877,0,0,1,.637.266.867.867,0,0,1,.27.641.88.88,0,0,1-.27.645A.871.871,0,0,1,263.664,6.516ZM262.977,16V8.32h1.359V16Zm6.563,0a2.019,2.019,0,0,1-1.5-.551,2.084,2.084,0,0,1-.547-1.535V9.4h-1.57V8.32h.578a1.11,1.11,0,0,0,.848-.27,1.326,1.326,0,0,0,.246-.9V5.758h1.258V8.32h1.766V9.4h-1.766v4.375a1.164,1.164,0,0,0,.293.848,1.026,1.026,0,0,0,.77.3h.7V16Zm6.172.148a4.048,4.048,0,0,1-1.969-.477,3.47,3.47,0,0,1-1.387-1.395,4.283,4.283,0,0,1-.512-2.121,3.912,3.912,0,0,1,1.09-2.895,4.089,4.089,0,0,1,5.559,0,3.92,3.92,0,0,1,1.086,2.895,3.923,3.923,0,0,1-1.09,2.9A3.762,3.762,0,0,1,275.711,16.148Zm-.008-1.125a2.359,2.359,0,0,0,1.816-.789,2.957,2.957,0,0,0,.723-2.078,2.945,2.945,0,0,0-.723-2.07A2.359,2.359,0,0,0,275.7,9.3a2.326,2.326,0,0,0-1.8.789,2.965,2.965,0,0,0-.715,2.07,2.976,2.976,0,0,0,.715,2.078A2.326,2.326,0,0,0,275.7,15.023Z" transform="translate(6409.167 1206.5)" fill="#00223d"/>
    <path id="Trazado_26994" data-name="Trazado 26994" d="M3.82,14.4V11.383H.8V9.672H3.82V6.664h1.7V9.672H8.531v1.711H5.523V14.4Zm14.8,1.75a5.021,5.021,0,0,1-2.871-.777,3.291,3.291,0,0,1-1.434-2.137l1.414-.336a2.319,2.319,0,0,0,.992,1.5,3.355,3.355,0,0,0,1.945.547,4.058,4.058,0,0,0,.727-.062,2.779,2.779,0,0,0,.66-.207,2.021,2.021,0,0,0,.543-.355,1.484,1.484,0,0,0,.359-.539,1.845,1.845,0,0,0,.125-.734,1.588,1.588,0,0,0-.1-.52,1.649,1.649,0,0,0-.219-.41,1.473,1.473,0,0,0-.371-.332,4.973,4.973,0,0,0-.445-.266,4.025,4.025,0,0,0-.551-.223q-.348-.117-.582-.184l-.633-.176q-.078-.023-.117-.031-.453-.117-.738-.2t-.684-.238a4.5,4.5,0,0,1-.652-.3,4.416,4.416,0,0,1-.535-.375,1.921,1.921,0,0,1-.441-.488,2.577,2.577,0,0,1-.266-.621,2.764,2.764,0,0,1-.105-.781,2.79,2.79,0,0,1,.512-1.687,2.994,2.994,0,0,1,1.32-1.031,4.793,4.793,0,0,1,1.816-.328,4.973,4.973,0,0,1,2.645.676,3.011,3.011,0,0,1,1.4,2l-1.359.344a2.069,2.069,0,0,0-.914-1.352,3.132,3.132,0,0,0-1.719-.453,3.4,3.4,0,0,0-.844.1,2.507,2.507,0,0,0-.73.313,1.517,1.517,0,0,0-.527.574,1.746,1.746,0,0,0-.2.84,1.35,1.35,0,0,0,.078.465,1.427,1.427,0,0,0,.2.371,1.391,1.391,0,0,0,.336.3,3.412,3.412,0,0,0,.41.242,4.157,4.157,0,0,0,.512.2q.32.105.547.172t.6.16a12.727,12.727,0,0,1,2.117.7,2.679,2.679,0,0,1,1.633,2.023,3.488,3.488,0,0,1,.031.477,3.074,3.074,0,0,1-.316,1.422,2.565,2.565,0,0,1-.867.984,4.146,4.146,0,0,1-1.234.551A5.661,5.661,0,0,1,18.617,16.148ZM29.578,8.32H30.93V16h-1.3L29.6,14.984a2.4,2.4,0,0,1-.953.863,2.932,2.932,0,0,1-1.344.3,2.671,2.671,0,0,1-1.934-.7,2.594,2.594,0,0,1-.723-1.961V8.32H26v4.867a1.822,1.822,0,0,0,.473,1.375,1.673,1.673,0,0,0,1.207.453,1.837,1.837,0,0,0,1.363-.531,2.164,2.164,0,0,0,.535-1.57Zm8.156-.148a3.493,3.493,0,0,1,1.391.281,3.421,3.421,0,0,1,1.141.789,3.688,3.688,0,0,1,.77,1.266,4.667,4.667,0,0,1,.285,1.656,4.061,4.061,0,0,1-1.035,2.9,3.362,3.362,0,0,1-2.551,1.1,3.04,3.04,0,0,1-1.605-.437,2.867,2.867,0,0,1-1.1-1.18v5.32H33.68V8.32h1.3l.031,1.492a2.811,2.811,0,0,1,1.094-1.2A3.068,3.068,0,0,1,37.734,8.172Zm-.266,6.82a2.332,2.332,0,0,0,1.777-.777,2.892,2.892,0,0,0,.723-2.051,2.877,2.877,0,0,0-.723-2.047,2.423,2.423,0,0,0-3.582.035,2.88,2.88,0,0,0-.734,2.012,2.891,2.891,0,0,0,.734,2.02A2.343,2.343,0,0,0,37.469,14.992ZM48.234,8.32h1.352V16h-1.3l-.031-1.016a2.4,2.4,0,0,1-.953.863,2.932,2.932,0,0,1-1.344.3,2.671,2.671,0,0,1-1.934-.7,2.594,2.594,0,0,1-.723-1.961V8.32h1.352v4.867a1.822,1.822,0,0,0,.473,1.375,1.673,1.673,0,0,0,1.207.453,1.837,1.837,0,0,0,1.363-.531,2.164,2.164,0,0,0,.535-1.57Zm10.82,3.688-.016.367h-6a2.714,2.714,0,0,0,.734,1.965,2.411,2.411,0,0,0,1.75.684,2.3,2.3,0,0,0,1.273-.367,2.383,2.383,0,0,0,.875-1.016l1.219.258a3.464,3.464,0,0,1-1.312,1.648,3.581,3.581,0,0,1-2.039.6,3.71,3.71,0,0,1-2.766-1.07,3.982,3.982,0,0,1-1.055-2.922,3.962,3.962,0,0,1,1.059-2.914A3.664,3.664,0,0,1,55.5,8.172a3.467,3.467,0,0,1,2.582.984A3.889,3.889,0,0,1,59.055,12.008ZM55.5,9.211a2.4,2.4,0,0,0-1.6.543,2.488,2.488,0,0,0-.809,1.582h4.6a2.282,2.282,0,0,0-.672-1.582A2.17,2.17,0,0,0,55.5,9.211Zm8.1,6.938a3.641,3.641,0,0,1-2.07-.555,2.294,2.294,0,0,1-1.008-1.578l1.18-.336a1.645,1.645,0,0,0,.629,1.066,2.04,2.04,0,0,0,1.262.379,2.518,2.518,0,0,0,.738-.1,1.184,1.184,0,0,0,.566-.379,1.057,1.057,0,0,0,.164-1.016,1.357,1.357,0,0,0-.125-.254.774.774,0,0,0-.219-.211A2.885,2.885,0,0,0,64.453,13a2.726,2.726,0,0,0-.348-.145q-.23-.082-.371-.125t-.43-.125q-.289-.082-.445-.129a8.33,8.33,0,0,1-.8-.281,3.5,3.5,0,0,1-.648-.371,1.493,1.493,0,0,1-.5-.605,2.049,2.049,0,0,1-.168-.859,1.986,1.986,0,0,1,.375-1.227,2.11,2.11,0,0,1,.973-.723,3.888,3.888,0,0,1,1.363-.223,3.337,3.337,0,0,1,1.871.5,2.134,2.134,0,0,1,.934,1.5l-1.109.281a1.471,1.471,0,0,0-.586-.973,1.865,1.865,0,0,0-1.1-.324,1.9,1.9,0,0,0-1.031.27.906.906,0,0,0-.43.824.82.82,0,0,0,.113.426,1.352,1.352,0,0,0,.23.3,1.417,1.417,0,0,0,.422.23q.3.121.453.164t.563.145q.078.023.117.031.453.117.738.207a4.538,4.538,0,0,1,.664.281,2.208,2.208,0,0,1,.6.418,1.936,1.936,0,0,1,.375.594,2.1,2.1,0,0,1,.156.828,2.237,2.237,0,0,1-.23,1.035,1.8,1.8,0,0,1-.629.707,3.042,3.042,0,0,1-.895.387A4.262,4.262,0,0,1,63.6,16.148ZM71.008,16a2.019,2.019,0,0,1-1.5-.551,2.084,2.084,0,0,1-.547-1.535V9.4h-1.57V8.32h.578a1.11,1.11,0,0,0,.848-.27,1.326,1.326,0,0,0,.246-.9V5.758H70.32V8.32h1.766V9.4H70.32v4.375a1.164,1.164,0,0,0,.293.848,1.026,1.026,0,0,0,.77.3h.7V16Zm6.172.148a4.048,4.048,0,0,1-1.969-.477,3.47,3.47,0,0,1-1.387-1.395,4.283,4.283,0,0,1-.512-2.121A3.912,3.912,0,0,1,74.4,9.262a4.089,4.089,0,0,1,5.559,0,3.92,3.92,0,0,1,1.086,2.895,3.923,3.923,0,0,1-1.09,2.9A3.762,3.762,0,0,1,77.18,16.148Zm-.008-1.125a2.359,2.359,0,0,0,1.816-.789,2.957,2.957,0,0,0,.723-2.078,2.945,2.945,0,0,0-.723-2.07A2.359,2.359,0,0,0,77.172,9.3a2.326,2.326,0,0,0-1.8.789,2.965,2.965,0,0,0-.715,2.07,2.976,2.976,0,0,0,.715,2.078A2.326,2.326,0,0,0,77.172,15.023Zm8.422,1.125a3.641,3.641,0,0,1-2.07-.555,2.294,2.294,0,0,1-1.008-1.578l1.18-.336a1.645,1.645,0,0,0,.629,1.066,2.04,2.04,0,0,0,1.262.379,2.518,2.518,0,0,0,.738-.1,1.184,1.184,0,0,0,.566-.379,1.057,1.057,0,0,0,.164-1.016,1.357,1.357,0,0,0-.125-.254.774.774,0,0,0-.219-.211A2.885,2.885,0,0,0,86.445,13a2.726,2.726,0,0,0-.348-.145q-.23-.082-.371-.125t-.43-.125q-.289-.082-.445-.129a8.331,8.331,0,0,1-.8-.281,3.5,3.5,0,0,1-.648-.371,1.493,1.493,0,0,1-.5-.605,2.049,2.049,0,0,1-.168-.859,1.986,1.986,0,0,1,.375-1.227,2.11,2.11,0,0,1,.973-.723,3.888,3.888,0,0,1,1.363-.223,3.337,3.337,0,0,1,1.871.5,2.134,2.134,0,0,1,.934,1.5l-1.109.281a1.471,1.471,0,0,0-.586-.973,1.865,1.865,0,0,0-1.1-.324,1.9,1.9,0,0,0-1.031.27.906.906,0,0,0-.43.824.82.82,0,0,0,.113.426,1.352,1.352,0,0,0,.23.3,1.417,1.417,0,0,0,.422.23q.3.121.453.164t.563.145q.078.023.117.031.453.117.738.207a4.538,4.538,0,0,1,.664.281,2.208,2.208,0,0,1,.6.418,1.936,1.936,0,0,1,.375.594,2.1,2.1,0,0,1,.156.828,2.237,2.237,0,0,1-.23,1.035,1.8,1.8,0,0,1-.629.707,3.042,3.042,0,0,1-.895.387A4.262,4.262,0,0,1,85.594,16.148ZM102.117,16l-.945-2.633H96.2L95.258,16H93.8L97.852,5h1.672l4.055,11Zm-5.477-3.867h4.094L98.688,6.406ZM108.5,16.141a3.7,3.7,0,0,1-2.75-1.1,3.929,3.929,0,0,1-1.086-2.883,3.937,3.937,0,0,1,1.082-2.883,4,4,0,0,1,4.977-.43,3.391,3.391,0,0,1,1.293,1.867l-1.266.2a2.337,2.337,0,0,0-.867-1.2,2.361,2.361,0,0,0-1.391-.422,2.27,2.27,0,0,0-1.777.789,3.006,3.006,0,0,0-.7,2.07,2.991,2.991,0,0,0,.7,2.066,2.275,2.275,0,0,0,1.777.785,2.361,2.361,0,0,0,1.391-.422,2.337,2.337,0,0,0,.867-1.2l1.266.211a3.4,3.4,0,0,1-1.3,1.863A3.72,3.72,0,0,1,108.5,16.141ZM116.461,16a2.019,2.019,0,0,1-1.5-.551,2.084,2.084,0,0,1-.547-1.535V9.4h-1.57V8.32h.578a1.11,1.11,0,0,0,.848-.27,1.326,1.326,0,0,0,.246-.9V5.758h1.258V8.32h1.766V9.4h-1.766v4.375a1.164,1.164,0,0,0,.293.848,1.026,1.026,0,0,0,.77.3h.7V16Zm3.719-9.484a.92.92,0,0,1-.914-.914.867.867,0,0,1,.27-.641.886.886,0,0,1,.645-.266.877.877,0,0,1,.637.266.867.867,0,0,1,.27.641.88.88,0,0,1-.27.645A.871.871,0,0,1,120.18,6.516ZM119.492,16V8.32h1.359V16Zm8.9-7.68h1.445L126.711,16h-1.148l-3.109-7.68h1.438l2.25,6.109Zm3.734-1.8a.92.92,0,0,1-.914-.914.867.867,0,0,1,.27-.641.886.886,0,0,1,.645-.266.877.877,0,0,1,.637.266.867.867,0,0,1,.27.641.88.88,0,0,1-.27.645A.871.871,0,0,1,132.125,6.516ZM131.438,16V8.32H132.8V16Zm9.781-12h1.352V16h-1.3l-.031-1.492a2.826,2.826,0,0,1-1.094,1.211,3.048,3.048,0,0,1-1.625.445,3.49,3.49,0,0,1-2.535-1.082,3.7,3.7,0,0,1-.773-1.27,4.644,4.644,0,0,1-.285-1.648,4.038,4.038,0,0,1,1.043-2.883,3.367,3.367,0,0,1,2.551-1.109,3.061,3.061,0,0,1,1.605.434,2.842,2.842,0,0,1,1.1,1.176ZM138.8,14.992a2.3,2.3,0,0,0,1.785-.809,2.919,2.919,0,0,0,.723-2.02,2.913,2.913,0,0,0-.727-2.016,2.3,2.3,0,0,0-1.781-.812,2.35,2.35,0,0,0-1.8.785,2.889,2.889,0,0,0-.727,2.043A2.889,2.889,0,0,0,137,14.207,2.35,2.35,0,0,0,138.8,14.992Zm8.3,1.156a2.613,2.613,0,0,1-1.684-.527,1.894,1.894,0,0,1-.66-1.574,2.237,2.237,0,0,1,.211-1,1.77,1.77,0,0,1,.625-.7,3.749,3.749,0,0,1,.9-.434,8.341,8.341,0,0,1,1.168-.277l1.242-.2q.68-.125.68-.711a1.342,1.342,0,0,0-.48-1.145,1.958,1.958,0,0,0-1.215-.363,1.994,1.994,0,0,0-1.2.352,1.471,1.471,0,0,0-.57,1.078l-1.219-.258a2.346,2.346,0,0,1,.961-1.645,3.59,3.59,0,0,1,2.094-.551,4.247,4.247,0,0,1,1.113.137,3.026,3.026,0,0,1,.93.43,1.927,1.927,0,0,1,.664.828,3.081,3.081,0,0,1,.238,1.262v3.172a1.3,1.3,0,0,0,.176.8.759.759,0,0,0,.605.207h.125V16h-.672a1.281,1.281,0,0,1-1.453-1.039h-.062A2.935,2.935,0,0,1,147.094,16.148Zm.313-1.094a2.049,2.049,0,0,0,1.648-.742,3.056,3.056,0,0,0,.625-2.031l-2.031.391a2.734,2.734,0,0,0-1.191.426.99.99,0,0,0-.387.84.979.979,0,0,0,.371.844A1.586,1.586,0,0,0,147.406,15.055ZM159.219,4h1.352V16h-1.3l-.031-1.492a2.826,2.826,0,0,1-1.094,1.211,3.048,3.048,0,0,1-1.625.445,3.49,3.49,0,0,1-2.535-1.082,3.7,3.7,0,0,1-.773-1.27,4.644,4.644,0,0,1-.285-1.648,4.038,4.038,0,0,1,1.043-2.883,3.367,3.367,0,0,1,2.551-1.109,3.061,3.061,0,0,1,1.605.434,2.842,2.842,0,0,1,1.1,1.176ZM156.8,14.992a2.3,2.3,0,0,0,1.785-.809,2.919,2.919,0,0,0,.723-2.02,2.913,2.913,0,0,0-.727-2.016,2.3,2.3,0,0,0-1.781-.812,2.35,2.35,0,0,0-1.8.785,2.889,2.889,0,0,0-.727,2.043A2.889,2.889,0,0,0,155,14.207,2.35,2.35,0,0,0,156.8,14.992Zm13.242-2.984-.016.367h-6a2.714,2.714,0,0,0,.734,1.965,2.411,2.411,0,0,0,1.75.684,2.3,2.3,0,0,0,1.273-.367,2.383,2.383,0,0,0,.875-1.016l1.219.258a3.464,3.464,0,0,1-1.312,1.648,3.581,3.581,0,0,1-2.039.6,3.71,3.71,0,0,1-2.766-1.07,3.982,3.982,0,0,1-1.055-2.922,3.962,3.962,0,0,1,1.059-2.914,3.664,3.664,0,0,1,2.723-1.07,3.467,3.467,0,0,1,2.582.984A3.889,3.889,0,0,1,170.039,12.008Zm-3.555-2.8a2.4,2.4,0,0,0-1.6.543,2.488,2.488,0,0,0-.809,1.582h4.6a2.282,2.282,0,0,0-.672-1.582A2.17,2.17,0,0,0,166.484,9.211Zm8.1,6.938a3.641,3.641,0,0,1-2.07-.555,2.294,2.294,0,0,1-1.008-1.578l1.18-.336a1.645,1.645,0,0,0,.629,1.066,2.04,2.04,0,0,0,1.262.379,2.518,2.518,0,0,0,.738-.1,1.183,1.183,0,0,0,.566-.379,1.057,1.057,0,0,0,.164-1.016,1.356,1.356,0,0,0-.125-.254.774.774,0,0,0-.219-.211,2.884,2.884,0,0,0-.266-.164,2.727,2.727,0,0,0-.348-.145q-.23-.082-.371-.125t-.43-.125q-.289-.082-.445-.129a8.329,8.329,0,0,1-.8-.281,3.5,3.5,0,0,1-.648-.371,1.493,1.493,0,0,1-.5-.605,2.048,2.048,0,0,1-.168-.859,1.986,1.986,0,0,1,.375-1.227,2.11,2.11,0,0,1,.973-.723,3.888,3.888,0,0,1,1.363-.223,3.337,3.337,0,0,1,1.871.5,2.134,2.134,0,0,1,.934,1.5l-1.109.281a1.471,1.471,0,0,0-.586-.973,1.866,1.866,0,0,0-1.1-.324,1.9,1.9,0,0,0-1.031.27.906.906,0,0,0-.43.824.82.82,0,0,0,.113.426,1.352,1.352,0,0,0,.23.3,1.417,1.417,0,0,0,.422.23q.3.121.453.164t.563.145q.078.023.117.031.453.117.738.207a4.538,4.538,0,0,1,.664.281,2.208,2.208,0,0,1,.6.418,1.937,1.937,0,0,1,.375.594,2.1,2.1,0,0,1,.156.828,2.237,2.237,0,0,1-.23,1.035,1.8,1.8,0,0,1-.629.707,3.042,3.042,0,0,1-.895.387A4.262,4.262,0,0,1,174.586,16.148Zm8.875-3.367V10.9h5.6v1.883ZM200.8,16.148a5.844,5.844,0,0,1-2.164-.395,5.226,5.226,0,0,1-1.738-1.109,4.948,4.948,0,0,1-1.156-1.785,6.456,6.456,0,0,1-.418-2.367,6.35,6.35,0,0,1,.422-2.355,4.939,4.939,0,0,1,2.891-2.895,5.9,5.9,0,0,1,2.164-.391,5.589,5.589,0,0,1,2.926.773,4.819,4.819,0,0,1,1.934,2.148l-1.289.531a3.622,3.622,0,0,0-1.441-1.566,4.137,4.137,0,0,0-2.129-.551,4.374,4.374,0,0,0-1.6.289,3.838,3.838,0,0,0-1.3.828,3.739,3.739,0,0,0-.871,1.359,5.044,5.044,0,0,0-.316,1.828,5.075,5.075,0,0,0,.316,1.832,3.733,3.733,0,0,0,.871,1.363,3.888,3.888,0,0,0,1.3.832,4.323,4.323,0,0,0,1.6.293,4.137,4.137,0,0,0,2.129-.551,3.631,3.631,0,0,0,1.441-1.559l1.289.523a4.794,4.794,0,0,1-1.93,2.152A5.6,5.6,0,0,1,200.8,16.148Zm10.141,0a4.048,4.048,0,0,1-1.969-.477,3.47,3.47,0,0,1-1.387-1.395,4.284,4.284,0,0,1-.512-2.121,3.912,3.912,0,0,1,1.09-2.895,4.089,4.089,0,0,1,5.559,0,3.92,3.92,0,0,1,1.086,2.895,3.923,3.923,0,0,1-1.09,2.9A3.762,3.762,0,0,1,210.938,16.148Zm-.008-1.125a2.359,2.359,0,0,0,1.816-.789,2.957,2.957,0,0,0,.723-2.078,2.945,2.945,0,0,0-.723-2.07A2.359,2.359,0,0,0,210.93,9.3a2.326,2.326,0,0,0-1.8.789,2.965,2.965,0,0,0-.715,2.07,2.976,2.976,0,0,0,.715,2.078A2.326,2.326,0,0,0,210.93,15.023Zm13.844-6.852a2.476,2.476,0,0,1,1.789.652,2.42,2.42,0,0,1,.68,1.832V16h-1.352V11.008a1.735,1.735,0,0,0-.422-1.266,1.436,1.436,0,0,0-1.07-.43,1.517,1.517,0,0,0-1.172.484,2.083,2.083,0,0,0-.445,1.453V16h-1.375V11.063a1.815,1.815,0,0,0-.426-1.309,1.448,1.448,0,0,0-1.09-.441,1.5,1.5,0,0,0-1.168.5,2.155,2.155,0,0,0-.449,1.488V16h-1.352V8.32h1.352v.992a2.333,2.333,0,0,1,.879-.844,2.506,2.506,0,0,1,1.223-.3,2.609,2.609,0,0,1,1.313.324,2.018,2.018,0,0,1,.852.934,2.39,2.39,0,0,1,.922-.934A2.637,2.637,0,0,1,224.773,8.172Zm9.141,0a3.493,3.493,0,0,1,1.391.281,3.421,3.421,0,0,1,1.141.789,3.688,3.688,0,0,1,.77,1.266,4.667,4.667,0,0,1,.285,1.656,4.06,4.06,0,0,1-1.035,2.9,3.362,3.362,0,0,1-2.551,1.1,3.04,3.04,0,0,1-1.605-.437,2.867,2.867,0,0,1-1.1-1.18v5.32h-1.352V8.32h1.3l.031,1.492a2.811,2.811,0,0,1,1.094-1.2A3.068,3.068,0,0,1,233.914,8.172Zm-.266,6.82a2.332,2.332,0,0,0,1.777-.777,2.892,2.892,0,0,0,.723-2.051,2.877,2.877,0,0,0-.723-2.047,2.423,2.423,0,0,0-3.582.035,2.88,2.88,0,0,0-.734,2.012,2.891,2.891,0,0,0,.734,2.02A2.343,2.343,0,0,0,233.648,14.992Zm9.219,1.156a4.048,4.048,0,0,1-1.969-.477,3.47,3.47,0,0,1-1.387-1.395A4.284,4.284,0,0,1,239,12.156a3.912,3.912,0,0,1,1.09-2.895,4.089,4.089,0,0,1,5.559,0,3.92,3.92,0,0,1,1.086,2.895,3.923,3.923,0,0,1-1.09,2.9A3.762,3.762,0,0,1,242.867,16.148Zm-.008-1.125a2.359,2.359,0,0,0,1.816-.789,2.957,2.957,0,0,0,.723-2.078,2.945,2.945,0,0,0-.723-2.07,2.359,2.359,0,0,0-1.816-.789,2.326,2.326,0,0,0-1.8.789,2.965,2.965,0,0,0-.715,2.07,2.976,2.976,0,0,0,.715,2.078A2.326,2.326,0,0,0,242.859,15.023Zm9.617-6.852a2.671,2.671,0,0,1,1.934.7,2.594,2.594,0,0,1,.723,1.961V16h-1.352V11.133a1.816,1.816,0,0,0-.469-1.375,1.676,1.676,0,0,0-1.2-.445,1.858,1.858,0,0,0-1.367.527,2.14,2.14,0,0,0-.539,1.566V16h-1.352V8.32H250.2V9.3A2.565,2.565,0,0,1,252.477,8.172Zm11.984,3.836-.016.367h-6a2.714,2.714,0,0,0,.734,1.965,2.411,2.411,0,0,0,1.75.684,2.3,2.3,0,0,0,1.273-.367,2.383,2.383,0,0,0,.875-1.016l1.219.258a3.464,3.464,0,0,1-1.312,1.648,3.581,3.581,0,0,1-2.039.6,3.71,3.71,0,0,1-2.766-1.07,3.982,3.982,0,0,1-1.055-2.922,3.963,3.963,0,0,1,1.059-2.914,3.664,3.664,0,0,1,2.723-1.07,3.467,3.467,0,0,1,2.582.984A3.889,3.889,0,0,1,264.461,12.008Zm-3.555-2.8a2.4,2.4,0,0,0-1.6.543,2.488,2.488,0,0,0-.809,1.582h4.6a2.282,2.282,0,0,0-.672-1.582A2.17,2.17,0,0,0,260.906,9.211Zm9.3-1.039a2.671,2.671,0,0,1,1.934.7,2.594,2.594,0,0,1,.723,1.961V16h-1.352V11.133a1.816,1.816,0,0,0-.469-1.375,1.676,1.676,0,0,0-1.2-.445,1.858,1.858,0,0,0-1.367.527,2.14,2.14,0,0,0-.539,1.566V16h-1.352V8.32h1.352V9.3A2.565,2.565,0,0,1,270.2,8.172ZM277.922,16a2.019,2.019,0,0,1-1.5-.551,2.084,2.084,0,0,1-.547-1.535V9.4H274.3V8.32h.578a1.11,1.11,0,0,0,.848-.27,1.326,1.326,0,0,0,.246-.9V5.758h1.258V8.32H279V9.4h-1.766v4.375a1.164,1.164,0,0,0,.293.848,1.026,1.026,0,0,0,.77.3h.7V16Zm9.656-3.992-.016.367h-6a2.714,2.714,0,0,0,.734,1.965,2.411,2.411,0,0,0,1.75.684,2.3,2.3,0,0,0,1.273-.367,2.383,2.383,0,0,0,.875-1.016l1.219.258a3.464,3.464,0,0,1-1.312,1.648,3.581,3.581,0,0,1-2.039.6,3.71,3.71,0,0,1-2.766-1.07,3.982,3.982,0,0,1-1.055-2.922A3.963,3.963,0,0,1,281.3,9.242a3.664,3.664,0,0,1,2.723-1.07,3.467,3.467,0,0,1,2.582.984A3.889,3.889,0,0,1,287.578,12.008Zm-3.555-2.8a2.4,2.4,0,0,0-1.6.543,2.488,2.488,0,0,0-.809,1.582h4.6a2.282,2.282,0,0,0-.672-1.582A2.17,2.17,0,0,0,284.023,9.211Zm8.1,6.938a3.641,3.641,0,0,1-2.07-.555,2.294,2.294,0,0,1-1.008-1.578l1.18-.336a1.645,1.645,0,0,0,.629,1.066,2.04,2.04,0,0,0,1.262.379,2.518,2.518,0,0,0,.738-.1,1.184,1.184,0,0,0,.566-.379,1.057,1.057,0,0,0,.164-1.016,1.357,1.357,0,0,0-.125-.254.773.773,0,0,0-.219-.211,2.886,2.886,0,0,0-.266-.164,2.726,2.726,0,0,0-.348-.145q-.23-.082-.371-.125t-.43-.125q-.289-.082-.445-.129a8.332,8.332,0,0,1-.8-.281,3.5,3.5,0,0,1-.648-.371,1.493,1.493,0,0,1-.5-.605,2.049,2.049,0,0,1-.168-.859,1.986,1.986,0,0,1,.375-1.227,2.11,2.11,0,0,1,.973-.723,3.888,3.888,0,0,1,1.363-.223,3.337,3.337,0,0,1,1.871.5,2.134,2.134,0,0,1,.934,1.5l-1.109.281a1.471,1.471,0,0,0-.586-.973,1.865,1.865,0,0,0-1.1-.324,1.9,1.9,0,0,0-1.031.27.906.906,0,0,0-.43.824.82.82,0,0,0,.113.426,1.352,1.352,0,0,0,.23.3,1.417,1.417,0,0,0,.422.23q.3.121.453.164t.563.145q.078.023.117.031.453.117.738.207a4.538,4.538,0,0,1,.664.281,2.208,2.208,0,0,1,.6.418,1.936,1.936,0,0,1,.375.594,2.1,2.1,0,0,1,.156.828,2.236,2.236,0,0,1-.23,1.035,1.8,1.8,0,0,1-.629.707,3.042,3.042,0,0,1-.895.387A4.262,4.262,0,0,1,292.125,16.148Z" transform="translate(6408.167 1297.5)" fill="#00223d"/>
    <path id="Trazado_26819" data-name="Trazado 26819" d="M1030.833-404.012h-81.2l1.148-2.7-8.778,3.7,8.778,3.7-1.148-2.7h81.2Z" transform="translate(7318 904.987) rotate(180)" fill="#c1dfef"/>
    <path id="Trazado_26820" data-name="Trazado 26820" d="M1030.833-404.012h-81.2l1.148-2.7-8.778,3.7,8.778,3.7-1.148-2.7h81.2Z" transform="translate(7318 813.987) rotate(180)" fill="#c1dfef"/>
    <path id="Trazado_26821" data-name="Trazado 26821" d="M1030.833-404.012h-81.2l1.148-2.7-8.778,3.7,8.778,3.7-1.148-2.7h81.2Z" transform="translate(7318 717.987) rotate(180)" fill="#c1dfef"/>
    <path id="Trazado_26822" data-name="Trazado 26822" d="M1030.833-404.012h-81.2l1.148-2.7-8.778,3.7,8.778,3.7-1.148-2.7h81.2Z" transform="translate(7318 624.987) rotate(180)" fill="#c1dfef"/>
    <path id="Trazado_26823" data-name="Trazado 26823" d="M894.92-346.33v-9.047l2.373,1.436.062-.123-2.334-5.875q-.676-3.07-1.351-6.141-.676,3.07-1.351,6.141l-2.334,5.875.082.123,2.353-1.431v11.542h352.5v15.75h2.5v-18.25Z" transform="translate(5314.247 1613.58)" fill="#e2f5ff"/>
    <path id="Trazado_26824" data-name="Trazado 26824" d="M894.92-346.33v-9.047l2.373,1.436.062-.123-2.334-5.875q-.676-3.07-1.351-6.141-.676,3.07-1.351,6.141l-2.334,5.875.082.123,2.353-1.431v11.542h352.5v15.75h2.5v-18.25Z" transform="translate(5314.247 1522.58)" fill="#e2f5ff"/>
    <path id="Trazado_26825" data-name="Trazado 26825" d="M894.92-346.33v-9.047l2.373,1.436.062-.123-2.334-5.875q-.676-3.07-1.351-6.141-.676,3.07-1.351,6.141l-2.334,5.875.082.123,2.353-1.431v11.542h352.5v15.75h2.5v-18.25Z" transform="translate(5314.247 1425.58)" fill="#e2f5ff"/>
  </g>
</svg>
