<svg xmlns="http://www.w3.org/2000/svg" width="505.104" height="255.87" viewBox="0 0 505.104 255.87">
  <g id="Grupo_16911" data-name="Grupo 16911" transform="translate(-754.896 -206.381)">
    <g id="Grupo_16558" data-name="Grupo 16558" transform="translate(569.138 -455.991)">
      <path id="Trazado_25761" data-name="Trazado 25761" d="M649.18,868.537c-14.761-7.634-32.213-13.244-40.525-27.659-9.721-16.862-2.671-37.98-2.978-57.454-.569-36.084-29.89-68.483-65.022-76.366s-73.325,6.935-97.281,33.873c-22.581,25.394-38.025,63.216-71.454,69.065-35.373,6.189-72.1-30.322-104.473-14.754-48.863,23.495-48.157,87.716-52.637,112.409l459.154-.463C678.691,891.226,663.942,876.169,649.18,868.537Z" transform="translate(0 9.591)" fill="#f3ff7e"/>
      <path id="Trazado_25762" data-name="Trazado 25762" d="M397.722,694.324a2.224,2.224,0,1,0,2.224-2.222A2.223,2.223,0,0,0,397.722,694.324Z" transform="translate(136.607 0)" fill="#f3ff7e"/>
      <path id="Trazado_25763" data-name="Trazado 25763" d="M458.926,792.106a13.341,13.341,0,1,0-13.342-13.342A13.343,13.343,0,0,0,458.926,792.106Z" transform="translate(172.352 54.759)" fill="#f3ff7e"/>
      <path id="Trazado_25764" data-name="Trazado 25764" d="M451.431,759.8a5.337,5.337,0,1,0-5.338-5.337A5.337,5.337,0,0,0,451.431,759.8Z" transform="translate(172.732 42.59)" fill="#f3ff7e"/>
    </g>
    <g id="Grupo_16557" data-name="Grupo 16557" transform="translate(669.11 -484.729)">
      <path id="Trazado_25630" data-name="Trazado 25630" d="M159.847,759.275s3.052-8.536,10.349-7.588c0,0,10.6-14.227,21.893-1.9,0,0,12.009-3.055,20.9,2.644,5.929,3.8,7.888,7.788,7.888,7.788Z" transform="translate(51.796 37.522)" fill="#f7fbff" opacity="0.5"/>
      <path id="Trazado_25631" data-name="Trazado 25631" d="M133.846,743s3.7-10.341,12.54-9.192c0,0,12.835-17.237,26.522-2.3,0,0,14.55-3.7,25.326,3.2,7.185,4.6,9.557,9.435,9.557,9.435Z" transform="translate(33.612 23.991)" fill="#f9f9f9"/>
      <path id="Trazado_25632" data-name="Trazado 25632" d="M320.743,755.936s3.7-10.342,12.54-9.192c0,0,12.835-17.238,26.524-2.3,0,0,14.55-3.7,25.324,3.2,7.185,4.605,9.557,9.435,9.557,9.435Z" transform="translate(164.32 33.04)" fill="#f9f9f9"/>
      <path id="Trazado_25633" data-name="Trazado 25633" d="M206.74,736.876a17.3,17.3,0,0,1,16.645-8.05s17.041-15.094,35.212-2.012c0,0,19.315-3.241,33.62,2.806,9.537,4.032,12.687,8.262,12.687,8.262Z" transform="translate(84.591 21.239)" fill="#f7fbff" opacity="0.5"/>
      <path id="Trazado_25634" data-name="Trazado 25634" d="M452.512,877.538H294.154l-66.015-.043H108.754s-.07-.121-.2-.36q-.143-.255-.393-.693l-.065-.087v-.042s-.066-.046-.066-.088A10.474,10.474,0,0,1,107.3,875a7.676,7.676,0,0,0-.462-.746v-.088l-.065-.044c-.9-1.563-2.026-3.6-3.321-6.06-.119-.223-.236-.447-.355-.675-.646-1.859-1.356-3.941-2.111-6.233-1.8-5.564-3.856-12.354-5.87-20.02-.79-3.023-1.579-6.177-2.325-9.465-.438-1.9-.88-3.873-1.3-5.868q-.184-.877-.362-1.755c-.775-3.735-1.5-7.584-2.16-11.516-1.292-7.7-2.309-15.723-2.884-23.854,51.278,2.643,150.125,9.6,224.475,26.2,104.913,23.431,130.839,27.214,175.284,31.418C510.717,848.647,482.338,864.25,452.512,877.538Z" transform="translate(0.212 68.231)" fill="#f7cb7a"/>
      <g id="Grupo_16491" data-name="Grupo 16491" transform="translate(336.373 821.229)">
        <path id="Trazado_25635" data-name="Trazado 25635" d="M250.388,780.733l-3.718,72.714h3.718l1.673-72.714Z" transform="translate(-223.856 -758.55)" fill="#91bdad"/>
        <path id="Trazado_25636" data-name="Trazado 25636" d="M249.032,783.278l.944,4.477,16.915-20.075Z" transform="translate(-222.205 -767.679)" fill="#91bdad"/>
        <path id="Trazado_25637" data-name="Trazado 25637" d="M254.487,780.162l-4.563-.341,14.566,21.84Z" transform="translate(-221.581 -759.188)" fill="#91bdad"/>
        <path id="Trazado_25638" data-name="Trazado 25638" d="M256.821,783.658l2.649-3.731-26.225,1.189Z" transform="translate(-233.245 -759.114)" fill="#91bdad"/>
        <circle id="Elipse_918" data-name="Elipse 918" cx="2.045" cy="2.045" r="2.045" transform="translate(25.216 18.588)" fill="#91bdad"/>
      </g>
      <path id="Trazado_25639" data-name="Trazado 25639" d="M323.825,834.719s-135.712-37.213-178.5-40.961-1.8,5.013-1.8,5.013,116.143,30.553,143.314,43.15S323.825,834.719,323.825,834.719Z" transform="translate(28.01 71.135)" fill="#efbe6b"/>
      <path id="Trazado_25640" data-name="Trazado 25640" d="M289.334,864.039s-117.344-56.3-155.663-66.871-2.471,4.206-2.471,4.206,100.638,47.02,123.275,62.92S289.334,864.039,289.334,864.039Z" transform="translate(21.113 71.508)" fill="#efbe6b"/>
      <g id="Grupo_16492" data-name="Grupo 16492" transform="translate(245.993 838.869)">
        <path id="Trazado_25641" data-name="Trazado 25641" d="M194.092,788.744l-3.043,59.518h3.043l1.369-59.518Z" transform="translate(-172.375 -770.588)" fill="#91bdad"/>
        <path id="Trazado_25642" data-name="Trazado 25642" d="M192.982,790.827l.773,3.665L207.6,778.06Z" transform="translate(-171.024 -778.06)" fill="#91bdad"/>
        <path id="Trazado_25643" data-name="Trazado 25643" d="M197.447,788.277,193.712,788l11.922,17.877Z" transform="translate(-170.513 -771.109)" fill="#91bdad"/>
        <path id="Trazado_25644" data-name="Trazado 25644" d="M199.357,791.138l2.168-3.054-21.466.973Z" transform="translate(-180.06 -771.049)" fill="#91bdad"/>
        <path id="Trazado_25645" data-name="Trazado 25645" d="M192.206,788.687a1.674,1.674,0,1,1,1.674,1.674A1.674,1.674,0,0,1,192.206,788.687Z" transform="translate(-171.566 -771.798)" fill="#91bdad"/>
      </g>
      <g id="Grupo_16493" data-name="Grupo 16493" transform="translate(91.706 873.235)">
        <path id="Trazado_25646" data-name="Trazado 25646" d="M586.685,826.742q-.416,5.442-1.365,11.331c-.014.088-.029.175-.046.265-.336,2.007-.715,4.065-1.135,6.123-.4,2.151-.921,4.422-1.49,6.7-.263,1.1-.569,2.211-.831,3.314-.921,3.5-1.971,7.122-3.242,10.869-.4,1.229-.788,2.518-1.229,3.749-.109.384-.236.77-.369,1.152H104.5l-.262-.97-.042-.122v-.059a.272.272,0,0,1-.042-.126c-.175-.49-.308-1.045-.483-1.716-.088-.309-.175-.678-.308-1.045v-.126l-.042-.06c-.6-2.192-1.348-5.045-2.209-8.493-.709-2.841-1.5-6.079-2.347-9.685-1.8-7.8-3.856-17.316-5.87-28.063-.79-4.238-1.579-8.66-2.325-13.265-.438-2.659-.88-5.429-1.3-8.227,43.31,16.453,154.689,53.424,234.231,32.75,14.3-3.715,30.067-7.041,46.615-10.014q5.544-1,11.2-1.942c42.907-7.18,89.816-12.156,129.126-15.585h.008c.454-.037.9-.078,1.358-.117s.885-.076,1.329-.115c.537-.044,1.074-.094,1.609-.138,1.111-.093,2.218-.19,3.317-.282l.43-.036,2.52-.211q4.634-.387,9.086-.743l1.992-.158q1.1-.092,2.185-.175c.975-.078,1.944-.151,2.906-.228l1.772-.138q1.575-.122,3.125-.24l1.514-.116c.693-.053,1.382-.1,2.065-.155.056-.005.11-.01.168-.012l3.324-.25c.347-.027.7-.051,1.043-.077l.044-.005.027,0c8.866-.656,16.827-1.213,23.64-1.686q1.789,2.162,3.439,4.432.836,1.18,1.613,2.4A53.8,53.8,0,0,1,583,813a49.491,49.491,0,0,1,2.075,5.757A48.776,48.776,0,0,1,586.685,826.742Z" transform="translate(-89.269 -798.283)" fill="#dbeb43"/>
        <path id="Trazado_25647" data-name="Trazado 25647" d="M288.069,810.519c-11.228,6.311-35.433,22.469-50.31,51.164-.105.2-.207.4-.311.6l-11.309-.6L222.6,861.5c.34-.958,16.115-24.87,54.264-49.035Q282.411,811.462,288.069,810.519Z" transform="translate(3.979 -789.726)" fill="#b8bf2b"/>
        <path id="Trazado_25648" data-name="Trazado 25648" d="M236.559,862.831c.359-1.01,18.7-28.913,64.022-54.162l3.567,2.789s-34.859,15.32-53.562,52.123Z" transform="translate(13.739 -791.02)" fill="#b8bf2b"/>
        <path id="Trazado_25649" data-name="Trazado 25649" d="M255.839,862.831c.359-1.01,18.7-28.913,64.022-54.162l3.567,2.789s-34.859,15.32-53.562,52.123Z" transform="translate(27.223 -791.02)" fill="#b8bf2b"/>
        <path id="Trazado_25650" data-name="Trazado 25650" d="M413.293,799.468s-63.5,6.459-103.149,47.31l-25.018-7.17c.69-1.009,27.851-22.172,88.343-36.944h.008c14.5-1.264,27.965-2.32,39.816-3.2Z" transform="translate(47.705 -797.454)" fill="#b8bf2b"/>
        <path id="Trazado_25651" data-name="Trazado 25651" d="M440,810.055c-28.524,6.887-74.185,22.668-108.331,57.241H309.807l-16.064-4.65c1.02-1.575,44.554-38,142.216-60.152A53.8,53.8,0,0,1,440,810.055Z" transform="translate(53.732 -795.338)" fill="#b8bf2b"/>
      </g>
      <g id="Grupo_16497" data-name="Grupo 16497" transform="translate(85.785 819.792)">
        <g id="Grupo_16494" data-name="Grupo 16494">
          <path id="Trazado_25652" data-name="Trazado 25652" d="M126.371,788.548v88.82H106.778c-.01-.026-.02-.058-.032-.088l-.02-.058c-.065-.17-.151-.4-.262-.693l-.044-.087V876.4a.163.163,0,0,1-.042-.088,12.152,12.152,0,0,1-.483-1.225c-.088-.221-.175-.484-.306-.746v-.088l-.044-.044c-.6-1.563-1.348-3.6-2.207-6.06-.078-.223-.156-.447-.238-.675-.646-1.859-1.354-3.941-2.111-6.233q-.523-1.614-1.072-3.368c-1.521-4.859-3.174-10.47-4.8-16.652-.788-3.023-1.577-6.177-2.323-9.465-.438-1.9-.88-3.873-1.3-5.868q-.181-.877-.362-1.755c-.773-3.735-1.5-7.584-2.16-11.516-.867-5.164-1.609-10.475-2.175-15.865q-.421-3.966-.707-7.989c-.005-.07-.014-.143-.015-.212Z" transform="translate(-85.585 -751.648)" fill="#fcf1e6"/>
          <path id="Trazado_25653" data-name="Trazado 25653" d="M100.309,766.835l20.757,42.73h63.06L151.25,766.991Z" transform="translate(-75.627 -766.833)" fill="#e35c3d"/>
          <path id="Trazado_25654" data-name="Trazado 25654" d="M182.662,809.565l-1.875-2.427-31-40.146-50.94-.156,18.592,38.273v87.441h63.351V809.565Z" transform="translate(-76.651 -766.833)" fill="#f4daba"/>
          <path id="Rectángulo_3950" data-name="Rectángulo 3950" d="M0,0H17.353a0,0,0,0,1,0,0V23.824a5.021,5.021,0,0,1-5.021,5.021H5.19A5.19,5.19,0,0,1,0,23.655V0A0,0,0,0,1,0,0Z" transform="translate(82.038 50.211) rotate(-180)" fill="#e9caaa"/>
          <path id="Trazado_25655" data-name="Trazado 25655" d="M161.575,766.834l-.141.19-1.229,1.635-29.65,39.529-2.811,3.747H86.993q-.421-3.966-.707-7.989c-.005-.07-.014-.143-.015-.212s-.012-.143-.017-.216c-.258-3.774-.421-7.574-.469-11.372l19.536-25.3H113.6l28.926-.005Z" transform="translate(-85.785 -766.834)" fill="#e35c3d"/>
        </g>
        <g id="Grupo_16496" data-name="Grupo 16496" transform="translate(51.435 54.665)">
          <path id="Trazado_25656" data-name="Trazado 25656" d="M132.866,799l14.778,30.421h44.9l-23.406-30.31Z" transform="translate(-104.294 -799.002)" fill="#e35c3d"/>
          <g id="Grupo_16495" data-name="Grupo 16495">
            <path id="Trazado_25657" data-name="Trazado 25657" d="M191.748,829.424l-23.406-30.31L132.074,799l14.778,30.421h.1v40.545l44.8.088V829.424Z" transform="translate(-104.847 -799.002)" fill="#f4daba"/>
            <rect id="Rectángulo_3951" data-name="Rectángulo 3951" width="37.934" height="40.545" transform="translate(4.169 30.421)" fill="#fcf1e6"/>
            <path id="Trazado_25658" data-name="Trazado 25658" d="M116.053,831.177H156.8l24.088-32.11-12.139,0-27.912.006Z" transform="translate(-116.053 -798.957)" fill="#e35c3d"/>
            <path id="Trazado_25659" data-name="Trazado 25659" d="M148.654,824.7v33.878h18.873V825.008a9.593,9.593,0,0,0-9.591-9.591,9.285,9.285,0,0,0-9.282,9.28Z" transform="translate(-93.252 -787.522)" fill="#e9caaa"/>
            <path id="Trazado_25660" data-name="Trazado 25660" d="M157.2,809.877a2.118,2.118,0,1,0-2.117,2.117A2.117,2.117,0,0,0,157.2,809.877Z" transform="translate(-90.24 -792.877)" fill="#e9caaa"/>
            <path id="Trazado_25661" data-name="Trazado 25661" d="M116.053,831.176h7.734l44.966-32.108-27.912.006Z" transform="translate(-116.053 -798.956)" fill="#e35c3d" style="mix-blend-mode: multiply;isolation: isolate"/>
          </g>
        </g>
      </g>
      <g id="Grupo_16502" data-name="Grupo 16502" transform="translate(92.87 825.66)">
        <path id="Trazado_25662" data-name="Trazado 25662" d="M127.2,794.383H89.954l19.647-24.1h37.244Z" transform="translate(-89.954 -770.287)" fill="#36687a"/>
        <g id="Grupo_16501" data-name="Grupo 16501" transform="translate(4.569)">
          <path id="Trazado_25663" data-name="Trazado 25663" d="M135.775,774.139H98.531l.231-.283h37.244Z" transform="translate(-88.525 -767.792)" fill="#91bdad"/>
          <path id="Trazado_25664" data-name="Trazado 25664" d="M114.87,770.287l-19.647,24.1h-.283l19.647-24.1Z" transform="translate(-91.037 -770.287)" fill="#91bdad"/>
          <path id="Trazado_25665" data-name="Trazado 25665" d="M120.677,770.287l-19.647,24.1h-.283l19.647-24.1Z" transform="translate(-86.976 -770.287)" fill="#91bdad"/>
          <path id="Trazado_25666" data-name="Trazado 25666" d="M126.264,770.287l-19.647,24.1h-.283l19.647-24.1Z" transform="translate(-83.068 -770.287)" fill="#91bdad"/>
          <path id="Trazado_25667" data-name="Trazado 25667" d="M132.911,777.577H95.667l.231-.283h37.244Z" transform="translate(-90.528 -765.387)" fill="#91bdad"/>
          <path id="Trazado_25668" data-name="Trazado 25668" d="M129.887,781.286H92.643l.231-.283h37.244Z" transform="translate(-92.643 -762.793)" fill="#91bdad"/>
          <g id="Grupo_16498" data-name="Grupo 16498" transform="translate(17.419 5.064)">
            <path id="Trazado_25669" data-name="Trazado 25669" d="M103.108,775.588l-.214-1.161,2.107-1.16.214,1.16Z" transform="translate(-102.893 -773.267)" fill="#91bdad"/>
            <path id="Trazado_25670" data-name="Trazado 25670" d="M108.852,775.588l-.214-1.161,2.107-1.16.214,1.16Z" transform="translate(-98.876 -773.267)" fill="#91bdad"/>
            <path id="Trazado_25671" data-name="Trazado 25671" d="M114.523,775.588l-.214-1.161,2.107-1.16.214,1.16Z" transform="translate(-94.91 -773.267)" fill="#91bdad"/>
          </g>
          <g id="Grupo_16499" data-name="Grupo 16499" transform="translate(12.671 10.888)">
            <path id="Trazado_25672" data-name="Trazado 25672" d="M100.314,779.015l-.214-1.161,2.107-1.16.214,1.16Z" transform="translate(-100.099 -776.694)" fill="#91bdad"/>
            <path id="Trazado_25673" data-name="Trazado 25673" d="M106.058,779.015l-.214-1.161,2.107-1.16.214,1.16Z" transform="translate(-96.082 -776.694)" fill="#91bdad"/>
            <path id="Trazado_25674" data-name="Trazado 25674" d="M111.729,779.015l-.214-1.161,2.107-1.16.214,1.16Z" transform="translate(-92.116 -776.694)" fill="#91bdad"/>
          </g>
          <g id="Grupo_16500" data-name="Grupo 16500" transform="translate(7.532 17.19)">
            <path id="Trazado_25675" data-name="Trazado 25675" d="M97.29,782.724l-.214-1.161,2.107-1.16.214,1.16Z" transform="translate(-97.075 -780.403)" fill="#91bdad"/>
            <path id="Trazado_25676" data-name="Trazado 25676" d="M103.034,782.724l-.214-1.161,2.107-1.16.214,1.16Z" transform="translate(-93.058 -780.403)" fill="#91bdad"/>
            <path id="Trazado_25677" data-name="Trazado 25677" d="M108.7,782.724l-.214-1.161,2.107-1.16.214,1.16Z" transform="translate(-89.092 -780.403)" fill="#91bdad"/>
          </g>
        </g>
      </g>
      <path id="Trazado_25678" data-name="Trazado 25678" d="M243.583,703.355s2.733-6.575,9.263-5.844c0,0,9.481-10.956,19.592-1.46,0,0,10.747-2.354,18.707,2.036,5.307,2.928,7.059,6,7.059,6Z" transform="translate(110.357 0.747)" fill="#f9f9f9"/>
      <path id="Trazado_25679" data-name="Trazado 25679" d="M114.313,759.843s2.918-7.023,9.9-6.242c0,0,10.13-11.707,20.933-1.562,0,0,11.484-2.513,19.988,2.177,5.669,3.127,7.542,6.408,7.542,6.408Z" transform="translate(19.951 39.718)" fill="#f9f9f9"/>
      <path id="Trazado_25680" data-name="Trazado 25680" d="M105.366,746.047s2.233-5.375,7.572-4.779c0,0,7.752-8.957,16.018-1.193,0,0,8.787-1.924,15.3,1.666,4.338,2.393,5.771,4.9,5.771,4.9Z" transform="translate(13.694 32.029)" fill="#f9f9f9"/>
      <path id="Trazado_25681" data-name="Trazado 25681" d="M417.04,822.106a69.959,69.959,0,0,1-1.427,8.7c-.014.063-.029.124-.046.189-15.4,5.581-31.278,12.983-45.414,22.76H331.931C337.471,850.19,364.47,835.24,417.04,822.106Z" transform="translate(172.144 91.613)" fill="#b8bf2b"/>
      <g id="Grupo_16504" data-name="Grupo 16504" transform="translate(283.729 889.34)">
        <path id="Trazado_25682" data-name="Trazado 25682" d="M218.327,816.606s-7.583,29.258-6.9,31.569,4.49,10.171,4.49,10.171h-3.666a2.765,2.765,0,0,1-1.421-2.539c.061-1.813-5.078-8.886-5.078-8.886s2.015-11.233,0-15.658C197.07,812.21,211.61,812.392,218.327,816.606Z" transform="translate(-201.71 -803.188)" fill="#c49e7f"/>
        <path id="Trazado_25683" data-name="Trazado 25683" d="M238.7,821.613s-2.175,15.717-2.3,16.686-1.147,2.175-1.088,3.747.6,6.891,2.3,8.221a4.815,4.815,0,0,1,1.874,2.962h-4.6a6.145,6.145,0,0,1-.664-2.66c.121-1.089-1.269-2.238-1.331-4.474s0-6.407-.6-7.858-.423-11.425-2.418-13.661S238.7,821.613,238.7,821.613Z" transform="translate(-183.132 -798.072)" fill="#c49e7f"/>
        <path id="Trazado_25684" data-name="Trazado 25684" d="M206.892,826.047c-.049.726-.075,1.4-.075,2.075.126,17.014,16.966,11.917,17.565,11.467a3.62,3.62,0,0,1,1.825-.4c8.42,3.348,20.214.275,22.663-.724s8.969,1.473,11.992,1.249c1.225-.1,2.248-1.375,3.023-2.974a22.52,22.52,0,0,0,1.825-6.221,39.39,39.39,0,0,1,1.873-5.472c.425-1.05.9-2.2,1.4-3.373.1-.2.175-.425.274-.625-.25-.274-.474-.574-.7-.874a36.64,36.64,0,0,1-3.273-5.847,29.375,29.375,0,0,0-3.849-6.32c-2.473-.775-5.421.624-6.646.549a34.129,34.129,0,0,1-4.1-.5c-.525-.1-1-.173-1.45-.248-2.5-.375-17.639,1.574-28.333,1.873-2.2.077-4.2.051-5.871-.049-.126,0-.25-.026-.376-.026-4.473-.25-6.847.026-8.1.425-1.375.425-1.4.95-1.4.95C200.9,815.152,206.892,826.047,206.892,826.047Z" transform="translate(-201.311 -807.76)" fill="#e9caaa"/>
        <path id="Trazado_25685" data-name="Trazado 25685" d="M241.937,821.613s-2.177,15.717-2.3,16.686-1.149,2.175-1.088,3.747.6,6.891,2.3,8.221a4.808,4.808,0,0,1,1.873,2.962h-4.593a6.119,6.119,0,0,1-.664-2.66c.121-1.089-1.271-2.238-1.331-4.474s0-6.407-.6-7.858-.423-11.425-2.418-13.661S241.937,821.613,241.937,821.613Z" transform="translate(-180.867 -798.072)" fill="#e9caaa"/>
        <path id="Trazado_25686" data-name="Trazado 25686" d="M221.031,820.018s-6.121,22.714-5.44,25.025,4.488,10.171,4.488,10.171h-3.666a2.765,2.765,0,0,1-1.421-2.539c.061-1.813-5.078-8.886-5.078-8.886s-.415-12.822-3.436-16.63S214.313,815.8,221.031,820.018Z" transform="translate(-199.684 -800.056)" fill="#e9caaa"/>
        <g id="Grupo_16503" data-name="Grupo 16503" transform="translate(59.879 0.248)">
          <path id="Trazado_25687" data-name="Trazado 25687" d="M251.805,823.768c.246.333.466.571.466.571a9.677,9.677,0,0,0,1.088.053,2.975,2.975,0,0,0,1.467-.4,1.846,1.846,0,0,0,.715-.855s-.207-.535-1.3-.678c-.8-.1-1.589-.661-2.26-.731h0a.977.977,0,0,0-.676.16C250.8,822.245,251.352,823.165,251.805,823.768Z" transform="translate(-227.99 -798.242)" fill="#e9caaa"/>
          <path id="Trazado_25688" data-name="Trazado 25688" d="M252.677,825.251c.031-.015.413.058.913.056a2.365,2.365,0,0,0,2.36-1.256s-.207-.535-1.3-.676c-.037-.005-.076-.012-.114-.019-.7-.126-1.392-.566-1.993-.688a1.022,1.022,0,0,0-.831.132.452.452,0,0,0-.2.33C251.419,823.881,252.677,825.251,252.677,825.251Z" transform="translate(-227.704 -797.604)" fill="#e9caaa"/>
          <path id="Trazado_25689" data-name="Trazado 25689" d="M237.551,812.6c.3,7.8,1.749,22.714,2.648,24.037a34.907,34.907,0,0,1,5.423.6c4.5.924,5.747,2.622,6.172,3.422.8,1.6,4.547,5.248,5.2,5.373.675.124,1.074,1,1.774,2.423.675,1.4,2.024,1.523,3.147,1.6a2.5,2.5,0,0,0,2.075-1.625,10.041,10.041,0,0,1-.476-2.8c.075-1.4-.824-5.572-.075-6.7.476-.726.2-2.274-.049-3.324-.15-.624-.3-1.048-.3-1.048a2.669,2.669,0,0,0-.224-.5c-.15-.326-.325-.7-.525-1.1-.224-.476-.523-1-.85-1.575a65.049,65.049,0,0,0-6.021-8.794,59.639,59.639,0,0,0-9.744-9.695,43.307,43.307,0,0,0-7.972-5C237.5,808,237.451,809.879,237.551,812.6Z" transform="translate(-237.502 -807.906)" fill="#e9caaa"/>
        </g>
        <path id="Trazado_25690" data-name="Trazado 25690" d="M248.773,824.9c-.158-.4-.076-7.243-5.015-8.648s-7.639.758-13.8-1.728-12.647-4.541-13.3-1.839.54,10.269,0,13.727,11.156,4.685,15.955,2.559S250.508,829.329,248.773,824.9Z" transform="translate(-192.336 -805.21)" fill="#00223d"/>
        <path id="Trazado_25691" data-name="Trazado 25691" d="M206.12,809.661a12.4,12.4,0,0,0-3.737,7.593c-.54,4.864.972,26.235.972,26.235l1.234-.07,1.326-23.643Z" transform="translate(-202.266 -806.43)" fill="#00223d"/>
        <path id="Trazado_25692" data-name="Trazado 25692" d="M204.393,832.67s-2.666-2.87-1.008-3.519,1.008,1.3,1.008,2.055Z" transform="translate(-201.864 -792.891)" fill="#35488b"/>
        <path id="Trazado_25693" data-name="Trazado 25693" d="M205.36,810.03c3.1,1.524,6.522,2.925,8.546,2.974,4.422.075,15.165-2.474,19.539-2.748s22.087,3.822,26.26,2.5a.669.669,0,0,1,.325-.051c.924-.075,2.323.576,4.048,1.625.974.625,2.048,1.375,3.173,2.224a203.316,203.316,0,0,1,16.715,14.941,65.049,65.049,0,0,0-6.021-8.794A59.639,59.639,0,0,0,268.2,813a43.307,43.307,0,0,0-7.972-5c-2.473-.775-5.421.624-6.646.549a34.129,34.129,0,0,1-4.1-.5c-.525-.1-1-.173-1.45-.248-2.5-.375-17.639,1.574-28.333,1.873-2.2.077-4.2.051-5.871-.049-.126,0-.25-.026-.376-.026C208.983,809.356,206.609,809.631,205.36,810.03Z" transform="translate(-200.103 -807.76)" fill="#fbe4d3"/>
        <path id="Trazado_25694" data-name="Trazado 25694" d="M213.8,809.676c1.934,1.577,5.644,2.206,10.886,1.229,6.376-1.188,7.89,1.621,13.185,1.839a5.274,5.274,0,0,0,5.7-4.694c-.515-.085-1-.168-1.455-.236C239.639,807.437,224.484,809.371,213.8,809.676Z" transform="translate(-194.199 -807.756)" fill="#00223d"/>
        <path id="Trazado_25695" data-name="Trazado 25695" d="M241.922,818.017a11.255,11.255,0,0,0,.425,1.5,12.488,12.488,0,0,0,.824,1.625c2.823,4.5.15,9.894-.5,14.042,4.5.924,5.747,2.622,6.172,3.422.8,1.6,4.547,5.248,5.2,5.373.675.124,1.074,1,1.774,2.423.675,1.4,2.024,1.523,3.147,1.6a2.5,2.5,0,0,0,2.075-1.625,10.042,10.042,0,0,1-.476-2.8c.075-1.4-.824-5.572-.075-6.7.476-.726.2-2.274-.049-3.324a2.4,2.4,0,0,0,2.374-1.249s-.226-.551-1.3-.7h-.124a1.957,1.957,0,0,0,.724-.874s-.224-.525-1.3-.675c-.8-.1-1.6-.651-2.274-.726a65.046,65.046,0,0,0-6.021-8.794,59.639,59.639,0,0,0-9.744-9.695,14.9,14.9,0,0,0-.95,3.548A11.1,11.1,0,0,0,241.922,818.017Z" transform="translate(-174.674 -805.602)" fill="#00223d"/>
        <path id="Trazado_25696" data-name="Trazado 25696" d="M206.887,825.325c-.048.724-.066,1.414-.063,2.071,5.487,4.07,15.111,2.016,15.833-2.88.833-5.639-6.746-6.436-6.191-11.082a5.435,5.435,0,0,0-1.8-4.546c-9.411-.557-9.5,1.383-9.5,1.383C200.9,814.442,206.887,825.325,206.887,825.325Z" transform="translate(-201.311 -807.041)" fill="#00223d"/>
      </g>
      <g id="Grupo_16545" data-name="Grupo 16545" transform="translate(193.312 719.752)">
        <rect id="Rectángulo_3952" data-name="Rectángulo 3952" width="195.253" height="128.477" rx="5.917" fill="#f7fbff" opacity="0.6"/>
        <g id="Grupo_16505" data-name="Grupo 16505" transform="translate(21.653 12.746)">
          <path id="Trazado_25697" data-name="Trazado 25697" d="M217.99,744.865a28.075,28.075,0,1,1-22.928-27.618c-3.507,12.779-8.16,29.7-8.473,30.76.579-.913,17.665-8.572,29.333-13.734A27.946,27.946,0,0,1,217.99,744.865Z" transform="translate(-161.802 -714.552)" fill="#7aa1ff"/>
          <path id="Trazado_25698" data-name="Trazado 25698" d="M206.057,732.122c-10.3,4.541-27.37,12.149-27.917,13.01.3-1,5.018-18.164,8.181-29.667A30.86,30.86,0,0,1,206.057,732.122Z" transform="translate(-150.376 -715.465)" fill="#f9a825"/>
        </g>
        <g id="Grupo_16506" data-name="Grupo 16506" transform="translate(145.548 6.954)">
          <path id="Trazado_25699" data-name="Trazado 25699" d="M234.709,714.39a2.334,2.334,0,1,1,2.333,2.335A2.334,2.334,0,0,1,234.709,714.39Z" transform="translate(-234.709 -712.056)" fill="#afc0ff"/>
          <path id="Trazado_25700" data-name="Trazado 25700" d="M241.839,714.39a2.334,2.334,0,1,1,2.335,2.335A2.334,2.334,0,0,1,241.839,714.39Z" transform="translate(-229.723 -712.056)" fill="#afc0ff"/>
          <circle id="Elipse_919" data-name="Elipse 919" cx="2.334" cy="2.334" r="2.334" transform="translate(24.623)" fill="#ec9037"/>
        </g>
        <g id="Grupo_16509" data-name="Grupo 16509" transform="translate(18.762 103.658)">
          <g id="Grupo_16507" data-name="Grupo 16507">
            <path id="Trazado_25701" data-name="Trazado 25701" d="M214.462,786.261H160.1v-17.3h54.361Zm-53.693-.668h53.025V769.629H160.769Z" transform="translate(-160.101 -768.963)" fill="#afc0ff"/>
          </g>
          <g id="Grupo_16508" data-name="Grupo 16508" transform="translate(3.939 4.648)">
            <rect id="Rectángulo_3953" data-name="Rectángulo 3953" width="21.027" height="1.371" fill="#afc0ff"/>
            <rect id="Rectángulo_3954" data-name="Rectángulo 3954" width="14.92" height="1.371" transform="translate(23.241)" fill="#afc0ff"/>
            <rect id="Rectángulo_3955" data-name="Rectángulo 3955" width="11.605" height="1.371" transform="translate(0 3.916)" fill="#afc0ff"/>
            <rect id="Rectángulo_3956" data-name="Rectángulo 3956" width="14.92" height="1.371" transform="translate(13.567 3.916)" fill="#afc0ff"/>
            <rect id="Rectángulo_3957" data-name="Rectángulo 3957" width="14.92" height="1.371" transform="translate(30.032 3.916)" fill="#afc0ff"/>
          </g>
        </g>
        <g id="Grupo_16512" data-name="Grupo 16512" transform="translate(114.451 103.658)">
          <g id="Grupo_16510" data-name="Grupo 16510">
            <path id="Trazado_25702" data-name="Trazado 25702" d="M243.323,777.526H216.41v-8.563h26.913Zm-26.583-.33h26.253v-7.9H216.74Z" transform="translate(-216.41 -768.963)" fill="#afc0ff"/>
          </g>
          <g id="Grupo_16511" data-name="Grupo 16511" transform="translate(1.95 2.301)">
            <rect id="Rectángulo_3958" data-name="Rectángulo 3958" width="10.41" height="0.679" fill="#afc0ff"/>
            <rect id="Rectángulo_3959" data-name="Rectángulo 3959" width="7.387" height="0.679" transform="translate(11.506)" fill="#afc0ff"/>
            <rect id="Rectángulo_3960" data-name="Rectángulo 3960" width="5.745" height="0.678" transform="translate(0 1.939)" fill="#afc0ff"/>
            <rect id="Rectángulo_3961" data-name="Rectángulo 3961" width="7.387" height="0.678" transform="translate(6.717 1.939)" fill="#afc0ff"/>
            <rect id="Rectángulo_3962" data-name="Rectángulo 3962" width="7.387" height="0.678" transform="translate(14.868 1.939)" fill="#afc0ff"/>
          </g>
        </g>
        <g id="Grupo_16515" data-name="Grupo 16515" transform="translate(146.542 103.658)">
          <g id="Grupo_16513" data-name="Grupo 16513">
            <path id="Trazado_25703" data-name="Trazado 25703" d="M262.207,777.526H235.294v-8.563h26.913Zm-26.581-.33h26.252v-7.9H235.625Z" transform="translate(-235.294 -768.963)" fill="#afc0ff"/>
          </g>
          <g id="Grupo_16514" data-name="Grupo 16514" transform="translate(1.951 2.301)">
            <rect id="Rectángulo_3963" data-name="Rectángulo 3963" width="10.41" height="0.679" fill="#afc0ff"/>
            <rect id="Rectángulo_3964" data-name="Rectángulo 3964" width="7.387" height="0.679" transform="translate(11.506)" fill="#afc0ff"/>
            <rect id="Rectángulo_3965" data-name="Rectángulo 3965" width="5.745" height="0.678" transform="translate(0 1.939)" fill="#afc0ff"/>
            <rect id="Rectángulo_3966" data-name="Rectángulo 3966" width="7.387" height="0.678" transform="translate(6.717 1.939)" fill="#afc0ff"/>
            <rect id="Rectángulo_3967" data-name="Rectángulo 3967" width="7.387" height="0.678" transform="translate(14.868 1.939)" fill="#afc0ff"/>
          </g>
        </g>
        <g id="Grupo_16518" data-name="Grupo 16518" transform="translate(114.451 65.569)">
          <g id="Grupo_16516" data-name="Grupo 16516">
            <path id="Trazado_25704" data-name="Trazado 25704" d="M243.323,755.112H216.41v-8.563h26.913Zm-26.583-.33h26.253v-7.9H216.74Z" transform="translate(-216.41 -746.549)" fill="#afc0ff"/>
          </g>
          <g id="Grupo_16517" data-name="Grupo 16517" transform="translate(1.95 2.301)">
            <rect id="Rectángulo_3968" data-name="Rectángulo 3968" width="10.41" height="0.679" fill="#afc0ff"/>
            <rect id="Rectángulo_3969" data-name="Rectángulo 3969" width="7.387" height="0.679" transform="translate(11.506)" fill="#afc0ff"/>
            <rect id="Rectángulo_3970" data-name="Rectángulo 3970" width="5.745" height="0.679" transform="translate(0 1.938)" fill="#afc0ff"/>
            <rect id="Rectángulo_3971" data-name="Rectángulo 3971" width="7.387" height="0.679" transform="translate(6.717 1.938)" fill="#afc0ff"/>
            <rect id="Rectángulo_3972" data-name="Rectángulo 3972" width="7.387" height="0.679" transform="translate(14.868 1.938)" fill="#afc0ff"/>
          </g>
        </g>
        <g id="Grupo_16521" data-name="Grupo 16521" transform="translate(146.542 65.569)">
          <g id="Grupo_16519" data-name="Grupo 16519">
            <path id="Trazado_25705" data-name="Trazado 25705" d="M262.207,755.112H235.294v-8.563h26.913Zm-26.581-.33h26.252v-7.9H235.625Z" transform="translate(-235.294 -746.549)" fill="#afc0ff"/>
          </g>
          <g id="Grupo_16520" data-name="Grupo 16520" transform="translate(1.951 2.301)">
            <rect id="Rectángulo_3973" data-name="Rectángulo 3973" width="10.41" height="0.679" fill="#afc0ff"/>
            <rect id="Rectángulo_3974" data-name="Rectángulo 3974" width="7.387" height="0.679" transform="translate(11.506)" fill="#afc0ff"/>
            <rect id="Rectángulo_3975" data-name="Rectángulo 3975" width="5.745" height="0.679" transform="translate(0 1.938)" fill="#afc0ff"/>
            <rect id="Rectángulo_3976" data-name="Rectángulo 3976" width="7.387" height="0.679" transform="translate(6.717 1.938)" fill="#afc0ff"/>
            <rect id="Rectángulo_3977" data-name="Rectángulo 3977" width="7.387" height="0.679" transform="translate(14.868 1.938)" fill="#afc0ff"/>
          </g>
        </g>
        <g id="Grupo_16524" data-name="Grupo 16524" transform="translate(114.451 32.412)">
          <g id="Grupo_16522" data-name="Grupo 16522">
            <path id="Trazado_25706" data-name="Trazado 25706" d="M243.323,735.6H216.41v-8.563h26.913Zm-26.583-.33h26.253v-7.9H216.74Z" transform="translate(-216.41 -727.038)" fill="#afc0ff"/>
          </g>
          <g id="Grupo_16523" data-name="Grupo 16523" transform="translate(1.95 2.301)">
            <rect id="Rectángulo_3978" data-name="Rectángulo 3978" width="10.41" height="0.679" fill="#afc0ff"/>
            <rect id="Rectángulo_3979" data-name="Rectángulo 3979" width="7.387" height="0.679" transform="translate(11.506)" fill="#afc0ff"/>
            <rect id="Rectángulo_3980" data-name="Rectángulo 3980" width="5.745" height="0.679" transform="translate(0 1.939)" fill="#afc0ff"/>
            <rect id="Rectángulo_3981" data-name="Rectángulo 3981" width="7.387" height="0.679" transform="translate(6.717 1.939)" fill="#afc0ff"/>
            <rect id="Rectángulo_3982" data-name="Rectángulo 3982" width="7.387" height="0.679" transform="translate(14.868 1.939)" fill="#afc0ff"/>
          </g>
        </g>
        <g id="Grupo_16527" data-name="Grupo 16527" transform="translate(146.542 32.412)">
          <g id="Grupo_16525" data-name="Grupo 16525">
            <path id="Trazado_25707" data-name="Trazado 25707" d="M262.207,735.6H235.294v-8.563h26.913Zm-26.581-.33h26.252v-7.9H235.625Z" transform="translate(-235.294 -727.038)" fill="#afc0ff"/>
          </g>
          <g id="Grupo_16526" data-name="Grupo 16526" transform="translate(1.951 2.301)">
            <rect id="Rectángulo_3983" data-name="Rectángulo 3983" width="10.41" height="0.679" fill="#afc0ff"/>
            <rect id="Rectángulo_3984" data-name="Rectángulo 3984" width="7.387" height="0.679" transform="translate(11.506)" fill="#afc0ff"/>
            <rect id="Rectángulo_3985" data-name="Rectángulo 3985" width="5.745" height="0.679" transform="translate(0 1.939)" fill="#afc0ff"/>
            <rect id="Rectángulo_3986" data-name="Rectángulo 3986" width="7.387" height="0.679" transform="translate(6.717 1.939)" fill="#afc0ff"/>
            <rect id="Rectángulo_3987" data-name="Rectángulo 3987" width="7.387" height="0.679" transform="translate(14.868 1.939)" fill="#afc0ff"/>
          </g>
        </g>
        <g id="Grupo_16536" data-name="Grupo 16536" transform="translate(88.483 15.951)">
          <g id="Grupo_16533" data-name="Grupo 16533">
            <g id="Grupo_16532" data-name="Grupo 16532">
              <path id="Trazado_25708" data-name="Trazado 25708" d="M205.977,725.143a3.044,3.044,0,1,1,3.045,3.044A3.045,3.045,0,0,1,205.977,725.143Z" transform="translate(-197.738 -714.032)" fill="#f9a825"/>
              <g id="Grupo_16531" data-name="Grupo 16531">
                <rect id="Rectángulo_3988" data-name="Rectángulo 3988" width="1.273" height="6.658" rx="0.374" transform="translate(10.714)" fill="#f9a825"/>
                <rect id="Rectángulo_3989" data-name="Rectángulo 3989" width="1.273" height="6.658" rx="0.374" transform="translate(10.714 15.76)" fill="#f9a825"/>
                <g id="Grupo_16528" data-name="Grupo 16528" transform="translate(1.921 4.089)">
                  <rect id="Rectángulo_3990" data-name="Rectángulo 3990" width="1.273" height="6.658" rx="0.287" transform="translate(12.732 10.317) rotate(-53.881)" fill="#f9a825"/>
                  <rect id="Rectángulo_3991" data-name="Rectángulo 3991" width="1.273" height="6.658" rx="0.287" transform="matrix(0.589, -0.808, 0.808, 0.589, 0, 1.028)" fill="#f9a825"/>
                </g>
                <g id="Grupo_16529" data-name="Grupo 16529" transform="translate(2.502 3.265)">
                  <rect id="Rectángulo_3992" data-name="Rectángulo 3992" width="6.658" height="1.273" rx="0.287" transform="matrix(0.746, -0.666, 0.666, 0.746, 0, 14.939)" fill="#f9a825"/>
                  <rect id="Rectángulo_3993" data-name="Rectángulo 3993" width="6.658" height="1.273" rx="0.287" transform="translate(11.751 4.437) rotate(-41.795)" fill="#f9a825"/>
                </g>
                <g id="Grupo_16530" data-name="Grupo 16530" transform="translate(0 10.348)">
                  <rect id="Rectángulo_3994" data-name="Rectángulo 3994" width="1.273" height="6.658" rx="0.287" transform="translate(0 1.273) rotate(-89.349)" fill="#f9a825"/>
                  <rect id="Rectángulo_3995" data-name="Rectángulo 3995" width="1.273" height="6.658" rx="0.374" transform="matrix(0.011, -1, 1, 0.011, 15.759, 1.45)" fill="#f9a825"/>
                </g>
              </g>
            </g>
          </g>
          <g id="Grupo_16535" data-name="Grupo 16535" transform="translate(25.968 8.143)">
            <g id="Grupo_16534" data-name="Grupo 16534">
              <path id="Trazado_25709" data-name="Trazado 25709" d="M277.086,727.064H216.41v-4.921h60.676Zm-60.1-.576h59.523v-3.769H216.986Z" transform="translate(-216.41 -722.143)" fill="#afc0ff"/>
            </g>
            <rect id="Rectángulo_3996" data-name="Rectángulo 3996" width="47.098" height="4.345" transform="translate(0.288 0.288)" fill="#afc0ff"/>
          </g>
        </g>
        <g id="Grupo_16540" data-name="Grupo 16540" transform="translate(95.624 49.7)">
          <path id="Trazado_25710" data-name="Trazado 25710" d="M205.331,748.683c0-3.976,6.1-11.472,6.1-11.472s6.1,7.5,6.1,11.472-2.731,7.2-6.1,7.2S205.331,752.66,205.331,748.683Z" transform="translate(-205.331 -737.211)" fill="#afc0ff"/>
          <g id="Grupo_16539" data-name="Grupo 16539" transform="translate(18.827 6.876)">
            <g id="Grupo_16538" data-name="Grupo 16538">
              <g id="Grupo_16537" data-name="Grupo 16537">
                <path id="Trazado_25711" data-name="Trazado 25711" d="M277.086,746.177H216.41v-4.92h60.676Zm-60.1-.576h59.523v-3.767H216.986Z" transform="translate(-216.41 -741.257)" fill="#f9a825"/>
              </g>
              <rect id="Rectángulo_3997" data-name="Rectángulo 3997" width="28.782" height="4.345" transform="translate(0.288 0.287)" fill="#f9a825"/>
            </g>
          </g>
        </g>
        <g id="Grupo_16543" data-name="Grupo 16543" transform="translate(98.98 84.462)">
          <path id="Trazado_25712" data-name="Trazado 25712" d="M212.649,773.585V757.667h-3.434v15.918a3.624,3.624,0,1,0,3.434,0Z" transform="translate(-207.306 -757.667)" fill="#afc0ff"/>
          <g id="Grupo_16542" data-name="Grupo 16542" transform="translate(15.471 8.908)">
            <g id="Grupo_16541" data-name="Grupo 16541">
              <path id="Trazado_25713" data-name="Trazado 25713" d="M277.086,767.829H216.41v-4.92h60.676Zm-60.1-.576h59.523v-3.768H216.986Z" transform="translate(-216.41 -762.909)" fill="#afc0ff"/>
            </g>
            <rect id="Rectángulo_3998" data-name="Rectángulo 3998" width="39.49" height="4.345" transform="translate(0.288 0.287)" fill="#afc0ff"/>
          </g>
          <path id="Trazado_25714" data-name="Trazado 25714" d="M208.056,769.87a2.351,2.351,0,1,1,2.35,2.352A2.35,2.35,0,0,1,208.056,769.87Z" transform="translate(-206.781 -750.776)" fill="#f9a825"/>
          <rect id="Rectángulo_3999" data-name="Rectángulo 3999" width="1.401" height="7.365" transform="translate(2.873 10.674)" fill="#f9a825"/>
        </g>
        <g id="Grupo_16544" data-name="Grupo 16544" transform="translate(19.096 73.255)">
          <rect id="Rectángulo_4000" data-name="Rectángulo 4000" width="5.669" height="7.882" transform="translate(0 17.24)" fill="#afc0ff"/>
          <rect id="Rectángulo_4001" data-name="Rectángulo 4001" width="5.669" height="13.107" transform="translate(9.712 12.015)" fill="#afc0ff"/>
          <rect id="Rectángulo_4002" data-name="Rectángulo 4002" width="5.669" height="17.388" transform="translate(19.423 7.734)" fill="#f9a825"/>
          <rect id="Rectángulo_4003" data-name="Rectángulo 4003" width="5.669" height="13.914" transform="translate(29.135 11.208)" fill="#afc0ff"/>
          <rect id="Rectángulo_4004" data-name="Rectángulo 4004" width="5.669" height="21.319" transform="translate(38.846 3.803)" fill="#afc0ff"/>
          <rect id="Rectángulo_4005" data-name="Rectángulo 4005" width="5.669" height="25.123" transform="translate(48.558)" fill="#f9a825"/>
        </g>
        <rect id="Rectángulo_4006" data-name="Rectángulo 4006" width="11.962" height="1.098" transform="translate(36.269 55.478)" fill="#fff"/>
        <rect id="Rectángulo_4007" data-name="Rectángulo 4007" width="18.332" height="1.097" transform="translate(36.269 57.991)" fill="#fff"/>
        <rect id="Rectángulo_4008" data-name="Rectángulo 4008" width="11.962" height="1.098" transform="translate(57.501 22.289)" fill="#fff"/>
        <rect id="Rectángulo_4009" data-name="Rectángulo 4009" width="7.489" height="1.097" transform="translate(57.501 24.802)" fill="#fff"/>
      </g>
      <g id="Grupo_16556" data-name="Grupo 16556" transform="translate(339.01 691.11)">
        <path id="Trazado_25715" data-name="Trazado 25715" d="M326.65,735.672s22.686,25.783,30.6,41.7c0,0-9.518,20.722-40.37,37.556a10.733,10.733,0,0,1-3.465-1.8c-3.264-2.332.353-4.039,1.069-4.5,7.827-5.071,21.5-26.909,21.9-28.8s-17.143-18.892-22.472-25.176S318.364,732.435,326.65,735.672Z" transform="translate(-180.753 -660.246)" fill="#ff9ea0"/>
        <path id="Trazado_25716" data-name="Trazado 25716" d="M315.613,735.065s-29.693,28.269-36.56,27.519-33.722-7.236-33.722-7.236l-2.24,5.146s26.95,15.823,39.892,15.595,29.881-12.557,29.881-12.557Z" transform="translate(-228.997 -660.37)" fill="#ff9ea0"/>
        <path id="Trazado_25717" data-name="Trazado 25717" d="M305.274,713.182s.148,3.178-1.759,3.8,1.964,7.482,1.66,12.115-2.354,6.493-2.354,6.493.986-2.549.435-4.124c0,0,.087,3.278-2.306,4.932s-1.75,3.083-1.75,3.083-5.409-1.621-5.56-5.678a10.7,10.7,0,0,0-.046,2.593s-4.672-3.507-4.894-7.548,3.677-7.45,5.453-7.513,5.74-3.548,5.633-4.867S305.274,713.182,305.274,713.182Z" transform="translate(-197.106 -675.674)" fill="#00223d"/>
        <ellipse id="Elipse_920" data-name="Elipse 920" cx="10.362" cy="26.598" rx="10.362" ry="26.598" transform="matrix(0.55, -0.835, 0.835, 0.55, 87.519, 23.451)" fill="#d9ab5b"/>
        <path id="Trazado_25718" data-name="Trazado 25718" d="M325.377,810.156c-3.4,18.032-7.785,42.564-11.165,61.755-.4,2.265-.787,4.454-1.157,6.551-.083.484-.167.965-.251,1.438H279.01c-.048-.481-.094-.962-.138-1.438a251.347,251.347,0,0,1-.362-42.792c.362-4.653.843-8.94,1.371-12.83,2.224-22.969,2.972-32.7,3.2-35.921l.049-.709.007-.121.007-.107c.005-.066.01-.122.012-.173l.007-.141c0-.049.005-.07.005-.07l11.52,3.426,5.635,1.677,1.329,4.219,2.656,8.439,19.288,6.221Z" transform="translate(-204.744 -625.03)" fill="#224954"/>
        <path id="Trazado_25719" data-name="Trazado 25719" d="M344.128,817.12c-.583,9.369-1.541,42.406-2.614,63.765q-.036.729-.071,1.438H306.405c-.107-.476-.216-.957-.323-1.438-3.72-16.727-6.765-35.506-8.947-50.751-.384.017-4.383-27.224-14.407-39.233-.09-.107-.1-.194-.048-.258.5-.637,6.859.466,6.859.466a14.175,14.175,0,0,0,1.733.34c4.811.659,11.8-.4,18.725-2.019h0c1.873-.437,3.739-.914,5.559-1.407,5.13-1.393,9.882-2.923,13.27-4.075.841-.286,1.6-.549,2.253-.778.532-.187,1-.355,1.393-.5h0c.945-.342,1.473-.54,1.473-.54s.236.209.642.641a34.125,34.125,0,0,1,6.879,12.106A56.625,56.625,0,0,1,344.128,817.12Z" transform="translate(-201.332 -627.454)" fill="#36687a"/>
        <path id="Trazado_25720" data-name="Trazado 25720" d="M293.717,705.048l22.053,33.46s2.522-4.94,5.321-3.169c4.369,2.761,13.755-6.687,11.8-20.029q-.194-1.308-.452-2.488c-4.4-6.339-9.285-13.4-12.791-18.36C309.516,688.346,293.717,705.048,293.717,705.048Z" transform="translate(-193.591 -689.708)" fill="#00223d"/>
        <path id="Trazado_25721" data-name="Trazado 25721" d="M288.014,755.187a37.663,37.663,0,0,0,12.288,7.324c19.473,7.38,29.491-8.565,33.97-19.837a17.45,17.45,0,0,0-6.527-3.018c-1.144-.3-2.342-.561-3.419-.775a2.178,2.178,0,0,1-1.393-.923c-1.857-2.8-3.737-9.906-3.061-19.889l-.981.126-16.434,2.182s.039,5.135-.252,9.945a49.472,49.472,0,0,1-.6,5.589,3.307,3.307,0,0,1-2.936,2.688h0l-.01.015A102.939,102.939,0,0,0,288.014,755.187Z" transform="translate(-197.579 -672.256)" fill="#ff9ea0"/>
        <path id="Trazado_25722" data-name="Trazado 25722" d="M296.616,720.326s.044,5.132-.251,9.945c9.1.323,14.428-7.657,16.688-12.125Z" transform="translate(-191.74 -672.203)" fill="#d46e6c"/>
        <path id="Trazado_25723" data-name="Trazado 25723" d="M296.908,736.746s21.468,1.723,22.335-11.663,4.221-22.178-9.448-23.844-16.667,3.269-18.042,7.666S291.346,735.954,296.908,736.746Z" transform="translate(-195.356 -684.258)" fill="#ff9ea0"/>
        <path id="Trazado_25724" data-name="Trazado 25724" d="M293.365,702.587c3.579-3.815,6.033-2.772,7.362-1.472,12.159-5.71,19.12,4.32,19.12,4.32a25.62,25.62,0,0,0,7.4,15.639s-4.072,2.172-12.952-.726a15.39,15.39,0,0,1-6.995-5.513,50.327,50.327,0,0,0,7.958,11.088c-10.468-5.672-13.845-20.951-14.176-22.564-1.387,1.094-4.136,3.489-5.083,5.948-1.288,3.339-2.218,10.327-4.248,9.958C291.752,719.266,288,708.309,293.365,702.587Z" transform="translate(-195.857 -685.343)" fill="#00223d"/>
        <path id="Trazado_25725" data-name="Trazado 25725" d="M331.773,723.3s9.984-19.872-3.968-27.728-24.163-4.77-31.839,4.836Z" transform="translate(-192.018 -691.11)" fill="#f9a825"/>
        <path id="Trazado_25726" data-name="Trazado 25726" d="M347.862,769.959c.765.8,1.242,1.246,1.242,1.246,16.261-2.026,17.026-18.724,17.026-18.724S353.4,735.7,341.517,732a62.381,62.381,0,0,0-7.231-1.568c-3.718,3.083-8,7.6-12.03,11.275-4.644,4.236-12.638,5.676-15.595-1.839-1.185-3.008,1.664-9.255,1.956-9.7l.008-.015c-.3.02-.6.042-.892.063-1.458.115-2.77.294-3.963.413-5.8.583-13.809,4.427-30,24.913,0,0,8.747,10.8,17.631,11.432-.357,17.113,1.48,44.985,1.48,44.985-3.88,7.634,53.781,25.314,56.271,18.034,3.733-5.7.008-16.6-3.219-24.958-.79-2.039-.965-4.214-1.669-5.791a19.129,19.129,0,0,1-1.074-3.12,18.476,18.476,0,0,1-.185-8.2A176.36,176.36,0,0,1,347.862,769.959Z" transform="translate(-207.537 -663.808)" fill="#e35c3d"/>
        <path id="Trazado_25727" data-name="Trazado 25727" d="M341.586,719.091q-.63-.648-1.3-1.3l0,0a95.735,95.735,0,0,0-16.093-12.439,100.139,100.139,0,0,0-14.857-7.683h0q-1.4-.579-2.773-1.076c-10.862-3.973-19.617-4.276-22.268-.029-2.8,4.479,1.936,12.822,11.2,21.284l0,0c-.007-.075-.017-.146-.024-.218s-.012-.146-.019-.221l-.022-.257-.014-.19c-.005-.105-.014-.211-.02-.318-.007-.134-.014-.268-.019-.406l0-.048c-.005-.1-.008-.2-.01-.3V715.8c0-.066,0-.131,0-.2,0-.235,0-.476.005-.712,0-.085,0-.17.008-.255,0-.047,0-.1,0-.143.005-.08.008-.16.015-.236.007-.146.017-.289.029-.433s.026-.287.041-.435l0-.024c.005-.053.012-.105.017-.155.005-.034.007-.068.012-.1.015-.1.027-.2.041-.3.022-.165.048-.328.08-.491l.014-.081c.034-.2.071-.386.117-.578.02-.1.044-.192.068-.286l.007-.036c-.991-2.087-1.171-3.89-.362-5.185.935-1.5,3.064-2.109,5.955-1.919h.005l.24.019h0a23.176,23.176,0,0,1,3.477.559h0c.294.066.588.139.89.218,1.093.289,2.241.646,3.431,1.076h.015a61.088,61.088,0,0,1,11.4,5.642c1.633,1.02,3.179,2.078,4.626,3.156h0c.144.107.287.216.43.323,6.682,5.069,11.1,10.516,11.6,14.278a3.826,3.826,0,0,1-.461,2.607c-.036.058-.075.112-.117.168l-.015.024a3.5,3.5,0,0,1-1.162,1l-.005,0a2.15,2.15,0,0,1-.2.1h0a6.142,6.142,0,0,1-1.7.518h-.005c-.061.051-.124.1-.187.146-.044.036-.094.071-.141.105s-.092.068-.139.1c-.014.01-.029.02-.042.032-.082.053-.161.107-.24.16-.126.082-.252.158-.377.233-.061.036-.124.073-.187.105s-.124.068-.187.1c-.083.044-.165.085-.25.122a.962.962,0,0,1-.094.044c-.031.014-.061.026-.093.041l-.005,0-.02.01-.116.048c-.058.022-.112.046-.17.065-.073.025-.143.052-.211.075s-.134.043-.2.06l-.019.007c-.054.015-.107.029-.163.041a.517.517,0,0,1-.059.017c-.051.012-.1.024-.153.034s-.126.024-.19.034c-.037.007-.076.012-.116.015s-.09.012-.136.017-.117.012-.177.015c-.025,0-.049,0-.073,0h-.029a.2.2,0,0,1-.046,0h-.015c-.022,0-.041,0-.063,0a3.774,3.774,0,0,1-.462-.029,3.52,3.52,0,0,1-.445-.088c-.071-.022-.143-.044-.212-.068-.053-.019-.105-.041-.156-.061s-.076-.032-.116-.051-.061-.029-.092-.046a.639.639,0,0,1-.083-.043c-.054-.029-.107-.059-.16-.093a2.878,2.878,0,0,0-.328-.179c-.037-.017-.073-.03-.105-.044l-.044-.017a1.16,1.16,0,0,0-.158-.053,2.132,2.132,0,0,0-.619-.092h-.029l-.022,0h-.029c-.026,0-.049,0-.076.005a.239.239,0,0,0-.049,0q-.069.005-.133.015l-.014,0a.4.4,0,0,0-.061.012.649.649,0,0,0-.1.022c-.034.007-.068.017-.1.026s-.08.022-.121.036l-.078.029a.983.983,0,0,0-.117.046h0c-.031.012-.06.024-.09.039s-.058.026-.085.041-.065.032-.1.049l-.093.051-.1.058-.092.058c-.031.019-.061.037-.094.059a.759.759,0,0,0-.09.065,2.2,2.2,0,0,0-.178.134c-.031.022-.06.046-.087.07s-.056.048-.085.075c-.058.048-.114.1-.168.148s-.11.1-.163.156c-.027.026-.053.053-.08.082s-.053.053-.076.078-.058.058-.083.087h0q1.575.653,3.1,1.2a56.519,56.519,0,0,0,9.09,2.532c6.41,1.152,11.209.4,13.053-2.552C352.092,733.386,348.729,726.463,341.586,719.091Z" transform="translate(-200.742 -689.445)" fill="#f9a825"/>
        <path id="Trazado_25728" data-name="Trazado 25728" d="M311.553,790.394c8.3,2.661,4.429-1.893,10.844-1.429-.79-2.041-1.376-3.89-2.08-5.467a19.129,19.129,0,0,1-1.074-3.12,18.476,18.476,0,0,1-.185-8.2,159.34,159.34,0,0,1,4.852-17.964c-1.835-4.823-9.668,3.084-9.668,3.084s-7.253,7.618-5.355,20.574C310.656,789.947,304.387,788.1,311.553,790.394Z" transform="translate(-183.584 -648.066)" fill="#ba5d08"/>
        <path id="Trazado_25729" data-name="Trazado 25729" d="M322.237,731.617A42.634,42.634,0,0,0,305.4,758.254l-4.056-1.288s1.709-13.019,17.221-26.265c0,0,1.169.231,1.56.33C320.65,731.162,322.237,731.617,322.237,731.617Z" transform="translate(-188.258 -663.422)" fill="#36687a"/>
        <path id="Trazado_25730" data-name="Trazado 25730" d="M285.767,759.07l4.245.279a43.071,43.071,0,0,1,9.336-29.161c-1.458.116-2.777.257-3.963.413C286.768,743.761,285.767,759.07,285.767,759.07Z" transform="translate(-199.151 -663.781)" fill="#36687a"/>
        <path id="Trazado_25731" data-name="Trazado 25731" d="M319.292,759.864c.263-1.116,2.86-11.962,2.86-11.962s.6-3.39-5.358-3.725-27.1-1.449-27.1-1.449a6.588,6.588,0,0,0-2.925,5.305c-.042,3.567-2.919,23.978-2.919,23.978L280.893,816.9l64.463,27.778s4.42-22.688-.53-38.5c-2.886-9.224-6.607-18.853-6.607-18.853S315.281,776.909,319.292,759.864Z" transform="translate(-202.559 -655.011)" fill="#36687a"/>
        <g id="Grupo_16547" data-name="Grupo 16547" transform="translate(113.523 90.838)">
          <g id="Grupo_16546" data-name="Grupo 16546">
            <path id="Trazado_25732" data-name="Trazado 25732" d="M305.259,746.942a1.781,1.781,0,1,0-2.236,1.159A1.782,1.782,0,0,0,305.259,746.942Z" transform="translate(-301.476 -744.525)" fill="#df750d"/>
            <path id="Trazado_25733" data-name="Trazado 25733" d="M305.078,746.885a1.78,1.78,0,1,0-2.235,1.159A1.781,1.781,0,0,0,305.078,746.885Z" transform="translate(-301.601 -744.565)" fill="#ec9037"/>
          </g>
          <path id="Trazado_25734" data-name="Trazado 25734" d="M303.511,745.718a.258.258,0,1,0-.258.26A.261.261,0,0,0,303.511,745.718Z" transform="translate(-300.626 -743.938)" fill="#35488b"/>
          <path id="Trazado_25735" data-name="Trazado 25735" d="M302.517,745.72a.259.259,0,1,0-.258.258A.26.26,0,0,0,302.517,745.72Z" transform="translate(-301.322 -743.937)" fill="#35488b"/>
        </g>
        <g id="Grupo_16549" data-name="Grupo 16549" transform="translate(87.312 88.576)">
          <g id="Grupo_16548" data-name="Grupo 16548">
            <path id="Trazado_25736" data-name="Trazado 25736" d="M289.835,745.611a1.781,1.781,0,1,0-2.236,1.159A1.781,1.781,0,0,0,289.835,745.611Z" transform="translate(-286.051 -743.194)" fill="#df750d"/>
            <path id="Trazado_25737" data-name="Trazado 25737" d="M289.654,745.554a1.78,1.78,0,1,0-2.236,1.159A1.781,1.781,0,0,0,289.654,745.554Z" transform="translate(-286.176 -743.234)" fill="#ec9037"/>
          </g>
          <path id="Trazado_25738" data-name="Trazado 25738" d="M288.087,744.387a.259.259,0,1,0-.258.258A.26.26,0,0,0,288.087,744.387Z" transform="translate(-285.202 -742.607)" fill="#35488b"/>
          <path id="Trazado_25739" data-name="Trazado 25739" d="M287.093,744.388a.259.259,0,1,0-.518,0,.259.259,0,1,0,.518,0Z" transform="translate(-285.897 -742.607)" fill="#35488b"/>
        </g>
        <path id="Trazado_25740" data-name="Trazado 25740" d="M322.116,714.682s.148,3.179-1.759,3.8,1.964,7.481,1.662,12.115-2.354,6.492-2.354,6.492.984-2.547.433-4.124c0,0,.088,3.278-2.306,4.932s-1.75,3.083-1.75,3.083-5.409-1.62-5.56-5.678a10.713,10.713,0,0,0-.046,2.595s-4.67-3.507-4.892-7.549,3.676-7.452,5.452-7.513,5.74-3.55,5.633-4.867S322.116,714.682,322.116,714.682Z" transform="translate(-185.326 -674.625)" fill="#00223d"/>
        <g id="Grupo_16553" data-name="Grupo 16553" transform="translate(67.104 127.336)">
          <g id="Grupo_16550" data-name="Grupo 16550" transform="translate(2.571)">
            <path id="Trazado_25741" data-name="Trazado 25741" d="M334.581,799.275H291.5a5.451,5.451,0,0,1-4.592-3.266l-10.845-26.7c-.732-1.8.134-3.266,1.939-3.266h43.084a5.454,5.454,0,0,1,4.592,3.266l10.847,26.7C337.252,797.813,336.384,799.275,334.581,799.275Z" transform="translate(-275.798 -766.042)" fill="#a8c7ff"/>
          </g>
          <g id="Grupo_16552" data-name="Grupo 16552">
            <path id="Trazado_25742" data-name="Trazado 25742" d="M333.067,799.275H289.982a5.451,5.451,0,0,1-4.592-3.266l-10.845-26.7c-.732-1.8.136-3.266,1.939-3.266h43.084a5.454,5.454,0,0,1,4.592,3.266l10.847,26.7C335.739,797.813,334.871,799.275,333.067,799.275Z" transform="translate(-274.285 -766.042)" fill="#7aa1ff"/>
            <g id="Grupo_16551" data-name="Grupo 16551" transform="translate(3.56 2.048)">
              <path id="Trazado_25743" data-name="Trazado 25743" d="M277.383,767.247h0a2.5,2.5,0,0,1,2.1,1.492h0c.333.821-.066,1.49-.885,1.49h0a2.5,2.5,0,0,1-2.1-1.49h0C276.164,767.918,276.562,767.247,277.383,767.247Z" transform="translate(-276.38 -767.247)" fill="#35488b"/>
              <path id="Trazado_25744" data-name="Trazado 25744" d="M280,767.613h0a1.455,1.455,0,0,1,1.224.87h0c.2.479-.037.87-.517.87h0a1.46,1.46,0,0,1-1.224-.87h0C279.286,768,279.519,767.613,280,767.613Z" transform="translate(-274.259 -766.991)" fill="#35488b"/>
            </g>
          </g>
          <path id="Trazado_25745" data-name="Trazado 25745" d="M289.78,776.642c-.719-1.771.133-3.2,1.9-3.2a5.351,5.351,0,0,1,4.507,3.2c.719,1.769-.134,3.2-1.9,3.2A5.35,5.35,0,0,1,289.78,776.642Z" transform="translate(-263.627 -760.87)" fill="#a8c7ff"/>
        </g>
        <g id="Grupo_16554" data-name="Grupo 16554" transform="translate(111.839 143.389)">
          <path id="Trazado_25746" data-name="Trazado 25746" d="M316.818,780.8s-5.924-3.378-7.353-4.938c-.921-1.008-.975.287-.918.651a5,5,0,0,0,1.914,3.557C312.888,782.056,316.818,780.8,316.818,780.8Z" transform="translate(-295.069 -775.489)" fill="#ff9ea0"/>
          <path id="Trazado_25747" data-name="Trazado 25747" d="M322.359,779.83s-10.686-3.21-13.148-2.932-8.08,2.031-8.534,2.488,1.482.938,2.955.508a12.577,12.577,0,0,1,4.857.068A75.567,75.567,0,0,0,301,781.921a.22.22,0,0,0-.048.372,3.873,3.873,0,0,0,2.607.279,45.656,45.656,0,0,1,5.241-.218l-6.809,1.48a.182.182,0,0,0-.146.18c.012.325.556.671,2.146.743a52.062,52.062,0,0,0,5.378-.557l-3.7,1.953a3.221,3.221,0,0,0,2.785.017c1.3-.427,5.161-1.4,6.053-1.206s5.344,1.76,7.448,1.492a12.1,12.1,0,0,0,2.945-.651Z" transform="translate(-300.61 -774.515)" fill="#ff9ea0"/>
        </g>
        <g id="Grupo_16555" data-name="Grupo 16555" transform="translate(0 84.787)">
          <path id="Trazado_25748" data-name="Trazado 25748" d="M251.131,750.408s-5.361-5.727-7.331-6.41-9-1.869-9-1.869.027,1.682,3.174,2.843,3.807,6.619,5.669,8.165,6.782,2.88,6.782,2.88Z" transform="translate(-234.797 -740.217)" fill="#ff9ea0"/>
          <path id="Trazado_25749" data-name="Trazado 25749" d="M247.583,752.1s-5.224-.228-6.92-1.295-4.461-2.459-3.929-3.309,6.294-.207,6.294-.207Z" transform="translate(-233.489 -736.768)" fill="#ff9ea0"/>
          <path id="Trazado_25750" data-name="Trazado 25750" d="M242.893,745.784c-.274-.124-7.239-4.78-7.239-4.78s-.586,2.207.44,2.625S242.893,745.784,242.893,745.784Z" transform="translate(-234.315 -741.004)" fill="#ff9ea0"/>
        </g>
        <path id="Trazado_25751" data-name="Trazado 25751" d="M344.041,770.3a116.427,116.427,0,0,1-27.159,20.107,10.673,10.673,0,0,1-3.465-1.8c-3.263-2.33.353-4.038,1.067-4.5,3.547-2.3,8.3-8.041,12.468-13.811Z" transform="translate(-180.753 -635.728)" fill="#ff9ea0"/>
        <path id="Trazado_25752" data-name="Trazado 25752" d="M300.954,713.4a3.276,3.276,0,1,0,3.849,2.563A3.279,3.279,0,0,0,300.954,713.4Z" transform="translate(-190.366 -675.571)" fill="#ff8587"/>
        <path id="Trazado_25753" data-name="Trazado 25753" d="M292.348,718.369a3.281,3.281,0,0,0-.981-6.057S291.258,716.2,292.348,718.369Z" transform="translate(-195.236 -676.283)" fill="#ff8587"/>
        <path id="Trazado_25754" data-name="Trazado 25754" d="M293.4,714.789l5.565.155s-1.467,2.641-3.071,2.314S293.4,714.789,293.4,714.789Z" transform="translate(-193.815 -674.55)" fill="#fff"/>
        <path id="Trazado_25755" data-name="Trazado 25755" d="M295.935,711.891l.01,3.652-1.857-.367a.46.46,0,0,1-.263-.746Z" transform="translate(-193.591 -676.577)" fill="#d46e6c"/>
        <path id="Trazado_25756" data-name="Trazado 25756" d="M300.154,710.945c.554.5-.153-1.511-.952-1.828a1.464,1.464,0,0,0-1.944.68A4.562,4.562,0,0,1,300.154,710.945Z" transform="translate(-191.114 -678.605)"/>
        <path id="Trazado_25757" data-name="Trazado 25757" d="M292.846,710.457c-.654.354.5-1.434,1.348-1.558a1.463,1.463,0,0,1,1.735,1.108A4.571,4.571,0,0,0,292.846,710.457Z" transform="translate(-194.335 -678.683)"/>
        <path id="Trazado_25758" data-name="Trazado 25758" d="M297.585,712.606c-.105.635-.438,1.11-.746,1.059s-.472-.607-.367-1.242.437-1.11.744-1.059S297.689,711.97,297.585,712.606Z" transform="translate(-191.686 -676.949)"/>
        <path id="Trazado_25759" data-name="Trazado 25759" d="M294.735,712.263c-.1.609-.418,1.061-.712,1.013s-.45-.58-.352-1.186.418-1.06.712-1.011S294.835,711.656,294.735,712.263Z" transform="translate(-193.643 -677.148)"/>
      </g>
      <path id="Trazado_25760" data-name="Trazado 25760" d="M153.25,849.395h-52.2l-.02-.058c-.065-.17-.151-.4-.262-.693l-.044-.087v-.042a.163.163,0,0,1-.042-.088,12.152,12.152,0,0,1-.483-1.225c-.088-.221-.175-.484-.306-.746v-.088l-.044-.044c-.6-1.563-1.348-3.6-2.207-6.06-.078-.223-.156-.447-.238-.675-.646-1.859-1.354-3.941-2.111-6.233q-.523-1.614-1.072-3.368c5.159-1.438,11.9-2.427,17.908-.478a22.687,22.687,0,0,1,8.548,4.981c4.131,3.759,5.839,7.475,10.65,6.029a17.327,17.327,0,0,1,4.169-.639C143.236,839.532,153.944,842.8,153.25,849.395Z" transform="translate(5.898 96.029)" fill="#4e8976"/>
      <line id="Línea_77" data-name="Línea 77" x2="498.019" transform="translate(92.87 945.98)" fill="none" stroke="#00223d" stroke-linejoin="round" stroke-width="2"/>
    </g>
  </g>
</svg>
