<svg xmlns="http://www.w3.org/2000/svg" width="119" height="119" viewBox="0 0 119 119">
  <g id="Grupo_17098" data-name="Grupo 17098" transform="translate(-656 3954)">
    <rect id="Rectángulo_4233" data-name="Rectángulo 4233" width="119" height="119" transform="translate(656 -3954)" fill="none"/>
    <g id="Grupo_17094" data-name="Grupo 17094" transform="translate(-53 -281.054)">
      <g id="Grupo_17054" data-name="Grupo 17054" transform="translate(724 -3657.946)">
        <g id="Grupo_17052" data-name="Grupo 17052" transform="translate(1.256 1.25)">
          <path id="Trazado_26847" data-name="Trazado 26847" d="M915.3-413.762c.209-.424.552-.424.762,0l4.713,9.545a1.84,1.84,0,0,0,1.232.9l10.542,1.53c.468.068.575.394.235.724l-7.627,7.43a1.833,1.833,0,0,0-.471,1.448l1.8,10.49c.079.467-.2.668-.616.448l-9.429-4.953a1.838,1.838,0,0,0-1.523,0l-9.43,4.953c-.419.22-.7.019-.616-.448l1.8-10.49a1.839,1.839,0,0,0-.471-1.448l-7.628-7.43c-.339-.33-.232-.656.235-.724l10.541-1.53a1.838,1.838,0,0,0,1.232-.9Z" transform="translate(-898.38 414.08)" fill="#fed953"/>
          <g id="Grupo_17051" data-name="Grupo 17051" transform="translate(16.922)">
            <path id="Trazado_26848" data-name="Trazado 26848" d="M918.73-413.762c-.21-.424-.553-.424-.762,0" transform="translate(-917.968 414.08)" fill="#e0b93f"/>
            <path id="Trazado_26849" data-name="Trazado 26849" d="M935.843-399.285c.34-.33.233-.656-.235-.724l-6.65-.965c.263.127.279.39.005.657l-7.627,7.43a1.836,1.836,0,0,0-.471,1.448l1.459,8.5,6.606,3.47c.418.22.7.019.616-.448l-1.8-10.49a1.836,1.836,0,0,1,.471-1.448Z" transform="translate(-918.36 412.297)" fill="#e0b93f"/>
          </g>
          <path id="Trazado_26850" data-name="Trazado 26850" d="M912.815-368.177h26.493v-13.649c0-5.142.6-16.94,8.267-16.94,4.225,0,4.146,4.56,4.146,7.619,0,4.106-.511,8.552.725,12.532,2.2,7.067,9.011,11,16.155,11.075l1.148,17.723L968.6-334.809a28.18,28.18,0,0,1-20.43,8.3H912.815v-41.668Z" transform="translate(-900.344 411.996)" fill="#ffe4c2"/>
          <path id="Trazado_26851" data-name="Trazado 26851" d="M957.446-378.615c-1.236-3.98-.725-8.426-.725-12.532,0-3.059.079-7.619-4.146-7.619a6.43,6.43,0,0,0-1.972.3c2.562,1.055,2.506,4.728,2.506,7.323,0,4.106-.512,8.552.724,12.532,2.2,7.067,5.516,10.377,10.252,15.727,9.288,10.492,8.084,36.379-14.526,36.379h3.612a28.177,28.177,0,0,0,20.429-8.3l1.149-15.008L973.6-367.54C966.456-367.615,959.641-371.548,957.446-378.615Z" transform="translate(-905.345 411.996)" fill="#f2d0a5"/>
          <path id="Trazado_26852" data-name="Trazado 26852" d="M978.253-324.044a.862.862,0,0,1-.86-.86v-40.548a.862.862,0,0,1,.86-.86h15.506a.863.863,0,0,1,.86.86V-324.9a.863.863,0,0,1-.86.86Z" transform="translate(-909.132 407.58)" fill="#c3ddff"/>
          <path id="Trazado_26853" data-name="Trazado 26853" d="M995.253-366.311h-6.88a.863.863,0,0,1,.861.86V-324.9a.863.863,0,0,1-.861.86h6.88a.863.863,0,0,0,.86-.86v-40.548A.863.863,0,0,0,995.253-366.311Z" transform="translate(-910.627 407.58)" fill="#a4ccff"/>
          <path id="Trazado_26854" data-name="Trazado 26854" d="M929.032-321.99a5.211,5.211,0,0,1-5.212,5.209H909.575a5.21,5.21,0,0,1-5.212-5.209h0a5.209,5.209,0,0,1,5.212-5.209H923.82a5.21,5.21,0,0,1,5.212,5.209Z" transform="translate(-899.194 402.257)" fill="#ffe4c2"/>
          <path id="Trazado_26855" data-name="Trazado 26855" d="M925.4-326.931a5.226,5.226,0,0,1,.231,1.538,5.211,5.211,0,0,1-5.212,5.209H906.171a5.219,5.219,0,0,1-1.541-.232,5.212,5.212,0,0,0,4.981,3.672h14.245a5.211,5.211,0,0,0,5.212-5.209A5.211,5.211,0,0,0,925.4-326.931Z" transform="translate(-899.231 402.221)" fill="#f2d0a5"/>
          <path id="Trazado_26856" data-name="Trazado 26856" d="M930.523-334.049a5.211,5.211,0,0,1-5.214,5.209H904.65a5.212,5.212,0,0,1-5.213-5.209h0a5.18,5.18,0,0,1,5.177-5.209h20.7a5.211,5.211,0,0,1,5.214,5.209Z" transform="translate(-898.524 403.898)" fill="#ffe4c2"/>
          <path id="Trazado_26857" data-name="Trazado 26857" d="M926.889-338.99a5.2,5.2,0,0,1,.232,1.538,5.212,5.212,0,0,1-5.215,5.209h-20.66a5.191,5.191,0,0,1-1.541-.232,5.215,5.215,0,0,0,4.981,3.673h20.66a5.212,5.212,0,0,0,5.214-5.209A5.213,5.213,0,0,0,926.889-338.99Z" transform="translate(-898.56 403.862)" fill="#f2d0a5"/>
          <path id="Trazado_26858" data-name="Trazado 26858" d="M933.248-346.108a5.212,5.212,0,0,1-5.213,5.209H903.593a5.212,5.212,0,0,1-5.213-5.209h0a5.211,5.211,0,0,1,5.213-5.209h24.442a5.211,5.211,0,0,1,5.213,5.209Z" transform="translate(-898.38 405.539)" fill="#ffe4c2"/>
          <path id="Trazado_26859" data-name="Trazado 26859" d="M929.613-351.049a5.224,5.224,0,0,1,.231,1.537,5.212,5.212,0,0,1-5.213,5.209H900.189a5.219,5.219,0,0,1-1.541-.232,5.215,5.215,0,0,0,4.981,3.672h24.442a5.212,5.212,0,0,0,5.213-5.209A5.213,5.213,0,0,0,929.613-351.049Z" transform="translate(-898.417 405.503)" fill="#f2d0a5"/>
          <path id="Trazado_26860" data-name="Trazado 26860" d="M930.28-358.149a5.212,5.212,0,0,1-5.214,5.209H908.135a5.212,5.212,0,0,1-5.215-5.209h0a5.212,5.212,0,0,1,5.215-5.209h16.932a5.212,5.212,0,0,1,5.214,5.209Z" transform="translate(-898.998 407.178)" fill="#ffe4c2"/>
          <path id="Trazado_26861" data-name="Trazado 26861" d="M926.645-363.09a5.2,5.2,0,0,1,.232,1.538,5.212,5.212,0,0,1-5.214,5.209H904.731a5.208,5.208,0,0,1-1.544-.232,5.216,5.216,0,0,0,4.984,3.673H925.1a5.212,5.212,0,0,0,5.214-5.209A5.212,5.212,0,0,0,926.645-363.09Z" transform="translate(-899.034 407.141)" fill="#f2d0a5"/>
          <circle id="Elipse_998" data-name="Elipse 998" cx="3.182" cy="3.182" r="3.182" transform="translate(73.692 47.075)" fill="#f0eef0"/>
        </g>
        <g id="Grupo_17053" data-name="Grupo 17053">
          <path id="Trazado_26862" data-name="Trazado 26862" d="M905.1-392.922a.707.707,0,0,1,.109.315l-1.8,10.491a1.678,1.678,0,0,0,2.487,1.807l9.418-4.948a.711.711,0,0,1,.335-.006l9.428,4.954a1.684,1.684,0,0,0,2.487-1.808l-1.8-10.477a.7.7,0,0,1,.1-.319l7.628-7.43a1.683,1.683,0,0,0-.949-2.924l-10.529-1.528a.69.69,0,0,1-.274-.191l-4.714-9.545a1.684,1.684,0,0,0-3.075,0L909.239-405a.7.7,0,0,1-.267.2l-10.542,1.53a1.684,1.684,0,0,0-.95,2.924Zm4.244-9.321a3.139,3.139,0,0,0,2.2-1.6l3.939-7.975,3.937,7.974a3.136,3.136,0,0,0,2.2,1.6l8.8,1.279-6.37,6.2a3.137,3.137,0,0,0-.842,2.59l1.5,8.763-7.876-4.138a3.136,3.136,0,0,0-2.723,0l-7.878,4.138,1.5-8.763a3.133,3.133,0,0,0-.841-2.59l-6.37-6.2Z" transform="translate(-896.926 415.527)" fill="#00223d"/>
          <path id="Trazado_26863" data-name="Trazado 26863" d="M982.817-372.221H967.31a2.152,2.152,0,0,0-2.15,2.149,4.152,4.152,0,0,1,0,.977c-8.149-.67-13.937-6.519-14.362-14.657-.246-4.718,2.281-16.508-5.378-16.508-4.913,0-7.194,4.052-8.243,7.451a37.407,37.407,0,0,0-1.314,10.777,1.291,1.291,0,0,0,2.581,0,34.915,34.915,0,0,1,1.2-10.017c1.169-3.789,3.058-5.631,5.777-5.631,3.145,0,2.86,4.151,2.856,6.328-.008,4.166-.486,8.431.666,12.5,2.054,7.256,8.87,11.83,16.213,12.345v30.978A27.473,27.473,0,0,1,946.016-328H927.991a6.546,6.546,0,0,0-.443-8.38,6.555,6.555,0,0,0,2.343-10.218c6.078-2.019,5.671-11.043-.569-12.5a6.542,6.542,0,0,0,.121-7.994h6.409a35.449,35.449,0,0,0,1.737,10.395c2.712,8.053,8.279,12.8,16.1,13.719a1.29,1.29,0,0,0,.3-2.561c-9.422-1.112-14.161-9.135-15.284-17.911-.535-4.178-.262-8.518-.262-12.719a1.291,1.291,0,0,0-2.58,0v6.5H907.327a6.551,6.551,0,0,0-5.111,10.513,6.549,6.549,0,0,0-2.2,11.932,6.556,6.556,0,0,0,3.425,11.313,6.551,6.551,0,0,0,5.134,10.48l37.446.01a30.142,30.142,0,0,0,19.143-6.629v2.529a2.152,2.152,0,0,0,2.149,2.149h5.412a1.291,1.291,0,0,0,0-2.58H967.74v-39.687h14.647v39.687h-3.972a1.291,1.291,0,0,0,0,2.58h4.4a2.152,2.152,0,0,0,2.149-2.149v-40.548A2.152,2.152,0,0,0,982.817-372.221Zm-75.49,5.131h16.932a3.926,3.926,0,0,1,3.924,3.92,3.926,3.926,0,0,1-3.573,3.9H906.976a3.926,3.926,0,0,1-3.574-3.9A3.926,3.926,0,0,1,907.327-367.09ZM903.4-348.849a3.926,3.926,0,0,1-3.922-3.92,3.925,3.925,0,0,1,3.922-3.919h24.442a3.925,3.925,0,0,1,3.923,3.919,3.926,3.926,0,0,1-3.923,3.92Zm-3.009,6.5a3.908,3.908,0,0,1,3.867-3.92H925a3.927,3.927,0,0,1,3.9,3.92,3.926,3.926,0,0,1-3.924,3.919h-20.66A3.925,3.925,0,0,1,900.394-342.35Zm4.255,10.418a3.925,3.925,0,0,1,3.922-3.92h14.245a3.925,3.925,0,0,1,3.922,3.92,3.925,3.925,0,0,1-3.922,3.92H908.571A3.925,3.925,0,0,1,904.649-331.932Z" transform="translate(-896.934 413.45)" fill="#00223d"/>
          <path id="Trazado_26864" data-name="Trazado 26864" d="M991.131-356.612a4.478,4.478,0,0,0-4.473-4.473,4.477,4.477,0,0,0-4.472,4.473,4.477,4.477,0,0,0,4.472,4.472A4.477,4.477,0,0,0,991.131-356.612Zm-4.473,1.892a1.894,1.894,0,0,1-1.892-1.892,1.894,1.894,0,0,1,1.892-1.892,1.894,1.894,0,0,1,1.892,1.892A1.894,1.894,0,0,1,986.659-354.72Z" transform="translate(-908.528 408.118)" fill="#00223d"/>
        </g>
      </g>
    </g>
  </g>
</svg>
