<svg xmlns="http://www.w3.org/2000/svg" width="151" height="151" viewBox="0 0 151 151">
  <g id="Grupo_17153" data-name="Grupo 17153" transform="translate(-633 -449)">
    <g id="Grupo_17066" data-name="Grupo 17066" transform="translate(-369.458 986.799)">
      <g id="_Group_" data-name="&lt;Group&gt;" transform="translate(1015.343 -516.817)">
        <path id="Trazado_26894" data-name="Trazado 26894" d="M1021.67-516.8a6.368,6.368,0,0,0-1.26.126c-2.875.584-4.255,3.127-4.255,6.174l.137,39.75a6.3,6.3,0,0,0,6.3,6.3l3.789-.1a2.87,2.87,0,0,1,2.869,2.87s.088,4.081.088,7c0,1.12-.21,3,.91,3l1.119-.968a2.028,2.028,0,0,0,1.435-.595l9.145-9.865a5.743,5.743,0,0,1,4.059-1.681l30.292-.1c5.547,0,9.321-3.978,9.321-9.525l1.062-5.165V-510.5a6.3,6.3,0,0,0-6.3-6.3Z" transform="translate(-1015.371 516.797)" fill="#ffe07d"/>
        <path id="Trazado_26895" data-name="Trazado 26895" d="M1086.672-479.58h-11.087a11.354,11.354,0,0,0-11.265,10.074,1,1,0,0,1-.988.9h-16.969a10.7,10.7,0,0,0-7.619,3.157l-3.535,3.533a1.26,1.26,0,0,1-2.114-.6,7.99,7.99,0,0,0-7.688-6.093h-3.745a1.262,1.262,0,0,1-1.26-1.26V-516.67a6.3,6.3,0,0,0-5.039,6.173v40.633a6.3,6.3,0,0,0,6.3,6.3h3.745a2.87,2.87,0,0,1,2.869,2.867v7.867a2.081,2.081,0,0,0,1.933,2.1,2.024,2.024,0,0,0,1.53-.593l10.568-10.565a5.736,5.736,0,0,1,4.057-1.681h30.265a10.126,10.126,0,0,0,8.711-5.039h0a10,10,0,0,0,1.338-5v-5.971Z" transform="translate(-1015.363 516.796)" fill="#ffd064"/>
        <path id="Trazado_26896" data-name="Trazado 26896" d="M1134.877-474.092a6.3,6.3,0,0,1,6.3,6.3v40.632a6.3,6.3,0,0,1-6.3,6.3l-3.524-.75c-1.584,0-3.994.968-3.994,2.552,0,0-.148,3.742-.148,6.658a2.029,2.029,0,0,1-2.029,2.028,2.026,2.026,0,0,1-1.435-.595l-8.7-9.534a5.745,5.745,0,0,0-4.059-1.681l-33.669-.026a6.3,6.3,0,0,1-6.3-6.3l-.359-39.275c0-3.045,1.37-5.594,4.241-6.181a6.305,6.305,0,0,1,1.269-.129Z" transform="translate(-1015.945 516.347)" fill="#f5fcff"/>
        <path id="Trazado_26897" data-name="Trazado 26897" d="M1141.042-425.9a6.3,6.3,0,0,1-6.173,5.04h-3.744a2.87,2.87,0,0,0-2.87,2.869v7.944a2.028,2.028,0,0,1-2.029,2.028,2.024,2.024,0,0,1-1.434-.595l-10.567-10.565a5.728,5.728,0,0,0-4.057-1.683h-34.009a6.3,6.3,0,0,1-6.3-6.3v-40.631a6.3,6.3,0,0,1,5.039-6.173v46.8a1.26,1.26,0,0,0,1.26,1.26h34.009a10.706,10.706,0,0,1,7.62,3.157l3.527,3.528a1.263,1.263,0,0,0,2.116-.6,8.038,8.038,0,0,1,7.693-6.083Z" transform="translate(-1015.937 516.346)" fill="#e6f7fe"/>
      </g>
      <g id="Grupo_17065" data-name="Grupo 17065" transform="translate(1013.453 -518.707)">
        <g id="Grupo_17064" data-name="Grupo 17064">
          <path id="Trazado_26898" data-name="Trazado 26898" d="M1038.048-514.927h42.543a4.414,4.414,0,0,1,4.41,4.409v20.872a1.89,1.89,0,0,0,1.89,1.89,1.89,1.89,0,0,0,1.89-1.89v-20.872a8.2,8.2,0,0,0-8.19-8.189h-42.543a1.89,1.89,0,0,0-1.89,1.89A1.89,1.89,0,0,0,1038.048-514.927Z" transform="translate(-1013.692 518.707)" fill="#00223d"/>
          <path id="Trazado_26899" data-name="Trazado 26899" d="M1141.149-455.227a1.89,1.89,0,0,0-1.89,1.89v26.375a4.416,4.416,0,0,1-4.41,4.41H1131.1a4.764,4.764,0,0,0-4.759,4.759v7.943a.144.144,0,0,1-.237.1l-10.566-10.566a7.582,7.582,0,0,0-5.395-2.234h-34.009a4.415,4.415,0,0,1-4.409-4.41v-10.677a1.891,1.891,0,0,0-1.89-1.89,1.89,1.89,0,0,0-1.89,1.89v10.677a8.2,8.2,0,0,0,8.189,8.189h34.008a3.823,3.823,0,0,1,2.722,1.128l10.567,10.567a3.894,3.894,0,0,0,2.771,1.148,3.924,3.924,0,0,0,3.919-3.918v-7.943a.981.981,0,0,1,.979-.981h3.744a8.2,8.2,0,0,0,8.189-8.189v-26.375a1.89,1.89,0,0,0-1.889-1.89Z" transform="translate(-1014.027 518.038)" fill="#00223d"/>
          <path id="Trazado_26900" data-name="Trazado 26900" d="M1134.275-476.451h-45.733v-4.382a1.89,1.89,0,0,0-1.89-1.89,1.89,1.89,0,0,0-1.89,1.89v4.382h-9.2a8.2,8.2,0,0,0-8.189,8.189v2.785h-21.032a7.579,7.579,0,0,0-5.395,2.235l-10.566,10.566a.144.144,0,0,1-.238-.1v-7.942a4.765,4.765,0,0,0-4.759-4.76h-3.745a4.414,4.414,0,0,1-4.409-4.409v-40.633a4.414,4.414,0,0,1,4.409-4.409h7.288a1.89,1.89,0,0,0,1.89-1.89,1.89,1.89,0,0,0-1.89-1.89h-7.288a8.2,8.2,0,0,0-8.189,8.189v40.633a8.2,8.2,0,0,0,8.189,8.189h3.744a.981.981,0,0,1,.98.98v7.943a3.923,3.923,0,0,0,3.919,3.918,3.894,3.894,0,0,0,2.772-1.148l10.566-10.566a3.825,3.825,0,0,1,2.722-1.128h21.032v14.489a1.89,1.89,0,0,0,1.89,1.89,1.891,1.891,0,0,0,1.89-1.89v-21.054a4.414,4.414,0,0,1,4.409-4.41h58.71a4.415,4.415,0,0,1,4.41,4.41v5.442a1.89,1.89,0,0,0,1.89,1.89,1.89,1.89,0,0,0,1.889-1.89v-5.442A8.2,8.2,0,0,0,1134.275-476.451Z" transform="translate(-1013.453 518.707)" fill="#00223d"/>
          <path id="Trazado_26901" data-name="Trazado 26901" d="M1105.9-437.8a1.89,1.89,0,0,0,1.89-1.89v-24.463a1.89,1.89,0,0,0-1.89-1.89,1.89,1.89,0,0,0-1.89,1.89v24.463A1.89,1.89,0,0,0,1105.9-437.8Z" transform="translate(-1014.407 518.152)" fill="#00223d"/>
          <path id="Trazado_26902" data-name="Trazado 26902" d="M1053.054-488.9a9.828,9.828,0,0,0,5.306-2.915,9.846,9.846,0,0,0,2.714-7.357,9.953,9.953,0,0,0-9.707-9.4,9.932,9.932,0,0,0-10.032,8.541,10.016,10.016,0,0,0-.1,1.381,1.89,1.89,0,0,0,1.89,1.89,1.89,1.89,0,0,0,1.89-1.89,6.229,6.229,0,0,1,.059-.86,6.137,6.137,0,0,1,6.213-5.284,6.159,6.159,0,0,1,6.008,5.814,6.1,6.1,0,0,1-1.68,4.558,6.089,6.089,0,0,1-4.456,1.916,1.89,1.89,0,0,0-1.89,1.89v8.4a1.89,1.89,0,0,0,1.89,1.89,1.89,1.89,0,0,0,1.89-1.89V-488.9Z" transform="translate(-1013.746 518.6)" fill="#00223d"/>
          <circle id="Elipse_1000" data-name="Elipse 1000" cx="1.89" cy="1.89" r="1.89" transform="translate(35.528 42.109)" fill="#00223d"/>
          <circle id="Elipse_1001" data-name="Elipse 1001" cx="1.89" cy="1.89" r="1.89" transform="translate(89.577 84.326)" fill="#00223d"/>
        </g>
      </g>
    </g>
    <g id="Grupo_17146" data-name="Grupo 17146" transform="translate(-7 2867)">
      <rect id="Rect치ngulo_4278" data-name="Rect치ngulo 4278" width="151" height="151" transform="translate(640 -2418)" fill="none"/>
      <rect id="Rect치ngulo_4284" data-name="Rect치ngulo 4284" width="135" height="135" transform="translate(648 -2410)" fill="none"/>
    </g>
  </g>
</svg>
