<svg xmlns="http://www.w3.org/2000/svg" width="119" height="119" viewBox="0 0 119 119">
  <g id="Grupo_17096" data-name="Grupo 17096" transform="translate(-656 3794)">
    <rect id="Rectángulo_4234" data-name="Rectángulo 4234" width="119" height="119" transform="translate(656 -3794)" fill="none"/>
    <g id="Grupo_17091" data-name="Grupo 17091" transform="translate(-53 -244.395)">
      <g id="Grupo_17057" data-name="Grupo 17057" transform="translate(724 -3531.605)">
        <g id="Grupo_17055" data-name="Grupo 17055" transform="translate(1.719 1.72)">
          <path id="Trazado_26865" data-name="Trazado 26865" d="M1099.037-357.2V-372.97a5.158,5.158,0,0,1,5.158-5.158,5.157,5.157,0,0,1,5.158,5.158v23.356a20.634,20.634,0,0,1-11.4,18.454l-9.228,4.613v10.316H1070.5v-22.447a8.492,8.492,0,0,1,7.644-8.451c.02-.005,7.881-1.208,11.669-5l3.862-3.86a5.154,5.154,0,0,1,5.366-1.217Z" transform="translate(-1024.759 395.322)" fill="#fce8d0"/>
          <path id="Trazado_26866" data-name="Trazado 26866" d="M1079.293-394.422c9.418,0,12.7,8.674,12.7,13.755,0,10.316-8.48,16.178-23.525,29.229-15.045-13.051-23.525-18.913-23.525-29.229,0-5.081,3.282-13.755,12.7-13.755,5.782,0,8.987,4.221,10.824,7.581,1.836-3.36,5.041-7.581,10.824-7.581Z" transform="translate(-1026.171 394.422)" fill="#ff7b79"/>
          <path id="Trazado_26867" data-name="Trazado 26867" d="M1037.47-357.2a5.157,5.157,0,0,1,5.367,1.217l3.861,3.86c3.712,3.712,11.652,4.991,11.67,5a8.493,8.493,0,0,1,7.644,8.451v22.447h-18.225v-10.316l-9.228-4.613a20.633,20.633,0,0,1-11.405-18.454V-372.97a5.158,5.158,0,0,1,5.158-5.158,5.158,5.158,0,0,1,5.158,5.158Z" transform="translate(-1027.154 395.322)" fill="#fce8d0"/>
        </g>
        <g id="Grupo_17056" data-name="Grupo 17056" transform="translate(0 0)">
          <path id="Trazado_26868" data-name="Trazado 26868" d="M1093.8-380.577c0-5.983-3.915-15.475-14.42-15.475-4.317,0-7.947,2.036-10.823,6.058-2.877-4.023-6.508-6.058-10.824-6.058-10.506,0-14.421,9.492-14.421,15.475,0,10.315,8.051,16.767,19.05,26.172,1.615,1.381,3.287,2.81,5.068,4.356a1.713,1.713,0,0,0,1.127.42,1.71,1.71,0,0,0,1.126-.42c1.783-1.546,3.453-2.975,5.069-4.356,11.514-9.847,19.049-16.076,19.049-26.172Zm-25.244,26.955c-1.374-1.185-2.685-2.306-3.961-3.4-11.507-9.839-17.845-15.259-17.845-23.559,0-5.63,3.683-12.036,10.982-12.036,3.808,0,6.856,2.188,9.315,6.686a1.719,1.719,0,0,0,1.509.895,1.718,1.718,0,0,0,1.508-.895c2.459-4.5,5.506-6.686,9.316-6.686,7.2,0,10.981,6.311,10.981,12.036,0,8.3-6.338,13.719-17.844,23.559-1.276,1.091-2.586,2.212-3.96,3.4Z" transform="translate(-1024.542 396.052)" fill="#00223d"/>
          <path id="Trazado_26869" data-name="Trazado 26869" d="M1037.88-329.532l8.277,4.139v9.254a1.719,1.719,0,0,0,1.72,1.719H1066.1a1.718,1.718,0,0,0,1.719-1.719v-22.447a10.176,10.176,0,0,0-9.178-10.16l-.141-.015c-3.025-.3-8.383-2.373-10.5-4.488l-3.861-3.86a6.833,6.833,0,0,0-4.863-2.014V-372.88a6.886,6.886,0,0,0-6.878-6.878,6.886,6.886,0,0,0-6.877,6.878v23.356a22.352,22.352,0,0,0,12.355,19.992Zm-8.916-43.348a3.443,3.443,0,0,1,3.438-3.439,3.443,3.443,0,0,1,3.439,3.439V-358.2a6.892,6.892,0,0,0-3.439,5.956,6.834,6.834,0,0,0,2.016,4.863l8.805,8.807a1.72,1.72,0,0,0,2.431,0,1.72,1.72,0,0,0,0-2.432l-8.8-8.806a3.415,3.415,0,0,1-1.008-2.431,3.444,3.444,0,0,1,2.292-3.243h0a3.434,3.434,0,0,1,3.576.814l3.861,3.859c3.987,3.987,12.7,5.487,12.714,5.492a6.751,6.751,0,0,1,6.1,6.74v20.727H1049.6v-8.6a1.72,1.72,0,0,0-.951-1.539l-9.227-4.613a18.812,18.812,0,0,1-10.454-16.917Z" transform="translate(-1025.525 396.952)" fill="#00223d"/>
          <circle id="Elipse_999" data-name="Elipse 999" cx="1.719" cy="1.719" r="1.719" transform="translate(77.201 61.555)" fill="#00223d"/>
          <path id="Trazado_26870" data-name="Trazado 26870" d="M1104.286-379.758a6.885,6.885,0,0,0-6.877,6.878v13.755a6.831,6.831,0,0,0-4.863,2.014l-3.862,3.86c-2.115,2.115-7.472,4.184-10.511,4.489l-.114.013a10.181,10.181,0,0,0-9.192,10.161v22.447a1.72,1.72,0,0,0,1.72,1.719h18.225a1.718,1.718,0,0,0,1.719-1.719v-9.254l5.628-2.813a1.72,1.72,0,0,0,.769-2.307,1.719,1.719,0,0,0-2.307-.769l-6.578,3.288a1.72,1.72,0,0,0-.951,1.539v8.6h-14.786v-20.727a6.755,6.755,0,0,1,6.11-6.741l.114-.013c3.729-.374,9.9-2.8,12.586-5.477l3.862-3.861a3.438,3.438,0,0,1,3.575-.813h0a3.443,3.443,0,0,1,2.292,3.243,3.416,3.416,0,0,1-1.008,2.431l-8.805,8.807a1.719,1.719,0,0,0,0,2.431,1.72,1.72,0,0,0,2.431,0l8.8-8.807a6.832,6.832,0,0,0,2.015-4.863,6.89,6.89,0,0,0-3.439-5.956V-372.88a3.443,3.443,0,0,1,3.439-3.439,3.443,3.443,0,0,1,3.439,3.439v23.356a18.959,18.959,0,0,1-2.3,9.032,1.72,1.72,0,0,0,.689,2.332,1.72,1.72,0,0,0,2.332-.69,22.417,22.417,0,0,0,2.714-10.674V-372.88a6.886,6.886,0,0,0-6.878-6.878Z" transform="translate(-1023.13 396.952)" fill="#00223d"/>
        </g>
      </g>
    </g>
  </g>
</svg>
