<svg xmlns="http://www.w3.org/2000/svg" width="151" height="151" viewBox="0 0 151 151">
  <g id="Grupo_17152" data-name="Grupo 17152" transform="translate(-633 -267)">
    <g id="Grupo_17063" data-name="Grupo 17063" transform="translate(-660.548 703.344)">
      <g id="Grupo_17062" data-name="Grupo 17062" transform="translate(1313.048 -426.583)">
        <path id="Trazado_26886" data-name="Trazado 26886" d="M1365-400.233h.053c10.811-.107,9.231-14.557,9.231-14.557-.428-9.659-8.482-9.579-9.285-9.552-.8-.027-8.857-.108-9.312,9.526,0,0-1.579,14.449,9.257,14.556h0C1364.945-400.233,1364.972-400.233,1365-400.233Z" transform="translate(-1309.354 426.777)" fill="#a7a9ac"/>
        <path id="Trazado_26887" data-name="Trazado 26887" d="M1365.824-384.869l6.984-9.633a46.384,46.384,0,0,1,8.937,4.95,18.793,18.793,0,0,1,2.461,2.167c2.221,2.221,1.285,15.091,0,19.8s-5.056,11.479-5.056,11.479a18.1,18.1,0,0,0-1.419,5.4l-4.817,47.228a2.953,2.953,0,0,1-2.917,2.65h-8.348a2.934,2.934,0,0,1-2.917-2.65l-4.816-47.228a17.911,17.911,0,0,0-1.418-5.4s-3.772-6.744-5.057-11.479c-1.284-4.71-2.22-17.58,0-19.8a18.811,18.811,0,0,1,2.461-2.167,48.151,48.151,0,0,1,8.938-4.95Z" transform="translate(-1310.179 429.368)" fill="#a7a9ac"/>
        <path id="Trazado_26888" data-name="Trazado 26888" d="M1314.374-363.065c1.2,4.389,4.416,10.3,4.9,11.211a13.837,13.837,0,0,1,1.1,4.255l4.522,44.311a5.174,5.174,0,0,0,5.165,4.656h7.813a5.172,5.172,0,0,0,5.165-4.656l4.522-44.311a14.262,14.262,0,0,1,1.151-4.335,2.426,2.426,0,0,0-1.231-3.184,2.426,2.426,0,0,0-3.184,1.231,19.012,19.012,0,0,0-1.525,5.806l-4.522,44.311a.341.341,0,0,1-.321.294h-7.814a.321.321,0,0,1-.321-.294l-4.575-44.337a19.8,19.8,0,0,0-1.526-5.807.8.8,0,0,0-.106-.214c-.027-.053-3.4-6.127-4.522-10.221-1.231-4.575-1.579-14.529-.562-16.3a14.705,14.705,0,0,1,1.98-1.74,39.027,39.027,0,0,1,6.127-3.558l5.406,7.439a2.432,2.432,0,0,0,1.953.989,2.432,2.432,0,0,0,1.953-.989l6.556-9.018a2.465,2.465,0,0,0-.535-3.4,2.465,2.465,0,0,0-3.4.536l-4.6,6.314-4.548-6.288a2.429,2.429,0,0,0-2.864-.829,46.476,46.476,0,0,0-8.91,4.923,19.57,19.57,0,0,0-2.6,2.275C1311.592-380.565,1313.491-366.33,1314.374-363.065Z" transform="translate(-1313.048 429.639)" fill="#00223d"/>
        <path id="Trazado_26889" data-name="Trazado 26889" d="M1332.974-391.917h.454a10.164,10.164,0,0,0,7.6-3.318c3.986-4.495,3.425-11.987,3.318-12.924-.4-8.268-6.155-11.184-10.944-11.184h-.428c-4.79,0-10.516,2.943-10.944,11.184-.08.937-.669,8.429,3.318,12.924A10.168,10.168,0,0,0,1332.974-391.917Zm-6.1-15.814v-.161c.269-5.78,3.934-6.636,6.1-6.636h.4c2.167,0,5.834.856,6.1,6.636v.134c.187,1.713.134,6.716-2.141,9.286a5.213,5.213,0,0,1-4.147,1.686h-.053a5.3,5.3,0,0,1-4.148-1.686C1326.739-401.015,1326.713-406.019,1326.873-407.732Z" transform="translate(-1312.275 427.211)" fill="#00223d"/>
        <path id="Trazado_26890" data-name="Trazado 26890" d="M1383.914-355.144a2.389,2.389,0,0,0-1.231,3.184,14.473,14.473,0,0,1,1.151,4.335l4.522,44.311a5.172,5.172,0,0,0,5.163,4.656h7.814a5.174,5.174,0,0,0,5.164-4.656l4.521-44.311a14.673,14.673,0,0,1,1.1-4.255c.481-.882,3.719-6.8,4.9-11.211.884-3.265,2.81-17.5-.615-20.924a19.452,19.452,0,0,0-2.6-2.275,45.5,45.5,0,0,0-8.911-4.923,2.382,2.382,0,0,0-2.863.829l-4.6,6.314-4.629-6.288a2.433,2.433,0,0,0-3.4-.535,2.456,2.456,0,0,0-.536,3.4l6.556,9.017a2.436,2.436,0,0,0,1.954.99,2.433,2.433,0,0,0,1.953-.99l5.406-7.438a39.084,39.084,0,0,1,6.127,3.558,16.377,16.377,0,0,1,1.98,1.739c1.016,1.766.668,11.72-.562,16.3-1.124,4.094-4.5,10.167-4.522,10.221a1.525,1.525,0,0,0-.108.214,19.013,19.013,0,0,0-1.525,5.806l-4.522,44.311a.342.342,0,0,1-.322.294h-7.813a.321.321,0,0,1-.321-.294l-4.522-44.311a19.787,19.787,0,0,0-1.526-5.806A2.391,2.391,0,0,0,1383.914-355.144Z" transform="translate(-1307.022 429.637)" fill="#00223d"/>
        <path id="Trazado_26891" data-name="Trazado 26891" d="M1396.863-391.917h.454a10.167,10.167,0,0,0,7.626-3.318c3.987-4.495,3.425-11.987,3.318-12.924-.4-8.268-6.127-11.184-10.944-11.184h-.428c-4.79,0-10.515,2.943-10.943,11.184-.08.937-.669,8.429,3.318,12.924A10.161,10.161,0,0,0,1396.863-391.917Zm-6.1-15.814v-.161c.269-5.78,3.934-6.636,6.1-6.636h.4c2.167,0,5.834.856,6.1,6.636v.134c.187,1.713.134,6.716-2.141,9.286a5.3,5.3,0,0,1-4.147,1.686h-.053a5.3,5.3,0,0,1-4.148-1.686C1390.628-401.015,1390.6-406.019,1390.761-407.732Z" transform="translate(-1306.727 427.211)" fill="#00223d"/>
        <path id="Trazado_26892" data-name="Trazado 26892" d="M1345.923-388.9c-3.611,3.613-1.578,18.678-.615,22.155a66.946,66.946,0,0,0,5.218,11.908,15.224,15.224,0,0,1,1.2,4.576l4.817,47.228a5.329,5.329,0,0,0,5.352,4.816h8.322a5.39,5.39,0,0,0,5.351-4.816l4.817-47.228a15.027,15.027,0,0,1,1.2-4.576c.509-.937,3.933-7.225,5.218-11.908.937-3.478,3-18.543-.615-22.155a21.578,21.578,0,0,0-2.73-2.407,50.1,50.1,0,0,0-9.471-5.245,2.383,2.383,0,0,0-2.864.829l-5.11,6.931-5.031-6.931a2.429,2.429,0,0,0-2.864-.829,49.337,49.337,0,0,0-9.472,5.245A19.912,19.912,0,0,0,1345.923-388.9Zm3.479,3.372a14.871,14.871,0,0,1,2.141-1.874,40.26,40.26,0,0,1,6.689-3.88l5.833,8.027a2.433,2.433,0,0,0,1.954.99,2.431,2.431,0,0,0,1.953-.99l5.833-8.027a42.557,42.557,0,0,1,6.689,3.88,14.814,14.814,0,0,1,2.141,1.874c1.124,1.819.776,12.549-.588,17.5a62.285,62.285,0,0,1-4.844,10.917,1.567,1.567,0,0,0-.106.214,20.321,20.321,0,0,0-1.633,6.155l-4.817,47.227a.5.5,0,0,1-.509.455h-8.321a.5.5,0,0,1-.509-.455l-4.816-47.227a19.8,19.8,0,0,0-1.633-6.155.793.793,0,0,0-.107-.214c-.026-.053-3.639-6.556-4.843-10.944C1348.625-372.982,1348.278-383.712,1349.4-385.531Z" transform="translate(-1310.373 429.174)" fill="#00223d"/>
        <path id="Trazado_26893" data-name="Trazado 26893" d="M1364.952-397.631h.482a10.41,10.41,0,0,0,8-3.5c4.228-4.736,3.585-12.71,3.5-13.674-.428-8.7-6.448-11.773-11.506-11.773h-.482c-5.031,0-11.078,3.078-11.506,11.773-.08.964-.723,8.911,3.505,13.647A10.563,10.563,0,0,0,1364.952-397.631Zm-6.663-16.724v-.161c.295-6.528,4.763-7.224,6.663-7.224h.455c1.9,0,6.368.7,6.662,7.224v.134c.188,1.846.161,7.251-2.3,10.007a5.755,5.755,0,0,1-4.55,1.846h-.08a5.838,5.838,0,0,1-4.548-1.846C1358.129-407.1,1358.1-412.508,1358.289-414.354Z" transform="translate(-1309.548 426.583)" fill="#00223d"/>
      </g>
    </g>
    <g id="Grupo_17145" data-name="Grupo 17145" transform="translate(-7 2685)">
      <rect id="Rect치ngulo_4278" data-name="Rect치ngulo 4278" width="151" height="151" transform="translate(640 -2418)" fill="none"/>
      <rect id="Rect치ngulo_4284" data-name="Rect치ngulo 4284" width="135" height="135" transform="translate(648 -2410)" fill="none"/>
    </g>
  </g>
</svg>
