<svg xmlns="http://www.w3.org/2000/svg" width="151" height="151" viewBox="0 0 151 151">
  <g id="Grupo_17150" data-name="Grupo 17150" transform="translate(-633 66)">
    <g id="Grupo_17143" data-name="Grupo 17143" transform="translate(-7 2352)">
      <rect id="Rect치ngulo_4278" data-name="Rect치ngulo 4278" width="151" height="151" transform="translate(640 -2418)" fill="none"/>
      <rect id="Rect치ngulo_4284" data-name="Rect치ngulo 4284" width="135" height="135" transform="translate(648 -2410)" fill="none"/>
    </g>
    <g id="Grupo_17144" data-name="Grupo 17144" transform="translate(-2040.577 200.537)">
      <path id="Trazado_26470" data-name="Trazado 26470" d="M2727.036-153.075l3.022,5.261a2.847,2.847,0,0,0,2.462,1.454h5.987a2.846,2.846,0,0,0,2.462-1.454l3.022-5.261Z" transform="translate(5.2 20.751)" fill="#60bae2"/>
      <path id="Trazado_26471" data-name="Trazado 26471" d="M2721.766-169.353v14.437a5.11,5.11,0,0,0,5.092,5.091h19.585a5.11,5.11,0,0,0,5.092-5.091v-14.437Z" transform="translate(4.148 17.5)" fill="#e9e9ea"/>
      <path id="Trazado_26472" data-name="Trazado 26472" d="M2721.766-164.035h29.712v6.826h-29.712Z" transform="translate(4.148 18.562)" fill="#d3d3dd"/>
      <path id="Trazado_26473" data-name="Trazado 26473" d="M2742.8-201.065a3.191,3.191,0,0,1-4.532.056,3.192,3.192,0,0,1-.057-4.532l.057-.056,27.026-27.025a38.326,38.326,0,0,0-54.053,4.476,38.414,38.414,0,0,0,2.8,52.541,22.483,22.483,0,0,1,7.105,16.395v.168a4.192,4.192,0,0,0,4.2,4.2h30.271a4.192,4.192,0,0,0,4.2-4.2,23.128,23.128,0,0,1,7.161-16.563,38.33,38.33,0,0,0,2.8-52.43Z" transform="translate(0.236 3.049)" fill="#fcd770"/>
      <path id="Trazado_26474" data-name="Trazado 26474" d="M2741.189-202.681a3.191,3.191,0,0,1-4.532.056,3.192,3.192,0,0,1-.056-4.532l.056-.056,20.144-20.144a28.654,28.654,0,0,0-40.288,4.532,28.654,28.654,0,0,0,4.532,40.288,28.653,28.653,0,0,0,40.288-4.532,28.682,28.682,0,0,0,0-35.755Z" transform="translate(1.847 4.666)" fill="#f75c64"/>
      <path id="Trazado_26475" data-name="Trazado 26475" d="M2739.579-204.3a3.191,3.191,0,0,1-4.532.056,3.191,3.191,0,0,1-.057-4.532l.057-.056,13.206-13.2a19,19,0,0,0-26.468,4.532,19,19,0,0,0,4.532,26.466,19,19,0,0,0,26.468-4.531,19.009,19.009,0,0,0,0-21.935Z" transform="translate(3.456 6.284)" fill="#e9e9ea"/>
      <path id="Trazado_26476" data-name="Trazado 26476" d="M2737.958-205.912a3.191,3.191,0,0,1-4.532.056,3.192,3.192,0,0,1-.057-4.532l.057-.056,6.156-6.156a9.3,9.3,0,0,0-12.311,4.532,9.293,9.293,0,0,0,4.533,12.31,9.3,9.3,0,0,0,12.31-4.531,9.433,9.433,0,0,0,0-7.779Z" transform="translate(5.078 7.897)" fill="#f75c64"/>
      <path id="Trazado_26477" data-name="Trazado 26477" d="M2756.918-231.811l15.22-15.219-3.3-7.945a1.458,1.458,0,0,0-1.9-.783.863.863,0,0,0-.447.335l-10.071,10.073a7.486,7.486,0,0,0-1.623,8.225Z" transform="translate(10.626 0.222)" fill="#fcd770"/>
      <path id="Trazado_26478" data-name="Trazado 26478" d="M2783.345-241.48l-7.889-3.246-15.164,15.164,5.316,2.182a7.606,7.606,0,0,0,8.225-1.622l10.072-10.073a1.484,1.484,0,0,0,0-2.069A4.976,4.976,0,0,1,2783.345-241.48Z" transform="translate(11.841 2.449)" fill="#fcd770"/>
      <path id="Trazado_26479" data-name="Trazado 26479" d="M2766.633-242.834l-4.14-9.96L2757.4-247.7l4.14,9.96Z" transform="translate(11.264 0.838)" fill="#ffae2c"/>
      <path id="Trazado_26480" data-name="Trazado 26480" d="M2769.722-240.715l-5.093,5.094,9.961,4.139,5.092-5.091Z" transform="translate(12.707 3.25)" fill="#ffae2c"/>
      <path id="Trazado_26481" data-name="Trazado 26481" d="M2732.414-199.325a3.243,3.243,0,0,1,0-4.532l45.6-45.6a3.192,3.192,0,0,1,4.532-.055,3.192,3.192,0,0,1,.056,4.531l-.056.056-45.6,45.6A3.241,3.241,0,0,1,2732.414-199.325Z" transform="translate(6.089 1.31)" fill="#c1814c"/>
      <g id="Grupo_16874" data-name="Grupo 16874" transform="translate(2700.995 -256.992)">
        <path id="Trazado_26482" data-name="Trazado 26482" d="M2746.628-148.193h-19.584a6.5,6.5,0,0,1-6.492-6.49V-169.12a1.386,1.386,0,0,1,1.4-1.4h29.713a1.387,1.387,0,0,1,1.4,1.4v14.437A6.412,6.412,0,0,1,2746.628-148.193Zm-23.221-19.471v13.037a3.726,3.726,0,0,0,3.693,3.693h19.585a3.725,3.725,0,0,0,3.693-3.693v-13.037Z" transform="translate(-2697.089 274.259)" fill="#00223d"/>
        <path id="Trazado_26483" data-name="Trazado 26483" d="M2738.79-144.784H2732.8a4.372,4.372,0,0,1-3.693-2.127l-3.022-5.258a1.38,1.38,0,0,1,.5-1.9,1.531,1.531,0,0,1,.727-.169h17.01a1.385,1.385,0,0,1,1.4,1.4,1.731,1.731,0,0,1-.168.728l-3.021,5.261A4.628,4.628,0,0,1,2738.79-144.784Zm-9.065-6.659,1.792,3.134a1.478,1.478,0,0,0,1.287.728h5.986a1.55,1.55,0,0,0,1.287-.728l1.79-3.134Z" transform="translate(-2696.023 277.51)" fill="#00223d"/>
        <path id="Trazado_26484" data-name="Trazado 26484" d="M2751.711-155.577H2722a1.385,1.385,0,0,1-1.4-1.4V-163.8a1.384,1.384,0,0,1,1.4-1.4h29.712a1.384,1.384,0,0,1,1.4,1.4v6.826A1.385,1.385,0,0,1,2751.711-155.577Zm-28.313-2.8h26.915V-162.4H2723.4Z" transform="translate(-2697.08 275.321)" fill="#00223d"/>
        <path id="Trazado_26485" data-name="Trazado 26485" d="M2755.906-153.275h-30.272a5.612,5.612,0,0,1-5.6-5.6v-.112a21.455,21.455,0,0,0-6.714-15.387,39.711,39.711,0,0,1-1.344-56.18,39.749,39.749,0,0,1,54.444-2.909,1.359,1.359,0,0,1,.168,1.959c0,.055-.056.055-.056.112l-27.027,27.027a1.776,1.776,0,0,0-.055,2.518,1.827,1.827,0,0,0,2.518.055l.055-.055,27.028-27.027a1.274,1.274,0,0,1,1.063-.392,1.465,1.465,0,0,1,1.007.5,39.787,39.787,0,0,1-2.854,54.389,21.884,21.884,0,0,0-6.771,15.555A5.563,5.563,0,0,1,2755.906-153.275Zm-15.164-86.842h-1.4a36.991,36.991,0,0,0-35.531,38.329,37.189,37.189,0,0,0,11.414,25.348,24.319,24.319,0,0,1,7.553,17.4v.167a2.771,2.771,0,0,0,2.8,2.8h30.272a2.77,2.77,0,0,0,2.8-2.8,24.537,24.537,0,0,1,7.61-17.569,37,37,0,0,0,3.636-49.353l-25.963,25.964a4.592,4.592,0,0,1-6.49.055,4.591,4.591,0,0,1-.056-6.49l.056-.055,26.019-25.964A36.788,36.788,0,0,0,2740.742-240.116Z" transform="translate(-2700.995 259.812)" fill="#00223d"/>
        <path id="Trazado_26486" data-name="Trazado 26486" d="M2739.127-174.648a30.053,30.053,0,0,1-30.049-30.049,30.089,30.089,0,0,1,30.049-30.047,29.964,29.964,0,0,1,18.745,6.547,1.362,1.362,0,0,1,.223,1.958l-.111.113-20.144,20.144a1.772,1.772,0,0,0-.055,2.518,1.825,1.825,0,0,0,2.517.055l.057-.055,20.144-20.144a1.35,1.35,0,0,1,1.958,0l.112.112a29.636,29.636,0,0,1,6.548,18.745A30.018,30.018,0,0,1,2739.127-174.648Zm0-57.353a27.247,27.247,0,0,0-27.251,27.25,27.248,27.248,0,0,0,27.251,27.251,27.248,27.248,0,0,0,27.25-27.251,27.142,27.142,0,0,0-5.036-15.779l-19.026,19.025a4.594,4.594,0,0,1-6.49.056,4.592,4.592,0,0,1-.055-6.49l.055-.056,19.024-19.025A27.056,27.056,0,0,0,2739.127-232Z" transform="translate(-2699.38 261.434)" fill="#00223d"/>
        <path id="Trazado_26487" data-name="Trazado 26487" d="M2737.517-185.987a20.37,20.37,0,0,1-20.369-20.367,20.371,20.371,0,0,1,20.369-20.368,20.108,20.108,0,0,1,11.75,3.75,1.425,1.425,0,0,1,.336,1.958l-.169.167-13.2,13.207a1.77,1.77,0,0,0-.056,2.517,1.774,1.774,0,0,0,2.517.056l.057-.056,13.2-13.206a1.353,1.353,0,0,1,1.959,0c.056.058.112.113.168.169a20.353,20.353,0,0,1-4.869,28.368A19.372,19.372,0,0,1,2737.517-185.987Zm0-37.938a17.6,17.6,0,0,0-17.572,17.571,17.6,17.6,0,0,0,17.572,17.569,17.6,17.6,0,0,0,17.569-17.569,17.008,17.008,0,0,0-2.35-8.729l-11.974,11.974a4.594,4.594,0,0,1-6.49.056,4.593,4.593,0,0,1-.056-6.49l.056-.056,11.974-11.974A17.583,17.583,0,0,0,2737.517-223.924Z" transform="translate(-2697.769 263.036)" fill="#00223d"/>
        <path id="Trazado_26488" data-name="Trazado 26488" d="M2735.9-197.278a10.722,10.722,0,0,1-10.687-10.687,10.723,10.723,0,0,1,10.688-10.688,10.264,10.264,0,0,1,4.476,1.008,1.365,1.365,0,0,1,.672,1.846,1.006,1.006,0,0,1-.279.392l-6.156,6.156a1.77,1.77,0,0,0-.055,2.517,1.774,1.774,0,0,0,2.517.056l.056-.056,6.154-6.154a1.352,1.352,0,0,1,1.96,0,1,1,0,0,1,.279.391,10.641,10.641,0,0,1-5.2,14.158A9.224,9.224,0,0,1,2735.9-197.278Zm0-18.577a7.8,7.8,0,0,0-7.834,7.89,7.834,7.834,0,0,0,7.89,7.834,7.8,7.8,0,0,0,7.833-7.89,8.3,8.3,0,0,0-.111-1.23l-4.532,4.531a4.6,4.6,0,0,1-6.491.056,4.591,4.591,0,0,1-.055-6.49l.055-.056,4.531-4.534A9.266,9.266,0,0,0,2735.9-215.855Z" transform="translate(-2696.158 264.647)" fill="#00223d"/>
        <path id="Trazado_26489" data-name="Trazado 26489" d="M2757.158-230.19a1.411,1.411,0,0,1-1.286-.84l-2.183-5.316a8.877,8.877,0,0,1,1.959-9.735l10.072-10.071a2.836,2.836,0,0,1,4.029,0,2.169,2.169,0,0,1,.616.95l3.3,7.946a1.373,1.373,0,0,1-.28,1.512l-15.164,15.164A1.9,1.9,0,0,1,2757.158-230.19Zm10.576-24.061h0l-10.128,10.129a6.212,6.212,0,0,0-1.343,6.715l1.4,3.413,13.038-13.038-2.967-7.106C2767.79-254.251,2767.734-254.251,2767.734-254.251Z" transform="translate(-2690.609 256.992)" fill="#00223d"/>
        <path id="Trazado_26490" data-name="Trazado 26490" d="M2768.654-225.142a8.84,8.84,0,0,1-3.413-.671l-5.316-2.182a1.423,1.423,0,0,1-.784-1.846,1.2,1.2,0,0,1,.28-.447l15.164-15.164a1.372,1.372,0,0,1,1.51-.28l7.946,3.3a2.93,2.93,0,0,1,1.567,3.748,3.478,3.478,0,0,1-.616.951l-10.071,10.071A9.032,9.032,0,0,1,2768.654-225.142Zm-5.708-4.7,3.357,1.4a6.131,6.131,0,0,0,6.715-1.342l10.071-10.073v-.055a.056.056,0,0,0-.055-.058l-7-2.909Z" transform="translate(-2689.403 259.217)" fill="#00223d"/>
        <path id="Trazado_26491" data-name="Trazado 26491" d="M2734.89-196.8a4.613,4.613,0,0,1-3.245-1.344,4.592,4.592,0,0,1,0-6.49l45.6-45.6a4.591,4.591,0,0,1,6.49,0,4.592,4.592,0,0,1,0,6.49l-45.6,45.6A4.393,4.393,0,0,1,2734.89-196.8Zm-1.232-3.3a1.726,1.726,0,0,0,2.518,0l45.6-45.6a1.724,1.724,0,0,0,0-2.518,1.724,1.724,0,0,0-2.518,0l-45.6,45.6A1.727,1.727,0,0,0,2733.658-200.1Z" transform="translate(-2695.142 258.072)" fill="#00223d"/>
        <path id="Trazado_26492" data-name="Trazado 26492" d="M2761.773-236.116a1.412,1.412,0,0,1-1.286-.84l-4.142-9.959a1.377,1.377,0,0,1,.281-1.512l5.091-5.091a1.35,1.35,0,0,1,1.958,0,1.206,1.206,0,0,1,.28.447l4.141,9.96a1.376,1.376,0,0,1-.279,1.512l-5.091,5.091A1.156,1.156,0,0,1,2761.773-236.116Zm-2.461-11.023,2.966,7.162,2.967-2.966-2.967-7.162Z" transform="translate(-2689.965 257.602)" fill="#00223d"/>
        <path id="Trazado_26493" data-name="Trazado 26493" d="M2774.83-229.85a1.972,1.972,0,0,1-.56-.112l-9.96-4.14a1.424,1.424,0,0,1-.784-1.846,1.2,1.2,0,0,1,.281-.447l5.092-5.093a1.375,1.375,0,0,1,1.51-.28l9.959,4.141a1.424,1.424,0,0,1,.785,1.846,1.252,1.252,0,0,1-.28.447l-5.093,5.091A1.344,1.344,0,0,1,2774.83-229.85Zm-7.5-6.042,7.162,2.964,2.965-2.964-7.161-2.967Z" transform="translate(-2688.528 260.009)" fill="#00223d"/>
      </g>
    </g>
  </g>
</svg>
