<svg xmlns="http://www.w3.org/2000/svg" width="151" height="151" viewBox="0 0 151 151">
  <g id="Grupo_17151" data-name="Grupo 17151" transform="translate(-633 -101)">
    <g id="Grupo_17061" data-name="Grupo 17061" transform="translate(-510.713 540.176)">
      <g id="Grupo_17058" data-name="Grupo 17058" transform="translate(1156.842 -405.838)">
        <path id="Trazado_26871" data-name="Trazado 26871" d="M1254.336-301.922l27.8-27.771a6.072,6.072,0,0,0,0-8.567l-4.584-4.571a6.08,6.08,0,0,0-8.57,0l-.123.116-27.563,27.53-.118.124a6.064,6.064,0,0,0,0,8.559l4.585,4.579a6.06,6.06,0,0,0,1.569,1.13h5.431a6.183,6.183,0,0,0,1.569-1.13Z" transform="translate(-1157.214 405.464)" fill="#dad0d3" fill-rule="evenodd"/>
        <path id="Trazado_26872" data-name="Trazado 26872" d="M1241.247-315.241l27.563-27.529-12.059-12.045c-18.059-10.229-32.681,13.219-28.659,26.436Z" transform="translate(-1157.161 405.52)" fill="#ffdcd5" fill-rule="evenodd"/>
        <path id="Trazado_26873" data-name="Trazado 26873" d="M1187.993-300.792h5.431a6.2,6.2,0,0,0,1.57-1.13l4.584-4.579a6.063,6.063,0,0,0,0-8.559l-.124-.124-27.563-27.53-.117-.116a6.089,6.089,0,0,0-8.577,0l-4.577,4.571a6.073,6.073,0,0,0,0,8.567l27.8,27.771A6.218,6.218,0,0,0,1187.993-300.792Z" transform="translate(-1156.851 405.464)" fill="#9d9ae8" fill-rule="evenodd"/>
        <path id="Trazado_26874" data-name="Trazado 26874" d="M1232.317-330.857l17.023-17,7.169-7.159,2.255-2.252a6.415,6.415,0,0,0,0-9.048,6.42,6.42,0,0,0-9.059,0l2.271-2.275a6.4,6.4,0,0,0,0-9.048,6.421,6.421,0,0,0-9.059,0l2.27-2.275a6.4,6.4,0,0,0,0-9.047,6.434,6.434,0,0,0-9.059,0l2.278-2.267a6.425,6.425,0,0,0,0-9.056,6.419,6.419,0,0,0-5.562-1.778,6.352,6.352,0,0,0-3.5,1.778l-9.073,9.07.292.292.052.051a6.415,6.415,0,0,1,0,9.048,6.421,6.421,0,0,1-9.059,0,6.424,6.424,0,0,1,0,9.055,6.442,6.442,0,0,1-9.066,0,6.4,6.4,0,0,1,0,9.048,6.434,6.434,0,0,1-9.059,0,6.4,6.4,0,0,1,0,9.048,6.422,6.422,0,0,1-9.059,0l-.342-.343-12.067,12.045,27.564,27.53,11.518-11.5c3.264-3.376,10.906-.423,16.811-1.634a8.537,8.537,0,0,0,4.468-2.282Z" transform="translate(-1156.917 405.717)" fill="#ffd0c7" fill-rule="evenodd"/>
        <path id="Trazado_26875" data-name="Trazado 26875" d="M1211.664-381.83a6.421,6.421,0,0,0,9.059,0,6.415,6.415,0,0,0,0-9.048l-.051-.051c-3.847-.277-11.206-6.948-11.644-11.629a6.428,6.428,0,0,0-9.066,0,6.414,6.414,0,0,0,0,9.047l2.278,2.275Z" transform="translate(-1157.032 405.727)" fill="#ffdcd5" fill-rule="evenodd"/>
        <path id="Trazado_26876" data-name="Trazado 26876" d="M1202.568-372.725a6.442,6.442,0,0,0,9.066,0,6.424,6.424,0,0,0,0-9.055l-9.423-9.4a6.419,6.419,0,0,0-9.059,0,6.4,6.4,0,0,0,0,9.047l2.27,2.268Z" transform="translate(-1157.002 405.677)" fill="#ffdcd5" fill-rule="evenodd"/>
        <path id="Trazado_26877" data-name="Trazado 26877" d="M1193.479-363.627a6.434,6.434,0,0,0,9.059,0,6.4,6.4,0,0,0,0-9.048l-7.147-7.145a6.436,6.436,0,0,0-9.059,0,6.413,6.413,0,0,0,0,9.056l4.548,4.542Z" transform="translate(-1156.972 405.627)" fill="#ffdcd5" fill-rule="evenodd"/>
        <path id="Trazado_26878" data-name="Trazado 26878" d="M1184.4-354.519a6.421,6.421,0,0,0,9.059,0,6.4,6.4,0,0,0,0-9.048l-2.6-2.6a6.428,6.428,0,0,0-9.066,0,6.415,6.415,0,0,0,0,9.048l2.263,2.252Z" transform="translate(-1156.952 405.567)" fill="#ffdcd5" fill-rule="evenodd"/>
        <path id="Trazado_26879" data-name="Trazado 26879" d="M1220.428-391.226l9.073-9.07a6.352,6.352,0,0,1,3.5-1.778l-17.527-3.317c-3.46-.656-6.737-.678-6.4,2.829.438,4.68,7.8,11.352,11.643,11.629Z" transform="translate(-1157.08 405.733)" fill="#ffdcd5" fill-rule="evenodd"/>
      </g>
      <g id="Grupo_17060" data-name="Grupo 17060" transform="translate(1154.707 -429.591)">
        <path id="Trazado_26880" data-name="Trazado 26880" d="M1170.726-317.514a2.594,2.594,0,0,0,.031,3.669l.007.007a2.575,2.575,0,0,0,1.813.742,2.594,2.594,0,0,0,1.852-.777,2.6,2.6,0,0,0-.035-3.673A2.594,2.594,0,0,0,1170.726-317.514Z" transform="translate(-1154.774 429.102)" fill="#00223d"/>
        <g id="Grupo_17059" data-name="Grupo 17059">
          <path id="Trazado_26881" data-name="Trazado 26881" d="M1220.467-412.833a2.594,2.594,0,0,0,2.595-2.594V-427a2.594,2.594,0,0,0-2.595-2.594,2.593,2.593,0,0,0-2.594,2.594v11.571a2.593,2.593,0,0,0,2.594,2.594Z" transform="translate(-1154.984 429.591)" fill="#00223d"/>
          <path id="Trazado_26882" data-name="Trazado 26882" d="M1283.6-340.377l-4.583-4.57a8.6,8.6,0,0,0-6.118-2.525,8.629,8.629,0,0,0-4.161,1.058l-8.636-8.626.42-.42a9,9,0,0,0,0-12.713,8.912,8.912,0,0,0-4.516-2.442,9.04,9.04,0,0,0,.359-2.524,8.91,8.91,0,0,0-2.631-6.356,8.9,8.9,0,0,0-4.515-2.442,9.078,9.078,0,0,0,.358-2.524,8.908,8.908,0,0,0-2.634-6.359,8.95,8.95,0,0,0-4.512-2.436,9.017,9.017,0,0,0-2.272-8.89,9.006,9.006,0,0,0-7.323-2.568l-17.112-3.239c-2.611-.5-5.869-.822-7.927,1.053a4.728,4.728,0,0,0-.392.407,9.021,9.021,0,0,0-9.465,2.081,8.927,8.927,0,0,0-2.628,6.36,9.082,9.082,0,0,0,.357,2.524,8.893,8.893,0,0,0-4.508,2.436,8.911,8.911,0,0,0-2.635,6.353,9.049,9.049,0,0,0,.357,2.531,8.916,8.916,0,0,0-4.513,2.434,8.932,8.932,0,0,0-2.633,6.363,8.932,8.932,0,0,0,1.571,5.085,8.928,8.928,0,0,0-3.455,2.15,9.005,9.005,0,0,0,0,12.722l.419.417-8.637,8.621a8.674,8.674,0,0,0-9.814,1.7l-4.585,4.573a8.589,8.589,0,0,0-2.53,6.118,8.588,8.588,0,0,0,2.53,6.12l5.723,5.716a2.593,2.593,0,0,0,3.668,0,2.594,2.594,0,0,0,0-3.669l-5.723-5.716a3.437,3.437,0,0,1-1.008-2.448,3.432,3.432,0,0,1,1.007-2.446l4.586-4.574a3.475,3.475,0,0,1,4.231-.519,2.562,2.562,0,0,0,.326.4,2.559,2.559,0,0,0,.746.519l26.3,26.259a2.579,2.579,0,0,0,.521.753,2.573,2.573,0,0,0,.73.512,3.429,3.429,0,0,1,.863,2.288,3.434,3.434,0,0,1-1.007,2.448l-4.582,4.576a3.483,3.483,0,0,1-4.9,0l-5.724-5.723a2.594,2.594,0,0,0-3.669,0,2.6,2.6,0,0,0,0,3.669l5.727,5.728a8.639,8.639,0,0,0,6.114,2.518,8.648,8.648,0,0,0,6.12-2.521l4.584-4.579a8.588,8.588,0,0,0,2.529-6.119,8.6,8.6,0,0,0-1.314-4.594l9.72-9.709.031-.031c1.113-1.151,4.212-.936,7.21-.728a37.244,37.244,0,0,0,6.824.046l10.645,10.632a8.609,8.609,0,0,0-1.058,4.155,8.581,8.581,0,0,0,2.53,6.115l4.584,4.579a8.6,8.6,0,0,0,6.118,2.525,8.6,8.6,0,0,0,6.118-2.525l27.8-27.771a8.587,8.587,0,0,0,2.529-6.119,8.583,8.583,0,0,0-2.53-6.12Zm-68.843-62.477,11.253,2.13-6.735,6.733a16.355,16.355,0,0,1-4.037-2.933c-2.144-2.052-3.678-4.421-3.817-5.9v0h0a2.251,2.251,0,0,1-.011-.255,8.772,8.772,0,0,1,3.348.226Zm-13.151,2.115a3.827,3.827,0,0,1,4.841-.459c.841,3.528,3.851,6.726,5.2,8.023,1,.96,4.224,3.839,7.474,4.631a3.779,3.779,0,0,1,.679,2.174,3.772,3.772,0,0,1-1.108,2.691,3.779,3.779,0,0,1-2.694,1.109,3.779,3.779,0,0,1-2.7-1.112h0v0l-11.7-11.678a3.773,3.773,0,0,1-1.106-2.688,3.776,3.776,0,0,1,1.107-2.689Zm-6.779,11.32a3.775,3.775,0,0,1,2.691-1.108,3.79,3.79,0,0,1,2.7,1.112l9.42,9.4a3.818,3.818,0,0,1,0,5.384,3.8,3.8,0,0,1-2.7,1.108,3.8,3.8,0,0,1-2.7-1.105h0l-7.147-7.146c-.012-.011-.024-.021-.035-.033l-2.236-2.234a3.777,3.777,0,0,1-1.111-2.694,3.764,3.764,0,0,1,1.114-2.686Zm-6.792,11.318a3.792,3.792,0,0,1,2.7-1.106,3.784,3.784,0,0,1,2.676,1.088l7.169,7.165a3.762,3.762,0,0,1,1.109,2.686,3.767,3.767,0,0,1-1.111,2.688,3.786,3.786,0,0,1-2.694,1.106,3.8,3.8,0,0,1-2.7-1.106l-2.6-2.6,0,0-4.545-4.54a3.778,3.778,0,0,1-1.111-2.692,3.78,3.78,0,0,1,1.11-2.692Zm-4.518,13.6a3.8,3.8,0,0,1,2.7-1.111,3.793,3.793,0,0,1,2.7,1.111l2.6,2.6a3.763,3.763,0,0,1,1.109,2.686,3.768,3.768,0,0,1-1.114,2.691,3.779,3.779,0,0,1-2.693,1.109,3.783,3.783,0,0,1-2.7-1.114l-.325-.325-.012-.013-.015-.014-2.248-2.239a3.81,3.81,0,0,1,0-5.38Zm52.866,29.483a2.593,2.593,0,0,0-3.668,0l-2.309,2.3c-2.193,2.193-6.167,1.917-10.01,1.65-4.173-.29-8.488-.589-11.281,2.278l-9.555,9.544-23.895-23.86,8.456-8.441a8.961,8.961,0,0,0,4.7,1.316,8.927,8.927,0,0,0,6.36-2.626,8.917,8.917,0,0,0,2.636-6.362c0-.023,0-.045,0-.067h.068a8.938,8.938,0,0,0,6.357-2.62,8.916,8.916,0,0,0,2.635-6.362c0-.023,0-.045,0-.067h.068a8.962,8.962,0,0,0,6.369-2.625,8.972,8.972,0,0,0,2.624-6.426l.07,0a8.924,8.924,0,0,0,6.362-2.629,8.922,8.922,0,0,0,2.628-6.359,8.944,8.944,0,0,0-1.312-4.689l7.412-7.408a3.8,3.8,0,0,1,1.946-1.038c.078-.008.154-.02.229-.035a3.814,3.814,0,0,1,3.224,1.067,3.819,3.819,0,0,1,.006,5.384l-2.257,2.248-.023.022-2.6,2.6a2.594,2.594,0,0,0,0,3.669,2.594,2.594,0,0,0,3.669,0l2.266-2.263,0,0,.343-.34a3.82,3.82,0,0,1,5.383.013,3.762,3.762,0,0,1,1.109,2.686,3.766,3.766,0,0,1-1.115,2.691L1241-379.5h0l-2.6,2.59a2.6,2.6,0,0,0-.007,3.669,2.6,2.6,0,0,0,3.669.007l2.612-2.6a3.777,3.777,0,0,1,2.693-1.109,3.783,3.783,0,0,1,2.7,1.114,3.76,3.76,0,0,1,1.108,2.686,3.762,3.762,0,0,1-1.112,2.689l-4.526,4.528a2.6,2.6,0,0,0,0,3.669,2.589,2.589,0,0,0,1.835.759,2.586,2.586,0,0,0,1.834-.76l2.218-2.219.039-.035a3.778,3.778,0,0,1,2.693-1.109,3.779,3.779,0,0,1,2.7,1.111,3.809,3.809,0,0,1,0,5.377l-2.256,2.253,0,0,0,0-3.58,3.574a2.6,2.6,0,0,0,0,3.669,2.585,2.585,0,0,0,1.836.762,2.586,2.586,0,0,0,1.833-.759l1.751-1.749,8.391,8.382-23.893,23.864-8.56-8.55a10.2,10.2,0,0,0,1.7-1.372l2.307-2.3a2.593,2.593,0,0,0,0-3.668Zm43.553,3.213-27.8,27.77a3.445,3.445,0,0,1-2.451,1.008,3.447,3.447,0,0,1-2.452-1.008l-4.584-4.579a3.428,3.428,0,0,1-1.007-2.444,3.425,3.425,0,0,1,1.007-2.444l27.8-27.771a3.443,3.443,0,0,1,2.452-1.008,3.446,3.446,0,0,1,2.453,1.009l4.583,4.57a3.437,3.437,0,0,1,1.008,2.448A3.437,3.437,0,0,1,1279.936-331.809Z" transform="translate(-1154.707 429.498)" fill="#00223d"/>
          <path id="Trazado_26883" data-name="Trazado 26883" d="M1185.834-415.016a2.59,2.59,0,0,0,1.833.758,2.586,2.586,0,0,0,1.836-.762,2.594,2.594,0,0,0,0-3.669l-9.452-9.434a2.594,2.594,0,0,0-3.669,0,2.594,2.594,0,0,0,0,3.669Z" transform="translate(-1154.799 429.588)" fill="#00223d"/>
          <path id="Trazado_26884" data-name="Trazado 26884" d="M1253.225-414.258a2.587,2.587,0,0,0,1.834-.759l9.445-9.434a2.594,2.594,0,0,0,0-3.668,2.594,2.594,0,0,0-3.669,0l-9.445,9.434a2.594,2.594,0,0,0,0,3.669A2.588,2.588,0,0,0,1253.225-414.258Z" transform="translate(-1155.128 429.588)" fill="#00223d"/>
          <path id="Trazado_26885" data-name="Trazado 26885" d="M1243.1-338.474a2.6,2.6,0,0,0,1.171-.28,2.594,2.594,0,0,0,1.148-3.485,2.594,2.594,0,0,0-3.485-1.148l-.014.007a2.588,2.588,0,0,0-1.141,3.482,2.6,2.6,0,0,0,2.321,1.424Z" transform="translate(-1155.084 429.214)" fill="#00223d"/>
        </g>
      </g>
    </g>
    <g id="Grupo_17142" data-name="Grupo 17142" transform="translate(-7 2519)">
      <rect id="Rect치ngulo_4278" data-name="Rect치ngulo 4278" width="151" height="151" transform="translate(640 -2418)" fill="none"/>
      <rect id="Rect치ngulo_4284" data-name="Rect치ngulo 4284" width="135" height="135" transform="translate(648 -2410)" fill="none"/>
    </g>
  </g>
</svg>
