<svg xmlns="http://www.w3.org/2000/svg" width="151" height="151" viewBox="0 0 151 151">
  <g id="Grupo_17155" data-name="Grupo 17155" transform="translate(-633 -795)">
    <g id="Grupo_17083" data-name="Grupo 17083" transform="translate(-34.845 368.937)">
      <circle id="Elipse_1002" data-name="Elipse 1002" cx="46.762" cy="46.762" r="46.762" transform="translate(681.991 440.19)" fill="#e9f857"/>
      <circle id="Elipse_1003" data-name="Elipse 1003" cx="34.823" cy="34.823" r="34.823" transform="translate(693.93 452.13)" fill="#f6ff9b"/>
      <path id="Trazado_26934" data-name="Trazado 26934" d="M803.3,550.671,838.4,585.777a7.648,7.648,0,0,1-10.816,10.816l-35.106-35.106Z" transform="translate(-36.275 -36.265)" fill="#f9a825"/>
      <rect id="Rectángulo_4230" data-name="Rectángulo 4230" width="15.297" height="13.327" transform="translate(756.205 525.222) rotate(-45)" fill="#f0f0fa"/>
      <path id="Trazado_26935" data-name="Trazado 26935" d="M734.4,529.9a37.31,37.31,0,1,0-37.31-37.31A37.353,37.353,0,0,0,734.4,529.9Zm0-69.646a32.336,32.336,0,1,1-32.336,32.336A32.372,32.372,0,0,1,734.4,460.252Z" transform="translate(-5.645 -5.636)" fill="#00223d"/>
      <path id="Trazado_26936" data-name="Trazado 26936" d="M703.922,556a2.487,2.487,0,1,0-3.517,3.518l.231.23a2.487,2.487,0,0,0,3.5-3.539Z" transform="translate(-6.476 -37.743)" fill="#00223d"/>
      <path id="Trazado_26937" data-name="Trazado 26937" d="M803.887,547.753,770,513.867a49.249,49.249,0,1,0-82.831-.507,2.487,2.487,0,0,0,4.2-2.67,44.278,44.278,0,1,1,12.824,13.11,2.487,2.487,0,0,0-2.764,4.136,49.352,49.352,0,0,0,54.234.259l8.208,8.209h0l25.681,25.681a10.136,10.136,0,0,0,14.334-14.334Zm-40.31-25.975a49.54,49.54,0,0,0,3.458-3.841l5.9,5.894c-.015.014-.031.026-.045.041l-7.256,7.256-5.895-5.894A49.227,49.227,0,0,0,763.578,521.777Zm36.792,36.792a5.16,5.16,0,0,1-7.3,0l-23.924-23.923,7.256-7.256c.014-.014.026-.03.041-.045l23.925,23.926A5.167,5.167,0,0,1,800.37,558.569Z" transform="translate(0)" fill="#00223d"/>
      <path id="Trazado_26938" data-name="Trazado 26938" d="M762.65,480.534A20.094,20.094,0,0,1,775.1,499.161a2.488,2.488,0,1,0,4.975,0,25.054,25.054,0,0,0-15.527-23.223,2.487,2.487,0,1,0-1.9,4.6Z" transform="translate(-26.203 -12.208)" fill="#00223d"/>
      <path id="Trazado_26939" data-name="Trazado 26939" d="M750.867,478.205h.312a2.488,2.488,0,0,0,.034-4.975l-.346,0a2.488,2.488,0,1,0,0,4.975Z" transform="translate(-22.115 -11.4)" fill="#00223d"/>
    </g>
    <g id="Grupo_17148" data-name="Grupo 17148" transform="translate(-7 3213)">
      <rect id="Rectángulo_4278" data-name="Rectángulo 4278" width="151" height="151" transform="translate(640 -2418)" fill="none"/>
      <rect id="Rectángulo_4284" data-name="Rectángulo 4284" width="135" height="135" transform="translate(648 -2410)" fill="none"/>
    </g>
  </g>
</svg>
