<svg xmlns="http://www.w3.org/2000/svg" width="119" height="119" viewBox="0 0 119 119">
  <g id="Grupo_17100" data-name="Grupo 17100" transform="translate(-650 4263)">
    <rect id="Rectángulo_4233" data-name="Rectángulo 4233" width="119" height="119" transform="translate(650 -4263)" fill="none"/>
    <g id="Grupo_17099" data-name="Grupo 17099" transform="translate(-164.876 -4927.678)">
      <path id="Trazado_25966" data-name="Trazado 25966" d="M868.71,750.9a10.892,10.892,0,0,0-5.317-3.043l-7.538-1.806,0,0,0,0v-4.6h-9.2v4.616h0l-7.518,1.8a10.92,10.92,0,0,0-8.383,10.622V770.8h16.664Z" transform="translate(-0.967 -18.977)" fill="#78d2fa"/>
      <path id="Trazado_25967" data-name="Trazado 25967" d="M864.365,741.453v4.726l-4.777,11.442-4.772-11.425v-4.742Z" transform="translate(-9.278 -18.977)" fill="#ffb487"/>
      <path id="Trazado_25968" data-name="Trazado 25968" d="M866.926,717.236v6.374a10.259,10.259,0,0,1-10.26,10.259h0a10.259,10.259,0,0,1-10.26-10.259v-6.374Z" transform="translate(-6.374 -10.614)" fill="#ffcdac"/>
      <path id="Trazado_25969" data-name="Trazado 25969" d="M866.926,713.6v-2.47a10.259,10.259,0,0,0-10.26-10.259h0a10.259,10.259,0,0,0-10.26,10.259v2.47h7.072a24.463,24.463,0,0,0,12.573-3.479h0" transform="translate(-6.374 -4.963)" fill="#878791"/>
      <path id="Trazado_25970" data-name="Trazado 25970" d="M910.447,750.9a10.89,10.89,0,0,1,5.318-3.043l7.537-1.806,0,0,0,0v-4.6h9.2v4.616h0l7.518,1.8a10.92,10.92,0,0,1,8.383,10.622V770.8H931.743Z" transform="translate(-28.49 -18.977)" fill="#e9f857"/>
      <path id="Trazado_25971" data-name="Trazado 25971" d="M878.091,755.615l-10.5,2.515a15.212,15.212,0,0,0-11.667,14.793v10.1h57.134V772.932a15.211,15.211,0,0,0-11.678-14.8l-10.471-2.5Z" transform="translate(-9.661 -23.868)" fill="#ff5a5a"/>
      <g id="Grupo_16648" data-name="Grupo 16648" transform="translate(868.012 722.475)">
        <path id="Trazado_25972" data-name="Trazado 25972" d="M939.33,741.453v4.742l-4.772,11.425-4.777-11.442v-4.726Z" transform="translate(-903.18 -741.453)" fill="#ffb487"/>
        <path id="Trazado_25973" data-name="Trazado 25973" d="M895.986,767.6l6.835-15.518a5.641,5.641,0,0,1-.8-2.893v-1.492H889.94v1.492a5.64,5.64,0,0,1-.794,2.889Z" transform="translate(-889.146 -743.608)" fill="#ffb487"/>
      </g>
      <path id="Trazado_25974" data-name="Trazado 25974" d="M906.343,710.594v9.86a14.29,14.29,0,0,1-14.29,14.29h0a14.29,14.29,0,0,1-14.29-14.29v-9.86Z" transform="translate(-17.203 -8.32)" fill="#ffcdac"/>
      <path id="Trazado_25975" data-name="Trazado 25975" d="M892.053,689.3h0a14.29,14.29,0,0,0-14.29,14.29v3.439h6.987a15.7,15.7,0,0,0,12.033-5.616h0l9.559,5.616v-3.439A14.289,14.289,0,0,0,892.053,689.3Z" transform="translate(-17.203 -0.967)" fill="#f9a825"/>
      <path id="Trazado_25976" data-name="Trazado 25976" d="M921.432,717.236v6.374a10.259,10.259,0,0,0,10.26,10.259h0a10.259,10.259,0,0,0,10.26-10.259v-6.374Z" transform="translate(-32.284 -10.614)" fill="#ffcdac"/>
      <path id="Trazado_25977" data-name="Trazado 25977" d="M921.432,713.6v-2.47a10.259,10.259,0,0,1,10.26-10.259h0a10.259,10.259,0,0,1,10.26,10.259v2.47h-7.072a24.463,24.463,0,0,1-12.573-3.479h0" transform="translate(-32.284 -4.963)" fill="#878791"/>
      <path id="Trazado_25978" data-name="Trazado 25978" d="M898.552,794.68a1.833,1.833,0,1,0,1.295.537A1.849,1.849,0,0,0,898.552,794.68Z" transform="translate(-23.75 -37.36)" fill="#00223d"/>
      <path id="Trazado_25979" data-name="Trazado 25979" d="M911.959,727.106l-6.111-1.46v-2.424A12.092,12.092,0,0,0,911.5,713v-6.827a12.084,12.084,0,0,0-21.139-8.01A16.15,16.15,0,0,0,874.87,686.5h0a16.151,16.151,0,0,0-15.5,11.688,12.084,12.084,0,0,0-21.166,7.978V713a12.092,12.092,0,0,0,5.652,10.226v2.424l-6.111,1.46a12.712,12.712,0,0,0-9.791,12.4v12.315a1.832,1.832,0,0,0,1.832,1.832h14.649v5.5a1.832,1.832,0,0,0,1.832,1.832h20.1a1.832,1.832,0,0,0,0-3.664h-8.179v-8.063a1.832,1.832,0,1,0-3.663,0v8.063H848.1v-8.266a13.338,13.338,0,0,1,10.262-13.011l9.011-2.159,5.8,13.189a1.83,1.83,0,0,0,1.677,1.1h0a1.833,1.833,0,0,0,1.677-1.095l5.792-13.171,8.984,2.147a13.335,13.335,0,0,1,10.271,13.013v2.044a1.839,1.839,0,0,0,0,1.433v4.78h-6.385v-8.063a1.832,1.832,0,1,0-3.664,0v8.063h-8.973a1.832,1.832,0,0,0,0,3.664H903.4a1.832,1.832,0,0,0,1.832-1.832v-5.5h14.686a1.832,1.832,0,0,0,1.832-1.832V739.51A12.712,12.712,0,0,0,911.959,727.106Zm-9.771.084-2.8,6.7-2.759-6.609a1.712,1.712,0,0,0,.013-.2c0-.017,0-.034,0-.051v-2.263a12,12,0,0,0,5.54,0v2.33C902.184,727.125,902.186,727.158,902.188,727.19ZM866.6,728.662a12.733,12.733,0,0,0-3.744-1.561l-6.133-1.469v-2.4a12.18,12.18,0,0,0,3.786-3.775,16.245,16.245,0,0,0,6.09,6.512Zm-4.186-16.528V707.9h5.155a17.484,17.484,0,0,0,12.382-5.119l7.369,4.328v5.458a12.456,12.456,0,0,1-24.905-.43ZM883.082,726a16.236,16.236,0,0,0,6.132-6.514,12.188,12.188,0,0,0,3.766,3.743v2.4l-6.133,1.469a12.726,12.726,0,0,0-3.765,1.574V726Zm16.326-4.578A8.437,8.437,0,0,1,890.98,713v-.3c.006-.187.01-4.926.01-4.926a26.3,26.3,0,0,0,11.6,2.7h5.24V713A8.438,8.438,0,0,1,899.408,721.423Zm0-23.682a8.437,8.437,0,0,1,8.427,8.427v.638H902.6A22.636,22.636,0,0,1,891.32,703.8,8.444,8.444,0,0,1,899.408,697.741Zm-37,4.883a12.458,12.458,0,0,1,24.916,0v.239l-6.8-3.995a1.831,1.831,0,0,0-2.332.4,13.836,13.836,0,0,1-10.63,4.961h-5.155Zm-20.546,3.544a8.428,8.428,0,0,1,16.516-2.371,22.636,22.636,0,0,1-11.276,3.009h-5.24v-.638Zm0,4.3h5.24a26.3,26.3,0,0,0,11.615-2.7V713a8.428,8.428,0,0,1-16.855,0Zm8.427,14.617a12.068,12.068,0,0,0,2.765-.323v2.211c0,.035,0,.069,0,.1a1.685,1.685,0,0,0,.011.172l-2.772,6.637-2.782-6.664c0-.044.005-.088.005-.132v-2.33A12.057,12.057,0,0,0,850.293,725.087Zm-5.86,23.968v.938h-5.489v-8.139a1.832,1.832,0,0,0-3.664,0v8.139h-3.664V739.51a9.06,9.06,0,0,1,6.978-8.84l5.807-1.387,3.79,9.079A17.006,17.006,0,0,0,844.432,749.055ZM857.5,732.481a17.2,17.2,0,0,0-3.1,1.065l1.785-4.273L862,730.665a9.072,9.072,0,0,1,1.314.424Zm17.339,9.3-4.582-10.423v-3.779a16.137,16.137,0,0,0,9.157.017v3.782Zm11.51-10.683a9.071,9.071,0,0,1,1.348-.438l5.794-1.389,1.792,4.292a17.254,17.254,0,0,0-3.14-1.081Zm31.732,18.89h-3.664v-8.139a1.832,1.832,0,0,0-3.664,0v8.139h-5.526v-.928a17.008,17.008,0,0,0-3.746-10.682l3.8-9.1,5.821,1.391a9.06,9.06,0,0,1,6.978,8.84Z" transform="translate(0)" fill="#00223d"/>
    </g>
  </g>
</svg>
