<svg xmlns="http://www.w3.org/2000/svg" width="151" height="151" viewBox="0 0 151 151">
  <g id="Grupo_17137" data-name="Grupo 17137" transform="translate(-630 916)">
    <g id="Grupo_17130" data-name="Grupo 17130" transform="translate(-10 1502)">
      <rect id="Rect치ngulo_4278" data-name="Rect치ngulo 4278" width="151" height="151" transform="translate(640 -2418)" fill="none"/>
      <rect id="Rect치ngulo_4284" data-name="Rect치ngulo 4284" width="135" height="135" transform="translate(648 -2410)" fill="none"/>
    </g>
    <g id="Grupo_17135" data-name="Grupo 17135" transform="translate(25.438 238.438)">
      <circle id="Elipse_969" data-name="Elipse 969" cx="65" cy="65" r="65" transform="translate(615.562 -1143.438)" fill="#f6ff9b"/>
      <g id="Grupo_16868" data-name="Grupo 16868" transform="translate(623.229 -1135.77)">
        <g id="Grupo_16856" data-name="Grupo 16856" transform="translate(29.506 1.679)">
          <g id="Grupo_16844" data-name="Grupo 16844" transform="translate(0 45.246)">
            <path id="Trazado_26421" data-name="Trazado 26421" d="M2516.1-207.011l13.562,3.635a11.311,11.311,0,0,1,8.382,10.926v14.4h-55.652v-14.4a11.311,11.311,0,0,1,8.382-10.926l13.561-3.635Z" transform="translate(-2482.388 207.011)" fill="#f6f9f9"/>
          </g>
          <g id="Grupo_16845" data-name="Grupo 16845" transform="translate(21.293 61.761)">
            <path id="Trazado_26422" data-name="Trazado 26422" d="M2509.91-192.486l4.525,12.442h-13.32l4.271-12.442Z" transform="translate(-2501.115 192.486)" fill="#e28086"/>
          </g>
          <g id="Grupo_16846" data-name="Grupo 16846" transform="translate(22.303 51.127)">
            <path id="Trazado_26423" data-name="Trazado 26423" d="M2513.049-197.235l-5.523-4.6-5.524,4.6,3.261,6.031h4.524Z" transform="translate(-2502.003 201.838)" fill="#dd636e"/>
          </g>
          <g id="Grupo_16847" data-name="Grupo 16847" transform="translate(15.017 45.246)">
            <path id="Trazado_26424" data-name="Trazado 26424" d="M2502.522-207.011l-6.928,1.857,3.307,11.943,9.5-7.918v-5.882Z" transform="translate(-2495.595 207.011)" fill="#dfeaef"/>
          </g>
          <g id="Grupo_16848" data-name="Grupo 16848" transform="translate(27.827 45.246)">
            <path id="Trazado_26425" data-name="Trazado 26425" d="M2512.743-207.011l6.927,1.857-3.307,11.943-9.5-7.918v-5.882Z" transform="translate(-2506.861 207.011)" fill="#dfeaef"/>
          </g>
          <g id="Grupo_16849" data-name="Grupo 16849" transform="translate(49.041 49.517)">
            <path id="Trazado_26426" data-name="Trazado 26426" d="M2525.519-203.254a11.3,11.3,0,0,1,.955,4.551v20.134h5.657v-14.4a11.314,11.314,0,0,0-6.611-10.289Z" transform="translate(-2525.519 203.254)" fill="#f1f4f6"/>
          </g>
          <g id="Grupo_16850" data-name="Grupo 16850" transform="translate(21.945 38.006)">
            <path id="Trazado_26427" data-name="Trazado 26427" d="M2507.57-200.257a5.882,5.882,0,0,1-5.882-5.882v-7.239h11.764v7.239a5.882,5.882,0,0,1-5.882,5.882Z" transform="translate(-2501.688 213.378)" fill="#f1d0a5"/>
          </g>
          <g id="Grupo_16851" data-name="Grupo 16851" transform="translate(21.945 38.006)">
            <path id="Trazado_26428" data-name="Trazado 26428" d="M2501.688-208.759a17.1,17.1,0,0,0,5.882,1.037,17.108,17.108,0,0,0,5.882-1.037v-4.619h-11.764Z" transform="translate(-2501.688 213.378)" fill="#f1b986"/>
          </g>
          <g id="Grupo_16852" data-name="Grupo 16852" transform="translate(14.705 13.348)">
            <path id="Trazado_26429" data-name="Trazado 26429" d="M2495.321-235.065v13.121a13.121,13.121,0,0,0,13.122,13.121,13.121,13.121,0,0,0,13.121-13.121v-13.121Z" transform="translate(-2495.321 235.065)" fill="#f1d0a5"/>
          </g>
          <g id="Grupo_16853" data-name="Grupo 16853" transform="translate(34.562 13.348)">
            <path id="Trazado_26430" data-name="Trazado 26430" d="M2514.645-235.065v17.645a13.056,13.056,0,0,1-1.861,6.737,13.113,13.113,0,0,0,6.386-11.261v-13.121Z" transform="translate(-2512.784 235.065)" fill="#f1b986"/>
          </g>
          <g id="Grupo_16854" data-name="Grupo 16854" transform="translate(32.351 4.072)">
            <path id="Trazado_26431" data-name="Trazado 26431" d="M2515.364-229.423h4.073v-8.822a4.978,4.978,0,0,0-4.978-4.978h-3.619v9.276a4.524,4.524,0,0,0,4.524,4.524Z" transform="translate(-2510.84 243.223)" fill="#544f57"/>
          </g>
          <g id="Grupo_16855" data-name="Grupo 16855" transform="translate(14.705)">
            <path id="Trazado_26432" data-name="Trazado 26432" d="M2508.442-228.932h-13.122v-8.822a9.049,9.049,0,0,1,9.049-9.05h4.525a4.071,4.071,0,0,1,4.072,4.072v9.276A4.524,4.524,0,0,1,2508.442-228.932Z" transform="translate(-2495.321 246.804)" fill="#665e66"/>
          </g>
        </g>
        <g id="Grupo_16865" data-name="Grupo 16865" transform="translate(1.679 75.883)">
          <g id="Grupo_16857" data-name="Grupo 16857">
            <path id="Trazado_26433" data-name="Trazado 26433" d="M2566.958-173.851h-106.78a2.263,2.263,0,0,1-2.263-2.263v-3.167a2.262,2.262,0,0,1,2.263-2.263h106.78a2.263,2.263,0,0,1,2.263,2.263v3.167A2.263,2.263,0,0,1,2566.958-173.851Z" transform="translate(-2457.915 181.543)" fill="#665e66"/>
          </g>
          <g id="Grupo_16858" data-name="Grupo 16858" transform="translate(102.708)">
            <path id="Trazado_26434" data-name="Trazado 26434" d="M2554.58-181.543h-6.334a2.262,2.262,0,0,1,2.262,2.263v3.167a2.262,2.262,0,0,1-2.262,2.263h6.334a2.263,2.263,0,0,0,2.263-2.263v-3.167A2.263,2.263,0,0,0,2554.58-181.543Z" transform="translate(-2548.246 181.543)" fill="#544f57"/>
          </g>
          <g id="Grupo_16859" data-name="Grupo 16859" transform="translate(4.524 7.692)">
            <path id="Trazado_26435" data-name="Trazado 26435" d="M2561.888-167.086h-97.731a2.262,2.262,0,0,1-2.263-2.263v-5.429H2564.15v5.429A2.262,2.262,0,0,1,2561.888-167.086Z" transform="translate(-2461.894 174.778)" fill="#c19d8e"/>
          </g>
          <g id="Grupo_16860" data-name="Grupo 16860" transform="translate(97.731 7.692)">
            <path id="Trazado_26436" data-name="Trazado 26436" d="M2546.13-174.778v5.429a2.262,2.262,0,0,1-2.261,2.263h6.787a2.262,2.262,0,0,0,2.262-2.263v-5.429Z" transform="translate(-2543.869 174.778)" fill="#b78b7a"/>
          </g>
          <g id="Grupo_16861" data-name="Grupo 16861" transform="translate(9.05 15.384)">
            <path id="Trazado_26437" data-name="Trazado 26437" d="M2465.874-168.013h93.206v21.718h-93.206Z" transform="translate(-2465.874 168.013)" fill="#b78b7a"/>
          </g>
          <g id="Grupo_16862" data-name="Grupo 16862" transform="translate(9.05 15.384)">
            <path id="Trazado_26438" data-name="Trazado 26438" d="M2465.874-168.013v5.882h85.967a1.358,1.358,0,0,1,1.357,1.358V-146.3h5.882v-21.717Z" transform="translate(-2465.874 168.013)" fill="#aa7a63"/>
          </g>
          <g id="Grupo_16863" data-name="Grupo 16863" transform="translate(18.098 15.384)">
            <path id="Trazado_26439" data-name="Trazado 26439" d="M2473.832-168.013h75.108v21.718h-75.108Z" transform="translate(-2473.832 168.013)" fill="#c19d8e"/>
          </g>
          <g id="Grupo_16864" data-name="Grupo 16864" transform="translate(18.098 15.384)">
            <path id="Trazado_26440" data-name="Trazado 26440" d="M2473.832-168.013h75.108v5.882h-75.108Z" transform="translate(-2473.832 168.013)" fill="#b78b7a"/>
          </g>
        </g>
        <g id="Grupo_16866" data-name="Grupo 16866" transform="translate(77.693 1.679)">
          <path id="Trazado_26441" data-name="Trazado 26441" d="M2555.534-246.8h-26.242a4.524,4.524,0,0,0-4.524,4.524v18.1a4.524,4.524,0,0,0,4.524,4.524h2.489v7.692l7.918-7.692h15.835a4.525,4.525,0,0,0,4.525-4.524v-18.1a4.525,4.525,0,0,0-4.525-4.524Z" transform="translate(-2524.768 246.804)" fill="#cbe2ff"/>
        </g>
        <g id="Grupo_16867" data-name="Grupo 16867" transform="translate(0 0)">
          <path id="Trazado_26442" data-name="Trazado 26442" d="M2567.16-174.078H2553v-18.779a10.657,10.657,0,0,0-3.141-7.586l-2.466-2.466a3.147,3.147,0,0,0,.083-.71,3.167,3.167,0,0,0-3.167-3.167,3.166,3.166,0,0,0-3.167,3.167,3.167,3.167,0,0,0,3.167,3.168,3.178,3.178,0,0,0,.709-.083l2.465,2.466a7.32,7.32,0,0,1,2.16,5.211v18.779h-6.369V-186.8a13.011,13.011,0,0,0-9.628-12.548l-12.316-3.3v-4.772a14.8,14.8,0,0,0,7.239-12.716v-17.42a6.664,6.664,0,0,0-6.657-6.656h-2.191a5.76,5.76,0,0,0-5.5-4.072H2509.7a10.74,10.74,0,0,0-10.729,10.728v17.42a14.8,14.8,0,0,0,7.239,12.716v4.772l-12.316,3.3a13.01,13.01,0,0,0-9.627,12.548v12.718h-6.37v-18.779a7.323,7.323,0,0,1,2.159-5.211l2.465-2.466a3.175,3.175,0,0,0,.709.083,3.167,3.167,0,0,0,3.168-3.167,3.168,3.168,0,0,0-3.168-3.168,3.167,3.167,0,0,0-3.167,3.168,3.165,3.165,0,0,0,.082.708l-2.465,2.466a10.653,10.653,0,0,0-3.143,7.586v18.779H2460.38a3.946,3.946,0,0,0-3.942,3.942v3.167a3.946,3.946,0,0,0,3.942,3.942h.582v3.75a3.946,3.946,0,0,0,3.942,3.942h.583V-135.3a1.679,1.679,0,0,0,1.68,1.679,1.679,1.679,0,0,0,1.679-1.679v-20.039h5.69V-135.3a1.679,1.679,0,0,0,1.679,1.679,1.68,1.68,0,0,0,1.68-1.679v-20.039h7.3a1.679,1.679,0,0,0,1.68-1.679,1.68,1.68,0,0,0-1.68-1.681h-20.3a.583.583,0,0,1-.583-.582v-3.75h85.305a1.679,1.679,0,0,0,1.679-1.679,1.68,1.68,0,0,0-1.679-1.681H2460.38a.583.583,0,0,1-.583-.582v-3.168a.583.583,0,0,1,.583-.582h106.78a.583.583,0,0,1,.583.582v3.168a.583.583,0,0,1-.583.582H2557.5a1.68,1.68,0,0,0-1.679,1.681,1.679,1.679,0,0,0,1.679,1.679h5.721v3.75a.582.582,0,0,1-.582.582h-69.566a1.68,1.68,0,0,0-1.679,1.681,1.68,1.68,0,0,0,1.679,1.679h56.575V-135.3a1.679,1.679,0,0,0,1.679,1.679A1.678,1.678,0,0,0,2553-135.3v-20.039h5.691V-135.3a1.679,1.679,0,0,0,1.679,1.679,1.679,1.679,0,0,0,1.679-1.679v-20.039h.583a3.946,3.946,0,0,0,3.941-3.942v-3.75h.583a3.946,3.946,0,0,0,3.942-3.942v-3.168a3.946,3.946,0,0,0-3.942-3.941ZM2510.2-194.69l-3.032,2.528-.01.008-1.97,1.642-2.16-7.8,3.477-.932a7.6,7.6,0,0,0,3.7,4.558Zm2.5,11.528h2.149l3.3,9.084h-8.57Zm2.324-3.359h-2.521l-2.131-3.941,3.392-2.827,3.392,2.827Zm5.347-5.633-.011-.009-3.032-2.528a7.6,7.6,0,0,0,3.7-4.557l3.478.932-2.161,7.8Zm4.833-45.4v7.144h-2.392a2.848,2.848,0,0,1-2.845-2.845v-7.6h1.939a3.3,3.3,0,0,1,3.3,3.3Zm-22.883,0a7.378,7.378,0,0,1,7.369-7.369h4.525a2.4,2.4,0,0,1,2.393,2.392v9.276a2.848,2.848,0,0,1-2.845,2.845h-11.442v-7.144Zm0,17.42v-6.917h11.442a6.184,6.184,0,0,0,4.524-1.966,6.187,6.187,0,0,0,4.525,1.966h2.393v6.917a11.455,11.455,0,0,1-11.442,11.442,11.455,11.455,0,0,1-11.442-11.442Zm11.442,14.8a14.752,14.752,0,0,0,4.2-.611v4.587a4.208,4.208,0,0,1-4.2,4.2,4.207,4.207,0,0,1-4.2-4.2v-4.587A14.742,14.742,0,0,0,2513.77-205.332ZM2487.623-186.8a9.646,9.646,0,0,1,7.138-9.3l5.025-1.347,2.863,10.338a1.679,1.679,0,0,0,1.118,1.155,1.678,1.678,0,0,0,.5.076,1.681,1.681,0,0,0,1.076-.389l2.4-2,1.935,3.577-3.643,10.612h-6.423v-2.845a1.681,1.681,0,0,0-1.68-1.681,1.68,1.68,0,0,0-1.68,1.681v2.845h-8.631Zm43.663,12.718v-2.845a1.681,1.681,0,0,0-1.68-1.681,1.68,1.68,0,0,0-1.68,1.681v2.845h-6.193l-3.865-10.628,1.926-3.561,2.4,2a1.679,1.679,0,0,0,1.075.389,1.687,1.687,0,0,0,.5-.076,1.68,1.68,0,0,0,1.118-1.155l2.863-10.338,5.026,1.347a9.646,9.646,0,0,1,7.138,9.3v12.718Z" transform="translate(-2456.438 248.281)" fill="#00223d"/>
          <path id="Trazado_26443" data-name="Trazado 26443" d="M2555.737-248.281h-26.243a6.21,6.21,0,0,0-6.2,6.2v18.1a6.21,6.21,0,0,0,6.2,6.2h.81v6.013a1.679,1.679,0,0,0,1.026,1.546,1.662,1.662,0,0,0,.654.133,1.674,1.674,0,0,0,1.17-.475l7.429-7.217h4.574a1.679,1.679,0,0,0,1.679-1.679,1.679,1.679,0,0,0-1.679-1.679H2539.9a1.673,1.673,0,0,0-1.17.474l-5.069,4.923v-3.718a1.679,1.679,0,0,0-1.679-1.679h-2.489a2.849,2.849,0,0,1-2.844-2.845v-18.1a2.848,2.848,0,0,1,2.844-2.845h26.243a2.848,2.848,0,0,1,2.845,2.845v18.1a2.848,2.848,0,0,1-2.845,2.845h-2.722a1.68,1.68,0,0,0-1.679,1.679,1.68,1.68,0,0,0,1.679,1.679h2.722a6.212,6.212,0,0,0,6.2-6.2v-18.1a6.212,6.212,0,0,0-6.2-6.2Z" transform="translate(-2447.278 248.281)" fill="#00223d"/>
        </g>
      </g>
    </g>
  </g>
</svg>
