<svg xmlns="http://www.w3.org/2000/svg" width="96.296" height="102.715" viewBox="0 0 96.296 102.715">
  <g id="Grupo_16893" data-name="Grupo 16893" transform="translate(36.64 267.089)">
    <path id="Trazado_26505" data-name="Trazado 26505" d="M7.23-229.818v19.962h0q.925-.161,1.86-.284c.091-.013.184-.022.275-.035.554-.07,1.108-.133,1.668-.184.258-.024.52-.04.78-.059.422-.031.842-.066,1.268-.085.719-.034,1.443-.055,2.172-.055s1.453.021,2.172.055c.426.019.846.054,1.268.085.26.02.522.035.78.059.559.049,1.114.114,1.666.184l.276.035c.625.082,1.244.178,1.86.284h0v-19.962H29.7v-11.235a6.42,6.42,0,0,0-6.419-6.419H7.23a6.42,6.42,0,0,0-6.42,6.419v11.235Z" transform="translate(-3.747 -1.963)" fill="#fbc926"/>
    <path id="Trazado_26506" data-name="Trazado 26506" d="M35.4-167.936a3.209,3.209,0,0,1-3.21-3.21,3.21,3.21,0,0,1,3.21-3.21h3.21a3.209,3.209,0,0,0,3.209-3.209,3.209,3.209,0,0,0-3.209-3.21H22.565a3.209,3.209,0,0,1-3.21-3.21,3.21,3.21,0,0,1,3.21-3.21h3.21a3.209,3.209,0,0,0,3.209-3.209,3.209,3.209,0,0,0-3.209-3.21H17.75a3.209,3.209,0,0,1-3.21-3.21,3.209,3.209,0,0,1,3.21-3.209H36.33L33.8-201.513a46.2,46.2,0,0,0-12.841-4.237q-.925-.162-1.86-.284l-.276-.035c-.553-.07-1.107-.133-1.666-.184-.258-.024-.52-.04-.78-.059-.422-.031-.842-.066-1.268-.085-.72-.035-1.444-.056-2.172-.056s-1.453.021-2.173.055c-.426.019-.846.054-1.268.085-.26.02-.52.035-.779.059-.559.049-1.114.114-1.668.184l-.276.035c-.625.082-1.244.178-1.86.284a46.259,46.259,0,0,0-12.841,4.237l-4.5,2.631a46.764,46.764,0,0,0-8.318,6.873l14.52,0A3.117,3.117,0,0,1-3.116-188.9v.08a3.21,3.21,0,0,1-3.208,3.226H-9.539a3.208,3.208,0,0,0-3.2,3.212,3.209,3.209,0,0,0,3.21,3.209H6.515a3.21,3.21,0,0,1,3.21,3.21,3.2,3.2,0,0,1-3.2,3.21h-25.7a3.2,3.2,0,0,0-3.2,3.209,3.209,3.209,0,0,0,3.209,3.21h4.816a3.209,3.209,0,0,1,3.209,3.21,3.209,3.209,0,0,1-3.209,3.21H59.478a46.868,46.868,0,0,0-.7-8.025Zm-14.444,1.6H17.75a3.209,3.209,0,0,1-3.21-3.21,3.209,3.209,0,0,1,3.21-3.209h3.21a3.209,3.209,0,0,1,3.209,3.209A3.209,3.209,0,0,1,20.96-166.332Z" transform="translate(-1.427 -6.067)" fill="#1881d1"/>
    <g id="Grupo_16890" data-name="Grupo 16890" transform="translate(-35.035 -206.102)">
      <path id="Trazado_26507" data-name="Trazado 26507" d="M21.854-199.321a3.209,3.209,0,0,0-3.21,3.209,3.209,3.209,0,0,0,3.21,3.21h8.025a3.209,3.209,0,0,1,3.209,3.21,3.209,3.209,0,0,1-3.209,3.209h-3.21a3.21,3.21,0,0,0-3.21,3.21,3.209,3.209,0,0,0,3.21,3.21h16.05a3.209,3.209,0,0,1,3.209,3.21,3.209,3.209,0,0,1-3.209,3.209h-3.21a3.21,3.21,0,0,0-3.21,3.21,3.209,3.209,0,0,0,3.21,3.21H62.879a46.534,46.534,0,0,0-19.967-30.651l-2.478-1.447Z" transform="translate(29.504 199.321)" fill="#03ddd7"/>
      <path id="Trazado_26508" data-name="Trazado 26508" d="M-12.388-161.516a3.209,3.209,0,0,0-3.209-3.21h-4.816a3.209,3.209,0,0,1-3.209-3.21,3.2,3.2,0,0,1,3.2-3.209h25.7a3.2,3.2,0,0,0,3.2-3.21,3.21,3.21,0,0,0-3.21-3.21H-10.783a3.21,3.21,0,0,1-3.21-3.209,3.206,3.206,0,0,1,3.207-3.21h3.215a3.211,3.211,0,0,0,3.208-3.226v-.08a3.117,3.117,0,0,0-3.117-3.117l-14.52,0a46.371,46.371,0,0,0-12.858,32.1H-15.6A3.209,3.209,0,0,0-12.388-161.516Z" transform="translate(34.857 198.429)" fill="#03ddd7"/>
      <path id="Trazado_26509" data-name="Trazado 26509" d="M25.064-169h-3.21a3.209,3.209,0,0,0-3.21,3.209,3.209,3.209,0,0,0,3.21,3.21h3.21a3.209,3.209,0,0,0,3.209-3.21A3.209,3.209,0,0,0,25.064-169Z" transform="translate(29.504 196.288)" fill="#03ddd7"/>
    </g>
    <circle id="Elipse_972" data-name="Elipse 972" cx="8.025" cy="8.025" r="8.025" transform="translate(3.483 -265.484)" fill="#fbc926"/>
    <g id="Grupo_16891" data-name="Grupo 16891" transform="translate(-31.825 -257.46)">
      <circle id="Elipse_973" data-name="Elipse 973" cx="8.025" cy="8.025" r="8.025" transform="translate(64.197)" fill="#f4ebdc"/>
      <circle id="Elipse_974" data-name="Elipse 974" cx="8.025" cy="8.025" r="8.025" transform="translate(6.42)" fill="#f4ebdc"/>
      <path id="Trazado_26510" data-name="Trazado 26510" d="M-8.821-220.9H-2.4v-11.234a6.42,6.42,0,0,0-6.419-6.42h-16.05a6.42,6.42,0,0,0-6.419,6.42V-220.9h6.419v28.889l8.025-8.025,3.521-2.057,4.5-2.631Z" transform="translate(31.29 254.605)" fill="#f4ebdc"/>
      <path id="Trazado_26511" data-name="Trazado 26511" d="M32.911-220.9h6.42v16.176l2.531,1.479,2.478,1.447,3.016,1.762,8.025,8.025V-220.9H61.8v-11.234a6.42,6.42,0,0,0-6.42-6.42H39.331a6.42,6.42,0,0,0-6.42,6.42V-220.9Z" transform="translate(24.866 254.605)" fill="#f4ebdc"/>
    </g>
    <g id="Grupo_16892" data-name="Grupo 16892" transform="translate(-36.64 -267.089)">
      <path id="Trazado_26512" data-name="Trazado 26512" d="M24.886-170.788h-3.21a4.821,4.821,0,0,0-4.815,4.815,4.821,4.821,0,0,0,4.815,4.816h3.21a4.822,4.822,0,0,0,4.815-4.816A4.821,4.821,0,0,0,24.886-170.788Zm0,6.42h-3.21a1.606,1.606,0,0,1-1.6-1.605,1.606,1.606,0,0,1,1.6-1.6h3.21a1.607,1.607,0,0,1,1.6,1.6A1.607,1.607,0,0,1,24.886-164.368Z" transform="translate(31.287 257.454)" fill="#00223d"/>
      <path id="Trazado_26513" data-name="Trazado 26513" d="M50.026-194.868v-27.284h4.815a1.6,1.6,0,0,0,1.6-1.605v-11.234a8.034,8.034,0,0,0-8.025-8.025h-.867a9.579,9.579,0,0,0,2.472-6.419,9.64,9.64,0,0,0-9.63-9.63,9.639,9.639,0,0,0-9.629,9.63,9.579,9.579,0,0,0,2.472,6.419h-.867a7.94,7.94,0,0,0-4.816,1.647v-1.647a8.034,8.034,0,0,0-8.024-8.025h-.867a9.581,9.581,0,0,0,2.471-6.419,9.639,9.639,0,0,0-9.629-9.629,9.639,9.639,0,0,0-9.629,9.629A9.581,9.581,0,0,0,4.35-251.04H3.483a8.034,8.034,0,0,0-8.025,8.025v1.647a7.938,7.938,0,0,0-4.815-1.647h-.867a9.582,9.582,0,0,0,2.471-6.419,9.639,9.639,0,0,0-9.629-9.63,9.639,9.639,0,0,0-9.629,9.63,9.582,9.582,0,0,0,2.471,6.419h-.867a8.034,8.034,0,0,0-8.025,8.025v11.234a1.6,1.6,0,0,0,1.606,1.605h4.815v27.284h.025a47.9,47.9,0,0,0-9.655,28.889,1.6,1.6,0,0,0,1.6,1.6H58.05a1.6,1.6,0,0,0,1.605-1.6A47.9,47.9,0,0,0,50-194.868Zm-16.05-54.567a6.426,6.426,0,0,1,6.419-6.42,6.427,6.427,0,0,1,6.42,6.42,6.426,6.426,0,0,1-6.42,6.419A6.426,6.426,0,0,1,33.977-249.435Zm-1.6,9.629H48.421a4.82,4.82,0,0,1,4.815,4.815v9.629H50.026v-9.629h-3.21v36.323A48.975,48.975,0,0,0,42-203.21v-18.941h-3.21v16.531q-1.561-1.079-3.21-2.029v-.058h-.1c-.5-.287-1-.568-1.5-.838v-26.446h-3.21v9.629h-3.21v-9.629A4.821,4.821,0,0,1,32.372-239.805Zm4.815,51.358H21.137a1.606,1.606,0,0,1-1.6-1.606,1.606,1.606,0,0,1,1.6-1.6h3.21a4.821,4.821,0,0,0,4.815-4.815,4.821,4.821,0,0,0-4.815-4.815H16.323a1.606,1.606,0,0,1-1.6-1.606,1.606,1.606,0,0,1,1.6-1.6h18.3a45.073,45.073,0,0,1,20.773,28.888H33.977a1.605,1.605,0,0,1-1.6-1.6,1.606,1.606,0,0,1,1.6-1.6h3.21A4.821,4.821,0,0,0,42-183.633,4.821,4.821,0,0,0,37.187-188.447Zm-16.05-41.729h3.21v6.419a1.6,1.6,0,0,0,1.6,1.605h4.815V-210.1a47.791,47.791,0,0,0-9.629-3.063ZM5.088-257.46a6.427,6.427,0,0,1,6.42-6.42,6.426,6.426,0,0,1,6.419,6.42,6.426,6.426,0,0,1-6.419,6.419A6.426,6.426,0,0,1,5.088-257.46Zm-6.419,14.444a4.82,4.82,0,0,1,4.815-4.815h16.05a4.821,4.821,0,0,1,4.815,4.815v9.629h-3.21v-9.629h-3.21v29.326c-.043-.006-.088-.008-.131-.014q-1.386-.182-2.8-.283c-.153-.012-.305-.026-.457-.035-.474-.03-.949-.049-1.427-.065v-16.089H9.9v16.089c-.476.016-.953.035-1.426.065-.152.009-.305.023-.457.035q-1.411.1-2.8.283c-.044.007-.089.008-.132.014v-29.326H1.879v9.629h-3.21v-9.629Zm-6.42,32.92v-12.056h4.815a1.6,1.6,0,0,0,1.606-1.605v-6.419h3.21v17.019A47.738,47.738,0,0,0-7.752-210.1ZM-23.8-249.435a6.426,6.426,0,0,1,6.419-6.42,6.427,6.427,0,0,1,6.42,6.42,6.426,6.426,0,0,1-6.42,6.419A6.426,6.426,0,0,1-23.8-249.435Zm-3.21,14.444v9.629h-3.21v-9.629a4.821,4.821,0,0,1,4.815-4.815h16.05a4.82,4.82,0,0,1,4.815,4.815v9.629h-3.21v-9.629h-3.209v26.446a47.724,47.724,0,0,0-4.815,2.925v-16.531h-3.21v18.943a48.354,48.354,0,0,0-4.815,4.542v-36.324ZM-33.4-167.584a44.764,44.764,0,0,1,11.939-28.888l13.8,0a1.532,1.532,0,0,1,1.512,1.592,1.623,1.623,0,0,1-.472,1.153,1.581,1.581,0,0,1-1.129.468h-3.216a4.819,4.819,0,0,0-4.811,4.816,4.821,4.821,0,0,0,4.815,4.815H5.088a1.607,1.607,0,0,1,1.606,1.6,1.6,1.6,0,0,1-1.6,1.6H-20.6a4.816,4.816,0,0,0-4.806,4.815,4.822,4.822,0,0,0,4.815,4.816h4.816a1.607,1.607,0,0,1,1.6,1.6,1.607,1.607,0,0,1-1.6,1.6Zm22.144,0a4.752,4.752,0,0,0,.3-1.6A4.821,4.821,0,0,0-15.776-174h-4.816a1.607,1.607,0,0,1-1.6-1.605,1.6,1.6,0,0,1,1.6-1.6H5.1A4.816,4.816,0,0,0,9.9-182.028a4.82,4.82,0,0,0-4.815-4.815H-10.961a1.607,1.607,0,0,1-1.606-1.6,1.605,1.605,0,0,1,1.6-1.606h3.218a4.764,4.764,0,0,0,3.4-1.414,4.863,4.863,0,0,0,1.406-3.5,4.726,4.726,0,0,0-4.721-4.72l-10.526,0a44.8,44.8,0,0,1,21.995-10.56q1.89-.325,3.766-.493l.182-.013a44.2,44.2,0,0,1,7.5,0l.181.013q1.878.166,3.767.493a44.659,44.659,0,0,1,8.959,2.535H16.323a4.821,4.821,0,0,0-4.815,4.815,4.821,4.821,0,0,0,4.815,4.816h8.025a1.607,1.607,0,0,1,1.6,1.6,1.607,1.607,0,0,1-1.6,1.6h-3.21a4.821,4.821,0,0,0-4.815,4.815,4.821,4.821,0,0,0,4.815,4.816h16.05a1.606,1.606,0,0,1,1.6,1.6,1.607,1.607,0,0,1-1.6,1.6h-3.21a4.821,4.821,0,0,0-4.815,4.815,4.82,4.82,0,0,0,4.815,4.815h22a44.88,44.88,0,0,1,.436,4.816H-11.257Z" transform="translate(36.64 267.089)" fill="#00223d"/>
    </g>
  </g>
</svg>
