<svg xmlns="http://www.w3.org/2000/svg" width="151" height="151" viewBox="0 0 151 151">
  <g id="Grupo_17121" data-name="Grupo 17121" transform="translate(-640 2418)">
    <g id="Layer_1" data-name="Layer 1" transform="translate(-444.964 -2873.948)">
      <g id="Grupo_16843" data-name="Grupo 16843" transform="translate(1092.964 465.06)">
        <path id="Trazado_26407" data-name="Trazado 26407" d="M1197.386,469.044v86.335h-5.824a8.14,8.14,0,0,1-1.213-.092,8.44,8.44,0,0,1-5.57-3.318l-3.238-4.347a8.451,8.451,0,0,0-6.783-3.4h-9.6a7.588,7.588,0,0,0-4.553-1.527h-16.916a10.814,10.814,0,0,0-7.724,3.238l-2.62,2.668a10.819,10.819,0,0,1-6.512,3.172,10.074,10.074,0,0,1-1.213.071h-5.825v-82.8a2.708,2.708,0,0,1,2.707-2.706h72.179a2.708,2.708,0,0,1,2.706,2.706Z" transform="translate(-1091.377 -464.984)" fill="#f0c020"/>
        <path id="Trazado_26408" data-name="Trazado 26408" d="M1189.957,472.982v81.912a8.44,8.44,0,0,1-5.57-3.318l-3.238-4.347a8.45,8.45,0,0,0-6.783-3.4h-9.6a7.587,7.587,0,0,0-4.553-1.527H1143.3a10.814,10.814,0,0,0-7.724,3.238l-2.62,2.668a10.82,10.82,0,0,1-6.512,3.172V472.982Z" transform="translate(-1090.984 -464.591)" fill="#efefef"/>
        <path id="Trazado_26409" data-name="Trazado 26409" d="M1204.81,543.829h14.613v47.5H1204.81Z" transform="translate(-1086.349 -460.402)" fill="#36687a"/>
        <path id="Trazado_26410" data-name="Trazado 26410" d="M1094.241,540.484h14.613v47.5h-14.613Z" transform="translate(-1092.889 -460.599)" fill="#f9a825"/>
        <path id="Trazado_26411" data-name="Trazado 26411" d="M1202.913,551.115v33.567H1188.3a10.849,10.849,0,0,0-4.731,1.088l-5.288,2.572a10.889,10.889,0,0,1-4.731,1.088h-29.762a4.8,4.8,0,0,1-4.531-3.242h-4.449a10.644,10.644,0,0,1-6.88-2.523,10.624,10.624,0,0,0-6.88-2.528h-6.2V547.576h11.06a10.061,10.061,0,0,0,1.213-.071,10.819,10.819,0,0,0,6.512-3.172l2.62-2.668a10.815,10.815,0,0,1,7.724-3.238H1160.9a7.588,7.588,0,0,1,4.553,1.527h9.6a8.45,8.45,0,0,1,6.783,3.4l3.238,4.347a8.439,8.439,0,0,0,5.57,3.318,8.138,8.138,0,0,0,1.213.092Z" transform="translate(-1091.669 -460.721)" fill="#ffb69f"/>
        <path id="Trazado_26412" data-name="Trazado 26412" d="M1198,548.137V586.7a1.624,1.624,0,0,0,1.624,1.624h5.594V546.513h-5.594A1.623,1.623,0,0,0,1198,548.137Z" transform="translate(-1086.753 -460.243)" fill="#efefef"/>
        <path id="Trazado_26413" data-name="Trazado 26413" d="M1115.257,583.355V544.792a1.624,1.624,0,0,0-1.625-1.624h-5.594V584.98h5.594A1.625,1.625,0,0,0,1115.257,583.355Z" transform="translate(-1092.073 -460.441)" fill="#efefef"/>
        <path id="Trazado_26414" data-name="Trazado 26414" d="M1176.575,510.447l-5.568,1.174.606,5.652a2.639,2.639,0,0,1-3.7,2.69l-1.406-.629-3.783-1.695-2.833,4.932a2.639,2.639,0,0,1-4.578,0l-2.833-4.932-3.783,1.695-1.406.629a2.639,2.639,0,0,1-3.7-2.69l.606-5.652-5.569-1.174a2.639,2.639,0,0,1-1.412-4.353l3.812-4.216-3.813-4.219a2.639,2.639,0,0,1,1.415-4.352l5.567-1.171-.607-5.655a2.639,2.639,0,0,1,3.7-2.69l5.189,2.323,2.833-4.93a2.639,2.639,0,0,1,4.576,0l2.834,4.93,5.188-2.323a2.639,2.639,0,0,1,3.7,2.69l-.606,5.655,5.566,1.171a2.639,2.639,0,0,1,1.415,4.352l-3.813,4.219,3.813,4.216A2.639,2.639,0,0,1,1176.575,510.447Z" transform="translate(-1090.388 -464.185)" fill="#f0c020"/>
        <path id="Trazado_26415" data-name="Trazado 26415" d="M1165.827,517.224V532.97a.98.98,0,0,1-1.627.736l-7.278-6.4-7.278,6.4a.98.98,0,0,1-1.627-.736V517.224l3.783-1.695,2.834,4.932a2.638,2.638,0,0,0,4.576,0l2.834-4.932Z" transform="translate(-1089.708 -462.075)" fill="#fc5d3d"/>
        <circle id="Elipse_965" data-name="Elipse 965" cx="10.183" cy="10.183" r="10.183" transform="translate(57.03 27.51)" fill="#72c2e9"/>
        <path id="Trazado_26416" data-name="Trazado 26416" d="M1156.814,506.532a1.353,1.353,0,0,1,.957-1.658,4.076,4.076,0,0,0,1.823-6.818,1.353,1.353,0,1,1,1.914-1.913,6.781,6.781,0,0,1-3.035,11.344,1.354,1.354,0,0,1-1.659-.956Zm-4.649-.563c-.085-.077-.167-.157-.249-.237a1.354,1.354,0,1,1,1.918-1.911c.048.049.1.1.147.141a1.353,1.353,0,1,1-1.816,2.007Z" transform="translate(-1089.501 -463.245)" fill="#c5e5ff"/>
        <g id="Grupo_16842" data-name="Grupo 16842">
          <path id="Trazado_26417" data-name="Trazado 26417" d="M1158.763,567.217h-6.5a1.353,1.353,0,1,0,0,2.706h6.5a1.353,1.353,0,1,0,0-2.706Z" transform="translate(-1089.537 -459.019)" fill="#00223d"/>
          <circle id="Elipse_966" data-name="Elipse 966" cx="1.353" cy="1.353" r="1.353" transform="translate(55.964 108.198)" fill="#00223d"/>
          <path id="Trazado_26418" data-name="Trazado 26418" d="M1226.038,594.63h-13.259V549.841h13.259a1.354,1.354,0,1,0,0-2.707h-14.613a1.353,1.353,0,0,0-1.354,1.353v1.488h-4.239a2.983,2.983,0,0,0-2.977,2.977V554.1h-2.528V469.12a4.065,4.065,0,0,0-4.06-4.06h-72.18a4.069,4.069,0,0,0-4.06,4.06V503.2a1.354,1.354,0,0,0,2.707,0V469.12a1.353,1.353,0,0,1,1.352-1.353h72.179a1.354,1.354,0,0,1,1.354,1.353V554.1h-4.331v-80.65a1.353,1.353,0,0,0-1.353-1.354h-63.517a1.353,1.353,0,0,0-1.354,1.354v77.111h-4.331V514.022a1.353,1.353,0,0,0-2.706,0v36.539H1117.5v-1.15a2.98,2.98,0,0,0-2.977-2.977h-4.24v-1.489a1.353,1.353,0,0,0-1.354-1.353h-14.613a1.353,1.353,0,0,0,0,2.706h13.26v44.789h-13.26a1.354,1.354,0,0,0,0,2.707h14.613a1.354,1.354,0,0,0,1.354-1.354v-1.489h4.24a2.979,2.979,0,0,0,2.977-2.977v-1.145h4.844a9.248,9.248,0,0,1,6.005,2.207,12,12,0,0,0,7.755,2.844h3.567a6.139,6.139,0,0,0,5.413,3.242h29.761a12.292,12.292,0,0,0,5.323-1.224l5.288-2.571a9.541,9.541,0,0,1,4.139-.952h13.257v1.142a2.982,2.982,0,0,0,2.977,2.977h4.24v1.489a1.353,1.353,0,0,0,1.354,1.353h14.613a1.353,1.353,0,0,0,0-2.706ZM1114.8,587.974a.271.271,0,0,1-.271.27h-4.24v-39.1h4.24a.271.271,0,0,1,.271.27Zm14.976-113.17h60.812v78.805a7.152,7.152,0,0,1-3.131-2.374l-3.237-4.347a9.856,9.856,0,0,0-7.868-3.949h-9.172a9,9,0,0,0-4.983-1.526h-16.917a12.254,12.254,0,0,0-8.69,3.642l-2.619,2.669a9.5,9.5,0,0,1-4.193,2.476V474.8Zm9.182,114.369H1136.1a9.288,9.288,0,0,1-6-2.2,11.951,11.951,0,0,0-7.759-2.851H1117.5V553.267h9.7a12.252,12.252,0,0,0,8.69-3.648l2.619-2.669a9.527,9.527,0,0,1,6.758-2.831h16.917a6.3,6.3,0,0,1,5.239,2.844l.007.012.01.015,4.83,7.271a3.5,3.5,0,0,1-5.839,3.872l-2.273-3.426a1.353,1.353,0,0,0-1.128-.606h-21.712a6.148,6.148,0,0,0-5.087,9.577,6.146,6.146,0,0,0-2.169,11.975,6.149,6.149,0,0,0,4.864,9.893h1.092a5.96,5.96,0,0,0-1.07,3.628Zm71.118,2.615h-4.239a.272.272,0,0,1-.271-.271V571.873a1.353,1.353,0,0,0-2.706-.012v15.807H1189.6a12.26,12.26,0,0,0-5.322,1.224l-5.287,2.569a9.563,9.563,0,0,1-4.141.953h-29.762a3.429,3.429,0,0,1-3.424-3.65,3.526,3.526,0,0,1,3.6-3.22c.014,0,.027,0,.041,0h17.274a1.354,1.354,0,0,0,0-2.707c-.208,0-23.463,0-23.671,0a3.436,3.436,0,0,1,.028-6.873h5.939a1.354,1.354,0,0,0,0-2.707H1136a3.437,3.437,0,0,1,0-6.875c10.443.011-2.4,0,26.189,0a1.353,1.353,0,1,0,0-2.706c-.217,0-20.687,0-20.905,0a3.436,3.436,0,0,1,.038-6.873h20.987l1.868,2.816a6.209,6.209,0,1,0,10.351-6.861l-4.726-7.116h6.544a7.136,7.136,0,0,1,5.7,2.86l3.238,4.348a9.883,9.883,0,0,0,7.867,3.955h9.706v4.239a1.353,1.353,0,0,0,2.706,0v-8.093a.268.268,0,0,1,.271-.271h4.239Z" transform="translate(-1092.964 -465.06)" fill="#00223d"/>
          <circle id="Elipse_967" data-name="Elipse 967" cx="1.353" cy="1.353" r="1.353" transform="translate(109.891 100.046)" fill="#00223d"/>
          <path id="Trazado_26419" data-name="Trazado 26419" d="M1139.277,501.953l-2.992,3.309a3.992,3.992,0,0,0,2.137,6.585l4.371.921-.475,4.435a3.992,3.992,0,0,0,5.1,4.256v13.7a2.333,2.333,0,0,0,3.873,1.752l6.385-5.61,6.386,5.611a2.333,2.333,0,0,0,3.873-1.753v-13.7a3.992,3.992,0,0,0,5.1-4.256l-.476-4.435,4.371-.921a3.992,3.992,0,0,0,2.137-6.585l-2.992-3.309,2.992-3.311a3.992,3.992,0,0,0-2.14-6.585l-4.369-.919.476-4.439a3.991,3.991,0,0,0-5.6-4.069l-4.072,1.822-2.223-3.869a3.993,3.993,0,0,0-6.924,0l-2.224,3.869-4.071-1.822a3.991,3.991,0,0,0-5.6,4.069l.476,4.439-4.369.919a3.993,3.993,0,0,0-2.141,6.585Zm25.951,32.377-6.658-5.852a1.354,1.354,0,0,0-1.788,0l-6.659,5.852V520.286l1.867-.837,2.223,3.871a3.992,3.992,0,0,0,6.925,0l2.223-3.871,1.866.837V534.33Zm-26.246-39.624,5.567-1.17a1.353,1.353,0,0,0,1.067-1.469l-.606-5.656a1.285,1.285,0,0,1,1.8-1.31l5.188,2.323a1.353,1.353,0,0,0,1.726-.561l2.834-4.929a1.285,1.285,0,0,1,2.229,0l2.834,4.93a1.352,1.352,0,0,0,1.725.56l5.189-2.323a1.285,1.285,0,0,1,1.8,1.311l-.606,5.656a1.353,1.353,0,0,0,1.067,1.469l5.567,1.17a1.286,1.286,0,0,1,.689,2.12l-3.813,4.219a1.353,1.353,0,0,0,0,1.815l3.812,4.215a1.285,1.285,0,0,1-.687,2.12l-5.568,1.173a1.354,1.354,0,0,0-1.067,1.469l.606,5.652a1.285,1.285,0,0,1-1.8,1.31l-5.189-2.323a1.352,1.352,0,0,0-1.726.561l-2.833,4.932a1.285,1.285,0,0,1-2.229,0l-2.833-4.932a1.361,1.361,0,0,0-1.728-.561l-5.188,2.323a1.285,1.285,0,0,1-1.8-1.31l.606-5.652a1.354,1.354,0,0,0-1.067-1.469l-5.567-1.173a1.285,1.285,0,0,1-.688-2.12l3.813-4.215a1.354,1.354,0,0,0,0-1.815l-3.813-4.22a1.285,1.285,0,0,1,.688-2.12Z" transform="translate(-1090.463 -464.26)" fill="#00223d"/>
          <path id="Trazado_26420" data-name="Trazado 26420" d="M1157.068,512.829a11.537,11.537,0,1,0-11.536-11.537,11.551,11.551,0,0,0,11.536,11.537Zm0-20.366a8.83,8.83,0,1,1-8.83,8.829A8.839,8.839,0,0,1,1157.068,492.463Z" transform="translate(-1089.855 -463.599)" fill="#00223d"/>
          <circle id="Elipse_968" data-name="Elipse 968" cx="1.353" cy="1.353" r="1.353" transform="translate(27.063 42.196)" fill="#00223d"/>
        </g>
      </g>
    </g>
    <g id="Grupo_17120" data-name="Grupo 17120">
      <rect id="Rect치ngulo_4278" data-name="Rect치ngulo 4278" width="151" height="151" transform="translate(640 -2418)" fill="none"/>
      <rect id="Rect치ngulo_4284" data-name="Rect치ngulo 4284" width="135" height="135" transform="translate(648 -2410)" fill="none"/>
    </g>
  </g>
</svg>
