<svg xmlns="http://www.w3.org/2000/svg" width="130" height="129.999" viewBox="0 0 130 129.999">
  <g id="Grupo_16922" data-name="Grupo 16922" transform="translate(-267 -4600)">
    <g id="Grupo_16921" data-name="Grupo 16921" transform="translate(560.998 4865.418)">
      <g id="Grupo_16920" data-name="Grupo 16920" transform="translate(-292.093 -263.514)">
        <ellipse id="Elipse_975" data-name="Elipse 975" cx="17.265" cy="19.525" rx="17.265" ry="19.525" transform="translate(91.659 57.383)" fill="#b3e59f"/>
        <path id="Trazado_26559" data-name="Trazado 26559" d="M-198.637-214.7a15.406,15.406,0,0,0-3.808.483c7.7,1.961,13.457,9.74,13.457,19.042s-5.755,17.081-13.457,19.042a15.407,15.407,0,0,0,3.808.483c9.536,0,17.267-8.741,17.267-19.525S-189.1-214.7-198.637-214.7Z" transform="translate(307.56 272.083)" fill="#95d6a4"/>
        <g id="Grupo_16918" data-name="Grupo 16918" transform="translate(43.423)">
          <path id="Trazado_26560" data-name="Trazado 26560" d="M-220.286-263.789a14.141,14.141,0,0,0-14.141,14.141v.019a2.144,2.144,0,0,1-1.615,2.088,10.294,10.294,0,0,0-7.81,9.988,10.432,10.432,0,0,0,.074,1.231,2.085,2.085,0,0,1-1.315,2.175,15.976,15.976,0,0,0-10.128,14.867,15.98,15.98,0,0,0,11.395,15.306c.04.409.856,7.608,7.141,10.616a13.163,13.163,0,0,0,10.3.191,13.7,13.7,0,0,0,6.1-4.857,13.7,13.7,0,0,0,6.1,4.857,13.163,13.163,0,0,0,10.3-.191c6.284-3.009,7.1-10.207,7.141-10.616a15.981,15.981,0,0,0,11.395-15.306,15.975,15.975,0,0,0-10.128-14.867,2.087,2.087,0,0,1-1.316-2.175,10.178,10.178,0,0,0,.075-1.231,10.294,10.294,0,0,0-7.81-9.988,2.143,2.143,0,0,1-1.615-2.088v-.019a14.141,14.141,0,0,0-14.141-14.141Z" transform="translate(255.221 263.789)" fill="#b3e59f"/>
          <g id="Grupo_16917" data-name="Grupo 16917" transform="translate(31.127)">
            <path id="Trazado_26561" data-name="Trazado 26561" d="M-199.977-234.148a2.084,2.084,0,0,1-1.315-2.174,10.209,10.209,0,0,0,.074-1.232,10.29,10.29,0,0,0-7.81-9.986,2.147,2.147,0,0,1-1.615-2.089v-.019a14.141,14.141,0,0,0-14.14-14.141,14.167,14.167,0,0,0-3.81.524,14.144,14.144,0,0,1,10.332,13.617v.019a2.146,2.146,0,0,0,1.615,2.089,10.292,10.292,0,0,1,7.81,9.986,10.455,10.455,0,0,1-.074,1.232,2.083,2.083,0,0,0,1.315,2.174,15.978,15.978,0,0,1,10.128,14.868A15.979,15.979,0,0,1-208-204.258,1.538,1.538,0,0,0-209-203.1c-.4,2.087-1.9,7.3-7.007,9.746a11.709,11.709,0,0,1-1.5.593,12.848,12.848,0,0,0,9.118-.593c6.285-3.009,7.1-10.207,7.142-10.618a15.98,15.98,0,0,0,11.394-15.305A15.976,15.976,0,0,0-199.977-234.148Z" transform="translate(228.593 263.789)" fill="#95d6a4"/>
          </g>
        </g>
        <g id="Grupo_16919" data-name="Grupo 16919">
          <path id="Trazado_26562" data-name="Trazado 26562" d="M-235.8-200.681c0,17.462-12.664,31.619-28.286,31.619s-28.285-14.157-28.285-31.619,12.663-63.108,28.285-63.108,28.286,45.645,28.286,63.108Z" transform="translate(292.368 263.789)" fill="#95d6a4"/>
          <path id="Trazado_26563" data-name="Trazado 26563" d="M-267.621-263.789a8.948,8.948,0,0,0-3.808.9c13.82,6.461,24.477,46.192,24.477,62.211s-10.656,29.253-24.477,31.333a25.635,25.635,0,0,0,3.808.286c15.622,0,28.286-14.157,28.286-31.619S-252-263.789-267.621-263.789Z" transform="translate(295.906 263.789)" fill="#78c2a4"/>
        </g>
      </g>
      <path id="Trazado_26564" data-name="Trazado 26564" d="M-165.9-139.228h-15.362v-26.055c9.68-1.073,17.267-10.226,17.267-21.324,0-10.914-7.34-19.943-16.791-21.258a17.826,17.826,0,0,0,3.671-8.3,1.906,1.906,0,0,0-1.58-2.181,1.9,1.9,0,0,0-2.181,1.58,14.106,14.106,0,0,1-9.106,11,3.463,3.463,0,0,0-2.213,2.585c-.354,1.834-1.644,6.322-5.959,8.387a11.182,11.182,0,0,1-8.774.138,11.621,11.621,0,0,1-4.9-3.715v-8.229l8.319-8.318a1.9,1.9,0,0,0,0-2.693,1.9,1.9,0,0,0-2.693,0l-5.626,5.626V-224.6a1.9,1.9,0,0,0-1.9-1.9,1.9,1.9,0,0,0-1.9,1.9v8.953l-5.625-5.625a1.9,1.9,0,0,0-2.693,0,1.9,1.9,0,0,0,0,2.693l8.319,8.318v11.885a11.67,11.67,0,0,1-4.9,3.714,11.189,11.189,0,0,1-8.775-.137,10.03,10.03,0,0,1-4.339-4.081c.331-8.416-2.1-20.717-5.721-32.5a14.027,14.027,0,0,1,1.524-.715,3.979,3.979,0,0,0,2.51-4.173,8.346,8.346,0,0,1-.061-1.006,8.365,8.365,0,0,1,6.364-8.137,4.044,4.044,0,0,0,3.061-3.956,12.251,12.251,0,0,1,12.238-12.235A12.253,12.253,0,0,1-201.5-249.353a4.038,4.038,0,0,0,3.063,3.936,8.384,8.384,0,0,1,6.3,9.139,3.985,3.985,0,0,0,2.509,4.178,14.158,14.158,0,0,1,7.886,7.788,1.909,1.909,0,0,0,2.482,1.044,1.9,1.9,0,0,0,1.044-2.482,17.975,17.975,0,0,0-10.016-9.893.186.186,0,0,1-.123-.178,12.187,12.187,0,0,0-9.169-13.293.25.25,0,0,1-.168-.258,16.064,16.064,0,0,0-16.045-16.045,16.068,16.068,0,0,0-16.046,16.065.243.243,0,0,1-.168.238A12.166,12.166,0,0,0-239.2-237.28a12.378,12.378,0,0,0,.088,1.462c.04.33-1.174.6-1.438.762-.475-1.4-.964-2.782-1.469-4.124-8.166-21.686-16.354-26.238-21.783-26.238-9.477,0-16.724,13.353-21.135,24.554a1.9,1.9,0,0,0,1.074,2.47,1.905,1.905,0,0,0,2.47-1.074c5.541-14.071,11.952-22.141,17.59-22.141,5.89,0,12.53,8.664,18.219,23.772,5.358,14.232,8.163,29.6,8.163,37.432,0,15.663-10.816,28.534-24.478,29.636v-22.737l7.948-7.948a1.9,1.9,0,0,0,0-2.693,1.9,1.9,0,0,0-2.693,0l-5.254,5.254v-7.963a1.9,1.9,0,0,0-1.9-1.9,1.9,1.9,0,0,0-1.9,1.9v16.034l-5.254-5.254a1.9,1.9,0,0,0-2.693,0,1.9,1.9,0,0,0,0,2.693l7.948,7.948v14.666c-13.662-1.1-24.477-13.974-24.477-29.636,0-7.359,2.366-19.76,5.889-30.859a1.906,1.906,0,0,0-1.239-2.392,1.907,1.907,0,0,0-2.392,1.239C-291.616-220.8-294-208.239-294-200.406c0,17.774,12.523,32.359,28.286,33.454v27.724h-26.381a1.9,1.9,0,0,0-1.905,1.9,1.9,1.9,0,0,0,1.905,1.9H-165.9a1.9,1.9,0,0,0,1.9-1.9,1.9,1.9,0,0,0-1.9-1.9Zm-49.736,0H-261.9v-27.724c13.692-.95,24.936-12.08,27.656-26.637a13.454,13.454,0,0,0,3.292,2.223,15.021,15.021,0,0,0,11.824.242,15.083,15.083,0,0,0,3.493-1.962Zm30.566,0H-211.83v-53.856a15.079,15.079,0,0,0,3.5,1.961,16.14,16.14,0,0,0,5.8,1.106,17.361,17.361,0,0,1,.2,3.41c0,11.1,7.586,20.252,17.265,21.324Zm1.9-48.693a1.9,1.9,0,0,0-1.9,1.9v16.89c-7.574-1.079-13.457-8.5-13.457-17.48a20.118,20.118,0,0,1,.426-4.117c5.831-1.952,9.18-8.787,9.6-11.538a17.856,17.856,0,0,0,3.627-1.855c9.248-1.192,17.065,7.205,17.065,17.51,0,8.976-5.882,16.4-13.457,17.48v-5.632l6.021-6.021a1.9,1.9,0,0,0,0-2.693,1.9,1.9,0,0,0-2.693,0l-3.328,3.328v-5.872A1.9,1.9,0,0,0-183.169-187.92Z" fill="#00223d"/>
    </g>
  </g>
</svg>
