<svg xmlns="http://www.w3.org/2000/svg" width="158" height="158" viewBox="0 0 158 158">
  <g id="Grupo_16950" data-name="Grupo 16950" transform="translate(-251 -7644)">
    <circle id="Elipse_969" data-name="Elipse 969" cx="79" cy="79" r="79" transform="translate(251 7644)" fill="#f6ff9b"/>
    <g id="Grupo_16949" data-name="Grupo 16949" transform="translate(-137.852 8075.641)">
      <g id="Grupo_16947" data-name="Grupo 16947">
        <g id="Grupo_16933" data-name="Grupo 16933">
          <path id="Trazado_26585" data-name="Trazado 26585" d="M396.245-407.5v90.92H491.95a11.967,11.967,0,0,1,11.963-11.963,11.967,11.967,0,0,1,11.963,11.963h9.571V-407.5Z" fill="#e6e9ed"/>
        </g>
        <g id="Grupo_16934" data-name="Grupo 16934">
          <path id="Trazado_26586" data-name="Trazado 26586" d="M405.815-345.292h9.571v19.141h-9.571Z" fill="#fcd770"/>
        </g>
        <g id="Grupo_16935" data-name="Grupo 16935">
          <path id="Trazado_26587" data-name="Trazado 26587" d="M424.956-340.506h9.571v14.355h-9.571Z" fill="#fcd770"/>
        </g>
        <g id="Grupo_16936" data-name="Grupo 16936">
          <path id="Trazado_26588" data-name="Trazado 26588" d="M444.1-359.647h9.57v33.5H444.1Z" fill="#fcd770"/>
        </g>
        <g id="Grupo_16937" data-name="Grupo 16937">
          <path id="Trazado_26589" data-name="Trazado 26589" d="M472.809-350.077v15.6a36.051,36.051,0,0,0-3.493,8.326h-6.077v-23.926Z" fill="#fcd770"/>
        </g>
        <g id="Grupo_16938" data-name="Grupo 16938">
          <path id="Trazado_26590" data-name="Trazado 26590" d="M503.913-338.114A21.536,21.536,0,0,0,482.38-316.58a21.309,21.309,0,0,0,2.895,10.767,21.488,21.488,0,0,0,18.638,10.767,21.489,21.489,0,0,0,18.639-10.767,21.319,21.319,0,0,0,2.9-10.767A21.536,21.536,0,0,0,503.913-338.114Zm0,33.5A11.967,11.967,0,0,1,491.95-316.58a11.967,11.967,0,0,1,11.963-11.963,11.967,11.967,0,0,1,11.963,11.963A11.967,11.967,0,0,1,503.913-304.617Z" fill="#ccd1d9"/>
        </g>
        <g id="Grupo_16939" data-name="Grupo 16939">
          <path id="Trazado_26591" data-name="Trazado 26591" d="M522.552-305.813l12.442,7.178a35.906,35.906,0,0,1-31.081,17.944,35.9,35.9,0,0,1-31.08-17.944l12.442-7.178a21.488,21.488,0,0,0,18.638,10.767,21.489,21.489,0,0,0,18.639-10.767Z" fill="#fcd770"/>
        </g>
        <g id="Grupo_16940" data-name="Grupo 16940">
          <path id="Trazado_26592" data-name="Trazado 26592" d="M539.8-316.58a35.619,35.619,0,0,1-4.809,17.945l-12.442-7.178a21.319,21.319,0,0,0,2.9-10.767,21.536,21.536,0,0,0-21.534-21.534V-352.47a35.73,35.73,0,0,1,21.534,7.178A35.892,35.892,0,0,1,539.8-316.58Z" fill="#ff7b79"/>
        </g>
        <g id="Grupo_16942" data-name="Grupo 16942">
          <g id="Grupo_16941" data-name="Grupo 16941">
            <path id="Trazado_26593" data-name="Trazado 26593" d="M503.913-352.47v14.356A21.536,21.536,0,0,0,482.38-316.58a21.309,21.309,0,0,0,2.895,10.767l-12.442,7.178a35.609,35.609,0,0,1-4.809-17.945,36.074,36.074,0,0,1,1.292-9.571,36.051,36.051,0,0,1,3.493-8.326,35.858,35.858,0,0,1,31.1-17.993Z" fill="#cddc39"/>
          </g>
        </g>
        <g id="Grupo_16943" data-name="Grupo 16943">
          <path id="Trazado_26594" data-name="Trazado 26594" d="M461.827-374.984a4.678,4.678,0,0,1,1.412,3.373,4.8,4.8,0,0,1-4.786,4.786,4.8,4.8,0,0,1-4.785-4.786,4.8,4.8,0,0,1,4.785-4.785A4.68,4.68,0,0,1,461.827-374.984Z" fill="#ff826e"/>
        </g>
        <g id="Grupo_16944" data-name="Grupo 16944">
          <path id="Trazado_26595" data-name="Trazado 26595" d="M483.361-389.771a4.678,4.678,0,0,1-3.374,1.412,4.678,4.678,0,0,1-3.374-1.412,4.677,4.677,0,0,1-1.411-3.373,4.8,4.8,0,0,1,4.785-4.786,4.8,4.8,0,0,1,4.785,4.786A4.677,4.677,0,0,1,483.361-389.771Z" fill="#ff826e"/>
        </g>
        <g id="Grupo_16945" data-name="Grupo 16945">
          <path id="Trazado_26596" data-name="Trazado 26596" d="M497.716-382.162a4.676,4.676,0,0,1,1.412,3.374A4.8,4.8,0,0,1,494.343-374a4.8,4.8,0,0,1-4.786-4.785,4.68,4.68,0,0,1,1.412-3.374,4.68,4.68,0,0,1,3.374-1.412A4.678,4.678,0,0,1,497.716-382.162Z" fill="#ff826e"/>
        </g>
        <g id="Grupo_16946" data-name="Grupo 16946">
          <path id="Trazado_26597" data-name="Trazado 26597" d="M525.447-424.248A14.367,14.367,0,0,1,539.8-409.893a14.367,14.367,0,0,1-14.356,14.356,14.222,14.222,0,0,1-10.145-4.211,14.264,14.264,0,0,1-3.995-7.752,13.051,13.051,0,0,1-.216-2.393,14.367,14.367,0,0,1,14.356-14.355Z" fill="#ff826e"/>
        </g>
      </g>
      <g id="Grupo_16948" data-name="Grupo 16948">
        <path id="Trazado_26598" data-name="Trazado 26598" d="M527.84-346.416v-46.92A16.759,16.759,0,0,0,542.2-409.893a16.768,16.768,0,0,0-16.748-16.748A16.767,16.767,0,0,0,508.7-409.893H393.852v95.706h71.9a38.3,38.3,0,0,0,38.16,35.889A38.326,38.326,0,0,0,542.2-316.58,38.2,38.2,0,0,0,527.84-346.416Zm-2.393-75.44a11.977,11.977,0,0,1,11.963,11.963,11.976,11.976,0,0,1-11.963,11.963,11.976,11.976,0,0,1-11.963-11.963A11.976,11.976,0,0,1,525.447-421.856ZM398.638-405.107H509.4a16.733,16.733,0,0,0,2.649,5.227L497.42-385.246a7.078,7.078,0,0,0-3.077-.72,7.059,7.059,0,0,0-3.075.72l-4.821-4.821a7.119,7.119,0,0,0,.718-3.077,7.187,7.187,0,0,0-7.178-7.178,7.187,7.187,0,0,0-7.178,7.178,7.055,7.055,0,0,0,.72,3.074l-12,12a7.115,7.115,0,0,0-3.077-.717,7.187,7.187,0,0,0-7.178,7.177,7.187,7.187,0,0,0,7.178,7.178,7.186,7.186,0,0,0,7.178-7.178,7.055,7.055,0,0,0-.72-3.074l12-12a7.119,7.119,0,0,0,3.077.718,7.055,7.055,0,0,0,3.074-.721l4.822,4.822a7.1,7.1,0,0,0-.718,3.077,7.186,7.186,0,0,0,7.178,7.177,7.187,7.187,0,0,0,7.178-7.177,7.06,7.06,0,0,0-.721-3.075L515.436-396.5a16.649,16.649,0,0,0,7.618,3.163v43.653a37.984,37.984,0,0,0-19.141-5.182A38.157,38.157,0,0,0,475.2-341.815V-352.47H460.846v28.712h5.484a38.414,38.414,0,0,0-.577,4.785H398.638Zm95.7,23.926a2.4,2.4,0,0,1,2.392,2.393,2.4,2.4,0,0,1-2.392,2.392,2.4,2.4,0,0,1-2.393-2.392A2.4,2.4,0,0,1,494.343-381.181Zm-16.749-11.963a2.4,2.4,0,0,1,2.393-2.393,2.4,2.4,0,0,1,2.393,2.393,2.4,2.4,0,0,1-2.393,2.392A2.4,2.4,0,0,1,477.594-393.144Zm-16.748,21.533a2.4,2.4,0,0,1-2.393,2.393,2.4,2.4,0,0,1-2.392-2.393A2.4,2.4,0,0,1,458.453-374,2.4,2.4,0,0,1,460.846-371.611Zm43.067,74.172a19.163,19.163,0,0,1-19.141-19.141,19.163,19.163,0,0,1,19.141-19.141,19.163,19.163,0,0,1,19.141,19.141A19.163,19.163,0,0,1,503.913-297.439Zm-33.5-37.634a37.964,37.964,0,0,0-2.844,6.53h-1.941v-19.141h4.785Zm31.105-14.882v9.571a23.959,23.959,0,0,0-21.534,23.8,23.761,23.761,0,0,0,2.132,9.819l-8.3,4.793a33.218,33.218,0,0,1-3.4-14.612,33.516,33.516,0,0,1,31.105-33.375Zm2.392,66.872a33.48,33.48,0,0,1-27.726-14.727l8.334-4.812a23.888,23.888,0,0,0,19.392,9.968,23.89,23.89,0,0,0,19.393-9.968l8.333,4.812A33.479,33.479,0,0,1,503.913-283.083Zm30.1-18.885-8.3-4.793a23.776,23.776,0,0,0,2.132-9.819,23.958,23.958,0,0,0-21.534-23.8v-9.571a33.515,33.515,0,0,1,31.1,33.375,33.217,33.217,0,0,1-3.4,14.612Z" fill="#00223d"/>
        <path id="Trazado_26599" data-name="Trazado 26599" d="M503.913-330.936a14.371,14.371,0,0,0-14.356,14.356,14.371,14.371,0,0,0,14.356,14.356,14.371,14.371,0,0,0,14.356-14.356A14.371,14.371,0,0,0,503.913-330.936Zm0,23.926a9.579,9.579,0,0,1-9.57-9.57,9.58,9.58,0,0,1,9.57-9.571,9.581,9.581,0,0,1,9.571,9.571A9.58,9.58,0,0,1,503.913-307.01Z" fill="#00223d"/>
        <path id="Trazado_26600" data-name="Trazado 26600" d="M403.423-400.322h4.785v4.785h-4.785Z" fill="#00223d"/>
        <path id="Trazado_26601" data-name="Trazado 26601" d="M412.993-400.322h33.5v4.785h-33.5Z" fill="#00223d"/>
        <path id="Trazado_26602" data-name="Trazado 26602" d="M403.423-390.752h4.785v4.786h-4.785Z" fill="#00223d"/>
        <path id="Trazado_26603" data-name="Trazado 26603" d="M412.993-390.752h33.5v4.786h-33.5Z" fill="#00223d"/>
        <path id="Trazado_26604" data-name="Trazado 26604" d="M403.423-381.181h4.785v4.785h-4.785Z" fill="#00223d"/>
        <path id="Trazado_26605" data-name="Trazado 26605" d="M412.993-381.181h33.5v4.785h-33.5Z" fill="#00223d"/>
        <path id="Trazado_26606" data-name="Trazado 26606" d="M403.423-371.611h4.785v4.786h-4.785Z" fill="#00223d"/>
        <path id="Trazado_26607" data-name="Trazado 26607" d="M412.993-371.611h33.5v4.786h-33.5Z" fill="#00223d"/>
        <path id="Trazado_26608" data-name="Trazado 26608" d="M403.423-323.758h14.356v-23.926H403.423Zm4.785-19.141h4.785v14.356h-4.785Z" fill="#00223d"/>
        <path id="Trazado_26609" data-name="Trazado 26609" d="M422.564-323.758H436.92V-342.9H422.564Zm4.785-14.356h4.785v9.571h-4.785Z" fill="#00223d"/>
        <path id="Trazado_26610" data-name="Trazado 26610" d="M441.7-323.758h14.356V-362.04H441.7Zm4.785-33.5h4.785v28.712H446.49Z" fill="#00223d"/>
      </g>
    </g>
  </g>
</svg>
