<svg xmlns="http://www.w3.org/2000/svg" width="84" height="84" viewBox="0 0 84 84">
  <g id="Grupo_16779" data-name="Grupo 16779" transform="translate(-124.403 253.031)">
    <g id="Grupo_16777" data-name="Grupo 16777" transform="translate(125.757 -251.677)">
      <g id="Grupo_16753" data-name="Grupo 16753" transform="translate(70.452)">
        <path id="Trazado_26194" data-name="Trazado 26194" d="M213.629-241.724a3.507,3.507,0,0,1-2.48,1.03,1.367,1.367,0,0,1-.948-.393l-.961-.962-4.065-4.064-.962-.962a1.367,1.367,0,0,1-.392-.948,3.5,3.5,0,0,1,1.03-2.479,3.5,3.5,0,0,1,2.479-1.03,1.368,1.368,0,0,1,.948.393l5.988,5.988a1.365,1.365,0,0,1,.392.948A3.5,3.5,0,0,1,213.629-241.724Z" transform="translate(-203.82 251.533)" fill="#aab2bd"/>
      </g>
      <g id="Grupo_16754" data-name="Grupo 16754" transform="translate(67.734 5.427)">
        <path id="Trazado_26195" data-name="Trazado 26195" d="M200.814-241.467l4.064-4.064,4.064,4.064-4.064,4.064Z" transform="translate(-200.814 245.531)" fill="#aab2bd"/>
      </g>
      <g id="Grupo_16755" data-name="Grupo 16755" transform="translate(43.355 8.129)">
        <path id="Trazado_26196" data-name="Trazado 26196" d="M202.7-236.73a3.264,3.264,0,0,1,.962,2.317,3.26,3.26,0,0,1-.962,2.316l-6.788,6.788a5.3,5.3,0,0,0-3.09-.976,5.418,5.418,0,0,0-5.42,5.42,5.3,5.3,0,0,0,.976,3.089l-5.04,5.041-9.484-9.484,2.033-2.033,17.328-17.328a3.26,3.26,0,0,1,2.316-.962,3.26,3.26,0,0,1,2.316.962l.393.392,4.064,4.065Z" transform="translate(-173.851 242.542)" fill="#ccd1d9"/>
      </g>
      <g id="Grupo_16756" data-name="Grupo 16756" transform="translate(40.645 28.452)">
        <path id="Trazado_26197" data-name="Trazado 26197" d="M183.048-210.581l-1.748,1.748a3.26,3.26,0,0,1-2.316.962,3.264,3.264,0,0,1-2.317-.962l-4.85-4.851a3.26,3.26,0,0,1-.962-2.317,3.26,3.26,0,0,1,.962-2.316l1.748-1.748Z" transform="translate(-170.854 220.065)" fill="#ccd1d9"/>
      </g>
      <g id="Grupo_16757" data-name="Grupo 16757" transform="translate(37.935 56.904)">
        <path id="Trazado_26198" data-name="Trazado 26198" d="M167.857-188.6h21.677a2.717,2.717,0,0,1,2.71,2.71,8.106,8.106,0,0,0-6.056,2.71H167.857Z" transform="translate(-167.857 188.598)" fill="#ccd1d9"/>
      </g>
      <g id="Grupo_16758" data-name="Grupo 16758" transform="translate(62.323 29.807)">
        <path id="Trazado_26199" data-name="Trazado 26199" d="M200.249-218.567l4.118,4.118A32.2,32.2,0,0,1,211.345-204a31.968,31.968,0,0,1,2.452,12.316,32.2,32.2,0,0,1-4.051,15.635l-2.6,4.688-.014.014a3.993,3.993,0,0,0-2.818-1.152h-9.484a8.136,8.136,0,0,0,8.129-8.129,8.117,8.117,0,0,0-.894-3.712,20.844,20.844,0,0,0,2.683-5.555,20.776,20.776,0,0,0,.921-6.124,20.67,20.67,0,0,0-8.279-16.556l-1.043-.786a5.405,5.405,0,0,0,3.9-5.2Z" transform="translate(-194.829 218.567)" fill="#aab2bd"/>
      </g>
      <g id="Grupo_16759" data-name="Grupo 16759" transform="translate(35.226 75.872)">
        <path id="Trazado_26200" data-name="Trazado 26200" d="M166.148-167.62h35.293a3.993,3.993,0,0,1,2.818,1.152,3.964,3.964,0,0,1,1.247,2.912,1.36,1.36,0,0,1-1.355,1.355H166.215a1.36,1.36,0,0,1-1.355-1.355v-2.71a1.343,1.343,0,0,1,1.288-1.341Z" transform="translate(-164.86 167.62)" fill="#aab2bd"/>
      </g>
      <g id="Grupo_16760" data-name="Grupo 16760" transform="translate(0 2.71)">
        <circle id="Elipse_957" data-name="Elipse 957" cx="4.065" cy="4.065" r="4.065" fill="#69d6f4"/>
      </g>
      <g id="Grupo_16761" data-name="Grupo 16761" transform="translate(2.71 21.678)">
        <circle id="Elipse_958" data-name="Elipse 958" cx="4.065" cy="4.065" r="4.065" fill="#69d6f4"/>
      </g>
      <g id="Grupo_16762" data-name="Grupo 16762" transform="translate(16.258 13.549)">
        <circle id="Elipse_959" data-name="Elipse 959" cx="2.71" cy="2.71" r="2.71" fill="#69d6f4"/>
      </g>
      <g id="Grupo_16763" data-name="Grupo 16763" transform="translate(13.548 29.807)">
        <circle id="Elipse_960" data-name="Elipse 960" cx="2.71" cy="2.71" r="2.71" fill="#69d6f4"/>
      </g>
      <g id="Grupo_16764" data-name="Grupo 16764" transform="translate(35.226 0)">
        <circle id="Elipse_961" data-name="Elipse 961" cx="2.71" cy="2.71" r="2.71" fill="#69d6f4"/>
      </g>
      <g id="Grupo_16765" data-name="Grupo 16765" transform="translate(56.903 5.42)">
        <circle id="Elipse_962" data-name="Elipse 962" cx="2.71" cy="2.71" r="2.71" fill="#69d6f4"/>
      </g>
      <g id="Grupo_16766" data-name="Grupo 16766" transform="translate(40.645 21.677)">
        <path id="Trazado_26201" data-name="Trazado 26201" d="M173.564-227.558a2.718,2.718,0,0,1,2.71,2.71,2.65,2.65,0,0,1-.8,1.911,2.649,2.649,0,0,1-1.911.8,2.718,2.718,0,0,1-2.71-2.71,2.727,2.727,0,0,1,1.423-2.384A2.743,2.743,0,0,1,173.564-227.558Z" transform="translate(-170.854 227.558)" fill="#69d6f4"/>
      </g>
      <g id="Grupo_16767" data-name="Grupo 16767" transform="translate(32.517 10.839)">
        <path id="Trazado_26202" data-name="Trazado 26202" d="M175.412-239.545s0,8.291-7.262,10.378a12.864,12.864,0,0,1-3.577.46h-2.709C161.864-232.771,164.573-239.545,175.412-239.545Z" transform="translate(-161.864 239.545)" fill="#b4dd7f"/>
      </g>
      <g id="Grupo_16768" data-name="Grupo 16768" transform="translate(18.968)">
        <path id="Trazado_26203" data-name="Trazado 26203" d="M160.428-240.694h-2.71c-10.839,0-10.839-10.839-10.839-10.839C157.718-251.533,160.428-244.758,160.428-240.694Z" transform="translate(-146.879 251.533)" fill="#b4dd7f"/>
      </g>
      <g id="Grupo_16769" data-name="Grupo 16769" transform="translate(18.968 18.969)">
        <path id="Trazado_26204" data-name="Trazado 26204" d="M160.428-219.716h-2.71c-10.839,0-10.839-10.838-10.839-10.838C157.718-230.554,160.428-223.78,160.428-219.716Z" transform="translate(-146.879 230.554)" fill="#b4dd7f"/>
      </g>
      <g id="Grupo_16770" data-name="Grupo 16770" transform="translate(5.42 46.065)">
        <path id="Trazado_26205" data-name="Trazado 26205" d="M131.9-200.586V-176.2a5.418,5.418,0,0,0,5.42,5.42,5.452,5.452,0,0,0,3.834-1.585,5.454,5.454,0,0,0,1.585-3.835v-24.387Z" transform="translate(-131.895 200.586)" fill="#f0d0b4"/>
      </g>
      <g id="Grupo_16771" data-name="Grupo 16771" transform="translate(27.097 46.065)">
        <path id="Trazado_26206" data-name="Trazado 26206" d="M155.87-200.586V-176.2a5.418,5.418,0,0,0,5.42,5.42,5.452,5.452,0,0,0,3.834-1.585,5.454,5.454,0,0,0,1.585-3.835v-24.387Z" transform="translate(-155.87 200.586)" fill="#f0d0b4"/>
      </g>
      <g id="Grupo_16772" data-name="Grupo 16772" transform="translate(24.387 40.646)">
        <path id="Trazado_26207" data-name="Trazado 26207" d="M169.131-205.225v2.71a1.358,1.358,0,0,1-1.354,1.354H154.227a1.358,1.358,0,0,1-1.354-1.354v-2.71a1.358,1.358,0,0,1,1.354-1.354h13.549A1.358,1.358,0,0,1,169.131-205.225Z" transform="translate(-152.873 206.579)" fill="#dfb28b"/>
      </g>
      <g id="Grupo_16773" data-name="Grupo 16773" transform="translate(2.71 40.646)">
        <path id="Trazado_26208" data-name="Trazado 26208" d="M145.156-205.225v2.71a1.358,1.358,0,0,1-1.354,1.354H130.252a1.358,1.358,0,0,1-1.354-1.354v-2.71a1.358,1.358,0,0,1,1.354-1.354H143.8A1.358,1.358,0,0,1,145.156-205.225Z" transform="translate(-128.898 206.579)" fill="#dfb28b"/>
      </g>
      <g id="Grupo_16774" data-name="Grupo 16774" transform="translate(56.903 24.387)">
        <path id="Trazado_26209" data-name="Trazado 26209" d="M194.255-224.561a5.3,5.3,0,0,1,3.09.976,5.394,5.394,0,0,1,2.33,4.444,5.405,5.405,0,0,1-3.9,5.2,5.613,5.613,0,0,1-1.517.217,5.392,5.392,0,0,1-4.444-2.331,5.3,5.3,0,0,1-.976-3.089A5.418,5.418,0,0,1,194.255-224.561Z" transform="translate(-188.835 224.561)" fill="#fcd770"/>
      </g>
      <g id="Grupo_16775" data-name="Grupo 16775" transform="translate(54.194 59.614)">
        <path id="Trazado_26210" data-name="Trazado 26210" d="M201.2-181.184a8.117,8.117,0,0,1,.894,3.712,8.136,8.136,0,0,1-8.129,8.129,8.135,8.135,0,0,1-8.128-8.129,8.09,8.09,0,0,1,2.072-5.419,8.106,8.106,0,0,1,6.056-2.71A8.163,8.163,0,0,1,201.2-181.184Z" transform="translate(-185.839 185.601)" fill="#fcd770"/>
      </g>
      <g id="Grupo_16776" data-name="Grupo 16776" transform="translate(59.613 65.033)">
        <circle id="Elipse_963" data-name="Elipse 963" cx="2.71" cy="2.71" r="2.71" fill="#ccd1d9"/>
      </g>
    </g>
    <g id="Grupo_16778" data-name="Grupo 16778" transform="translate(124.403 -253.031)">
      <circle id="Elipse_964" data-name="Elipse 964" cx="1.355" cy="1.355" r="1.355" transform="translate(62.322 29.806)" fill="#00223d"/>
      <path id="Trazado_26211" data-name="Trazado 26211" d="M194.4-181.106a4.069,4.069,0,0,0-4.064,4.064,4.07,4.07,0,0,0,4.064,4.065,4.07,4.07,0,0,0,4.065-4.065A4.07,4.07,0,0,0,194.4-181.106Zm0,5.42a1.357,1.357,0,0,1-1.354-1.355A1.357,1.357,0,0,1,194.4-178.4a1.357,1.357,0,0,1,1.355,1.354A1.358,1.358,0,0,1,194.4-175.686Z" transform="translate(-130.721 246.138)" fill="#00223d"/>
      <path id="Trazado_26212" data-name="Trazado 26212" d="M194.791-222.495a6.716,6.716,0,0,0-1.669-3.855l5.8-5.8a4.6,4.6,0,0,0,1.354-3.27,4.582,4.582,0,0,0-.848-2.656l2.2-2.2a2.687,2.687,0,0,0,1.915.794,4.863,4.863,0,0,0,4.859-4.858,2.694,2.694,0,0,0-.794-1.916l-5.98-5.98a2.694,2.694,0,0,0-1.916-.794,4.863,4.863,0,0,0-4.859,4.858,2.691,2.691,0,0,0,.794,1.916l-2.208,2.209a4.8,4.8,0,0,0-4.161-.553,4.058,4.058,0,0,0-3.909-3.01,4.069,4.069,0,0,0-4.064,4.064,4.072,4.072,0,0,0,2.474,3.74L172.852-228.88a4.072,4.072,0,0,0-3.74-2.474c-.031,0-.061.008-.092.009a12.948,12.948,0,0,0,4.156-9.493v-1.355h-1.354c-6.194,0-9.981,2.132-12.194,4.8v-3.449c0-4.529-3.139-12.194-14.9-12.194h-1.354v1.354c0,4.218,2.548,12.194,12.194,12.194h1.354v10.224a13.383,13.383,0,0,0-8.488-4.506,4.033,4.033,0,0,0,.359-1.653,4.069,4.069,0,0,0-4.064-4.065,4.07,4.07,0,0,0-4.064,4.065,4.056,4.056,0,0,0,2.772,3.834c.416,4.365,3.284,11.069,12.131,11.069h1.354v8.129H151.5a2.713,2.713,0,0,0-2.71,2.71v2.71a2.713,2.713,0,0,0,2.71,2.71v2.71h-8.128v-2.71a2.713,2.713,0,0,0,2.71-2.71v-2.71a2.713,2.713,0,0,0-2.71-2.71H129.822a2.713,2.713,0,0,0-2.71,2.71v2.71a2.713,2.713,0,0,0,2.71,2.71v2.71h-1.354a4.069,4.069,0,0,0-4.064,4.064v28.451h2.709v-28.451a1.357,1.357,0,0,1,1.355-1.354h1.354v17.612a6.782,6.782,0,0,0,6.775,6.774,6.782,6.782,0,0,0,6.774-6.774v-17.612H151.5v17.612a6.782,6.782,0,0,0,6.775,6.774,6.822,6.822,0,0,0,1.368-.139c0,.048-.014.092-.014.139v2.71a2.712,2.712,0,0,0,2.71,2.71h37.935a2.712,2.712,0,0,0,2.71-2.71,5.392,5.392,0,0,0-.96-3.069l2.158-3.884a33.645,33.645,0,0,0,4.222-16.291,33.332,33.332,0,0,0-9.827-23.724Zm-39.226-19.7c-7.205,0-8.937-5.432-9.353-8.08,7.018.476,10.035,4.326,10.606,8.08Zm-25.743,32.517h13.549v2.71h-13.55Zm2.71,5.42h8.129v2.71h-8.129Zm8.129,23.032a4.07,4.07,0,0,1-4.064,4.065,4.07,4.07,0,0,1-4.065-4.065v-17.612h8.129Zm47.419-36.581a4.07,4.07,0,0,1-4.064-4.064,4.069,4.069,0,0,1,4.064-4.064,4.07,4.07,0,0,1,4.065,4.064A4.07,4.07,0,0,1,188.08-217.806Zm11.633-32.516,5.98,5.98a2.15,2.15,0,0,1-2.149,2.148l-5.98-5.98A2.151,2.151,0,0,1,199.713-250.321Zm-2.149,5.98,2.149,2.148-2.149,2.149-2.148-2.149Zm-5.419,2.71L197-236.773a1.931,1.931,0,0,1,.561,1.355,1.93,1.93,0,0,1-.561,1.354l-6.071,6.072a6.692,6.692,0,0,0-2.852-.652,6.782,6.782,0,0,0-6.774,6.774,6.692,6.692,0,0,0,.652,2.852l-3.362,3.362-7.568-7.568,18.407-18.407a1.985,1.985,0,0,1,2.71,0Zm-23.827,21.116.794-.794,7.568,7.569-.794.794a1.985,1.985,0,0,1-2.71,0l-4.858-4.859a1.93,1.93,0,0,1-.561-1.354A1.934,1.934,0,0,1,168.318-220.515ZM185.37-244.9a1.357,1.357,0,0,1,1.355,1.354,1.357,1.357,0,0,1-1.355,1.354,1.357,1.357,0,0,1-1.354-1.354A1.357,1.357,0,0,1,185.37-244.9Zm-14.9,17.612a1.357,1.357,0,0,1-1.354,1.355,1.357,1.357,0,0,1-1.354-1.355,1.357,1.357,0,0,1,1.354-1.354A1.357,1.357,0,0,1,170.467-227.289Zm-.131-12.145c-.416,2.65-2.148,8.081-9.353,8.081h-1.251C160.3-235.108,163.318-238.959,170.336-239.434Zm-25.611,2.661a1.358,1.358,0,0,1,1.355,1.355,1.357,1.357,0,0,1-1.355,1.354,1.357,1.357,0,0,1-1.354-1.354A1.357,1.357,0,0,1,144.725-236.773Zm10.839,13.549c-7.205,0-8.937-5.433-9.353-8.081,7.018.476,10.035,4.326,10.606,8.081Zm4.064,2.709v-8.128h1.354a13.8,13.8,0,0,0,4.672-.753,4.015,4.015,0,0,0-.607,2.108,4.071,4.071,0,0,0,2.474,3.74L166.4-222.43a4.594,4.594,0,0,0-1.354,3.27,4.594,4.594,0,0,0,1.354,3.27l4.859,4.859a4.594,4.594,0,0,0,3.27,1.354,4.594,4.594,0,0,0,3.27-1.354l5.8-5.8a6.719,6.719,0,0,0,4.48,1.732,6.82,6.82,0,0,0,1.193-.12l.552.413a19.439,19.439,0,0,1,7.739,15.478,19.239,19.239,0,0,1-2.332,9.183,9.458,9.458,0,0,0-6.024-3.2,4.055,4.055,0,0,0-3.837-2.785H165.048v-2.709h5.419v-2.71h-5.419v-2.71a2.712,2.712,0,0,0,2.71-2.71v-2.71a2.712,2.712,0,0,0-2.71-2.71h-5.42ZM188.08-177.16a6.782,6.782,0,0,1-6.774-6.775,6.782,6.782,0,0,1,6.774-6.774,6.782,6.782,0,0,1,6.774,6.774A6.782,6.782,0,0,1,188.08-177.16Zm-6.625-13.549H165.048v-2.71H185.37a1.312,1.312,0,0,1,.7.222A9.466,9.466,0,0,0,181.455-190.708Zm-16.407,9.484V-188h14.477a9.4,9.4,0,0,0-.929,4.064,9.454,9.454,0,0,0,2.859,6.775h-17.8A6.7,6.7,0,0,0,165.048-181.225ZM151.5-209.676h13.549v2.71H151.5Zm2.71,5.42h8.129v2.71h-8.129Zm0,23.032v-17.612h8.129v17.612a4.07,4.07,0,0,1-4.064,4.065A4.07,4.07,0,0,1,154.209-181.225Zm8.129,9.484v-2.71h35.226a2.716,2.716,0,0,1,2.712,2.71Zm39.474-8.27-1.893,3.41a5.387,5.387,0,0,0-2.355-.559h-2.858a9.453,9.453,0,0,0,2.858-6.775,9.417,9.417,0,0,0-.718-3.61,21.945,21.945,0,0,0,3.428-11.78,22.169,22.169,0,0,0-8.169-17.127,6.794,6.794,0,0,0,2.181-2.718l2.375,2.375a30.645,30.645,0,0,1,9.033,21.809,30.917,30.917,0,0,1-3.881,14.975Z" transform="translate(-124.403 253.031)" fill="#00223d"/>
      <path id="Trazado_26213" data-name="Trazado 26213" d="M167.426-244.9a4.07,4.07,0,0,0,4.065-4.065,4.07,4.07,0,0,0-4.065-4.064,4.069,4.069,0,0,0-4.064,4.064A4.07,4.07,0,0,0,167.426-244.9Zm0-5.42a1.357,1.357,0,0,1,1.355,1.354,1.358,1.358,0,0,1-1.355,1.355,1.357,1.357,0,0,1-1.354-1.355A1.357,1.357,0,0,1,167.426-250.321Z" transform="translate(-128.136 253.031)" fill="#00223d"/>
      <path id="Trazado_26214" data-name="Trazado 26214" d="M143.451-211.937A4.07,4.07,0,0,0,147.516-216a4.07,4.07,0,0,0-4.065-4.064A4.07,4.07,0,0,0,139.387-216,4.069,4.069,0,0,0,143.451-211.937Zm0-5.42A1.358,1.358,0,0,1,144.807-216a1.357,1.357,0,0,1-1.355,1.354A1.357,1.357,0,0,1,142.1-216,1.357,1.357,0,0,1,143.451-217.356Z" transform="translate(-125.839 249.872)" fill="#00223d"/>
      <path id="Trazado_26215" data-name="Trazado 26215" d="M129.822-239.2a5.425,5.425,0,0,0,5.42-5.419,5.425,5.425,0,0,0-5.42-5.42,5.425,5.425,0,0,0-5.419,5.42A5.424,5.424,0,0,0,129.822-239.2Zm0-8.128a2.712,2.712,0,0,1,2.71,2.71,2.712,2.712,0,0,1-2.71,2.709,2.713,2.713,0,0,1-2.71-2.709A2.713,2.713,0,0,1,129.822-247.324Z" transform="translate(-124.403 252.744)" fill="#00223d"/>
      <path id="Trazado_26216" data-name="Trazado 26216" d="M127.4-223.636a5.425,5.425,0,0,0,5.42,5.419,5.424,5.424,0,0,0,5.42-5.419,5.425,5.425,0,0,0-5.42-5.42A5.425,5.425,0,0,0,127.4-223.636Zm8.129,0a2.712,2.712,0,0,1-2.71,2.71,2.712,2.712,0,0,1-2.71-2.71,2.712,2.712,0,0,1,2.71-2.71A2.712,2.712,0,0,1,135.528-223.636Z" transform="translate(-124.69 250.733)" fill="#00223d"/>
    </g>
  </g>
</svg>
