<svg xmlns="http://www.w3.org/2000/svg" width="151" height="151" viewBox="0 0 151 151">
  <g id="Grupo_17119" data-name="Grupo 17119" transform="translate(-640 1461)">
    <rect id="Rectángulo_4283" data-name="Rectángulo 4283" width="151" height="151" transform="translate(640 -1461)" fill="none"/>
    <g id="Grupo_17113" data-name="Grupo 17113" transform="translate(-1161.309 -1180.125)">
      <path id="Trazado_26311" data-name="Trazado 26311" d="M1904.254-157.755a55.119,55.119,0,0,1-75.294-20.175,55.119,55.119,0,0,1,20.175-75.3,55.12,55.12,0,0,1,75.294,20.175A55.12,55.12,0,0,1,1904.254-157.755Z" transform="translate(0 0)" fill="#78d2fa"/>
      <g id="Grupo_16799" data-name="Grupo 16799" transform="translate(1821.917 -260.473)">
        <path id="Trazado_26312" data-name="Trazado 26312" d="M1880.585-221.985a4.637,4.637,0,0,0-1.5.555c-.415.333.233.766,0,.956-.409.327-.7.92-1.581.864-1.829-.117-4.64-2.483-6.312-3.377,2.7-2.774-1.569-3.189-3.23-3.05-2.152.18-5.876-.014-7.82,1.08-1.349.76-3.162,3.912-4.249,5.164a23.851,23.851,0,0,0-4.02,5.343c-3.616,7.654,1.949,16.442,10.7,15.414,2.428-.286,4.976-1.812,7.128.2,1.586,1.485.747,2.883,1.168,4.614.363,1.5,2.023,2.42,2.6,3.8,1.1,2.638.4,4.288-.382,6.721-1.032,3.193,1.636,6.983,2.674,10.064.522,1.552,2.046,5.9,3.541,6.576,2.352,1.069,6.037-2.137,7.441-3.862,1.1-1.348.74-2.717,1.477-3.979.8-1.366,1.808-1.776,2.367-3.538.6-1.9,1.229-2.37,2.5-3.755,2.049-2.23,1.731-3.534.912-6.177-1.7-5.493,4.48-8.06,7.265-12.092,2.908-4.21-2.713-2.807-4.916-4.247-2.265-1.48-3.255-4.294-4.347-6.627s-1.995-5.838-3.8-7.754C1886.8-220.57,1882.562-221.254,1880.585-221.985Z" transform="translate(-1821.917 260.473)" fill="#a5dc69"/>
        <path id="Trazado_26313" data-name="Trazado 26313" d="M1909.037-185.141l-2.636,8.885c-.614,2.07-2.786,8.843-5.834,4.5-1.158-1.649-.216-3.809.43-5.326.815-1.914-.286-2.878.282-4.69.652-2.077,3.333-2.148,4.6-3.609a21.611,21.611,0,0,0,2.077-3.83Q1908.5-187.172,1909.037-185.141Z" transform="translate(-1821.917 260.473)" fill="#a5dc69"/>
        <path id="Trazado_26314" data-name="Trazado 26314" d="M1924.429-233.05a55.066,55.066,0,0,0-43.791-27.423l-7.209,9.042-15.448,5.416-4.145,10.047,6.393,8.956.68-1.894a7.957,7.957,0,0,1,7.49-5.269h10.536l12.112,4.256,4.171,3.982v2.53l5.8,11.108,1.688-.622a26.883,26.883,0,0,0,9.707-6.213l-1.4-2.1a1,1,0,0,1,.836-1.562h3.38a3.383,3.383,0,0,1,2.573,1.186l2.761,3.233a3.379,3.379,0,0,1,.607,1.041l3.046,8.378,1.451-1.45a4.961,4.961,0,0,0,1.4-3.454,3.722,3.722,0,0,1,1.246-2.719l1.11-.991a3.748,3.748,0,0,1,.923-.6A55.139,55.139,0,0,0,1924.429-233.05Z" transform="translate(-1821.917 260.473)" fill="#a5dc69"/>
        <path id="Trazado_26315" data-name="Trazado 26315" d="M1841.969-230.9l2.637-2.825a7.2,7.2,0,0,0,1.393-7.657h0a8.04,8.04,0,0,0-6.378-4.909,55.119,55.119,0,0,0-17.53,33.276,45.3,45.3,0,0,1,4.2,3.895c-.024.324,7.712-.973,7.712-.973l-3.983-5.841,5.719-4.089Z" transform="translate(-1821.917 260.473)" fill="#a5dc69"/>
        <path id="Trazado_26316" data-name="Trazado 26316" d="M1847.33-175.975a4.733,4.733,0,0,0,3.038-5.962l-.71-2.184a4.733,4.733,0,0,1,0-2.937h0a4.731,4.731,0,0,0-3.588-6.118l-5.57-1.088L1830.329-202l-8.412,2.732a54.94,54.94,0,0,0,7.042,21.338,54.982,54.982,0,0,0,13.637,15.762l2.507-13.084Z" transform="translate(-1821.917 260.473)" fill="#a5dc69"/>
      </g>
      <path id="Trazado_26317" data-name="Trazado 26317" d="M1903.129-159.693l-.086.049a2.243,2.243,0,0,0-.814,3.063,2.24,2.24,0,0,0,1.941,1.117,2.234,2.234,0,0,0,1.122-.3l.087-.05a2.241,2.241,0,0,0,.813-3.063A2.241,2.241,0,0,0,1903.129-159.693Z" transform="translate(0 0)" fill="#00223d"/>
      <path id="Trazado_26318" data-name="Trazado 26318" d="M1926.37-234.17a56.987,56.987,0,0,0-34.83-26.726,56.986,56.986,0,0,0-43.526,5.73,56.989,56.989,0,0,0-26.726,34.83,56.986,56.986,0,0,0,5.731,43.526,57.346,57.346,0,0,0,30.753,25.471,57.574,57.574,0,0,0,18.96,3.213,57.093,57.093,0,0,0,20.481-3.791,2.24,2.24,0,0,0,1.288-2.895,2.24,2.24,0,0,0-2.9-1.288,52.537,52.537,0,0,1-50.558-6.949l2.008-10.481.967-.314a6.98,6.98,0,0,0,4.477-8.785l-.71-2.185a2.48,2.48,0,0,1,0-1.545,6.974,6.974,0,0,0-.61-5.7,6.975,6.975,0,0,0-4.677-3.316l-5.058-.988-9.76-7.421a2.244,2.244,0,0,0-2.049-.348l-5.714,1.857a52.5,52.5,0,0,1-.008-6.12c.225.21.372.353.462.447a2.275,2.275,0,0,0,.413.505,2.264,2.264,0,0,0,1.777.617,32.39,32.39,0,0,0,4.016-.457c1.891-.279,3.772-.594,3.79-.6a2.24,2.24,0,0,0,1.691-1.331,2.238,2.238,0,0,0-.21-2.141l-2.748-4.031,3.936-2.815a2.233,2.233,0,0,0,.641-.709l6.1-10.651,2.459-2.635a9.468,9.468,0,0,0,1.827-10.04,10.3,10.3,0,0,0-4.083-4.808,53.065,53.065,0,0,1,6.267-4.243,52.548,52.548,0,0,1,25.826-7.068l-4,5.02-14.84,5.2a2.24,2.24,0,0,0-1.33,1.26l-4.144,10.047a2.239,2.239,0,0,0,.247,2.156l6.053,8.479a21.317,21.317,0,0,0-2.718,3.373c-.442.628-.859,1.22-1.148,1.552-.251.289-.5.572-.75.851a21.008,21.008,0,0,0-3.6,5,13.357,13.357,0,0,0,1.108,13.5,12.579,12.579,0,0,0,11.877,5.1,17.288,17.288,0,0,0,2.189-.441c1.921-.475,2.53-.523,3.146.054.3.281.328.334.322,1.286a8.726,8.726,0,0,0,.2,2.221,7.077,7.077,0,0,0,1.894,3.094,5.03,5.03,0,0,1,.813,1.036c.7,1.675.394,2.6-.273,4.636-.057.174-.115.351-.174.533-1.013,3.137.4,6.248,1.646,8.993.4.891.787,1.732,1.037,2.476,2.015,5.979,3.526,7.349,4.738,7.9a4.67,4.67,0,0,0,1.956.415c3.23,0,6.6-3,8.15-4.9a6.875,6.875,0,0,0,1.387-3.264,3.6,3.6,0,0,1,.287-1,5.81,5.81,0,0,1,.735-.945,7.774,7.774,0,0,0,1.833-3.045,4.935,4.935,0,0,1,1.521-2.386c.154-.164.319-.339.495-.531,2.985-3.248,2.216-5.729,1.4-8.357-.685-2.21.513-3.624,3.411-6.322a24.229,24.229,0,0,0,3.558-3.832c.439-.636,1.776-2.571.949-4.489-.811-1.88-2.871-2.2-4.527-2.45a7.445,7.445,0,0,1-1.956-.457c-1.386-.907-2.235-2.8-3.055-4.629-.163-.364-.325-.723-.488-1.072-.291-.623-.582-1.376-.891-2.174a18.791,18.791,0,0,0-3.312-6.169c-1.414-1.5-4.08-2.22-6.431-2.857-.791-.214-1.538-.416-2.03-.6a2.238,2.238,0,0,0-1.288-.08,5.821,5.821,0,0,0-2.389.989,2.782,2.782,0,0,0-.8,1.074,25.765,25.765,0,0,1-2.643-1.609l-.043-.029a3.176,3.176,0,0,0-.2-2.157c-1.252-2.648-5.407-2.441-6.227-2.371-.466.039-1.055.06-1.679.082-.978.034-2.061.073-3.131.193l.055-.153a5.73,5.73,0,0,1,5.381-3.786h1.274a2.242,2.242,0,0,0,2.241-2.241,2.241,2.241,0,0,0-2.241-2.241H1868.4a10.233,10.233,0,0,0-8.676,4.838l-3.342-4.682,3.288-7.972,14.5-5.084a2.249,2.249,0,0,0,1.011-.718l6.446-8.086a52.855,52.855,0,0,1,40.861,26.19,52.324,52.324,0,0,1,5.281,12.828l-.95.847a5.986,5.986,0,0,0-1.995,4.355v.054l-1.548-4.257a5.6,5.6,0,0,0-1.009-1.731l-2.761-3.232a5.618,5.618,0,0,0-4.277-1.972h-3.379a3.24,3.24,0,0,0-2.862,1.715,3.241,3.241,0,0,0,.161,3.332l.342.513a24.82,24.82,0,0,1-7.4,4.394l-4.632-8.873v-1.98a2.242,2.242,0,0,0-.694-1.621l-4.171-3.982a2.24,2.24,0,0,0-.8-.493l-3.755-1.32a2.241,2.241,0,0,0-2.858,1.371,2.241,2.241,0,0,0,1.372,2.857l3.3,1.16,3.129,2.987v1.571a2.241,2.241,0,0,0,.254,1.037l5.8,11.109a2.239,2.239,0,0,0,2.762,1.065l1.688-.622A29.335,29.335,0,0,0,1914-217.549a2.24,2.24,0,0,0,.279-2.827l-.119-.18h1.07a1.139,1.139,0,0,1,.869.4l2.761,3.232a1.153,1.153,0,0,1,.2.352l3.047,8.378a2.242,2.242,0,0,0,1.62,1.422,2.234,2.234,0,0,0,.486.053,2.239,2.239,0,0,0,1.584-.656l1.45-1.451a6.989,6.989,0,0,0,1.853-3.369,53.069,53.069,0,0,1-19.7,48.263,2.24,2.24,0,0,0-.379,3.147,2.239,2.239,0,0,0,3.146.379,57.332,57.332,0,0,0,20.807-34A57.32,57.32,0,0,0,1926.37-234.17Zm-96.464,34.664,9.241,7.026a2.251,2.251,0,0,0,.927.416l5.57,1.088a2.455,2.455,0,0,1,1.67,1.184,2.455,2.455,0,0,1,.218,2.036,6.928,6.928,0,0,0-.006,4.327l.71,2.185a2.492,2.492,0,0,1-1.6,3.137l-2.228.724a2.241,2.241,0,0,0-1.508,1.71l-1.792,9.356a53.453,53.453,0,0,1-10.21-12.734,52.592,52.592,0,0,1-6.51-18.663Zm-5.851-9.473a2.145,2.145,0,0,0,.037.289A2.1,2.1,0,0,1,1824.055-208.979Zm19.872-31.547a4.975,4.975,0,0,1-.96,5.275l-2.636,2.825a2.223,2.223,0,0,0-.307.415l-5.986,10.452-5.321,3.805a2.24,2.24,0,0,0-.548,3.085l1.99,2.919c-1.147.171-2.177.312-2.861.386-.132-.126-.269-.254-.412-.386-.532-.495-1.273-1.156-2.376-2.122A52.97,52.97,0,0,1,1840.3-243.85,5.827,5.827,0,0,1,1843.927-240.526Zm22.326,16.817c.679-.024,1.32-.047,1.893-.1a6.22,6.22,0,0,1,.955,0,2.248,2.248,0,0,0-.126,1.157,2.241,2.241,0,0,0,1.157,1.632c.42.225,1.006.615,1.625,1.028,1.752,1.168,3.737,2.491,5.6,2.61a3.717,3.717,0,0,0,3.044-1.269c.033-.033.063-.065.1-.1a2.4,2.4,0,0,0,.6-.734c.359.1.735.2,1.121.309,1.327.359,3.8,1.028,4.343,1.606a15.884,15.884,0,0,1,2.391,4.709c.337.872.655,1.7,1.012,2.458.154.327.305.665.458,1.006,1.034,2.307,2.206,4.922,4.693,6.547a9.258,9.258,0,0,0,3.729,1.136c.148.023.317.049.488.077a21.653,21.653,0,0,1-2.843,2.983c-2.775,2.584-6.228,5.8-4.637,10.93.75,2.422.785,2.684-.422,4-.164.179-.318.342-.461.495a9.2,9.2,0,0,0-2.526,4.1,3.5,3.5,0,0,1-.913,1.425,10.072,10.072,0,0,0-1.254,1.66,7.28,7.28,0,0,0-.811,2.381,2.741,2.741,0,0,1-.468,1.314,13.061,13.061,0,0,1-2.829,2.5,3.707,3.707,0,0,1-1.878.748c-.239-.257-1.106-1.379-2.415-5.264-.322-.958-.77-1.944-1.2-2.9-.955-2.1-1.941-4.276-1.461-5.762q.084-.262.168-.514c.766-2.337,1.49-4.545.149-7.759a8.086,8.086,0,0,0-1.631-2.325,4.159,4.159,0,0,1-.856-1.137,4.821,4.821,0,0,1-.074-1.133,5.555,5.555,0,0,0-1.74-4.588c-2.48-2.322-5.372-1.606-7.286-1.133a14.163,14.163,0,0,1-1.635.341,8.052,8.052,0,0,1-7.714-3.261,8.874,8.874,0,0,1-.7-8.971,17.031,17.031,0,0,1,2.9-3.939c.26-.293.523-.588.785-.891.437-.5.918-1.186,1.427-1.908A16.233,16.233,0,0,1,1861.24-223C1862.239-223.567,1864.559-223.649,1866.253-223.709Z" fill="#00223d"/>
      <path id="Trazado_26319" data-name="Trazado 26319" d="M1903.141-168.135c2.286-.374,4-2.752,5.409-7.484l2.636-8.885a2.239,2.239,0,0,0,.017-1.212l-1.078-4.064a2.241,2.241,0,0,0-1.9-1.651,2.246,2.246,0,0,0-2.236,1.157c-.245.453-.467.932-.68,1.4a9.634,9.634,0,0,1-1.119,2.032,4.948,4.948,0,0,1-1.316.78,6.164,6.164,0,0,0-3.732,3.628,6.573,6.573,0,0,0-.149,3.162,2.038,2.038,0,0,1-.057,1.32l-.023.053c-.713,1.674-2.04,4.79-.179,7.439,1.328,1.891,2.724,2.377,3.809,2.377A3.64,3.64,0,0,0,1903.141-168.135Zm-.74-4.9c-.428-.61.212-2.113.636-3.107l.022-.053a6.3,6.3,0,0,0,.368-3.734,2.354,2.354,0,0,1-.009-1.163c.088-.279.613-.551,1.4-.932.351-.17.737-.356,1.127-.582l-1.7,5.716a13.594,13.594,0,0,1-1.715,4.039C1902.5-172.909,1902.45-172.97,1902.4-173.039Z" transform="translate(0 0)" fill="#00223d"/>
      <path id="Trazado_26320" data-name="Trazado 26320" d="M1879.677-236.289a2.241,2.241,0,0,0-2.856,1.373,2.24,2.24,0,0,0,1.373,2.856l.151.053a2.234,2.234,0,0,0,.741.127,2.242,2.242,0,0,0,2.115-1.5,2.242,2.242,0,0,0-1.373-2.857Z" transform="translate(0 0)" fill="#00223d"/>
    </g>
  </g>
</svg>
