<svg xmlns="http://www.w3.org/2000/svg" width="95" height="94.996" viewBox="0 0 95 94.996">
  <g id="Grupo_16783" data-name="Grupo 16783" transform="translate(-1419.158 -412.493)">
    <path id="Trazado_26229" data-name="Trazado 26229" d="M1541.877,543.744h-6.129v-6.129h6.129Z" transform="translate(-53.771 -57.706)" fill="#268c56"/>
    <path id="Trazado_26230" data-name="Trazado 26230" d="M1479.316,489.714h-6.129v-6.129h6.129Z" transform="translate(-24.918 -32.788)" fill="#268c56"/>
    <path id="Trazado_26231" data-name="Trazado 26231" d="M1462.254,489.714h-6.129v-6.129h6.129Z" transform="translate(-17.049 -32.788)" fill="#116035"/>
    <path id="Trazado_26232" data-name="Trazado 26232" d="M1464.891,545.2l7.661,3.064,4.6-6.128h12.258l1.665,9.193,22.85-9.193-1.532-13.79h6.129l4.6-9.193-12.258-7.661-2.7-.622,1.148,10.244a3.082,3.082,0,0,1-1.9,3.187l-17.038,6.849-5.822,2.344a3.109,3.109,0,0,1-1.624.169,2.65,2.65,0,0,1-1-.337,3.046,3.046,0,0,1-1.532-2.129l-1.211-6.681h-8.167l-3.064,4.091-.613.812a3.079,3.079,0,0,1-3.586,1.011l-7.661-3.065a3.08,3.08,0,0,1-1.931-2.85v-5.347l-3.95-1.133-7.082,5.3a3.044,3.044,0,0,0-1.18,2.957l.821,4.927,22.116,6.319Z" transform="translate(-10.493 -45.37)" fill="#33b575"/>
    <path id="Trazado_26233" data-name="Trazado 26233" d="M1444.181,529.466l7.082-5.3,0,0Z" transform="translate(-11.54 -51.503)" fill="#48d88d"/>
    <path id="Trazado_26234" data-name="Trazado 26234" d="M1500.126,477.053l-1.148-10.244-17.223-3.974-1.532-7.661-6.129-3.064,1.532-9.193-7.661-10.725,6.129-9.193-1.494-1.073-.911.81.91-.81-9.23-6.588-13.79,12.257,4.6,6.129-16.854,7.661-7.661,16.854,4.6,7.661L1422,475.092l1.532,9.193,10.061,2.875-.821-4.927a3.045,3.045,0,0,1,1.18-2.957h0l7.079-5.3,2.961-2.213-2.958,2.214,3.95,1.133v5.347a3.08,3.08,0,0,0,1.931,2.85l7.661,3.065a3.079,3.079,0,0,0,3.586-1.011l.613-.812,3.064-4.091H1470l1.211,6.681a3.047,3.047,0,0,0,1.532,2.129,2.653,2.653,0,0,0,1,.337,3.109,3.109,0,0,0,1.624-.169l5.822-2.344,17.038-6.849A3.082,3.082,0,0,0,1500.126,477.053Zm-39.208-40.985h0l.992,1.321Z" transform="translate(-1.311 -1.312)" fill="#48d88d"/>
    <path id="Trazado_26235" data-name="Trazado 26235" d="M1542.1,541.991a1.532,1.532,0,0,1-1.532,1.532h-6.129a1.532,1.532,0,1,1,0-3.064h6.129A1.532,1.532,0,0,1,1542.1,541.991Z" transform="translate(-52.46 -59.018)" fill="#00223d"/>
    <path id="Trazado_26236" data-name="Trazado 26236" d="M1479.536,487.961a1.532,1.532,0,0,1-1.532,1.532h-6.129a1.532,1.532,0,1,1,0-3.064H1478A1.532,1.532,0,0,1,1479.536,487.961Z" transform="translate(-23.606 -34.099)" fill="#00223d"/>
    <path id="Trazado_26237" data-name="Trazado 26237" d="M1468.162,474.864a1.532,1.532,0,0,1-1.532,1.532H1460.5a1.532,1.532,0,0,1,0-3.064h6.129A1.532,1.532,0,0,1,1468.162,474.864Z" transform="translate(-18.361 -28.059)" fill="#00223d"/>
    <path id="Trazado_26238" data-name="Trazado 26238" d="M1430.441,483.585a1.533,1.533,0,0,1,1.394,2.168l-1.756,3.864,4.183,6.97a1.531,1.531,0,0,1-.4,2.013l-11.513,8.634,1.226,7.32,31.24,8.928a1.532,1.532,0,0,1,1.11,1.473v6.624l5.608,2.243,3.892-5.19a1.532,1.532,0,0,1,1.226-.613h12.258a1.532,1.532,0,0,1,1.507,1.259l1.33,7.342,20.026-8.058-1.4-12.633a1.532,1.532,0,0,1,1.354-1.691,1.467,1.467,0,0,1,.169-.009h5.182l3.552-7.1-10.858-6.787-2.813-.648a1.532,1.532,0,0,1,.688-2.987l3.064.706a1.533,1.533,0,0,1,.467.193l12.258,7.661a1.532,1.532,0,0,1,.559,1.992l-4.6,9.193a1.532,1.532,0,0,1-1.373.841h-4.418l1.344,12.089a1.532,1.532,0,0,1-.951,1.591l-22.85,9.193a1.533,1.533,0,0,1-1.993-.85,1.515,1.515,0,0,1-.086-.3l-1.437-7.934h-10.212l-4.137,5.516a1.532,1.532,0,0,1-1.794.5l-7.661-3.064a1.532,1.532,0,0,1-.964-1.424v-6.505l-31.065-8.876a1.532,1.532,0,0,1-1.089-1.226l-1.532-9.193a1.532,1.532,0,0,1,.591-1.477l11.153-8.364-3.886-6.476a1.533,1.533,0,0,1-.081-1.424l2.09-4.6a1.532,1.532,0,0,1,1.394-.892Z" transform="translate(0 -32.788)" fill="#00223d"/>
    <path id="Trazado_26239" data-name="Trazado 26239" d="M1472.8,412.493a1.532,1.532,0,0,1,.89.285l10.725,7.661a1.532,1.532,0,0,1,.385,2.1l-5.542,8.314,7.048,9.864a1.531,1.531,0,0,1,.264,1.143l-1.345,8.076,5.116,2.557a1.532,1.532,0,0,1,.816,1.073l1.34,6.691,9.761,2.252a1.533,1.533,0,0,1-.69,2.987l-10.725-2.475a1.531,1.531,0,0,1-1.158-1.192l-1.379-6.927-5.459-2.729a1.534,1.534,0,0,1-.826-1.623l1.428-8.566-7.292-10.209a1.532,1.532,0,0,1-.028-1.74l5.306-7.959-8.523-6.088-11.822,10.509,3.743,5a1.532,1.532,0,0,1-.592,2.314l-16.33,7.423-2.55,5.606a1.532,1.532,0,0,1-2.788-1.267l2.786-6.129a1.53,1.53,0,0,1,.766-.766l15.113-6.875-3.452-4.6a1.532,1.532,0,0,1,.207-2.065l13.79-12.258a1.534,1.534,0,0,1,1.017-.386Z" transform="translate(-10.746 0)" fill="#00223d"/>
    <g id="Grupo_16782" data-name="Grupo 16782" transform="translate(1481.816 440.581)">
      <path id="Trazado_26240" data-name="Trazado 26240" d="M1555.7,476.66c0,.064-.012.127-.012.191h4.042v-9.384h-8.182A12.214,12.214,0,0,1,1555.7,476.66Z" transform="translate(-1542.873 -465.935)" fill="#f8dc32"/>
      <path id="Trazado_26241" data-name="Trazado 26241" d="M1538.294,476.851h11.28c0-.064.012-.127.012-.191a12.215,12.215,0,0,0-4.153-9.193h-7.14Z" transform="translate(-1536.762 -465.935)" fill="#d6ae03"/>
      <path id="Trazado_26242" data-name="Trazado 26242" d="M1536.982,494.5a1.532,1.532,0,0,1-1.532-1.532V466.155a1.532,1.532,0,1,1,3.064,0v26.813A1.532,1.532,0,0,1,1536.982,494.5Z" transform="translate(-1535.45 -464.623)" fill="#00223d"/>
      <path id="Trazado_26243" data-name="Trazado 26243" d="M1552.3,476.881h-15.322a1.532,1.532,0,0,1-1.532-1.532v-9.193a1.532,1.532,0,0,1,1.532-1.532h4.6a1.532,1.532,0,0,1,0,3.064h-3.065v6.129h12.258v-6.129h-3.065a1.532,1.532,0,0,1,0-3.064h4.6a1.532,1.532,0,0,1,1.532,1.532v9.193A1.532,1.532,0,0,1,1552.3,476.881Z" transform="translate(-1535.45 -464.623)" fill="#00223d"/>
    </g>
    <path id="Trazado_26244" data-name="Trazado 26244" d="M1506,526.24h1.532a1.532,1.532,0,0,1,0,3.065H1506a1.532,1.532,0,0,1,0-3.065Z" transform="translate(-39.345 -52.46)" fill="#00223d"/>
  </g>
</svg>
