<svg xmlns="http://www.w3.org/2000/svg" width="79.124" height="79.125" viewBox="0 0 79.124 79.125">
  <g id="Grupo_16751" data-name="Grupo 16751" transform="translate(-1243.574 -468.433)">
    <g id="Grupo_16749" data-name="Grupo 16749" transform="translate(1245.119 494.157)">
      <path id="Trazado_26169" data-name="Trazado 26169" d="M1260.552,538.709l-5.045-5.369a9.3,9.3,0,0,1-2.521-6.365v-19.01a3.629,3.629,0,0,0-2.842-3.542h0a3.629,3.629,0,0,0-4.414,3.542v23.961a13.5,13.5,0,0,0,2.493,7.817l2.756,3.883,6.593,9.287,2.326,3.277h17.577l-2.532-12.067a21.334,21.334,0,0,0-8.975-13.323l-5.406-3.635a3.874,3.874,0,0,0-5.061.646h0a4.17,4.17,0,0,0,.087,5.627c2.961,3.137,7.365,7.826,7.365,7.826" transform="translate(-1245.73 -504.335)" fill="#ffcdac"/>
      <path id="Trazado_26170" data-name="Trazado 26170" d="M1324.466,538.709l5.045-5.369a9.294,9.294,0,0,0,2.521-6.365v-19.01a3.629,3.629,0,0,1,2.841-3.542h0a3.629,3.629,0,0,1,4.414,3.542v23.961a13.5,13.5,0,0,1-2.493,7.817l-2.756,3.883-6.593,9.287-2.327,3.277h-17.577l2.531-12.067a21.334,21.334,0,0,1,8.976-13.323l5.406-3.635a3.874,3.874,0,0,1,5.061.646h0a4.17,4.17,0,0,1-.088,5.627c-2.96,3.137-7.365,7.826-7.365,7.826" transform="translate(-1263.254 -504.335)" fill="#ffcdac"/>
    </g>
    <g id="Grupo_16750" data-name="Grupo 16750" transform="translate(1259.552 496.19)">
      <path id="Trazado_26171" data-name="Trazado 26171" d="M1304,512.132a5.7,5.7,0,0,1,2.784-1.593l3.947-.946v-2.409h4.818V509.6h0l3.936.94a5.718,5.718,0,0,1,4.389,5.561v2.886h-8.724Z" transform="translate(-1276.682 -507.176)" fill="#7d9bff"/>
      <path id="Trazado_26172" data-name="Trazado 26172" d="M1285.747,512.121a5.706,5.706,0,0,0-2.784-1.593l-3.946-.946v-2.409H1274.2v2.417h0l-3.936.94a5.718,5.718,0,0,0-4.389,5.561v2.886h8.724Z" transform="translate(-1265.874 -507.173)" fill="#7d9bff"/>
    </g>
    <path id="Trazado_26173" data-name="Trazado 26173" d="M1289.521,513.958l-5.5,1.318a7.963,7.963,0,0,0-6.108,7.745v5.557h29.912v-5.553a7.963,7.963,0,0,0-6.113-7.746l-5.482-1.309" transform="translate(-9.736 -12.906)" fill="#cddc39"/>
    <path id="Trazado_26174" data-name="Trazado 26174" d="M1300.823,509.275v3.366l-3.354,7.628-3.357-7.639v-3.355" transform="translate(-14.328 -11.579)" fill="#ffb487"/>
    <path id="Trazado_26175" data-name="Trazado 26175" d="M1303.338,493.14v4.648a7.481,7.481,0,0,1-7.481,7.482h0a7.482,7.482,0,0,1-7.482-7.482V493.14" transform="translate(-12.701 -7.004)" fill="#ffcdac"/>
    <path id="Trazado_26176" data-name="Trazado 26176" d="M1295.857,482.237h0a7.481,7.481,0,0,0-7.482,7.481v1.8h3.658a8.217,8.217,0,0,0,6.3-2.94h0l5,2.94v-1.8A7.481,7.481,0,0,0,1295.857,482.237Z" transform="translate(-12.701 -3.913)" fill="#bebebe"/>
    <path id="Trazado_26177" data-name="Trazado 26177" d="M1284.105,494.425v-1.293a5.371,5.371,0,0,0-5.371-5.371h0a5.371,5.371,0,0,0-5.372,5.371v1.293h3.7a12.8,12.8,0,0,0,6.582-1.821h0" transform="translate(-8.445 -5.479)" fill="#f5b955"/>
    <path id="Trazado_26178" data-name="Trazado 26178" d="M1284.105,495.589v3.337a5.371,5.371,0,0,1-5.371,5.372h0a5.372,5.372,0,0,1-5.372-5.372v-3.337" transform="translate(-8.445 -7.699)" fill="#ffcdac"/>
    <path id="Trazado_26179" data-name="Trazado 26179" d="M1309.251,494.436v-1.293a5.371,5.371,0,0,1,5.371-5.371h0a5.371,5.371,0,0,1,5.372,5.371v1.293h-3.7a12.8,12.8,0,0,1-6.582-1.821h0" transform="translate(-18.62 -5.483)" fill="#f5b955"/>
    <path id="Trazado_26180" data-name="Trazado 26180" d="M1309.251,495.6v3.337a5.372,5.372,0,0,0,5.371,5.372h0a5.372,5.372,0,0,0,5.372-5.372V495.6" transform="translate(-18.62 -7.702)" fill="#ffcdac"/>
    <path id="Trazado_26181" data-name="Trazado 26181" d="M1262.906,570.628a1.545,1.545,0,1,0-2.52,1.789l2.326,3.277a1.545,1.545,0,0,0,2.52-1.789Z" transform="translate(-4.685 -28.788)" fill="#00223d"/>
    <path id="Trazado_26182" data-name="Trazado 26182" d="M1275.845,543.194a22.758,22.758,0,0,0-9.625-14.288l-5.406-3.635a5.438,5.438,0,0,0-6.893.7V507.352a5.173,5.173,0,1,0-10.346,0v23.962a14.965,14.965,0,0,0,2.778,8.712l2.756,3.882a1.546,1.546,0,0,0,2.521-1.789l-2.756-3.882a11.9,11.9,0,0,1-2.208-6.923V507.352a2.083,2.083,0,0,1,4.166,0v19.011a10.8,10.8,0,0,0,2.785,7.25c.077.092.155.183.239.272,1.027,1.088,2.233,2.369,3.37,3.577l1.591,1.693.016.016,2.385,2.539a1.546,1.546,0,1,0,2.253-2.116c-.029-.03-1.837-1.956-3.9-4.152l-3.543-3.772-.026-.029a2.608,2.608,0,0,1,.051-3.418,2.335,2.335,0,0,1,3.042-.388l5.405,3.635a19.682,19.682,0,0,1,8.325,12.358l2.532,12.067a1.546,1.546,0,0,0,1.511,1.229,1.515,1.515,0,0,0,.319-.034,1.545,1.545,0,0,0,1.2-1.83Z" transform="translate(0 -9.567)" fill="#00223d"/>
    <path id="Trazado_26183" data-name="Trazado 26183" d="M1258.431,564.324a1.545,1.545,0,0,0-2.516,1.795l.01.014a1.546,1.546,0,1,0,2.516-1.8Z" transform="translate(-3.417 -27.001)" fill="#00223d"/>
    <path id="Trazado_26184" data-name="Trazado 26184" d="M1338.286,503.318a5.173,5.173,0,0,0-8.411,4.035v18.621a5.439,5.439,0,0,0-6.893-.7l-5.406,3.635a22.76,22.76,0,0,0-9.625,14.288l-2.532,12.068a1.544,1.544,0,0,0,1.2,1.829,1.512,1.512,0,0,0,.319.034,1.547,1.547,0,0,0,1.511-1.229l2.531-12.068a19.688,19.688,0,0,1,8.325-12.357l5.406-3.635a2.336,2.336,0,0,1,3.042.388,2.608,2.608,0,0,1,.054,3.414l-.029.032-7.446,7.924a1.545,1.545,0,1,0,2.253,2.116c.021-.022,6.335-6.737,7.362-7.824.083-.089.163-.18.239-.272a10.8,10.8,0,0,0,2.785-7.25V507.353a2.083,2.083,0,0,1,4.166,0v23.962a11.9,11.9,0,0,1-2.207,6.923l-11.676,16.447a1.545,1.545,0,1,0,2.521,1.789l11.675-16.447a14.965,14.965,0,0,0,2.778-8.712V507.353A5.149,5.149,0,0,0,1338.286,503.318Z" transform="translate(-17.524 -9.567)" fill="#00223d"/>
    <path id="Trazado_26185" data-name="Trazado 26185" d="M1303.8,520.518a1.546,1.546,0,0,0,1.546-1.545V513.42c0-.191-.007-.381-.019-.57h7.121A1.545,1.545,0,0,0,1314,511.3v-2.886a7.239,7.239,0,0,0-5.576-7.064l-2.749-.657V500.2a6.911,6.911,0,0,0,2.958-5.667v-3.575a6.911,6.911,0,0,0-11.4-5.257,9.024,9.024,0,0,0-16.724.012,6.911,6.911,0,0,0-11.419,5.244v3.575a6.913,6.913,0,0,0,2.959,5.668v.493l-2.75.656a7.24,7.24,0,0,0-5.575,7.065V511.3a1.546,1.546,0,0,0,1.545,1.545h7.1c-.011.188-.019.375-.019.566v5.557a1.545,1.545,0,0,0,1.545,1.545h9.289a1.546,1.546,0,1,0,0-3.091h-1.6v-3.193a1.545,1.545,0,1,0-3.09,0v3.194h-3.057v-4.012a6.4,6.4,0,0,1,4.922-6.242l4.241-1.016,2.839,6.457a1.545,1.545,0,0,0,1.414.924h0a1.546,1.546,0,0,0,1.414-.924l2.835-6.447,4.228,1.01a6.4,6.4,0,0,1,4.927,6.243v4.007H1299.2v-3.194a1.545,1.545,0,1,0-3.091,0v3.194h-1.752a1.545,1.545,0,0,0,0,3.091Zm-19.853-18.749a7.171,7.171,0,0,0-1.237-.417l-2.761-.662v-.481a6.965,6.965,0,0,0,1.339-1.224,9.109,9.109,0,0,0,2.659,2.665Zm-11.776-7.232V493.8h2.157a14.352,14.352,0,0,0,5.494-1.095v1.831a3.826,3.826,0,0,1-7.651,0Zm10.757-.451v-1.632h2.112a9.737,9.737,0,0,0,6.567-2.537l3.187,1.872v2.523a5.935,5.935,0,0,1-11.866-.226Zm10.821,7.689v-.1a9.094,9.094,0,0,0,2.681-2.672,6.919,6.919,0,0,0,1.328,1.211v.481l-2.761.662A7.244,7.244,0,0,0,1293.752,501.774Zm4.136-7.237v-.226c0-.075.005-.15.005-.226v-1.376a14.353,14.353,0,0,0,5.489,1.092h2.157v.736a3.826,3.826,0,1,1-7.651,0Zm3.825-7.4a3.831,3.831,0,0,1,3.818,3.573h-2.149a11.271,11.271,0,0,1-5.182-1.262A3.832,3.832,0,0,1,1301.713,487.137Zm-18.782,1.97a5.936,5.936,0,0,1,11.8-.943l-2.6-1.528a1.545,1.545,0,0,0-1.967.34,6.656,6.656,0,0,1-5.115,2.387h-2.112v-.256Zm-6.931-1.97a3.83,3.83,0,0,1,3.512,2.31,11.259,11.259,0,0,1-5.181,1.263h-2.149A3.831,3.831,0,0,1,1276,487.137Zm3.638,17.031a9.479,9.479,0,0,0-6.567,5.591h-6.264v-1.341a4.16,4.16,0,0,1,3.2-4.058l3.936-.94a1.546,1.546,0,0,0,1.187-1.5V501.4a6.746,6.746,0,0,0,1.728,0v.441c0,.023,0,.047,0,.069a1.548,1.548,0,0,0,1.255,1.52l2.306.552Zm9.214,3.985-1.812-4.124v-1.1a9.062,9.062,0,0,0,3.621.006v1.108Zm9.2-3.982-.776-.185,2.318-.555a1.549,1.549,0,0,0,1.262-1.523v-.51a6.752,6.752,0,0,0,1.728,0v.519a1.546,1.546,0,0,0,1.186,1.5l3.936.94a4.159,4.159,0,0,1,3.2,4.058v1.341h-6.285A9.478,9.478,0,0,0,1298.048,504.171Z" transform="translate(-5.711 -3.302)" fill="#00223d"/>
    <path id="Trazado_26186" data-name="Trazado 26186" d="M1298.178,532.205a1.545,1.545,0,1,0,1.092.451A1.553,1.553,0,0,0,1298.178,532.205Z" transform="translate(-15.042 -18.079)"/>
    <path id="Trazado_26187" data-name="Trazado 26187" d="M1298.177,473.836a1.546,1.546,0,0,0,1.546-1.546v-2.312a1.545,1.545,0,1,0-3.09,0v2.312A1.545,1.545,0,0,0,1298.177,473.836Z" transform="translate(-15.042)" fill="#00223d"/>
    <path id="Trazado_26188" data-name="Trazado 26188" d="M1286.974,476.835a1.545,1.545,0,1,0,2.184-2.187l-1.621-1.619a1.545,1.545,0,1,0-2.185,2.187Z" transform="translate(-11.716 -1.175)" fill="#00223d"/>
    <path id="Trazado_26189" data-name="Trazado 26189" d="M1307.614,477.333a1.542,1.542,0,0,0,1.094-.453l1.608-1.61a1.546,1.546,0,1,0-2.187-2.185l-1.608,1.61a1.545,1.545,0,0,0,1.093,2.637Z" transform="translate(-17.717 -1.19)" fill="#00223d"/>
  </g>
</svg>
