<svg xmlns="http://www.w3.org/2000/svg" width="514.588" height="105.737" viewBox="0 0 514.588 105.737">
  <g id="Grupo_17168" data-name="Grupo 17168" transform="translate(-4111 -2828.026)">
    <g id="Grupo_16896" data-name="Grupo 16896" transform="translate(4152.667 2828.026)">
      <g id="Grupo_16895" data-name="Grupo 16895">
        <path id="Trazado_26514" data-name="Trazado 26514" d="M198.159-58.419l-40.107-52.869v11.14H-66.686l31.66,41.729-31.66,41.733H158.053V-5.551Z" transform="translate(25.019 111.288)" fill="#f9a825"/>
      </g>
    </g>
    <g id="Grupo_16915" data-name="Grupo 16915" transform="translate(4402.41 2828.026)">
      <g id="Grupo_16895-2" data-name="Grupo 16895">
        <path id="Trazado_26514-2" data-name="Trazado 26514" d="M198.159-58.419l-40.107-52.869v11.14H-66.686l31.66,41.729-31.66,41.733H158.053V-5.551Z" transform="translate(25.019 111.288)" fill="#cddc39"/>
      </g>
    </g>
    <path id="Trazado_26975" data-name="Trazado 26975" d="M6.438,16.148a5.844,5.844,0,0,1-2.164-.395,5.226,5.226,0,0,1-1.738-1.109,4.949,4.949,0,0,1-1.156-1.785,6.456,6.456,0,0,1-.418-2.367,6.35,6.35,0,0,1,.422-2.355A4.939,4.939,0,0,1,4.273,5.242a5.9,5.9,0,0,1,2.164-.391,5.589,5.589,0,0,1,2.926.773A4.819,4.819,0,0,1,11.3,7.773L10.008,8.3A3.622,3.622,0,0,0,8.566,6.738a4.137,4.137,0,0,0-2.129-.551,4.374,4.374,0,0,0-1.6.289,3.838,3.838,0,0,0-1.3.828,3.739,3.739,0,0,0-.871,1.359,5.044,5.044,0,0,0-.316,1.828,5.075,5.075,0,0,0,.316,1.832,3.733,3.733,0,0,0,.871,1.363,3.888,3.888,0,0,0,1.3.832,4.323,4.323,0,0,0,1.6.293,4.137,4.137,0,0,0,2.129-.551A3.631,3.631,0,0,0,10.008,12.7l1.289.523a4.794,4.794,0,0,1-1.93,2.152A5.6,5.6,0,0,1,6.438,16.148Zm8.68,0a2.613,2.613,0,0,1-1.684-.527,1.894,1.894,0,0,1-.66-1.574,2.237,2.237,0,0,1,.211-1,1.77,1.77,0,0,1,.625-.7,3.749,3.749,0,0,1,.9-.434,8.341,8.341,0,0,1,1.168-.277l1.242-.2q.68-.125.68-.711a1.342,1.342,0,0,0-.48-1.145,1.958,1.958,0,0,0-1.215-.363,1.994,1.994,0,0,0-1.2.352,1.471,1.471,0,0,0-.57,1.078l-1.219-.258a2.346,2.346,0,0,1,.961-1.645,3.59,3.59,0,0,1,2.094-.551,4.247,4.247,0,0,1,1.113.137,3.025,3.025,0,0,1,.93.43,1.927,1.927,0,0,1,.664.828,3.081,3.081,0,0,1,.238,1.262v3.172a1.3,1.3,0,0,0,.176.8.759.759,0,0,0,.605.207h.125V16h-.672A1.281,1.281,0,0,1,17.7,14.961h-.062A2.935,2.935,0,0,1,15.117,16.148Zm.313-1.094a2.049,2.049,0,0,0,1.648-.742,3.056,3.056,0,0,0,.625-2.031l-2.031.391a2.734,2.734,0,0,0-1.191.426.99.99,0,0,0-.387.84.979.979,0,0,0,.371.844A1.586,1.586,0,0,0,15.43,15.055ZM25.781,8.172a3.493,3.493,0,0,1,1.391.281,3.421,3.421,0,0,1,1.141.789,3.688,3.688,0,0,1,.77,1.266,4.667,4.667,0,0,1,.285,1.656,4.061,4.061,0,0,1-1.035,2.9,3.362,3.362,0,0,1-2.551,1.1,3.04,3.04,0,0,1-1.605-.437,2.867,2.867,0,0,1-1.1-1.18v5.32H21.727V8.32h1.3l.031,1.492a2.811,2.811,0,0,1,1.094-1.2A3.068,3.068,0,0,1,25.781,8.172Zm-.266,6.82a2.332,2.332,0,0,0,1.777-.777,2.891,2.891,0,0,0,.723-2.051,2.877,2.877,0,0,0-.723-2.047,2.423,2.423,0,0,0-3.582.035,2.88,2.88,0,0,0-.734,2.012,2.891,2.891,0,0,0,.734,2.02A2.343,2.343,0,0,0,25.516,14.992Zm7.758,1.156a2.613,2.613,0,0,1-1.684-.527,1.894,1.894,0,0,1-.66-1.574,2.237,2.237,0,0,1,.211-1,1.77,1.77,0,0,1,.625-.7,3.749,3.749,0,0,1,.9-.434,8.341,8.341,0,0,1,1.168-.277l1.242-.2q.68-.125.68-.711a1.342,1.342,0,0,0-.48-1.145,1.958,1.958,0,0,0-1.215-.363,1.994,1.994,0,0,0-1.2.352,1.471,1.471,0,0,0-.57,1.078l-1.219-.258a2.346,2.346,0,0,1,.961-1.645,3.59,3.59,0,0,1,2.094-.551,4.247,4.247,0,0,1,1.113.137,3.025,3.025,0,0,1,.93.43,1.927,1.927,0,0,1,.664.828,3.081,3.081,0,0,1,.238,1.262v3.172a1.3,1.3,0,0,0,.176.8.759.759,0,0,0,.605.207h.125V16H37.3a1.281,1.281,0,0,1-1.453-1.039h-.062A2.935,2.935,0,0,1,33.273,16.148Zm.313-1.094a2.049,2.049,0,0,0,1.648-.742,3.056,3.056,0,0,0,.625-2.031l-2.031.391a2.734,2.734,0,0,0-1.191.426.99.99,0,0,0-.387.84.979.979,0,0,0,.371.844A1.586,1.586,0,0,0,33.586,15.055Zm9.328,1.086a3.7,3.7,0,0,1-2.75-1.1,3.929,3.929,0,0,1-1.086-2.883A3.937,3.937,0,0,1,40.16,9.273a4,4,0,0,1,4.977-.43,3.391,3.391,0,0,1,1.293,1.867l-1.266.2a2.337,2.337,0,0,0-.867-1.2A2.361,2.361,0,0,0,42.906,9.3a2.27,2.27,0,0,0-1.777.789,3.006,3.006,0,0,0-.7,2.07,2.991,2.991,0,0,0,.7,2.066,2.275,2.275,0,0,0,1.777.785,2.361,2.361,0,0,0,1.391-.422,2.337,2.337,0,0,0,.867-1.2l1.266.211a3.4,3.4,0,0,1-1.3,1.863A3.72,3.72,0,0,1,42.914,16.141Zm6.2-9.625A.92.92,0,0,1,48.2,5.6a.867.867,0,0,1,.27-.641.886.886,0,0,1,.645-.266.877.877,0,0,1,.637.266.867.867,0,0,1,.27.641.88.88,0,0,1-.27.645A.871.871,0,0,1,49.109,6.516ZM48.422,16V8.32h1.359V16ZM58.2,4h1.352V16h-1.3l-.031-1.492a2.826,2.826,0,0,1-1.094,1.211,3.048,3.048,0,0,1-1.625.445,3.49,3.49,0,0,1-2.535-1.082,3.7,3.7,0,0,1-.773-1.27,4.644,4.644,0,0,1-.285-1.648,4.038,4.038,0,0,1,1.043-2.883A3.367,3.367,0,0,1,55.5,8.172a3.061,3.061,0,0,1,1.605.434,2.842,2.842,0,0,1,1.1,1.176ZM55.781,14.992a2.3,2.3,0,0,0,1.785-.809,2.919,2.919,0,0,0,.723-2.02,2.913,2.913,0,0,0-.727-2.016,2.3,2.3,0,0,0-1.781-.812,2.35,2.35,0,0,0-1.8.785,2.889,2.889,0,0,0-.727,2.043,2.889,2.889,0,0,0,.727,2.043A2.35,2.35,0,0,0,55.781,14.992Zm8.3,1.156a2.613,2.613,0,0,1-1.684-.527,1.894,1.894,0,0,1-.66-1.574,2.237,2.237,0,0,1,.211-1,1.77,1.77,0,0,1,.625-.7,3.749,3.749,0,0,1,.9-.434,8.341,8.341,0,0,1,1.168-.277l1.242-.2q.68-.125.68-.711a1.342,1.342,0,0,0-.48-1.145,1.958,1.958,0,0,0-1.215-.363,1.994,1.994,0,0,0-1.2.352,1.471,1.471,0,0,0-.57,1.078l-1.219-.258a2.346,2.346,0,0,1,.961-1.645,3.59,3.59,0,0,1,2.094-.551,4.247,4.247,0,0,1,1.113.137,3.025,3.025,0,0,1,.93.43,1.927,1.927,0,0,1,.664.828,3.081,3.081,0,0,1,.238,1.262v3.172a1.3,1.3,0,0,0,.176.8.759.759,0,0,0,.605.207h.125V16h-.672a1.281,1.281,0,0,1-1.453-1.039h-.062A2.935,2.935,0,0,1,64.078,16.148Zm.313-1.094a2.049,2.049,0,0,0,1.648-.742,3.056,3.056,0,0,0,.625-2.031l-2.031.391a2.734,2.734,0,0,0-1.191.426.99.99,0,0,0-.387.84.979.979,0,0,0,.371.844A1.586,1.586,0,0,0,64.391,15.055ZM76.2,4h1.352V16h-1.3l-.031-1.492a2.826,2.826,0,0,1-1.094,1.211,3.048,3.048,0,0,1-1.625.445,3.49,3.49,0,0,1-2.535-1.082,3.7,3.7,0,0,1-.773-1.27,4.644,4.644,0,0,1-.285-1.648,4.038,4.038,0,0,1,1.043-2.883A3.367,3.367,0,0,1,73.5,8.172a3.061,3.061,0,0,1,1.605.434,2.842,2.842,0,0,1,1.1,1.176ZM73.781,14.992a2.3,2.3,0,0,0,1.785-.809,2.919,2.919,0,0,0,.723-2.02,2.913,2.913,0,0,0-.727-2.016,2.3,2.3,0,0,0-1.781-.812,2.35,2.35,0,0,0-1.8.785,2.889,2.889,0,0,0-.727,2.043,2.889,2.889,0,0,0,.727,2.043A2.35,2.35,0,0,0,73.781,14.992ZM84.461,16V4h1.367V16Zm4.8-9.484a.92.92,0,0,1-.914-.914.867.867,0,0,1,.27-.641.886.886,0,0,1,.645-.266.877.877,0,0,1,.637.266.867.867,0,0,1,.27.641.88.88,0,0,1-.27.645A.871.871,0,0,1,89.266,6.516ZM88.578,16V8.32h1.359V16Zm11.961-7.828a2.476,2.476,0,0,1,1.789.652,2.42,2.42,0,0,1,.68,1.832V16h-1.352V11.008a1.735,1.735,0,0,0-.422-1.266,1.436,1.436,0,0,0-1.07-.43,1.517,1.517,0,0,0-1.172.484,2.083,2.083,0,0,0-.445,1.453V16H97.172V11.063a1.815,1.815,0,0,0-.426-1.309,1.448,1.448,0,0,0-1.09-.441,1.5,1.5,0,0,0-1.168.5,2.155,2.155,0,0,0-.449,1.488V16H92.688V8.32h1.352v.992a2.333,2.333,0,0,1,.879-.844,2.506,2.506,0,0,1,1.223-.3,2.609,2.609,0,0,1,1.313.324,2.018,2.018,0,0,1,.852.934,2.39,2.39,0,0,1,.922-.934A2.637,2.637,0,0,1,100.539,8.172Zm5.773-1.656A.92.92,0,0,1,105.4,5.6a.867.867,0,0,1,.27-.641.886.886,0,0,1,.645-.266.877.877,0,0,1,.637.266.867.867,0,0,1,.27.641.88.88,0,0,1-.27.645A.871.871,0,0,1,106.313,6.516ZM105.625,16V8.32h1.359V16Zm6.563,0a2.019,2.019,0,0,1-1.5-.551,2.084,2.084,0,0,1-.547-1.535V9.4h-1.57V8.32h.578a1.11,1.11,0,0,0,.848-.27,1.326,1.326,0,0,0,.246-.9V5.758H111.5V8.32h1.766V9.4H111.5v4.375a1.164,1.164,0,0,0,.293.848,1.026,1.026,0,0,0,.77.3h.7V16Zm4.711.148a2.613,2.613,0,0,1-1.684-.527,1.894,1.894,0,0,1-.66-1.574,2.237,2.237,0,0,1,.211-1,1.77,1.77,0,0,1,.625-.7,3.749,3.749,0,0,1,.9-.434,8.341,8.341,0,0,1,1.168-.277l1.242-.2q.68-.125.68-.711a1.342,1.342,0,0,0-.48-1.145,1.958,1.958,0,0,0-1.215-.363,1.994,1.994,0,0,0-1.2.352,1.471,1.471,0,0,0-.57,1.078l-1.219-.258a2.346,2.346,0,0,1,.961-1.645,3.59,3.59,0,0,1,2.094-.551,4.247,4.247,0,0,1,1.113.137,3.025,3.025,0,0,1,.93.43,1.927,1.927,0,0,1,.664.828,3.081,3.081,0,0,1,.238,1.262v3.172a1.3,1.3,0,0,0,.176.8.759.759,0,0,0,.605.207h.125V16h-.672a1.281,1.281,0,0,1-1.453-1.039h-.062A2.935,2.935,0,0,1,116.9,16.148Zm.313-1.094a2.049,2.049,0,0,0,1.648-.742,3.056,3.056,0,0,0,.625-2.031l-2.031.391a2.734,2.734,0,0,0-1.191.426.99.99,0,0,0-.387.84.979.979,0,0,0,.371.844A1.586,1.586,0,0,0,117.211,15.055ZM129.023,4h1.352V16h-1.3l-.031-1.492a2.826,2.826,0,0,1-1.094,1.211,3.048,3.048,0,0,1-1.625.445,3.49,3.49,0,0,1-2.535-1.082,3.7,3.7,0,0,1-.773-1.27,4.644,4.644,0,0,1-.285-1.648,4.038,4.038,0,0,1,1.043-2.883,3.367,3.367,0,0,1,2.551-1.109,3.061,3.061,0,0,1,1.605.434,2.842,2.842,0,0,1,1.1,1.176ZM126.6,14.992a2.3,2.3,0,0,0,1.785-.809,2.919,2.919,0,0,0,.723-2.02,2.913,2.913,0,0,0-.727-2.016,2.3,2.3,0,0,0-1.781-.812,2.35,2.35,0,0,0-1.8.785,2.889,2.889,0,0,0-.727,2.043,2.889,2.889,0,0,0,.727,2.043A2.35,2.35,0,0,0,126.6,14.992Zm8.3,1.156a2.613,2.613,0,0,1-1.684-.527,1.894,1.894,0,0,1-.66-1.574,2.237,2.237,0,0,1,.211-1,1.77,1.77,0,0,1,.625-.7,3.749,3.749,0,0,1,.9-.434,8.341,8.341,0,0,1,1.168-.277l1.242-.2q.68-.125.68-.711a1.342,1.342,0,0,0-.48-1.145,1.958,1.958,0,0,0-1.215-.363,1.994,1.994,0,0,0-1.2.352,1.471,1.471,0,0,0-.57,1.078l-1.219-.258a2.346,2.346,0,0,1,.961-1.645,3.59,3.59,0,0,1,2.094-.551,4.247,4.247,0,0,1,1.113.137,3.026,3.026,0,0,1,.93.43,1.927,1.927,0,0,1,.664.828,3.081,3.081,0,0,1,.238,1.262v3.172a1.3,1.3,0,0,0,.176.8.759.759,0,0,0,.605.207h.125V16h-.672a1.281,1.281,0,0,1-1.453-1.039h-.062A2.935,2.935,0,0,1,134.9,16.148Zm.313-1.094a2.049,2.049,0,0,0,1.648-.742,3.056,3.056,0,0,0,.625-2.031l-2.031.391a2.734,2.734,0,0,0-1.191.426.99.99,0,0,0-.387.84.979.979,0,0,0,.371.844A1.586,1.586,0,0,0,135.211,15.055ZM151.336,4h1.352V16h-1.3l-.031-1.492a2.826,2.826,0,0,1-1.094,1.211,3.048,3.048,0,0,1-1.625.445,3.49,3.49,0,0,1-2.535-1.082,3.7,3.7,0,0,1-.773-1.27,4.644,4.644,0,0,1-.285-1.648,4.038,4.038,0,0,1,1.043-2.883,3.367,3.367,0,0,1,2.551-1.109,3.061,3.061,0,0,1,1.605.434,2.842,2.842,0,0,1,1.1,1.176Zm-2.422,10.992a2.3,2.3,0,0,0,1.785-.809,2.919,2.919,0,0,0,.723-2.02,2.913,2.913,0,0,0-.727-2.016,2.3,2.3,0,0,0-1.781-.812,2.35,2.35,0,0,0-1.8.785,2.889,2.889,0,0,0-.727,2.043,2.889,2.889,0,0,0,.727,2.043A2.35,2.35,0,0,0,148.914,14.992Zm13.242-2.984-.016.367h-6a2.714,2.714,0,0,0,.734,1.965,2.411,2.411,0,0,0,1.75.684,2.3,2.3,0,0,0,1.273-.367,2.383,2.383,0,0,0,.875-1.016l1.219.258a3.464,3.464,0,0,1-1.312,1.648,3.581,3.581,0,0,1-2.039.6,3.71,3.71,0,0,1-2.766-1.07,3.982,3.982,0,0,1-1.055-2.922,3.962,3.962,0,0,1,1.059-2.914,3.664,3.664,0,0,1,2.723-1.07,3.467,3.467,0,0,1,2.582.984A3.889,3.889,0,0,1,162.156,12.008Zm-3.555-2.8a2.4,2.4,0,0,0-1.6.543,2.488,2.488,0,0,0-.809,1.582h4.6a2.282,2.282,0,0,0-.672-1.582A2.17,2.17,0,0,0,158.6,9.211Zm-152.7,18.6a3.131,3.131,0,0,1,2.219.723A2.68,2.68,0,0,1,8.9,30.594V36H6.641V31.078a1.4,1.4,0,0,0-.4-1.109A1.516,1.516,0,0,0,5.2,29.617a2.115,2.115,0,0,0-.672.1,1.726,1.726,0,0,0-.562.316,1.4,1.4,0,0,0-.4.605,2.8,2.8,0,0,0-.152.93V36H1.164V27.969h2.25v.891A3.1,3.1,0,0,1,5.906,27.813Zm12.727,4.055-.023.539H12.656a2.079,2.079,0,0,0,.641,1.469,2.049,2.049,0,0,0,1.414.508,1.974,1.974,0,0,0,1.059-.277,1.7,1.7,0,0,0,.676-.809l2.063.3A3.506,3.506,0,0,1,17.1,35.484a4.181,4.181,0,0,1-2.375.672A4.348,4.348,0,0,1,11.6,35.051a4.034,4.034,0,0,1-1.16-3.066A4.058,4.058,0,0,1,11.6,28.918,4.219,4.219,0,0,1,14.656,27.8a4.032,4.032,0,0,1,2.883,1.023A4.015,4.015,0,0,1,18.633,31.867Zm-3.961-2.477a1.778,1.778,0,0,0-1.953,1.547h3.688a1.691,1.691,0,0,0-.555-1.148A1.758,1.758,0,0,0,14.672,29.391Zm11.2-1.422h2.141V35.4a6.008,6.008,0,0,1-.3,2,3.3,3.3,0,0,1-.871,1.371,3.631,3.631,0,0,1-1.336.77,5.632,5.632,0,0,1-1.75.25q-3.18,0-4.141-2.492l1.867-.8a2.725,2.725,0,0,0,.867,1.164,2.211,2.211,0,0,0,1.32.375q2.086,0,2.086-2.477v-.937a2.53,2.53,0,0,1-1.012.793,3.364,3.364,0,0,1-1.426.3,3.6,3.6,0,0,1-2.578-1.082,3.71,3.71,0,0,1-.793-1.262,4.664,4.664,0,0,1,0-3.254,3.561,3.561,0,0,1,.8-1.246,3.667,3.667,0,0,1,1.172-.781,3.617,3.617,0,0,1,1.418-.281,3.266,3.266,0,0,1,1.488.332,2.374,2.374,0,0,1,1,.887Zm-3.449,5.313a2.061,2.061,0,0,0,2.949-.008,2.245,2.245,0,0,0,0-3.055,2.08,2.08,0,0,0-2.961-.012,2.137,2.137,0,0,0-.59,1.543A2.115,2.115,0,0,0,22.426,33.281Zm11.668,2.875a5.05,5.05,0,0,1-2.273-.492,3.679,3.679,0,0,1-1.559-1.445,4.307,4.307,0,0,1-.566-2.242,3.928,3.928,0,0,1,1.219-3.047,4.521,4.521,0,0,1,3.18-1.117,4.532,4.532,0,0,1,3.188,1.117A3.928,3.928,0,0,1,38.5,31.977a3.951,3.951,0,0,1-1.219,3.059A4.523,4.523,0,0,1,34.094,36.156Zm-.023-1.789a2.061,2.061,0,0,0,1.59-.656,2.787,2.787,0,0,0,0-3.469,2.061,2.061,0,0,0-1.59-.656,1.986,1.986,0,0,0-1.543.66,2.8,2.8,0,0,0,0,3.461A1.986,1.986,0,0,0,34.07,34.367ZM43.8,36.148a4.291,4.291,0,0,1-3.1-1.156,4.386,4.386,0,0,1,0-6.031,4.768,4.768,0,0,1,5.707-.375,3.453,3.453,0,0,1,1.344,2.18l-2.078.227A1.78,1.78,0,0,0,45,29.938a2.043,2.043,0,0,0-1.219-.352,1.842,1.842,0,0,0-1.469.656,2.949,2.949,0,0,0,0,3.465,1.837,1.837,0,0,0,1.469.66A2.025,2.025,0,0,0,45,34.016a1.822,1.822,0,0,0,.676-1.055l2.078.227a3.463,3.463,0,0,1-1.355,2.18A4.262,4.262,0,0,1,43.8,36.148Zm6.7-9.383a1.263,1.263,0,0,1-.922-.379,1.244,1.244,0,0,1-.383-.918,1.229,1.229,0,0,1,.387-.91,1.267,1.267,0,0,1,.918-.379,1.293,1.293,0,0,1,0,2.586ZM49.352,36V27.969h2.266V36Zm11.18-2.18a7.513,7.513,0,0,0,.2,1.961V36h-2.1l-.18-.875a2.611,2.611,0,0,1-1.125.773,4.146,4.146,0,0,1-1.453.258,3.821,3.821,0,0,1-.75-.07,2.55,2.55,0,0,1-.676-.238,2.051,2.051,0,0,1-.559-.418,1.833,1.833,0,0,1-.375-.637,2.536,2.536,0,0,1-.141-.871,2.416,2.416,0,0,1,.148-.871,2.042,2.042,0,0,1,.391-.652,2.369,2.369,0,0,1,.633-.477,4.842,4.842,0,0,1,.8-.344,9.522,9.522,0,0,1,.953-.25l1.32-.3a1.456,1.456,0,0,0,.6-.254.506.506,0,0,0,.176-.4.829.829,0,0,0-.395-.773,1.842,1.842,0,0,0-.957-.234,1.377,1.377,0,0,0-1.57,1.227l-1.992-.359A2.7,2.7,0,0,1,54.633,28.4a4.627,4.627,0,0,1,2.523-.59q3.375,0,3.375,2.9Zm-3.961.813a1.81,1.81,0,0,0,1.391-.582,2.453,2.453,0,0,0,.539-1.723l-1.906.539a2.253,2.253,0,0,0-.8.328.674.674,0,0,0-.277.578.748.748,0,0,0,.3.637A1.229,1.229,0,0,0,56.57,34.633Zm9.6,1.516a4.291,4.291,0,0,1-3.1-1.156,4.386,4.386,0,0,1,0-6.031,4.768,4.768,0,0,1,5.707-.375,3.453,3.453,0,0,1,1.344,2.18l-2.078.227a1.78,1.78,0,0,0-.672-1.055,2.043,2.043,0,0,0-1.219-.352,1.842,1.842,0,0,0-1.469.656,2.949,2.949,0,0,0,0,3.465,1.837,1.837,0,0,0,1.469.66,2.025,2.025,0,0,0,1.215-.352,1.822,1.822,0,0,0,.676-1.055l2.078.227a3.463,3.463,0,0,1-1.355,2.18A4.262,4.262,0,0,1,66.172,36.148Zm6.7-9.383a1.263,1.263,0,0,1-.922-.379,1.244,1.244,0,0,1-.383-.918,1.229,1.229,0,0,1,.387-.91,1.267,1.267,0,0,1,.918-.379,1.293,1.293,0,0,1,0,2.586ZM71.719,36V27.969h2.266V36Zm7.641-9.125L81.406,24l1.109.781-1.773,2.094Zm.7,9.281a5.05,5.05,0,0,1-2.273-.492,3.679,3.679,0,0,1-1.559-1.445,4.307,4.307,0,0,1-.566-2.242,3.928,3.928,0,0,1,1.219-3.047,5.095,5.095,0,0,1,6.367,0,3.928,3.928,0,0,1,1.219,3.047,3.951,3.951,0,0,1-1.219,3.059A4.523,4.523,0,0,1,80.055,36.156Zm-.023-1.789a2.061,2.061,0,0,0,1.59-.656,2.787,2.787,0,0,0,0-3.469,2.061,2.061,0,0,0-1.59-.656,1.986,1.986,0,0,0-1.543.66,2.8,2.8,0,0,0,0,3.461A1.986,1.986,0,0,0,80.031,34.367Zm10.844-6.555a3.131,3.131,0,0,1,2.219.723,2.68,2.68,0,0,1,.773,2.059V36H91.609V31.078a1.4,1.4,0,0,0-.4-1.109,1.516,1.516,0,0,0-1.035-.352,2.115,2.115,0,0,0-.672.1,1.726,1.726,0,0,0-.562.316,1.4,1.4,0,0,0-.4.605,2.8,2.8,0,0,0-.152.93V36h-2.25V27.969h2.25v.891A3.1,3.1,0,0,1,90.875,27.813ZM105.9,24h2.25V36h-2.133l-.055-1.047a2.294,2.294,0,0,1-1.02.91,3.432,3.432,0,0,1-1.5.324,3.906,3.906,0,0,1-1.5-.289,3.613,3.613,0,0,1-2.062-2.141A4.885,4.885,0,0,1,99.57,32a4.566,4.566,0,0,1,.531-2.238,3.64,3.64,0,0,1,1.4-1.457,3.862,3.862,0,0,1,1.934-.492,3.518,3.518,0,0,1,1.457.293,2.275,2.275,0,0,1,1,.832Zm-1.945,10.32a2,2,0,0,0,1.52-.641,2.632,2.632,0,0,0,0-3.363,2,2,0,0,0-1.516-.645,2.024,2.024,0,0,0-1.527.633,2.665,2.665,0,0,0,0,3.383A2.024,2.024,0,0,0,103.953,34.32Zm14.078-2.453-.023.539h-5.953a2.079,2.079,0,0,0,.641,1.469,2.049,2.049,0,0,0,1.414.508,1.974,1.974,0,0,0,1.059-.277,1.7,1.7,0,0,0,.676-.809l2.063.3a3.506,3.506,0,0,1-1.406,1.883,4.181,4.181,0,0,1-2.375.672A4.348,4.348,0,0,1,111,35.051a4.034,4.034,0,0,1-1.16-3.066A4.058,4.058,0,0,1,111,28.918a4.219,4.219,0,0,1,3.055-1.121,3.676,3.676,0,0,1,3.977,4.07Zm-3.961-2.477a1.778,1.778,0,0,0-1.953,1.547H115.8a1.691,1.691,0,0,0-.555-1.148A1.758,1.758,0,0,0,114.07,29.391Zm14.547-1.578a3.886,3.886,0,0,1,1.492.289,3.613,3.613,0,0,1,2.063,2.141,5.223,5.223,0,0,1,0,3.516,3.613,3.613,0,0,1-2.062,2.141,3.886,3.886,0,0,1-1.492.289,3.469,3.469,0,0,1-1.52-.324,2.246,2.246,0,0,1-1.012-.91L126.031,36H123.9V24h2.25v4.945a2.242,2.242,0,0,1,1-.836A3.531,3.531,0,0,1,128.617,27.813Zm-.523,6.508a2.024,2.024,0,0,0,1.527-.633,2.665,2.665,0,0,0,0-3.383,2.024,2.024,0,0,0-1.527-.633,2,2,0,0,0-1.516.645,2.632,2.632,0,0,0,0,3.363A2,2,0,0,0,128.094,34.32Zm7.227-7.555a1.263,1.263,0,0,1-.922-.379,1.244,1.244,0,0,1-.383-.918,1.229,1.229,0,0,1,.387-.91,1.267,1.267,0,0,1,.918-.379,1.293,1.293,0,0,1,0,2.586ZM134.172,36V27.969h2.266V36Zm12.148-4.133-.023.539h-5.953a2.079,2.079,0,0,0,.641,1.469,2.049,2.049,0,0,0,1.414.508,1.974,1.974,0,0,0,1.059-.277,1.7,1.7,0,0,0,.676-.809l2.063.3a3.506,3.506,0,0,1-1.406,1.883,4.181,4.181,0,0,1-2.375.672,4.348,4.348,0,0,1-3.129-1.105,4.034,4.034,0,0,1-1.16-3.066,4.058,4.058,0,0,1,1.164-3.066,4.219,4.219,0,0,1,3.055-1.121,3.676,3.676,0,0,1,3.977,4.07Zm-3.961-2.477a1.778,1.778,0,0,0-1.953,1.547h3.688a1.691,1.691,0,0,0-.555-1.148A1.758,1.758,0,0,0,142.359,29.391Zm10.414-1.578a3.131,3.131,0,0,1,2.219.723,2.68,2.68,0,0,1,.773,2.059V36h-2.258V31.078a1.4,1.4,0,0,0-.4-1.109,1.516,1.516,0,0,0-1.035-.352,2.115,2.115,0,0,0-.672.1,1.726,1.726,0,0,0-.562.316,1.4,1.4,0,0,0-.4.605,2.8,2.8,0,0,0-.152.93V36h-2.25V27.969h2.25v.891A3.1,3.1,0,0,1,152.773,27.813ZM165.5,31.867l-.023.539h-5.953a2.079,2.079,0,0,0,.641,1.469,2.049,2.049,0,0,0,1.414.508,1.974,1.974,0,0,0,1.059-.277,1.7,1.7,0,0,0,.676-.809l2.063.3a3.506,3.506,0,0,1-1.406,1.883,4.181,4.181,0,0,1-2.375.672,4.348,4.348,0,0,1-3.129-1.105,4.034,4.034,0,0,1-1.16-3.066,4.058,4.058,0,0,1,1.164-3.066,4.219,4.219,0,0,1,3.055-1.121,3.676,3.676,0,0,1,3.977,4.07Zm-3.961-2.477a1.778,1.778,0,0,0-1.953,1.547h3.688a1.691,1.691,0,0,0-.555-1.148A1.758,1.758,0,0,0,161.539,29.391Zm8.5,6.766a4.488,4.488,0,0,1-2.344-.562,2.378,2.378,0,0,1-1.148-1.672l1.883-.531a1.513,1.513,0,0,0,1.609,1.2,1.662,1.662,0,0,0,.82-.184.639.639,0,0,0,.32-.621.657.657,0,0,0-.133-.414,1.052,1.052,0,0,0-.41-.3,5.11,5.11,0,0,0-.547-.211q-.27-.086-.715-.207t-.742-.23a4.972,4.972,0,0,1-.707-.3,3.016,3.016,0,0,1-.586-.414,1.669,1.669,0,0,1-.437-.629,2.269,2.269,0,0,1-.152-.859,2.052,2.052,0,0,1,.871-1.8,3.892,3.892,0,0,1,2.277-.609,3.99,3.99,0,0,1,2.1.516,2.334,2.334,0,0,1,1.078,1.609l-1.742.391a1.365,1.365,0,0,0-1.43-1.016,1.566,1.566,0,0,0-.789.18.577.577,0,0,0-.312.531.609.609,0,0,0,.047.242.479.479,0,0,0,.164.2,2.392,2.392,0,0,0,.227.148,1.71,1.71,0,0,0,.32.129q.211.066.352.1l.41.105.418.109q.43.117.754.234a4.416,4.416,0,0,1,.691.328,2.482,2.482,0,0,1,.605.473,2.108,2.108,0,0,1,.395.664,2.453,2.453,0,0,1,.156.895,2.416,2.416,0,0,1-.27,1.164,2.023,2.023,0,0,1-.738.785,3.593,3.593,0,0,1-1.043.422A5.41,5.41,0,0,1,170.039,36.156ZM6.422,47.969h2.3L3.773,59.781H1.492l1.836-4.109-3.3-7.7H2.477L4.391,53.25ZM8.555,59.18,16.344,44h2.117L10.68,59.18Zm13.3-3.023a5.05,5.05,0,0,1-2.273-.492,3.679,3.679,0,0,1-1.559-1.445,4.307,4.307,0,0,1-.566-2.242,3.929,3.929,0,0,1,1.219-3.047,4.521,4.521,0,0,1,3.18-1.117,4.532,4.532,0,0,1,3.188,1.117,4.433,4.433,0,0,1,0,6.105A4.523,4.523,0,0,1,21.852,56.156Zm-.023-1.789a2.061,2.061,0,0,0,1.59-.656,2.787,2.787,0,0,0,0-3.469,2.061,2.061,0,0,0-1.59-.656,1.986,1.986,0,0,0-1.543.66,2.8,2.8,0,0,0,0,3.461A1.986,1.986,0,0,0,21.828,54.367Zm13.086,1.789a4.488,4.488,0,0,1-2.344-.562,2.378,2.378,0,0,1-1.148-1.672l1.883-.531a1.513,1.513,0,0,0,1.609,1.2,1.662,1.662,0,0,0,.82-.184.639.639,0,0,0,.32-.621.657.657,0,0,0-.133-.414,1.052,1.052,0,0,0-.41-.3,5.11,5.11,0,0,0-.547-.211q-.27-.086-.715-.207t-.742-.23a4.972,4.972,0,0,1-.707-.3,3.016,3.016,0,0,1-.586-.414,1.669,1.669,0,0,1-.437-.629,2.269,2.269,0,0,1-.152-.859,2.052,2.052,0,0,1,.871-1.8,3.892,3.892,0,0,1,2.277-.609,3.99,3.99,0,0,1,2.1.516,2.334,2.334,0,0,1,1.078,1.609l-1.742.391a1.365,1.365,0,0,0-1.43-1.016,1.566,1.566,0,0,0-.789.18.577.577,0,0,0-.312.531.609.609,0,0,0,.047.242.479.479,0,0,0,.164.2,2.393,2.393,0,0,0,.227.148,1.709,1.709,0,0,0,.32.129q.211.066.352.1l.41.105.418.109q.43.117.754.234a4.416,4.416,0,0,1,.691.328,2.481,2.481,0,0,1,.605.473,2.108,2.108,0,0,1,.395.664,2.453,2.453,0,0,1,.156.895,2.416,2.416,0,0,1-.27,1.164,2.023,2.023,0,0,1-.738.785,3.593,3.593,0,0,1-1.043.422A5.41,5.41,0,0,1,34.914,56.156Zm12.477-4.289-.023.539H41.414a2.079,2.079,0,0,0,.641,1.469,2.049,2.049,0,0,0,1.414.508,1.974,1.974,0,0,0,1.059-.277A1.7,1.7,0,0,0,45.2,53.3l2.063.3a3.506,3.506,0,0,1-1.406,1.883,4.181,4.181,0,0,1-2.375.672,4.348,4.348,0,0,1-3.129-1.105,4.627,4.627,0,0,1,0-6.133A4.219,4.219,0,0,1,43.414,47.8a3.676,3.676,0,0,1,3.977,4.07ZM43.43,49.391a1.778,1.778,0,0,0-1.953,1.547h3.688a1.691,1.691,0,0,0-.555-1.148A1.758,1.758,0,0,0,43.43,49.391Zm7.828-.148a2.607,2.607,0,0,1,1.055-.965,3.218,3.218,0,0,1,1.57-.4v2.008a3.042,3.042,0,0,0-1.922.484,2.115,2.115,0,0,0-.594,1.719V56H49.1V47.969h2.156Zm9.383-1.273h2.383L59.6,56H57.648l-3.383-8.031h2.367l2,5.492Zm4.711-1.2a1.263,1.263,0,0,1-.922-.379,1.244,1.244,0,0,1-.383-.918,1.229,1.229,0,0,1,.387-.91,1.267,1.267,0,0,1,.918-.379,1.293,1.293,0,0,1,0,2.586ZM64.2,56V47.969h2.266V56Zm8.227.148a4.291,4.291,0,0,1-3.1-1.156,4.386,4.386,0,0,1,0-6.031,4.768,4.768,0,0,1,5.707-.375,3.453,3.453,0,0,1,1.344,2.18l-2.078.227a1.78,1.78,0,0,0-.672-1.055,2.043,2.043,0,0,0-1.219-.352,1.842,1.842,0,0,0-1.469.656,2.949,2.949,0,0,0,0,3.465,1.837,1.837,0,0,0,1.469.66,2.025,2.025,0,0,0,1.215-.352,1.822,1.822,0,0,0,.676-1.055l2.078.227a3.463,3.463,0,0,1-1.355,2.18A4.262,4.262,0,0,1,72.43,56.148Zm6.7-9.383a1.263,1.263,0,0,1-.922-.379,1.244,1.244,0,0,1-.383-.918,1.229,1.229,0,0,1,.387-.91,1.267,1.267,0,0,1,.918-.379,1.293,1.293,0,0,1,0,2.586ZM77.977,56V47.969h2.266V56Zm8.336.156a5.05,5.05,0,0,1-2.273-.492,3.679,3.679,0,0,1-1.559-1.445,4.307,4.307,0,0,1-.566-2.242,3.929,3.929,0,0,1,1.219-3.047,5.095,5.095,0,0,1,6.367,0,4.433,4.433,0,0,1,0,6.105A4.523,4.523,0,0,1,86.313,56.156Zm-.023-1.789a2.061,2.061,0,0,0,1.59-.656,2.787,2.787,0,0,0,0-3.469,2.061,2.061,0,0,0-1.59-.656,1.986,1.986,0,0,0-1.543.66,2.8,2.8,0,0,0,0,3.461A1.986,1.986,0,0,0,86.289,54.367Zm8.93,1.789a4.488,4.488,0,0,1-2.344-.562,2.378,2.378,0,0,1-1.148-1.672l1.883-.531a1.513,1.513,0,0,0,1.609,1.2,1.662,1.662,0,0,0,.82-.184.639.639,0,0,0,.32-.621.657.657,0,0,0-.133-.414,1.052,1.052,0,0,0-.41-.3,5.111,5.111,0,0,0-.547-.211q-.27-.086-.715-.207t-.742-.23a4.972,4.972,0,0,1-.707-.3,3.016,3.016,0,0,1-.586-.414,1.669,1.669,0,0,1-.437-.629,2.269,2.269,0,0,1-.152-.859,2.052,2.052,0,0,1,.871-1.8,3.892,3.892,0,0,1,2.277-.609,3.99,3.99,0,0,1,2.1.516,2.334,2.334,0,0,1,1.078,1.609l-1.742.391a1.365,1.365,0,0,0-1.43-1.016,1.566,1.566,0,0,0-.789.18.577.577,0,0,0-.312.531.609.609,0,0,0,.047.242.479.479,0,0,0,.164.2,2.393,2.393,0,0,0,.227.148,1.709,1.709,0,0,0,.32.129q.211.066.352.1l.41.105.418.109q.43.117.754.234a4.415,4.415,0,0,1,.691.328,2.481,2.481,0,0,1,.605.473,2.108,2.108,0,0,1,.395.664,2.453,2.453,0,0,1,.156.895,2.416,2.416,0,0,1-.27,1.164,2.023,2.023,0,0,1-.738.785,3.593,3.593,0,0,1-1.043.422A5.41,5.41,0,0,1,95.219,56.156Zm6.328,0a1.294,1.294,0,0,1-1.281-1.281,1.254,1.254,0,0,1,.379-.914,1.226,1.226,0,0,1,.9-.383,1.307,1.307,0,0,1,1.3,1.3,1.226,1.226,0,0,1-.383.9A1.254,1.254,0,0,1,101.547,56.156Z" transform="translate(4408.922 2850.395)" fill="#002b45"/>
    <path id="Trazado_26976" data-name="Trazado 26976" d="M1.727,16V5H5.273a5.26,5.26,0,0,1,2.8.711A4.337,4.337,0,0,1,9.793,7.645a6.793,6.793,0,0,1,.559,2.848,7.2,7.2,0,0,1-.324,2.223,5.035,5.035,0,0,1-.949,1.738,4.164,4.164,0,0,1-1.6,1.141A5.681,5.681,0,0,1,5.273,16Zm1.4-1.273h2.1A3.35,3.35,0,0,0,7.973,13.6,4.756,4.756,0,0,0,8.9,10.492,4.716,4.716,0,0,0,7.969,7.4,3.352,3.352,0,0,0,5.227,6.273h-2.1Zm16.313-2.719-.016.367h-6a2.714,2.714,0,0,0,.734,1.965,2.411,2.411,0,0,0,1.75.684,2.3,2.3,0,0,0,1.273-.367,2.383,2.383,0,0,0,.875-1.016l1.219.258a3.464,3.464,0,0,1-1.312,1.648,3.581,3.581,0,0,1-2.039.6,3.71,3.71,0,0,1-2.766-1.07A3.982,3.982,0,0,1,12.1,12.156,3.962,3.962,0,0,1,13.16,9.242a3.664,3.664,0,0,1,2.723-1.07,3.467,3.467,0,0,1,2.582.984A3.889,3.889,0,0,1,19.438,12.008Zm-3.555-2.8a2.4,2.4,0,0,0-1.6.543,2.488,2.488,0,0,0-.809,1.582h4.6a2.282,2.282,0,0,0-.672-1.582A2.17,2.17,0,0,0,15.883,9.211Zm8.1,6.938a3.641,3.641,0,0,1-2.07-.555,2.294,2.294,0,0,1-1.008-1.578l1.18-.336a1.645,1.645,0,0,0,.629,1.066,2.04,2.04,0,0,0,1.262.379,2.518,2.518,0,0,0,.738-.1,1.184,1.184,0,0,0,.566-.379,1.057,1.057,0,0,0,.164-1.016,1.357,1.357,0,0,0-.125-.254.774.774,0,0,0-.219-.211A2.885,2.885,0,0,0,24.836,13a2.726,2.726,0,0,0-.348-.145q-.23-.082-.371-.125t-.43-.125q-.289-.082-.445-.129a8.33,8.33,0,0,1-.8-.281,3.5,3.5,0,0,1-.648-.371,1.493,1.493,0,0,1-.5-.605,2.049,2.049,0,0,1-.168-.859A1.986,1.986,0,0,1,21.5,9.133a2.11,2.11,0,0,1,.973-.723,3.888,3.888,0,0,1,1.363-.223,3.337,3.337,0,0,1,1.871.5,2.134,2.134,0,0,1,.934,1.5l-1.109.281a1.471,1.471,0,0,0-.586-.973,1.865,1.865,0,0,0-1.1-.324,1.9,1.9,0,0,0-1.031.27.906.906,0,0,0-.43.824.82.82,0,0,0,.113.426,1.352,1.352,0,0,0,.23.3,1.417,1.417,0,0,0,.422.23q.3.121.453.164t.563.145q.078.023.117.031.453.117.738.207a4.538,4.538,0,0,1,.664.281,2.208,2.208,0,0,1,.6.418,1.936,1.936,0,0,1,.375.594,2.1,2.1,0,0,1,.156.828,2.237,2.237,0,0,1-.23,1.035,1.8,1.8,0,0,1-.629.707,3.042,3.042,0,0,1-.895.387A4.262,4.262,0,0,1,23.984,16.148Zm8.141-.008a3.7,3.7,0,0,1-2.75-1.1,3.929,3.929,0,0,1-1.086-2.883,3.937,3.937,0,0,1,1.082-2.883,4,4,0,0,1,4.977-.43,3.391,3.391,0,0,1,1.293,1.867l-1.266.2a2.337,2.337,0,0,0-.867-1.2A2.361,2.361,0,0,0,32.117,9.3a2.27,2.27,0,0,0-1.777.789,3.006,3.006,0,0,0-.7,2.07,2.991,2.991,0,0,0,.7,2.066,2.275,2.275,0,0,0,1.777.785,2.361,2.361,0,0,0,1.391-.422,2.337,2.337,0,0,0,.867-1.2l1.266.211a3.4,3.4,0,0,1-1.3,1.863A3.72,3.72,0,0,1,32.125,16.141Zm8.742.008a4.048,4.048,0,0,1-1.969-.477,3.47,3.47,0,0,1-1.387-1.395A4.283,4.283,0,0,1,37,12.156a3.912,3.912,0,0,1,1.09-2.895,4.089,4.089,0,0,1,5.559,0,3.92,3.92,0,0,1,1.086,2.895,3.923,3.923,0,0,1-1.09,2.9A3.762,3.762,0,0,1,40.867,16.148Zm-.008-1.125a2.359,2.359,0,0,0,1.816-.789,2.957,2.957,0,0,0,.723-2.078,2.945,2.945,0,0,0-.723-2.07A2.359,2.359,0,0,0,40.859,9.3a2.326,2.326,0,0,0-1.8.789,2.965,2.965,0,0,0-.715,2.07,2.976,2.976,0,0,0,.715,2.078A2.326,2.326,0,0,0,40.859,15.023Zm9.617-6.852a2.671,2.671,0,0,1,1.934.7,2.594,2.594,0,0,1,.723,1.961V16H51.781V11.133a1.816,1.816,0,0,0-.469-1.375,1.676,1.676,0,0,0-1.2-.445,1.858,1.858,0,0,0-1.367.527,2.14,2.14,0,0,0-.539,1.566V16H46.852V8.32H48.2V9.3A2.565,2.565,0,0,1,50.477,8.172Zm8.5,7.977a4.048,4.048,0,0,1-1.969-.477,3.47,3.47,0,0,1-1.387-1.395,4.283,4.283,0,0,1-.512-2.121A3.912,3.912,0,0,1,56.2,9.262a4.089,4.089,0,0,1,5.559,0,3.92,3.92,0,0,1,1.086,2.895,3.923,3.923,0,0,1-1.09,2.9A3.762,3.762,0,0,1,58.977,16.148Zm-.008-1.125a2.359,2.359,0,0,0,1.816-.789,2.957,2.957,0,0,0,.723-2.078,2.945,2.945,0,0,0-.723-2.07A2.359,2.359,0,0,0,58.969,9.3a2.326,2.326,0,0,0-1.8.789,2.965,2.965,0,0,0-.715,2.07,2.976,2.976,0,0,0,.715,2.078A2.326,2.326,0,0,0,58.969,15.023Zm9.18,1.117a3.7,3.7,0,0,1-2.75-1.1,3.929,3.929,0,0,1-1.086-2.883,3.937,3.937,0,0,1,1.082-2.883,4,4,0,0,1,4.977-.43,3.391,3.391,0,0,1,1.293,1.867l-1.266.2a2.337,2.337,0,0,0-.867-1.2A2.361,2.361,0,0,0,68.141,9.3a2.27,2.27,0,0,0-1.777.789,3.006,3.006,0,0,0-.7,2.07,2.991,2.991,0,0,0,.7,2.066,2.275,2.275,0,0,0,1.777.785,2.361,2.361,0,0,0,1.391-.422,2.337,2.337,0,0,0,.867-1.2l1.266.211a3.4,3.4,0,0,1-1.3,1.863A3.72,3.72,0,0,1,68.148,16.141Zm6.2-9.625A.92.92,0,0,1,73.43,5.6a.867.867,0,0,1,.27-.641.886.886,0,0,1,.645-.266.877.877,0,0,1,.637.266.867.867,0,0,1,.27.641.88.88,0,0,1-.27.645A.871.871,0,0,1,74.344,6.516ZM73.656,16V8.32h1.359V16ZM85.617,8.172a2.476,2.476,0,0,1,1.789.652,2.42,2.42,0,0,1,.68,1.832V16H86.734V11.008a1.735,1.735,0,0,0-.422-1.266,1.436,1.436,0,0,0-1.07-.43A1.517,1.517,0,0,0,84.07,9.8a2.083,2.083,0,0,0-.445,1.453V16H82.25V11.063a1.815,1.815,0,0,0-.426-1.309,1.448,1.448,0,0,0-1.09-.441,1.5,1.5,0,0,0-1.168.5,2.155,2.155,0,0,0-.449,1.488V16H77.766V8.32h1.352v.992A2.333,2.333,0,0,1,80,8.469a2.506,2.506,0,0,1,1.223-.3,2.609,2.609,0,0,1,1.313.324,2.018,2.018,0,0,1,.852.934A2.39,2.39,0,0,1,84.3,8.5,2.637,2.637,0,0,1,85.617,8.172Zm5.773-1.656a.92.92,0,0,1-.914-.914.867.867,0,0,1,.27-.641.886.886,0,0,1,.645-.266.877.877,0,0,1,.637.266.867.867,0,0,1,.27.641.88.88,0,0,1-.27.645A.871.871,0,0,1,91.391,6.516ZM90.7,16V8.32h1.359V16Zm10.828-3.992-.016.367h-6a2.714,2.714,0,0,0,.734,1.965,2.411,2.411,0,0,0,1.75.684,2.3,2.3,0,0,0,1.273-.367,2.383,2.383,0,0,0,.875-1.016l1.219.258a3.464,3.464,0,0,1-1.312,1.648,3.581,3.581,0,0,1-2.039.6,3.71,3.71,0,0,1-2.766-1.07A3.982,3.982,0,0,1,94.2,12.156a3.962,3.962,0,0,1,1.059-2.914,3.664,3.664,0,0,1,2.723-1.07,3.467,3.467,0,0,1,2.582.984A3.889,3.889,0,0,1,101.531,12.008Zm-3.555-2.8a2.4,2.4,0,0,0-1.6.543,2.488,2.488,0,0,0-.809,1.582h4.6A2.282,2.282,0,0,0,99.5,9.754,2.17,2.17,0,0,0,97.977,9.211Zm9.3-1.039a2.671,2.671,0,0,1,1.934.7,2.594,2.594,0,0,1,.723,1.961V16h-1.352V11.133a1.816,1.816,0,0,0-.469-1.375,1.676,1.676,0,0,0-1.2-.445,1.858,1.858,0,0,0-1.367.527A2.14,2.14,0,0,0,105,11.406V16h-1.352V8.32H105V9.3A2.565,2.565,0,0,1,107.273,8.172ZM114.992,16a2.019,2.019,0,0,1-1.5-.551,2.084,2.084,0,0,1-.547-1.535V9.4h-1.57V8.32h.578a1.11,1.11,0,0,0,.848-.27,1.326,1.326,0,0,0,.246-.9V5.758H114.3V8.32h1.766V9.4H114.3v4.375a1.164,1.164,0,0,0,.293.848,1.026,1.026,0,0,0,.77.3h.7V16Zm6.172.148a4.048,4.048,0,0,1-1.969-.477,3.47,3.47,0,0,1-1.387-1.395,4.283,4.283,0,0,1-.512-2.121,3.912,3.912,0,0,1,1.09-2.895,4.089,4.089,0,0,1,5.559,0,3.92,3.92,0,0,1,1.086,2.895,3.923,3.923,0,0,1-1.09,2.9A3.762,3.762,0,0,1,121.164,16.148Zm-.008-1.125a2.359,2.359,0,0,0,1.816-.789,2.957,2.957,0,0,0,.723-2.078,2.945,2.945,0,0,0-.723-2.07,2.359,2.359,0,0,0-1.816-.789,2.326,2.326,0,0,0-1.8.789,2.965,2.965,0,0,0-.715,2.07,2.976,2.976,0,0,0,.715,2.078A2.326,2.326,0,0,0,121.156,15.023ZM136.977,4h1.352V16h-1.3l-.031-1.492a2.826,2.826,0,0,1-1.094,1.211,3.048,3.048,0,0,1-1.625.445,3.49,3.49,0,0,1-2.535-1.082,3.7,3.7,0,0,1-.773-1.27,4.644,4.644,0,0,1-.285-1.648,4.038,4.038,0,0,1,1.043-2.883,3.367,3.367,0,0,1,2.551-1.109,3.061,3.061,0,0,1,1.605.434,2.842,2.842,0,0,1,1.1,1.176Zm-2.422,10.992a2.3,2.3,0,0,0,1.785-.809,2.919,2.919,0,0,0,.723-2.02,2.913,2.913,0,0,0-.727-2.016,2.3,2.3,0,0,0-1.781-.812,2.35,2.35,0,0,0-1.8.785,2.889,2.889,0,0,0-.727,2.043,2.889,2.889,0,0,0,.727,2.043A2.35,2.35,0,0,0,134.555,14.992ZM147.8,12.008l-.016.367h-6a2.714,2.714,0,0,0,.734,1.965,2.411,2.411,0,0,0,1.75.684,2.3,2.3,0,0,0,1.273-.367,2.383,2.383,0,0,0,.875-1.016l1.219.258a3.464,3.464,0,0,1-1.312,1.648,3.581,3.581,0,0,1-2.039.6,3.71,3.71,0,0,1-2.766-1.07,3.982,3.982,0,0,1-1.055-2.922,3.962,3.962,0,0,1,1.059-2.914,3.664,3.664,0,0,1,2.723-1.07,3.467,3.467,0,0,1,2.582.984A3.889,3.889,0,0,1,147.8,12.008Zm-3.555-2.8a2.4,2.4,0,0,0-1.6.543,2.488,2.488,0,0,0-.809,1.582h4.6a2.282,2.282,0,0,0-.672-1.582A2.17,2.17,0,0,0,144.242,9.211ZM154.07,16V4h1.367V16Zm5.891.148a2.613,2.613,0,0,1-1.684-.527,1.894,1.894,0,0,1-.66-1.574,2.237,2.237,0,0,1,.211-1,1.77,1.77,0,0,1,.625-.7,3.749,3.749,0,0,1,.9-.434,8.341,8.341,0,0,1,1.168-.277l1.242-.2q.68-.125.68-.711a1.342,1.342,0,0,0-.48-1.145,1.958,1.958,0,0,0-1.215-.363,1.994,1.994,0,0,0-1.2.352,1.471,1.471,0,0,0-.57,1.078l-1.219-.258a2.346,2.346,0,0,1,.961-1.645,3.59,3.59,0,0,1,2.094-.551,4.247,4.247,0,0,1,1.113.137,3.026,3.026,0,0,1,.93.43,1.927,1.927,0,0,1,.664.828,3.081,3.081,0,0,1,.238,1.262v3.172a1.3,1.3,0,0,0,.176.8.759.759,0,0,0,.605.207h.125V16h-.672a1.281,1.281,0,0,1-1.453-1.039h-.062A2.935,2.935,0,0,1,159.961,16.148Zm.313-1.094a2.049,2.049,0,0,0,1.648-.742,3.056,3.056,0,0,0,.625-2.031l-2.031.391a2.734,2.734,0,0,0-1.191.426.99.99,0,0,0-.387.84.979.979,0,0,0,.371.844A1.586,1.586,0,0,0,160.273,15.055ZM169,16.148a3.641,3.641,0,0,1-2.07-.555,2.294,2.294,0,0,1-1.008-1.578l1.18-.336a1.645,1.645,0,0,0,.629,1.066,2.04,2.04,0,0,0,1.262.379,2.518,2.518,0,0,0,.738-.1,1.183,1.183,0,0,0,.566-.379,1.057,1.057,0,0,0,.164-1.016,1.356,1.356,0,0,0-.125-.254.774.774,0,0,0-.219-.211,2.884,2.884,0,0,0-.266-.164,2.727,2.727,0,0,0-.348-.145q-.23-.082-.371-.125t-.43-.125q-.289-.082-.445-.129a8.329,8.329,0,0,1-.8-.281,3.5,3.5,0,0,1-.648-.371,1.493,1.493,0,0,1-.5-.605,2.048,2.048,0,0,1-.168-.859,1.986,1.986,0,0,1,.375-1.227,2.11,2.11,0,0,1,.973-.723,3.888,3.888,0,0,1,1.363-.223,3.337,3.337,0,0,1,1.871.5,2.134,2.134,0,0,1,.934,1.5l-1.109.281a1.471,1.471,0,0,0-.586-.973,1.866,1.866,0,0,0-1.1-.324,1.9,1.9,0,0,0-1.031.27.906.906,0,0,0-.43.824.82.82,0,0,0,.113.426,1.352,1.352,0,0,0,.23.3,1.417,1.417,0,0,0,.422.23q.3.121.453.164t.563.145q.078.023.117.031.453.117.738.207a4.538,4.538,0,0,1,.664.281,2.208,2.208,0,0,1,.6.418,1.937,1.937,0,0,1,.375.594,2.1,2.1,0,0,1,.156.828,2.237,2.237,0,0,1-.23,1.035,1.8,1.8,0,0,1-.629.707,3.042,3.042,0,0,1-.895.387A4.262,4.262,0,0,1,169,16.148ZM4.9,25.133H4.605q-.09,0-.281.016a1.8,1.8,0,0,0-.281.039q-.09.023-.242.078a.618.618,0,0,0-.23.133q-.078.078-.18.2a.816.816,0,0,0-.152.281,2.689,2.689,0,0,0-.086.375,2.991,2.991,0,0,0-.035.48V28.32H4.9V29.4H3.117V36H1.773V29.4H.289V28.32H1.773V26.711a4.417,4.417,0,0,1,.082-.895,2.9,2.9,0,0,1,.219-.676,1.606,1.606,0,0,1,.363-.488,2.137,2.137,0,0,1,.473-.332,2.346,2.346,0,0,1,.582-.2,5.463,5.463,0,0,1,.66-.1Q4.477,24,4.9,24Zm6.344,3.188h1.352V36H11.3l-.031-1.016a2.4,2.4,0,0,1-.953.863,2.932,2.932,0,0,1-1.344.3,2.671,2.671,0,0,1-1.934-.7,2.594,2.594,0,0,1-.723-1.961V28.32H7.664v4.867a1.822,1.822,0,0,0,.473,1.375,1.673,1.673,0,0,0,1.207.453,1.837,1.837,0,0,0,1.363-.531,2.164,2.164,0,0,0,.535-1.57Zm10.82,3.688-.016.367h-6a2.714,2.714,0,0,0,.734,1.965,2.411,2.411,0,0,0,1.75.684,2.3,2.3,0,0,0,1.273-.367,2.383,2.383,0,0,0,.875-1.016L21.9,33.9a3.464,3.464,0,0,1-1.312,1.648,3.581,3.581,0,0,1-2.039.6,3.71,3.71,0,0,1-2.766-1.07,3.982,3.982,0,0,1-1.055-2.922,3.962,3.962,0,0,1,1.059-2.914,3.664,3.664,0,0,1,2.723-1.07,3.467,3.467,0,0,1,2.582.984A3.889,3.889,0,0,1,22.063,32.008Zm-3.555-2.8a2.4,2.4,0,0,0-1.6.543,2.488,2.488,0,0,0-.809,1.582h4.6a2.282,2.282,0,0,0-.672-1.582A2.17,2.17,0,0,0,18.508,29.211Zm9.3-1.039a2.671,2.671,0,0,1,1.934.7,2.594,2.594,0,0,1,.723,1.961V36H29.109V31.133a1.816,1.816,0,0,0-.469-1.375,1.676,1.676,0,0,0-1.2-.445,1.858,1.858,0,0,0-1.367.527,2.14,2.14,0,0,0-.539,1.566V36H24.18V28.32h1.352V29.3A2.565,2.565,0,0,1,27.8,28.172ZM35.523,36a2.019,2.019,0,0,1-1.5-.551,2.084,2.084,0,0,1-.547-1.535V29.4h-1.57V28.32h.578a1.11,1.11,0,0,0,.848-.27,1.326,1.326,0,0,0,.246-.9V25.758h1.258V28.32H36.6V29.4H34.836v4.375a1.164,1.164,0,0,0,.293.848,1.026,1.026,0,0,0,.77.3h.7V36Zm9.656-3.992-.016.367h-6A2.714,2.714,0,0,0,39.9,34.34a2.411,2.411,0,0,0,1.75.684,2.3,2.3,0,0,0,1.273-.367,2.383,2.383,0,0,0,.875-1.016l1.219.258A3.464,3.464,0,0,1,43.7,35.547a3.581,3.581,0,0,1-2.039.6,3.71,3.71,0,0,1-2.766-1.07,3.982,3.982,0,0,1-1.055-2.922A3.962,3.962,0,0,1,38.9,29.242a3.664,3.664,0,0,1,2.723-1.07,3.467,3.467,0,0,1,2.582.984A3.889,3.889,0,0,1,45.18,32.008Zm-3.555-2.8a2.4,2.4,0,0,0-1.6.543,2.488,2.488,0,0,0-.809,1.582h4.6a2.282,2.282,0,0,0-.672-1.582A2.17,2.17,0,0,0,41.625,29.211Zm8.1,6.938a3.641,3.641,0,0,1-2.07-.555,2.294,2.294,0,0,1-1.008-1.578l1.18-.336a1.645,1.645,0,0,0,.629,1.066,2.04,2.04,0,0,0,1.262.379,2.518,2.518,0,0,0,.738-.1,1.184,1.184,0,0,0,.566-.379,1.057,1.057,0,0,0,.164-1.016,1.356,1.356,0,0,0-.125-.254.774.774,0,0,0-.219-.211A2.885,2.885,0,0,0,50.578,33a2.726,2.726,0,0,0-.348-.145q-.23-.082-.371-.125t-.43-.125q-.289-.082-.445-.129a8.329,8.329,0,0,1-.8-.281,3.5,3.5,0,0,1-.648-.371,1.493,1.493,0,0,1-.5-.605,2.049,2.049,0,0,1-.168-.859,1.986,1.986,0,0,1,.375-1.227,2.11,2.11,0,0,1,.973-.723,3.888,3.888,0,0,1,1.363-.223,3.337,3.337,0,0,1,1.871.5,2.134,2.134,0,0,1,.934,1.5l-1.109.281a1.471,1.471,0,0,0-.586-.973,1.865,1.865,0,0,0-1.1-.324,1.9,1.9,0,0,0-1.031.27.906.906,0,0,0-.43.824.82.82,0,0,0,.113.426,1.352,1.352,0,0,0,.23.3,1.417,1.417,0,0,0,.422.23q.3.121.453.164t.563.145q.078.023.117.031.453.117.738.207a4.538,4.538,0,0,1,.664.281,2.208,2.208,0,0,1,.6.418,1.936,1.936,0,0,1,.375.594,2.1,2.1,0,0,1,.156.828,2.237,2.237,0,0,1-.23,1.035,1.8,1.8,0,0,1-.629.707,3.042,3.042,0,0,1-.895.387A4.262,4.262,0,0,1,49.727,36.148ZM64.508,24h1.352V36h-1.3l-.031-1.492a2.826,2.826,0,0,1-1.094,1.211,3.048,3.048,0,0,1-1.625.445,3.49,3.49,0,0,1-2.535-1.082,3.7,3.7,0,0,1-.773-1.27,4.644,4.644,0,0,1-.285-1.648,4.038,4.038,0,0,1,1.043-2.883A3.367,3.367,0,0,1,61.8,28.172a3.061,3.061,0,0,1,1.605.434,2.842,2.842,0,0,1,1.1,1.176ZM62.086,34.992a2.3,2.3,0,0,0,1.785-.809,3.171,3.171,0,0,0,0-4.035,2.3,2.3,0,0,0-1.781-.812,2.35,2.35,0,0,0-1.8.785,3.236,3.236,0,0,0,0,4.086A2.35,2.35,0,0,0,62.086,34.992Zm13.242-2.984-.016.367h-6a2.714,2.714,0,0,0,.734,1.965,2.411,2.411,0,0,0,1.75.684,2.3,2.3,0,0,0,1.273-.367,2.383,2.383,0,0,0,.875-1.016l1.219.258a3.464,3.464,0,0,1-1.312,1.648,3.581,3.581,0,0,1-2.039.6,3.71,3.71,0,0,1-2.766-1.07,3.982,3.982,0,0,1-1.055-2.922,3.962,3.962,0,0,1,1.059-2.914,3.664,3.664,0,0,1,2.723-1.07,3.467,3.467,0,0,1,2.582.984A3.889,3.889,0,0,1,75.328,32.008Zm-3.555-2.8a2.4,2.4,0,0,0-1.6.543,2.488,2.488,0,0,0-.809,1.582h4.6a2.282,2.282,0,0,0-.672-1.582A2.17,2.17,0,0,0,71.773,29.211Zm10.766-2.445a1.263,1.263,0,0,1-.922-.379,1.244,1.244,0,0,1-.383-.918,1.229,1.229,0,0,1,.387-.91,1.267,1.267,0,0,1,.918-.379,1.293,1.293,0,0,1,0,2.586ZM81.391,36V27.969h2.266V36Zm9.336-8.187a3.131,3.131,0,0,1,2.219.723,2.68,2.68,0,0,1,.773,2.059V36H91.461V31.078a1.4,1.4,0,0,0-.4-1.109,1.516,1.516,0,0,0-1.035-.352,2.115,2.115,0,0,0-.672.1,1.726,1.726,0,0,0-.562.316,1.4,1.4,0,0,0-.4.605,2.8,2.8,0,0,0-.152.93V36h-2.25V27.969h2.25v.891A3.1,3.1,0,0,1,90.727,27.813Zm9.7-2.016h-.047q-.219,0-.332,0t-.32.027a1.3,1.3,0,0,0-.324.07,1.652,1.652,0,0,0-.27.145.719.719,0,0,0-.234.234,1.416,1.416,0,0,0-.141.348,1.815,1.815,0,0,0-.059.484v.859h1.727V29.7H98.7V36H96.461V29.7h-1.57V27.969h1.57V27.1a4.7,4.7,0,0,1,.1-1.023,3.115,3.115,0,0,1,.273-.777,1.82,1.82,0,0,1,.457-.559,2.7,2.7,0,0,1,.594-.375,3.393,3.393,0,0,1,.738-.227,6.476,6.476,0,0,1,.848-.113q.418-.027.957-.027Zm4.984,10.359a5.05,5.05,0,0,1-2.273-.492,3.679,3.679,0,0,1-1.559-1.445,4.307,4.307,0,0,1-.566-2.242,3.928,3.928,0,0,1,1.219-3.047,5.095,5.095,0,0,1,6.367,0,3.928,3.928,0,0,1,1.219,3.047,3.951,3.951,0,0,1-1.219,3.059A4.523,4.523,0,0,1,105.414,36.156Zm-.023-1.789a2.061,2.061,0,0,0,1.59-.656,2.787,2.787,0,0,0,0-3.469,2.061,2.061,0,0,0-1.59-.656,1.986,1.986,0,0,0-1.543.66,2.8,2.8,0,0,0,0,3.461A1.986,1.986,0,0,0,105.391,34.367Zm8.258-5.125a2.607,2.607,0,0,1,1.055-.965,3.218,3.218,0,0,1,1.57-.4v2.008a3.043,3.043,0,0,0-1.922.484,2.115,2.115,0,0,0-.594,1.719V36h-2.266V27.969h2.156Zm13.461-1.43a3.068,3.068,0,0,1,2.07.652,2.334,2.334,0,0,1,.758,1.871V36h-2.25V30.977a1.341,1.341,0,0,0-.359-1.016,1.259,1.259,0,0,0-.906-.344,1.452,1.452,0,0,0-1.094.438,1.987,1.987,0,0,0-.422,1.414V36h-2.273V31a1.377,1.377,0,0,0-.359-1.035,1.281,1.281,0,0,0-.93-.348,1.405,1.405,0,0,0-1.086.461,2.2,2.2,0,0,0-.422,1.508V36h-2.242V27.969h2.242v.945a2.731,2.731,0,0,1,2.328-1.1,3.434,3.434,0,0,1,1.512.309,2.058,2.058,0,0,1,.949.895A2.84,2.84,0,0,1,127.109,27.813Zm11.6,6.008a7.514,7.514,0,0,0,.2,1.961V36h-2.1l-.18-.875a2.611,2.611,0,0,1-1.125.773,4.146,4.146,0,0,1-1.453.258,3.821,3.821,0,0,1-.75-.07,2.55,2.55,0,0,1-.676-.238,2.051,2.051,0,0,1-.559-.418,1.833,1.833,0,0,1-.375-.637,2.536,2.536,0,0,1-.141-.871,2.416,2.416,0,0,1,.148-.871,2.042,2.042,0,0,1,.391-.652,2.369,2.369,0,0,1,.633-.477,4.842,4.842,0,0,1,.8-.344,9.522,9.522,0,0,1,.953-.25l1.32-.3a1.456,1.456,0,0,0,.6-.254.506.506,0,0,0,.176-.4.829.829,0,0,0-.395-.773,1.842,1.842,0,0,0-.957-.234,1.377,1.377,0,0,0-1.57,1.227l-1.992-.359a2.7,2.7,0,0,1,1.164-1.832,4.627,4.627,0,0,1,2.523-.59q3.375,0,3.375,2.9Zm-3.961.813a1.81,1.81,0,0,0,1.391-.582,2.453,2.453,0,0,0,.539-1.723l-1.906.539a2.253,2.253,0,0,0-.8.328.674.674,0,0,0-.277.578.748.748,0,0,0,.3.637A1.229,1.229,0,0,0,134.75,34.633Zm9.6,1.516a4.291,4.291,0,0,1-3.1-1.156,4.386,4.386,0,0,1,0-6.031,4.768,4.768,0,0,1,5.707-.375,3.453,3.453,0,0,1,1.344,2.18l-2.078.227a1.78,1.78,0,0,0-.672-1.055,2.043,2.043,0,0,0-1.219-.352,1.842,1.842,0,0,0-1.469.656,2.949,2.949,0,0,0,0,3.465,1.837,1.837,0,0,0,1.469.66,2.025,2.025,0,0,0,1.215-.352,1.822,1.822,0,0,0,.676-1.055l2.078.227a3.463,3.463,0,0,1-1.355,2.18A4.262,4.262,0,0,1,144.352,36.148Zm6.7-9.383a1.263,1.263,0,0,1-.922-.379,1.244,1.244,0,0,1-.383-.918,1.229,1.229,0,0,1,.387-.91,1.267,1.267,0,0,1,.918-.379,1.293,1.293,0,0,1,0,2.586ZM149.9,36V27.969h2.266V36Zm7.641-9.125L159.586,24l1.109.781-1.773,2.094Zm.7,9.281a5.05,5.05,0,0,1-2.273-.492,3.679,3.679,0,0,1-1.559-1.445,4.307,4.307,0,0,1-.566-2.242,3.928,3.928,0,0,1,1.219-3.047,5.095,5.095,0,0,1,6.367,0,3.928,3.928,0,0,1,1.219,3.047,3.951,3.951,0,0,1-1.219,3.059A4.523,4.523,0,0,1,158.234,36.156Zm-.023-1.789a2.061,2.061,0,0,0,1.59-.656,2.787,2.787,0,0,0,0-3.469,2.061,2.061,0,0,0-1.59-.656,1.986,1.986,0,0,0-1.543.66,2.8,2.8,0,0,0,0,3.461A1.986,1.986,0,0,0,158.211,34.367Zm10.844-6.555a3.131,3.131,0,0,1,2.219.723,2.68,2.68,0,0,1,.773,2.059V36h-2.258V31.078a1.4,1.4,0,0,0-.4-1.109,1.516,1.516,0,0,0-1.035-.352,2.115,2.115,0,0,0-.672.1,1.726,1.726,0,0,0-.562.316,1.4,1.4,0,0,0-.4.605,2.8,2.8,0,0,0-.152.93V36h-2.25V27.969h2.25v.891A3.1,3.1,0,0,1,169.055,27.813ZM6.859,44h2.25V56H6.977l-.055-1.047a2.294,2.294,0,0,1-1.02.91,3.432,3.432,0,0,1-1.5.324A3.906,3.906,0,0,1,2.9,55.9,3.613,3.613,0,0,1,.836,53.758,4.885,4.885,0,0,1,.531,52a4.566,4.566,0,0,1,.531-2.238,3.64,3.64,0,0,1,1.4-1.457A3.862,3.862,0,0,1,4.4,47.813a3.518,3.518,0,0,1,1.457.293,2.275,2.275,0,0,1,1,.832ZM4.914,54.32a2,2,0,0,0,1.52-.641,2.632,2.632,0,0,0,0-3.363,2,2,0,0,0-1.516-.645,2.024,2.024,0,0,0-1.527.633,2.665,2.665,0,0,0,0,3.383A2.024,2.024,0,0,0,4.914,54.32Zm14.078-2.453-.023.539H13.016a2.079,2.079,0,0,0,.641,1.469,2.049,2.049,0,0,0,1.414.508,1.974,1.974,0,0,0,1.059-.277A1.7,1.7,0,0,0,16.8,53.3l2.063.3a3.506,3.506,0,0,1-1.406,1.883,4.181,4.181,0,0,1-2.375.672,4.348,4.348,0,0,1-3.129-1.105,4.627,4.627,0,0,1,0-6.133A4.219,4.219,0,0,1,15.016,47.8,4.032,4.032,0,0,1,17.9,48.82,4.015,4.015,0,0,1,18.992,51.867Zm-3.961-2.477a1.778,1.778,0,0,0-1.953,1.547h3.688a1.691,1.691,0,0,0-.555-1.148A1.758,1.758,0,0,0,15.031,49.391ZM29.57,47.813a3.906,3.906,0,0,1,1.5.289,3.754,3.754,0,0,1,1.23.813,3.676,3.676,0,0,1,.832,1.324,5.246,5.246,0,0,1,0,3.523,3.676,3.676,0,0,1-.832,1.324,3.754,3.754,0,0,1-1.23.813,3.906,3.906,0,0,1-1.5.289,3.485,3.485,0,0,1-1.453-.3,2.277,2.277,0,0,1-1.008-.844v4.859h-2.25V47.969h2.133l.063,1.078a2.2,2.2,0,0,1,1-.91A3.45,3.45,0,0,1,29.57,47.813Zm-.508,6.508a2.021,2.021,0,0,0,1.52-.629,2.665,2.665,0,0,0,0-3.383,2.15,2.15,0,0,0-3.051.012,2.62,2.62,0,0,0,0,3.359A2.025,2.025,0,0,0,29.063,54.32Zm8.227-5.078a2.607,2.607,0,0,1,1.055-.965,3.218,3.218,0,0,1,1.57-.4v2.008a3.042,3.042,0,0,0-1.922.484,2.115,2.115,0,0,0-.594,1.719V56H35.133V47.969h2.156Zm11.453,2.625-.023.539H42.766a2.079,2.079,0,0,0,.641,1.469,2.049,2.049,0,0,0,1.414.508,1.974,1.974,0,0,0,1.059-.277,1.7,1.7,0,0,0,.676-.809l2.063.3a3.506,3.506,0,0,1-1.406,1.883,4.181,4.181,0,0,1-2.375.672,4.348,4.348,0,0,1-3.129-1.105,4.627,4.627,0,0,1,0-6.133A4.219,4.219,0,0,1,44.766,47.8a3.676,3.676,0,0,1,3.977,4.07Zm-3.961-2.477a1.778,1.778,0,0,0-1.953,1.547h3.688a1.691,1.691,0,0,0-.555-1.148A1.758,1.758,0,0,0,44.781,49.391Zm9.3,6.758a4.291,4.291,0,0,1-3.1-1.156,4.386,4.386,0,0,1,0-6.031,4.768,4.768,0,0,1,5.707-.375,3.453,3.453,0,0,1,1.344,2.18l-2.078.227a1.78,1.78,0,0,0-.672-1.055,2.043,2.043,0,0,0-1.219-.352,1.842,1.842,0,0,0-1.469.656,2.949,2.949,0,0,0,0,3.465,1.837,1.837,0,0,0,1.469.66,2.025,2.025,0,0,0,1.215-.352,1.822,1.822,0,0,0,.676-1.055l2.078.227a3.463,3.463,0,0,1-1.355,2.18A4.262,4.262,0,0,1,54.086,56.148Zm6.7-9.383a1.263,1.263,0,0,1-.922-.379,1.244,1.244,0,0,1-.383-.918,1.229,1.229,0,0,1,.387-.91,1.267,1.267,0,0,1,.918-.379,1.293,1.293,0,0,1,0,2.586ZM59.633,56V47.969H61.9V56Zm8.336.156a5.05,5.05,0,0,1-2.273-.492,3.679,3.679,0,0,1-1.559-1.445,4.307,4.307,0,0,1-.566-2.242,3.929,3.929,0,0,1,1.219-3.047,5.095,5.095,0,0,1,6.367,0,4.433,4.433,0,0,1,0,6.105A4.523,4.523,0,0,1,67.969,56.156Zm-.023-1.789a2.061,2.061,0,0,0,1.59-.656,2.787,2.787,0,0,0,0-3.469,2.061,2.061,0,0,0-1.59-.656,1.986,1.986,0,0,0-1.543.66,2.8,2.8,0,0,0,0,3.461A1.986,1.986,0,0,0,67.945,54.367Zm8.93,1.789a4.488,4.488,0,0,1-2.344-.562,2.378,2.378,0,0,1-1.148-1.672l1.883-.531a1.513,1.513,0,0,0,1.609,1.2,1.662,1.662,0,0,0,.82-.184.639.639,0,0,0,.32-.621.657.657,0,0,0-.133-.414,1.052,1.052,0,0,0-.41-.3,5.111,5.111,0,0,0-.547-.211q-.27-.086-.715-.207t-.742-.23a4.972,4.972,0,0,1-.707-.3,3.016,3.016,0,0,1-.586-.414,1.669,1.669,0,0,1-.437-.629,2.269,2.269,0,0,1-.152-.859,2.052,2.052,0,0,1,.871-1.8,3.892,3.892,0,0,1,2.277-.609,3.99,3.99,0,0,1,2.1.516,2.334,2.334,0,0,1,1.078,1.609l-1.742.391a1.365,1.365,0,0,0-1.43-1.016,1.566,1.566,0,0,0-.789.18.577.577,0,0,0-.312.531.609.609,0,0,0,.047.242.479.479,0,0,0,.164.2,2.393,2.393,0,0,0,.227.148,1.709,1.709,0,0,0,.32.129q.211.066.352.1l.41.105.418.109q.43.117.754.234a4.415,4.415,0,0,1,.691.328,2.481,2.481,0,0,1,.605.473,2.108,2.108,0,0,1,.395.664,2.453,2.453,0,0,1,.156.895,2.416,2.416,0,0,1-.27,1.164,2.023,2.023,0,0,1-.738.785,3.593,3.593,0,0,1-1.043.422A5.41,5.41,0,0,1,76.875,56.156ZM91.648,44H93.9V56H91.766l-.055-1.047a2.294,2.294,0,0,1-1.02.91,3.432,3.432,0,0,1-1.5.324,3.906,3.906,0,0,1-1.5-.289,3.613,3.613,0,0,1-2.062-2.141A4.885,4.885,0,0,1,85.32,52a4.566,4.566,0,0,1,.531-2.238,3.64,3.64,0,0,1,1.4-1.457,3.862,3.862,0,0,1,1.934-.492,3.518,3.518,0,0,1,1.457.293,2.275,2.275,0,0,1,1,.832ZM89.7,54.32a2,2,0,0,0,1.52-.641,2.632,2.632,0,0,0,0-3.363,2,2,0,0,0-1.516-.645,2.024,2.024,0,0,0-1.527.633,2.665,2.665,0,0,0,0,3.383A2.024,2.024,0,0,0,89.7,54.32Zm14.078-2.453-.023.539H97.8a2.079,2.079,0,0,0,.641,1.469,2.049,2.049,0,0,0,1.414.508,1.974,1.974,0,0,0,1.059-.277,1.7,1.7,0,0,0,.676-.809l2.063.3a3.506,3.506,0,0,1-1.406,1.883,4.181,4.181,0,0,1-2.375.672,4.348,4.348,0,0,1-3.129-1.105,4.627,4.627,0,0,1,0-6.133A4.219,4.219,0,0,1,99.8,47.8a3.676,3.676,0,0,1,3.977,4.07ZM99.82,49.391a1.778,1.778,0,0,0-1.953,1.547h3.688A1.691,1.691,0,0,0,101,49.789,1.758,1.758,0,0,0,99.82,49.391Zm19.344-1.578a3.069,3.069,0,0,1,2.07.652,2.334,2.334,0,0,1,.758,1.871V56h-2.25V50.977a1.341,1.341,0,0,0-.359-1.016,1.259,1.259,0,0,0-.906-.344,1.452,1.452,0,0,0-1.094.438,1.987,1.987,0,0,0-.422,1.414V56h-2.273V51a1.377,1.377,0,0,0-.359-1.035,1.281,1.281,0,0,0-.93-.348,1.405,1.405,0,0,0-1.086.461,2.2,2.2,0,0,0-.422,1.508V56h-2.242V47.969h2.242v.945a2.731,2.731,0,0,1,2.328-1.1,3.434,3.434,0,0,1,1.512.309,2.058,2.058,0,0,1,.949.895A2.84,2.84,0,0,1,119.164,47.813Zm12.57,4.055-.023.539h-5.953a2.079,2.079,0,0,0,.641,1.469,2.049,2.049,0,0,0,1.414.508,1.974,1.974,0,0,0,1.059-.277,1.7,1.7,0,0,0,.676-.809l2.063.3a3.506,3.506,0,0,1-1.406,1.883,4.181,4.181,0,0,1-2.375.672,4.348,4.348,0,0,1-3.129-1.105,4.627,4.627,0,0,1,0-6.133,4.219,4.219,0,0,1,3.055-1.121,3.676,3.676,0,0,1,3.977,4.07Zm-3.961-2.477a1.778,1.778,0,0,0-1.953,1.547h3.688a1.691,1.691,0,0,0-.555-1.148A1.758,1.758,0,0,0,127.773,49.391Zm7.828-.148a2.607,2.607,0,0,1,1.055-.965,3.218,3.218,0,0,1,1.57-.4v2.008a3.042,3.042,0,0,0-1.922.484,2.115,2.115,0,0,0-.594,1.719V56h-2.266V47.969H135.6Zm7.531,6.906a4.291,4.291,0,0,1-3.1-1.156,4.386,4.386,0,0,1,0-6.031,4.768,4.768,0,0,1,5.707-.375,3.453,3.453,0,0,1,1.344,2.18L145,50.992a1.78,1.78,0,0,0-.672-1.055,2.043,2.043,0,0,0-1.219-.352,1.842,1.842,0,0,0-1.469.656,2.949,2.949,0,0,0,0,3.465,1.837,1.837,0,0,0,1.469.66,2.025,2.025,0,0,0,1.215-.352A1.822,1.822,0,0,0,145,52.961l2.078.227a3.463,3.463,0,0,1-1.355,2.18A4.262,4.262,0,0,1,143.133,56.148Zm12.133-2.328a7.514,7.514,0,0,0,.2,1.961V56h-2.1l-.18-.875a2.611,2.611,0,0,1-1.125.773,4.146,4.146,0,0,1-1.453.258,3.821,3.821,0,0,1-.75-.07,2.55,2.55,0,0,1-.676-.238,2.051,2.051,0,0,1-.559-.418,1.833,1.833,0,0,1-.375-.637,2.536,2.536,0,0,1-.141-.871,2.416,2.416,0,0,1,.148-.871,2.042,2.042,0,0,1,.391-.652,2.369,2.369,0,0,1,.633-.477,4.843,4.843,0,0,1,.8-.344,9.521,9.521,0,0,1,.953-.25l1.32-.3a1.456,1.456,0,0,0,.6-.254.506.506,0,0,0,.176-.4.829.829,0,0,0-.395-.773,1.842,1.842,0,0,0-.957-.234,1.377,1.377,0,0,0-1.57,1.227l-1.992-.359a2.7,2.7,0,0,1,1.164-1.832,4.627,4.627,0,0,1,2.523-.59q3.375,0,3.375,2.9Zm-3.961.813a1.81,1.81,0,0,0,1.391-.582,2.453,2.453,0,0,0,.539-1.723l-1.906.539a2.253,2.253,0,0,0-.8.328.674.674,0,0,0-.277.578.748.748,0,0,0,.3.637A1.229,1.229,0,0,0,151.3,54.633ZM162.969,44h2.25V56h-2.133l-.055-1.047a2.294,2.294,0,0,1-1.02.91,3.432,3.432,0,0,1-1.5.324,3.906,3.906,0,0,1-1.5-.289,3.613,3.613,0,0,1-2.062-2.141,4.885,4.885,0,0,1-.3-1.758,4.566,4.566,0,0,1,.531-2.238,3.64,3.64,0,0,1,1.4-1.457,3.862,3.862,0,0,1,1.934-.492,3.518,3.518,0,0,1,1.457.293,2.275,2.275,0,0,1,1,.832Zm-1.945,10.32a2,2,0,0,0,1.52-.641,2.632,2.632,0,0,0,0-3.363,2,2,0,0,0-1.516-.645,2.024,2.024,0,0,0-1.527.633,2.665,2.665,0,0,0,0,3.383A2.024,2.024,0,0,0,161.023,54.32Zm10.266,1.836a5.05,5.05,0,0,1-2.273-.492,3.679,3.679,0,0,1-1.559-1.445,4.307,4.307,0,0,1-.566-2.242,3.929,3.929,0,0,1,1.219-3.047,5.095,5.095,0,0,1,6.367,0,4.433,4.433,0,0,1,0,6.105A4.523,4.523,0,0,1,171.289,56.156Zm-.023-1.789a2.061,2.061,0,0,0,1.59-.656,2.787,2.787,0,0,0,0-3.469,2.061,2.061,0,0,0-1.59-.656,1.986,1.986,0,0,0-1.543.66,2.8,2.8,0,0,0,0,3.461A1.986,1.986,0,0,0,171.266,54.367Zm7.367,1.789a1.294,1.294,0,0,1-1.281-1.281,1.254,1.254,0,0,1,.379-.914,1.226,1.226,0,0,1,.9-.383,1.307,1.307,0,0,1,1.3,1.3,1.226,1.226,0,0,1-.383.9A1.254,1.254,0,0,1,178.633,56.156Z" transform="translate(4151.923 2850.395)" fill="#002b45"/>
  </g>
</svg>
