<svg xmlns="http://www.w3.org/2000/svg" width="91.662" height="97.274" viewBox="0 0 91.662 97.274">
  <g id="Grupo_16688" data-name="Grupo 16688" transform="translate(-1322.82 275.231)">
    <path id="Trazado_26066" data-name="Trazado 26066" d="M1396.321-272.129h-52.379a5.612,5.612,0,0,0-5.612,5.612V-178.6h63.6a5.612,5.612,0,0,0,5.612-5.612v-82.309a5.612,5.612,0,0,1,5.612-5.612Z" transform="translate(-6.157 -1.231)" fill="#e6e6e6"/>
    <g id="Grupo_16686" data-name="Grupo 16686" transform="translate(1324.691 -273.36)">
      <path id="Trazado_26067" data-name="Trazado 26067" d="M1397.007-123.184a5.612,5.612,0,0,1-5.612-5.612v-3.741h-65.473v3.741a5.612,5.612,0,0,0,5.612,5.612Z" transform="translate(-1325.922 216.717)" fill="#0071bc"/>
      <path id="Trazado_26068" data-name="Trazado 26068" d="M1453.1-244.069v-22.448a5.612,5.612,0,0,1,5.612-5.612,5.612,5.612,0,0,1,5.613,5.612v22.448Z" transform="translate(-1376.408 272.129)" fill="#0071bc"/>
    </g>
    <g id="Grupo_16687" data-name="Grupo 16687" transform="translate(1349.009 -251.389)">
      <path id="Trazado_26069" data-name="Trazado 26069" d="M1394.874-231.05l12.668,12.668,3.741-7.483-9.83-9.83Z" transform="translate(-1377.611 235.695)" fill="#f7931e"/>
      <path id="Trazado_26070" data-name="Trazado 26070" d="M1382.657-231.05l-12.668,12.668-3.741-7.483,9.83-9.83Z" transform="translate(-1366.248 235.695)" fill="#f7931e"/>
    </g>
    <circle id="Elipse_951" data-name="Elipse 951" cx="9.353" cy="9.353" r="9.353" transform="translate(1356.492 -264.007)" fill="#fbb03b"/>
    <path id="Trazado_26071" data-name="Trazado 26071" d="M1330.3-177.957h65.473a7.482,7.482,0,0,0,7.483-7.483v-57.99h9.354a1.871,1.871,0,0,0,1.871-1.871v-22.448a7.483,7.483,0,0,0-7.483-7.483h-69.214a7.482,7.482,0,0,0-7.483,7.483v76.7h-5.612a1.871,1.871,0,0,0-1.871,1.871v3.741A7.482,7.482,0,0,0,1330.3-177.957Zm80.439-89.792v20.578h-7.483v-20.578A3.741,3.741,0,0,1,1407-271.49,3.742,3.742,0,0,1,1410.741-267.748Zm-76.7,0a3.741,3.741,0,0,1,3.741-3.741h62.772a7.412,7.412,0,0,0-1.04,3.741v82.309a3.741,3.741,0,0,1-3.741,3.741,3.741,3.741,0,0,1-3.741-3.741v-3.741a1.871,1.871,0,0,0-1.871-1.871h-56.12Zm-7.483,80.439h61.732v1.871a7.43,7.43,0,0,0,1,3.741h-59a3.741,3.741,0,0,1-3.741-3.741Z" fill="#00223d"/>
    <path id="Trazado_26072" data-name="Trazado 26072" d="M1350.738-179.068h54.249v3.741h-54.249Z" transform="translate(-11.082 -38.173)" fill="#00223d"/>
    <path id="Trazado_26073" data-name="Trazado 26073" d="M1350.738-166.66H1397.5v3.742h-46.767Z" transform="translate(-11.082 -43.098)" fill="#00223d"/>
    <path id="Trazado_26074" data-name="Trazado 26074" d="M1350.738-151.149h11.224v3.741h-11.224Z" transform="translate(-11.082 -49.255)" fill="#00223d"/>
    <path id="Trazado_26075" data-name="Trazado 26075" d="M1422.085-151.149h11.224v3.741h-11.224Z" transform="translate(-39.404 -49.255)" fill="#00223d"/>
    <path id="Trazado_26076" data-name="Trazado 26076" d="M1369.35-191.476h43.025v3.741H1369.35Z" transform="translate(-18.471 -33.247)" fill="#00223d"/>
    <path id="Trazado_26077" data-name="Trazado 26077" d="M1356.942-191.476h3.741v3.741h-3.741Z" transform="translate(-13.545 -33.247)" fill="#00223d"/>
    <path id="Trazado_26078" data-name="Trazado 26078" d="M1350.738-259.721h3.741v3.741h-3.741Z" transform="translate(-11.082 -6.157)" fill="#00223d"/>
    <path id="Trazado_26079" data-name="Trazado 26079" d="M1363.146-259.721h3.741v3.741h-3.741Z" transform="translate(-16.008 -6.157)" fill="#00223d"/>
    <path id="Trazado_26080" data-name="Trazado 26080" d="M1363.694-236.744a1.87,1.87,0,0,0-.352,2.158l3.741,7.483a1.87,1.87,0,0,0,1.375,1.011,1.838,1.838,0,0,0,.3.024,1.869,1.869,0,0,0,1.323-.548l10.729-10.728c.344.032.692.052,1.044.052s.7-.02,1.044-.052l10.728,10.728a1.869,1.869,0,0,0,1.323.548,1.84,1.84,0,0,0,.3-.024,1.871,1.871,0,0,0,1.375-1.011l3.741-7.483a1.869,1.869,0,0,0-.351-2.158l-7.707-7.707A11.224,11.224,0,0,0,1385.945-259a11.224,11.224,0,0,0-14.543,6.359,11.219,11.219,0,0,0,0,8.184Zm5.576,5.648-1.977-3.951,6.1-6.1a11.3,11.3,0,0,0,3.323,2.619Zm27.142-3.951-1.978,3.957-7.449-7.455a11.3,11.3,0,0,0,3.322-2.619ZM1381.853-256a7.483,7.483,0,0,1,7.483,7.483,7.483,7.483,0,0,1-7.483,7.483,7.483,7.483,0,0,1-7.483-7.483h0A7.483,7.483,0,0,1,1381.853-256Z" transform="translate(-16.008 -6.137)" fill="#00223d"/>
  </g>
</svg>
