<svg xmlns="http://www.w3.org/2000/svg" width="151" height="151" viewBox="0 0 151 151">
  <g id="Grupo_17114" data-name="Grupo 17114" transform="translate(-640 2418)">
    <rect id="Rectángulo_4278" data-name="Rectángulo 4278" width="151" height="151" transform="translate(640 -2418)" fill="none"/>
    <g id="Layer_1" data-name="Layer 1" transform="translate(-437.964 -2867.06)">
      <g id="Grupo_16843" data-name="Grupo 16843" transform="translate(1092.964 465.06)">
        <path id="Trazado_26407" data-name="Trazado 26407" d="M1189.306,468.762v77.343h-5.218a7.29,7.29,0,0,1-1.086-.083,7.56,7.56,0,0,1-4.99-2.973l-2.9-3.894a7.57,7.57,0,0,0-6.076-3.05h-8.6a6.8,6.8,0,0,0-4.079-1.368H1141.2a9.688,9.688,0,0,0-6.92,2.9l-2.347,2.39a9.693,9.693,0,0,1-5.833,2.842,9.024,9.024,0,0,1-1.086.064h-5.219V468.762a2.426,2.426,0,0,1,2.425-2.424h64.662a2.426,2.426,0,0,1,2.424,2.424Z" transform="translate(-1094.337 -465.125)" fill="#f0c020"/>
        <path id="Trazado_26408" data-name="Trazado 26408" d="M1183.342,472.982v73.381a7.56,7.56,0,0,1-4.99-2.973l-2.9-3.894a7.57,7.57,0,0,0-6.076-3.05h-8.6a6.8,6.8,0,0,0-4.079-1.368H1141.54a9.688,9.688,0,0,0-6.92,2.9l-2.347,2.39a9.693,9.693,0,0,1-5.833,2.842V472.982Z" transform="translate(-1094.677 -465.465)" fill="#efefef"/>
        <path id="Trazado_26409" data-name="Trazado 26409" d="M1204.81,543.829H1217.9v42.55H1204.81Z" transform="translate(-1098.687 -469.09)" fill="#36687a"/>
        <path id="Trazado_26410" data-name="Trazado 26410" d="M1094.241,540.484h13.091v42.55h-13.091Z" transform="translate(-1093.029 -468.919)" fill="#f9a825"/>
        <path id="Trazado_26411" data-name="Trazado 26411" d="M1193.742,549.794v30.071h-13.088a9.719,9.719,0,0,0-4.239.974l-4.738,2.3a9.755,9.755,0,0,1-4.238.974h-26.662a4.3,4.3,0,0,1-4.059-2.9h-3.986a9.536,9.536,0,0,1-6.164-2.26,9.517,9.517,0,0,0-6.164-2.265h-5.552V546.623h9.908a9.024,9.024,0,0,0,1.086-.064,9.693,9.693,0,0,0,5.833-2.842l2.347-2.39a9.688,9.688,0,0,1,6.92-2.9H1156.1a6.8,6.8,0,0,1,4.079,1.368h8.6a7.57,7.57,0,0,1,6.076,3.05l2.9,3.894a7.56,7.56,0,0,0,4.99,2.973,7.29,7.29,0,0,0,1.086.083Z" transform="translate(-1094.084 -468.814)" fill="#ffb69f"/>
        <path id="Trazado_26412" data-name="Trazado 26412" d="M1198,547.968v34.548a1.455,1.455,0,0,0,1.454,1.455h5.012V546.513h-5.012A1.454,1.454,0,0,0,1198,547.968Z" transform="translate(-1098.338 -469.228)" fill="#efefef"/>
        <path id="Trazado_26413" data-name="Trazado 26413" d="M1114.505,579.17V544.623a1.455,1.455,0,0,0-1.456-1.455h-5.012v37.457h5.012A1.456,1.456,0,0,0,1114.505,579.17Z" transform="translate(-1093.735 -469.056)" fill="#efefef"/>
        <path id="Trazado_26414" data-name="Trazado 26414" d="M1172.4,507.261l-4.988,1.051.543,5.063a2.364,2.364,0,0,1-3.316,2.41l-1.259-.564-3.389-1.518-2.538,4.419a2.364,2.364,0,0,1-4.1,0l-2.538-4.419-3.389,1.518-1.259.564a2.364,2.364,0,0,1-3.316-2.41l.543-5.063-4.989-1.051a2.365,2.365,0,0,1-1.265-3.9l3.415-3.777-3.416-3.779a2.364,2.364,0,0,1,1.268-3.9l4.987-1.049-.544-5.066a2.364,2.364,0,0,1,3.317-2.41l4.648,2.081,2.538-4.417a2.364,2.364,0,0,1,4.1,0l2.539,4.417,4.647-2.081a2.364,2.364,0,0,1,3.317,2.41l-.543,5.066,4.986,1.049a2.364,2.364,0,0,1,1.268,3.9l-3.416,3.779,3.416,3.777A2.365,2.365,0,0,1,1172.4,507.261Z" transform="translate(-1095.193 -465.817)" fill="#f0c020"/>
        <path id="Trazado_26415" data-name="Trazado 26415" d="M1163.972,517.047v14.106a.878.878,0,0,1-1.458.659l-6.52-5.73-6.52,5.73a.878.878,0,0,1-1.457-.659V517.047l3.389-1.518,2.539,4.419a2.364,2.364,0,0,0,4.1,0l2.539-4.419Z" transform="translate(-1095.781 -467.642)" fill="#fc5d3d"/>
        <circle id="Elipse_965" data-name="Elipse 965" cx="9.123" cy="9.123" r="9.123" transform="translate(51.091 24.645)" fill="#72c2e9"/>
        <path id="Trazado_26416" data-name="Trazado 26416" d="M1156.263,505.409a1.212,1.212,0,0,1,.858-1.485,3.651,3.651,0,0,0,1.633-6.108,1.212,1.212,0,0,1,1.714-1.714,6.075,6.075,0,0,1-2.719,10.163,1.213,1.213,0,0,1-1.486-.857Zm-4.164-.5c-.076-.069-.15-.14-.223-.213a1.213,1.213,0,1,1,1.718-1.712c.043.044.087.085.132.126a1.213,1.213,0,1,1-1.627,1.8Z" transform="translate(-1095.96 -466.63)" fill="#c5e5ff"/>
        <g id="Grupo_16842" data-name="Grupo 16842">
          <path id="Trazado_26417" data-name="Trazado 26417" d="M1157.946,567.217h-5.819a1.212,1.212,0,1,0,0,2.424h5.819a1.212,1.212,0,1,0,0-2.424Z" transform="translate(-1095.929 -470.287)" fill="#00223d"/>
          <circle id="Elipse_966" data-name="Elipse 966" cx="1.212" cy="1.212" r="1.212" transform="translate(50.136 96.93)" fill="#00223d"/>
          <path id="Trazado_26418" data-name="Trazado 26418" d="M1212.179,581.136H1200.3V541.011h11.878a1.213,1.213,0,1,0,0-2.425h-13.091a1.212,1.212,0,0,0-1.213,1.213v1.333h-3.8a2.672,2.672,0,0,0-2.667,2.667v1.029h-2.265V468.7a3.642,3.642,0,0,0-3.637-3.637h-64.663a3.645,3.645,0,0,0-3.637,3.637v30.528a1.213,1.213,0,0,0,2.425,0V468.7a1.212,1.212,0,0,1,1.212-1.212h64.662a1.213,1.213,0,0,1,1.213,1.212v76.131h-3.88V472.577a1.212,1.212,0,0,0-1.213-1.213h-56.9a1.212,1.212,0,0,0-1.213,1.213v69.08h-3.88V508.923a1.212,1.212,0,0,0-2.424,0v32.734h-2.264v-1.03a2.67,2.67,0,0,0-2.667-2.667h-3.8v-1.334a1.212,1.212,0,0,0-1.213-1.212h-13.091a1.212,1.212,0,0,0,0,2.424h11.88v40.124h-11.88a1.213,1.213,0,0,0,0,2.425h13.091a1.212,1.212,0,0,0,1.213-1.213V577.84h3.8a2.669,2.669,0,0,0,2.667-2.667v-1.026h4.339a8.285,8.285,0,0,1,5.38,1.977,10.75,10.75,0,0,0,6.947,2.548h3.2a5.5,5.5,0,0,0,4.85,2.9h26.661a11.012,11.012,0,0,0,4.769-1.1l4.737-2.3a8.548,8.548,0,0,1,3.708-.853h11.877v1.023a2.671,2.671,0,0,0,2.667,2.667h3.8v1.334a1.212,1.212,0,0,0,1.213,1.212h13.091a1.212,1.212,0,0,0,0-2.424Zm-99.657-5.962a.243.243,0,0,1-.243.242h-3.8V540.383h3.8a.243.243,0,0,1,.243.242Zm13.416-101.384h54.478v70.6a6.407,6.407,0,0,1-2.8-2.126l-2.9-3.894a8.829,8.829,0,0,0-7.049-3.538h-8.217a8.063,8.063,0,0,0-4.464-1.367h-15.155a10.978,10.978,0,0,0-7.785,3.263l-2.346,2.391a8.512,8.512,0,0,1-3.756,2.218V473.789Zm8.226,102.458h-2.551a8.321,8.321,0,0,1-5.376-1.97,10.705,10.705,0,0,0-6.951-2.554h-4.339V544.081h8.694a10.976,10.976,0,0,0,7.785-3.268l2.346-2.391a8.535,8.535,0,0,1,6.054-2.536h15.155a5.647,5.647,0,0,1,4.693,2.548l.007.01.009.013,4.327,6.514a3.138,3.138,0,0,1-5.231,3.469l-2.036-3.069a1.212,1.212,0,0,0-1.01-.543h-19.451a5.508,5.508,0,0,0-4.557,8.579,5.506,5.506,0,0,0-1.943,10.727,5.509,5.509,0,0,0,4.357,8.863h.978a5.34,5.34,0,0,0-.958,3.25Zm63.711,2.343h-3.8a.243.243,0,0,1-.243-.243v-17.6a1.212,1.212,0,0,0-2.424-.01V574.9h-11.876a10.983,10.983,0,0,0-4.768,1.1l-4.737,2.3a8.568,8.568,0,0,1-3.71.854h-26.662a3.072,3.072,0,0,1-3.068-3.27,3.159,3.159,0,0,1,3.223-2.884c.012,0,.025,0,.037,0h15.474a1.213,1.213,0,1,0,0-2.425c-.186,0-21.02,0-21.205,0a3.079,3.079,0,0,1,.025-6.157h5.32a1.213,1.213,0,0,0,0-2.425h-7.944a3.079,3.079,0,0,1,0-6.159c9.355.009-2.154,0,23.462,0a1.212,1.212,0,1,0,0-2.424c-.194,0-18.533,0-18.728,0a3.079,3.079,0,0,1,.034-6.157h18.8l1.674,2.523a5.563,5.563,0,1,0,9.273-6.147l-4.234-6.375h5.862a6.392,6.392,0,0,1,5.1,2.562l2.9,3.895a8.853,8.853,0,0,0,7.048,3.543h8.7v3.8a1.212,1.212,0,0,0,2.424,0V543.8a.24.24,0,0,1,.243-.243h3.8Z" transform="translate(-1092.964 -465.06)" fill="#00223d"/>
          <circle id="Elipse_967" data-name="Elipse 967" cx="1.212" cy="1.212" r="1.212" transform="translate(98.446 89.627)" fill="#00223d"/>
          <path id="Trazado_26419" data-name="Trazado 26419" d="M1138.857,499.519l-2.68,2.964a3.576,3.576,0,0,0,1.915,5.9l3.916.825-.426,3.973a3.576,3.576,0,0,0,4.569,3.812v12.27a2.09,2.09,0,0,0,3.47,1.569l5.72-5.026,5.721,5.027a2.09,2.09,0,0,0,3.47-1.57v-12.27a3.576,3.576,0,0,0,4.569-3.812l-.426-3.973,3.916-.825a3.576,3.576,0,0,0,1.915-5.9l-2.68-2.964,2.68-2.966a3.576,3.576,0,0,0-1.917-5.9l-3.914-.824.426-3.977a3.576,3.576,0,0,0-5.018-3.645l-3.648,1.632-1.992-3.466a3.577,3.577,0,0,0-6.2,0l-1.992,3.466-3.647-1.632a3.576,3.576,0,0,0-5.018,3.645l.426,3.977-3.914.824a3.577,3.577,0,0,0-1.919,5.9Zm23.248,29-5.964-5.242a1.214,1.214,0,0,0-1.6,0l-5.965,5.242V515.942l1.673-.75,1.992,3.468a3.576,3.576,0,0,0,6.2,0l1.992-3.468,1.672.75v12.582Zm-23.513-35.5,4.987-1.048a1.213,1.213,0,0,0,.955-1.316l-.543-5.067a1.151,1.151,0,0,1,1.616-1.174l4.647,2.081a1.212,1.212,0,0,0,1.547-.5l2.539-4.416a1.152,1.152,0,0,1,2,0l2.539,4.417a1.211,1.211,0,0,0,1.546.5l4.648-2.081a1.151,1.151,0,0,1,1.616,1.175l-.543,5.067a1.212,1.212,0,0,0,.955,1.316l4.987,1.048a1.152,1.152,0,0,1,.618,1.9l-3.416,3.779a1.212,1.212,0,0,0,0,1.626l3.415,3.776a1.151,1.151,0,0,1-.616,1.9l-4.988,1.051a1.213,1.213,0,0,0-.955,1.316l.543,5.063a1.151,1.151,0,0,1-1.616,1.174l-4.648-2.081a1.211,1.211,0,0,0-1.547.5l-2.538,4.419a1.152,1.152,0,0,1-2,0l-2.538-4.419a1.219,1.219,0,0,0-1.548-.5l-4.647,2.081a1.152,1.152,0,0,1-1.616-1.174l.543-5.063a1.213,1.213,0,0,0-.955-1.316l-4.987-1.051a1.151,1.151,0,0,1-.617-1.9l3.416-3.776a1.212,1.212,0,0,0,0-1.626l-3.416-3.78a1.151,1.151,0,0,1,.617-1.9Z" transform="translate(-1095.127 -465.752)" fill="#00223d"/>
          <path id="Trazado_26420" data-name="Trazado 26420" d="M1155.867,510.426a10.335,10.335,0,1,0-10.335-10.336,10.348,10.348,0,0,0,10.335,10.336Zm0-18.245a7.91,7.91,0,1,1-7.91,7.909A7.919,7.919,0,0,1,1155.867,492.181Z" transform="translate(-1095.654 -466.324)" fill="#00223d"/>
          <circle id="Elipse_968" data-name="Elipse 968" cx="1.212" cy="1.212" r="1.212" transform="translate(24.245 37.801)" fill="#00223d"/>
        </g>
      </g>
    </g>
  </g>
</svg>
