<svg xmlns="http://www.w3.org/2000/svg" width="72" height="86.435" viewBox="0 0 72 86.435">
  <g id="Grupo_16668" data-name="Grupo 16668" transform="translate(-510.002 274.296)">
    <path id="Trazado_26005" data-name="Trazado 26005" d="M569.292-187.457H556.327l-7.2,7.2-7.2-7.2H528.956a8.643,8.643,0,0,0-8.643,8.643v15.846h57.622v-15.846A8.643,8.643,0,0,0,569.292-187.457Z" transform="translate(-3.127 -26.334)" fill="#5cd6b3"/>
    <path id="Trazado_26006" data-name="Trazado 26006" d="M578.988-207.4a8.642,8.642,0,0,0-.68-12.2,8.643,8.643,0,0,0-5.762-2.2h-1.44a4.322,4.322,0,0,0,4.321-4.322,4.321,4.321,0,0,0-4.321-4.321h-1.441v-18.076c0-12.411-9.538-23.09-21.935-23.674a23.05,23.05,0,0,0-24.136,21.909q-.026.557-.026,1.115v18.727h-1.441a4.321,4.321,0,0,0-4.321,4.321,4.322,4.322,0,0,0,4.321,4.322h-1.44a8.643,8.643,0,0,0-8.643,8.643c0,4.539,1.313,8.254,5.762,8.609v2.915a5.762,5.762,0,0,0,5.762,5.762h7.2a8.643,8.643,0,0,0,8.643-8.643,8.643,8.643,0,0,0-8.643-8.643h38.895l4.322,4.322v1.44h4.321" transform="translate(-0.619 -0.627)" fill="#eaca65"/>
    <path id="Trazado_26007" data-name="Trazado 26007" d="M569.349-241.907a5.763,5.763,0,0,1-5.589-4.365l-3.231-11.481-2.958,10.391a7.2,7.2,0,0,1-6.982,5.456H538.921v8.643a15.832,15.832,0,0,0,8.643,14.1h0v10.386l7.2,7.2,7.2-7.2v-10.386h0a15.832,15.832,0,0,0,8.643-14.1v-8.643Z" transform="translate(-8.77 -5.017)" fill="#f2dbc0"/>
    <path id="Trazado_26008" data-name="Trazado 26008" d="M518.245-184.912a1.441,1.441,0,0,0,1.441,1.441h57.622a1.441,1.441,0,0,0,1.441-1.441v-15.846a10.1,10.1,0,0,0-10.084-10.084H557.14v-8.1a17.287,17.287,0,0,0,8.643-14.947v-7.2h1.44v-2.881h-4.144a4.33,4.33,0,0,1-4.2-3.313l-3.229-11.481a1.44,1.44,0,0,0-1.387-1.052h0a1.441,1.441,0,0,0-1.386,1.046l-2.967,10.436a5.762,5.762,0,0,1-5.587,4.364H529.77v2.881h1.44v7.2a17.287,17.287,0,0,0,8.643,14.947v9.542a1.441,1.441,0,0,0,.422,1.019l7.2,7.2a1.439,1.439,0,0,0,2.036,0l6.781-6.78h12.369a7.211,7.211,0,0,1,7.2,7.2v14.406H521.126v-1.441h-2.881v2.881Zm15.846-48.979v-7.2h10.228a8.616,8.616,0,0,0,8.374-6.5l1.564-5.5,1.841,6.541a7.185,7.185,0,0,0,6.805,5.442v7.217A14.405,14.405,0,0,1,548.5-219.485,14.405,14.405,0,0,1,534.091-233.891ZM548.5-204.236,542.734-210v-7.615a16.966,16.966,0,0,0,11.525,0V-210Z" transform="translate(-2.5 -4.389)" fill="#00223d"/>
    <path id="Trazado_26009" data-name="Trazado 26009" d="M532.651-172.238h-7.2a4.322,4.322,0,0,1-4.322-4.322h-2.881a7.212,7.212,0,0,0,7.2,7.2h7.2a10.084,10.084,0,0,0,10.083-10.084,10.084,10.084,0,0,0-10.083-10.084h-4.322v2.882h4.322a7.2,7.2,0,0,1,7.2,7.2A7.2,7.2,0,0,1,532.651-172.238Z" transform="translate(-2.5 -25.707)" fill="#00223d"/>
    <path id="Trazado_26010" data-name="Trazado 26010" d="M575.11-223.352a5.708,5.708,0,0,0,1.139-3.4,5.762,5.762,0,0,0-5.762-5.762v-16.636a24.79,24.79,0,0,0-23.308-25.113,24.49,24.49,0,0,0-25.642,23.28q-.028.591-.029,1.182v17.286a5.762,5.762,0,0,0-5.762,5.762,5.708,5.708,0,0,0,1.138,3.4,10.084,10.084,0,0,0-6.356,12.766,10.085,10.085,0,0,0,9.54,6.879h8.643v-2.881h-8.643a7.2,7.2,0,0,1-7.2-7.2,7.2,7.2,0,0,1,7.2-7.2h8.643v-2.881h-7.2a2.881,2.881,0,0,1-2.881-2.881,2.881,2.881,0,0,1,2.881-2.881h1.441a1.44,1.44,0,0,0,1.44-1.44V-249.8A21.609,21.609,0,0,1,546-271.414q.525,0,1.049.026a21.916,21.916,0,0,1,20.561,22.235v18.076a1.44,1.44,0,0,0,1.44,1.44h1.441a2.881,2.881,0,0,1,2.881,2.881,2.881,2.881,0,0,1-2.881,2.881h-7.2v2.881h8.643a7.2,7.2,0,0,1,7.2,7.2,7.2,7.2,0,0,1-1.834,4.8l2.146,1.922a10.083,10.083,0,0,0-.811-14.237,10.081,10.081,0,0,0-3.521-2.041Z" transform="translate(0 0)" fill="#00223d"/>
    <path id="Trazado_26011" data-name="Trazado 26011" d="M564.714-214.335h-2.161a3.241,3.241,0,0,1-3.241,3.241,3.241,3.241,0,0,1-3.241-3.241H553.91a5.4,5.4,0,0,0,5.4,5.4A5.4,5.4,0,0,0,564.714-214.335Z" transform="translate(-13.315 -18.183)" fill="#00223d"/>
  </g>
</svg>
