<svg xmlns="http://www.w3.org/2000/svg" width="151" height="151" viewBox="0 0 151 151">
  <g id="Grupo_17167" data-name="Grupo 17167" transform="translate(-2360 5664)">
    <g id="Grupo_17164" data-name="Grupo 17164" transform="translate(1720 -3246)">
      <rect id="Rect치ngulo_4278" data-name="Rect치ngulo 4278" width="151" height="151" transform="translate(640 -2418)" fill="none"/>
      <rect id="Rect치ngulo_4284" data-name="Rect치ngulo 4284" width="135" height="135" transform="translate(648 -2410)" fill="none"/>
    </g>
    <g id="Grupo_17163" data-name="Grupo 17163" transform="translate(2369.913 -5653.976)">
      <ellipse id="Elipse_1004" data-name="Elipse 1004" cx="49.107" cy="49.107" rx="49.107" ry="49.107" transform="translate(0 16.368)" fill="#fff"/>
      <path id="Trazado_26940" data-name="Trazado 26940" d="M1458.279,2098.293a10.913,10.913,0,1,0,10.913,10.913A10.945,10.945,0,0,0,1458.279,2098.293Zm0,13.641a2.728,2.728,0,1,1,2.729-2.728A2.7,2.7,0,0,1,1458.279,2111.934Z" transform="translate(-1409.166 -2043.73)" fill="#b1b727"/>
      <path id="Trazado_26941" data-name="Trazado 26941" d="M1600.979,1961.4h-13.641a4.094,4.094,0,0,1-4.093-4.092v-13.641a4.074,4.074,0,0,1,1.2-2.892l10.913-10.913a4.09,4.09,0,0,1,6.984,2.892v9.549h9.549a4.09,4.09,0,0,1,2.892,6.984l-10.913,10.913a4.075,4.075,0,0,1-2.892,1.2Z" transform="translate(-1501.34 -1928.658)" fill="#2196f3"/>
      <path id="Trazado_26942" data-name="Trazado 26942" d="M1550.857,2186.19a35.466,35.466,0,1,1,35.467-35.466A35.507,35.507,0,0,1,1550.857,2186.19Z" transform="translate(-1455.311 -2055.238)" fill="#b1b727"/>
      <path id="Trazado_26943" data-name="Trazado 26943" d="M1550.857,2186.19a35.466,35.466,0,1,1,35.467-35.466A35.507,35.507,0,0,1,1550.857,2186.19Zm0-62.748a27.282,27.282,0,1,0,27.282,27.282A27.313,27.313,0,0,0,1550.857,2123.442Z" transform="translate(-1455.311 -2055.238)" fill="#00223d"/>
      <path id="Trazado_26944" data-name="Trazado 26944" d="M1377.819,2077.761a49.092,49.092,0,1,1,44.715-69.17,4.094,4.094,0,0,1-7.459,3.378,41.1,41.1,0,0,0-8.43-12.244,40.92,40.92,0,1,0-28.935,69.852,4.141,4.141,0,0,1,4.147,4.092,4.047,4.047,0,0,1-4.037,4.092Z" transform="translate(-1328.603 -1963.179)" fill="#00223d"/>
      <path id="Trazado_26945" data-name="Trazado 26945" d="M1415.413,2098.777c-.125,0-.262-.006-.387-.016a29.991,29.991,0,1,1,24.1-51.088,29.521,29.521,0,0,1,4.834,6.39,4.093,4.093,0,1,1-7.126,4.027,21.4,21.4,0,0,0-3.476-4.616,21.825,21.825,0,1,0-17.564,37.136,4.093,4.093,0,0,1-.377,8.168Z" transform="translate(-1368.821 -2003.455)" fill="#00223d"/>
      <path id="Trazado_26946" data-name="Trazado 26946" d="M1472.835,2052.876a4.095,4.095,0,0,1-2.892-6.99l35.467-35.466a4.094,4.094,0,0,1,5.789,5.789l-35.467,35.467A4.081,4.081,0,0,1,1472.835,2052.876Z" transform="translate(-1423.668 -1983.308)" fill="#00223d"/>
      <path id="Trazado_26947" data-name="Trazado 26947" d="M1600.979,1961.4h-13.641a4.094,4.094,0,0,1-4.093-4.092V1943.67a4.075,4.075,0,0,1,1.2-2.892l10.913-10.912a4.09,4.09,0,0,1,6.984,2.892v9.548h9.549a4.09,4.09,0,0,1,2.892,6.984l-10.913,10.913a4.075,4.075,0,0,1-2.892,1.2Zm-9.549-8.184h7.852l2.728-2.728h-3.759a4.094,4.094,0,0,1-4.092-4.093v-3.759l-2.728,2.728Z" transform="translate(-1501.34 -1928.666)" fill="#00223d"/>
      <path id="Trazado_26948" data-name="Trazado 26948" d="M1602.972,2180.88a4.055,4.055,0,0,0-5.719.325l-15.034,16.844a1.147,1.147,0,0,1-.83.385,1.135,1.135,0,0,1-.85-.338l-7.792-7.791a4.05,4.05,0,0,0-5.728,5.727l11.688,11.688a4.065,4.065,0,0,0,2.865,1.187l.113,0a4.067,4.067,0,0,0,2.907-1.352l18.7-20.954A4.055,4.055,0,0,0,1602.972,2180.88Z" transform="translate(-1489.53 -2099.057)" fill="#00223d"/>
    </g>
  </g>
</svg>
