<svg xmlns="http://www.w3.org/2000/svg" width="84.549" height="85.86" viewBox="0 0 84.549 85.86">
  <g id="Grupo_16748" data-name="Grupo 16748" transform="translate(-1144.878 -67.817)">
    <g id="Grupo_16746" data-name="Grupo 16746" transform="translate(1146.17 69.101)">
      <g id="Grupo_16745" data-name="Grupo 16745" transform="translate(0 0)">
        <path id="Trazado_26148" data-name="Trazado 26148" d="M1147.144,172.759c.695,4.585,3.661,14.1,16.3,14.1,0,0,.927-14.974-14.124-16.408A2.01,2.01,0,0,0,1147.144,172.759Z" transform="translate(-1147.12 -112.59)" fill="#e9f857"/>
        <path id="Trazado_26149" data-name="Trazado 26149" d="M1150.074,170.456a2,2,0,0,0-1.185.255c12.221,2.252,12.348,14.274,12.3,15.955a22.245,22.245,0,0,0,3,.2s.927-14.974-14.124-16.408Z" transform="translate(-1147.87 -112.59)" fill="#e9f857"/>
        <path id="Trazado_26150" data-name="Trazado 26150" d="M1191.79,172.759c-.7,4.585-3.661,14.1-16.3,14.1,0,0-.927-14.974,14.124-16.408a2.01,2.01,0,0,1,2.18,2.3Z" transform="translate(-1159.135 -112.59)" fill="#e9f857"/>
        <path id="Trazado_26151" data-name="Trazado 26151" d="M1189.612,170.456c-.637.061-1.244.148-1.826.255a2,2,0,0,1,1,2.047c-.636,4.2-3.177,12.528-13.3,13.908,0,.127.008.2.008.2,12.643,0,15.609-9.52,16.3-14.1a2.01,2.01,0,0,0-2.181-2.3Z" transform="translate(-1159.138 -112.59)" fill="#e9f857"/>
        <path id="Trazado_26152" data-name="Trazado 26152" d="M1232.687,172.759c.7,4.585,3.662,14.1,16.3,14.1,0,0,.927-14.974-14.124-16.408a2.011,2.011,0,0,0-2.181,2.3Z" transform="translate(-1183.369 -112.59)" fill="#e9f857"/>
        <path id="Trazado_26153" data-name="Trazado 26153" d="M1235.617,170.456a2,2,0,0,0-1.185.255c12.221,2.252,12.348,14.275,12.305,15.955a22.227,22.227,0,0,0,3,.2s.927-14.974-14.123-16.408Z" transform="translate(-1184.118 -112.59)" fill="#e9f857"/>
        <path id="Trazado_26154" data-name="Trazado 26154" d="M1277.333,172.759c-.695,4.585-3.661,14.1-16.3,14.1,0,0-.927-14.974,14.124-16.408A2.01,2.01,0,0,1,1277.333,172.759Z" transform="translate(-1195.384 -112.59)" fill="#e9f857"/>
        <path id="Trazado_26155" data-name="Trazado 26155" d="M1275.156,170.456c-.638.061-1.245.148-1.826.255a2,2,0,0,1,1,2.047c-.637,4.2-3.177,12.528-13.3,13.908,0,.127.007.2.007.2,12.643,0,15.609-9.52,16.3-14.1A2.011,2.011,0,0,0,1275.156,170.456Z" transform="translate(-1195.387 -112.59)" fill="#e9f857"/>
        <path id="Trazado_26156" data-name="Trazado 26156" d="M1210.589,70.593c-4.1,4.792-16.774,22.469,1.153,40.4,0,0,21.318-18.834,1.167-40.451a1.556,1.556,0,0,0-2.321.056Z" transform="translate(-1170.548 -70.046)" fill="#e9f857"/>
        <path id="Trazado_26157" data-name="Trazado 26157" d="M1218.689,70.537a1.556,1.556,0,0,0-2.321.056q-.153.179-.321.381a1.464,1.464,0,0,1,1.234.494c15.888,18.38,3.276,34.044-.887,38.35q.542.585,1.127,1.17s21.318-18.834,1.167-40.451Z" transform="translate(-1176.328 -70.046)" fill="#e9f857"/>
        <path id="Trazado_26158" data-name="Trazado 26158" d="M1164.924,132.9c.646,7.1,4.752,28.727,30.839,28.727,0,0,1.828-29.55-28.744-30.91a2.008,2.008,0,0,0-2.1,2.182Z" transform="translate(-1154.661 -95.756)" fill="#e9f857"/>
        <path id="Trazado_26159" data-name="Trazado 26159" d="M1167.938,130.72a2.006,2.006,0,0,0-.855.148c27.328,2.53,26.672,28.806,26.592,30.658.969.066,1.969.1,3.006.1,0,0,1.828-29.55-28.744-30.91Z" transform="translate(-1155.58 -95.755)" fill="#e9f857"/>
        <path id="Trazado_26160" data-name="Trazado 26160" d="M1249.341,132.9c-.646,7.1-4.752,28.727-30.839,28.727,0,0-1.828-29.55,28.744-30.91a2.008,2.008,0,0,1,2.1,2.182Z" transform="translate(-1177.36 -95.756)" fill="#e9f857"/>
        <path id="Trazado_26161" data-name="Trazado 26161" d="M1247.258,130.72q-1.106.049-2.157.148a2,2,0,0,1,1.24,2.035c-.619,6.821-4.434,27.026-27.832,28.624,0,.068.005.1.005.1,26.087,0,30.193-21.625,30.839-28.728a2.009,2.009,0,0,0-2.1-2.182Z" transform="translate(-1177.371 -95.756)" fill="#e9f857"/>
      </g>
    </g>
    <g id="Grupo_16747" data-name="Grupo 16747" transform="translate(1144.878 67.817)">
      <path id="Trazado_26162" data-name="Trazado 26162" d="M1228.683,126.892a3.28,3.28,0,0,0-2.866-1.2c-8.784.936-12.259,5.715-14.008,10.125a15.5,15.5,0,0,0-3.931-5.951,28.184,28.184,0,0,0,6.974-8.319,39.509,39.509,0,0,0,4.577-15.179,3.316,3.316,0,0,0-3.431-3.581c-9.547.425-17.022,3.57-22.217,9.349a28.516,28.516,0,0,0-5.207,8.462v-9.922c1.781-1.7,9.343-9.524,9.874-20.463.363-7.48-2.658-14.711-8.979-21.491a2.86,2.86,0,0,0-4.236.1c-2.325,2.482-6.931,9.634-7.966,15.857a25.845,25.845,0,0,0,.545,12.539,32.621,32.621,0,0,0,8.194,13.282v10.1a28.53,28.53,0,0,0-5.206-8.462c-5.195-5.779-12.669-8.924-22.217-9.349a3.316,3.316,0,0,0-3.431,3.581,41.411,41.411,0,0,0,2.234,10.034,30.18,30.18,0,0,0,9.171,13.349,15.45,15.45,0,0,0-4.056,6.065c-.076-.2-.154-.4-.239-.6-1.641-3.9-5.362-8.721-13.768-9.521a3.313,3.313,0,0,0-3.572,3.773c.671,4.425,3.6,14.532,16.3,15.165V152.4a1.284,1.284,0,0,0,2.568,0v-7.77c8.44-.423,12.555-5.033,14.556-9.3a39.387,39.387,0,0,0,7.659.923v14.866h-3.283a1.284,1.284,0,1,0,0,2.568h8.856a1.284,1.284,0,1,0,0-2.568h-3.005V136.251a36.02,36.02,0,0,0,11.949-2.209l7.869,7.784a13.316,13.316,0,0,1-7.3-3.557,1.284,1.284,0,0,0-1.8,1.832,16.647,16.647,0,0,0,11.224,4.529v7.77a1.284,1.284,0,0,0,2.568,0v-7.766c12.7-.633,15.63-10.74,16.3-15.165a3.271,3.271,0,0,0-.706-2.578Zm-3.5,1.465-11.854,11.725a17.106,17.106,0,0,1,1.092-3.869C1216.3,131.725,1219.923,129.086,1225.178,128.357Zm-20.036.357a24.919,24.919,0,0,1-4.865,2.659,31.707,31.707,0,0,1-9.748,2.206l11.491-11.508h9.523A24.789,24.789,0,0,1,1205.142,128.715Zm-6.013-17.983c4.173-3.089,9.5-4.87,15.889-5.312l-15.889,15.914Zm13.928,8.772h-8.473l12.162-12.18A36.342,36.342,0,0,1,1213.057,119.5Zm-17.349-5.665c.277-.307.562-.605.853-.9v10.963l-7.89,7.9C1188.984,127.571,1190.325,119.815,1195.707,113.839Zm-7.132-6.918V98.581l6.881-5.1A30.688,30.688,0,0,1,1188.576,106.92Zm7.313-16.953-7.313,5.418V71.568C1193.7,77.458,1196.16,83.641,1195.889,89.967Zm-9.881-18.012V87.44l-5.465-5.178A34.975,34.975,0,0,1,1186.008,71.955Zm-6.22,13.223c.006-.027.011-.052.017-.078l6.2,5.878v15.709c-5.639-6.662-7.733-13.884-6.22-21.508Zm-.911,28.661c5.383,5.976,6.723,13.732,7.037,17.968l-13.952-13.973v-9.249A23.424,23.424,0,0,1,1178.877,113.839Zm-19.31-8.42a34.374,34.374,0,0,1,9.827,2.038v7.8Zm-1.728,1.9,7.191,7.2h-5.592A38.448,38.448,0,0,1,1157.839,107.324Zm5.527,15.227a29.75,29.75,0,0,1-2.97-5.458h7.2l16.462,16.487C1175.828,133.051,1168.05,129.48,1163.366,122.551Zm5.323,8.759a26.909,26.909,0,0,0,2.656,1.534l-7.306,7.227A14.251,14.251,0,0,1,1168.69,131.31Zm-8.827,4.824a17.074,17.074,0,0,1,1.122,3.945l-11.85-11.722C1154.358,129.081,1157.965,131.693,1159.863,136.134Zm-12.113-5.535,11.349,11.227C1151.468,140.531,1148.724,134.882,1147.749,130.6Zm18.165,11.232,7.95-7.865q.948.368,1.96.686a12.848,12.848,0,0,1-9.91,7.179Zm39.827-10.422a14.309,14.309,0,0,1,4.532,8.663l-7.214-7.136a27,27,0,0,0,2.682-1.527Zm9.474,10.416,11.349-11.227c-.974,4.283-3.719,9.932-11.349,11.227Z" transform="translate(-1144.878 -67.824)" fill="#00223d"/>
      <path id="Trazado_26163" data-name="Trazado 26163" d="M1159.06,98.345,1163,99.368a1.284,1.284,0,1,0,.644-2.485L1159.7,95.86a1.284,1.284,0,0,0-.645,2.485Z" transform="translate(-1150.48 -79.682)" fill="#00223d"/>
      <path id="Trazado_26164" data-name="Trazado 26164" d="M1166.874,81.686l3.324,2.356a1.284,1.284,0,0,0,1.485-2.1l-3.324-2.356a1.284,1.284,0,1,0-1.484,2.095Z" transform="translate(-1153.969 -72.706)" fill="#00223d"/>
      <path id="Trazado_26165" data-name="Trazado 26165" d="M1182.571,73.352a1.284,1.284,0,1,0,2.36-1.011l-1.6-3.745a1.284,1.284,0,0,0-2.36,1.012Z" transform="translate(-1160.126 -67.817)" fill="#00223d"/>
      <path id="Trazado_26166" data-name="Trazado 26166" d="M1267.133,98.447a1.287,1.287,0,0,0,1.565.921l3.944-1.023A1.284,1.284,0,1,0,1272,95.86l-3.944,1.022A1.284,1.284,0,0,0,1267.133,98.447Z" transform="translate(-1196.666 -79.682)" fill="#00223d"/>
      <path id="Trazado_26167" data-name="Trazado 26167" d="M1261.22,84.278a1.279,1.279,0,0,0,.742-.236l3.324-2.356a1.284,1.284,0,0,0-1.485-2.1l-3.324,2.356a1.284,1.284,0,0,0,.743,2.332Z" transform="translate(-1193.633 -72.706)" fill="#00223d"/>
      <path id="Trazado_26168" data-name="Trazado 26168" d="M1249.166,74.027a1.286,1.286,0,0,0,1.686-.675l1.6-3.744a1.284,1.284,0,1,0-2.36-1.012l-1.6,3.745A1.284,1.284,0,0,0,1249.166,74.027Z" transform="translate(-1188.74 -67.817)" fill="#00223d"/>
    </g>
  </g>
</svg>
