<svg xmlns="http://www.w3.org/2000/svg" width="151" height="151" viewBox="0 0 151 151">
  <g id="Grupo_17118" data-name="Grupo 17118" transform="translate(-640 1637)">
    <rect id="Rectángulo_4282" data-name="Rectángulo 4282" width="151" height="151" transform="translate(640 -1637)" fill="none"/>
    <g id="Grupo_17112" data-name="Grupo 17112" transform="translate(-1435.076 -1356.888)">
      <g id="Grupo_16803" data-name="Grupo 16803" transform="translate(2113.799 -202.305)">
        <g id="Grupo_16801" data-name="Grupo 16801" transform="translate(13.233)">
          <path id="Trazado_26321" data-name="Trazado 26321" d="M2161.443-192.829h0a9.463,9.463,0,0,1-5.358-8.527v-3.668h-2.856a16.081,16.081,0,0,1-7.221,1.7,16.1,16.1,0,0,1-7.22-1.7h-3.858a13.889,13.889,0,0,0-8.806,3.134L2157.03-185.8a26.54,26.54,0,0,1,4.413-7.034Z" transform="translate(-2126.124 205.024)" fill="#80d261"/>
        </g>
        <g id="Grupo_16802" data-name="Grupo 16802" transform="translate(0 14.582)">
          <path id="Trazado_26322" data-name="Trazado 26322" d="M2124.248-156.747a17.178,17.178,0,0,1-3.053-.276v5.506a1.182,1.182,0,0,0,1.182,1.182h27.214l-10.537-14.952a17.091,17.091,0,0,1-14.806,8.54Z" transform="translate(-2113.114 192.24)" fill="#80d261"/>
          <path id="Trazado_26323" data-name="Trazado 26323" d="M2120.409-191.073l-6.945,18.394h19.908Z" transform="translate(-2113.464 191.073)" fill="#80d261"/>
        </g>
      </g>
      <g id="Grupo_16805" data-name="Grupo 16805" transform="translate(2113.799 -202.305)">
        <g id="Grupo_16804" data-name="Grupo 16804">
          <path id="Trazado_26324" data-name="Trazado 26324" d="M2138.788-205.024h-3.858a13.891,13.891,0,0,0-8.806,3.134l5.35,2.786a13.968,13.968,0,0,1,8.141-5.534c-.281-.12-.554-.25-.826-.386Z" transform="translate(-2112.891 205.024)" fill="#68ca44"/>
          <path id="Trazado_26325" data-name="Trazado 26325" d="M2120.409-191.073l-6.945,18.394h7.948l4.172-11.05Z" transform="translate(-2113.464 205.655)" fill="#68ca44"/>
        </g>
        <path id="Trazado_26326" data-name="Trazado 26326" d="M2129.143-151.856V-157.8a17.124,17.124,0,0,1-4.9.712,17.178,17.178,0,0,1-3.053-.276v5.506a1.182,1.182,0,0,0,1.182,1.182h7.948a1.182,1.182,0,0,1-1.182-1.182Z" transform="translate(-2113.114 207.161)" fill="#68ca44"/>
      </g>
      <path id="Trazado_26327" data-name="Trazado 26327" d="M2145.441-203.332a16.109,16.109,0,0,1-6.77-1.485l5.68,9.838a1.26,1.26,0,0,0,2.181,0l5.68-9.838A16.107,16.107,0,0,1,2145.441-203.332Z" transform="translate(1.475 2.729)" fill="#ffc495"/>
      <g id="Grupo_16808" data-name="Grupo 16808" transform="translate(2122.51 -263.338)">
        <path id="Trazado_26328" data-name="Trazado 26328" d="M2141.322-252.463h8.624a16.929,16.929,0,0,1,5.606.952,7.61,7.61,0,0,0,1.292-4.243,7.685,7.685,0,0,0-7.663-7.662h-7.094a7.685,7.685,0,0,0-7.663,7.662,7.6,7.6,0,0,0,1.292,4.243,16.93,16.93,0,0,1,5.606-.952Z" transform="translate(-2121.228 263.415)" fill="#a44f3e"/>
        <path id="Trazado_26329" data-name="Trazado 26329" d="M2141.221-252.461a7.582,7.582,0,0,1-.749-3.292,7.685,7.685,0,0,1,7.662-7.663h-6.048a7.685,7.685,0,0,0-7.663,7.663,7.6,7.6,0,0,0,1.292,4.242A16.932,16.932,0,0,1,2141.221-252.461Z" transform="translate(-2121.228 263.415)" fill="#883f2e"/>
        <path id="Trazado_26330" data-name="Trazado 26330" d="M2127.762-227.925h2.368V-229.9a.948.948,0,0,1,.559-.863l17.466-7.82a4.083,4.083,0,0,1,1.684-.361h8.047a4.128,4.128,0,0,1,4.123,4.124v6.9h2.37a5.82,5.82,0,0,1,2.976.815v-8.855a16.971,16.971,0,0,0-16.972-16.972h-8.624a16.971,16.971,0,0,0-16.972,16.972v8.855a5.823,5.823,0,0,1,2.976-.815Z" transform="translate(-2121.664 263.889)" fill="#883f2e"/>
        <path id="Trazado_26331" data-name="Trazado 26331" d="M2127.762-228.161h2.132v-1.74a1.182,1.182,0,0,1,.7-1.079l2.039-.914v-4.071a16.971,16.971,0,0,1,16.971-16.972h-7.845a16.971,16.971,0,0,0-16.972,16.972v8.579A6.071,6.071,0,0,1,2127.762-228.161Z" transform="translate(-2121.664 263.889)" fill="#6d3326"/>
        <g id="Grupo_16806" data-name="Grupo 16806" transform="translate(0 35.728)">
          <path id="Trazado_26332" data-name="Trazado 26332" d="M2130.029-218.4v-10.832H2127.9a6.1,6.1,0,0,0-6.1,6.1v2.562a6.1,6.1,0,0,0,6.1,6.1h2.614A16.188,16.188,0,0,1,2130.029-218.4Z" transform="translate(-2121.799 229.234)" fill="#ffc495"/>
          <path id="Trazado_26333" data-name="Trazado 26333" d="M2168.76-219.5a6.171,6.171,0,0,0,.1-1.076v-2.562a6.1,6.1,0,0,0-6.1-6.1h-2.133V-218.4c0,.528-.027,1.049-.076,1.565A14.288,14.288,0,0,1,2168.76-219.5Z" transform="translate(-2120.045 229.234)" fill="#ffc495"/>
        </g>
        <path id="Trazado_26334" data-name="Trazado 26334" d="M2161.948-216.36c.05-.515.077-1.037.077-1.565v-17.492a4.36,4.36,0,0,0-4.36-4.36h-8.046a4.363,4.363,0,0,0-1.782.382l-17.464,7.82a1.183,1.183,0,0,0-.7,1.079v12.572a16.176,16.176,0,0,0,16.175,16.175,16.1,16.1,0,0,0,10.093-3.539,14.331,14.331,0,0,1,6.006-11.071Z" transform="translate(-2121.443 264.485)" fill="#ffe6c3"/>
        <g id="Grupo_16807" data-name="Grupo 16807" transform="translate(8.23 30.513)">
          <path id="Trazado_26335" data-name="Trazado 26335" d="M2151.9-204.084a16.176,16.176,0,0,1-16.175-16.175v-13.964l-5.349,2.4a1.183,1.183,0,0,0-.7,1.079v12.572A16.176,16.176,0,0,0,2145.848-202a16.1,16.1,0,0,0,8.191-2.228A16.258,16.258,0,0,1,2151.9-204.084Z" transform="translate(-2129.673 234.223)" fill="#ffd2a9"/>
        </g>
      </g>
      <path id="Trazado_26336" data-name="Trazado 26336" d="M2181.553-172.535v-2.121a2.82,2.82,0,0,1,2.817-2.817h.863c-1.473-7.464-4.522-13.6-8.437-17.13a14.279,14.279,0,0,1-7.693,2.237h-4.889a9.424,9.424,0,0,1-4.1-.934,26.723,26.723,0,0,0-4.511,7.249Z" transform="translate(2.241 3.191)" fill="#00a7d3"/>
      <path id="Trazado_26337" data-name="Trazado 26337" d="M2162.229-182.656a30.932,30.932,0,0,1,5.021-9.767h-3.037a9.424,9.424,0,0,1-4.1-.934,26.723,26.723,0,0,0-4.511,7.249Z" transform="translate(2.241 3.248)" fill="#0096d3"/>
      <path id="Trazado_26338" data-name="Trazado 26338" d="M2168.7-192.412h-4.193l3.509,6.078a1.259,1.259,0,0,0,2.181,0l4.186-7.249a14.3,14.3,0,0,1-5.682,1.171Z" transform="translate(2.644 3.237)" fill="#ffb392"/>
      <g id="Grupo_16809" data-name="Grupo 16809" transform="translate(2156.993 -217.877)">
        <path id="Trazado_26339" data-name="Trazado 26339" d="M2169.139-191.22a14.352,14.352,0,0,0,14.336-15.029,14.4,14.4,0,0,0-13.658-13.657,14.351,14.351,0,0,0-15.029,14.335v4.889a9.462,9.462,0,0,0,9.463,9.463Z" transform="translate(-2154.788 219.922)" fill="#ffc495"/>
      </g>
      <g id="Grupo_16810" data-name="Grupo 16810" transform="translate(2156.993 -217.877)">
        <path id="Trazado_26340" data-name="Trazado 26340" d="M2160.743-198.733v-4.89a14.351,14.351,0,0,1,15.029-14.335c.225.01.449.026.67.047a14.188,14.188,0,0,0-6.625-2,14.351,14.351,0,0,0-15.029,14.335v4.89a9.462,9.462,0,0,0,9.463,9.462h.2a9.445,9.445,0,0,1-3.712-7.512Z" transform="translate(-2154.788 219.922)" fill="#ffb392"/>
      </g>
      <path id="Trazado_26341" data-name="Trazado 26341" d="M2186.027-164.533a3.053,3.053,0,0,1-3.053-3.053v-4.988l-56.683-29.518a2.519,2.519,0,0,0-3.385,1.048l-3.638,6.813a2.521,2.521,0,0,0,.163,2.637l13.692,19.427h7.6a.711.711,0,0,1,.711.741,16.991,16.991,0,0,1-2.278,7.817l10.537,14.952h25.936a12.232,12.232,0,0,0,12.233-12.233v-3.645Z" transform="translate(0.584 2.839)" fill="#fac600"/>
      <path id="Trazado_26342" data-name="Trazado 26342" d="M2127.444-191.594a2.519,2.519,0,0,1-.163-2.637l3.068-5.748-4.058-2.114a2.519,2.519,0,0,0-3.385,1.048l-3.638,6.813a2.521,2.521,0,0,0,.163,2.637l13.692,19.427h7.6a.71.71,0,0,1,.711.74,16.992,16.992,0,0,1-2.278,7.819l10.537,14.952h8.013Z" transform="translate(0.584 2.839)" fill="#e8b800"/>
      <g id="Grupo_16813" data-name="Grupo 16813" transform="translate(2155.52 -157.913)">
        <g id="Grupo_16811" data-name="Grupo 16811">
          <path id="Trazado_26343" data-name="Trazado 26343" d="M2169.158-150.458h-15.78v-11.624a.473.473,0,0,1,.474-.472h14.832a.473.473,0,0,1,.474.472Z" transform="translate(-2153.379 162.555)" fill="#fd4755"/>
        </g>
        <g id="Grupo_16812" data-name="Grupo 16812">
          <path id="Trazado_26344" data-name="Trazado 26344" d="M2159.778-162.555h-5.925a.473.473,0,0,0-.474.472v11.624h5.927v-11.624A.472.472,0,0,1,2159.778-162.555Z" transform="translate(-2153.379 162.555)" fill="#fb2b3a"/>
        </g>
      </g>
      <g id="Grupo_16816" data-name="Grupo 16816" transform="translate(2130.514 -194.663)">
        <g id="Grupo_16814" data-name="Grupo 16814">
          <path id="Trazado_26345" data-name="Trazado 26345" d="M2134.631-197.713l-5.115,9.105a.472.472,0,0,0,.181.644l13.111,7.364a.472.472,0,0,0,.644-.181l5.362-9.546Z" transform="translate(-2129.456 197.713)" fill="#fff"/>
        </g>
        <g id="Grupo_16815" data-name="Grupo 16815">
          <path id="Trazado_26346" data-name="Trazado 26346" d="M2135.737-187.963a.473.473,0,0,1-.181-.644l3.747-6.673-4.672-2.433-5.115,9.106a.473.473,0,0,0,.181.644l13.111,7.363a.473.473,0,0,0,.644-.18l1.217-2.167Z" transform="translate(-2129.456 197.713)" fill="#eaf6ff"/>
        </g>
      </g>
      <g id="Grupo_16817" data-name="Grupo 16817" transform="translate(2183.558 -174.518)">
        <path id="Trazado_26347" data-name="Trazado 26347" d="M2187.225-165.617h-3.969a3.053,3.053,0,0,1-3.053-3.053v-6.718a3.053,3.053,0,0,1,3.053-3.053h3.969a3.054,3.054,0,0,1,3.054,3.053v6.718A3.054,3.054,0,0,1,2187.225-165.617Z" transform="translate(-2180.203 178.441)" fill="#ffe6c3"/>
      </g>
      <g id="Grupo_16818" data-name="Grupo 16818" transform="translate(2183.558 -174.518)">
        <path id="Trazado_26348" data-name="Trazado 26348" d="M2184.129-168.67v-6.718a3.054,3.054,0,0,1,3.054-3.053h-3.927a3.053,3.053,0,0,0-3.053,3.053v6.718a3.053,3.053,0,0,0,3.053,3.053h3.927A3.054,3.054,0,0,1,2184.129-168.67Z" transform="translate(-2180.203 178.441)" fill="#ffd2a9"/>
      </g>
      <path id="Trazado_26349" data-name="Trazado 26349" d="M2141.229-173.475h-32.746a.711.711,0,0,0-.71.74,17.008,17.008,0,0,0,3.084,9.076l1.594-1.594a3.053,3.053,0,0,1,4.318,0l4.751,4.75a3.054,3.054,0,0,1,.371,3.865,17.114,17.114,0,0,0,2.965.261,17.1,17.1,0,0,0,17.084-16.358A.711.711,0,0,0,2141.229-173.475Z" transform="translate(0.077 4.147)" fill="#fe9901"/>
      <g id="Grupo_16819" data-name="Grupo 16819" transform="translate(2107.848 -169.328)">
        <path id="Trazado_26350" data-name="Trazado 26350" d="M2112.451-165.253a3.053,3.053,0,0,1,4.318,0l.667.667a17,17,0,0,1-2.476-8.149.712.712,0,0,1,.711-.74h-7.187a.711.711,0,0,0-.71.74,17.008,17.008,0,0,0,3.084,9.076Z" transform="translate(-2107.771 173.475)" fill="#fb8801"/>
      </g>
      <g id="Grupo_16820" data-name="Grupo 16820" transform="translate(2108.826 -162)">
        <path id="Trazado_26351" data-name="Trazado 26351" d="M2121.476-156.5l-2.807,2.807a3.053,3.053,0,0,1-4.318,0l-4.75-4.75a3.056,3.056,0,0,1,0-4.319l2.807-2.807a3.053,3.053,0,0,1,4.318,0l4.75,4.75A3.055,3.055,0,0,1,2121.476-156.5Z" transform="translate(-2108.707 166.465)" fill="#ffe6c3"/>
      </g>
      <g id="Grupo_16821" data-name="Grupo 16821" transform="translate(2108.826 -162)">
        <path id="Trazado_26352" data-name="Trazado 26352" d="M2114.628-158.445a3.054,3.054,0,0,1,0-4.319l2.452-2.452-.354-.354a3.053,3.053,0,0,0-4.318,0l-2.807,2.807a3.056,3.056,0,0,0,0,4.319l4.75,4.75a3.053,3.053,0,0,0,4.318,0l.354-.354Z" transform="translate(-2108.707 166.465)" fill="#ffd2a9"/>
      </g>
      <g id="Grupo_16822" data-name="Grupo 16822" transform="translate(2106.076 -265.112)">
        <path id="Trazado_26353" data-name="Trazado 26353" d="M2190.58-176.292h-1.723a39.515,39.515,0,0,0-3.875-10.3,26.028,26.028,0,0,0-3.236-4.61,16.833,16.833,0,0,0,1.26-1.186,16.005,16.005,0,0,0,4.445-11.9,16.239,16.239,0,0,0-14.355-15.267v-1.961a7.865,7.865,0,0,0-3.123-6.272v-6.232h3.224a1.774,1.774,0,0,0,1.774-1.774,1.774,1.774,0,0,0-1.774-1.774h-3.35a18.683,18.683,0,0,0-5.05-10.763l3.238-3.238a1.772,1.772,0,0,0,0-2.508,1.772,1.772,0,0,0-2.507,0l-3.414,3.413a18.671,18.671,0,0,0-2.83-1.677,9.37,9.37,0,0,0,.616-3.339,9.449,9.449,0,0,0-9.437-9.437h-7.094a9.447,9.447,0,0,0-9.436,9.437,9.369,9.369,0,0,0,.615,3.339,18.869,18.869,0,0,0-8.7,8.54l-1.287-1.287a1.772,1.772,0,0,0-2.508,0,1.772,1.772,0,0,0,0,2.508l2.419,2.419a18.672,18.672,0,0,0-.61,4.743v7.63a7.863,7.863,0,0,0-3.122,6.272v2.561a7.881,7.881,0,0,0,7.872,7.872h1.291a17.99,17.99,0,0,0,4.435,7.076,15.737,15.737,0,0,0-7.578,2.826,4.308,4.308,0,0,0-4.833,2.137l-3.637,6.813a4.27,4.27,0,0,0,.278,4.494l.186.264-6.179,16.368h-4.013a2.5,2.5,0,0,0-1.795.766,2.494,2.494,0,0,0-.688,1.824,18.8,18.8,0,0,0,2.582,8.767l-.194.192a4.834,4.834,0,0,0,0,6.827l4.751,4.75a4.81,4.81,0,0,0,3.413,1.411,4.811,4.811,0,0,0,3.413-1.411l.063-.063V-147a2.96,2.96,0,0,0,2.956,2.956h9.708a1.774,1.774,0,0,0,1.774-1.774,1.773,1.773,0,0,0-1.774-1.773h-9.117v-2.91c.423.028.85.044,1.28.044a18.827,18.827,0,0,0,14.842-7.184l7.082,10.05h-5.81a1.773,1.773,0,0,0-1.774,1.773,1.774,1.774,0,0,0,1.774,1.774h35.165a14.022,14.022,0,0,0,14.005-14.006v-1.871h.364a4.832,4.832,0,0,0,4.827-4.827v-6.718a4.832,4.832,0,0,0-4.827-4.827ZM2171.34-216.1c.2,0,.4.005.6.015a12.655,12.655,0,0,1,11.968,11.967,12.488,12.488,0,0,1-3.468,9.282,12.469,12.469,0,0,1-9.1,3.893h-4.888a7.7,7.7,0,0,1-7.689-7.689v-4.889a12.472,12.472,0,0,1,3.891-9.1,12.476,12.476,0,0,1,8.682-3.481Zm2.013,28.575-1.6,2.774-1.528-2.647h1.122A16.416,16.416,0,0,0,2173.353-187.529Zm-28.49,5.088.2.11-1.459,2.6-1.2-.676.241-.427a1.774,1.774,0,0,0-.677-2.416,1.773,1.773,0,0,0-2.415.678l-.24.427-2.249-1.264.24-.428a1.773,1.773,0,0,0-.679-2.415,1.773,1.773,0,0,0-2.415.677l-.24.429-1.2-.676,1.459-2.6.2.11a1.761,1.761,0,0,0,.866.228,1.773,1.773,0,0,0,1.548-.905,1.773,1.773,0,0,0-.677-2.415l-.2-.11.441-.784,11.035,5.747-.633,1.127-.2-.11a1.772,1.772,0,0,0-2.414.677,1.773,1.773,0,0,0,.677,2.415Zm1.607-10.7v0Zm.446-.771-2.985-5.171a18.019,18.019,0,0,0,2.985.25,17.935,17.935,0,0,0,2.988-.252Zm2.627,2.544,5.293-9.167h.384v1.894a11.214,11.214,0,0,0,4.477,8.964,28.061,28.061,0,0,0-1.991,3.078c-.2.357-.392.723-.581,1.094l-8.911-4.64a3.007,3.007,0,0,0,1.33-1.224Zm20.005-30.149v1.17l-4.683-1.559v-3.935h.359a4.328,4.328,0,0,1,4.323,4.324Zm-26.178-40.051h7.094a5.9,5.9,0,0,1,5.889,5.889,5.854,5.854,0,0,1-.4,2.12,18.734,18.734,0,0,0-4.725-.6H2142.6a18.73,18.73,0,0,0-4.724.6,5.844,5.844,0,0,1-.4-2.12,5.9,5.9,0,0,1,5.889-5.889Zm-14.761,46.937a4.329,4.329,0,0,1-4.324-4.324v-2.562a4.329,4.329,0,0,1,4.324-4.324h.359v9.059a18.038,18.038,0,0,0,.133,2.151Zm3.906-2.151v-12.19l6.539-2.928a1.774,1.774,0,0,0,.894-2.343,1.774,1.774,0,0,0-2.344-.894l-6.889,3.085a2.959,2.959,0,0,0-1.745,2.664h-.36a7.859,7.859,0,0,0-1.2.092v-6.123a15.214,15.214,0,0,1,15.2-15.2h8.625a15.214,15.214,0,0,1,15.2,15.2v6.123a7.858,7.858,0,0,0-1.2-.092h-.359v-4.887a6.141,6.141,0,0,0-6.133-6.134h-8.048a6.094,6.094,0,0,0-2.506.536l-3.019,1.352a1.773,1.773,0,0,0-.895,2.343,1.774,1.774,0,0,0,2.343.894l3.019-1.352a2.565,2.565,0,0,1,1.057-.226h8.048a2.589,2.589,0,0,1,2.586,2.586v11.246a1.772,1.772,0,0,0-1.815,1.206,1.774,1.774,0,0,0,1.123,2.243l.692.231v.847h-3.406a1.774,1.774,0,0,0-1.774,1.774,1.773,1.773,0,0,0,1.774,1.773h2.059a15.95,15.95,0,0,0-4.677,9.876,14.311,14.311,0,0,1-8.378,2.7,14.418,14.418,0,0,1-14.4-14.4Zm3.323,16.247H2139l4.616,8-13.038-6.79A12.108,12.108,0,0,1,2135.838-200.531Zm-14.617,16.564,9.066,12.865h-13.924Zm-.879,30.675-2.807,2.807a1.28,1.28,0,0,1-1.81,0l-4.75-4.75a1.282,1.282,0,0,1,0-1.81l2.807-2.807a1.274,1.274,0,0,1,.905-.374,1.274,1.274,0,0,1,.905.374l4.75,4.751A1.281,1.281,0,0,1,2120.342-153.291Zm19.357-11.915h-9.3a1.773,1.773,0,0,0-1.774,1.773,1.774,1.774,0,0,0,1.774,1.774h7.818a15.268,15.268,0,0,1-1.1,1.656h-6.952a1.772,1.772,0,0,0-1.772,1.773,1.773,1.773,0,0,0,1.772,1.774h3.111a15.3,15.3,0,0,1-8.339,2.455c-.228,0-.455-.006-.68-.017a4.81,4.81,0,0,0-1.4-3.59l-4.75-4.751a4.833,4.833,0,0,0-6.826,0v0a15.212,15.212,0,0,1-1.564-5.2h30.448a15.516,15.516,0,0,1-.458,2.349Zm29.826,11.962h-.2a1.773,1.773,0,0,0-1.773,1.774,1.772,1.772,0,0,0,1.773,1.773h.2v2.107h-12.232V-149.7h.2a1.773,1.773,0,0,0,1.774-1.773,1.774,1.774,0,0,0-1.774-1.774h-.2v-2.9h1.318v.462a1.774,1.774,0,0,0,1.773,1.774,1.774,1.774,0,0,0,1.774-1.774v-.462h2.5v.462a1.774,1.774,0,0,0,1.774,1.774,1.774,1.774,0,0,0,1.774-1.774v-.462h1.318Zm17.144-4.805a10.47,10.47,0,0,1-10.459,10.459h-3.139V-149.7h.462a1.772,1.772,0,0,0,1.774-1.773,1.773,1.773,0,0,0-1.774-1.774h-.462v-4.2a2.249,2.249,0,0,0-2.246-2.246h-2.618v-.2a1.774,1.774,0,0,0-1.774-1.774,1.773,1.773,0,0,0-1.773,1.774v.2h-2.5v-.2a1.773,1.773,0,0,0-1.773-1.774,1.774,1.774,0,0,0-1.774,1.774v.2h-2.618a2.25,2.25,0,0,0-2.248,2.246v4.2h-.462a1.773,1.773,0,0,0-1.773,1.774,1.773,1.773,0,0,0,1.773,1.773h.462v2.107h-2.55l-9.371-13.3a18.847,18.847,0,0,0,1.963-7.626,2.5,2.5,0,0,0-.689-1.823,2.5,2.5,0,0,0-1.793-.766h-6.679l-13.161-18.676a.741.741,0,0,1-.049-.78l3.637-6.813a.746.746,0,0,1,1-.31l7.192,3.744-.386.687-.427-.24a1.775,1.775,0,0,0-2.416.677,1.775,1.775,0,0,0,.678,2.416l.428.24-2.1,3.73a2.233,2.233,0,0,0-.2,1.708,2.233,2.233,0,0,0,1.062,1.352l2.339,1.313-.11.2a1.775,1.775,0,0,0,.678,2.416,1.771,1.771,0,0,0,.866.227,1.774,1.774,0,0,0,1.548-.905l.11-.2,2.25,1.263-.11.2a1.773,1.773,0,0,0,.677,2.415,1.77,1.77,0,0,0,.866.227,1.773,1.773,0,0,0,1.548-.905l.11-.2L2143-176a2.234,2.234,0,0,0,1.1.286,2.248,2.248,0,0,0,1.963-1.146l2.1-3.732.427.24a1.773,1.773,0,0,0,.868.227,1.772,1.772,0,0,0,1.547-.905,1.773,1.773,0,0,0-.677-2.415l-.428-.24.688-1.225,18.718,9.748a1.774,1.774,0,0,0,2.392-.755,1.773,1.773,0,0,0-.754-2.392l-10.662-5.552c.171-.34.347-.674.53-1a23.787,23.787,0,0,1,2.074-3.128,11.158,11.158,0,0,0,3.246.58l3,5.2a3,3,0,0,0,2.627,1.517,3,3,0,0,0,2.627-1.517h0l3.9-6.746c.165-.079.329-.163.493-.248a21.934,21.934,0,0,1,3.123,4.342,35.564,35.564,0,0,1,3.368,8.768,4.842,4.842,0,0,0-3.335,3.508l-3.641-1.9a1.773,1.773,0,0,0-2.392.754,1.772,1.772,0,0,0,.753,2.392l5.143,2.678v3.911a4.832,4.832,0,0,0,4.827,4.827h.058v1.872Zm5.191-6.7a1.281,1.281,0,0,1-1.279,1.279h-3.97a1.281,1.281,0,0,1-1.28-1.279v-6.718a1.282,1.282,0,0,1,1.28-1.28h3.97a1.281,1.281,0,0,1,1.279,1.28Z" transform="translate(-2106.076 265.112)" fill="#00223d"/>
      </g>
    </g>
  </g>
</svg>
