<svg xmlns="http://www.w3.org/2000/svg" width="151" height="151" viewBox="0 0 151 151">
  <g id="Grupo_17115" data-name="Grupo 17115" transform="translate(-640 2211)">
    <rect id="Rectángulo_4279" data-name="Rectángulo 4279" width="151" height="151" transform="translate(640 -2211)" fill="none"/>
    <g id="Grupo_17109" data-name="Grupo 17109" transform="translate(-1307.449 -1925.05)">
      <rect id="Rectángulo_4096" data-name="Rectángulo 4096" width="55.155" height="106.371" transform="translate(1994.967 -260.1)" fill="#4398d1"/>
      <path id="Trazado_26292" data-name="Trazado 26292" d="M1994.969-183.277v29.547h55.155V-244.56Z" fill="#3f8fc4"/>
      <rect id="Rectángulo_4097" data-name="Rectángulo 4097" width="39.397" height="7.879" transform="translate(2002.846 -267.98)" fill="#4398d1"/>
      <rect id="Rectángulo_4098" data-name="Rectángulo 4098" width="39.397" height="3.94" transform="translate(2002.846 -264.04)" fill="#3f8fc4"/>
      <g id="Grupo_16797" data-name="Grupo 16797">
        <rect id="Rectángulo_4099" data-name="Rectángulo 4099" width="7.879" height="7.879" transform="translate(2002.846 -250.251)" fill="#87ced9"/>
        <rect id="Rectángulo_4100" data-name="Rectángulo 4100" width="7.879" height="7.879" transform="translate(2018.605 -250.251)" fill="#87ced9"/>
        <rect id="Rectángulo_4101" data-name="Rectángulo 4101" width="7.879" height="7.879" transform="translate(2034.363 -250.251)" fill="#87ced9"/>
        <rect id="Rectángulo_4102" data-name="Rectángulo 4102" width="7.879" height="7.879" transform="translate(2002.846 -234.492)" fill="#87ced9"/>
        <rect id="Rectángulo_4103" data-name="Rectángulo 4103" width="7.879" height="7.879" transform="translate(2018.605 -234.492)" fill="#87ced9"/>
        <rect id="Rectángulo_4104" data-name="Rectángulo 4104" width="7.879" height="7.879" transform="translate(2034.363 -234.492)" fill="#87ced9"/>
        <rect id="Rectángulo_4105" data-name="Rectángulo 4105" width="7.879" height="7.879" transform="translate(2002.846 -218.734)" fill="#87ced9"/>
        <rect id="Rectángulo_4106" data-name="Rectángulo 4106" width="7.879" height="7.879" transform="translate(2018.605 -218.734)" fill="#87ced9"/>
        <rect id="Rectángulo_4107" data-name="Rectángulo 4107" width="7.879" height="7.879" transform="translate(2034.363 -218.734)" fill="#87ced9"/>
        <rect id="Rectángulo_4108" data-name="Rectángulo 4108" width="7.879" height="7.879" transform="translate(2002.846 -202.975)" fill="#87ced9"/>
        <rect id="Rectángulo_4109" data-name="Rectángulo 4109" width="7.879" height="7.879" transform="translate(2018.605 -202.975)" fill="#87ced9"/>
        <rect id="Rectángulo_4110" data-name="Rectángulo 4110" width="7.879" height="7.879" transform="translate(2034.363 -202.975)" fill="#87ced9"/>
        <rect id="Rectángulo_4111" data-name="Rectángulo 4111" width="7.879" height="7.879" transform="translate(2002.846 -187.217)" fill="#87ced9"/>
        <rect id="Rectángulo_4112" data-name="Rectángulo 4112" width="7.879" height="7.879" transform="translate(2018.605 -187.217)" fill="#87ced9"/>
        <rect id="Rectángulo_4113" data-name="Rectángulo 4113" width="7.879" height="7.879" transform="translate(2034.363 -187.217)" fill="#87ced9"/>
        <rect id="Rectángulo_4114" data-name="Rectángulo 4114" width="23.638" height="15.759" transform="translate(2010.725 -169.488)" fill="#87ced9"/>
      </g>
      <rect id="Rectángulo_4115" data-name="Rectángulo 4115" width="3.94" height="15.759" transform="translate(2020.574 -169.488)" fill="#61acc9"/>
      <path id="Trazado_26293" data-name="Trazado 26293" d="M1982.756-184.756a7.937,7.937,0,0,0,.151-4.452,7.805,7.805,0,0,0-5.74-5.667,7.891,7.891,0,0,0-9.547,5.781,7.835,7.835,0,0,0-.229,1.877,7.848,7.848,0,0,0,.276,2.063,11.385,11.385,0,0,1-.926,8.771,9.849,9.849,0,0,0,3.6,13.454,9.849,9.849,0,0,0,13.454-3.6,9.852,9.852,0,0,0,.161-9.56A11.08,11.08,0,0,1,1982.756-184.756Z" fill="#88b337"/>
      <rect id="Rectángulo_4116" data-name="Rectángulo 4116" width="3.94" height="35.457" transform="translate(1973.298 -187.217)" fill="#79a125"/>
      <path id="Trazado_26294" data-name="Trazado 26294" d="M2077.308-184.756a7.938,7.938,0,0,0,.151-4.452,7.805,7.805,0,0,0-5.74-5.667,7.893,7.893,0,0,0-9.548,5.781,7.89,7.89,0,0,0-.228,1.877,7.843,7.843,0,0,0,.276,2.063,11.387,11.387,0,0,1-.926,8.779,9.849,9.849,0,0,0,3.6,13.454,9.849,9.849,0,0,0,13.454-3.6,9.85,9.85,0,0,0,.161-9.559A11.08,11.08,0,0,1,2077.308-184.756Z" fill="#88b337"/>
      <rect id="Rectángulo_4117" data-name="Rectángulo 4117" width="3.94" height="35.457" transform="translate(2067.851 -187.217)" fill="#79a125"/>
      <rect id="Rectángulo_4118" data-name="Rectángulo 4118" width="118.19" height="3.94" transform="translate(1963.45 -155.699)" fill="#e0d2c1"/>
      <path id="Trazado_26295" data-name="Trazado 26295" d="M2010.727-252.221h-7.879a1.971,1.971,0,0,0-1.97,1.97v7.879a1.971,1.971,0,0,0,1.97,1.97h7.879a1.97,1.97,0,0,0,1.97-1.97v-7.879A1.971,1.971,0,0,0,2010.727-252.221Zm-1.97,7.879h-3.939v-3.939h3.939Z" fill="#00223d"/>
      <path id="Trazado_26296" data-name="Trazado 26296" d="M2026.486-252.221h-7.879a1.971,1.971,0,0,0-1.97,1.97v7.879a1.971,1.971,0,0,0,1.97,1.97h7.879a1.971,1.971,0,0,0,1.97-1.97v-7.879A1.971,1.971,0,0,0,2026.486-252.221Zm-1.97,7.879h-3.94v-3.939h3.94Z" fill="#00223d"/>
      <path id="Trazado_26297" data-name="Trazado 26297" d="M2034.365-252.221a1.971,1.971,0,0,0-1.97,1.97v7.879a1.971,1.971,0,0,0,1.97,1.97h7.88a1.97,1.97,0,0,0,1.969-1.97v-7.879a1.97,1.97,0,0,0-1.969-1.97Zm5.91,7.879h-3.94v-3.939h3.94Z" fill="#00223d"/>
      <path id="Trazado_26298" data-name="Trazado 26298" d="M2010.727-236.462h-7.879a1.97,1.97,0,0,0-1.97,1.969v7.88a1.971,1.971,0,0,0,1.97,1.97h7.879a1.971,1.971,0,0,0,1.97-1.97v-7.88A1.97,1.97,0,0,0,2010.727-236.462Zm-1.97,7.879h-3.939v-3.94h3.939Z" fill="#00223d"/>
      <path id="Trazado_26299" data-name="Trazado 26299" d="M2026.486-236.462h-7.879a1.97,1.97,0,0,0-1.97,1.969v7.88a1.971,1.971,0,0,0,1.97,1.97h7.879a1.971,1.971,0,0,0,1.97-1.97v-7.88A1.97,1.97,0,0,0,2026.486-236.462Zm-1.97,7.879h-3.94v-3.94h3.94Z" fill="#00223d"/>
      <path id="Trazado_26300" data-name="Trazado 26300" d="M2042.245-236.462h-7.88a1.97,1.97,0,0,0-1.97,1.969v7.88a1.971,1.971,0,0,0,1.97,1.97h7.88a1.97,1.97,0,0,0,1.969-1.97v-7.88A1.97,1.97,0,0,0,2042.245-236.462Zm-1.97,7.879h-3.94v-3.94h3.94Z" fill="#00223d"/>
      <path id="Trazado_26301" data-name="Trazado 26301" d="M2010.727-220.7h-7.879a1.971,1.971,0,0,0-1.97,1.97v7.88a1.97,1.97,0,0,0,1.97,1.969h7.879a1.97,1.97,0,0,0,1.97-1.969v-7.88A1.971,1.971,0,0,0,2010.727-220.7Zm-1.97,7.88h-3.939v-3.94h3.939Z" fill="#00223d"/>
      <path id="Trazado_26302" data-name="Trazado 26302" d="M2026.486-220.7h-7.879a1.971,1.971,0,0,0-1.97,1.97v7.88a1.97,1.97,0,0,0,1.97,1.969h7.879a1.97,1.97,0,0,0,1.97-1.969v-7.88A1.971,1.971,0,0,0,2026.486-220.7Zm-1.97,7.88h-3.94v-3.94h3.94Z" fill="#00223d"/>
      <path id="Trazado_26303" data-name="Trazado 26303" d="M2042.245-220.7h-7.88a1.971,1.971,0,0,0-1.97,1.97v7.88a1.97,1.97,0,0,0,1.97,1.969h7.88a1.97,1.97,0,0,0,1.969-1.969v-7.88A1.97,1.97,0,0,0,2042.245-220.7Zm-1.97,7.88h-3.94v-3.94h3.94Z" fill="#00223d"/>
      <path id="Trazado_26304" data-name="Trazado 26304" d="M2010.727-204.945h-7.879a1.971,1.971,0,0,0-1.97,1.97v7.879a1.971,1.971,0,0,0,1.97,1.97h7.879a1.97,1.97,0,0,0,1.97-1.97v-7.879A1.97,1.97,0,0,0,2010.727-204.945Zm-1.97,7.879h-3.939v-3.939h3.939Z" fill="#00223d"/>
      <path id="Trazado_26305" data-name="Trazado 26305" d="M2026.486-204.945h-7.879a1.971,1.971,0,0,0-1.97,1.97v7.879a1.97,1.97,0,0,0,1.97,1.97h7.879a1.971,1.971,0,0,0,1.97-1.97v-7.879A1.971,1.971,0,0,0,2026.486-204.945Zm-1.97,7.879h-3.94v-3.939h3.94Z" fill="#00223d"/>
      <path id="Trazado_26306" data-name="Trazado 26306" d="M2042.245-204.945h-7.88a1.971,1.971,0,0,0-1.97,1.97v7.879a1.971,1.971,0,0,0,1.97,1.97h7.88a1.97,1.97,0,0,0,1.969-1.97v-7.879A1.97,1.97,0,0,0,2042.245-204.945Zm-1.97,7.879h-3.94v-3.939h3.94Z" fill="#00223d"/>
      <path id="Trazado_26307" data-name="Trazado 26307" d="M2010.727-189.186h-7.879a1.97,1.97,0,0,0-1.97,1.969v7.88a1.971,1.971,0,0,0,1.97,1.97h7.879a1.971,1.971,0,0,0,1.97-1.97v-7.88A1.97,1.97,0,0,0,2010.727-189.186Zm-1.97,7.879h-3.939v-3.939h3.939Z" fill="#00223d"/>
      <path id="Trazado_26308" data-name="Trazado 26308" d="M2026.486-189.186h-7.879a1.97,1.97,0,0,0-1.97,1.969v7.88a1.971,1.971,0,0,0,1.97,1.97h7.879a1.971,1.971,0,0,0,1.97-1.97v-7.88A1.97,1.97,0,0,0,2026.486-189.186Zm-1.97,7.879h-3.94v-3.939h3.94Z" fill="#00223d"/>
      <path id="Trazado_26309" data-name="Trazado 26309" d="M2042.245-189.186h-7.88a1.97,1.97,0,0,0-1.97,1.969v7.88a1.971,1.971,0,0,0,1.97,1.97h7.88a1.97,1.97,0,0,0,1.969-1.97v-7.88A1.97,1.97,0,0,0,2042.245-189.186Zm-1.97,7.879h-3.94v-3.939h3.94Z" fill="#00223d"/>
      <path id="Trazado_26310" data-name="Trazado 26310" d="M2077.272-162.282a11.819,11.819,0,0,0,2.977-14.735,9.266,9.266,0,0,1-1.078-7.117,9.933,9.933,0,0,0,.2-5.547,9.766,9.766,0,0,0-7.208-7.111,9.847,9.847,0,0,0-11.905,7.23,9.846,9.846,0,0,0,.065,4.93,9.431,9.431,0,0,1-.731,7.265,11.819,11.819,0,0,0,4.32,16.147,11.823,11.823,0,0,0,3.386,1.312c.185.039.372.057.557.086v4.123h-15.758V-260.1a1.971,1.971,0,0,0-1.97-1.97h-5.91v-5.91a1.971,1.971,0,0,0-1.97-1.97h-39.4a1.971,1.971,0,0,0-1.97,1.97v5.91h-5.91A1.97,1.97,0,0,0,1993-260.1v104.4H1977.24v-4.111a11.808,11.808,0,0,0,9.686-13.6,11.832,11.832,0,0,0-1.229-3.6,9.266,9.266,0,0,1-1.078-7.117,9.935,9.935,0,0,0,.2-5.547,9.766,9.766,0,0,0-7.208-7.111,9.847,9.847,0,0,0-11.905,7.229,9.853,9.853,0,0,0,.065,4.931,9.429,9.429,0,0,1-.731,7.265,11.819,11.819,0,0,0,4.32,16.147,11.82,11.82,0,0,0,3.386,1.311c.185.04.372.057.557.087v4.123h-9.849v3.939h118.19V-155.7h-9.849v-4.111A11.752,11.752,0,0,0,2077.272-162.282ZM1973.3-187.217v23.384a7.86,7.86,0,0,1-5.671-9.557,7.889,7.889,0,0,1,.816-2,13.32,13.32,0,0,0,1.113-10.292,5.787,5.787,0,0,1-.2-1.538,5.878,5.878,0,0,1,2.239-4.631,5.812,5.812,0,0,1,3.657-1.279,6.35,6.35,0,0,1,1.459.17,5.9,5.9,0,0,1,4.292,7.148c-.035.144-.076.288-.124.428h0a13.051,13.051,0,0,0,1.34,10.221,7.756,7.756,0,0,1,.926,3.7,7.849,7.849,0,0,1-5.91,7.622v-23.38h-3.94Zm31.518-78.793h35.457v3.94h-35.457ZM2020.576-155.7H2012.7v-11.819h7.879Zm11.819,0h-7.879v-11.819h7.879Zm15.759,0h-11.819v-13.789a1.971,1.971,0,0,0-1.97-1.97h-23.638a1.971,1.971,0,0,0-1.97,1.97V-155.7h-11.818V-258.131h51.215V-155.7Zm19.7-31.518v23.384a7.86,7.86,0,0,1-5.672-9.557,7.931,7.931,0,0,1,.816-2,13.323,13.323,0,0,0,1.121-10.292,5.876,5.876,0,0,1-.2-1.538,5.875,5.875,0,0,1,2.24-4.631,5.809,5.809,0,0,1,3.656-1.279,6.35,6.35,0,0,1,1.459.17,5.9,5.9,0,0,1,4.293,7.148c-.036.144-.077.288-.125.428h0a13.051,13.051,0,0,0,1.34,10.221,7.743,7.743,0,0,1,.926,3.7,7.849,7.849,0,0,1-5.91,7.622v-23.38h-3.939Z" fill="#00223d"/>
    </g>
  </g>
</svg>
