<svg xmlns="http://www.w3.org/2000/svg" width="86" height="85.999" viewBox="0 0 86 85.999">
  <g id="Grupo_16744" data-name="Grupo 16744" transform="translate(-83.474 -303.74)">
    <g id="Grupo_16691" data-name="Grupo 16691" transform="translate(84.861 367.546)">
      <path id="Trazado_26097" data-name="Trazado 26097" d="M87.068,400.685a4.163,4.163,0,0,1-1.664-3.329V392.5l3.248,1.625a4.161,4.161,0,0,1,2.3,3.721V403.6Z" transform="translate(-85.404 -392.501)" fill="#52565a"/>
    </g>
    <g id="Grupo_16692" data-name="Grupo 16692" transform="translate(109.829 364.772)">
      <path id="Trazado_26098" data-name="Trazado 26098" d="M136.782,388.642c0,3.83-3.726,6.935-8.323,6.935s-8.322-3.105-8.322-6.935" transform="translate(-120.137 -388.642)" fill="#c66b60"/>
    </g>
    <g id="Grupo_16693" data-name="Grupo 16693" transform="translate(144.58 359.121)">
      <path id="Trazado_26099" data-name="Trazado 26099" d="M172.567,401.886v-.2l.455-1.82a77.7,77.7,0,0,0,2.319-18.84v-.249a17.985,17.985,0,0,1-5.255,5.455l-.293.2-.089.07q-.22,6.872-.979,13.713l-.246,2.205a5.246,5.246,0,0,1,4.088-.534Z" transform="translate(-168.479 -380.781)" fill="#a8b0bc"/>
    </g>
    <g id="Grupo_16694" data-name="Grupo 16694" transform="translate(98.732 363.446)">
      <path id="Trazado_26100" data-name="Trazado 26100" d="M111.685,403.594l-.05-.212.6-4.217a77.954,77.954,0,0,0,.785-11.041V387.6c-.5-.147-1-.269-1.5-.433l-1.1-.364a65.192,65.192,0,0,0-4.339,16.569l0,.015H104.7a5.439,5.439,0,0,1,2.781.766,5.241,5.241,0,0,1,4.2-.554Z" transform="translate(-104.7 -386.798)" fill="#a8b0bc"/>
    </g>
    <g id="Grupo_16695" data-name="Grupo 16695" transform="translate(98.732 380.03)">
      <path id="Trazado_26101" data-name="Trazado 26101" d="M110.248,409.868a5.549,5.549,0,0,1,5.549,5.548v2.775H104.7v-2.775A5.549,5.549,0,0,1,110.248,409.868Z" transform="translate(-104.7 -409.868)" fill="#52565a"/>
    </g>
    <g id="Grupo_16696" data-name="Grupo 16696" transform="translate(141.732 380.03)">
      <path id="Trazado_26102" data-name="Trazado 26102" d="M170.066,409.868a5.549,5.549,0,0,1,5.549,5.548v2.775h-11.1v-2.775A5.549,5.549,0,0,1,170.066,409.868Z" transform="translate(-164.518 -409.868)" fill="#52565a"/>
    </g>
    <g id="Grupo_16697" data-name="Grupo 16697" transform="translate(93.183 380.03)">
      <path id="Trazado_26103" data-name="Trazado 26103" d="M102.53,409.868a5.549,5.549,0,0,1,5.548,5.548v2.775h-11.1v-2.775A5.549,5.549,0,0,1,102.53,409.868Z" transform="translate(-96.981 -409.868)" fill="#52565a"/>
    </g>
    <g id="Grupo_16698" data-name="Grupo 16698" transform="translate(136.183 380.03)">
      <path id="Trazado_26104" data-name="Trazado 26104" d="M162.348,409.868a5.549,5.549,0,0,1,5.548,5.548v2.775H156.8v-2.775A5.549,5.549,0,0,1,162.348,409.868Z" transform="translate(-156.799 -409.868)" fill="#52565a"/>
    </g>
    <g id="Grupo_16699" data-name="Grupo 16699" transform="translate(90.512 318.998)">
      <path id="Trazado_26105" data-name="Trazado 26105" d="M156.969,355.481v.06a18.031,18.031,0,0,1-8.03,15l-.293.194-.089.07q-.22,6.872-.979,13.713l-.319,2.863h-5.548l-.405-1.823a99.361,99.361,0,0,1-2.219-16.165l0-.044h-.147l-1.276.426a45.794,45.794,0,0,1-14.474,2.348h-.4a45.81,45.81,0,0,1-14.476-2.348l-1.1-.365a65.206,65.206,0,0,0-4.339,16.569V386H98.71L94.55,369.352,93.292,350.5a12.512,12.512,0,0,1,.346-3.857l.148-.592a12.481,12.481,0,0,1,10.98-9.4l21.686-1.973v-4.161A5.549,5.549,0,0,1,132,324.965h4.161" transform="translate(-93.265 -324.965)" fill="#e3e4e5"/>
    </g>
    <g id="Grupo_16700" data-name="Grupo 16700" transform="translate(130.635 312.062)">
      <path id="Trazado_26106" data-name="Trazado 26106" d="M150.468,345.833l-1.359-19.038c-.018-.254-.027-.509-.027-.763a10.713,10.713,0,0,1,10.714-10.715h9.087A10.713,10.713,0,0,1,179.6,326.031c0,.255-.009.509-.027.763l-1.359,19.039" transform="translate(-149.081 -315.317)" fill="#e3e4e5"/>
    </g>
    <g id="Grupo_16701" data-name="Grupo 16701" transform="translate(129.248 305.127)">
      <path id="Trazado_26107" data-name="Trazado 26107" d="M155.474,313.991l-.466-.7a13.741,13.741,0,0,1-2.308-7.623l-3.121,2.34a6.07,6.07,0,0,0-.649,9.148l1,1" transform="translate(-147.151 -305.669)" fill="#efbe9a"/>
    </g>
    <g id="Grupo_16702" data-name="Grupo 16702" transform="translate(154.216 305.127)">
      <path id="Trazado_26108" data-name="Trazado 26108" d="M181.884,313.991l.467-.7a13.747,13.747,0,0,0,2.308-7.623l3.121,2.34a6.07,6.07,0,0,1,.649,9.148l-1,1" transform="translate(-181.884 -305.669)" fill="#efbe9a"/>
    </g>
    <g id="Grupo_16703" data-name="Grupo 16703" transform="translate(123.7 318.998)">
      <path id="Trazado_26109" data-name="Trazado 26109" d="M146.368,324.965H145.4a5.969,5.969,0,0,0-5.969,5.969v3.741h1.689a5.97,5.97,0,0,0,4.221-1.748l1.025-1.026" transform="translate(-139.433 -324.965)" fill="#c66b60"/>
    </g>
    <g id="Grupo_16704" data-name="Grupo 16704" transform="translate(161.151 318.998)">
      <path id="Trazado_26110" data-name="Trazado 26110" d="M191.532,324.965h.967a5.969,5.969,0,0,1,5.969,5.969v3.741h-1.689a5.971,5.971,0,0,1-4.221-1.748l-1.025-1.026" transform="translate(-191.532 -324.965)" fill="#c66b60"/>
    </g>
    <g id="Grupo_16705" data-name="Grupo 16705" transform="translate(132.022 335.642)">
      <path id="Trazado_26111" data-name="Trazado 26111" d="M160.72,348.12a12.93,12.93,0,0,1,4.161.677,12.925,12.925,0,0,1,4.161-.677c5.363,0,9.71,3.106,9.71,6.935s-4.348,6.935-9.71,6.935a12.926,12.926,0,0,1-4.161-.676,12.931,12.931,0,0,1-4.161.676c-5.363,0-9.71-3.105-9.71-6.935S155.358,348.12,160.72,348.12Z" transform="translate(-151.01 -348.12)" fill="#c66b60"/>
    </g>
    <g id="Grupo_16706" data-name="Grupo 16706" transform="translate(145.894 312.062)">
      <path id="Trazado_26112" data-name="Trazado 26112" d="M174.851,315.317h-.786a11.087,11.087,0,0,0,10.949,18.807l.523-7.329c.018-.254.027-.509.027-.763A10.713,10.713,0,0,0,174.851,315.317Z" transform="translate(-170.307 -315.317)" fill="#52565a"/>
    </g>
    <g id="Grupo_16707" data-name="Grupo 16707" transform="translate(102.894 330.094)">
      <path id="Trazado_26113" data-name="Trazado 26113" d="M111.876,340.4a6.936,6.936,0,1,0,11.1,0" transform="translate(-110.489 -340.402)" fill="#52565a"/>
    </g>
    <g id="Grupo_16708" data-name="Grupo 16708" transform="translate(112.603 343.965)">
      <path id="Trazado_26114" data-name="Trazado 26114" d="M129.544,359.7a5.549,5.549,0,0,1,5.549,5.548c0,.07-.018.134-.021.2a5.481,5.481,0,0,1,1.408-.2,5.548,5.548,0,1,1-5.548,5.549c0-.07.018-.133.021-.2a5.486,5.486,0,0,1-1.408.2,5.548,5.548,0,0,1,0-11.1Z" transform="translate(-123.996 -359.698)" fill="#52565a"/>
    </g>
    <g id="Grupo_16709" data-name="Grupo 16709" transform="translate(91.797 346.739)">
      <path id="Trazado_26115" data-name="Trazado 26115" d="M95.052,377.428a6.935,6.935,0,0,0,0-13.871" transform="translate(-95.052 -363.557)" fill="#52565a"/>
    </g>
    <g id="Grupo_16710" data-name="Grupo 16710" transform="translate(130.635 334.256)">
      <path id="Trazado_26116" data-name="Trazado 26116" d="M168.5,362.836a14.352,14.352,0,0,1-4.161-.607,14.361,14.361,0,0,1-4.161.607c-6.119,0-11.1-3.733-11.1-8.323s4.978-8.322,11.1-8.322a14.337,14.337,0,0,1,4.161.607,14.328,14.328,0,0,1,4.161-.607c6.119,0,11.1,3.732,11.1,8.322S174.619,362.836,168.5,362.836Zm-4.161-3.45a1.411,1.411,0,0,1,.445.073,11.547,11.547,0,0,0,3.716.6c4.511,0,8.323-2.541,8.323-5.549s-3.811-5.548-8.323-5.548a11.528,11.528,0,0,0-3.716.6,1.4,1.4,0,0,1-.892,0,11.512,11.512,0,0,0-3.714-.6c-4.511,0-8.323,2.541-8.323,5.548s3.812,5.549,8.323,5.549a11.509,11.509,0,0,0,3.716-.6,1.409,1.409,0,0,1,.446-.072Z" transform="translate(-149.081 -346.191)" fill="#00223d"/>
    </g>
    <g id="Grupo_16711" data-name="Grupo 16711" transform="translate(151.442 339.804)">
      <path id="Trazado_26117" data-name="Trazado 26117" d="M180.105,358.07a2.081,2.081,0,1,1,2.081-2.08A2.083,2.083,0,0,1,180.105,358.07Z" transform="translate(-178.025 -353.909)" fill="#00223d"/>
    </g>
    <g id="Grupo_16712" data-name="Grupo 16712" transform="translate(136.183 339.804)">
      <path id="Trazado_26118" data-name="Trazado 26118" d="M158.88,358.07a2.081,2.081,0,1,1,2.08-2.08A2.084,2.084,0,0,1,158.88,358.07Z" transform="translate(-156.799 -353.909)" fill="#00223d"/>
    </g>
    <g id="Grupo_16713" data-name="Grupo 16713" transform="translate(129.248 310.675)">
      <path id="Trazado_26119" data-name="Trazado 26119" d="M179.051,345.389l-2.766-.2,1.359-19.039c.015-.216.024-.44.024-.662a9.34,9.34,0,0,0-9.328-9.328h-9.087a9.339,9.339,0,0,0-9.327,9.328c0,.222.009.446.025.666l1.358,19.037-2.765.2-1.359-19.039c-.021-.288-.032-.574-.032-.861a12.117,12.117,0,0,1,12.1-12.1h9.087a12.116,12.116,0,0,1,12.1,12.1c0,.288-.011.573-.029.859Z" transform="translate(-147.151 -313.387)" fill="#00223d"/>
    </g>
    <g id="Grupo_16714" data-name="Grupo 16714" transform="translate(152.829 323.159)">
      <path id="Trazado_26120" data-name="Trazado 26120" d="M182.035,334.915a2.081,2.081,0,1,1,2.081-2.081A2.083,2.083,0,0,1,182.035,334.915Z" transform="translate(-179.955 -330.754)" fill="#00223d"/>
    </g>
    <g id="Grupo_16715" data-name="Grupo 16715" transform="translate(134.797 323.159)">
      <path id="Trazado_26121" data-name="Trazado 26121" d="M156.95,334.915a2.081,2.081,0,1,1,2.081-2.081A2.083,2.083,0,0,1,156.95,334.915Z" transform="translate(-154.87 -330.754)" fill="#00223d"/>
    </g>
    <g id="Grupo_16716" data-name="Grupo 16716" transform="translate(127.861 303.74)">
      <path id="Trazado_26122" data-name="Trazado 26122" d="M148.4,318.591l-1-1a7.4,7.4,0,0,1-2.183-5.271,7.493,7.493,0,0,1,2.982-5.965l3.121-2.341a1.387,1.387,0,0,1,2.219,1.11,12.327,12.327,0,0,0,2.075,6.854l.466.7-2.308,1.538-.466-.7A15.1,15.1,0,0,1,151,307.732l-1.126.845a4.685,4.685,0,0,0-.5,7.058l1,1Z" transform="translate(-145.222 -303.74)" fill="#00223d"/>
    </g>
    <g id="Grupo_16717" data-name="Grupo 16717" transform="translate(153.062 303.74)">
      <path id="Trazado_26123" data-name="Trazado 26123" d="M187.962,318.591,186,316.63l1-1a4.682,4.682,0,0,0-.5-7.055l-1.126-.844a15.111,15.111,0,0,1-2.317,5.787l-.466.7-2.308-1.538.466-.7a12.343,12.343,0,0,0,2.075-6.856,1.387,1.387,0,0,1,2.219-1.11l3.121,2.341a7.49,7.49,0,0,1,2.983,5.965,7.405,7.405,0,0,1-2.184,5.272Z" transform="translate(-180.279 -303.74)" fill="#00223d"/>
    </g>
    <g id="Grupo_16718" data-name="Grupo 16718" transform="translate(122.313 317.61)">
      <path id="Trazado_26124" data-name="Trazado 26124" d="M140.58,335.519H138.89a1.386,1.386,0,0,1-1.387-1.387v-3.741a7.358,7.358,0,0,1,7.356-7.356h.967v2.775h-.967a4.582,4.582,0,0,0-4.582,4.581v2.354h.3a4.556,4.556,0,0,0,3.239-1.341l1.026-1.026,1.961,1.961-1.027,1.027a7.306,7.306,0,0,1-5.2,2.154Z" transform="translate(-137.503 -323.035)" fill="#00223d"/>
    </g>
    <g id="Grupo_16719" data-name="Grupo 16719" transform="translate(160.171 317.61)">
      <path id="Trazado_26125" data-name="Trazado 26125" d="M198.084,335.519h-1.689a7.308,7.308,0,0,1-5.2-2.154l-1.027-1.027,1.962-1.961,1.027,1.026a4.554,4.554,0,0,0,3.238,1.341h.3v-2.354a4.582,4.582,0,0,0-4.582-4.581h-.967v-2.775h.967a7.356,7.356,0,0,1,7.356,7.356v3.741a1.386,1.386,0,0,1-1.387,1.387Z" transform="translate(-190.168 -323.035)" fill="#00223d"/>
    </g>
    <g id="Grupo_16720" data-name="Grupo 16720" transform="translate(144.506 311.022)">
      <path id="Trazado_26126" data-name="Trazado 26126" d="M180.861,335.716A12.484,12.484,0,0,1,172.6,313.87l1.836,2.08A9.711,9.711,0,0,0,184.5,332.237l1.043,2.571a12.416,12.416,0,0,1-4.683.909Z" transform="translate(-168.377 -313.87)" fill="#00223d"/>
    </g>
    <g id="Grupo_16721" data-name="Grupo 16721" transform="translate(89.125 327.324)">
      <path id="Trazado_26127" data-name="Trazado 26127" d="M96.823,389.59l-4.161-16.645a1.331,1.331,0,0,1-.039-.244l-1.257-18.851a13.8,13.8,0,0,1,.384-4.287l.146-.591a13.886,13.886,0,0,1,12.2-10.452l21.685-1.971.252,2.763-21.685,1.971a11.109,11.109,0,0,0-9.763,8.359l-.147.594a11.081,11.081,0,0,0-.308,3.432l1.249,18.726,4.131,16.526Z" transform="translate(-91.335 -336.548)" fill="#00223d"/>
    </g>
    <g id="Grupo_16722" data-name="Grupo 16722" transform="translate(91.797 378.642)">
      <path id="Trazado_26128" data-name="Trazado 26128" d="M107.535,419.035h-11.1a1.385,1.385,0,0,1-1.387-1.387v-2.775a6.935,6.935,0,1,1,13.871,0v2.775A1.386,1.386,0,0,1,107.535,419.035Zm-9.709-2.774h8.323v-1.387a4.161,4.161,0,0,0-8.323,0Z" transform="translate(-95.052 -407.938)" fill="#00223d"/>
    </g>
    <g id="Grupo_16723" data-name="Grupo 16723" transform="translate(100.81 378.642)">
      <path id="Trazado_26129" data-name="Trazado 26129" d="M116.609,419.035h-5.549v-2.774h4.161v-1.387a4.163,4.163,0,0,0-6.239-3.606l-1.393-2.4A6.937,6.937,0,0,1,118,414.873v2.775a1.385,1.385,0,0,1-1.387,1.387Z" transform="translate(-107.59 -407.938)" fill="#00223d"/>
    </g>
    <g id="Grupo_16724" data-name="Grupo 16724" transform="translate(98.737 357.215)">
      <path id="Trazado_26130" data-name="Trazado 26130" d="M107.466,401.1l-2.759-.27v-.017a66.51,66.51,0,0,1,6.521-21.575l.554-1.108,2.481,1.241-.553,1.108A63.677,63.677,0,0,0,107.466,401.1Z" transform="translate(-104.707 -378.13)" fill="#00223d"/>
    </g>
    <g id="Grupo_16725" data-name="Grupo 16725" transform="translate(104.294 364.772)">
      <path id="Trazado_26131" data-name="Trazado 26131" d="M115.184,404.1l-2.747-.392.6-4.217a77.224,77.224,0,0,0,.77-10.846h2.774a79.79,79.79,0,0,1-.8,11.238Z" transform="translate(-112.437 -388.642)" fill="#00223d"/>
    </g>
    <g id="Grupo_16726" data-name="Grupo 16726" transform="translate(103.842 362.068)">
      <path id="Trazado_26132" data-name="Trazado 26132" d="M128.4,390.359H128a47.072,47.072,0,0,1-14.914-2.42l-1.277-.426.878-2.63,1.276.426A44.372,44.372,0,0,0,128,387.585h.4a44.339,44.339,0,0,0,14.036-2.277l1.277-.426.878,2.63-1.276.426A47.023,47.023,0,0,1,128.4,390.359Z" transform="translate(-111.808 -384.881)" fill="#00223d"/>
    </g>
    <g id="Grupo_16727" data-name="Grupo 16727" transform="translate(97.345 384.191)">
      <path id="Trazado_26133" data-name="Trazado 26133" d="M102.77,415.657h2.774v4.161H102.77Z" transform="translate(-102.77 -415.657)" fill="#00223d"/>
    </g>
    <g id="Grupo_16728" data-name="Grupo 16728" transform="translate(134.797 378.642)">
      <path id="Trazado_26134" data-name="Trazado 26134" d="M167.353,419.035h-11.1a1.385,1.385,0,0,1-1.387-1.387v-2.775a6.935,6.935,0,1,1,13.871,0v2.775A1.386,1.386,0,0,1,167.353,419.035Zm-9.709-2.774h8.323v-1.387a4.161,4.161,0,0,0-8.323,0Z" transform="translate(-154.87 -407.938)" fill="#00223d"/>
    </g>
    <g id="Grupo_16729" data-name="Grupo 16729" transform="translate(143.81 378.642)">
      <path id="Trazado_26135" data-name="Trazado 26135" d="M176.427,419.035h-5.549v-2.774h4.161v-1.387a4.163,4.163,0,0,0-6.239-3.606l-1.393-2.4a6.937,6.937,0,0,1,10.406,6.006v2.775a1.385,1.385,0,0,1-1.387,1.387Z" transform="translate(-167.408 -407.938)" fill="#00223d"/>
    </g>
    <g id="Grupo_16730" data-name="Grupo 16730" transform="translate(140.345 384.191)">
      <path id="Trazado_26136" data-name="Trazado 26136" d="M162.588,415.657h2.774v4.161h-2.774Z" transform="translate(-162.588 -415.657)" fill="#00223d"/>
    </g>
    <g id="Grupo_16731" data-name="Grupo 16731" transform="translate(134.797 357.836)">
      <path id="Trazado_26137" data-name="Trazado 26137" d="M157.676,402.876l-.4-1.781a101.546,101.546,0,0,1-2.41-21.966l2.774-.134a98.977,98.977,0,0,0,2.346,21.5l.4,1.781Z" transform="translate(-154.87 -378.994)" fill="#00223d"/>
    </g>
    <g id="Grupo_16732" data-name="Grupo 16732" transform="translate(143.128 359.224)">
      <path id="Trazado_26138" data-name="Trazado 26138" d="M169.216,403.27l-2.757-.307.318-2.862a173.725,173.725,0,0,0,1.061-19.148l2.774-.029a177.3,177.3,0,0,1-1.076,19.483Z" transform="translate(-166.459 -380.924)" fill="#00223d"/>
    </g>
    <g id="Grupo_16733" data-name="Grupo 16733" transform="translate(145.125 349.513)">
      <path id="Trazado_26139" data-name="Trazado 26139" d="M170.776,383.829l-1.538-2.308.293-.2a16.615,16.615,0,0,0,7.411-13.849l2.774-.06v.06a19.382,19.382,0,0,1-8.647,16.158Z" transform="translate(-169.238 -367.416)" fill="#00223d"/>
    </g>
    <g id="Grupo_16734" data-name="Grupo 16734" transform="translate(147.323 359.224)">
      <path id="Trazado_26140" data-name="Trazado 26140" d="M174.986,402.067l-2.69-.674.455-1.82a76.472,76.472,0,0,0,2.276-18.5v-.147H177.8v.147a79.069,79.069,0,0,1-2.361,19.175Z" transform="translate(-172.296 -380.924)" fill="#00223d"/>
    </g>
    <g id="Grupo_16735" data-name="Grupo 16735" transform="translate(83.474 332.921)">
      <path id="Trazado_26141" data-name="Trazado 26141" d="M90.409,391.443a1.38,1.38,0,0,1-.832-.277l-3.884-2.913a5.577,5.577,0,0,1-2.219-4.439V358.541a14.839,14.839,0,0,1,10.717-14.207L94.952,347a12.05,12.05,0,0,0-8.7,11.538V378.1l2.481,1.241A5.518,5.518,0,0,1,91.8,384.3v5.751a1.388,1.388,0,0,1-.767,1.241A1.4,1.4,0,0,1,90.409,391.443ZM86.248,381.2v2.61a2.787,2.787,0,0,0,1.111,2.221l1.663,1.247V384.3a2.76,2.76,0,0,0-1.533-2.481Z" transform="translate(-83.474 -344.334)" fill="#00223d"/>
    </g>
    <g id="Grupo_16736" data-name="Grupo 16736" transform="translate(101.506 329.261)">
      <path id="Trazado_26142" data-name="Trazado 26142" d="M116.882,352.559a8.324,8.324,0,0,1-6.659-13.317l2.22,1.666a5.5,5.5,0,0,0-1.11,3.329,5.548,5.548,0,0,0,11.1,0,5.487,5.487,0,0,0-1.108-3.328l2.217-1.666a8.231,8.231,0,0,1,1.666,4.994A8.33,8.33,0,0,1,116.882,352.559Z" transform="translate(-108.559 -339.242)" fill="#00223d"/>
    </g>
    <g id="Grupo_16737" data-name="Grupo 16737" transform="translate(111.216 342.578)">
      <path id="Trazado_26143" data-name="Trazado 26143" d="M135.937,377.188a6.945,6.945,0,0,1-6.8-5.549H129a6.936,6.936,0,1,1,6.8-8.321h.14a6.935,6.935,0,1,1,0,13.871Zm-5.527-8.525A1.386,1.386,0,0,1,131.8,370.1c0,.047-.017.186-.024.234a4.26,4.26,0,1,0,3.111-4.091,1.387,1.387,0,0,1-1.74-1.4c0-.047.017-.189.024-.234a4.254,4.254,0,1,0-3.107,4.09,1.379,1.379,0,0,1,.349-.045Z" transform="translate(-122.066 -357.768)" fill="#00223d"/>
    </g>
    <g id="Grupo_16738" data-name="Grupo 16738" transform="translate(91.797 345.353)">
      <path id="Trazado_26144" data-name="Trazado 26144" d="M95.052,378.273V375.5a5.548,5.548,0,0,0,0-11.1v-2.774a8.322,8.322,0,0,1,0,16.645Z" transform="translate(-95.052 -361.628)" fill="#00223d"/>
    </g>
    <g id="Grupo_16739" data-name="Grupo 16739" transform="translate(108.442 364.772)">
      <path id="Trazado_26145" data-name="Trazado 26145" d="M127.916,396.965c-5.353,0-9.709-3.733-9.709-8.323h2.774c0,3.06,3.111,5.549,6.935,5.549s6.935-2.489,6.935-5.549h2.775C137.627,393.232,133.27,396.965,127.916,396.965Z" transform="translate(-118.207 -388.642)" fill="#00223d"/>
    </g>
    <g id="Grupo_16741" data-name="Grupo 16741" transform="translate(113.99 371.707)">
      <g id="Grupo_16740" data-name="Grupo 16740" transform="translate(0)">
        <path id="Trazado_26146" data-name="Trazado 26146" d="M125.925,398.29H128.7v4.161h-2.775Z" transform="translate(-125.925 -398.29)" fill="#00223d"/>
      </g>
    </g>
    <g id="Grupo_16743" data-name="Grupo 16743" transform="translate(119.539 371.707)">
      <g id="Grupo_16742" data-name="Grupo 16742">
        <path id="Trazado_26147" data-name="Trazado 26147" d="M133.644,398.29h2.774v4.161h-2.774Z" transform="translate(-133.644 -398.29)" fill="#00223d"/>
      </g>
    </g>
  </g>
</svg>
