<svg xmlns="http://www.w3.org/2000/svg" width="83.667" height="82.553" viewBox="0 0 83.667 82.553">
  <g id="Grupo_16781" data-name="Grupo 16781" transform="translate(-683.379 -944.184)">
    <path id="Trazado_26221" data-name="Trazado 26221" d="M764.012,974.737l15.174,19.289,8.257-7.105-14-18.191Z" transform="translate(-22.038 -6.709)" fill="#6289fa"/>
    <path id="Trazado_26222" data-name="Trazado 26222" d="M710.552,974.725l-16.659,20.3-8.257-7.106,15.489-19.185Z" transform="translate(-0.617 -6.709)" fill="#6289fa"/>
    <path id="Trazado_26223" data-name="Trazado 26223" d="M760.871,996.281,745.7,976.992H733.413l-9.59,2.769-10.165-2.78L697,997.276l8.233,11.094-.87.871a4.157,4.157,0,0,0,5.154,6.458l-.007.194a4.157,4.157,0,0,0,5.859,5.9l0,.016a4.157,4.157,0,0,0,5.879,5.879l.8-.8,0,.075a4.157,4.157,0,0,0,5.879,5.879l1.94-1.94a6.341,6.341,0,0,0,.788-1.086,4.264,4.264,0,0,1-.788,1.086l-.011.011,1.582,1.275a4.158,4.158,0,0,0,5.88-5.88l.006-.005a4.157,4.157,0,1,0,5.879-5.88l.007-.006a4.157,4.157,0,1,0,5.879-5.879l.006-.007a4.157,4.157,0,1,0,5.88-5.879Z" transform="translate(-3.722 -8.964)" fill="#fcc89d"/>
    <path id="Trazado_26224" data-name="Trazado 26224" d="M766.705,985.3l-14-18.191a1.641,1.641,0,0,0-2.18-.383l-9.041,5.75H729.688a1.633,1.633,0,0,0-.452.076l-9.142,2.631-9.487-2.594-9.218-5.863a1.641,1.641,0,0,0-2.157.354L683.743,986.27a1.64,1.64,0,0,0,.207,2.274l8.118,6.986,7.284,9.815a5.793,5.793,0,0,0,3.644,9.731,5.876,5.876,0,0,0-.068.886,5.8,5.8,0,0,0,5.8,5.8h.062c0,.039,0,.078,0,.118a5.8,5.8,0,0,0,5.8,5.8,5.944,5.944,0,0,0,.905-.071,5.8,5.8,0,0,0,9.866,3.53l.887-.886.372.3a310.062,310.062,0,0,1,14.016-5.952,5.793,5.793,0,0,1,5.885-5.885,5.789,5.789,0,0,1,5.885-5.885,5.808,5.808,0,0,0,.762-7.258l5.318-11.137,7.995-6.88A1.64,1.64,0,0,0,766.705,985.3Zm-65.841-15.019,6.629,4.215-14.419,17.567-5.779-4.974Zm.935,37.245,2-2c.061-.06.124-.118.19-.172a2.515,2.515,0,0,1,1.367-.555h.043c.071-.006.142-.009.215-.009a2.5,2.5,0,0,1,1.795.788,2.58,2.58,0,0,1-.111,3.57l-1.94,1.939a2.517,2.517,0,0,1-3.559-3.559Zm5.147,10.211a2.515,2.515,0,0,1,0-3.559l3.879-3.879a2.542,2.542,0,0,1,2.861-.494,2.509,2.509,0,0,1,1.386,2.6,2.656,2.656,0,0,1-.75,1.516l-3.817,3.817a2.517,2.517,0,0,1-3.559,0Zm5.857,5.914a2.515,2.515,0,0,1,0-3.559l3.878-3.879a2.545,2.545,0,0,1,3.043-.4,2.505,2.505,0,0,1,1.2,2.543,2.658,2.658,0,0,1-.746,1.476l-3.817,3.817a2.516,2.516,0,0,1-3.559,0Zm6.672,5.158a2.519,2.519,0,0,1,0-3.559l2-2a2.472,2.472,0,0,1,.189-.171l0,0a2.5,2.5,0,0,1,1.116-.518l.028,0c.071-.013.142-.023.213-.03l.087,0c.059,0,.117-.007.176-.006a2.5,2.5,0,0,1,1.795.788,2.112,2.112,0,0,1,.162.191,2.6,2.6,0,0,1-.283,3.388l-1.929,1.93A2.519,2.519,0,0,1,719.475,1028.813Zm30.6-18.309a2.519,2.519,0,0,1-3.559,0,1.3,1.3,0,0,0-.112-.1l-10.549-10.661a1.641,1.641,0,0,0-2.333,2.309l10.663,10.774,0,0a2.517,2.517,0,1,1-3.559,3.559l-7.133-7.207a1.641,1.641,0,0,0-2.332,2.309l7.024,7.1a1.607,1.607,0,0,0,.115.128,2.517,2.517,0,1,1-3.56,3.558l-3.893-3.933a1.64,1.64,0,1,0-2.333,2.307l3.785,3.824a1.5,1.5,0,0,0,.116.129,2.516,2.516,0,0,1-3.559,3.559,3.585,3.585,0,0,0-.372-.3c-.108-.082-.135-.139-.081-.269s.135-.251.189-.384c.06-.148.109-.3.156-.453a5.913,5.913,0,0,0,.212-2.525,5.739,5.739,0,0,0-4.891-4.939,5.851,5.851,0,0,0-1.4-5.279,5.754,5.754,0,0,0-4.133-1.813h-.173a5.743,5.743,0,0,0-5.684-5.914,5.891,5.891,0,0,0-1.4.149A5.777,5.777,0,0,0,701.7,1003l-6.341-8.545,15.171-18.483,4.835,1.323-6.315,11.143a5.8,5.8,0,0,0,2.187,7.9c.084.047.169.093.255.137l.02.009a5.852,5.852,0,0,0,.7.292,5.8,5.8,0,0,0,6.931-2.623l4.1-7.242,7.327.52,19.512,19.512A2.521,2.521,0,0,1,750.08,1010.5Zm.679-7.521-18.3-18.3a1.408,1.408,0,0,0-.108-.1,1.642,1.642,0,0,0-.935-.376l-8.972-.637a1.667,1.667,0,0,0-1.543.828l-4.614,8.143a2.517,2.517,0,1,1-4.379-2.482l6.159-10.87,2.5-.719.049-.016,9.315-2.69h11.255l14.051,17.861Zm6.619-11.935-12.993-16.527,6.631-4.217,12.142,15.771Z" transform="translate(0 -6.092)" fill="#00223d"/>
    <path id="Trazado_26225" data-name="Trazado 26225" d="M752.513,965.052a1.636,1.636,0,0,0,1.161-.481l11.206-11.206a1.641,1.641,0,0,0-2.32-2.32L751.353,962.25a1.641,1.641,0,0,0,1.16,2.8Z" transform="translate(-18.447 -1.744)" fill="#00223d"/>
    <path id="Trazado_26226" data-name="Trazado 26226" d="M722.77,964.571a1.641,1.641,0,0,0,2.32-2.32l-11.206-11.206a1.641,1.641,0,0,0-2.32,2.32Z" transform="translate(-7.572 -1.744)" fill="#00223d"/>
    <path id="Trazado_26227" data-name="Trazado 26227" d="M740.329,965.779a1.641,1.641,0,0,0,1.641-1.641v-9.274a1.64,1.64,0,0,0-3.281,0v9.274A1.641,1.641,0,0,0,740.329,965.779Z" transform="translate(-15.117 -2.471)" fill="#00223d"/>
    <path id="Trazado_26228" data-name="Trazado 26228" d="M738.816,946.448a1.64,1.64,0,1,0,.6-1.992A1.649,1.649,0,0,0,738.816,946.448Z" transform="translate(-15.118 0)" fill="#00223d"/>
  </g>
</svg>
