<svg xmlns="http://www.w3.org/2000/svg" width="81.292" height="81.292" viewBox="0 0 81.292 81.292">
  <g id="Grupo_16685" data-name="Grupo 16685" transform="translate(-642.946 271.481)">
    <path id="Trazado_26049" data-name="Trazado 26049" d="M655.01-185.3l-3.933,6.792h74.737v-56.38Z" transform="translate(-2.886 -12.988)" fill="#cf9e76"/>
    <path id="Trazado_26050" data-name="Trazado 26050" d="M724.449-257.252a14.415,14.415,0,0,1,14.423,14.423,14.415,14.415,0,0,1-14.423,14.423,14.415,14.415,0,0,1-14.423-14.423A14.415,14.415,0,0,1,724.449-257.252ZM731-242.829a6.558,6.558,0,0,0-6.556-6.555,6.558,6.558,0,0,0-6.555,6.555,6.558,6.558,0,0,0,6.555,6.556A6.558,6.558,0,0,0,731-242.829Z" transform="translate(-23.812 -5.051)" fill="#fcd770"/>
    <path id="Trazado_26051" data-name="Trazado 26051" d="M715.426-228.068v-.013a19.225,19.225,0,0,1-5.481-2.269l-2.806,1.731-5.559-5.559,1.731-2.806a19.207,19.207,0,0,1-2.269-5.481l-.249-.065a3.436,3.436,0,0,0,.97-2.412,3.519,3.519,0,0,0-3.527-3.527h-.406v-2.623l3.212-.76a19.207,19.207,0,0,1,2.269-5.481l-1.731-2.806,5.559-5.559,2.806,1.731a19.207,19.207,0,0,1,5.481-2.269l.76-3.212h7.867l.76,3.212a19.207,19.207,0,0,1,5.481,2.269L733.1-265.7l5.559,5.559-1.731,2.806a19.225,19.225,0,0,1,2.269,5.481l3.212.76v7.867l-3.212.76a19.225,19.225,0,0,1-2.269,5.481l1.731,2.806-5.559,5.559-2.806-1.731a19.225,19.225,0,0,1-5.481,2.269l-.76,3.212h-7.867Zm19.117-19.091a14.415,14.415,0,0,0-14.423-14.423A14.415,14.415,0,0,0,705.7-247.158a14.415,14.415,0,0,0,14.423,14.423A14.415,14.415,0,0,0,734.542-247.158Z" transform="translate(-19.482 -0.722)" fill="#ffc729"/>
    <path id="Trazado_26052" data-name="Trazado 26052" d="M652.846-170.151v2.859a3.923,3.923,0,0,1-1.154,2.779,3.922,3.922,0,0,1-2.779,1.154,3.928,3.928,0,0,1-3.933-3.933V-192.2a5.243,5.243,0,0,0,5.245,5.245h2.622Z" transform="translate(-0.722 -28.141)" fill="#838f9b"/>
    <path id="Trazado_26053" data-name="Trazado 26053" d="M668.58-182.542v3.317a3.928,3.928,0,0,1-3.933,3.933,3.925,3.925,0,0,1-2.78-1.154,4.31,4.31,0,0,1-.708-.957,3.856,3.856,0,0,1-.446-1.822v-7.867A1.314,1.314,0,0,0,659.4-188.4h-9.178a5.243,5.243,0,0,1-5.245-5.245v-2.623h18.356a5.244,5.244,0,0,1,5.245,5.245Z" transform="translate(-0.722 -26.698)" fill="#838f9b"/>
    <path id="Trazado_26054" data-name="Trazado 26054" d="M683-233.4a3.436,3.436,0,0,1-.97,2.412,3.512,3.512,0,0,1-.393.367l-8.313,6.464A7.815,7.815,0,0,1,668.5-222.5h-9.1v11.8H644.979v-7.867a10.486,10.486,0,0,1,10.489-10.489H666.39a2.582,2.582,0,0,0,1.573-.524l8.85-6.635a3.538,3.538,0,0,1,2.124-.708h.538A3.519,3.519,0,0,1,683-233.4Z" transform="translate(-0.722 -12.267)" fill="#5cd6b3"/>
    <circle id="Elipse_950" data-name="Elipse 950" cx="7.867" cy="7.867" r="7.867" transform="translate(648.191 -257.058)" fill="#f0d0b4"/>
    <path id="Trazado_26055" data-name="Trazado 26055" d="M720.783-253.665a20.843,20.843,0,0,0-1.811-4.369l1.87-3.02-7.032-7.031-3.019,1.869a20.855,20.855,0,0,0-4.369-1.811l-.813-3.455h-9.944l-.813,3.455a20.84,20.84,0,0,0-4.369,1.811l-3.02-1.869-7.031,7.031,1.869,3.02a20.839,20.839,0,0,0-1.811,4.369l-3.455.813v2.512a4.817,4.817,0,0,0-1.725.8l-8.852,6.637a1.321,1.321,0,0,1-.787.262h-3.2a9.141,9.141,0,0,0,2.768-6.555,9.19,9.19,0,0,0-9.178-9.179,9.19,9.19,0,0,0-9.178,9.179,9.157,9.157,0,0,0,3.686,7.335,11.809,11.809,0,0,0-7.619,11.022v35.4a5.25,5.25,0,0,0,5.245,5.245h76.047v-62.664ZM649.5-249.191a6.563,6.563,0,0,1,6.555-6.556,6.563,6.563,0,0,1,6.556,6.556,6.563,6.563,0,0,1-6.556,6.555A6.563,6.563,0,0,1,649.5-249.191Zm5.245,9.178h10.925a3.952,3.952,0,0,0,2.36-.788l8.85-6.637a2.235,2.235,0,0,1,1.328-.442h.548a2.215,2.215,0,0,1,2.211,2.212,2.2,2.2,0,0,1-.853,1.745l-8.31,6.464a6.584,6.584,0,0,1-4.025,1.38H657.369v11.8h-11.8v-6.555A9.19,9.19,0,0,1,654.747-240.013Zm7.867,15.733h-2.623v-9.178h7.79a9.211,9.211,0,0,0,5.636-1.934l7.386-5.744a20.709,20.709,0,0,0,1.5,3.409l-1.869,3.019,7.031,7.032,3.02-1.87a20.77,20.77,0,0,0,2.561,1.178L669.17-211.747v-5.976A6.564,6.564,0,0,0,662.613-224.279Zm-17.045,2.623h17.045a3.938,3.938,0,0,1,3.933,3.933v11.8a2.625,2.625,0,0,1-2.623,2.623,2.61,2.61,0,0,1-1.856-.768,2.61,2.61,0,0,1-.767-1.854v-7.867a2.625,2.625,0,0,0-2.622-2.622H649.5a3.938,3.938,0,0,1-3.934-3.933Zm7.867,7.867h5.245v7.865h0a5.284,5.284,0,0,0,.188,1.326l-5.432,3.8Zm-7.867,18.357v-19.7a6.489,6.489,0,0,0,3.934,1.345h1.311v18.357a2.625,2.625,0,0,1-2.622,2.622A2.625,2.625,0,0,1,645.568-195.433Zm76.048,2.622H652.707a5.191,5.191,0,0,0,.729-2.622v-2.17l6.713-4.691c.024.025.041.055.066.08a5.213,5.213,0,0,0,3.71,1.537,5.252,5.252,0,0,0,5.246-5.246v-2.629l25.946-18.06.55,2.334h9.944l.813-3.455a20.856,20.856,0,0,0,4.369-1.811l3.019,1.87,7.032-7.032-1.87-3.019a20.856,20.856,0,0,0,1.811-4.369l.833-.2Zm0-52.174-2.98.7-.192.782a18.189,18.189,0,0,1-2.12,5.117l-.417.686,1.612,2.6-4.1,4.1-2.6-1.612-.686.417a18.192,18.192,0,0,1-5.117,2.12l-.782.192-.7,2.981h-5.79l-.7-2.98-.781-.192a18.2,18.2,0,0,1-5.118-2.12l-.686-.417-2.6,1.612-4.095-4.1,1.611-2.6-.417-.686a18.14,18.14,0,0,1-2.044-4.851,4.8,4.8,0,0,0,.684-2.434,4.837,4.837,0,0,0-3.934-4.742v-.363l2.981-.7.192-.781a18.2,18.2,0,0,1,2.12-5.118l.417-.686-1.611-2.6,4.095-4.095,2.6,1.611.686-.417a18.2,18.2,0,0,1,5.118-2.12l.781-.192.7-2.983h5.79l.7,2.981.782.192a18.19,18.19,0,0,1,5.117,2.12l.686.417,2.6-1.611,4.1,4.095-1.612,2.6.417.686a18.2,18.2,0,0,1,2.12,5.118l.192.781,2.981.7v5.79Z" fill="#00223d"/>
    <g id="Grupo_16684" data-name="Grupo 16684" transform="translate(656.057 -263.614)">
      <path id="Trazado_26056" data-name="Trazado 26056" d="M687.327-172.315l2.138-1.49,1.5,2.152-2.138,1.49Z" transform="translate(-671.812 228.942)" fill="#00223d"/>
      <path id="Trazado_26057" data-name="Trazado 26057" d="M694.7-183.48l17.85-12.437,1.5,2.152L696.2-181.328Z" transform="translate(-674.43 236.791)" fill="#00223d"/>
      <path id="Trazado_26058" data-name="Trazado 26058" d="M723.727-259.285a15.752,15.752,0,0,0-15.734,15.734,15.752,15.752,0,0,0,15.734,15.734,15.751,15.751,0,0,0,15.734-15.734A15.752,15.752,0,0,0,723.727-259.285Zm0,28.846a13.127,13.127,0,0,1-13.111-13.112,13.127,13.127,0,0,1,13.111-13.111,13.127,13.127,0,0,1,13.112,13.111A13.127,13.127,0,0,1,723.727-230.439Z" transform="translate(-679.147 259.285)" fill="#00223d"/>
      <path id="Trazado_26059" data-name="Trazado 26059" d="M728.057-247.088a7.875,7.875,0,0,0-7.867,7.867,7.875,7.875,0,0,0,7.867,7.867,7.875,7.875,0,0,0,7.867-7.867A7.875,7.875,0,0,0,728.057-247.088Zm0,13.111a5.25,5.25,0,0,1-5.245-5.245,5.25,5.25,0,0,1,5.245-5.245,5.25,5.25,0,0,1,5.245,5.245A5.25,5.25,0,0,1,728.057-233.977Z" transform="translate(-683.477 254.955)" fill="#00223d"/>
      <path id="Trazado_26060" data-name="Trazado 26060" d="M756.779-157.648H759.4v2.623h-2.623Z" transform="translate(-696.465 223.206)" fill="#00223d"/>
      <path id="Trazado_26061" data-name="Trazado 26061" d="M756.779-165.779H759.4v2.623h-2.623Z" transform="translate(-696.465 226.093)" fill="#00223d"/>
      <path id="Trazado_26062" data-name="Trazado 26062" d="M756.779-173.91H759.4v2.623h-2.623Z" transform="translate(-696.465 228.979)" fill="#00223d"/>
      <path id="Trazado_26063" data-name="Trazado 26063" d="M663.273-157.648H665.9v2.623h-2.623Z" transform="translate(-663.273 223.206)" fill="#00223d"/>
      <path id="Trazado_26064" data-name="Trazado 26064" d="M671.4-157.648h2.623v2.623H671.4Z" transform="translate(-666.159 223.206)" fill="#00223d"/>
      <path id="Trazado_26065" data-name="Trazado 26065" d="M679.535-157.648h2.623v2.623h-2.623Z" transform="translate(-669.046 223.206)" fill="#00223d"/>
    </g>
  </g>
</svg>
