<svg xmlns="http://www.w3.org/2000/svg" width="151" height="151" viewBox="0 0 151 151">
  <g id="Grupo_17116" data-name="Grupo 17116" transform="translate(-640 2014)">
    <rect id="Rectángulo_4280" data-name="Rectángulo 4280" width="151" height="151" transform="translate(640 -2014)" fill="none"/>
    <g id="Grupo_17110" data-name="Grupo 17110" transform="translate(-1572.781 -1745.73)">
      <path id="Trazado_26354" data-name="Trazado 26354" d="M2295.283-164.46a.837.837,0,0,1-.837-.837V-194.92c.02-.012.038-.025.058-.036a15.459,15.459,0,0,1-7.9,2.162,15.467,15.467,0,0,1-8.136-2.3,17.343,17.343,0,0,0-10.515,8.622h1.325a1.205,1.205,0,0,1,1.206,1.2v4.834a1.205,1.205,0,0,1-1.206,1.2h-.466v33.715h38.716v-18.947h-12.246Z" transform="translate(5.097 6.596)" fill="#80d261"/>
      <g id="Grupo_16824" data-name="Grupo 16824" transform="translate(2273.05 -188.497)">
        <path id="Trazado_26355" data-name="Trazado 26355" d="M2281.524-193.647a15.47,15.47,0,0,1-3.056-1.446,17.338,17.338,0,0,0-10.515,8.621h1.325a1.205,1.205,0,0,1,1.206,1.2v4.834a1.206,1.206,0,0,1-1.206,1.206h-.466v33.714h5.327v-32.976a17.256,17.256,0,0,1,7.384-14.162v-1Z" transform="translate(-2267.954 195.093)" fill="#68ca44"/>
      </g>
      <path id="Trazado_26356" data-name="Trazado 26356" d="M2275.406-168.749h-6.686v13.26h6.686a.724.724,0,0,0,.724-.724v-11.813A.724.724,0,0,0,2275.406-168.749Z" transform="translate(5.189 9.805)" fill="#fff"/>
      <path id="Trazado_26357" data-name="Trazado 26357" d="M2302.981-180.129v-4.834a1.206,1.206,0,0,1,1.206-1.2h3.266v-8.638a2.786,2.786,0,0,0-2.787-2.785h-9.427a15.636,15.636,0,0,1-3.668,2.975v29.625a.836.836,0,0,0,.836.836h12.247v-14.767h-.467a1.206,1.206,0,0,1-1.206-1.206Z" transform="translate(7.973 6.291)" fill="#fe9901"/>
      <path id="Trazado_26358" data-name="Trazado 26358" d="M2297.694-164.992v-32.6h-2.454a15.628,15.628,0,0,1-3.669,2.975v29.625a.837.837,0,0,0,.837.836h6.123a.837.837,0,0,1-.836-.837Z" transform="translate(7.973 6.291)" fill="#fb8801"/>
      <path id="Trazado_26359" data-name="Trazado 26359" d="M2281.6-236.144h8.287a16.31,16.31,0,0,1,4.794.718,7.325,7.325,0,0,0,1.831-4.843,7.382,7.382,0,0,0-7.36-7.36h-6.816a7.382,7.382,0,0,0-7.361,7.36,7.325,7.325,0,0,0,1.831,4.843,16.314,16.314,0,0,1,4.795-.718Z" transform="translate(5.952 0.196)" fill="#838383"/>
      <path id="Trazado_26360" data-name="Trazado 26360" d="M2281.6-236.144h1.914a7.3,7.3,0,0,1-1.275-4.124,7.382,7.382,0,0,1,7.14-7.356c-.076,0-.152-.006-.227-.006h-6.816a7.383,7.383,0,0,0-7.361,7.361,7.324,7.324,0,0,0,1.831,4.842A16.314,16.314,0,0,1,2281.6-236.144Z" transform="translate(5.952 0.196)" fill="#5a5a5a"/>
      <path id="Trazado_26361" data-name="Trazado 26361" d="M2285.131-192.951a15.5,15.5,0,0,1-5.08-.854v5.106a5.1,5.1,0,0,0,5.08,5.08,5.1,5.1,0,0,0,5.079-5.08v-5.106A15.508,15.508,0,0,1,2285.131-192.951Z" transform="translate(6.57 6.753)" fill="#ffc495"/>
      <path id="Trazado_26362" data-name="Trazado 26362" d="M2284.116-188.7v-4.29a15.446,15.446,0,0,1-4.066-.817v5.106a5.1,5.1,0,0,0,5.08,5.08,5.03,5.03,0,0,0,2.032-.431,5.1,5.1,0,0,1-3.047-4.649Z" transform="translate(6.57 6.753)" fill="#ffb392"/>
      <path id="Trazado_26363" data-name="Trazado 26363" d="M2269.21-213.588h2.049v-1.671a1.136,1.136,0,0,1,.672-1.037l16.778-7.513a4.186,4.186,0,0,1,1.712-.366h7.73a4.188,4.188,0,0,1,4.189,4.188v6.4h2.049a5.831,5.831,0,0,1,2.858.745v-8.243a16.3,16.3,0,0,0-16.3-16.3h-8.285a16.3,16.3,0,0,0-16.3,16.3v8.243a5.828,5.828,0,0,1,2.858-.745Z" transform="translate(4.901 1.443)" fill="#5a5a5a"/>
      <g id="Grupo_16825" data-name="Grupo 16825" transform="translate(2276.16 -222.732)">
        <path id="Trazado_26364" data-name="Trazado 26364" d="M2270.726-216.695v12.077a15.54,15.54,0,0,0,15.541,15.54,15.541,15.541,0,0,0,15.54-15.54v-16.8a4.188,4.188,0,0,0-4.189-4.188h-7.73a4.189,4.189,0,0,0-1.712.366l-16.778,7.513A1.137,1.137,0,0,0,2270.726-216.695Z" transform="translate(-2270.726 225.61)" fill="#ffe6c3"/>
      </g>
      <path id="Trazado_26365" data-name="Trazado 26365" d="M2282.656-237.391a16.306,16.306,0,0,0-16.3,16.3v8.243a5.836,5.836,0,0,1,2.859-.745h2.049v-1.671a1.134,1.134,0,0,1,.672-1.037l2.559-1.146v-3.643a16.3,16.3,0,0,1,16.3-16.3h-8.138Z" transform="translate(4.901 1.443)" fill="#444"/>
      <g id="Grupo_16826" data-name="Grupo 16826" transform="translate(2268.253 -212.145)">
        <path id="Trazado_26366" data-name="Trazado 26366" d="M2271.585-205.767v-10.406h-2.049a5.858,5.858,0,0,0-5.858,5.858v2.461a5.857,5.857,0,0,0,5.858,5.857h2.512a15.6,15.6,0,0,1-.463-3.77Z" transform="translate(-2263.678 216.173)" fill="#ffc495"/>
        <path id="Trazado_26367" data-name="Trazado 26367" d="M2300.53-216.173h-2.049v10.406a15.559,15.559,0,0,1-.462,3.77h2.511a5.858,5.858,0,0,0,5.858-5.857v-2.461a5.858,5.858,0,0,0-5.858-5.858Z" transform="translate(-2259.495 216.173)" fill="#ffc495"/>
      </g>
      <g id="Grupo_16827" data-name="Grupo 16827" transform="translate(2276.16 -217.295)">
        <path id="Trazado_26368" data-name="Trazado 26368" d="M2276.85-207.265v-13.5l-5.452,2.441a1.138,1.138,0,0,0-.672,1.038v12.077a15.54,15.54,0,0,0,15.541,15.54,15.549,15.549,0,0,0,3.965-.513,17.6,17.6,0,0,1-13.381-17.085Z" transform="translate(-2270.726 220.764)" fill="#ffd2a9"/>
      </g>
      <path id="Trazado_26369" data-name="Trazado 26369" d="M2257.286-197.652h-6.106a2.78,2.78,0,0,1-.848-.132v11.64h7.8v-11.641a2.758,2.758,0,0,1-.849.134Z" transform="translate(2.95 6.268)" fill="#ffc495"/>
      <path id="Trazado_26370" data-name="Trazado 26370" d="M2238.915-180.95v31.3a2.41,2.41,0,0,0,2.411,2.411h31.025V-180.95Z" transform="translate(1.559 8.318)" fill="#d8ecfe"/>
      <path id="Trazado_26371" data-name="Trazado 26371" d="M2245.047-149.647v-31.3h-6.132v31.3a2.41,2.41,0,0,0,2.411,2.411h6.132A2.411,2.411,0,0,1,2245.047-149.647Z" transform="translate(1.559 8.318)" fill="#c4e2ff"/>
      <g id="Grupo_16828" data-name="Grupo 16828" transform="translate(2238.802 -179.876)">
        <path id="Trazado_26372" data-name="Trazado 26372" d="M2273-180.163H2238.63a1.206,1.206,0,0,1-1.205-1.206V-186.2a1.205,1.205,0,0,1,1.205-1.2H2273a1.205,1.205,0,0,1,1.205,1.2v4.834A1.206,1.206,0,0,1,2273-180.163Z" transform="translate(-2237.425 187.408)" fill="#c4e2ff"/>
      </g>
      <g id="Grupo_16829" data-name="Grupo 16829" transform="translate(2238.802 -179.876)">
        <path id="Trazado_26373" data-name="Trazado 26373" d="M2243.949-183.35a1.205,1.205,0,0,1-1.2-1.2v-2.853h-4.115a1.205,1.205,0,0,0-1.205,1.2v4.834a1.206,1.206,0,0,0,1.205,1.206H2273a1.206,1.206,0,0,0,1.205-1.206v-1.981Z" transform="translate(-2237.425 187.408)" fill="#b3dafe"/>
      </g>
      <g id="Grupo_16830" data-name="Grupo 16830" transform="translate(2251.355 -200.543)">
        <path id="Trazado_26374" data-name="Trazado 26374" d="M2248.614-199.447v-3.609a2.775,2.775,0,0,1,2.775-2.775h6.106a2.777,2.777,0,0,1,2.777,2.775v3.609a2.777,2.777,0,0,1-2.777,2.775h-6.106A2.775,2.775,0,0,1,2248.614-199.447Z" transform="translate(-2248.614 205.831)" fill="#ffe6c3"/>
      </g>
      <g id="Grupo_16831" data-name="Grupo 16831" transform="translate(2251.353 -200.543)">
        <path id="Trazado_26375" data-name="Trazado 26375" d="M2253.589-199.447v-3.609a2.776,2.776,0,0,1,2.775-2.775h-4.976a2.776,2.776,0,0,0-2.776,2.775v3.609a2.776,2.776,0,0,0,2.776,2.775h4.976A2.776,2.776,0,0,1,2253.589-199.447Z" transform="translate(-2248.613 205.831)" fill="#ffd2a9"/>
      </g>
      <path id="Trazado_26376" data-name="Trazado 26376" d="M2321.6-197.652H2315.5a2.783,2.783,0,0,1-.848-.132v11.64h7.8v-11.641a2.758,2.758,0,0,1-.848.134Z" transform="translate(10.784 6.268)" fill="#ffc495"/>
      <path id="Trazado_26377" data-name="Trazado 26377" d="M2303.233-180.95v33.714h31.025a2.411,2.411,0,0,0,2.411-2.411v-31.3Z" transform="translate(9.394 8.318)" fill="#d8ecfe"/>
      <path id="Trazado_26378" data-name="Trazado 26378" d="M2309.365-149.647v-31.3h-6.132v33.714h8.541A2.41,2.41,0,0,1,2309.365-149.647Z" transform="translate(9.394 8.318)" fill="#c4e2ff"/>
      <g id="Grupo_16832" data-name="Grupo 16832" transform="translate(2310.954 -179.876)">
        <path id="Trazado_26379" data-name="Trazado 26379" d="M2337.317-180.163h-34.369a1.207,1.207,0,0,1-1.206-1.206V-186.2a1.206,1.206,0,0,1,1.206-1.2h34.369a1.205,1.205,0,0,1,1.2,1.2v4.834A1.206,1.206,0,0,1,2337.317-180.163Z" transform="translate(-2301.742 187.408)" fill="#c4e2ff"/>
      </g>
      <g id="Grupo_16833" data-name="Grupo 16833" transform="translate(2310.954 -179.876)">
        <path id="Trazado_26380" data-name="Trazado 26380" d="M2308.268-183.35a1.205,1.205,0,0,1-1.205-1.2v-2.853h-4.115a1.206,1.206,0,0,0-1.206,1.2v4.834a1.207,1.207,0,0,0,1.206,1.206h34.369a1.206,1.206,0,0,0,1.2-1.206v-1.981Z" transform="translate(-2301.742 187.408)" fill="#b3dafe"/>
      </g>
      <g id="Grupo_16834" data-name="Grupo 16834" transform="translate(2323.506 -200.543)">
        <path id="Trazado_26381" data-name="Trazado 26381" d="M2312.931-199.447v-3.609a2.776,2.776,0,0,1,2.777-2.775h6.106a2.776,2.776,0,0,1,2.775,2.775v3.609a2.776,2.776,0,0,1-2.775,2.775h-6.106A2.776,2.776,0,0,1,2312.931-199.447Z" transform="translate(-2312.931 205.831)" fill="#ffe6c3"/>
      </g>
      <g id="Grupo_16835" data-name="Grupo 16835" transform="translate(2323.506 -200.543)">
        <path id="Trazado_26382" data-name="Trazado 26382" d="M2317.907-199.447v-3.609a2.776,2.776,0,0,1,2.776-2.775h-4.975a2.776,2.776,0,0,0-2.777,2.775v3.609a2.776,2.776,0,0,0,2.777,2.775h4.975A2.776,2.776,0,0,1,2317.907-199.447Z" transform="translate(-2312.931 205.831)" fill="#ffd2a9"/>
      </g>
      <g id="Grupo_16836" data-name="Grupo 16836" transform="translate(2227.922 -242.568)">
        <path id="Trazado_26383" data-name="Trazado 26383" d="M2261.453-210.118l-2.272-8.482a16.663,16.663,0,0,0,2.012-7.96,16.734,16.734,0,0,0-16.733-16.733,16.734,16.734,0,0,0-16.734,16.733,16.734,16.734,0,0,0,16.734,16.733,16.65,16.65,0,0,0,8.784-2.49Z" transform="translate(-2227.726 243.293)" fill="#d8ecfe"/>
      </g>
      <g id="Grupo_16837" data-name="Grupo 16837" transform="translate(2239.252 -234.404)">
        <path id="Trazado_26384" data-name="Trazado 26384" d="M2243.23-236.015l-4.674,8.094a5.4,5.4,0,0,0,4.672,8.094,5.4,5.4,0,0,0,4.674-8.094Z" transform="translate(-2237.825 236.015)" fill="#00a7d3"/>
      </g>
      <g id="Grupo_16838" data-name="Grupo 16838" transform="translate(2239.252 -234.404)">
        <path id="Trazado_26385" data-name="Trazado 26385" d="M2243.3-227.921l2.3-3.988-2.371-4.106-4.674,8.094a5.4,5.4,0,0,0,4.672,8.094,5.38,5.38,0,0,0,2.372-.542A5.4,5.4,0,0,1,2243.3-227.921Z" transform="translate(-2237.825 236.015)" fill="#0096d3"/>
      </g>
      <g id="Grupo_16839" data-name="Grupo 16839" transform="translate(2226.115 -249.241)">
        <path id="Trazado_26386" data-name="Trazado 26386" d="M2253.7-210.179l7.479,2a1.805,1.805,0,0,0,1.747-.468,1.807,1.807,0,0,0,.468-1.746L2261.3-218.2a18.59,18.59,0,0,0,1.893-8.167,18.575,18.575,0,0,0-2.16-8.686,1.807,1.807,0,0,0-2.445-.748,1.807,1.807,0,0,0-.748,2.444,14.962,14.962,0,0,1,1.738,6.99,14.942,14.942,0,0,1-1.794,7.1,1.811,1.811,0,0,0-.156,1.329l1.462,5.456-5.185-1.39a1.807,1.807,0,0,0-1.419.209,14.889,14.889,0,0,1-7.833,2.221,14.942,14.942,0,0,1-14.925-14.926,14.942,14.942,0,0,1,14.926-14.925,14.86,14.86,0,0,1,8.089,2.386,1.809,1.809,0,0,0,2.5-.536,1.81,1.81,0,0,0-.536-2.5,18.475,18.475,0,0,0-10.052-2.966,18.562,18.562,0,0,0-18.542,18.541,18.562,18.562,0,0,0,18.542,18.541,18.5,18.5,0,0,0,9.046-2.357Z" transform="translate(-2226.115 249.769)" fill="#00223d"/>
        <path id="Trazado_26387" data-name="Trazado 26387" d="M2243.426-237.627a1.806,1.806,0,0,0-1.565.9l-4.673,8.094a7.129,7.129,0,0,0,0,7.2,7.13,7.13,0,0,0,6.239,3.6,7.131,7.131,0,0,0,6.24-3.6,7.132,7.132,0,0,0,0-7.2l-4.674-8.094A1.807,1.807,0,0,0,2243.426-237.627Zm3.107,14.394a3.55,3.55,0,0,1-3.107,1.795,3.554,3.554,0,0,1-3.108-1.795,3.552,3.552,0,0,1,0-3.588l3.108-5.382,3.107,5.382a3.548,3.548,0,0,1,0,3.588Z" transform="translate(-2224.885 250.656)" fill="#00223d"/>
        <path id="Trazado_26388" data-name="Trazado 26388" d="M2345.347-181.685h-2v-2.259a15.186,15.186,0,0,0-7.554-13.118v-.706a4.589,4.589,0,0,0-4.583-4.584H2325.1a4.59,4.59,0,0,0-4.584,4.584v.716a15.3,15.3,0,0,0-5.539,5.592,4.585,4.585,0,0,0-3.52-1.648h-5.9a17.276,17.276,0,0,0,1.383-3.052h1.166a7.675,7.675,0,0,0,7.666-7.665v-2.461a7.655,7.655,0,0,0-3-6.076v-7.281c0-.137,0-.275-.008-.412h2.808a1.807,1.807,0,0,0,1.808-1.807,1.808,1.808,0,0,0-1.808-1.808h-3.252a18.07,18.07,0,0,0-3.774-7.58l1.82-1.82a1.807,1.807,0,0,0,0-2.557,1.808,1.808,0,0,0-2.557,0l-1.847,1.847a18.14,18.14,0,0,0-3.77-2.328,9.114,9.114,0,0,0,.9-3.963,9.179,9.179,0,0,0-9.168-9.17h-6.816a9.179,9.179,0,0,0-9.169,9.17,9.111,9.111,0,0,0,.9,3.963,18.147,18.147,0,0,0-4.332,2.8l-2.456-2.456a1.807,1.807,0,0,0-2.556,0,1.806,1.806,0,0,0,0,2.557l2.529,2.53a18.009,18.009,0,0,0-3.766,11.037v7.279a7.658,7.658,0,0,0-3,6.076v2.461a7.675,7.675,0,0,0,7.666,7.666h1.166a17.4,17.4,0,0,0,4.66,7.147,19.233,19.233,0,0,0-7.564,6.729v-1.66a15.184,15.184,0,0,0-7.554-13.118v-.706a4.588,4.588,0,0,0-4.583-4.584h-6.106a4.589,4.589,0,0,0-4.583,4.584v.716a15.186,15.186,0,0,0-7.536,13.108v2.26h-2a3.017,3.017,0,0,0-3.013,3.013v4.834a3.012,3.012,0,0,0,1.671,2.693v29.814a4.224,4.224,0,0,0,4.219,4.219h7.337a1.809,1.809,0,0,0,1.808-1.808,1.808,1.808,0,0,0-1.808-1.807H2241.7a.6.6,0,0,1-.6-.6v-29.5h29.82v30.1h-13.443a1.808,1.808,0,0,0-1.807,1.808,1.808,1.808,0,0,0,1.807,1.808h84.992a4.223,4.223,0,0,0,4.218-4.219v-10.024a1.808,1.808,0,0,0-1.807-1.808,1.808,1.808,0,0,0-1.809,1.808v10.024a.6.6,0,0,1-.6.6h-29.217v-30.1h29.82v11.033a1.808,1.808,0,0,0,1.809,1.808,1.808,1.808,0,0,0,1.807-1.808v-11.352a3.015,3.015,0,0,0,1.673-2.695v-4.834a3.017,3.017,0,0,0-3.013-3.013Zm-83.636-8.745a4.6,4.6,0,0,0,1.721-2.369,11.536,11.536,0,0,1,4.145,8.854v2.259h-5.866Zm-9.73-7.339a.969.969,0,0,1,.968-.968h6.106a.969.969,0,0,1,.968.968v3.609a.969.969,0,0,1-.968.967h-6.106a.969.969,0,0,1-.968-.967Zm6.114,8.193v7.891h-4.185v-7.891Zm-13.65,5.631a11.535,11.535,0,0,1,4.13-8.843,4.6,4.6,0,0,0,1.719,2.358v8.745h-5.849Zm28.147,9.5h-33.163v-3.628h33.163Zm61.271-15.99a4.594,4.594,0,0,0,1.722-2.368,11.533,11.533,0,0,1,4.144,8.853v2.26h-5.866Zm-9.729-7.338a.969.969,0,0,1,.968-.968h6.106a.969.969,0,0,1,.968.968v3.609a.969.969,0,0,1-.968.967H2325.1a.969.969,0,0,1-.968-.967Zm6.114,8.193v7.891h-4.186v-7.891Zm-13.65,5.631a11.534,11.534,0,0,1,4.131-8.843,4.608,4.608,0,0,0,1.718,2.357v8.746H2316.6Zm-4.439-22.343v2.461a4.056,4.056,0,0,1-4.051,4.05h-.355a17.436,17.436,0,0,0,.115-1.963v-8.6h.24A4.055,4.055,0,0,1,2312.158-206.287Zm-25.047-39.337h6.816a5.559,5.559,0,0,1,5.552,5.553,5.512,5.512,0,0,1-.751,2.782,18.063,18.063,0,0,0-4.066-.466h-8.286a18.065,18.065,0,0,0-4.067.466,5.515,5.515,0,0,1-.751-2.782,5.559,5.559,0,0,1,5.553-5.553Zm-14.181,45.848a4.054,4.054,0,0,1-4.05-4.05v-2.461a4.054,4.054,0,0,1,4.05-4.05h.24v8.6a17.436,17.436,0,0,0,.115,1.963Zm.246-14.177h-.246a7.74,7.74,0,0,0-1.051.074v-5.764a14.513,14.513,0,0,1,14.5-14.5h8.286a14.513,14.513,0,0,1,14.5,14.5v5.764a7.73,7.73,0,0,0-1.05-.074h-.241v-4.59a6,6,0,0,0-6-6h-7.73a5.949,5.949,0,0,0-2.45.524l-16.778,7.512a2.949,2.949,0,0,0-1.737,2.551Zm3.611,12.214v-11.642l16.381-7.334a2.362,2.362,0,0,1,.973-.208h.36l-4.939,4.94a1.806,1.806,0,0,0,0,2.557,1.8,1.8,0,0,0,1.278.529,1.806,1.806,0,0,0,1.279-.529l7.5-7.5h2.256a2.383,2.383,0,0,1,2.381,2.38v16.8a13.747,13.747,0,0,1-13.732,13.732,13.747,13.747,0,0,1-13.733-13.732Zm17,17.035v2.759a3.275,3.275,0,0,1-3.271,3.271,3.275,3.275,0,0,1-3.271-3.271V-184.7a17.368,17.368,0,0,0,3.271.312,17.289,17.289,0,0,0,3.271-.313Zm-19.254,27.568h3.792v.278a1.808,1.808,0,0,0-1.446,1.771,1.808,1.808,0,0,0,1.446,1.771v1.76a1.809,1.809,0,0,0-1.446,1.771,1.81,1.81,0,0,0,1.446,1.772v.518h-3.792Zm35.1,16.41h-35.1v-3.151h4.877a2.534,2.534,0,0,0,2.532-2.531v-1.6a1.808,1.808,0,0,0,1.446-1.771,1.809,1.809,0,0,0-1.446-1.772v-1.76a1.807,1.807,0,0,0,1.446-1.771,1.807,1.807,0,0,0-1.446-1.771v-1.363a2.534,2.534,0,0,0-2.532-2.531h-4.877v-10.391a3.014,3.014,0,0,0,1.671-2.695v-4.833a3.013,3.013,0,0,0-1.366-2.521,15.552,15.552,0,0,1,7.347-5.343c.469.258.949.5,1.443.713v3.875a6.9,6.9,0,0,0,6.888,6.888,6.894,6.894,0,0,0,6.035-3.573V-158.7a2.646,2.646,0,0,0,2.644,2.643h10.438v15.331Zm0-30.417v11.471h-9.467v-27.659a17.47,17.47,0,0,0,2.618-2.161h8.67a.979.979,0,0,1,.978.978v6.83h-1.458a3.017,3.017,0,0,0-3.013,3.014v4.833a3.014,3.014,0,0,0,1.672,2.695Zm35.107-3.3h-33.163v-3.628h33.163Z" transform="translate(-2224.934 249.241)" fill="#00223d"/>
      </g>
    </g>
  </g>
</svg>
