<svg xmlns="http://www.w3.org/2000/svg" width="84" height="82.833" viewBox="0 0 84 82.833">
  <g id="Grupo_16666" data-name="Grupo 16666" transform="translate(-346.481 268.728)">
    <g id="Grupo_16650" data-name="Grupo 16650" transform="translate(395.738 -250.905)">
      <path id="Trazado_25981" data-name="Trazado 25981" d="M428.669-243.234c-6.571,0-11.729,4.808-11.729,14.97,4.553,1.2,9.259.5,11.729-4.38,2.469,4.883,7.175,5.576,11.729,4.38C440.4-238.426,435.681-243.234,428.669-243.234Z" transform="translate(-416.94 243.234)" fill="#ffcd69" fill-rule="evenodd"/>
    </g>
    <g id="Grupo_16651" data-name="Grupo 16651" transform="translate(348.122 -217.118)">
      <path id="Trazado_25982" data-name="Trazado 25982" d="M368.612-169.308h19.778v-14.352c-.139-8.748-8.557-9.208-14.723-11.245a5.069,5.069,0,0,1-5.055,5.055,5.073,5.073,0,0,1-5.06-5.055c-6.167,2.036-14.579,2.5-14.724,11.245v14.352h19.784Z" transform="translate(-348.828 194.904)" fill="#ff7b79" fill-rule="evenodd"/>
    </g>
    <g id="Grupo_16652" data-name="Grupo 16652" transform="translate(387.683 -217.118)">
      <path id="Trazado_25983" data-name="Trazado 25983" d="M414.2-169.308h30.782v-14.352a8.524,8.524,0,0,0-5.11-8.143c-2.888-1.46-6.534-2.084-9.612-3.1a5.073,5.073,0,0,1-5.06,5.055,5.069,5.069,0,0,1-5.055-5.055c-3.083,1.018-6.724,1.641-9.617,3.1a8.525,8.525,0,0,0-5.111,8.143v14.352Z" transform="translate(-405.418 194.904)" fill="#a0c8ff" fill-rule="evenodd"/>
    </g>
    <g id="Grupo_16653" data-name="Grupo 16653" transform="translate(362.845 -220.439)">
      <path id="Trazado_25984" data-name="Trazado 25984" d="M369.889-196.333a5.073,5.073,0,0,0,5.06,5.055A5.069,5.069,0,0,0,380-196.333v-3.321c-.08.032-.163.07-.242.1a12.242,12.242,0,0,1-4.813.977,12.246,12.246,0,0,1-4.818-.977c-.079-.032-.158-.069-.242-.1Z" transform="translate(-369.889 199.654)" fill="#ffd0c7" fill-rule="evenodd"/>
    </g>
    <g id="Grupo_16654" data-name="Grupo 16654" transform="translate(412.527 -232.493)">
      <path id="Trazado_25985" data-name="Trazado 25985" d="M450.567-198.42c-2.888-1.46-6.534-2.084-9.612-3.1v-4.8a11.761,11.761,0,0,0,6.669-10.575c0,7.576,5.506,10.868,9.645,12.235-1.051,4.241-2.688,5.669-6.7,6.241Z" transform="translate(-440.955 216.897)" fill="#ffcd69" fill-rule="evenodd"/>
    </g>
    <g id="Grupo_16655" data-name="Grupo 16655" transform="translate(386.098 -232.433)">
      <path id="Trazado_25986" data-name="Trazado 25986" d="M419.464-201.5c-3.083,1.018-6.725,1.641-9.617,3.1-4.013-.573-5.646-2-6.7-6.241,4.125-1.363,9.612-4.641,9.64-12.175a11.778,11.778,0,0,0,6.674,10.52Z" transform="translate(-403.15 216.811)" fill="#ffcd69" fill-rule="evenodd"/>
    </g>
    <g id="Grupo_16656" data-name="Grupo 16656" transform="translate(395.728 -240.316)">
      <path id="Trazado_25987" data-name="Trazado 25987" d="M433.724-209.689a11.624,11.624,0,0,1-5.06,1.154,11.653,11.653,0,0,1-5.055-1.149,11.772,11.772,0,0,1-6.673-10.515c-.023-4.618,0,0,0,0v-3.5c4.553,1.2,9.259.5,11.729-4.381,2.469,4.883,7.175,5.576,11.729,4.381v3.442a11.761,11.761,0,0,1-6.669,10.575Z" transform="translate(-416.925 228.086)" fill="#ffdcd5" fill-rule="evenodd"/>
    </g>
    <g id="Grupo_16657" data-name="Grupo 16657" transform="translate(355.479 -238.358)">
      <path id="Trazado_25988" data-name="Trazado 25988" d="M359.352-218.71v-3.182c3.511-.353,6.376-.572,8.524-3.395,4.274,2.925,10.3,3.739,16.324,3.316v3.261a12.461,12.461,0,0,1-7.608,11.445,12.242,12.242,0,0,1-4.813.977,12.245,12.245,0,0,1-4.818-.977,12.46,12.46,0,0,1-7.608-11.445Z" transform="translate(-359.352 225.286)" fill="#ffdcd5" fill-rule="evenodd"/>
    </g>
    <g id="Grupo_16658" data-name="Grupo 16658" transform="translate(355.479 -250.724)">
      <path id="Trazado_25989" data-name="Trazado 25989" d="M359.352-230.548a12.461,12.461,0,0,1,12.426-12.427A12.46,12.46,0,0,1,384.2-230.548v3.255c-6.028.424-12.049-.39-16.324-3.316-2.148,2.823-5.013,3.042-8.524,3.4Z" transform="translate(-359.352 242.975)" fill="#ffcd69" fill-rule="evenodd"/>
    </g>
    <g id="Grupo_16659" data-name="Grupo 16659" transform="translate(402.412 -221.918)">
      <path id="Trazado_25990" data-name="Trazado 25990" d="M436.6-196.97a5.069,5.069,0,0,1-5.055,5.055,5.069,5.069,0,0,1-5.055-5.055v-4.8a11.653,11.653,0,0,0,5.055,1.149,11.619,11.619,0,0,0,5.059-1.154Z" transform="translate(-426.486 201.77)" fill="#ffd0c7" fill-rule="evenodd"/>
    </g>
    <g id="Grupo_16660" data-name="Grupo 16660" transform="translate(378.977 -215.011)">
      <path id="Trazado_25991" data-name="Trazado 25991" d="M410.683-188.928a14.732,14.732,0,0,0-17.718,0v.684a8.88,8.88,0,0,0,4.2,7.529,8.816,8.816,0,0,0,4.66,1.33,8.8,8.8,0,0,0,4.654-1.33,8.884,8.884,0,0,0,4.2-7.529v-.684Z" transform="translate(-392.965 191.889)" fill="#ffdcd5" fill-rule="evenodd"/>
    </g>
    <g id="Grupo_16661" data-name="Grupo 16661" transform="translate(378.977 -222.546)">
      <path id="Trazado_25992" data-name="Trazado 25992" d="M401.825-202.668a8.857,8.857,0,0,0-8.86,8.86v1.637a14.732,14.732,0,0,1,17.718,0v-1.609a8.863,8.863,0,0,0-8.859-8.888Z" transform="translate(-392.965 202.668)" fill="#ffcd69" fill-rule="evenodd"/>
    </g>
    <g id="Grupo_16662" data-name="Grupo 16662" transform="translate(383.177 -203.836)">
      <path id="Trazado_25993" data-name="Trazado 25993" d="M408.287-175.9a8.8,8.8,0,0,1-4.655,1.33,8.816,8.816,0,0,1-4.66-1.33v3.595a4.545,4.545,0,0,0,4.53,4.53,4.539,4.539,0,0,0,4.785-4.53V-175.9Z" transform="translate(-398.972 175.905)" fill="#ffd0c7" fill-rule="evenodd"/>
    </g>
    <g id="Grupo_16663" data-name="Grupo 16663" transform="translate(371.946 -200.242)">
      <path id="Trazado_25994" data-name="Trazado 25994" d="M403.453-170.763a4.539,4.539,0,0,1-4.785,4.529,4.544,4.544,0,0,1-4.53-4.529c-5.525,1.823-11.105,2.237-11.231,10.068v2.637h31.777v-2.637c-.126-7.831-5.706-8.245-11.231-10.068Z" transform="translate(-382.907 170.763)" fill="#d5ea7a" fill-rule="evenodd"/>
    </g>
    <g id="Grupo_16664" data-name="Grupo 16664" transform="translate(378.21 -267.087)">
      <path id="Trazado_25995" data-name="Trazado 25995" d="M410.935-256.78a5.6,5.6,0,0,0,.144-7.9,5.606,5.606,0,0,0-7.9-.139l-.926.893-.926-.893a5.607,5.607,0,0,0-7.9.139,5.607,5.607,0,0,0,.144,7.9l8.683,8.381Z" transform="translate(-391.868 266.381)" fill="#ff7b79" fill-rule="evenodd"/>
    </g>
    <g id="Grupo_16665" data-name="Grupo 16665" transform="translate(346.481 -268.728)">
      <path id="Trazado_25996" data-name="Trazado 25996" d="M372.483-211.6a1.637,1.637,0,0,0-1.18.5,1.64,1.64,0,0,0,.04,2.32,5.645,5.645,0,0,0,7.782,0,1.641,1.641,0,0,0,.039-2.32,1.64,1.64,0,0,0-2.32-.039,2.338,2.338,0,0,1-3.221,0,1.632,1.632,0,0,0-1.139-.461Z" transform="translate(-353.811 251.536)" fill="#00223d"/>
      <path id="Trazado_25997" data-name="Trazado 25997" d="M430.432-212.9a1.64,1.64,0,0,0-1.077-1.953c-3.886-1.284-8.519-4.178-8.519-10.678v-3.442c0-5.307-1.216-9.461-3.614-12.345a12.211,12.211,0,0,0-9.756-4.267,12.176,12.176,0,0,0-9.576,4.25c-2.481,2.906-3.793,7.18-3.793,12.361v3.442a10.021,10.021,0,0,1-4.2,8.511,10.492,10.492,0,0,0-2.057-.2,10.513,10.513,0,0,0-9.824,6.8c-.438-.123-2.733-.742-3.411-.94v-1.091a14.074,14.074,0,0,0,7.366-12.363v-6.516A14.08,14.08,0,0,0,367.9-245.4a14.083,14.083,0,0,0-14.066,14.067v6.516a14.073,14.073,0,0,0,7.366,12.361v1.093c-.677.2-1.381.389-2.11.586-5.556,1.5-12.473,3.362-12.613,11.843v14.378a1.642,1.642,0,0,0,1.641,1.641h22.184v2.345a1.641,1.641,0,0,0,1.641,1.641h8.515a1.641,1.641,0,0,0,1.641-1.641,1.641,1.641,0,0,0-1.641-1.641h-6.873v-.983a9.553,9.553,0,0,1,.464-3c1.032-2.956,3.7-3.744,7.34-4.817l.517-.152a6.181,6.181,0,0,0,5.8,4.06,6.253,6.253,0,0,0,6.067-4.057l.5.149c4.643,1.37,7.711,2.274,7.8,7.819v.983h-6.887a1.64,1.64,0,0,0-1.641,1.641,1.64,1.64,0,0,0,1.641,1.64h8.529a1.64,1.64,0,0,0,1.641-1.64v-2.345H427.25a1.64,1.64,0,0,0,1.641-1.641v-14.379a10.052,10.052,0,0,0-2.966-7.464c2.362-1.107,3.663-3.084,4.508-6.5Zm-22.966-29.4a8.92,8.92,0,0,1,7.233,3.082c1.707,2.053,2.652,5.057,2.824,8.935-3.038.527-6.615.1-8.592-3.809a1.657,1.657,0,0,0-2.928,0c-1.976,3.909-5.551,4.336-8.589,3.81.38-7.553,4.076-12.018,10.054-12.018Zm-10.088,15.332a14.767,14.767,0,0,0,2.036.146,10.145,10.145,0,0,0,8.052-3.556,10.141,10.141,0,0,0,8.052,3.556,14.775,14.775,0,0,0,2.036-.146v1.439a10.1,10.1,0,0,1-10.088,10.088,10.1,10.1,0,0,1-10.088-10.088v-1.439ZM410.886-212.6v2.451a3.421,3.421,0,0,1-3.419,3.414,3.418,3.418,0,0,1-3.414-3.414v-2.45a13.317,13.317,0,0,0,3.414.444A13.329,13.329,0,0,0,410.886-212.6Zm-15.051-6.346a13.472,13.472,0,0,0,4.936,4.987v2.6c-.682.2-1.389.391-2.122.589-.337.091-.68.183-1.023.278a10.578,10.578,0,0,0-4.277-5.153A13.02,13.02,0,0,0,395.835-218.95Zm-14.686,9.514a7.229,7.229,0,0,1,6.688-4.5,7.236,7.236,0,0,1,7.085,5.859,16.459,16.459,0,0,0-7.086-1.606,16.451,16.451,0,0,0-7.087,1.607,7.194,7.194,0,0,1,.4-1.357Zm-24.029-21.9a10.8,10.8,0,0,1,10.786-10.786,10.8,10.8,0,0,1,10.781,10.786v1.7c-4.313.144-9.748-.369-13.756-3.112a1.641,1.641,0,0,0-2.232.361c-1.387,1.823-3.13,2.275-5.578,2.566v-1.512Zm0,6.516v-1.7c2.638-.3,5.124-.777,7.187-2.754,4.49,2.541,9.974,3.054,14.379,2.92v1.535A10.793,10.793,0,0,1,367.9-214.036a10.8,10.8,0,0,1-10.785-10.781Zm14.2,13.641v1.022a3.418,3.418,0,0,1-3.414,3.415,3.421,3.421,0,0,1-3.419-3.415v-1.023a14.073,14.073,0,0,0,3.419.422A14.04,14.04,0,0,0,371.32-211.176Zm10.216,16.7c-.359.11-.719.217-1.073.319-4.049,1.195-8.564,2.525-9.819,7.964h-12.1v-6.638a1.64,1.64,0,0,0-1.641-1.641,1.64,1.64,0,0,0-1.64,1.641v6.638h-5.5v-12.7c.1-5.595,3.914-7.025,10.185-8.715.528-.143,1.065-.288,1.6-.439a6.71,6.71,0,0,0,6.359,4.59,6.706,6.706,0,0,0,6.354-4.59c.534.15,2.611.714,3.09.851-.008.157-.011.317-.011.475v2.32a10.489,10.489,0,0,0,4.2,8.393Zm9.315,1.2v.006a2.909,2.909,0,0,1-3.145,2.889,2.893,2.893,0,0,1-2.889-2.889v-1.067a10.115,10.115,0,0,0,1.226.289,10.448,10.448,0,0,0,1.793.154,10.327,10.327,0,0,0,1.488-.106,10.082,10.082,0,0,0,1.528-.335Zm.873-5.039a7.225,7.225,0,0,1-7.719.034,7.215,7.215,0,0,1-3.381-5.955,13.189,13.189,0,0,1,14.425,0A7.22,7.22,0,0,1,391.725-198.321ZM425.609-186.2h-5.5v-6.637a1.641,1.641,0,0,0-1.641-1.641,1.641,1.641,0,0,0-1.641,1.641v6.637h-11.8c-1.256-5.438-5.77-6.769-9.819-7.963-.354-.1-.714-.21-1.073-.319V-196a10.492,10.492,0,0,0,4.2-8.4v-2.292c0-.2-.006-.395-.017-.591.4-.11.793-.217,1.184-.322.532-.143,1.072-.289,1.61-.441a6.706,6.706,0,0,0,6.355,4.59,6.71,6.71,0,0,0,6.358-4.59c.534.15,1.071.3,1.6.438,6.271,1.69,10.087,3.121,10.185,8.715v12.7Zm-3.232-22.551a37.725,37.725,0,0,0-6.1-2.029c-.729-.2-1.433-.386-2.111-.585v-2.6a13.479,13.479,0,0,0,4.924-4.97,15.1,15.1,0,0,0,7.753,6.649C426.058-210,424.952-209.183,422.378-208.749Z" transform="translate(-346.481 261.763)" fill="#00223d"/>
      <path id="Trazado_25998" data-name="Trazado 25998" d="M400.406-247.925a1.637,1.637,0,0,0,1.14.46,1.635,1.635,0,0,0,1.139-.46l8.682-8.38a7.237,7.237,0,0,0,.185-10.222,7.182,7.182,0,0,0-5.073-2.2,7.166,7.166,0,0,0-4.933,1.82,7.17,7.17,0,0,0-4.933-1.82,7.187,7.187,0,0,0-5.076,2.2,7.242,7.242,0,0,0,.187,10.219ZM393.9-264.247a3.924,3.924,0,0,1,2.773-1.2h.073a3.908,3.908,0,0,1,2.736,1.1l.926.893a1.641,1.641,0,0,0,2.278,0l.926-.893a3.906,3.906,0,0,1,2.809-1.1,3.921,3.921,0,0,1,2.771,1.2,3.951,3.951,0,0,1-.1,5.582l-7.542,7.281L394-258.667a3.956,3.956,0,0,1-.1-5.581Z" transform="translate(-359.431 268.728)" fill="#00223d"/>
      <path id="Trazado_25999" data-name="Trazado 25999" d="M404.919-154.935a1.64,1.64,0,0,0-1.641,1.641,1.64,1.64,0,0,0,1.641,1.64h.009a1.636,1.636,0,0,0,1.636-1.64,1.644,1.644,0,0,0-1.645-1.641Z" transform="translate(-363.572 234.486)" fill="#00223d"/>
    </g>
  </g>
</svg>
