<svg xmlns="http://www.w3.org/2000/svg" width="81.292" height="81.292" viewBox="0 0 81.292 81.292">
  <g id="Page-1" transform="translate(-1331.455 -652.196)">
    <g id="Grupo_16784" data-name="Grupo 16784" transform="translate(1331.455 652.196)">
      <path id="Shape" d="M1411.226,703.591v20.25a1.355,1.355,0,0,1-1.355,1.355H1334a1.354,1.354,0,0,1-1.354-1.355v-20.25a1.346,1.346,0,0,1,1.467-1.355c5.12.559,5.606,3.993,11.62,3.993,6.545,0,6.545-4.064,13.1-4.064s6.544,4.064,13.087,4.064,6.558-4.064,13.1-4.064,6.544,4.064,13.1,4.064c6.015,0,6.5-3.435,11.634-3.989a1.346,1.346,0,0,1,1.467,1.352Z" transform="translate(-1331.29 -645.26)" fill="sienna"/>
      <path id="Trazado_26245" data-name="Trazado 26245" d="M1400.842,702.231a9.72,9.72,0,0,0-2.779.706,1.338,1.338,0,0,1,.181.646v20.25a1.355,1.355,0,0,1-1.355,1.355h4.064a1.355,1.355,0,0,0,1.355-1.355v-20.25a1.346,1.346,0,0,0-1.467-1.352Z" transform="translate(-1322.372 -645.251)" fill="#783e22"/>
      <path id="Trazado_26246" data-name="Trazado 26246" d="M1344.542,707.384V693.836" transform="translate(-1329.638 -646.416)" fill="none" stroke="#000" stroke-linejoin="round" stroke-width="2"/>
      <path id="Trazado_26247" data-name="Trazado 26247" d="M1355.164,678.508a9.137,9.137,0,0,0-2.493,6.273v3.238a8.142,8.142,0,0,1-8.129,8.13V683.954a6.774,6.774,0,0,1,6.774-6.774h3.266a.79.79,0,0,1,.582,1.328Z" transform="translate(-1329.638 -648.728)" fill="#008a00"/>
      <path id="Trazado_26248" data-name="Trazado 26248" d="M1354.582,677.18h-3.266c-.179,0-.346.039-.523.052a.787.787,0,0,1,.306,1.276,9.137,9.137,0,0,0-2.493,6.273v3.238a8.129,8.129,0,0,1-4.064,7.033v1.1a8.142,8.142,0,0,0,8.129-8.13V684.78a9.137,9.137,0,0,1,2.493-6.273.79.79,0,0,0-.582-1.328Z" transform="translate(-1329.638 -648.728)" fill="#007900"/>
      <path id="Trazado_26249" data-name="Trazado 26249" d="M1345.863,683.954v12.194a8.143,8.143,0,0,1-8.13-8.13V684.78a9.131,9.131,0,0,0-2.493-6.273.79.79,0,0,1,.583-1.328h3.265a6.775,6.775,0,0,1,6.775,6.774Z" transform="translate(-1330.959 -648.728)" fill="#60a917"/>
      <path id="Trazado_26250" data-name="Trazado 26250" d="M1339.024,677.18h-3.265a.79.79,0,0,0-.271.052,6.757,6.757,0,0,1,6.246,6.721v11.1a8.062,8.062,0,0,0,4.064,1.1V683.954A6.775,6.775,0,0,0,1339.024,677.18Z" transform="translate(-1330.895 -648.728)" fill="#549414"/>
      <path id="Trazado_26251" data-name="Trazado 26251" d="M1377.769,670.18a9.132,9.132,0,0,0-2.493,6.273v3.238a8.143,8.143,0,0,1-8.13,8.13V675.626a6.775,6.775,0,0,1,6.775-6.774h3.265a.79.79,0,0,1,.583,1.328Z" transform="translate(-1326.501 -649.884)" fill="#008a00"/>
      <path id="Trazado_26252" data-name="Trazado 26252" d="M1377.186,668.852h-3.265c-.179,0-.347.039-.523.052a.788.788,0,0,1,.306,1.275,9.127,9.127,0,0,0-2.493,6.273v3.238a8.13,8.13,0,0,1-4.066,7.033v1.1a8.143,8.143,0,0,0,8.13-8.13v-3.238a9.132,9.132,0,0,1,2.493-6.273.79.79,0,0,0-.583-1.328Z" transform="translate(-1326.501 -649.884)" fill="#007900"/>
      <path id="Trazado_26253" data-name="Trazado 26253" d="M1368.466,675.626V687.82a8.142,8.142,0,0,1-8.129-8.13v-3.238a9.137,9.137,0,0,0-2.493-6.273.79.79,0,0,1,.583-1.328h3.265A6.774,6.774,0,0,1,1368.466,675.626Z" transform="translate(-1327.821 -649.884)" fill="#60a917"/>
      <path id="Trazado_26254" data-name="Trazado 26254" d="M1361.629,668.852h-3.265a.785.785,0,0,0-.271.052,6.756,6.756,0,0,1,6.245,6.721v11.1a8.065,8.065,0,0,0,4.064,1.1V675.626A6.774,6.774,0,0,0,1361.629,668.852Z" transform="translate(-1327.757 -649.884)" fill="#549414"/>
      <path id="Trazado_26255" data-name="Trazado 26255" d="M1400.373,678.508a9.137,9.137,0,0,0-2.493,6.273v3.238a8.142,8.142,0,0,1-8.129,8.13V683.954a6.774,6.774,0,0,1,6.775-6.774h3.265a.789.789,0,0,1,.582,1.328Z" transform="translate(-1323.363 -648.728)" fill="#008a00"/>
      <path id="Trazado_26256" data-name="Trazado 26256" d="M1399.791,677.18h-3.265c-.179,0-.347.039-.524.052a.787.787,0,0,1,.306,1.276,9.137,9.137,0,0,0-2.493,6.273v3.238a8.127,8.127,0,0,1-4.064,7.033v1.1a8.142,8.142,0,0,0,8.129-8.13V684.78a9.137,9.137,0,0,1,2.493-6.273.789.789,0,0,0-.582-1.328Z" transform="translate(-1323.363 -648.728)" fill="#007900"/>
      <path id="Trazado_26257" data-name="Trazado 26257" d="M1391.071,683.954v12.194a8.142,8.142,0,0,1-8.129-8.13V684.78a9.137,9.137,0,0,0-2.493-6.273.79.79,0,0,1,.582-1.328h3.265a6.773,6.773,0,0,1,6.775,6.774Z" transform="translate(-1324.683 -648.728)" fill="#60a917"/>
      <path id="Trazado_26258" data-name="Trazado 26258" d="M1384.233,677.18h-3.265a.79.79,0,0,0-.271.052,6.757,6.757,0,0,1,6.246,6.721v11.1a8.062,8.062,0,0,0,4.064,1.1V683.954A6.774,6.774,0,0,0,1384.233,677.18Z" transform="translate(-1324.62 -648.728)" fill="#549414"/>
      <path id="Trazado_26259" data-name="Trazado 26259" d="M1352.141,670.521v8.806a6.774,6.774,0,0,0-6.774,6.774,6.775,6.775,0,0,0-6.775-6.774v-8.806c0-4.865,3.035-8.808,6.775-8.808S1352.141,665.656,1352.141,670.521Z" transform="translate(-1330.464 -650.875)" fill="#f5b955"/>
      <path id="Trazado_26260" data-name="Trazado 26260" d="M1344.79,661.713a5.366,5.366,0,0,0-2.033.407c2.748,1.122,4.742,4.46,4.742,8.4v8.806a6.744,6.744,0,0,0-4.742,1.945,6.749,6.749,0,0,1,2.033,4.829,6.774,6.774,0,0,1,6.774-6.774v-8.806C1351.563,665.656,1348.528,661.713,1344.79,661.713Z" transform="translate(-1329.886 -650.875)" fill="#fec108"/>
      <path id="Trazado_26261" data-name="Trazado 26261" d="M1367.134,708.54l.014-23.032" transform="translate(-1326.502 -647.572)" fill="none" stroke="#000" stroke-linejoin="round" stroke-width="2"/>
      <path id="Trazado_26262" data-name="Trazado 26262" d="M1389.751,707.384V693.836" transform="translate(-1323.363 -646.416)" fill="none" stroke="#000" stroke-linejoin="round" stroke-width="2"/>
      <path id="Trazado_26263" data-name="Trazado 26263" d="M1397.351,670.521v8.806a6.775,6.775,0,0,1-13.549,0v-8.806c0-4.865,3.035-8.808,6.775-8.808S1397.351,665.656,1397.351,670.521Z" transform="translate(-1324.189 -650.875)" fill="#f5b955"/>
      <path id="Trazado_26264" data-name="Trazado 26264" d="M1390,661.713a5.37,5.37,0,0,0-2.033.407c2.748,1.122,4.742,4.46,4.742,8.4v8.806a6.747,6.747,0,0,0-4.742,1.945,4.87,4.87,0,1,0,8.807-1.945v-8.806C1396.773,665.656,1393.739,661.713,1390,661.713Z" transform="translate(-1323.611 -650.875)" fill="#fec108"/>
      <path id="Trazado_26265" data-name="Trazado 26265" d="M1374.746,662.193V671a6.774,6.774,0,0,1-13.548,0v-8.806c0-4.865,3.035-8.808,6.774-8.808S1374.746,657.328,1374.746,662.193Z" transform="translate(-1327.326 -652.031)" fill="#f5b955"/>
      <path id="Trazado_26266" data-name="Trazado 26266" d="M1367.394,653.385a5.363,5.363,0,0,0-2.031.407c2.748,1.121,4.742,4.457,4.742,8.4V671a6.743,6.743,0,0,0-4.742,1.945,4.87,4.87,0,1,0,8.806-1.945v-8.806C1374.168,657.328,1371.134,653.385,1367.394,653.385Z" transform="translate(-1326.748 -652.031)" fill="#fec108"/>
      <path id="Trazado_26267" data-name="Trazado 26267" d="M1334.164,733.488h75.872a2.71,2.71,0,0,0,2.71-2.71v-20.25a2.7,2.7,0,0,0-2.968-2.7c-5.138.554-6,3.623-10.581,3.946V700.862a9.484,9.484,0,0,0,8.129-9.376v-3.251a7.724,7.724,0,0,1,2.122-5.331,2.149,2.149,0,0,0-1.569-3.611h-1.907v-7.451c0-5.6-3.645-10.162-8.129-10.162s-8.129,4.558-8.129,10.162v7.451h-1.907a2.149,2.149,0,0,0-1.573,3.618c2.48,2.623,2.125,5.237,2.125,8.575a9.484,9.484,0,0,0,8.129,9.376v10.812c-4.259-.678-5.038-3.929-11.3-3.929-6.52,0-7.007,3.454-11.746,3.985l.013-20.352a9.482,9.482,0,0,0,8.129-9.376v-3.251a7.734,7.734,0,0,1,2.122-5.331,2.149,2.149,0,0,0-1.568-3.611h-1.907v-7.451c0-5.6-3.646-10.162-8.13-10.162s-8.129,4.557-8.129,10.162v7.451h-1.907a2.149,2.149,0,0,0-1.572,3.618c2.479,2.623,2.124,5.237,2.124,8.575a9.484,9.484,0,0,0,8.13,9.376l-.011,20.352c-4.692-.528-5.292-3.985-11.736-3.985-6.327,0-7.016,3.251-11.287,3.929V700.862a9.484,9.484,0,0,0,8.13-9.376v-3.251a7.723,7.723,0,0,1,2.122-5.331,2.149,2.149,0,0,0-1.569-3.611h-1.907v-7.451c0-5.6-3.646-10.162-8.129-10.162s-8.13,4.558-8.13,10.162v7.451h-1.907a2.149,2.149,0,0,0-1.572,3.618c2.479,2.623,2.125,5.237,2.125,8.575a9.484,9.484,0,0,0,8.129,9.376v10.913c-4.626-.32-5.39-3.387-10.58-3.946a2.7,2.7,0,0,0-2.969,2.7v20.25A2.71,2.71,0,0,0,1334.164,733.488Zm70.454-42a6.787,6.787,0,0,1-5.419,6.639v-10.7a5.419,5.419,0,0,1,5.419-5.42h2.063C1404.315,685.185,1404.618,687.934,1404.618,691.486Zm-6.775-27.1c2.99,0,5.42,3.342,5.42,7.452v7.573a5.93,5.93,0,0,1-10.839,0v-7.573C1392.424,667.732,1394.854,664.389,1397.843,664.389Zm-6.775,27.1c0-3.591.312-6.286-2.063-9.484h2.063a5.419,5.419,0,0,1,5.42,5.42v10.7A6.787,6.787,0,0,1,1391.068,691.486ZM1378.875,682a6.785,6.785,0,0,1-5.419,6.639v-10.7a5.42,5.42,0,0,1,5.419-5.42h2.064C1378.573,675.7,1378.875,678.45,1378.875,682Zm-6.775-27.1c2.989,0,5.42,3.342,5.42,7.452v7.573a5.931,5.931,0,0,1-10.839,0v-7.573C1366.681,658.248,1369.112,654.905,1372.1,654.905Zm-6.774,27.1c0-3.592.311-6.286-2.063-9.484h2.063a5.42,5.42,0,0,1,5.42,5.42v10.7A6.786,6.786,0,0,1,1365.327,682Zm-12.194,9.484a6.786,6.786,0,0,1-5.42,6.639v-10.7a5.42,5.42,0,0,1,5.42-5.42h2.063C1352.831,685.185,1353.132,687.934,1353.132,691.486Zm-6.774-27.1c2.988,0,5.42,3.342,5.42,7.452v7.573a8.139,8.139,0,0,0-5.42,3.522,8.144,8.144,0,0,0-5.42-3.522v-7.573C1340.939,667.732,1343.369,664.389,1346.359,664.389Zm-6.775,27.1c0-3.591.312-6.286-2.063-9.484h2.063a5.42,5.42,0,0,1,5.42,5.42v10.7A6.786,6.786,0,0,1,1339.584,691.486Zm6.775,23.034c.04-.007.079-.015.117-.025a12.233,12.233,0,0,0,6.68-2.209,9.528,9.528,0,0,1,5.843-1.831c5.87,0,6.209,4.065,13.087,4.065s7.222-4.065,13.1-4.065c5.75,0,6.1,3.81,12.541,4.042a.939.939,0,0,0,.114.024c7.326,0,7.292-3.446,12.193-4.005v20.263h-75.872l-.033-20.255C1339.031,711.055,1339.042,714.52,1346.359,714.52Z" transform="translate(-1331.455 -652.196)" fill="#00223d"/>
      <path id="Trazado_26268" data-name="Trazado 26268" d="M1353.035,710.028a1.328,1.328,0,0,0,.366-.05,10.257,10.257,0,0,1,2.791-.345,11,11,0,0,1,2.018.17,1.356,1.356,0,1,0,.489-2.667,13.81,13.81,0,0,0-2.507-.212,12.861,12.861,0,0,0-3.522.445,1.355,1.355,0,0,0,.366,2.659Z" transform="translate(-1328.647 -644.599)" fill="#00223d"/>
      <path id="Trazado_26269" data-name="Trazado 26269" d="M1369.691,713.6a1.375,1.375,0,0,0,.366-.05,10.217,10.217,0,0,1,2.791-.346,11.128,11.128,0,0,1,2.019.17,1.355,1.355,0,1,0,.487-2.666,13.71,13.71,0,0,0-2.507-.213,12.907,12.907,0,0,0-3.522.445,1.355,1.355,0,0,0,.366,2.66Z" transform="translate(-1326.335 -644.104)" fill="#00223d"/>
      <path id="Trazado_26270" data-name="Trazado 26270" d="M1382.778,712.408a1.373,1.373,0,0,0,.365-.05,10.176,10.176,0,0,1,2.791-.345,11.1,11.1,0,0,1,2.018.169,1.355,1.355,0,0,0,.489-2.666,13.7,13.7,0,0,0-2.507-.213,12.918,12.918,0,0,0-3.524.445,1.355,1.355,0,0,0,.367,2.66Z" transform="translate(-1324.519 -644.269)" fill="#00223d"/>
      <path id="Trazado_26271" data-name="Trazado 26271" d="M1339.948,713.6a1.375,1.375,0,0,0,.366-.05,10.218,10.218,0,0,1,2.791-.346,11.127,11.127,0,0,1,2.019.17,1.355,1.355,0,0,0,.487-2.666,13.709,13.709,0,0,0-2.506-.213,12.906,12.906,0,0,0-3.522.445,1.355,1.355,0,0,0,.365,2.66Z" transform="translate(-1330.464 -644.104)" fill="#00223d"/>
      <path id="Trazado_26272" data-name="Trazado 26272" d="M1379.209,718.357a1.377,1.377,0,0,0,.366-.051,10.256,10.256,0,0,1,2.791-.345,11.1,11.1,0,0,1,2.018.17,1.356,1.356,0,0,0,.489-2.667,13.813,13.813,0,0,0-2.506-.212,12.864,12.864,0,0,0-3.523.445,1.355,1.355,0,0,0,.367,2.66Z" transform="translate(-1325.014 -643.443)" fill="#00223d"/>
      <path id="Trazado_26273" data-name="Trazado 26273" d="M1391.106,716.818a1.327,1.327,0,0,0,.365-.05,10.26,10.26,0,0,1,2.791-.345,11.1,11.1,0,0,1,2.018.17,1.356,1.356,0,0,0,.489-2.667,13.793,13.793,0,0,0-2.506-.212,12.872,12.872,0,0,0-3.523.445,1.355,1.355,0,0,0,.367,2.659Z" transform="translate(-1323.363 -643.657)" fill="#00223d"/>
      <path id="Trazado_26274" data-name="Trazado 26274" d="M1357.679,716.177a1.355,1.355,0,0,0,1.671.94,10.208,10.208,0,0,1,2.79-.346,11.208,11.208,0,0,1,2.019.17,1.355,1.355,0,1,0,.487-2.666,13.706,13.706,0,0,0-2.507-.213,12.9,12.9,0,0,0-3.522.445,1.355,1.355,0,0,0-.938,1.671Z" transform="translate(-1327.822 -643.609)" fill="#00223d"/>
      <path id="Trazado_26275" data-name="Trazado 26275" d="M1344.592,717.367a1.353,1.353,0,0,0,1.671.938,10.249,10.249,0,0,1,2.79-.345,11.11,11.11,0,0,1,2.019.17,1.356,1.356,0,0,0,.487-2.667,13.794,13.794,0,0,0-2.506-.212,12.861,12.861,0,0,0-3.522.445,1.355,1.355,0,0,0-.938,1.671Z" transform="translate(-1329.639 -643.443)" fill="#00223d"/>
    </g>
  </g>
</svg>
