<svg xmlns="http://www.w3.org/2000/svg" width="84" height="59.386" viewBox="0 0 84 59.386">
  <g id="Grupo_16667" data-name="Grupo 16667" transform="translate(-813.566 272.118)">
    <path id="Trazado_26000" data-name="Trazado 26000" d="M816.588-269.094h81.265v56.649H816.588Z" transform="translate(-1.655 -1.656)" fill="#fed953"/>
    <path id="Trazado_26001" data-name="Trazado 26001" d="M816.588-174.646h81.265v13.961H816.588Z" transform="translate(-1.655 -53.37)" fill="#d60a2e"/>
    <path id="Trazado_26002" data-name="Trazado 26002" d="M816.588-205.5h81.265v13.961H816.588Z" transform="translate(-1.655 -36.476)" fill="#0b55b1"/>
    <path id="Trazado_26003" data-name="Trazado 26003" d="M814.933-256.2a1.367,1.367,0,0,0,1.367-1.367v-.521a1.367,1.367,0,0,0-1.367-1.367,1.367,1.367,0,0,0-1.367,1.367v.521A1.367,1.367,0,0,0,814.933-256.2Z" transform="translate(0 -6.934)" fill="#00223d"/>
    <path id="Trazado_26004" data-name="Trazado 26004" d="M896.2-272.118H814.933a1.367,1.367,0,0,0-1.367,1.367,1.367,1.367,0,0,0,1.367,1.367h79.9v25.591h-8.009a1.367,1.367,0,0,0-1.367,1.367,1.367,1.367,0,0,0,1.367,1.367h8.009v11.673H820.663a1.367,1.367,0,0,0-1.367,1.367,1.367,1.367,0,0,0,1.367,1.367h74.168v11.183H816.3v-25.591h59.191a1.367,1.367,0,0,0,1.367-1.367,1.367,1.367,0,0,0-1.367-1.367H816.3v-14.456a1.367,1.367,0,0,0-1.367-1.367,1.367,1.367,0,0,0-1.367,1.367V-214.1a1.367,1.367,0,0,0,1.367,1.367H896.2a1.367,1.367,0,0,0,1.368-1.367v-56.651A1.367,1.367,0,0,0,896.2-272.118Z" transform="translate(0 0)" fill="#00223d"/>
    <circle id="Elipse_943" data-name="Elipse 943" cx="1.323" cy="1.323" r="1.323" transform="translate(879.627 -243.793)" fill="#00223d"/>
  </g>
</svg>
