<svg xmlns="http://www.w3.org/2000/svg" width="151" height="151" viewBox="0 0 151 151">
  <g id="Grupo_17166" data-name="Grupo 17166" transform="translate(-2360 5898)">
    <g id="Grupo_17161" data-name="Grupo 17161" transform="translate(1720 -3480)">
      <rect id="Rect치ngulo_4278" data-name="Rect치ngulo 4278" width="151" height="151" transform="translate(640 -2418)" fill="none"/>
      <rect id="Rect치ngulo_4284" data-name="Rect치ngulo 4284" width="135" height="135" transform="translate(648 -2410)" fill="none"/>
    </g>
    <g id="Grupo_17162" data-name="Grupo 17162" transform="translate(2369.913 -5888.079)">
      <ellipse id="Elipse_1005" data-name="Elipse 1005" cx="49.184" cy="49.184" rx="49.184" ry="49.184" transform="translate(0 16.394)" fill="#fff"/>
      <path id="Trazado_26949" data-name="Trazado 26949" d="M1458.3,1633.456a10.93,10.93,0,1,0,10.93,10.93A10.962,10.962,0,0,0,1458.3,1633.456Zm0,13.663a2.733,2.733,0,1,1,2.733-2.732A2.706,2.706,0,0,1,1458.3,1647.119Z" transform="translate(-1409.106 -1578.808)" fill="#f44336"/>
      <path id="Trazado_26950" data-name="Trazado 26950" d="M1601.007,1496.61h-13.662a4.1,4.1,0,0,1-4.1-4.1v-13.662a4.082,4.082,0,0,1,1.2-2.9l10.93-10.93a4.1,4.1,0,0,1,6.995,2.9v9.564h9.564a4.1,4.1,0,0,1,2.9,7l-10.93,10.929a4.081,4.081,0,0,1-2.9,1.2Z" transform="translate(-1501.212 -1463.821)" fill="#2196f3"/>
      <path id="Trazado_26951" data-name="Trazado 26951" d="M1550.913,1721.464a35.522,35.522,0,1,1,35.522-35.522A35.563,35.563,0,0,1,1550.913,1721.464Z" transform="translate(-1455.217 -1590.307)" fill="#f44336"/>
      <path id="Trazado_26952" data-name="Trazado 26952" d="M1585.295,1744.861a4.1,4.1,0,0,1-2.9-7l20.45-20.449a4.1,4.1,0,0,1,5.8,5.8l-20.449,20.45A4.089,4.089,0,0,1,1585.295,1744.861Z" transform="translate(-1499.824 -1634.902)" fill="#00223d"/>
      <path id="Trazado_26953" data-name="Trazado 26953" d="M1605.745,1744.861a4.069,4.069,0,0,1-2.9-1.2l-20.45-20.45a4.1,4.1,0,0,1,5.8-5.8l20.449,20.449a4.1,4.1,0,0,1-2.9,7Z" transform="translate(-1499.824 -1634.902)" fill="#00223d"/>
      <path id="Trazado_26954" data-name="Trazado 26954" d="M1550.913,1721.464a35.522,35.522,0,1,1,35.522-35.522A35.563,35.563,0,0,1,1550.913,1721.464Zm0-62.846a27.325,27.325,0,1,0,27.325,27.324A27.355,27.355,0,0,0,1550.913,1658.618Z" transform="translate(-1455.217 -1590.307)" fill="#00223d"/>
      <path id="Trazado_26955" data-name="Trazado 26955" d="M1377.9,1613.079a49.17,49.17,0,1,1,44.785-69.279,4.1,4.1,0,1,1-7.47,3.383,41.157,41.157,0,0,0-8.443-12.263,40.984,40.984,0,1,0-28.98,69.962,4.147,4.147,0,0,1,4.153,4.1,4.054,4.054,0,0,1-4.044,4.1Z" transform="translate(-1328.603 -1498.316)" fill="#00223d"/>
      <path id="Trazado_26956" data-name="Trazado 26956" d="M1415.456,1634.033c-.126,0-.262-.005-.388-.016a30.038,30.038,0,1,1,24.133-51.168,29.551,29.551,0,0,1,4.842,6.4,4.1,4.1,0,0,1-7.137,4.033,21.45,21.45,0,0,0-3.481-4.623,21.859,21.859,0,1,0-17.591,37.194,4.1,4.1,0,0,1-.377,8.181Z" transform="translate(-1368.791 -1538.562)" fill="#00223d"/>
      <path id="Trazado_26957" data-name="Trazado 26957" d="M1472.842,1588.107a4.1,4.1,0,0,1-2.9-7l35.522-35.522a4.1,4.1,0,1,1,5.8,5.8l-35.522,35.522A4.089,4.089,0,0,1,1472.842,1588.107Z" transform="translate(-1423.598 -1518.43)" fill="#00223d"/>
      <path id="Trazado_26958" data-name="Trazado 26958" d="M1601.007,1496.617h-13.662a4.1,4.1,0,0,1-4.1-4.1v-13.662a4.081,4.081,0,0,1,1.2-2.9l10.93-10.93a4.1,4.1,0,0,1,6.995,2.9v9.564h9.564a4.1,4.1,0,0,1,2.9,7l-10.93,10.93a4.081,4.081,0,0,1-2.9,1.2Zm-9.563-8.2h7.864l2.732-2.733h-3.765a4.1,4.1,0,0,1-4.1-4.1v-3.765l-2.732,2.733Z" transform="translate(-1501.212 -1463.829)" fill="#00223d"/>
    </g>
  </g>
</svg>
