<svg xmlns="http://www.w3.org/2000/svg" width="151" height="151" viewBox="0 0 151 151">
  <g id="Grupo_17156" data-name="Grupo 17156" transform="translate(-633 -981)">
    <g id="Grupo_17082" data-name="Grupo 17082" transform="translate(-648.341 1535.432)">
      <g id="Grupo_17073" data-name="Grupo 17073" transform="translate(1385.039 -540.286)">
        <path id="Trazado_26925" data-name="Trazado 26925" d="M1401.769-536.56a13.84,13.84,0,0,1,0,19.568l-9.209,9.209-19.567-19.569,9.207-9.208A13.839,13.839,0,0,1,1401.769-536.56Z" transform="translate(-1372.992 540.612)" fill="#ff5d5d"/>
      </g>
      <g id="Grupo_17079" data-name="Grupo 17079" transform="translate(1295.49 -512.712)">
        <g id="Grupo_17074" data-name="Grupo 17074" transform="translate(0 78.932)">
          <path id="Trazado_26926" data-name="Trazado 26926" d="M1311.045-435.538l-12.507-12.508-3.374,15.882Z" transform="translate(-1295.164 448.046)" fill="#6eb4c7"/>
        </g>
        <g id="Grupo_17075" data-name="Grupo 17075" transform="translate(3.374 64.652)">
          <path id="Trazado_26927" data-name="Trazado 26927" d="M1305.314-460.457l-3.038,3.039a10.858,10.858,0,0,0-2.944,5.424l-1.236,5.817,12.507,12.508,5.816-1.236a10.868,10.868,0,0,0,5.424-2.946l3.038-3.038" transform="translate(-1298.096 460.457)" fill="#fff"/>
        </g>
        <g id="Grupo_17076" data-name="Grupo 17076" transform="translate(21.854 9.785)">
          <path id="Trazado_26928" data-name="Trazado 26928" d="M1366.321-477.569l20.788-20.789-9.783-9.785-63.067,63.073a10.086,10.086,0,0,0,2.857,8.566,10.062,10.062,0,0,0,5.347,2.8l26.546-26.548" transform="translate(-1314.158 508.143)" fill="#fee77b"/>
        </g>
        <g id="Grupo_17077" data-name="Grupo 17077" transform="translate(10.591 0)">
          <path id="Trazado_26929" data-name="Trazado 26929" d="M1378.8-506.862l-9.783-9.785-64.647,64.652a10.056,10.056,0,0,0,2.8,5.347,10.082,10.082,0,0,0,8.565,2.858Z" transform="translate(-1304.369 516.647)" fill="#ffc857"/>
        </g>
        <g id="Grupo_17078" data-name="Grupo 17078" transform="translate(62.76 46.652)">
          <path id="Trazado_26930" data-name="Trazado 26930" d="M1352.192-471.134a2.5,2.5,0,0,1-1.758-4.246,2.5,2.5,0,0,1,3.517,0A2.5,2.5,0,0,1,1352.192-471.134Z" transform="translate(-1349.709 476.101)" fill="#00223d"/>
        </g>
      </g>
      <path id="Trazado_26931" data-name="Trazado 26931" d="M1380.121-496.13,1360.556-515.7l7.156-7.156,19.565,19.565Z" transform="translate(10.174 3)" fill="#6eb4c7"/>
      <g id="Grupo_17081" data-name="Grupo 17081" transform="translate(1293.002 -542.774)">
        <g id="Grupo_17080" data-name="Grupo 17080" transform="translate(84.866 15.754)">
          <path id="Trazado_26932" data-name="Trazado 26932" d="M1366.76-521.926l7.156-7.156,19.565,19.566-7.156,7.155Z" transform="translate(-1366.76 529.082)" fill="#b8ecff"/>
        </g>
        <path id="Trazado_26933" data-name="Trazado 26933" d="M1415.573-537.992a16.215,16.215,0,0,0-11.543-4.782,16.219,16.219,0,0,0-11.544,4.782l-91.2,91.212a13.318,13.318,0,0,0-3.619,6.667l-4.609,21.7a2.486,2.486,0,0,0,.675,2.276,2.487,2.487,0,0,0,1.759.728,2.468,2.468,0,0,0,.517-.054l21.7-4.61a13.315,13.315,0,0,0,6.667-3.619l29.582-29.585a2.489,2.489,0,0,0,0-3.518,2.489,2.489,0,0,0-3.519,0l-25.539,25.542a7.575,7.575,0,0,1-2.834-1.793,7.544,7.544,0,0,1-2.224-5.681l60.674-60.68,6.266,6.266-19.029,19.03a2.487,2.487,0,0,0,0,3.517,2.487,2.487,0,0,0,3.519,0l44.307-44.312a16.343,16.343,0,0,0,0-23.085Zm-44.846,28.8,6.265,6.266-60.675,60.68a7.541,7.541,0,0,1-5.679-2.224,7.571,7.571,0,0,1-1.792-2.835Zm-70.384,80.413,6.027,6.027-7.653,1.626Zm20.816,1.261-.308.308a8.355,8.355,0,0,1-4.181,2.27l-4.5.955-10.6-10.6.955-4.5a8.365,8.365,0,0,1,2.271-4.182l.307-.307a12.651,12.651,0,0,0,2.01,2.616,12.478,12.478,0,0,0,7.779,3.644,12.479,12.479,0,0,0,3.643,7.78,12.68,12.68,0,0,0,2.618,2.01Zm69.135-69.142-16.05-16.051,3.638-3.638,16.049,16.051Zm7.156-7.157-16.05-16.051,3.638-3.638,16.05,16.051Zm14.606-14.607-7.45,7.45-16.05-16.051,7.449-7.449a11.274,11.274,0,0,1,8.025-3.324,11.275,11.275,0,0,1,8.025,3.324,11.363,11.363,0,0,1,0,16.05Z" transform="translate(-1293.002 542.774)" fill="#00223d"/>
      </g>
    </g>
    <g id="Grupo_17149" data-name="Grupo 17149" transform="translate(-7 3399)">
      <rect id="Rect치ngulo_4278" data-name="Rect치ngulo 4278" width="151" height="151" transform="translate(640 -2418)" fill="none"/>
      <rect id="Rect치ngulo_4284" data-name="Rect치ngulo 4284" width="135" height="135" transform="translate(648 -2410)" fill="none"/>
    </g>
  </g>
</svg>
