<svg xmlns="http://www.w3.org/2000/svg" width="119" height="119" viewBox="0 0 119 119">
  <g id="Grupo_17097" data-name="Grupo 17097" transform="translate(-656 3631)">
    <rect id="Rectángulo_4235" data-name="Rectángulo 4235" width="119" height="119" transform="translate(656 -3631)" fill="none"/>
    <g id="Grupo_17095" data-name="Grupo 17095" transform="translate(-49.71 -203.376)">
      <g id="Grupo_17050" data-name="Grupo 17050" transform="translate(728.71 -3411.625)">
        <g id="Grupo_17048" data-name="Grupo 17048" transform="translate(1.258 1.258)">
          <g id="Grupo_17047" data-name="Grupo 17047" transform="translate(0 7.551)">
            <path id="Trazado_26826" data-name="Trazado 26826" d="M1430.693,804.752a2.589,2.589,0,0,1,2.59,2.59v70.829a2.589,2.589,0,0,1-2.59,2.59H1366.17a2.589,2.589,0,0,1-2.59-2.59V807.342a2.589,2.589,0,0,1,2.59-2.59Z" transform="translate(-1363.58 -804.752)" fill="#b5adb6"/>
            <path id="Trazado_26827" data-name="Trazado 26827" d="M1379,873.174a2.591,2.591,0,0,1-2.591-2.59V804.752H1366.17a2.589,2.589,0,0,0-2.59,2.59v70.829a2.589,2.589,0,0,0,2.59,2.59h64.523a2.589,2.589,0,0,0,2.59-2.59v-5Z" transform="translate(-1363.58 -804.752)" fill="#a79ba7"/>
            <path id="Trazado_26828" data-name="Trazado 26828" d="M1378.531,804.752v7.758a6.457,6.457,0,0,0,6.45,6.45h29.488a6.456,6.456,0,0,0,6.45-6.449v-7.759Z" transform="translate(-1364.874 -804.752)" fill="#a79ba7"/>
            <path id="Trazado_26829" data-name="Trazado 26829" d="M1428.727,811.6v63.265a1.339,1.339,0,0,1-1.339,1.339h-56.96a1.339,1.339,0,0,1-1.339-1.339V811.6a1.339,1.339,0,0,1,1.339-1.339h56.96a1.339,1.339,0,0,1,1.339,1.339Z" transform="translate(-1364.057 -805.229)" fill="#efedef"/>
            <path id="Trazado_26830" data-name="Trazado 26830" d="M1378.531,810.261v2.726a6.457,6.457,0,0,0,6.45,6.45h29.488a6.456,6.456,0,0,0,6.45-6.449v-2.727Z" transform="translate(-1364.874 -805.229)" fill="#e5e1e5"/>
            <path id="Trazado_26831" data-name="Trazado 26831" d="M1382.2,873.651a5.314,5.314,0,0,1-5.314-5.314V810.261h-6.456a1.339,1.339,0,0,0-1.339,1.339v63.265a1.339,1.339,0,0,0,1.339,1.339h56.96a1.339,1.339,0,0,0,1.339-1.339v-1.215Z" transform="translate(-1364.057 -805.229)" fill="#e5e1e5"/>
            <circle id="Elipse_994" data-name="Elipse 994" cx="4.267" cy="4.267" r="4.267" transform="translate(14.86 57.158)" fill="#fd8087"/>
            <circle id="Elipse_995" data-name="Elipse 995" cx="3.793" cy="3.793" r="3.793" transform="translate(12.303 18.707)" fill="#86e8d0"/>
          </g>
          <path id="Trazado_26832" data-name="Trazado 26832" d="M1414.787,799.549h-8.89a1.173,1.173,0,0,1-.974-.513,5.787,5.787,0,0,0-9.593,0,1.17,1.17,0,0,1-.973.513H1385.3a3.1,3.1,0,0,0-3.1,3.1v9.15a3.1,3.1,0,0,0,3.1,3.1h29.489a3.1,3.1,0,0,0,3.095-3.1v-9.15a3.1,3.1,0,0,0-3.1-3.1Z" transform="translate(-1365.191 -796.486)" fill="#99e6fc"/>
          <path id="Trazado_26833" data-name="Trazado 26833" d="M1391.018,811.78a3.911,3.911,0,0,1-3.911-3.911v-8.03H1385.3a3.1,3.1,0,0,0-3.1,3.1v9.15a3.1,3.1,0,0,0,3.1,3.1h29.489a3.1,3.1,0,0,0,3.095-3.1v-.306h-26.864Z" transform="translate(-1365.191 -796.776)" fill="#62dbfb"/>
          <circle id="Elipse_996" data-name="Elipse 996" cx="3.102" cy="3.102" r="3.102" transform="translate(31.749 7.004)" fill="#f9f7f8"/>
          <circle id="Elipse_997" data-name="Elipse 997" cx="3.487" cy="3.487" r="3.487" transform="translate(47 55.464)" fill="#86e8d0"/>
        </g>
        <g id="Grupo_17049" data-name="Grupo 17049" transform="translate(0 0)">
          <path id="Trazado_26834" data-name="Trazado 26834" d="M1385.18,816.029h2.834a1.258,1.258,0,0,0,0-2.517h-2.834a1.84,1.84,0,0,1-1.838-1.837v-9.15a1.84,1.84,0,0,1,1.838-1.837h9.058a2.429,2.429,0,0,0,2.015-1.067,4.529,4.529,0,0,1,7.51,0,2.428,2.428,0,0,0,2.015,1.067h8.891a1.839,1.839,0,0,1,1.837,1.837v9.151a1.838,1.838,0,0,1-1.837,1.836h-21.293a1.258,1.258,0,0,0,0,2.517h21.292a4.358,4.358,0,0,0,4.354-4.353v-9.151a4.359,4.359,0,0,0-4.354-4.354h-8.849a7.045,7.045,0,0,0-11.623,0h-9.016a4.358,4.358,0,0,0-4.354,4.354v9.15a4.358,4.358,0,0,0,4.354,4.354Z" transform="translate(-1363.814 -795.109)" fill="#00223d"/>
          <path id="Trazado_26835" data-name="Trazado 26835" d="M1405.68,807.136a4.36,4.36,0,1,0-4.36,4.361A4.366,4.366,0,0,0,1405.68,807.136Zm-6.2,0a1.844,1.844,0,1,1,1.844,1.844,1.845,1.845,0,0,1-1.844-1.844Z" transform="translate(-1365.21 -795.772)" fill="#00223d"/>
          <path id="Trazado_26836" data-name="Trazado 26836" d="M1430.574,803.375h-9.39a1.258,1.258,0,0,0,0,2.516h9.39a1.333,1.333,0,0,1,1.332,1.332v70.829a1.334,1.334,0,0,1-1.332,1.332h-64.523a1.334,1.334,0,0,1-1.332-1.332V807.223a1.333,1.333,0,0,1,1.332-1.332h9.389a1.258,1.258,0,1,0,0-2.516h-9.389a3.852,3.852,0,0,0-3.848,3.848v70.829a3.853,3.853,0,0,0,3.848,3.848h64.523a3.852,3.852,0,0,0,3.847-3.848V807.223a3.851,3.851,0,0,0-3.847-3.848Z" transform="translate(-1362.203 -795.824)" fill="#00223d"/>
          <path id="Trazado_26837" data-name="Trazado 26837" d="M1424.077,874.828a1.258,1.258,0,1,0,0,2.516h9.3a1.258,1.258,0,0,0,1.259-1.258V810.142a1.258,1.258,0,0,0-1.259-1.258h-6.947a1.258,1.258,0,1,0,0,2.516h5.689v63.428Z" transform="translate(-1367.448 -796.301)" fill="#00223d"/>
          <path id="Trazado_26838" data-name="Trazado 26838" d="M1375.917,808.884h-6.947a1.257,1.257,0,0,0-1.258,1.258v65.944a1.257,1.257,0,0,0,1.258,1.258h44.978a1.258,1.258,0,0,0,0-2.516h-43.72V811.4h5.689a1.258,1.258,0,1,0,0-2.516Z" transform="translate(-1362.68 -796.301)" fill="#00223d"/>
          <path id="Trazado_26839" data-name="Trazado 26839" d="M1402.772,830.626a1.258,1.258,0,0,0,1.322,2.141c.619-.383,1.248-.745,1.865-1.077l2.02-1.083-.251,1.064a1.258,1.258,0,0,0,.936,1.513,1.208,1.208,0,0,0,.29.034,1.258,1.258,0,0,0,1.223-.969l.965-4.1a1.258,1.258,0,0,0-.936-1.514l-3.754-.884a1.258,1.258,0,1,0-.577,2.449l.878.206-1.982,1.063c-.663.355-1.335.744-2,1.153Z" transform="translate(-1365.662 -797.758)" fill="#00223d"/>
          <path id="Trazado_26840" data-name="Trazado 26840" d="M1390.92,843.939a1.258,1.258,0,0,0-1.733.4,37.966,37.966,0,0,0-2.7,5.168,1.258,1.258,0,1,0,2.313.99,35.505,35.505,0,0,1,2.523-4.824,1.258,1.258,0,0,0-.4-1.734Z" transform="translate(-1364.295 -799.318)" fill="#00223d"/>
          <path id="Trazado_26841" data-name="Trazado 26841" d="M1393.928,841.161a1.256,1.256,0,0,0,.96-.445,35.447,35.447,0,0,1,4.227-4.2,1.258,1.258,0,0,0-1.618-1.927,37.943,37.943,0,0,0-4.527,4.505,1.258,1.258,0,0,0,.958,2.072Z" transform="translate(-1364.839 -798.499)" fill="#00223d"/>
          <path id="Trazado_26842" data-name="Trazado 26842" d="M1420.3,821.2l-1.845,1.87-1.87-1.845a1.258,1.258,0,1,0-1.767,1.791l1.87,1.845-1.845,1.87a1.258,1.258,0,0,0,1.79,1.768l1.846-1.87,1.869,1.845a1.258,1.258,0,0,0,1.768-1.791l-1.87-1.845,1.845-1.87a1.258,1.258,0,0,0-1.79-1.768Z" transform="translate(-1366.723 -797.334)" fill="#00223d"/>
          <path id="Trazado_26843" data-name="Trazado 26843" d="M1402.166,848.1l1.012,1-1,1.012a1.258,1.258,0,1,0,1.791,1.767l1-1.012,1.012,1a1.258,1.258,0,1,0,1.768-1.791l-1.013-1,1-1.012a1.258,1.258,0,0,0-1.791-1.767l-1,1.012-1.012-1a1.258,1.258,0,0,0-1.768,1.791Z" transform="translate(-1365.629 -799.505)" fill="#00223d"/>
          <path id="Trazado_26844" data-name="Trazado 26844" d="M1384,867.488a3.017,3.017,0,0,1,2.948,2.4,1.258,1.258,0,1,0,2.465-.5,5.543,5.543,0,0,0-4.151-4.268,35.434,35.434,0,0,1,1.188-8.854,1.258,1.258,0,0,0-2.431-.649,37.9,37.9,0,0,0-1.276,9.5,5.524,5.524,0,0,0,1.256,10.9,5.477,5.477,0,0,0,2.227-.469,1.258,1.258,0,1,0-1.015-2.3,3.009,3.009,0,1,1-1.212-5.763Z" transform="translate(-1363.611 -800.264)" fill="#00223d"/>
          <path id="Trazado_26845" data-name="Trazado 26845" d="M1380.722,823.854a5.051,5.051,0,1,0,5.052,5.052A5.056,5.056,0,0,0,1380.722,823.854Zm0,7.586a2.535,2.535,0,1,1,2.536-2.535A2.538,2.538,0,0,1,1380.722,831.44Z" transform="translate(-1363.369 -797.596)" fill="#00223d"/>
          <path id="Trazado_26846" data-name="Trazado 26846" d="M1418.4,855.826a4.745,4.745,0,0,0-1.19,9.338c.048.869.077,1.71.062,2.135a1.26,1.26,0,0,0,.238,1.448,1.287,1.287,0,0,0,1.453.268c.832-.381.948-1.1.771-3.891a4.744,4.744,0,0,0-1.335-9.3Zm0,6.973a2.229,2.229,0,1,1,2.229-2.229A2.231,2.231,0,0,1,1418.4,862.8Z" transform="translate(-1366.655 -800.363)" fill="#00223d"/>
        </g>
      </g>
    </g>
  </g>
</svg>
