<svg xmlns="http://www.w3.org/2000/svg" width="151" height="151" viewBox="0 0 151 151">
  <g id="Grupo_17154" data-name="Grupo 17154" transform="translate(-633 -628)">
    <g id="Grupo_17072" data-name="Grupo 17072" transform="translate(-809.422 1045.845)">
      <g id="Grupo_17070" data-name="Grupo 17070" transform="translate(1456.092 -408.503)">
        <path id="Trazado_26903" data-name="Trazado 26903" d="M1572.253-340.565v-57.8a3.678,3.678,0,0,0-3.679-3.678H1563l-4.395,2.607h-90.479l-3.039-2.607h-5.573a3.679,3.679,0,0,0-3.68,3.678v60.024A10.434,10.434,0,0,0,1466.27-327.9h33.76a6.617,6.617,0,0,1,5.836,3.511,9.264,9.264,0,0,0,8.18,4.913,9.264,9.264,0,0,0,8.181-4.913,6.615,6.615,0,0,1,5.835-3.511h4.1l13.093,4.834,28.387-10.773v-4.423Z" transform="translate(-1455.836 409.737)" fill="#ff7f87"/>
        <g id="Grupo_17067" data-name="Grupo 17067" transform="translate(0 7.697)">
          <path id="Trazado_26904" data-name="Trazado 26904" d="M1467.811-338.337v-60.024a3.664,3.664,0,0,1,.2-1.176l-2.919-2.5h-5.573a3.679,3.679,0,0,0-3.68,3.678v60.024A10.434,10.434,0,0,0,1466.27-327.9h11.975A10.434,10.434,0,0,1,1467.811-338.337Z" transform="translate(-1455.836 402.04)" fill="#ff636e"/>
        </g>
        <path id="Trazado_26905" data-name="Trazado 26905" d="M1555.153-408.757h-41.737l-.677.451h-2.828l-.486-.451h-30.382a5.224,5.224,0,0,0-5.224,5.223v63.689a3.68,3.68,0,0,0,3.68,3.68h31.927l.536-.439h2.961l.494.439h29.214l1.732.7,14.858-2.174.894-.843a3.672,3.672,0,0,0,.262-1.36v-63.688a5.223,5.223,0,0,0-5.223-5.224Z" transform="translate(-1453.212 408.757)" fill="#dbedff"/>
        <g id="Grupo_17068" data-name="Grupo 17068" transform="translate(9.252)">
          <path id="Trazado_26906" data-name="Trazado 26906" d="M1475.885-339.844v-63.689a5.224,5.224,0,0,1,5.224-5.224h-11.976a5.224,5.224,0,0,0-5.223,5.224v63.689a3.679,3.679,0,0,0,3.679,3.678h11.975A3.679,3.679,0,0,1,1475.885-339.844Z" transform="translate(-1463.91 408.757)" fill="#b5dcff"/>
        </g>
        <path id="Trazado_26907" data-name="Trazado 26907" d="M1566.294-347.376a4.364,4.364,0,0,0-4.1,2.74.344.344,0,0,1-.318.22.345.345,0,0,1-.317-.22,4.363,4.363,0,0,0-4.049-2.74,4.364,4.364,0,0,0-4.05,2.74.344.344,0,0,1-.317.22h0a.345.345,0,0,1-.317-.22,4.363,4.363,0,0,0-4.05-2.74,4,4,0,0,0-3.794,2.766.3.3,0,0,1-.276.194.3.3,0,0,1-.3-.294v-19.022a4.366,4.366,0,0,0-4.516-4.364,4.442,4.442,0,0,0-4.218,4.478v29.279a1.084,1.084,0,0,1-1.829.788l-4.734-4.479a4.7,4.7,0,0,0-6.8.362,3.485,3.485,0,0,0,0,4.491l1.986,2.375a14.879,14.879,0,0,1,2.649,4.632,20.087,20.087,0,0,0,5.841,8.625,8.141,8.141,0,0,1,2.884,6.2v4.586l.744,1.492h30.2l1.075-1.212v-6.491a17.524,17.524,0,0,1,1.381-6.956,18.676,18.676,0,0,0,1.53-7.4v-15.554a4.45,4.45,0,0,0-4.313-4.494Z" transform="translate(-1446.255 414.69)" fill="#ffdecf"/>
        <g id="Grupo_17069" data-name="Grupo 17069" transform="translate(75.237 46.591)">
          <path id="Trazado_26908" data-name="Trazado 26908" d="M1533.1-333.087a3.571,3.571,0,0,0,6.027-2.594v-27.937a4.538,4.538,0,0,1,1.82-3.635,4.342,4.342,0,0,0-2.725-.843,4.441,4.441,0,0,0-4.217,4.478v29.279a1.082,1.082,0,0,1-1.081,1.085Z" transform="translate(-1519.823 368.099)" fill="#ffcebe"/>
          <path id="Trazado_26909" data-name="Trazado 26909" d="M1540.8-315.008a8.142,8.142,0,0,0-2.884-6.2,20.066,20.066,0,0,1-5.841-8.627,14.879,14.879,0,0,0-2.649-4.631l-1.843-2.2a3.768,3.768,0,0,1-.513-4.1c.5-.993,1.166-1.239,1.908-1.045a4.693,4.693,0,0,0-6.665.478,3.488,3.488,0,0,0,0,4.492l1.987,2.374a14.9,14.9,0,0,1,2.649,4.632,20.07,20.07,0,0,0,5.841,8.625,8.144,8.144,0,0,1,2.883,6.2v4.585l.745,1.492h5.123l-.744-1.492Z" transform="translate(-1521.491 371.765)" fill="#ffcebe"/>
        </g>
        <path id="Trazado_26910" data-name="Trazado 26910" d="M1564.376-306.793h-19.923l-1.417,1.046v10.852a3.7,3.7,0,0,0,2.588,3.517H1562.5a3.617,3.617,0,0,0,3.606-3.606v-10.622Z" transform="translate(-1443.111 423.637)" fill="#60b9fe"/>
        <path id="Trazado_26911" data-name="Trazado 26911" d="M1544.711-294.984V-305.6l1.61-1.188h-12.615l-1.61,1.188v10.621a3.617,3.617,0,0,0,3.606,3.606h12.614A3.616,3.616,0,0,1,1544.711-294.984Z" transform="translate(-1444.707 423.637)" fill="#1ca8ff"/>
        <path id="Trazado_26912" data-name="Trazado 26912" d="M1562.5-314.891h-16.626a3.687,3.687,0,0,0-2.829,3.574v6.894H1566.1v-6.862a3.617,3.617,0,0,0-3.607-3.606Z" transform="translate(-1443.109 422.455)" fill="#dbedff"/>
        <path id="Trazado_26913" data-name="Trazado 26913" d="M1548.317-314.891H1535.7a3.617,3.617,0,0,0-3.606,3.606v6.862h12.615v-6.862A3.617,3.617,0,0,1,1548.317-314.891Z" transform="translate(-1444.707 422.455)" fill="#b5dcff"/>
      </g>
      <g id="Grupo_17071" data-name="Grupo 17071" transform="translate(1454.083 -410.499)">
        <path id="Trazado_26914" data-name="Trazado 26914" d="M1558.019-410.5h-87.465a7.227,7.227,0,0,0-7.219,7.219v.478h-3.578a5.681,5.681,0,0,0-5.675,5.675V-337.1a12.443,12.443,0,0,0,12.429,12.429h9.3a2,2,0,0,0,2-2,2,2,0,0,0-2-2h-9.3a8.448,8.448,0,0,1-8.437-8.437v-60.024a1.685,1.685,0,0,1,1.684-1.683h3.578v59.221a5.681,5.681,0,0,0,5.675,5.675h62.863a5.623,5.623,0,0,0-2.528,5.25H1528.3a8.6,8.6,0,0,0-7.6,4.569,7.264,7.264,0,0,1-6.419,3.855,7.262,7.262,0,0,1-6.418-3.855,8.6,8.6,0,0,0-7.6-4.569h-15.143a2,2,0,0,0-2,2,2,2,0,0,0,2,2h15.143a4.613,4.613,0,0,1,4.075,2.455,11.247,11.247,0,0,0,9.941,5.969,11.25,11.25,0,0,0,9.942-5.969,4.612,4.612,0,0,1,4.074-2.455h3.168l1.121,1.34a12.844,12.844,0,0,1,2.3,4.008,21.953,21.953,0,0,0,6.433,9.49,6.135,6.135,0,0,1,2.18,4.681v3.511a5.591,5.591,0,0,0-2.03,4.311v17.482a5.609,5.609,0,0,0,5.6,5.6h28.392a5.609,5.609,0,0,0,5.6-5.6v-17.482a5.579,5.579,0,0,0-1.552-3.861v-5.588a15.454,15.454,0,0,1,1.217-6.164,20.546,20.546,0,0,0,1.694-8.2v-2.422a2,2,0,0,0-2-2,1.994,1.994,0,0,0-2,2v2.422a16.6,16.6,0,0,1-1.367,6.613,19.4,19.4,0,0,0-1.545,7.746v3.846h-28.032v-2.22a10.123,10.123,0,0,0-3.587-7.724,17.99,17.99,0,0,1-5.25-7.763,16.793,16.793,0,0,0-3-5.254l-1.986-2.374a1.5,1.5,0,0,1-.016-1.916,2.7,2.7,0,0,1,3.91-.208l4.734,4.479a3.082,3.082,0,0,0,5.2-2.237v-29.28a2.45,2.45,0,0,1,2.289-2.483,2.368,2.368,0,0,1,2.453,2.37v19.021a2.293,2.293,0,0,0,2.292,2.291,2.306,2.306,0,0,0,2.14-1.476,2.046,2.046,0,0,1,1.931-1.485,2.36,2.36,0,0,1,2.2,1.487,2.336,2.336,0,0,0,4.188.308,2.544,2.544,0,0,1,2.348-1.8,2.358,2.358,0,0,1,2.2,1.487,2.332,2.332,0,0,0,2.17,1.474,2.331,2.331,0,0,0,2.169-1.473,2.942,2.942,0,0,1,.22-.414,2.374,2.374,0,0,1,4.348,1.424v3.817a2,2,0,0,0,2,2,2,2,0,0,0,2-2v-3.817a6.407,6.407,0,0,0-7.937-6.29v-54.143a5.681,5.681,0,0,0-5.674-5.675h-3.577v-.477a7.229,7.229,0,0,0-7.22-7.221Zm-12.556,113.166a1.615,1.615,0,0,1,1.611-1.61h28.393a1.616,1.616,0,0,1,1.61,1.61v4.867h-31.614Zm0,8.859h31.614v8.624a1.613,1.613,0,0,1-1.611,1.611h-28.392a1.613,1.613,0,0,1-1.611-1.611Zm-33.171-49.433H1469.01a1.685,1.685,0,0,1-1.683-1.682v-63.689a3.231,3.231,0,0,1,3.228-3.228h41.737Zm31.209,7.639-3.2-3.024a7.368,7.368,0,0,0-.76-.622h3.956Zm17.746-12.343a6.291,6.291,0,0,0-5.02-.1v-14.836a6.358,6.358,0,0,0-6.58-6.359,6.4,6.4,0,0,0-5.536,3.732h-17.584a2,2,0,0,0-2,2,2,2,0,0,0,2,2H1543.5v5.362h-16.975a2,2,0,0,0-2,2,2,2,0,0,0,2,2H1543.5v8.919h-27.218v-68.6h41.736a3.23,3.23,0,0,1,3.228,3.227Zm7.569-56.2a1.685,1.685,0,0,1,1.683,1.683v54.783a6.453,6.453,0,0,0-5.26-.49V-398.81Z" transform="translate(-1454.083 410.499)" fill="#00223d"/>
        <path id="Trazado_26915" data-name="Trazado 26915" d="M1474.833-395.24h24.478a2,2,0,0,0,2-2,2,2,0,0,0-2-2h-24.478a2,2,0,0,0-2,2A2,2,0,0,0,1474.833-395.24Z" transform="translate(-1451.346 412.143)" fill="#00223d"/>
        <path id="Trazado_26916" data-name="Trazado 26916" d="M1474.833-387.078h24.478a2,2,0,0,0,2-2,2,2,0,0,0-2-2h-24.478a2,2,0,0,0-2,2A2,2,0,0,0,1474.833-387.078Z" transform="translate(-1451.346 413.334)" fill="#00223d"/>
        <path id="Trazado_26917" data-name="Trazado 26917" d="M1474.833-378.915h24.478a2,2,0,0,0,2-2,2,2,0,0,0-2-2h-24.478a2,2,0,0,0-2,2A2,2,0,0,0,1474.833-378.915Z" transform="translate(-1451.346 414.526)" fill="#00223d"/>
        <path id="Trazado_26918" data-name="Trazado 26918" d="M1474.833-370.753h24.478a2,2,0,0,0,2-2,2,2,0,0,0-2-2h-24.478a2,2,0,0,0-2,2A2,2,0,0,0,1474.833-370.753Z" transform="translate(-1451.346 415.717)" fill="#00223d"/>
        <path id="Trazado_26919" data-name="Trazado 26919" d="M1474.833-362.59h24.478a2,2,0,0,0,2-2,2,2,0,0,0-2-2h-24.478a2,2,0,0,0-2,2A2,2,0,0,0,1474.833-362.59Z" transform="translate(-1451.346 416.908)" fill="#00223d"/>
        <path id="Trazado_26920" data-name="Trazado 26920" d="M1474.833-354.427h24.478a2,2,0,0,0,2-2,2,2,0,0,0-2-2h-24.478a2,2,0,0,0-2,2A2,2,0,0,0,1474.833-354.427Z" transform="translate(-1451.346 418.099)" fill="#00223d"/>
        <path id="Trazado_26921" data-name="Trazado 26921" d="M1542.034-399.232h-24.478a2,2,0,0,0-2,2,2,2,0,0,0,2,2h24.478a2,2,0,0,0,1.995-2A2,2,0,0,0,1542.034-399.232Z" transform="translate(-1445.111 412.143)" fill="#00223d"/>
        <path id="Trazado_26922" data-name="Trazado 26922" d="M1542.034-391.069h-24.478a2,2,0,0,0-2,2,2,2,0,0,0,2,2h24.478a2,2,0,0,0,1.995-2A2,2,0,0,0,1542.034-391.069Z" transform="translate(-1445.111 413.334)" fill="#00223d"/>
        <path id="Trazado_26923" data-name="Trazado 26923" d="M1542.034-382.907h-24.478a2,2,0,0,0-2,2,2,2,0,0,0,2,2h24.478a2,2,0,0,0,1.995-2A2,2,0,0,0,1542.034-382.907Z" transform="translate(-1445.111 414.526)" fill="#00223d"/>
        <path id="Trazado_26924" data-name="Trazado 26924" d="M1542.034-374.744h-24.478a2,2,0,0,0-2,2,2,2,0,0,0,2,2h24.478a1.994,1.994,0,0,0,1.995-2A2,2,0,0,0,1542.034-374.744Z" transform="translate(-1445.111 415.717)" fill="#00223d"/>
      </g>
    </g>
    <g id="Grupo_17147" data-name="Grupo 17147" transform="translate(-7 3046)">
      <rect id="Rect치ngulo_4278" data-name="Rect치ngulo 4278" width="151" height="151" transform="translate(640 -2418)" fill="none"/>
      <rect id="Rect치ngulo_4284" data-name="Rect치ngulo 4284" width="135" height="135" transform="translate(648 -2410)" fill="none"/>
    </g>
  </g>
</svg>
