<svg xmlns="http://www.w3.org/2000/svg" width="151" height="151" viewBox="0 0 151 151">
  <g id="Grupo_17160" data-name="Grupo 17160" transform="translate(-633 -1831)">
    <g id="Grupo_17159" data-name="Grupo 17159" transform="translate(-7 4249)">
      <rect id="Rect치ngulo_4278" data-name="Rect치ngulo 4278" width="151" height="151" transform="translate(640 -2418)" fill="none"/>
      <rect id="Rect치ngulo_4284" data-name="Rect치ngulo 4284" width="135" height="135" transform="translate(648 -2410)" fill="none"/>
    </g>
    <g id="Grupo_17158" data-name="Grupo 17158" transform="translate(370.409 -6582.591)">
      <circle id="Elipse_969" data-name="Elipse 969" cx="66" cy="66" r="66" transform="translate(272.591 8423.592)" fill="#f6ff9b"/>
      <g id="Grupo_16888" data-name="Grupo 16888" transform="translate(288.775 8438.114)">
        <g id="Grupo_16876" data-name="Grupo 16876" transform="translate(47.397 1.648)">
          <path id="Trazado_26494" data-name="Trazado 26494" d="M2885.38-191.66v-41.307a4.442,4.442,0,0,0-4.442-4.441h-41.307v15.324a2.222,2.222,0,0,0,2.221,2.221h5.187a2.238,2.238,0,0,0,1.635-.722,8.863,8.863,0,0,1,7.137-2.809,8.913,8.913,0,0,1,8.227,8.23,8.885,8.885,0,0,1-8.862,9.515,8.856,8.856,0,0,1-6.5-2.827,2.247,2.247,0,0,0-1.642-.727h-5.185a2.222,2.222,0,0,0-2.221,2.222v15.323Z" transform="translate(-2839.631 237.408)" fill="#c8ea73"/>
        </g>
        <g id="Grupo_16877" data-name="Grupo 16877" transform="translate(71.036 1.648)">
          <path id="Trazado_26495" data-name="Trazado 26495" d="M2876.7-237.408h-9.823a57.641,57.641,0,0,1,1.718,13.992,57.238,57.238,0,0,1-9.562,31.757h22.109v-41.307A4.442,4.442,0,0,0,2876.7-237.408Z" transform="translate(-2859.037 237.408)" fill="#b7e445"/>
        </g>
        <g id="Grupo_16878" data-name="Grupo 16878" transform="translate(1.648 1.648)">
          <path id="Trazado_26496" data-name="Trazado 26496" d="M2864-223.395a8.863,8.863,0,0,0-7.137,2.809,2.237,2.237,0,0,1-1.637.722h-5.186a2.221,2.221,0,0,1-2.221-2.221v-15.324h-41.307a4.443,4.443,0,0,0-4.441,4.441v41.307H2817.4a2.221,2.221,0,0,0,2.22-2.221v-5.186a2.239,2.239,0,0,0-.722-1.637,8.865,8.865,0,0,1-2.809-7.136,8.911,8.911,0,0,1,8.229-8.227,8.885,8.885,0,0,1,9.515,8.861,8.859,8.859,0,0,1-2.828,6.5,2.244,2.244,0,0,0-.726,1.641v5.186a2.22,2.22,0,0,0,2.221,2.221h15.323v-15.323a2.221,2.221,0,0,1,2.221-2.222h5.186a2.243,2.243,0,0,1,1.641.727,8.86,8.86,0,0,0,6.5,2.827,8.884,8.884,0,0,0,8.861-9.514,8.911,8.911,0,0,0-8.226-8.231Z" transform="translate(-2802.075 237.408)" fill="#f6e266"/>
        </g>
        <g id="Grupo_16879" data-name="Grupo 16879" transform="translate(1.648 22.968)">
          <path id="Trazado_26497" data-name="Trazado 26497" d="M2816.088-211.657a8.86,8.86,0,0,0,2.809,7.136,2.243,2.243,0,0,1,.722,1.637v5.186a2.221,2.221,0,0,1-2.222,2.221h-15.323v41.307a4.442,4.442,0,0,0,4.441,4.441h41.307v-15.323a2.22,2.22,0,0,0-2.22-2.221h-5.186a2.24,2.24,0,0,0-1.637.721,8.86,8.86,0,0,1-7.136,2.809,8.911,8.911,0,0,1-8.227-8.23,8.884,8.884,0,0,1,8.861-9.514,8.858,8.858,0,0,1,6.5,2.827,2.248,2.248,0,0,0,1.641.726h5.186a2.22,2.22,0,0,0,2.22-2.221v-15.324H2832.5a2.22,2.22,0,0,1-2.221-2.221v-5.186a2.244,2.244,0,0,1,.726-1.641,8.859,8.859,0,0,0,2.828-6.5,8.885,8.885,0,0,0-9.514-8.861,8.911,8.911,0,0,0-8.23,8.227Z" transform="translate(-2802.075 219.906)" fill="#dd5790"/>
        </g>
        <g id="Grupo_16880" data-name="Grupo 16880" transform="translate(1.648 69.03)">
          <path id="Trazado_26498" data-name="Trazado 26498" d="M2845.6-175.521h-5.186a2.241,2.241,0,0,0-1.637.721,8.86,8.86,0,0,1-7.136,2.809,8.92,8.92,0,0,1-7.767-5.979c-.124,0-.247,0-.372,0a57.371,57.371,0,0,1-21.431-4.128v19.674a4.441,4.441,0,0,0,4.441,4.441h41.307V-173.3a2.22,2.22,0,0,0-2.22-2.221Z" transform="translate(-2802.075 182.093)" fill="#da387d"/>
        </g>
        <g id="Grupo_16886" data-name="Grupo 16886" transform="translate(43.177 47.397)">
          <g id="Grupo_16881" data-name="Grupo 16881">
            <path id="Trazado_26499" data-name="Trazado 26499" d="M2894.215-168.094a26.934,26.934,0,0,0-.49-5.117l4.72-4.463-7.272-12.6-6.24,1.861a26.939,26.939,0,0,0-8.849-5.122l-1.5-6.32h-14.545l-1.5,6.32a26.94,26.94,0,0,0-8.85,5.122l-6.239-1.861-7.273,12.6,4.72,4.463a26.934,26.934,0,0,0-.49,5.117,26.953,26.953,0,0,0,.49,5.117l-4.72,4.462,7.273,12.6,6.239-1.861a26.918,26.918,0,0,0,8.85,5.122l1.5,6.32h14.545l1.5-6.32a26.917,26.917,0,0,0,8.849-5.122l6.24,1.861,7.272-12.6-4.72-4.462a26.953,26.953,0,0,0,.49-5.117Z" transform="translate(-2836.167 199.852)" fill="#4073c8"/>
          </g>
          <g id="Grupo_16882" data-name="Grupo 16882" transform="translate(21.098 26.694)">
            <path id="Trazado_26500" data-name="Trazado 26500" d="M2890.437-172.874a26.95,26.95,0,0,0-.48-5.064,36.616,36.616,0,0,1-36.017,30.033c-.151,0-.3,0-.453-.006q.625.252,1.263.474l1.506,6.32H2870.8l1.506-6.32a26.92,26.92,0,0,0,8.849-5.122l6.24,1.861,7.272-12.6-4.72-4.462a26.953,26.953,0,0,0,.49-5.117Z" transform="translate(-2853.487 177.938)" fill="#30579d"/>
          </g>
          <g id="Grupo_16883" data-name="Grupo 16883" transform="translate(11.988 12.606)">
            <circle id="Elipse_971" data-name="Elipse 971" cx="19.151" cy="19.151" r="19.151" fill="#ecf4ff"/>
          </g>
          <g id="Grupo_16885" data-name="Grupo 16885" transform="translate(21.079 23.636)">
            <g id="Grupo_16884" data-name="Grupo 16884">
              <path id="Trazado_26501" data-name="Trazado 26501" d="M2861.228-164.206a3.866,3.866,0,0,1-2.742-1.135l-3.878-3.879a3.877,3.877,0,0,1,0-5.485,3.878,3.878,0,0,1,5.486,0l1.135,1.135,5.742-5.742a3.88,3.88,0,0,1,5.486,0,3.879,3.879,0,0,1,0,5.486l-8.484,8.484a3.866,3.866,0,0,1-2.743,1.135Z" transform="translate(-2853.471 180.448)" fill="#c8ea73"/>
            </g>
          </g>
        </g>
        <g id="Grupo_16887" data-name="Grupo 16887" transform="translate(0 0)">
          <path id="Trazado_26502" data-name="Trazado 26502" d="M2903.236-155.077a28.8,28.8,0,0,0,.361-4.529,28.806,28.806,0,0,0-.361-4.53l4.075-3.853a1.648,1.648,0,0,0,.295-2.022l-7.272-12.6a1.646,1.646,0,0,0-1.9-.755l-5.388,1.607a28.394,28.394,0,0,0-7.831-4.533l-.816-3.427h9.47a1.648,1.648,0,0,0,1.648-1.648v-23.329a1.648,1.648,0,0,0-1.648-1.648,1.649,1.649,0,0,0-1.649,1.648v21.679h-42.453v-13.675a.572.572,0,0,1,.571-.571h5.187a.6.6,0,0,1,.435.2,10.558,10.558,0,0,0,7.7,3.354,10.575,10.575,0,0,0,7.7-3.347,10.446,10.446,0,0,0,2.8-7.928,10.551,10.551,0,0,0-9.758-9.763,10.512,10.512,0,0,0-8.456,3.33.59.59,0,0,1-.431.2h-5.187a.572.572,0,0,1-.571-.571v-13.674h39.658a2.8,2.8,0,0,1,2.794,2.792v10.284a1.649,1.649,0,0,0,1.649,1.649,1.649,1.649,0,0,0,1.648-1.649v-10.284a6.1,6.1,0,0,0-6.092-6.089h-82.613a6.1,6.1,0,0,0-6.09,6.089v13.032a1.649,1.649,0,0,0,1.648,1.649,1.649,1.649,0,0,0,1.649-1.649v-13.032a2.8,2.8,0,0,1,2.792-2.792h39.658v13.674a3.874,3.874,0,0,0,3.87,3.87h5.186a3.906,3.906,0,0,0,2.844-1.246,7.223,7.223,0,0,1,5.815-2.289,7.241,7.241,0,0,1,6.7,6.7,7.184,7.184,0,0,1-1.926,5.451,7.169,7.169,0,0,1-5.292,2.3,7.152,7.152,0,0,1-5.291-2.3,3.912,3.912,0,0,0-2.848-1.25h-5.186a3.874,3.874,0,0,0-3.87,3.869v13.675H2832.8a.572.572,0,0,1-.573-.571v-5.184a.6.6,0,0,1,.2-.436,10.577,10.577,0,0,0,3.351-7.7,10.57,10.57,0,0,0-3.347-7.7,10.444,10.444,0,0,0-7.929-2.805,10.555,10.555,0,0,0-9.761,9.758,10.509,10.509,0,0,0,3.329,8.458.593.593,0,0,1,.2.429v5.187a.572.572,0,0,1-.571.571h-13.675v-18.931a1.649,1.649,0,0,0-1.649-1.648,1.649,1.649,0,0,0-1.648,1.648v36.218a1.649,1.649,0,0,0,1.648,1.648,1.649,1.649,0,0,0,1.649-1.648v-13.989h13.675a3.874,3.874,0,0,0,3.869-3.869v-5.187a3.905,3.905,0,0,0-1.246-2.842,7.23,7.23,0,0,1-2.289-5.815,7.247,7.247,0,0,1,6.7-6.7,7.183,7.183,0,0,1,5.45,1.927,7.164,7.164,0,0,1,2.3,5.29,7.17,7.17,0,0,1-2.3,5.293,3.913,3.913,0,0,0-1.25,2.848v5.184a3.874,3.874,0,0,0,3.87,3.869h13.674v12.78l-.848,1.469h-4.908a.6.6,0,0,1-.436-.2,10.576,10.576,0,0,0-7.705-3.351,10.572,10.572,0,0,0-7.7,3.349,10.45,10.45,0,0,0-2.806,7.929,10.561,10.561,0,0,0,9.76,9.762,10.509,10.509,0,0,0,8.459-3.333.592.592,0,0,1,.426-.2h5.187a.573.573,0,0,1,.571.574v6.214l-3.7,3.5a1.65,1.65,0,0,0-.294,2.023l1.119,1.938h-36.78a2.8,2.8,0,0,1-2.792-2.794v-17.975a1.649,1.649,0,0,0-1.649-1.649,1.649,1.649,0,0,0-1.648,1.649v17.975a6.1,6.1,0,0,0,6.09,6.092h38.683l4.249,7.361a1.651,1.651,0,0,0,1.9.755l5.388-1.607a28.387,28.387,0,0,0,7.831,4.533l1.3,5.456a1.648,1.648,0,0,0,1.6,1.267h14.544a1.649,1.649,0,0,0,1.6-1.267l1.3-5.456a28.4,28.4,0,0,0,7.831-4.533l5.388,1.607a1.651,1.651,0,0,0,1.9-.755l7.272-12.6a1.65,1.65,0,0,0-.295-2.023Zm-37.558-34.639-.815,3.427a28.355,28.355,0,0,0-7.831,4.533l-5.388-1.607a1.649,1.649,0,0,0-1.877.722v-7.075Zm-24.967,24.906a3.9,3.9,0,0,0-2.842,1.249,7.221,7.221,0,0,1-5.814,2.289,7.248,7.248,0,0,1-6.7-6.7,7.178,7.178,0,0,1,1.927-5.452,7.161,7.161,0,0,1,5.289-2.3,7.167,7.167,0,0,1,5.293,2.3,3.918,3.918,0,0,0,2.847,1.252h3l-1.246,2.159a1.648,1.648,0,0,0,.294,2.022l3.377,3.192c-.082,0-.162-.012-.245-.012Zm57.417,25.429-4.992-1.49a1.651,1.651,0,0,0-1.553.336,25.18,25.18,0,0,1-8.307,4.808,1.649,1.649,0,0,0-1.064,1.177l-1.2,5.053h-11.941l-1.2-5.053a1.647,1.647,0,0,0-1.064-1.177,25.18,25.18,0,0,1-8.307-4.808,1.65,1.65,0,0,0-1.553-.336l-4.992,1.489-4.045-7.008c-.009-.015-.019-.029-.027-.045l-1.9-3.288,3.774-3.568a1.646,1.646,0,0,0,.486-1.511,25.354,25.354,0,0,1-.461-4.8,25.358,25.358,0,0,1,.461-4.806,1.646,1.646,0,0,0-.486-1.51l-3.774-3.568,5.97-10.341,4.992,1.489a1.649,1.649,0,0,0,1.553-.335,25.162,25.162,0,0,1,8.307-4.809,1.648,1.648,0,0,0,1.064-1.176l1.2-5.053h11.941l1.2,5.053a1.647,1.647,0,0,0,1.064,1.176,25.162,25.162,0,0,1,8.307,4.809,1.649,1.649,0,0,0,1.553.335l4.992-1.489,5.97,10.341-3.774,3.568a1.646,1.646,0,0,0-.486,1.51,25.358,25.358,0,0,1,.461,4.806,25.354,25.354,0,0,1-.461,4.8,1.646,1.646,0,0,0,.486,1.511l3.774,3.568Z" transform="translate(-2800.721 238.761)" fill="#00223d"/>
          <path id="Trazado_26503" data-name="Trazado 26503" d="M2865.454-190.857a20.824,20.824,0,0,0-20.8,20.8,20.823,20.823,0,0,0,20.8,20.8,20.824,20.824,0,0,0,20.8-20.8A20.824,20.824,0,0,0,2865.454-190.857Zm0,38.3a17.523,17.523,0,0,1-17.5-17.5,17.523,17.523,0,0,1,17.5-17.5,17.522,17.522,0,0,1,17.5,17.5A17.522,17.522,0,0,1,2865.454-152.554Z" transform="translate(-2791.138 249.211)" fill="#00223d"/>
          <path id="Trazado_26504" data-name="Trazado 26504" d="M2866.1-180.184l-4.575,4.577a5.535,5.535,0,0,0-7.787.029,5.532,5.532,0,0,0,0,7.818l3.878,3.879a5.491,5.491,0,0,0,3.909,1.619,5.491,5.491,0,0,0,3.908-1.619l8.485-8.484a5.535,5.535,0,0,0,0-7.818,5.535,5.535,0,0,0-7.818,0Zm5.486,5.485-8.485,8.486a2.215,2.215,0,0,1-1.577.653,2.216,2.216,0,0,1-1.576-.653l-3.878-3.879a2.232,2.232,0,0,1,0-3.154,2.222,2.222,0,0,1,1.576-.653,2.224,2.224,0,0,1,1.577.653l1.136,1.135a1.647,1.647,0,0,0,1.165.484,1.651,1.651,0,0,0,1.167-.484l5.741-5.742a2.234,2.234,0,0,1,3.154,0,2.232,2.232,0,0,1,0,3.154Z" transform="translate(-2789.51 251.187)" fill="#00223d"/>
        </g>
      </g>
    </g>
  </g>
</svg>
