<svg xmlns="http://www.w3.org/2000/svg" width="151" height="151" viewBox="0 0 151 151">
  <g id="Grupo_17141" data-name="Grupo 17141" transform="translate(-673 515)">
    <g id="Grupo_17140" data-name="Grupo 17140" transform="translate(33 1903)">
      <rect id="Rect치ngulo_4278" data-name="Rect치ngulo 4278" width="151" height="151" transform="translate(640 -2418)" fill="none"/>
      <rect id="Rect치ngulo_4284" data-name="Rect치ngulo 4284" width="135" height="135" transform="translate(648 -2410)" fill="none"/>
    </g>
    <g id="Grupo_17138" data-name="Grupo 17138" transform="translate(-245.054 -7253.054)">
      <circle id="Elipse_970" data-name="Elipse 970" cx="64" cy="64" r="64" transform="translate(930.054 6750.054)" fill="#f6ff9b"/>
      <g id="Grupo_16871" data-name="Grupo 16871" transform="translate(930 6750)">
        <path id="Trazado_26444" data-name="Trazado 26444" d="M2667.089-230.43l-8.768-8.768-6.121,3.985a32.745,32.745,0,0,0-9.546-3.959l-1.509-7.14h-12.4l-1.51,7.14a32.728,32.728,0,0,0-9.546,3.959l-6.123-3.985-8.766,8.768,3.173,7.57.3,15.807h3.874a24.8,24.8,0,0,1,24.8-24.8,24.8,24.8,0,0,1,24.795,24.8h4.132l-.016-15.807Z" transform="translate(-2570.892 248.378)" fill="#fac600"/>
        <path id="Trazado_26445" data-name="Trazado 26445" d="M2603.783-230.96l1.977,4.716.042,15.807h4.132a24.647,24.647,0,0,1,4.552-14.286A16.446,16.446,0,0,0,2603.783-230.96Z" transform="translate(-2570.675 251.762)" fill="#ffc729"/>
        <path id="Trazado_26446" data-name="Trazado 26446" d="M2656.419-230.947a16.521,16.521,0,0,0-10.766,6.095,24.68,24.68,0,0,1,4.642,14.412h4.133l-.016-15.807Z" transform="translate(-2561.446 251.765)" fill="#ffc729"/>
        <path id="Trazado_26447" data-name="Trazado 26447" d="M2683.063-176.032v-10.077a8.268,8.268,0,0,0-6.261-8.02l-10.27-2.567,0-3.736a12.38,12.38,0,0,0,6.2-10.728v-3.612c0-6.787-5.232-12.707-12.014-12.911a12.4,12.4,0,0,0-12.78,12.391v4.132a12.378,12.378,0,0,0,6.2,10.725v3.738l-10.27,2.569a8.263,8.263,0,0,0-6.26,8.017v10.077Z" transform="translate(-2563.219 252.484)" fill="#ccd1d9"/>
        <path id="Trazado_26448" data-name="Trazado 26448" d="M2654.135-191.908a12.349,12.349,0,0,0-4.446-9.474l-5.824,1.457a8.263,8.263,0,0,0-6.26,8.017v10.077h16.53Z" transform="translate(-2563.219 258.282)" fill="#aab2bd"/>
        <path id="Trazado_26449" data-name="Trazado 26449" d="M2628.885-176.032v-10.077a8.267,8.267,0,0,0-6.26-8.02l-10.27-2.567,0-3.736a12.383,12.383,0,0,0,6.2-10.728v-3.612c0-6.787-5.232-12.707-12.015-12.911a12.4,12.4,0,0,0-12.779,12.391v4.132a12.378,12.378,0,0,0,6.2,10.725v3.738l-10.27,2.569a8.263,8.263,0,0,0-6.261,8.017v10.077Z" transform="translate(-2575.162 252.484)" fill="#ccd1d9"/>
        <path id="Trazado_26450" data-name="Trazado 26450" d="M2623.66-191.908a8.266,8.266,0,0,0-6.26-8.019l-5.824-1.456a12.356,12.356,0,0,0-4.446,9.475v10.077h16.53Z" transform="translate(-2569.938 258.282)" fill="#aab2bd"/>
        <path id="Trazado_26451" data-name="Trazado 26451" d="M2655.974-176.032v-10.077a8.268,8.268,0,0,0-6.261-8.02l-10.269-2.567,0-3.736a12.382,12.382,0,0,0,6.2-10.728v-3.612c0-6.787-5.232-12.707-12.016-12.911a12.4,12.4,0,0,0-12.78,12.391v4.132a12.378,12.378,0,0,0,6.2,10.725v3.738l-10.269,2.569a8.263,8.263,0,0,0-6.261,8.017v10.077Z" transform="translate(-2569.191 252.484)" fill="#ccd1d9"/>
        <g id="Grupo_16870" data-name="Grupo 16870" transform="translate(8.265 56.367)">
          <path id="Trazado_26452" data-name="Trazado 26452" d="M2683.063-192.068a8.267,8.267,0,0,0-6.261-8.019l-2.277-.569-27.61,14.533h-.466l-8.844-2.526v6.659h45.458Z" transform="translate(-2571.484 202.075)" fill="#aab2bd"/>
          <path id="Trazado_26453" data-name="Trazado 26453" d="M2655.974-188.88l-3.088,1.624h-.466l-12.428-3.55a15.038,15.038,0,0,0-3.331-.525l-9.024-2.886a27.38,27.38,0,0,0-8.364-1.3,27.561,27.561,0,0,0-5.991.66l-2.677.62a7.887,7.887,0,0,0-.089,1.04v10.077h45.457Z" transform="translate(-2577.456 203.208)" fill="#aab2bd"/>
          <path id="Trazado_26454" data-name="Trazado 26454" d="M2619.254-193.471l-8.965,2.077v-3.046l-12.65-7.379-7.951,1.988a8.268,8.268,0,0,0-6.261,8.019v10.077h45.458v-10.077a8.245,8.245,0,0,0-.3-2.1,27.707,27.707,0,0,0-3.34-.222A27.579,27.579,0,0,0,2619.254-193.471Z" transform="translate(-2583.427 201.819)" fill="#aab2bd"/>
        </g>
        <path id="Trazado_26455" data-name="Trazado 26455" d="M2660.726-160.351l-17.46-15.714L2639.943-188l-9.46-3.025a23.345,23.345,0,0,0-7.1-1.107,23.276,23.276,0,0,0-5.058.555l-24.361,5.643-2.066,16.53,14.566,9.154,26.5,22.1,3.194,2.818a4.227,4.227,0,0,0,2.793,1.057h.381a4.223,4.223,0,0,0,4.221-4.221,4.226,4.226,0,0,0-1.52-3.244,5.459,5.459,0,0,0,3.5,1.267,4.223,4.223,0,0,0,4.221-4.221,4.228,4.228,0,0,0-1.518-3.244l-7.918-6.6,8.261,6.884a4.229,4.229,0,0,0,2.7.98h.448a4.223,4.223,0,0,0,4.221-4.221,4.228,4.228,0,0,0-1.518-3.244l.326.272a4.279,4.279,0,0,0,2.743.993h.358a4.289,4.289,0,0,0,4.29-4.29A4.285,4.285,0,0,0,2660.726-160.351Z" transform="translate(-2573.296 260.321)" fill="#f1d0a5"/>
        <path id="Trazado_26456" data-name="Trazado 26456" d="M2655.5-158.112l-17.46-15.714a6.252,6.252,0,0,0-4.184-1.6,6.247,6.247,0,0,0-3.217.891l-7.693,4.616a4.866,4.866,0,0,1-2.5.692,4.854,4.854,0,0,1-4.854-4.854v-.411a4.854,4.854,0,0,1,2.684-4.341l11.529-5.763a10.965,10.965,0,0,1,4.911-1.161,10.934,10.934,0,0,1,3.02.423l12.984,3.709h2.066l39.259-20.663h2.066v26.862l-37.192,18.6Z" transform="translate(-2568.071 258.082)" fill="#ffe6c3"/>
        <path id="Trazado_26457" data-name="Trazado 26457" d="M2629.659-163.353l-2.873,2.988,11.451,9.543a8.359,8.359,0,0,0,3.355,1.663,4.163,4.163,0,0,0,.464-1.884,4.227,4.227,0,0,0-1.518-3.244Z" transform="translate(-2565.605 266.665)" fill="#dfb28b"/>
        <path id="Trazado_26458" data-name="Trazado 26458" d="M2618.981-148.565a4.385,4.385,0,0,0,4.383,4.383,4.379,4.379,0,0,0,3.1-1.284l3.63-3.63a4.383,4.383,0,0,0,1.284-3.1A4.38,4.38,0,0,0,2627-156.58a4.378,4.378,0,0,0-3.1,1.283l-3.631,3.63A4.388,4.388,0,0,0,2618.981-148.565Z" transform="translate(-2567.325 268.158)" fill="#f5e0cd"/>
        <path id="Trazado_26459" data-name="Trazado 26459" d="M2613.9-153.644a4.384,4.384,0,0,0,4.382,4.383,4.382,4.382,0,0,0,3.1-1.284l3.63-3.63a4.383,4.383,0,0,0,1.284-3.1,4.383,4.383,0,0,0-4.381-4.385,4.378,4.378,0,0,0-3.1,1.284l-3.631,3.63A4.386,4.386,0,0,0,2613.9-153.644Z" transform="translate(-2568.444 267.039)" fill="#f5e0cd"/>
        <path id="Trazado_26460" data-name="Trazado 26460" d="M2608.823-158.724a4.385,4.385,0,0,0,4.383,4.384,4.383,4.383,0,0,0,3.1-1.284l3.629-3.63a4.382,4.382,0,0,0,1.284-3.1,4.382,4.382,0,0,0-4.381-4.385,4.376,4.376,0,0,0-3.1,1.284l-3.631,3.63A4.385,4.385,0,0,0,2608.823-158.724Z" transform="translate(-2569.564 265.919)" fill="#f5e0cd"/>
        <path id="Trazado_26461" data-name="Trazado 26461" d="M2616.661-162.533a8.531,8.531,0,0,0,2.134-3.724,4.332,4.332,0,0,0-1.958-.482,4.376,4.376,0,0,0-3.1,1.284l-3.631,3.63a4.385,4.385,0,0,0-1.285,3.1,4.326,4.326,0,0,0,.481,1.958,8.524,8.524,0,0,0,3.725-2.135Z" transform="translate(-2569.564 265.919)" fill="#f0d0b4"/>
        <path id="Trazado_26462" data-name="Trazado 26462" d="M2621.74-157.454a8.535,8.535,0,0,0,2.135-3.724,4.33,4.33,0,0,0-1.958-.482,4.378,4.378,0,0,0-3.1,1.284l-3.631,3.63a4.391,4.391,0,0,0-1.285,3.1,4.343,4.343,0,0,0,.481,1.956,8.522,8.522,0,0,0,3.725-2.135Z" transform="translate(-2568.444 267.039)" fill="#f0d0b4"/>
        <path id="Trazado_26463" data-name="Trazado 26463" d="M2626.819-152.376a8.534,8.534,0,0,0,2.134-3.724,4.329,4.329,0,0,0-1.958-.481,4.378,4.378,0,0,0-3.1,1.283l-3.631,3.63a4.4,4.4,0,0,0-1.285,3.1,4.334,4.334,0,0,0,.482,1.956,8.517,8.517,0,0,0,3.724-2.135Z" transform="translate(-2567.325 268.158)" fill="#f0d0b4"/>
        <path id="Trazado_26464" data-name="Trazado 26464" d="M2603.744-163.8a4.384,4.384,0,0,0,4.383,4.383,4.381,4.381,0,0,0,3.1-1.283l3.63-3.631a4.376,4.376,0,0,0,1.282-3.1,4.381,4.381,0,0,0-4.38-4.385,4.382,4.382,0,0,0-3.1,1.284l-3.629,3.63A4.384,4.384,0,0,0,2603.744-163.8Z" transform="translate(-2570.684 264.799)" fill="#f5e0cd"/>
        <path id="Trazado_26465" data-name="Trazado 26465" d="M2607.728-189.669l-13.769,3.19-2.066,16.53,8.649,5.435Z" transform="translate(-2573.296 260.864)" fill="#dfb28b"/>
        <path id="Trazado_26466" data-name="Trazado 26466" d="M2607.276-189.148l-8.265,28.927h-2.067l-18.6-6.2v-39.259h4.133l24.8,14.465Z" transform="translate(-2576.282 257.335)" fill="#e6e9ed"/>
        <path id="Trazado_26467" data-name="Trazado 26467" d="M2599.147-195.957l-16.666-9.722h-4.133v39.259l12.4,4.132,8.266-33.06Z" transform="translate(-2576.282 257.335)" fill="#b4dd7f"/>
        <path id="Trazado_26468" data-name="Trazado 26468" d="M2634.738-168.432l-2.873,2.988,11.451,9.543a8.364,8.364,0,0,0,3.355,1.663,4.166,4.166,0,0,0,.464-1.884,4.228,4.228,0,0,0-1.518-3.244Z" transform="translate(-2564.485 265.546)" fill="#dfb28b"/>
        <path id="Trazado_26469" data-name="Trazado 26469" d="M2704.763-194.283h-4.644l-6.92,3.642a10.262,10.262,0,0,0-2.463-1.013l-8.7-2.178v-.99a14.511,14.511,0,0,0,6.2-11.858v-3.612c0-8.027-6.29-14.744-14.021-14.977-.393-.011-.779,0-1.168.023l2.258-5.284-10.942-10.939-6.45,4.2a34.944,34.944,0,0,0-7.734-3.209l-1.592-7.525h-15.748l-1.592,7.528a34.952,34.952,0,0,0-7.736,3.209l-6.45-4.2-10.933,10.933,2.219,5.288c-.084,0-.165-.02-.25-.022a14.355,14.355,0,0,0-10.514,4.077,14.331,14.331,0,0,0-4.4,10.379v4.132a14.5,14.5,0,0,0,6.2,11.855v.992l-5.679,1.419-10.292-6h-6.759V-155.6l20.328,6.775h3.959l.494-1.731,6.232,3.739a6.431,6.431,0,0,0,6.2,6.233,6.433,6.433,0,0,0,6.2,6.2,6.433,6.433,0,0,0,6.2,6.2,6.445,6.445,0,0,0,6.426,6.222,6.509,6.509,0,0,0,3.622-1.12l1.83,1.617a6.294,6.294,0,0,0,4.157,1.569h.383a6.291,6.291,0,0,0,6.279-6.207,6.284,6.284,0,0,0,6.2-6.2,6.285,6.285,0,0,0,6.2-6.2,6.354,6.354,0,0,0,6.207-6.34,5.794,5.794,0,0,0-.031-.62l37.225-18.61Zm-20.663-16.01v3.612a10.371,10.371,0,0,1-5.171,8.941l-1.034.6.008,6.539,10.324,2.579-22.723,11.96v-5.566a10.277,10.277,0,0,0-2.96-7.2l7.092-1.772v-6.544l-1.031-.6a10.361,10.361,0,0,1-5.167-8.937v-4.132a10.244,10.244,0,0,1,3.139-7.415,10.185,10.185,0,0,1,7.512-2.91C2679.609-220.972,2684.1-216.106,2684.1-210.292Zm-40.276,32.6-9.353-2.99a25.519,25.519,0,0,0-13.24-.6l-1.185.262v-.611a6.194,6.194,0,0,1,4.7-6.016l11.834-2.957v-6.544l-1.03-.6a10.36,10.36,0,0,1-5.168-8.937v-4.132a10.245,10.245,0,0,1,3.139-7.415,10.215,10.215,0,0,1,7.513-2.91c5.519.165,10.011,5.031,10.011,10.845v3.612a10.372,10.372,0,0,1-5.172,8.941l-1.032.6.008,6.539,11.833,2.957a6.194,6.194,0,0,1,4.7,6.016v7.742l-.51.269h-1.267l-12.7-3.631A13.031,13.031,0,0,0,2643.824-177.688Zm-23.314-39.391a22.8,22.8,0,0,1,20.2-12.329,22.833,22.833,0,0,1,20.114,12.162,14.371,14.371,0,0,0-1.518,6.434v4.132a14.5,14.5,0,0,0,6.2,11.855v.992l-8.265,2.07-8.268-2.07v-.99a14.51,14.51,0,0,0,6.2-11.858v-3.612c0-8.027-6.29-14.744-14.02-14.977a14.353,14.353,0,0,0-10.514,4.076,14.343,14.343,0,0,0-4.393,10.381v4.132a14.5,14.5,0,0,0,6.2,11.855v.992l-8.265,2.07-8.267-2.07v-.99a14.508,14.508,0,0,0,6.2-11.858v-3.612A15.227,15.227,0,0,0,2620.51-217.079Zm-9.5-12.5,6.6-6.6,5.81,3.782,1.112-.682a30.835,30.835,0,0,1,8.947-3.711l1.27-.3,1.438-6.78h9.048l1.434,6.777,1.272.3a30.861,30.861,0,0,1,8.947,3.711l1.111.682,5.81-3.781,6.594,6.6-2.344,5.487a14.414,14.414,0,0,0-4.361,2.9c-.086.083-.157.171-.24.256a26.984,26.984,0,0,0-22.747-12.6,26.948,26.948,0,0,0-22.825,12.725,14.566,14.566,0,0,0-4.559-3.232Zm-7.49,38.973v-6.544l-1.031-.6a10.363,10.363,0,0,1-5.167-8.937v-4.132a10.246,10.246,0,0,1,3.138-7.415,10.2,10.2,0,0,1,7.513-2.91c5.52.165,10.011,5.031,10.011,10.845v3.612a10.372,10.372,0,0,1-5.172,8.941l-1.033.6.009,6.539,7.09,1.772a10.276,10.276,0,0,0-2.96,7.2v1.53l-6.445,1.433.167-.586.079-3.819-10.9-6.357Zm-22.729-3.68h1.506l14.861,8.667-7.5,29.992-8.869-2.957Zm16.865,41.325-4.067-1.355,7.284-29.134,4.713,2.748v.589l-7.757,27.151Zm14.129,5.948a2.336,2.336,0,0,1,.677-1.638l3.632-3.632a2.335,2.335,0,0,1,1.639-.679,2.319,2.319,0,0,1,2.316,2.316,2.337,2.337,0,0,1-.677,1.639l-3.634,3.632a2.328,2.328,0,0,1-1.638.677A2.318,2.318,0,0,1,2611.782-147.009Zm6.2,6.2a2.333,2.333,0,0,1,.678-1.638l3.633-3.632a2.329,2.329,0,0,1,1.637-.679,2.319,2.319,0,0,1,2.317,2.316,2.335,2.335,0,0,1-.678,1.639l-3.632,3.632a2.334,2.334,0,0,1-1.639.677A2.318,2.318,0,0,1,2617.98-140.811Zm6.2,6.2a2.333,2.333,0,0,1,.678-1.639l3.632-3.632a2.333,2.333,0,0,1,1.638-.679,2.319,2.319,0,0,1,2.317,2.316,2.331,2.331,0,0,1-.677,1.639l-3.632,3.632a2.333,2.333,0,0,1-1.639.679A2.32,2.32,0,0,1,2624.179-134.611Zm8.515,8.515a2.32,2.32,0,0,1-2.316-2.316,2.332,2.332,0,0,1,.678-1.639l3.632-3.632a2.331,2.331,0,0,1,1.638-.677,2.318,2.318,0,0,1,2.316,2.316,2.332,2.332,0,0,1-.677,1.638l-3.633,3.632A2.331,2.331,0,0,1,2632.694-126.1Zm9.993,2.066h-.383a2.144,2.144,0,0,1-1.423-.539l-1.545-1.363,1.551-1.552a6.4,6.4,0,0,0,1.3-1.92l1.879,1.563a2.153,2.153,0,0,1,.775,1.656A2.157,2.157,0,0,1,2642.687-124.03Zm18.53-18.6h-.357a2.216,2.216,0,0,1-1.422-.516l-11.2-9.338-2.647,3.177,10.882,9.065a2.156,2.156,0,0,1,.773,1.656,2.157,2.157,0,0,1-2.156,2.155h-.45a2.158,2.158,0,0,1-1.379-.5l-11.223-9.351-2.647,3.176,10.882,9.068a2.141,2.141,0,0,1,.775,1.652,2.157,2.157,0,0,1-2.155,2.155,3.418,3.418,0,0,1-2.175-.787l-4.61-3.844a6.432,6.432,0,0,0-5.548-3.611,6.434,6.434,0,0,0-6.2-6.2,6.434,6.434,0,0,0-6.2-6.2,6.44,6.44,0,0,0-6.423-6.222,6.5,6.5,0,0,0-4.561,1.889l-3.632,3.632a6.239,6.239,0,0,0-.578.707l-6.348-3.809,5.563-19.473,13.95-3.1a21.292,21.292,0,0,1,11.087.5l3.044.974-10.32,5.16a6.886,6.886,0,0,0-3.822,6.19v.409a6.93,6.93,0,0,0,6.922,6.922,6.9,6.9,0,0,0,3.56-.987l7.695-4.614a4.265,4.265,0,0,1,4.954.477L2662.7-146.5a2.237,2.237,0,0,1,.736,1.655A2.223,2.223,0,0,1,2661.217-142.626Zm39.414-24.006-34.81,17.407q-.17-.179-.355-.345l-17.456-15.712a8.3,8.3,0,0,0-5.566-2.138,8.323,8.323,0,0,0-4.281,1.186l-7.7,4.616a2.766,2.766,0,0,1-1.429.4,2.791,2.791,0,0,1-2.79-2.79v-.409a2.772,2.772,0,0,1,1.541-2.493l11.526-5.763a8.983,8.983,0,0,1,6.44-.6l12.984,3.709,3.145.079,38.749-20.395Z" transform="translate(-2576.655 248.005)" fill="#00223d"/>
      </g>
    </g>
  </g>
</svg>
