<svg xmlns="http://www.w3.org/2000/svg" width="86" height="86" viewBox="0 0 86 86">
  <g id="Grupo_16673" data-name="Grupo 16673" transform="translate(-1507.715 259.687)">
    <path id="Trazado_26017" data-name="Trazado 26017" d="M1532.581-208.613H1570.6v18.572h-38.017Z" transform="translate(-7.23 -14.849)" fill="#fea02c"/>
    <path id="Trazado_26018" data-name="Trazado 26018" d="M1548.024-194.926V-200.6h-7.391v3.255Z" transform="translate(-9.571 -17.179)" fill="#ff5d5d"/>
    <path id="Trazado_26019" data-name="Trazado 26019" d="M1526.556-161.925a77.451,77.451,0,0,1,24.23-24.808l.372-.522a77.488,77.488,0,0,0-41.074-11.776v41.3H1524Z" transform="translate(-0.689 -17.635)" fill="#62cd4d"/>
    <path id="Trazado_26020" data-name="Trazado 26020" d="M1529.7-157.745l2.56-4.192a77.518,77.518,0,0,1,66.167-37.134v41.326Z" transform="translate(-6.392 -17.623)" fill="#a0e557"/>
    <path id="Trazado_26021" data-name="Trazado 26021" d="M1532.581-212.492l9.406-9.462,9.406,9.462Z" transform="translate(-7.23 -10.97)" fill="#fe8f8d"/>
    <path id="Trazado_26022" data-name="Trazado 26022" d="M1574.454-212.492l-9.406-9.462h-19.2l9.406,9.462Z" transform="translate(-11.085 -10.97)" fill="#ff5d5d"/>
    <g id="Grupo_16672" data-name="Grupo 16672" transform="translate(1509.395 -258.007)">
      <path id="Trazado_26023" data-name="Trazado 26023" d="M1600.341-220.81c-12.539-10.081-12.539-26.428,0-36.509C1612.879-247.238,1612.879-230.891,1600.341-220.81Z" transform="translate(-1533.59 257.319)" fill="#a0e557"/>
      <path id="Trazado_26024" data-name="Trazado 26024" d="M1519.957-221.231c-9.479-7.622-9.479-19.98,0-27.6C1529.437-241.211,1529.437-228.852,1519.957-221.231Z" transform="translate(-1510.887 254.852)" fill="#a0e557"/>
      <path id="Trazado_26025" data-name="Trazado 26025" d="M1540.356-173.843a64.956,64.956,0,0,0-30.273-7.545v13.521a51.315,51.315,0,0,1,20.971,4.512" transform="translate(-1510.083 235.243)" fill="#a0e557"/>
    </g>
    <path id="Trazado_26026" data-name="Trazado 26026" d="M1550.472-152.615a65.429,65.429,0,0,1,53.994-28.813v13.521a51.833,51.833,0,0,0-36.584,15.292Z" transform="translate(-12.431 -22.753)" fill="#62cd4d"/>
    <path id="Trazado_26027" data-name="Trazado 26027" d="M1610.914-164.732a53.673,53.673,0,0,0-37.775,15.787,1.679,1.679,0,0,0,.006,2.375,1.673,1.673,0,0,0,1.185.489,1.676,1.676,0,0,0,1.191-.5,50.293,50.293,0,0,1,35.393-14.8,1.68,1.68,0,0,0,1.68-1.68A1.68,1.68,0,0,0,1610.914-164.732Z" transform="translate(-18.879 -27.607)" fill="#00223d"/>
    <path id="Trazado_26028" data-name="Trazado 26028" d="M1568.751-167.228a1.68,1.68,0,0,0-2.332-.452,66.3,66.3,0,0,0-18.031,18.042,1.681,1.681,0,0,0,.458,2.331,1.674,1.674,0,0,0,.935.286,1.68,1.68,0,0,0,1.4-.744A62.93,62.93,0,0,1,1568.3-164.9,1.681,1.681,0,0,0,1568.751-167.228Z" transform="translate(-11.742 -26.666)" fill="#00223d"/>
    <path id="Trazado_26029" data-name="Trazado 26029" d="M1617.084-183.8a66.057,66.057,0,0,0-22.09,3.813,1.679,1.679,0,0,0-1.024,2.143,1.681,1.681,0,0,0,1.584,1.12,1.673,1.673,0,0,0,.56-.1,62.708,62.708,0,0,1,20.97-3.62,1.68,1.68,0,0,0,1.68-1.68A1.68,1.68,0,0,0,1617.084-183.8Z" transform="translate(-25.05 -22.064)" fill="#00223d"/>
    <path id="Trazado_26030" data-name="Trazado 26030" d="M1531.781-185.213a76.558,76.558,0,0,1,44.7-28.161l.009,0a74.872,74.872,0,0,1,15.547-1.638,1.68,1.68,0,0,0,1.68-1.679,1.68,1.68,0,0,0-1.68-1.68,79.068,79.068,0,0,0-14.21,1.292v-3.626c6.071-5.139,9.4-11.874,9.4-19.045,0-7.415-3.562-14.362-10.031-19.564a1.679,1.679,0,0,0-2.105,0c-6.469,5.2-10.031,12.148-10.031,19.564,0,7.171,3.333,13.906,9.4,19.045v4.313a79.483,79.483,0,0,0-9.416,2.767v-9.835a1.672,1.672,0,0,0-.489-1.184h0l-9.406-9.462a1.683,1.683,0,0,0-1.192-.5h-19.2a1.682,1.682,0,0,0-1.191.5l-9.406,9.462h0a1.673,1.673,0,0,0-.489,1.184v6.414q-1.757-.321-3.527-.565V-223.6a19.173,19.173,0,0,0,7.11-14.587c0-5.732-2.748-11.1-7.737-15.111a1.68,1.68,0,0,0-2.1,0c-4.99,4.012-7.737,9.379-7.737,15.111a19.171,19.171,0,0,0,7.11,14.587v5.6q-3.674-.344-7.391-.347a1.679,1.679,0,0,0-1.68,1.68,1.679,1.679,0,0,0,1.68,1.68,75.753,75.753,0,0,1,38.149,10.3,79.27,79.27,0,0,0-7.934,6.162,66.825,66.825,0,0,0-30.215-7.3,1.68,1.68,0,0,0-1.68,1.68,1.68,1.68,0,0,0,1.68,1.68,63.413,63.413,0,0,1,27.575,6.383,79.48,79.48,0,0,0-7.143,7.908,52.532,52.532,0,0,0-20.432-4.129,1.68,1.68,0,0,0-1.68,1.68,1.68,1.68,0,0,0,1.68,1.68,49.151,49.151,0,0,1,18.34,3.546q-1.742,2.418-3.3,4.97l-2.56,4.193a1.68,1.68,0,0,0,.558,2.309,1.671,1.671,0,0,0,.875.247,1.68,1.68,0,0,0,1.435-.806l2.559-4.193a74.533,74.533,0,0,1,4.314-6.311A1.579,1.579,0,0,0,1531.781-185.213Zm36.64-54.539c0-5.971,2.732-11.625,7.724-16.057,4.992,4.431,7.724,10.086,7.724,16.057a20.91,20.91,0,0,1-6.044,14.428v-12.862a1.679,1.679,0,0,0-1.679-1.68,1.68,1.68,0,0,0-1.68,1.68v12.862A20.907,20.907,0,0,1,1568.421-239.753Zm-55.386,1.565a15.718,15.718,0,0,1,5.43-11.587,15.717,15.717,0,0,1,5.43,11.587,15.186,15.186,0,0,1-3.75,9.833v-11.177a1.68,1.68,0,0,0-1.68-1.68,1.68,1.68,0,0,0-1.679,1.68v11.177A15.186,15.186,0,0,1,1513.034-238.187Zm46.3,13.045h-14.468l-6.066-6.1h14.467Zm-24.572-5.4,5.368,5.4H1529.39Zm-7.727,8.759h15.453V-211.1q-1.168-.537-2.352-1.037v-5.641a1.68,1.68,0,0,0-1.679-1.68h-7.39a1.68,1.68,0,0,0-1.68,1.68v2q-1.172-.305-2.352-.576Zm9.742,8.319q-2-.736-4.031-1.364V-216.1h4.031Zm9.07,4.007v-12.326h15.846v9.459a78.942,78.942,0,0,0-8.414,4.083q-1.307.733-2.583,1.518Q1548.31-208.178,1545.843-209.457Z" transform="translate(0 0)" fill="#00223d"/>
    <path id="Trazado_26031" data-name="Trazado 26031" d="M1583.437-173.385a1.7,1.7,0,0,0-.492,1.187,1.69,1.69,0,0,0,.492,1.187,1.691,1.691,0,0,0,1.188.492,1.687,1.687,0,0,0,1.187-.492,1.69,1.69,0,0,0,.492-1.187,1.692,1.692,0,0,0-.492-1.187,1.687,1.687,0,0,0-1.187-.493A1.691,1.691,0,0,0,1583.437-173.385Z" transform="translate(-21.873 -24.948)" fill="#00223d"/>
  </g>
</svg>
