<svg xmlns="http://www.w3.org/2000/svg" width="151" height="151" viewBox="0 0 151 151">
  <g id="Grupo_17117" data-name="Grupo 17117" transform="translate(-640 1827)">
    <rect id="Rectángulo_4281" data-name="Rectángulo 4281" width="151" height="151" transform="translate(640 -1827)" fill="none"/>
    <g id="Grupo_17111" data-name="Grupo 17111" transform="translate(-1698.511 -1574.477)">
      <path id="Trazado_26389" data-name="Trazado 26389" d="M2457.309-183.6a49.886,49.886,0,0,1-49.886,49.886,49.886,49.886,0,0,1-49.886-49.886,49.886,49.886,0,0,1,49.886-49.886A49.886,49.886,0,0,1,2457.309-183.6Z" transform="translate(0.889 0.895)" fill="#b8eaee"/>
      <path id="Trazado_26390" data-name="Trazado 26390" d="M2453.542-183.6a49.843,49.843,0,0,0-32.343-46.712,49.841,49.841,0,0,0-55.081,13.931l2.324,12.239,5.87,11.738,14.672,11.738-2.934,11.738,8.8,8.8,8.8,5.868,8.8-11.738,11.738-8.8,14.672,5.868,14.292-8.768A49.922,49.922,0,0,0,2453.542-183.6Z" transform="translate(4.656 0.895)" fill="#99d8aa"/>
      <path id="Trazado_26391" data-name="Trazado 26391" d="M2369.274-202.9h-11.362a50.373,50.373,0,0,0-.376,5.87,49.561,49.561,0,0,0,7.336,25.925l10.271-2.449,2.934-5.87v-8.8l-5.87-2.936Z" transform="translate(0.889 14.324)" fill="#99d8aa"/>
      <path id="Trazado_26392" data-name="Trazado 26392" d="M2370.764-169.512a49.572,49.572,0,0,0,25.311,10.408l-3.264-11.413-11.736-5.868-8.8,5.868Z" transform="translate(6.696 25.963)" fill="#99d8aa"/>
      <path id="Trazado_26393" data-name="Trazado 26393" d="M2384.941-212.445a2.934,2.934,0,0,1-2.934-2.934v-2.936a2.934,2.934,0,0,1,2.934-2.934,2.934,2.934,0,0,1,2.934,2.934v2.936A2.934,2.934,0,0,1,2384.941-212.445Z" transform="translate(11.632 6.267)" fill="#85bc94"/>
      <path id="Trazado_26394" data-name="Trazado 26394" d="M2401.255-212.445a2.934,2.934,0,0,1-2.934-2.934v-2.936a2.934,2.934,0,0,1,2.934-2.934,2.934,2.934,0,0,1,2.934,2.934v2.936A2.934,2.934,0,0,1,2401.255-212.445Z" transform="translate(18.794 6.267)" fill="#85bc94"/>
      <path id="Trazado_26395" data-name="Trazado 26395" d="M2404.589-202.708a2.95,2.95,0,0,1-.928-.151,25.081,25.081,0,0,0-15.749,0,2.938,2.938,0,0,1-3.717-1.861,2.94,2.94,0,0,1,1.858-3.717,30.907,30.907,0,0,1,19.466,0,2.938,2.938,0,0,1,2,3.267A2.933,2.933,0,0,1,2404.589-202.708Z" transform="translate(12.526 11.201)" fill="#85bc94"/>
      <path id="Trazado_26396" data-name="Trazado 26396" d="M2412.346-204.935h29.346a5.869,5.869,0,0,1,5.868,5.87v58.689a5.869,5.869,0,0,1-5.868,5.87h-29.346a5.869,5.869,0,0,1-5.868-5.87v-58.689A5.869,5.869,0,0,1,2412.346-204.935Z" transform="translate(22.375 13.429)" fill="#d9d9d9"/>
      <path id="Trazado_26397" data-name="Trazado 26397" d="M2441.692-146.145h-29.346a5.869,5.869,0,0,1-5.868-5.87v-26.41l41.083,17.608v8.8A5.869,5.869,0,0,1,2441.692-146.145Z" transform="translate(22.375 25.067)" fill="#e06661"/>
      <path id="Trazado_26398" data-name="Trazado 26398" d="M2414.635-213.092h17.606v11.738h-17.606Z" transform="translate(25.956 9.848)" fill="#d9d9d9"/>
      <path id="Trazado_26399" data-name="Trazado 26399" d="M2457.309-183.6a49.886,49.886,0,0,1-49.886,49.886,49.886,49.886,0,0,1-49.886-49.886,49.886,49.886,0,0,1,49.886-49.886A49.886,49.886,0,0,1,2457.309-183.6Z" transform="translate(0.889 0.895)" fill="#b8eaee"/>
      <path id="Trazado_26400" data-name="Trazado 26400" d="M2453.542-183.6a49.843,49.843,0,0,0-32.343-46.712,49.841,49.841,0,0,0-55.081,13.931l2.324,12.239,5.87,11.738,14.672,11.738-2.934,11.738,8.8,8.8,8.8,5.868,8.8-11.738,11.738-8.8,14.672,5.868,14.292-8.768A49.922,49.922,0,0,0,2453.542-183.6Z" transform="translate(4.656 0.895)" fill="#99d8aa"/>
      <path id="Trazado_26401" data-name="Trazado 26401" d="M2369.274-202.9h-11.362a50.373,50.373,0,0,0-.376,5.87,49.561,49.561,0,0,0,7.336,25.925l10.271-2.449,2.934-5.87v-8.8l-5.87-2.936Z" transform="translate(0.889 14.324)" fill="#99d8aa"/>
      <path id="Trazado_26402" data-name="Trazado 26402" d="M2370.764-169.512a49.572,49.572,0,0,0,25.311,10.408l-3.264-11.413-11.736-5.868-8.8,5.868Z" transform="translate(6.696 25.963)" fill="#99d8aa"/>
      <path id="Trazado_26403" data-name="Trazado 26403" d="M2412.346-204.935h29.346a5.869,5.869,0,0,1,5.868,5.87v58.689a5.869,5.869,0,0,1-5.868,5.87h-29.346a5.869,5.869,0,0,1-5.868-5.87v-58.689A5.869,5.869,0,0,1,2412.346-204.935Z" transform="translate(22.375 13.429)" fill="#d9d9d9"/>
      <path id="Trazado_26404" data-name="Trazado 26404" d="M2441.692-146.145h-29.346a5.869,5.869,0,0,1-5.868-5.87v-26.41l41.083,17.608v8.8A5.869,5.869,0,0,1,2441.692-146.145Z" transform="translate(22.375 25.067)" fill="#e06661"/>
      <path id="Trazado_26405" data-name="Trazado 26405" d="M2414.635-213.092h17.606v11.738h-17.606Z" transform="translate(25.956 9.848)" fill="#d9d9d9"/>
      <path id="Trazado_26406" data-name="Trazado 26406" d="M2451.63-212.871c-.429-.613-.849-1.233-1.3-1.823-.245-.317-.505-.616-.754-.927-.54-.672-1.078-1.347-1.646-1.99-.174-.2-.362-.378-.537-.586-.669-.734-1.344-1.468-2.055-2.156-.082-.079-.174-.154-.256-.235a53.072,53.072,0,0,0-29.218-14.4.684.684,0,0,1-.233-.027q-1.759-.244-3.52-.384-1.88-.123-3.8-.122a52.7,52.7,0,0,0-5.577.294c-.292.032-.585.1-.9.137-1.551.191-3.085.426-4.59.748-.308.065-.607.165-.916.235-1.492.35-2.964.74-4.4,1.213-.33.108-.646.243-.971.358-1.4.486-2.774,1.016-4.108,1.616-.371.164-.728.353-1.091.525-1.272.6-2.518,1.245-3.733,1.946-.4.23-.79.479-1.176.72-1.148.707-2.273,1.446-3.366,2.236q-.6.44-1.19.881-1.593,1.224-3.085,2.557c-.367.327-.733.652-1.088.99-1.021.963-1.993,1.973-2.934,3.013-.194.214-.411.4-.6.617-.027.027-.03.072-.056.105a52.588,52.588,0,0,0-12.622,28.4v.068c-.076.635-.126,1.271-.175,1.912-.129,1.489-.217,2.915-.217,4.251,0,1.57.1,3.134.237,4.7.044.492.1.983.155,1.466.135,1.143.313,2.278.52,3.408.144.78.311,1.55.488,2.318.219.937.448,1.869.718,2.79.229.793.485,1.57.751,2.348.188.551.393,1.1.6,1.643a52.5,52.5,0,0,0,3.91,8.125c.128.22.244.448.375.663a1.643,1.643,0,0,0,.117.147,53.178,53.178,0,0,0,12.146,13.722c.047.043.083.094.137.134.781.619,1.59,1.2,2.4,1.761.634.443,1.28.862,1.933,1.279.778.5,1.565.986,2.37,1.442.587.334,1.174.65,1.787.964.786.406,1.582.784,2.386,1.15.56.256,1.115.527,1.687.764,1.253.517,2.528.98,3.816,1.4.586.193,1.205.357,1.809.53.882.253,1.779.485,2.677.691.617.141,1.23.292,1.852.4,1.35.258,2.709.479,4.08.632h.049a53.85,53.85,0,0,0,5.8.342,52.459,52.459,0,0,0,17.608-3.058v5.992a8.8,8.8,0,0,0,8.8,8.8h29.346a8.8,8.8,0,0,0,8.8-8.8v-58.689a8.8,8.8,0,0,0-8.8-8.8h-2.934v-8.8a2.935,2.935,0,0,0-2.936-2.934h-2.589c-.076-.153-.155-.294-.23-.449-.293-.587-.588-1.156-.882-1.717s-.613-1.027-.924-1.537c-.347-.587-.681-1.16-1.045-1.718C2452.237-212.034,2451.927-212.446,2451.63-212.871ZM2366.14-162.2c-.147-.294-.293-.612-.443-.924-.347-.75-.683-1.507-.991-2.274-.171-.436-.325-.879-.486-1.333q-.6-1.649-1.08-3.333c-.2-.692-.378-1.389-.54-2.092-.124-.531-.256-1.059-.361-1.6q-.354-1.813-.561-3.674c-.043-.371-.072-.741-.108-1.111-.121-1.374-.211-2.763-.211-4.172,0-.991.087-1.96.149-2.934h6.362l2.383,9.513a2.937,2.937,0,0,0,1.531,1.917l4.248,2.121v6.3l-2.01,4.026-6.83,1.623C2366.82-160.814,2366.468-161.5,2366.14-162.2Zm20.374,21.043c-.044-.027-.092-.045-.14-.068-1.157-.616-2.281-1.3-3.384-2.007-.124-.079-.255-.151-.378-.229l5.373-3.58,9.059,4.537,1.641,5.749A46.666,46.666,0,0,1,2386.513-141.152Zm39.406-12.206v14.13a46.6,46.6,0,0,1-17.608,3.478c-1.106,0-2.192-.091-3.281-.168l-2.7-9.44a2.94,2.94,0,0,0-1.508-1.822l-11.738-5.87a2.941,2.941,0,0,0-2.936.186l-8.478,5.652a47.4,47.4,0,0,1-7.107-7.694l6.162-1.468a2.935,2.935,0,0,0,1.947-1.543l2.934-5.87a2.941,2.941,0,0,0,.294-1.31v-8.8a2.94,2.94,0,0,0-1.62-2.642l-4.663-2.327-2.609-10.429a2.932,2.932,0,0,0-2.846-2.225h-7.946a46.658,46.658,0,0,1,6.892-16.965l1.1,5.791a3.069,3.069,0,0,0,.259.763l5.87,11.738a2.94,2.94,0,0,0,.789.98l13.206,10.564-2.475,9.913a2.935,2.935,0,0,0,.77,2.784l8.8,8.8a2.728,2.728,0,0,0,.447.366l8.8,5.87a2.935,2.935,0,0,0,3.973-.681l8.552-11.4,6.712-5.032Zm0-32.279v10.27l-10.565,7.923a2.873,2.873,0,0,0-.587.587l-7.14,9.519-6.238-4.169-7.421-7.425,2.528-10.126a2.928,2.928,0,0,0-1.011-3l-14.17-11.337-5.4-10.8-1.969-10.38c.1-.109.193-.22.292-.325q1.321-1.392,2.733-2.642c.237-.213.466-.437.708-.645,1-.863,2.036-1.674,3.094-2.445.213-.153.412-.317.623-.465,1.174-.817,2.349-1.573,3.586-2.279.128-.073.252-.158.384-.232a45.986,45.986,0,0,1,4.205-2.1,46.706,46.706,0,0,1,18.74-3.947c1.135,0,2.262.042,3.386.124s2.227.2,3.31.364h.021a47.276,47.276,0,0,1,26.069,12.891l.124.115c.664.648,1.293,1.327,1.918,2.013.126.137.259.266.383.407.532.6,1.036,1.23,1.537,1.861.2.246.4.482.587.734.428.56.831,1.15,1.236,1.734.233.338.483.666.712,1.013.353.54.678,1.1,1.01,1.658.115.187.228.373.336.563h-8.363a2.935,2.935,0,0,0-2.935,2.934v8.8h-2.935A8.8,8.8,0,0,0,2425.919-185.637ZM2467-126.948a2.935,2.935,0,0,1-2.935,2.936h-29.346a2.934,2.934,0,0,1-2.934-2.936v-21.958L2467-133.816Zm-8.8-61.624h5.87a2.935,2.935,0,0,1,2.935,2.936V-140.2l-35.214-15.091v-30.346a2.934,2.934,0,0,1,2.934-2.936Zm-2.934-11.738v5.87h-11.738v-5.87Z" transform="translate(0)" fill="#00223d"/>
    </g>
  </g>
</svg>
