<svg xmlns="http://www.w3.org/2000/svg" width="132" height="132" viewBox="0 0 132 132">
  <g id="Grupo_17087" data-name="Grupo 17087" transform="translate(-2346 5330)">
    <rect id="Rectángulo_4231" data-name="Rectángulo 4231" width="132" height="132" transform="translate(2346 -5330)" fill="none"/>
    <g id="Grupo_17086" data-name="Grupo 17086" transform="translate(2123.143 -5065.826)">
      <path id="Trazado_26217" data-name="Trazado 26217" d="M271.961-187.877s0,24.068,1.719,27.506,5.158,16.332,8.6,18.051,6.876,2.579,7.736-6.017a96.9,96.9,0,0,1,1.719-12.034l6.876-8.6-.861-3.438s2.58,0,6.018-2.579-.86-8.6,4.3-12.033a80.831,80.831,0,0,1,6.877-4.3s2.579-19.77,6.017-24.928-6.017-8.594-6.017-8.594-12.894-5.157-14.613-6.017-10.314-7.737-13.752-12.034-8.6-6.877-11.175-6.877-14.613,6.877-14.613,6.877.859,11.175,0,15.473-6.017,7.734-6.017,7.734,5.157,8.6,5.157,12.034,8.6,9.456,8.6,9.456l3.438,3.438Z" transform="translate(0.311 1.554)" fill="#a0c8ff"/>
      <path id="Trazado_26218" data-name="Trazado 26218" d="M286.163-138.962a10.274,10.274,0,0,1-4.438-1.323c-2.9-1.448-4.99-6.787-7.632-14.169-.706-1.974-1.372-3.839-1.826-4.745-1.83-3.66-1.923-24.273-1.923-28.368v-6.077l-2.755-2.755c-2.359-1.665-9.279-6.9-9.279-10.938,0-2-2.854-7.662-4.883-11.041a1.93,1.93,0,0,1,.583-2.594c1.249-.843,4.625-3.65,5.2-6.513.663-3.312.2-11.912-.032-14.946a1.929,1.929,0,0,1,.967-1.823c3.753-2.145,12.779-7.131,15.57-7.131,3.245,0,8.875,2.843,12.681,7.6,3.328,4.162,11.7,10.808,13.11,11.516,1.351.675,10.9,4.525,14.466,5.95.6.217,6.387,2.426,7.708,6.449a5.6,5.6,0,0,1-.8,5.007c-2.617,3.924-5.008,18.733-5.71,24.107a1.925,1.925,0,0,1-1.049,1.476c-.012.006-1.749.9-6.67,4.176-1.875,1.252-1.954,2.865-1.93,5.4.021,2.154.048,4.834-2.281,6.577a15.855,15.855,0,0,1-4.81,2.537l.367,1.47a1.938,1.938,0,0,1-.362,1.674l-6.6,8.247a111.188,111.188,0,0,0-1.583,11.37c-.453,4.5-1.633,7.136-3.717,8.285A4.844,4.844,0,0,1,286.163-138.962Zm-11.963-48.6c0,11.606.567,24.746,1.515,26.643.558,1.115,1.23,2.993,2.008,5.169,1.3,3.622,3.991,11.152,5.726,12.019,1.054.527,2.539,1.18,3.215.808.3-.166,1.315-1.036,1.741-5.291a97.129,97.129,0,0,1,1.768-12.311,1.929,1.929,0,0,1,.364-.738l6.279-7.848-.626-2.509a1.925,1.925,0,0,1,.349-1.656,1.929,1.929,0,0,1,1.519-.743,9.815,9.815,0,0,0,4.86-2.193c.7-.519.757-1.452.739-3.455-.025-2.6-.06-6.169,3.647-8.642,3.232-2.154,5.154-3.324,6.166-3.907.6-4.374,2.94-19.9,6.193-24.783a1.775,1.775,0,0,0,.349-1.662c-.578-1.77-3.9-3.5-5.422-4.053-1.382-.552-13.072-5.232-14.813-6.1-1.923-.962-10.809-8.071-14.4-12.553-3.276-4.1-7.963-6.155-9.667-6.155-1.329.08-7.363,3.085-12.607,6.027.2,3.083.619,11.1-.117,14.773-.694,3.476-3.591,6.36-5.386,7.857,1.614,2.849,4.565,8.48,4.565,11.535,0,1.271,3.706,5.024,7.773,7.874a1.966,1.966,0,0,1,.259.217l3.438,3.439a1.92,1.92,0,0,1,.566,1.363v6.876Z" transform="translate(0 1.243)" fill="#00223d"/>
      <path id="Trazado_26219" data-name="Trazado 26219" d="M293.268-256.236a16.93,16.93,0,0,0-16.93,16.93c0,9.35,16.93,29.346,16.93,29.346s16.93-20,16.93-29.346A16.93,16.93,0,0,0,293.268-256.236Zm0,23.514a7.714,7.714,0,0,1-7.713-7.714,7.712,7.712,0,0,1,7.713-7.712,7.711,7.711,0,0,1,7.712,7.712A7.713,7.713,0,0,1,293.268-232.721Z" transform="translate(4.454 0.311)" fill="#ffcd69"/>
      <path id="Trazado_26220" data-name="Trazado 26220" d="M293.579-207.721a1.932,1.932,0,0,1-1.471-.681c-1.781-2.1-17.387-20.82-17.387-30.594a18.88,18.88,0,0,1,18.858-18.858A18.88,18.88,0,0,1,312.437-239c0,9.774-15.606,28.49-17.387,30.594A1.932,1.932,0,0,1,293.579-207.721Zm0-46.277a15.018,15.018,0,0,0-15,15c0,6.42,9.759,19.827,15,26.318,5.242-6.491,15-19.9,15-26.318A15.018,15.018,0,0,0,293.579-254Zm0,23.515a9.652,9.652,0,0,1-9.641-9.641,9.652,9.652,0,0,1,9.641-9.641,9.652,9.652,0,0,1,9.641,9.641A9.652,9.652,0,0,1,293.579-230.483Zm0-15.425a5.791,5.791,0,0,0-5.785,5.784,5.792,5.792,0,0,0,5.785,5.785,5.792,5.792,0,0,0,5.785-5.785A5.791,5.791,0,0,0,293.579-245.908Z" transform="translate(4.144 0)" fill="#00223d"/>
    </g>
  </g>
</svg>
