<svg xmlns="http://www.w3.org/2000/svg" width="86" height="83.797" viewBox="0 0 86 83.797">
  <g id="Grupo_16683" data-name="Grupo 16683" transform="translate(-1017.354 272.091)">
    <g id="Grupo_16681" data-name="Grupo 16681" transform="translate(1018.614 -270.832)">
      <g id="Grupo_16679" data-name="Grupo 16679" transform="translate(0 0)">
        <path id="Trazado_26032" data-name="Trazado 26032" d="M1019.412-258.522v51.973a2.3,2.3,0,0,0,2.3,2.3h67.912a2.3,2.3,0,0,0,2.3-2.3v-51.973a2.3,2.3,0,0,0-2.3-2.3h-67.912A2.3,2.3,0,0,0,1019.412-258.522Z" transform="translate(-1019.412 266.463)" fill="#ebeef2"/>
        <path id="Trazado_26033" data-name="Trazado 26033" d="M1131.471-260.825H1127.3a2.3,2.3,0,0,1,2.3,2.3v51.973a2.3,2.3,0,0,1-2.3,2.3h4.171a2.3,2.3,0,0,0,2.3-2.3v-51.973A2.3,2.3,0,0,0,1131.471-260.825Z" transform="translate(-1061.257 266.462)" fill="#d1d6de"/>
        <g id="Grupo_16678" data-name="Grupo 16678" transform="translate(15.976 12.85)">
          <g id="Grupo_16674" data-name="Grupo 16674" transform="translate(0 16.153)">
            <circle id="Elipse_944" data-name="Elipse 944" cx="2.94" cy="2.94" r="2.94" fill="#5c9cee"/>
          </g>
          <g id="Grupo_16675" data-name="Grupo 16675" transform="translate(11.562 9.589)">
            <circle id="Elipse_945" data-name="Elipse 945" cx="2.94" cy="2.94" r="2.94" fill="#f2df33"/>
          </g>
          <g id="Grupo_16676" data-name="Grupo 16676" transform="translate(23.125 16.153)">
            <circle id="Elipse_946" data-name="Elipse 946" cx="2.94" cy="2.94" r="2.94" fill="#ed5575"/>
          </g>
          <g id="Grupo_16677" data-name="Grupo 16677" transform="translate(34.687)">
            <circle id="Elipse_947" data-name="Elipse 947" cx="2.94" cy="2.94" r="2.94" fill="#9fd479"/>
          </g>
        </g>
        <path id="Trazado_26034" data-name="Trazado 26034" d="M1039.423-164.364V-168.4h48.019v4.032a1.6,1.6,0,0,1-1.6,1.6h-44.81A1.6,1.6,0,0,1,1039.423-164.364Z" transform="translate(-1027.173 230.613)" fill="#f2df33"/>
        <path id="Trazado_26035" data-name="Trazado 26035" d="M1110.2-168.4v4.032a1.6,1.6,0,0,1-1.6,1.6h4.073a1.6,1.6,0,0,0,1.6-1.6V-168.4Z" transform="translate(-1054.001 230.613)" fill="#fcab29"/>
        <path id="Trazado_26036" data-name="Trazado 26036" d="M1069.281-264.4v-3.736a1.9,1.9,0,0,1,1.9-1.9h7.662a1.9,1.9,0,0,1,1.9,1.9v3.735h-11.464Z" transform="translate(-1038.754 270.034)" fill="#f2df33"/>
        <path id="Trazado_26037" data-name="Trazado 26037" d="M1082.3-270.033h-4.1a1.9,1.9,0,0,1,1.9,1.9v3.736h4.1v-3.736A1.9,1.9,0,0,0,1082.3-270.033Z" transform="translate(-1042.214 270.034)" fill="#fcab29"/>
        <rect id="Rectángulo_4091" data-name="Rectángulo 4091" width="5.111" height="11.132" transform="translate(16.36 43.843)" fill="#48cfb7"/>
        <rect id="Rectángulo_4092" data-name="Rectángulo 4092" width="5.111" height="17.57" transform="translate(27.923 37.405)" fill="#48cfb7"/>
        <rect id="Rectángulo_4093" data-name="Rectángulo 4093" width="5.111" height="11.132" transform="translate(39.485 43.843)" fill="#48cfb7"/>
        <rect id="Rectángulo_4094" data-name="Rectángulo 4094" width="5.111" height="22.59" transform="translate(51.047 32.385)" fill="#48cfb7"/>
      </g>
      <g id="Grupo_16680" data-name="Grupo 16680" transform="translate(49.637 23.163)">
        <path id="Trazado_26038" data-name="Trazado 26038" d="M1129.706-190.5l9.378,16.243a3.529,3.529,0,0,0,4.821,1.292h0a3.529,3.529,0,0,0,1.292-4.821l-9.378-16.244Z" transform="translate(-1111.827 217.391)" fill="#ed5575"/>
        <path id="Trazado_26039" data-name="Trazado 26039" d="M1135.819-194.026l-6.113,3.529,3.656,6.332a19.2,19.2,0,0,0,3.22-1.481,19.207,19.207,0,0,0,2.893-2.048Z" transform="translate(-1111.827 217.391)" fill="#cc3a60"/>
        <circle id="Elipse_948" data-name="Elipse 948" cx="15.206" cy="15.206" r="15.206" fill="#f2df33"/>
        <circle id="Elipse_949" data-name="Elipse 949" cx="10.701" cy="10.701" r="10.701" transform="translate(4.505 4.505)" fill="#5c9cee"/>
      </g>
    </g>
    <g id="Grupo_16682" data-name="Grupo 16682" transform="translate(1017.354 -272.091)">
      <path id="Trazado_26040" data-name="Trazado 26040" d="M1082.34-242.7a4.2,4.2,0,0,0,4.2-4.2,4.2,4.2,0,0,0-4.2-4.2,4.2,4.2,0,0,0-4.2,4.2,4.178,4.178,0,0,0,.844,2.521l-6.9,9.642a4.18,4.18,0,0,0-1.308-.209,4.182,4.182,0,0,0-2.858,1.127l-4.6-2.61a4.2,4.2,0,0,0,.094-.883,4.2,4.2,0,0,0-4.2-4.2,4.2,4.2,0,0,0-4.2,4.2,4.2,4.2,0,0,0,.094.883l-4.6,2.61a4.184,4.184,0,0,0-2.859-1.127,4.2,4.2,0,0,0-4.2,4.2,4.2,4.2,0,0,0,4.2,4.2,4.2,4.2,0,0,0,4.2-4.2,4.2,4.2,0,0,0-.094-.883l4.6-2.61a4.182,4.182,0,0,0,2.858,1.127,4.184,4.184,0,0,0,2.859-1.127l4.6,2.61a4.193,4.193,0,0,0-.094.883,4.2,4.2,0,0,0,4.2,4.2,4.2,4.2,0,0,0,4.2-4.2,4.177,4.177,0,0,0-.844-2.522l6.9-9.641A4.2,4.2,0,0,0,1082.34-242.7Zm0-5.879a1.682,1.682,0,0,1,1.68,1.68,1.682,1.682,0,0,1-1.68,1.68,1.682,1.682,0,0,1-1.68-1.68A1.682,1.682,0,0,1,1082.34-248.58Zm-34.687,19.513a1.682,1.682,0,0,1-1.68-1.68,1.682,1.682,0,0,1,1.68-1.68,1.682,1.682,0,0,1,1.68,1.68A1.682,1.682,0,0,1,1047.653-229.067Zm11.562-6.565a1.682,1.682,0,0,1-1.68-1.68,1.682,1.682,0,0,1,1.68-1.68,1.682,1.682,0,0,1,1.68,1.68A1.682,1.682,0,0,1,1059.215-235.632Zm11.562,6.565a1.682,1.682,0,0,1-1.68-1.68,1.682,1.682,0,0,1,1.68-1.68,1.682,1.682,0,0,1,1.68,1.68A1.682,1.682,0,0,1,1070.777-229.067Z" transform="translate(-1027.477 263.949)" fill="#00223d"/>
      <path id="Trazado_26041" data-name="Trazado 26041" d="M1087.7-206.3h-66.781a1.045,1.045,0,0,1-1.044-1.044V-259.32a1.045,1.045,0,0,1,1.044-1.044h5.939a1.26,1.26,0,0,0,1.259-1.26,1.259,1.259,0,0,0-1.259-1.26h-5.939a3.567,3.567,0,0,0-3.563,3.563v51.973a3.567,3.567,0,0,0,3.563,3.563h8.686v2.772a2.868,2.868,0,0,0,2.864,2.864h12.61l-5.936,11.59a1.26,1.26,0,0,0,.547,1.7,1.253,1.253,0,0,0,.574.138,1.259,1.259,0,0,0,1.122-.686l6.524-12.738h13.928l6.525,12.738a1.258,1.258,0,0,0,1.122.686,1.259,1.259,0,0,0,.573-.138,1.26,1.26,0,0,0,.547-1.7l-5.936-11.59h12.61a2.867,2.867,0,0,0,2.864-2.864v-2.772h7.556a1.26,1.26,0,0,0,1.26-1.26A1.26,1.26,0,0,0,1087.7-206.3Zm-10.076,5.292a.345.345,0,0,1-.344.345h-44.811a.345.345,0,0,1-.345-.345v-2.772h45.5Z" transform="translate(-1017.354 268.52)" fill="#00223d"/>
      <path id="Trazado_26042" data-name="Trazado 26042" d="M1040.31-263.935h56.933a1.045,1.045,0,0,1,1.044,1.044v11.978a1.259,1.259,0,0,0,1.26,1.26,1.26,1.26,0,0,0,1.26-1.26v-11.978a3.568,3.568,0,0,0-3.564-3.563H1070.28v-2.476a3.164,3.164,0,0,0-3.161-3.161h-7.662a3.164,3.164,0,0,0-3.161,3.161v2.476H1040.31a1.26,1.26,0,0,0-1.26,1.26A1.26,1.26,0,0,0,1040.31-263.935Zm18.506-5a.642.642,0,0,1,.641-.641h7.662a.642.642,0,0,1,.642.641v2.476h-8.945v-2.476Z" transform="translate(-1025.769 272.091)" fill="#00223d"/>
      <path id="Trazado_26043" data-name="Trazado 26043" d="M1045.34-200.47a1.26,1.26,0,0,0-1.26,1.26v11.132a1.26,1.26,0,0,0,1.26,1.26h5.111a1.259,1.259,0,0,0,1.26-1.26V-199.21a1.259,1.259,0,0,0-1.26-1.26Zm3.851,11.132H1046.6v-8.612h2.591Z" transform="translate(-1027.72 244.313)" fill="#00223d"/>
      <path id="Trazado_26044" data-name="Trazado 26044" d="M1064.228-210.987a1.26,1.26,0,0,0-1.26,1.26v17.57a1.26,1.26,0,0,0,1.26,1.26h5.111a1.26,1.26,0,0,0,1.26-1.26v-17.57a1.26,1.26,0,0,0-1.26-1.26Zm3.851,17.57h-2.591v-15.05h2.591Z" transform="translate(-1035.046 248.392)" fill="#00223d"/>
      <path id="Trazado_26045" data-name="Trazado 26045" d="M1083.116-200.47a1.26,1.26,0,0,0-1.26,1.26v11.132a1.26,1.26,0,0,0,1.26,1.26h5.111a1.26,1.26,0,0,0,1.26-1.26V-199.21a1.26,1.26,0,0,0-1.26-1.26Zm3.851,11.132h-2.591v-8.612h2.591Z" transform="translate(-1042.371 244.313)" fill="#00223d"/>
      <path id="Trazado_26046" data-name="Trazado 26046" d="M1102-188.326a1.26,1.26,0,0,0-1.26,1.26v3.7a1.26,1.26,0,0,0,1.26,1.26h5.111a1.26,1.26,0,0,0,1.26-1.26,1.26,1.26,0,0,0-1.26-1.26h-3.851v-2.438A1.259,1.259,0,0,0,1102-188.326Z" transform="translate(-1049.697 239.603)" fill="#00223d"/>
      <path id="Trazado_26047" data-name="Trazado 26047" d="M1134.164-194.012l-7.228-12.518a16.376,16.376,0,0,0,3.877-6.994,16.357,16.357,0,0,0-1.645-12.494,16.484,16.484,0,0,0-22.492-6.027,16.484,16.484,0,0,0-6.026,22.493,16.357,16.357,0,0,0,10,7.671,16.557,16.557,0,0,0,4.288.568,16.253,16.253,0,0,0,3.708-.429l7.226,12.518a4.789,4.789,0,0,0,4.155,2.393,4.762,4.762,0,0,0,2.386-.64,4.8,4.8,0,0,0,2.4-4.15A4.794,4.794,0,0,0,1134.164-194.012Zm-22.865-10.3a13.853,13.853,0,0,1-8.468-6.5,13.962,13.962,0,0,1,5.1-19.051,13.855,13.855,0,0,1,6.95-1.866,13.955,13.955,0,0,1,12.1,6.971,13.853,13.853,0,0,1,1.393,10.582,13.854,13.854,0,0,1-6.5,8.468A13.853,13.853,0,0,1,1111.3-204.315Zm19.853,14.663a2.272,2.272,0,0,1-3.1-.83l-6.952-12.044a16.8,16.8,0,0,0,2.042-1,16.717,16.717,0,0,0,1.886-1.271l6.954,12.045a2.27,2.27,0,0,1,.3,1.132A2.277,2.277,0,0,1,1131.151-189.652Z" transform="translate(-1048.806 257.413)" fill="#00223d"/>
      <path id="Trazado_26048" data-name="Trazado 26048" d="M1129.179-211.388a11.921,11.921,0,0,0-.6-8.636,1.26,1.26,0,0,0-1.677-.6,1.26,1.26,0,0,0-.6,1.677,9.406,9.406,0,0,1,.469,6.816,9.409,9.409,0,0,1-4.3,5.374,9.379,9.379,0,0,1-7.164.943,9.377,9.377,0,0,1-5.733-4.4,9.452,9.452,0,0,1,3.455-12.9,9.429,9.429,0,0,1,10.423.648,1.259,1.259,0,0,0,1.764-.244,1.26,1.26,0,0,0-.244-1.765,11.942,11.942,0,0,0-13.2-.821,11.882,11.882,0,0,0-5.573,7.262,11.884,11.884,0,0,0,1.195,9.076,11.883,11.883,0,0,0,7.263,5.573,12.031,12.031,0,0,0,3.115.413,11.892,11.892,0,0,0,5.961-1.607A11.924,11.924,0,0,0,1129.179-211.388Z" transform="translate(-1051.654 254.565)" fill="#00223d"/>
    </g>
  </g>
</svg>
