<svg xmlns="http://www.w3.org/2000/svg" width="132" height="132" viewBox="0 0 132 132">
  <g id="Grupo_17089" data-name="Grupo 17089" transform="translate(-2346 5327)">
    <rect id="Rectángulo_4231" data-name="Rectángulo 4231" width="132" height="132" transform="translate(2346 -5327)" fill="none"/>
    <g id="Grupo_17088" data-name="Grupo 17088" transform="translate(1201.411 -5040.538)">
      <g id="Grupo_16669" data-name="Grupo 16669" transform="translate(1169.05 -277.688)">
        <path id="Trazado_26012" data-name="Trazado 26012" d="M1233.626-189.623v-5.816h6.152l-5.145-7.382h12.191l4.586-3.131-2.573-5.369,3.375-2.685-2.21-6.935v-11.632h-12.126l-4.7-7.605h-15.324v-7.83l-7.493-6.04,6.53-7.813,12.76-7.913-8.664-6.868-10.513,9.171h-10.178l-5.481,4.922v7.158l-15.883,13.086,2.573,4.586v17.449l2.869,6.948-6.4,2-7.875,8.5,12,8.948h11.235l17.921,13.957v5.058h14.886l1.789-1.566-3.27,11.632h3.477l5.488,2.685,3.8-21.588Z" transform="translate(-1170.095 276.643)" fill="#ffea60"/>
        <path id="Trazado_26013" data-name="Trazado 26013" d="M1245.463-151.369v-1.817H1208.3l14.8,11.523v5.058h14.886l1.79-1.566-3.27,11.632h3.477l5.488,2.685,3.8-21.588Z" transform="translate(-1181.932 238.389)" fill="#ed1f34"/>
        <path id="Trazado_26014" data-name="Trazado 26014" d="M1181.5-195.186l2.869,6.948-6.4,2-7.875,8.5,12,8.948h11.235l3.125,2.433h37.166v-4h6.152l-5.145-7.382h12.191l4.586-3.131-2.573-5.369,3.375-2.685-2.156-6.765H1181.5Z" transform="translate(-1170.095 251.558)" fill="#164fce"/>
      </g>
      <g id="Grupo_16670" data-name="Grupo 16670" transform="translate(1166.722 -280.016)">
        <path id="Trazado_26015" data-name="Trazado 26015" d="M1255.012-202.686,1252.464-208l-1.771-3.7,1.923-1.529a2.329,2.329,0,0,0,.769-2.529l-2.1-6.59v-11.271a2.328,2.328,0,0,0-2.329-2.328h-10.828l-4.015-6.5a2.329,2.329,0,0,0-1.981-1.1h-13v-5.5a2.328,2.328,0,0,0-.867-1.813l-5.649-4.553,4.77-5.706,12.441-7.716a2.327,2.327,0,0,0,1.1-1.844,2.33,2.33,0,0,0-.878-1.959l-8.664-6.868a2.329,2.329,0,0,0-2.977.07l-9.857,8.6h-9.306a2.327,2.327,0,0,0-1.555.6l-5.481,4.921a2.33,2.33,0,0,0-.772,1.732v6.06l-12.887,10.618-.607-1.083a2.328,2.328,0,0,0-3.169-.892,2.328,2.328,0,0,0-.891,3.169l4.244,7.566v16.84a2.327,2.327,0,0,0,.177.889l1.9,4.6-3.974,1.242a2.327,2.327,0,0,0-1.013.64l-7.875,8.5a2.325,2.325,0,0,0-.611,1.8,2.328,2.328,0,0,0,.927,1.654l12,8.948a2.331,2.331,0,0,0,1.391.461h10.436l16.392,12.767v3.92a2.328,2.328,0,0,0,2.328,2.328h13.163l-2,7.108a2.328,2.328,0,0,0,.385,2.036,2.328,2.328,0,0,0,1.856.922h2.939l5,2.448a2.327,2.327,0,0,0,1.023.237,2.332,2.332,0,0,0,1.056-.253,2.328,2.328,0,0,0,1.237-1.671l3.8-21.587a2.33,2.33,0,0,0-.334-1.661l-3.434-5.353v-2.806h3.823a2.329,2.329,0,0,0,2.064-1.251,2.33,2.33,0,0,0-.154-2.409l-2.595-3.723h7.731a2.329,2.329,0,0,0,1.313-.406l2.346-1.6,1.376,2.872a2.328,2.328,0,0,0,2.1,1.322,2.321,2.321,0,0,0,1-.229,2.328,2.328,0,0,0,1.092-3.1ZM1230.825-166.6l-2.709-1.325a2.329,2.329,0,0,0-1.023-.237h-.4l2.439-8.674a2.327,2.327,0,0,0-1-2.6,2.326,2.326,0,0,0-2.775.217l-1.131.99h-11.683v-2.73a2.328,2.328,0,0,0-.9-1.836l-9.448-7.359h28.123a2.319,2.319,0,0,0,.306.746l3.312,5.163Zm-48.336-73.3-1.621-2.888,14.38-11.849a2.325,2.325,0,0,0,.848-1.8v-6.12l4.045-3.632h9.287a2.331,2.331,0,0,0,1.531-.574l9.055-7.9,4.551,3.607-9.945,6.168a2.32,2.32,0,0,0-.559.485l-6.53,7.813a2.325,2.325,0,0,0-.531,1.721,2.329,2.329,0,0,0,.856,1.585l6.627,5.341v6.716a2.328,2.328,0,0,0,2.328,2.328h14.025l4.015,6.5a2.329,2.329,0,0,0,1.981,1.1h9.8v7.145h-20.254a2.328,2.328,0,0,0-2.328,2.328,2.328,2.328,0,0,0,2.328,2.329h20.935l1.152,3.615-2.118,1.685a2.327,2.327,0,0,0-.65,2.827l1.709,3.567-2.342,1.6h-11.472a2.328,2.328,0,0,0-2.064,1.251,2.329,2.329,0,0,0,.154,2.408l2.595,3.723h-1.691a2.328,2.328,0,0,0-2.328,2.328v1.672h-34.039l-2.494-1.942a2.326,2.326,0,0,0-1.431-.491h-10.462l-9.309-6.939,5.693-6.145,5.81-1.816a2.324,2.324,0,0,0,1.413-1.234,2.327,2.327,0,0,0,.044-1.876l-1.748-4.233h21.692a2.328,2.328,0,0,0,2.328-2.329,2.328,2.328,0,0,0-2.328-2.328h-22.637v-14.619a2.192,2.192,0,0,0-.1-.692,2.218,2.218,0,0,0-.2-.448Z" transform="translate(-1166.722 280.016)" fill="#00223d"/>
        <path id="Trazado_26016" data-name="Trazado 26016" d="M1236.932-199.061a2.345,2.345,0,0,0-1.646.683,2.345,2.345,0,0,0-.682,1.645,2.345,2.345,0,0,0,.682,1.646,2.345,2.345,0,0,0,1.646.683,2.354,2.354,0,0,0,1.648-.683,2.34,2.34,0,0,0,.68-1.646,2.339,2.339,0,0,0-.68-1.645A2.349,2.349,0,0,0,1236.932-199.061Z" transform="translate(-1187.756 254.931)" fill="#00223d"/>
      </g>
    </g>
  </g>
</svg>
