<svg xmlns="http://www.w3.org/2000/svg" width="95" height="85.531" viewBox="0 0 95 85.531">
  <g id="Grupo_16690" data-name="Grupo 16690" transform="translate(-1575.793 -227.572)">
    <path id="Trazado_26081" data-name="Trazado 26081" d="M1676.785,273.1V248.248h-39.154l-6.448,23.807v32.884H1641.6" transform="translate(-21.095 -7.874)" fill="#eaa50c"/>
    <path id="Trazado_26082" data-name="Trazado 26082" d="M1652.428,276.172l-12.622-.123,5.2-19.178h29.729v17.041" transform="translate(-24.379 -11.158)" fill="#a0d9f2"/>
    <path id="Trazado_26083" data-name="Trazado 26083" d="M1687.977,309.825h4.971a27.638,27.638,0,1,0-55.277,0v8.039" transform="translate(-23.566 -20.799)" fill="#a56b04"/>
    <path id="Trazado_26084" data-name="Trazado 26084" d="M1607.328,319.582h3.629V286.7h-26.531a6.353,6.353,0,0,0-6.353,6.355v26.528" transform="translate(-0.868 -22.518)" fill="#eaa50c"/>
    <path id="Trazado_26085" data-name="Trazado 26085" d="M1584.426,286.7a6.353,6.353,0,0,0-6.353,6.355V300.2a6.353,6.353,0,0,1,6.353-6.356h26.53V286.7Z" transform="translate(-0.868 -22.518)" fill="#f7b32d"/>
    <circle id="Elipse_952" data-name="Elipse 952" cx="22.668" cy="22.668" r="22.668" transform="translate(1619.075 266.357)" fill="#444d56"/>
    <circle id="Elipse_953" data-name="Elipse 953" cx="14.137" cy="14.137" r="14.137" transform="translate(1627.607 274.888)" fill="#9aa7b8"/>
    <g id="Grupo_16689" data-name="Grupo 16689" transform="translate(1577.204 282.436)">
      <circle id="Elipse_954" data-name="Elipse 954" cx="5.326" cy="5.326" r="5.326" transform="translate(59.214 1.264)" fill="#444d56"/>
      <circle id="Elipse_955" data-name="Elipse 955" cx="14.628" cy="14.628" r="14.628" transform="translate(0 0)" fill="#444d56"/>
    </g>
    <circle id="Elipse_956" data-name="Elipse 956" cx="7.083" cy="7.083" r="7.083" transform="translate(1584.749 289.981)" fill="#9aa7b8"/>
    <rect id="Rectángulo_4095" data-name="Rectángulo 4095" width="48.053" height="5.425" transform="translate(1607.638 234.947)" fill="#a56b04"/>
    <path id="Trazado_26086" data-name="Trazado 26086" d="M1586.323,305.464a4.894,4.894,0,0,0,0-9.788Z" transform="translate(-4.01 -25.937)" fill="#ffe300"/>
    <path id="Trazado_26087" data-name="Trazado 26087" d="M1603.586,254.571h-3.61a2.644,2.644,0,0,0-2.644,2.644v17.248h8.9V257.215A2.643,2.643,0,0,0,1603.586,254.571Z" transform="translate(-8.203 -10.282)" fill="#444d56"/>
    <path id="Trazado_26088" data-name="Trazado 26088" d="M1603.662,254.575c-.025,0-.05,0-.076,0h-3.61a2.644,2.644,0,0,0-2.644,2.644v17.247h3.763V257.215A2.643,2.643,0,0,1,1603.662,254.575Z" transform="translate(-8.203 -10.282)" fill="#2c343a"/>
    <path id="Trazado_26089" data-name="Trazado 26089" d="M1672.745,301.713a15.548,15.548,0,1,0,15.548,15.548A15.565,15.565,0,0,0,1672.745,301.713Zm0,28.274a12.726,12.726,0,1,1,12.726-12.726A12.74,12.74,0,0,1,1672.745,329.987Z" transform="translate(-31.002 -28.236)" fill="#00223d"/>
    <path id="Trazado_26090" data-name="Trazado 26090" d="M1678.164,315.943a6.737,6.737,0,1,0,6.737,6.737A6.744,6.744,0,0,0,1678.164,315.943Zm0,10.653a3.915,3.915,0,1,1,3.916-3.916A3.92,3.92,0,0,1,1678.164,326.6Z" transform="translate(-36.422 -33.655)" fill="#00223d"/>
    <path id="Trazado_26091" data-name="Trazado 26091" d="M1657.1,264.378v-29.43a1.412,1.412,0,0,0-1.411-1.411h-5.214a1.411,1.411,0,0,0-1.41,1.411h0a1.411,1.411,0,0,0,1.41,1.411h3.8v2.6h-45.231v-2.6h34.844a1.412,1.412,0,0,0,1.411-1.411h0a1.412,1.412,0,0,0-1.411-1.411h-36.255a1.411,1.411,0,0,0-1.41,1.411v5.426a1.411,1.411,0,0,0,1.41,1.41h7.055l-5.684,20.986h-9.57V246.932a4.055,4.055,0,0,0-4.055-4.055h-.563V233.7a3.31,3.31,0,0,1,3.31-3.309h1.435a1.411,1.411,0,0,0,1.411-1.411h0a1.412,1.412,0,0,0-1.411-1.411h-1.435A6.132,6.132,0,0,0,1592,233.7v9.175h-.227a4.055,4.055,0,0,0-4.055,4.055V262.77h-4.159a7.765,7.765,0,0,0-7.764,7.765v26.53a16.037,16.037,0,0,0,32.012,1.411H1619.6a24.077,24.077,0,0,0,46.181-8.039h3.6a1.412,1.412,0,0,0,1.411-1.412A29.058,29.058,0,0,0,1657.1,264.378Zm-66.562-17.446a1.234,1.234,0,0,1,1.233-1.233h3.611a1.234,1.234,0,0,1,1.233,1.233v15.837h-6.076Zm1.292,63.349a13.232,13.232,0,0,1-13.217-13.217h0v-.022a13.217,13.217,0,1,1,13.217,13.239Zm16.845-26.254v11.627h-.872a16.03,16.03,0,0,0-29.19-7.663V270.536a4.944,4.944,0,0,1,4.944-4.944h25.117v11.851a1.411,1.411,0,0,0,1.411,1.411h0a1.411,1.411,0,0,0,1.411-1.411V264.368l6.117-22.583h36.664v21.038q-1.228-.59-2.518-1.066V245.713a1.411,1.411,0,0,0-1.411-1.411h-29.729a1.411,1.411,0,0,0-1.362,1.042l-5.2,19.178a1.414,1.414,0,0,0,.549,1.523,1.468,1.468,0,0,0,.84.257l8.115.079a29.009,29.009,0,0,0-10.875,22.645v6.627h-1.2V284.027a1.411,1.411,0,0,0-1.411-1.411h0A1.411,1.411,0,0,0,1608.677,284.027Zm19.03-20.428-10.441-.1,4.436-16.375h27.238v13.756a29.035,29.035,0,0,0-21.233,2.721Zm14.035,46.682A21.257,21.257,0,1,1,1663,289.025,21.281,21.281,0,0,1,1641.743,310.282Zm24.036-22.667a24.078,24.078,0,1,0-47.186,8.039h-3.076v-6.627a26.228,26.228,0,0,1,52.417-1.411Z" fill="#00223d"/>
    <path id="Trazado_26092" data-name="Trazado 26092" d="M1596.473,326.09a8.494,8.494,0,1,0,8.494,8.494A8.5,8.5,0,0,0,1596.473,326.09Zm0,14.166a5.672,5.672,0,1,1,5.672-5.672A5.678,5.678,0,0,1,1596.473,340.256Z" transform="translate(-4.641 -37.52)" fill="#00223d"/>
    <path id="Trazado_26093" data-name="Trazado 26093" d="M1585.455,293.4a1.411,1.411,0,0,0-1.411,1.41V304.6a1.411,1.411,0,0,0,1.411,1.41,6.3,6.3,0,0,0,0-12.61Zm1.41,9.49v-6.369a3.483,3.483,0,0,1,0,6.369Z" transform="translate(-3.142 -25.069)" fill="#00223d"/>
    <path id="Trazado_26094" data-name="Trazado 26094" d="M1614.943,291.959h-6.406a1.411,1.411,0,1,0,0,2.822h6.406a1.411,1.411,0,1,0,0-2.822Z" transform="translate(-11.933 -24.521)" fill="#00223d"/>
    <path id="Trazado_26095" data-name="Trazado 26095" d="M1614.943,299.146h-6.406a1.411,1.411,0,1,0,0,2.822h6.406a1.411,1.411,0,1,0,0-2.822Z" transform="translate(-11.933 -27.258)" fill="#00223d"/>
    <path id="Trazado_26096" data-name="Trazado 26096" d="M1614.943,306.333h-6.406a1.411,1.411,0,1,0,0,2.822h6.406a1.411,1.411,0,1,0,0-2.822Z" transform="translate(-11.933 -29.995)" fill="#00223d"/>
  </g>
</svg>
