<svg xmlns="http://www.w3.org/2000/svg" width="151" height="151" viewBox="0 0 151 151">
  <g id="Grupo_17188" data-name="Grupo 17188" transform="translate(-4070 3597)">
    <g id="Grupo_17181" data-name="Grupo 17181" transform="translate(3430 -1179)">
      <rect id="Rect치ngulo_4278" data-name="Rect치ngulo 4278" width="151" height="151" transform="translate(640 -2418)" fill="none"/>
      <rect id="Rect치ngulo_4284" data-name="Rect치ngulo 4284" width="135" height="135" transform="translate(648 -2410)" fill="none"/>
    </g>
    <g id="Grupo_17185" data-name="Grupo 17185" transform="translate(3050.695 -4464.18)">
      <path id="Trazado_26662" data-name="Trazado 26662" d="M1133.938,1005.3h-92.887V885.875h61.925l30.962,30.962Z" transform="translate(0.211 1.058)" fill="#fcf05a"/>
      <path id="Trazado_26663" data-name="Trazado 26663" d="M1145.938,992.878h-92.887v-115h61.925l30.962,30.962Z" transform="translate(1.481 0.212)" fill="#fdbd40"/>
      <path id="Trazado_26664" data-name="Trazado 26664" d="M1109.051,908.837h30.962l-30.962-30.962Z" transform="translate(7.406 0.212)" fill="#f49e21"/>
      <g id="Grupo_16966" data-name="Grupo 16966" transform="translate(1065.59 897.991)">
        <path id="Trazado_26665" data-name="Trazado 26665" d="M1069.686,966.3h-4.423a2.212,2.212,0,1,1,0-4.423h4.423a2.212,2.212,0,1,1,0,4.423Z" transform="translate(-1063.051 -888.892)" fill="#e9686a"/>
        <path id="Trazado_26666" data-name="Trazado 26666" d="M1130.341,966.3h-53.078a2.212,2.212,0,1,1,0-4.423h53.078a2.212,2.212,0,1,1,0,4.423Z" transform="translate(-1061.781 -888.892)" fill="#e9686a"/>
        <path id="Trazado_26667" data-name="Trazado 26667" d="M1069.686,954.3h-4.423a2.212,2.212,0,1,1,0-4.423h4.423a2.212,2.212,0,1,1,0,4.423Z" transform="translate(-1063.051 -890.162)" fill="#e9686a"/>
        <path id="Trazado_26668" data-name="Trazado 26668" d="M1130.341,954.3h-53.078a2.212,2.212,0,1,1,0-4.423h53.078a2.212,2.212,0,1,1,0,4.423Z" transform="translate(-1061.781 -890.162)" fill="#e9686a"/>
        <path id="Trazado_26669" data-name="Trazado 26669" d="M1069.686,942.3h-4.423a2.212,2.212,0,1,1,0-4.423h4.423a2.212,2.212,0,1,1,0,4.423Z" transform="translate(-1063.051 -891.432)" fill="#e9686a"/>
        <path id="Trazado_26670" data-name="Trazado 26670" d="M1130.341,942.3h-53.078a2.212,2.212,0,1,1,0-4.423h53.078a2.212,2.212,0,1,1,0,4.423Z" transform="translate(-1061.781 -891.432)" fill="#e9686a"/>
        <path id="Trazado_26671" data-name="Trazado 26671" d="M1069.686,930.3h-4.423a2.212,2.212,0,1,1,0-4.423h4.423a2.212,2.212,0,1,1,0,4.423Z" transform="translate(-1063.051 -892.701)" fill="#e9686a"/>
        <path id="Trazado_26672" data-name="Trazado 26672" d="M1130.341,930.3h-53.078a2.212,2.212,0,1,1,0-4.423h53.078a2.212,2.212,0,1,1,0,4.423Z" transform="translate(-1061.781 -892.701)" fill="#e9686a"/>
        <path id="Trazado_26673" data-name="Trazado 26673" d="M1069.686,918.3h-4.423a2.212,2.212,0,0,1,0-4.423h4.423a2.212,2.212,0,0,1,0,4.423Z" transform="translate(-1063.051 -893.971)" fill="#e9686a"/>
        <path id="Trazado_26674" data-name="Trazado 26674" d="M1130.341,918.3h-53.078a2.212,2.212,0,1,1,0-4.423h53.078a2.212,2.212,0,0,1,0,4.423Z" transform="translate(-1061.781 -893.971)" fill="#e9686a"/>
        <path id="Trazado_26675" data-name="Trazado 26675" d="M1065.051,895.875h13.27v13.27h-13.27Z" transform="translate(-1062.839 -895.875)" fill="#e9686a"/>
      </g>
      <path id="Trazado_26676" data-name="Trazado 26676" d="M1065.263,966.3h4.423a2.212,2.212,0,1,0,0-4.423h-4.423a2.212,2.212,0,1,0,0,4.423Z" transform="translate(2.539 9.099)" fill="#00223d"/>
      <path id="Trazado_26677" data-name="Trazado 26677" d="M1130.341,961.875h-53.078a2.212,2.212,0,1,0,0,4.423h53.078a2.212,2.212,0,1,0,0-4.423Z" transform="translate(3.809 9.099)" fill="#00223d"/>
      <path id="Trazado_26678" data-name="Trazado 26678" d="M1065.263,954.3h4.423a2.212,2.212,0,1,0,0-4.423h-4.423a2.212,2.212,0,1,0,0,4.423Z" transform="translate(2.539 7.829)" fill="#00223d"/>
      <path id="Trazado_26679" data-name="Trazado 26679" d="M1130.341,949.875h-53.078a2.212,2.212,0,1,0,0,4.423h53.078a2.212,2.212,0,1,0,0-4.423Z" transform="translate(3.809 7.829)" fill="#00223d"/>
      <path id="Trazado_26680" data-name="Trazado 26680" d="M1065.263,942.3h4.423a2.212,2.212,0,1,0,0-4.423h-4.423a2.212,2.212,0,1,0,0,4.423Z" transform="translate(2.539 6.559)" fill="#00223d"/>
      <path id="Trazado_26681" data-name="Trazado 26681" d="M1130.341,937.875h-53.078a2.212,2.212,0,1,0,0,4.423h53.078a2.212,2.212,0,1,0,0-4.423Z" transform="translate(3.809 6.559)" fill="#00223d"/>
      <path id="Trazado_26682" data-name="Trazado 26682" d="M1065.263,930.3h4.423a2.212,2.212,0,1,0,0-4.423h-4.423a2.212,2.212,0,1,0,0,4.423Z" transform="translate(2.539 5.29)" fill="#00223d"/>
      <path id="Trazado_26683" data-name="Trazado 26683" d="M1130.341,925.875h-53.078a2.212,2.212,0,1,0,0,4.423h53.078a2.212,2.212,0,1,0,0-4.423Z" transform="translate(3.809 5.29)" fill="#00223d"/>
      <path id="Trazado_26684" data-name="Trazado 26684" d="M1065.263,918.3h4.423a2.212,2.212,0,0,0,0-4.423h-4.423a2.212,2.212,0,0,0,0,4.423Z" transform="translate(2.539 4.02)" fill="#00223d"/>
      <path id="Trazado_26685" data-name="Trazado 26685" d="M1075.051,916.087a2.212,2.212,0,0,0,2.212,2.212h53.078a2.212,2.212,0,0,0,0-4.423h-53.078A2.213,2.213,0,0,0,1075.051,916.087Z" transform="translate(3.809 4.02)" fill="#00223d"/>
      <path id="Trazado_26686" data-name="Trazado 26686" d="M1041.263,1008.571h92.887a2.211,2.211,0,0,0,2.211-2.212V995.3h11.058a2.211,2.211,0,0,0,2.211-2.212V909.049c0-.049-.024-.091-.029-.14a2.075,2.075,0,0,0-.113-.568c-.024-.071-.042-.14-.073-.208a2.2,2.2,0,0,0-.442-.648l-30.962-30.962a2.2,2.2,0,0,0-.648-.442c-.068-.031-.137-.049-.206-.073a2.238,2.238,0,0,0-.573-.115c-.037.006-.08-.018-.128-.018h-61.925a2.213,2.213,0,0,0-2.212,2.212v6.635h-11.058a2.212,2.212,0,0,0-2.212,2.212v119.426a2.212,2.212,0,0,0,2.212,2.212Zm100.818-101.734h-23.412V883.426ZM1056.744,880.3h57.5v28.751a2.212,2.212,0,0,0,2.212,2.211h28.751v79.618h-88.464Zm-13.27,8.846h8.846V993.09a2.212,2.212,0,0,0,2.212,2.212h77.406v8.846h-88.464Z" fill="#00223d"/>
      <path id="Trazado_26687" data-name="Trazado 26687" d="M1065.263,911.568h13.27a2.211,2.211,0,0,0,2.212-2.212v-13.27a2.212,2.212,0,0,0-2.212-2.212h-13.27a2.213,2.213,0,0,0-2.212,2.212v13.27A2.212,2.212,0,0,0,1065.263,911.568Zm2.212-13.27h8.846v8.846h-8.846Z" transform="translate(2.539 1.904)" fill="#00223d"/>
    </g>
  </g>
</svg>
