<svg xmlns="http://www.w3.org/2000/svg" width="130" height="130" viewBox="0 0 130 130">
  <g id="Grupo_17167" data-name="Grupo 17167" transform="translate(-6556 -527)">
    <rect id="Rectángulo_4289" data-name="Rectángulo 4289" width="130" height="130" transform="translate(6556 527)" fill="none"/>
    <g id="Grupo_17165" data-name="Grupo 17165" transform="translate(6728.734 1091.477)">
      <g id="Grupo_17038" data-name="Grupo 17038" transform="translate(-161.128 -547.888)">
        <path id="Trazado_26781" data-name="Trazado 26781" d="M-138.9-472.309l30.634,22.433a3.25,3.25,0,0,0,3.841,0L-73.8-472.309a6.5,6.5,0,0,0,2.659-5.245v-53.262h-70.428v53.262A6.506,6.506,0,0,0-138.9-472.309Z" transform="translate(160.201 547.069)" fill="#ffc269"/>
        <path id="Trazado_26782" data-name="Trazado 26782" d="M-69.778-530.815v53.261a6.508,6.508,0,0,1-2.661,5.246l-30.634,22.433a3.25,3.25,0,0,1-3.839,0l-3.621-2.653a3.217,3.217,0,0,0,.96-.483l30.633-22.433a6.5,6.5,0,0,0,2.661-5.244v-50.127Z" transform="translate(158.843 547.069)" fill="#ffa95f"/>
        <path id="Trazado_26783" data-name="Trazado 26783" d="M-134.766-530.816v52.876a1.083,1.083,0,0,0,.445.875l27.629,20.182a1.083,1.083,0,0,0,1.278,0l27.629-20.182a1.083,1.083,0,0,0,.445-.875v-52.876Z" transform="translate(159.903 547.069)" fill="#ffe07d"/>
        <path id="Trazado_26784" data-name="Trazado 26784" d="M-105.73-476.032A21.67,21.67,0,0,1-127.4-497.7a21.67,21.67,0,0,1,21.67-21.67A21.67,21.67,0,0,1-84.06-497.7,21.67,21.67,0,0,1-105.73-476.032Z" transform="translate(159.581 546.568)" fill="#6f6571"/>
        <path id="Trazado_26785" data-name="Trazado 26785" d="M-83.217-497.7a21.6,21.6,0,0,1-6.347,15.323,21.6,21.6,0,0,1-15.323,6.347,21.676,21.676,0,0,1-3.251-.243,21.6,21.6,0,0,0,12.072-6.1A21.6,21.6,0,0,0-89.718-497.7a21.593,21.593,0,0,0-6.347-15.323,21.587,21.587,0,0,0-12.072-6.1,21.684,21.684,0,0,1,3.251-.243,21.594,21.594,0,0,1,15.323,6.347A21.593,21.593,0,0,1-83.217-497.7Z" transform="translate(158.738 546.568)" fill="#5d5360"/>
        <path id="Trazado_26786" data-name="Trazado 26786" d="M-104.335-508.262l3,6.071a1.079,1.079,0,0,0,.816.593l6.7.973a1.084,1.084,0,0,1,.6,1.848l-4.848,4.727a1.083,1.083,0,0,0-.312.959l1.145,6.673a1.083,1.083,0,0,1-1.572,1.142l-5.994-3.151a1.08,1.08,0,0,0-1.008,0l-5.994,3.151a1.084,1.084,0,0,1-1.572-1.142l1.145-6.673a1.083,1.083,0,0,0-.312-.959l-4.848-4.727a1.083,1.083,0,0,1,.6-1.848l6.7-.973a1.083,1.083,0,0,0,.816-.593l3-6.071a1.083,1.083,0,0,1,1.943,0Z" transform="translate(159.157 546.108)" fill="#fff"/>
        <path id="Trazado_26787" data-name="Trazado 26787" d="M-154.255-544.414h94.7v6.5h-94.7Z" transform="translate(160.756 547.664)" fill="#dcd9dc"/>
        <path id="Trazado_26788" data-name="Trazado 26788" d="M-155.636-534.811h-4.335a1.084,1.084,0,0,1-1.083-1.083V-546.73a1.084,1.084,0,0,1,1.083-1.083h4.335a1.084,1.084,0,0,1,1.083,1.083v10.835A1.083,1.083,0,0,1-155.636-534.811Z" transform="translate(161.054 547.813)" fill="#f4f4f4"/>
        <path id="Trazado_26789" data-name="Trazado 26789" d="M-49.8-534.811h-4.335a1.084,1.084,0,0,1-1.083-1.083V-546.73a1.084,1.084,0,0,1,1.083-1.083H-49.8a1.084,1.084,0,0,1,1.083,1.083v10.835A1.083,1.083,0,0,1-49.8-534.811Z" transform="translate(156.422 547.813)" fill="#f4f4f4"/>
        <path id="Trazado_26790" data-name="Trazado 26790" d="M-67.917-531.411h-77.146a2.167,2.167,0,0,1-2.167-2.167v-10.836h81.48v10.836A2.168,2.168,0,0,1-67.917-531.411Z" transform="translate(160.449 547.664)" fill="#c3aff0"/>
        <path id="Trazado_26791" data-name="Trazado 26791" d="M-62.417-544.413v10.835a2.169,2.169,0,0,1-2.168,2.168h-6.5a2.168,2.168,0,0,0,2.167-2.168v-10.835Z" transform="translate(157.116 547.664)" fill="#b09df4"/>
      </g>
      <g id="Grupo_17039" data-name="Grupo 17039" transform="translate(-162.753 -549.515)">
        <path id="Trazado_26792" data-name="Trazado 26792" d="M-105.8-474.483a23.322,23.322,0,0,0,23.295-23.3,23.322,23.322,0,0,0-23.295-23.3,23.322,23.322,0,0,0-23.3,23.3A23.322,23.322,0,0,0-105.8-474.483Zm0-43.34A20.067,20.067,0,0,1-85.76-497.778,20.067,20.067,0,0,1-105.8-477.734a20.067,20.067,0,0,1-20.045-20.045A20.067,20.067,0,0,1-105.8-517.823Z" transform="translate(161.28 548.27)" fill="#00223d"/>
        <path id="Trazado_26793" data-name="Trazado 26793" d="M-113.956-493.162l-1.1,6.393a2.69,2.69,0,0,0,1.078,2.649,2.691,2.691,0,0,0,2.852.207l5.741-3.018,5.741,3.018a2.692,2.692,0,0,0,2.852-.206,2.7,2.7,0,0,0,1.078-2.65l-1.1-6.392,4.644-4.528a2.691,2.691,0,0,0,.686-2.777,2.692,2.692,0,0,0-2.187-1.844l-6.418-.932-2.871-5.817h0a2.693,2.693,0,0,0-2.43-1.51,2.692,2.692,0,0,0-2.429,1.51l-2.871,5.817-6.418.932a2.692,2.692,0,0,0-2.187,1.844,2.691,2.691,0,0,0,.686,2.777Zm4.025-6.9a2.707,2.707,0,0,0,2.04-1.482l2.511-5.087,2.51,5.087a2.709,2.709,0,0,0,2.04,1.482l5.615.816-4.063,3.961a2.708,2.708,0,0,0-.779,2.4l.959,5.591-5.021-2.64a2.712,2.712,0,0,0-2.522,0l-5.021,2.64.959-5.591a2.706,2.706,0,0,0-.779-2.4l-4.062-3.961Z" transform="translate(160.856 547.81)" fill="#00223d"/>
        <path id="Trazado_26794" data-name="Trazado 26794" d="M-54.511-549.515h-4.335a2.711,2.711,0,0,0-2.708,2.709v.542H-153v-.542a2.712,2.712,0,0,0-2.709-2.709h-4.335a2.711,2.711,0,0,0-2.708,2.709v10.835a2.711,2.711,0,0,0,2.708,2.709h4.335A2.712,2.712,0,0,0-153-535.971v-.541h3.467v2.708a3.8,3.8,0,0,0,3.791,3.792h1.626v51.637a8.156,8.156,0,0,0,3.325,6.556l30.634,22.433a4.858,4.858,0,0,0,5.761,0l30.634-22.433a8.156,8.156,0,0,0,3.325-6.556v-4.236a1.625,1.625,0,0,0-1.625-1.626,1.625,1.625,0,0,0-1.626,1.626v4.236a4.889,4.889,0,0,1-2,3.933l-30.633,22.433a1.62,1.62,0,0,1-1.921,0l-30.633-22.433a4.889,4.889,0,0,1-2-3.933v-51.637h3.251v51.251a2.718,2.718,0,0,0,1.111,2.188l27.629,20.182a2.7,2.7,0,0,0,3.2,0l27.629-20.182a2.721,2.721,0,0,0,1.111-2.188v-51.251h3.25V-490.2a1.625,1.625,0,0,0,1.626,1.626,1.625,1.625,0,0,0,1.625-1.626v-39.817H-68.6A3.8,3.8,0,0,0-64.8-533.8v-2.708h3.251v.541a2.711,2.711,0,0,0,2.708,2.709h4.335a2.712,2.712,0,0,0,2.709-2.709v-10.835A2.712,2.712,0,0,0-54.511-549.515Zm-101.742,13h-3.25v-9.752h3.25Zm3.251-3.251v-3.25h3.467v3.25Zm84.947,5.959a.542.542,0,0,1-.542.542h-59.809a1.625,1.625,0,0,0-1.626,1.625,1.625,1.625,0,0,0,1.626,1.625H-80.19v50.976l-27.087,19.787-27.088-19.787v-52.6a1.625,1.625,0,0,0-1.626-1.625h-9.752a.542.542,0,0,1-.541-.542v-9.209h78.229Zm3.25-5.959v-3.25h3.251v3.25Zm9.752,3.251H-58.3v-9.752h3.25Z" transform="translate(162.753 549.515)" fill="#00223d"/>
      </g>
    </g>
  </g>
</svg>
