<svg xmlns="http://www.w3.org/2000/svg" width="151" height="151" viewBox="0 0 151 151">
  <g id="Grupo_17189" data-name="Grupo 17189" transform="translate(-4070 3405)">
    <g id="Grupo_17182" data-name="Grupo 17182" transform="translate(3430 -987)">
      <rect id="Rect치ngulo_4278" data-name="Rect치ngulo 4278" width="151" height="151" transform="translate(640 -2418)" fill="none"/>
      <rect id="Rect치ngulo_4284" data-name="Rect치ngulo 4284" width="135" height="135" transform="translate(648 -2410)" fill="none"/>
    </g>
    <g id="Grupo_16957" data-name="Grupo 16957" transform="translate(3830.898 -2981.098)">
      <g id="Grupo_16955" data-name="Grupo 16955" transform="translate(262.937 -412.893)">
        <circle id="Elipse_977" data-name="Elipse 977" cx="8.551" cy="8.551" r="8.551" transform="translate(85.512)" fill="#ff826e"/>
        <circle id="Elipse_978" data-name="Elipse 978" cx="8.551" cy="8.551" r="8.551" transform="translate(42.756 38.48)" fill="#ff826e"/>
        <circle id="Elipse_979" data-name="Elipse 979" cx="8.551" cy="8.551" r="8.551" transform="translate(0 76.961)" fill="#ff826e"/>
      </g>
      <path id="Trazado_26612" data-name="Trazado 26612" d="M367.753-335.867v12.827l-5.322,1.367a30.835,30.835,0,0,1-2.951,7.141l2.8,4.725-9.086,9.064-4.725-2.779a30.791,30.791,0,0,1-7.139,2.949l-1.368,5.323H327.135l-1.369-5.323a30.791,30.791,0,0,1-7.139-2.949l-4.725,2.779-9.086-9.064,2.8-4.725a30.835,30.835,0,0,1-2.951-7.141l-5.322-1.367v-12.827l5.322-1.369a33.084,33.084,0,0,1,1.861-5.044h9.919a21.219,21.219,0,0,0-4.276,12.826,21.386,21.386,0,0,0,21.379,21.379,21.386,21.386,0,0,0,21.378-21.379,21.385,21.385,0,0,0-21.378-21.378A21.464,21.464,0,0,0,325-349.058v-14.6h14.964l1.368,5.323a30.84,30.84,0,0,1,7.139,2.951l4.725-2.8,9.086,9.086-2.8,4.725a30.849,30.849,0,0,1,2.951,7.139Z" transform="translate(10.624 10.624)" fill="#ffc729"/>
      <path id="Trazado_26613" data-name="Trazado 26613" d="M331.352-353.03a21.386,21.386,0,0,1,21.378,21.378,21.386,21.386,0,0,1-21.378,21.379,21.386,21.386,0,0,1-21.379-21.379,21.219,21.219,0,0,1,4.276-12.826h4.276a4.289,4.289,0,0,0,4.276-4.276v-2.5A21.465,21.465,0,0,1,331.352-353.03Zm8.55,21.378a8.548,8.548,0,0,0-8.55-8.55,8.548,8.548,0,0,0-8.551,8.55,8.549,8.549,0,0,0,8.551,8.551A8.549,8.549,0,0,0,339.9-331.652Z" transform="translate(12.822 12.822)" fill="#fcd770"/>
      <path id="Trazado_26614" data-name="Trazado 26614" d="M363.357-394.811v17.1a4.288,4.288,0,0,1-4.274,4.276h-34.2a4.288,4.288,0,0,1-4.276-4.276v-17.1a4.288,4.288,0,0,1,4.276-4.276h34.2A4.287,4.287,0,0,1,363.357-394.811Z" transform="translate(15.021 3.297)" fill="#e6e9ed"/>
      <path id="Trazado_26615" data-name="Trazado 26615" d="M327.929-362.926v17.1a4.289,4.289,0,0,1-4.276,4.276h-34.2a4.288,4.288,0,0,1-4.276-4.276v-17.1a4.287,4.287,0,0,1,4.276-4.274h34.2A4.288,4.288,0,0,1,327.929-362.926Z" transform="translate(7.693 9.892)" fill="#e6e9ed"/>
      <path id="Trazado_26616" data-name="Trazado 26616" d="M249.744-313.937v-17.1a4.289,4.289,0,0,1,4.276-4.276h34.2a4.289,4.289,0,0,1,4.276,4.276v17.1a4.289,4.289,0,0,1-4.276,4.276h-34.2A4.289,4.289,0,0,1,249.744-313.937Z" transform="translate(0.366 16.486)" fill="#e6e9ed"/>
      <path id="Trazado_26617" data-name="Trazado 26617" d="M339.9-397.928a6.423,6.423,0,0,0-6.414,6.414v17.1A6.422,6.422,0,0,0,339.9-368h34.2a6.421,6.421,0,0,0,6.413-6.413v-17.1a6.422,6.422,0,0,0-6.413-6.414H365.5a10.574,10.574,0,0,0,2.193-6.413A10.7,10.7,0,0,0,357-415.03a10.709,10.709,0,0,0-10.473,8.55H322.8a10.7,10.7,0,0,0-10.689,10.69v19.455A10.723,10.723,0,0,0,303.771-368H280.039a10.7,10.7,0,0,0-10.689,10.69v19.455A10.71,10.71,0,0,0,260.8-327.38a10.58,10.58,0,0,0,2.194,6.413h-8.607a6.421,6.421,0,0,0-6.413,6.413v17.1a6.421,6.421,0,0,0,6.413,6.413h34.2A6.421,6.421,0,0,0,295-297.451v-17.1a6.421,6.421,0,0,0-6.413-6.413h-8.607a10.58,10.58,0,0,0,2.194-6.413,10.71,10.71,0,0,0-8.551-10.474v-19.455a6.422,6.422,0,0,1,6.413-6.414h23.732a10.607,10.607,0,0,0,1.976,4.276h-8.6a6.42,6.42,0,0,0-6.413,6.413v17.1a6.42,6.42,0,0,0,6.413,6.413h16.846c-.135.379-.278.753-.4,1.138l-5.759,1.481v16.142l5.759,1.48a31.984,31.984,0,0,0,2.2,5.328l-3.025,5.111,11.416,11.417,5.111-3.023a31.9,31.9,0,0,0,5.329,2.2l1.478,5.758h16.144l1.478-5.758a32.153,32.153,0,0,0,5.329-2.2l5.111,3.023,11.416-11.417-3.026-5.111a31.976,31.976,0,0,0,2.2-5.328l5.759-1.481V-326.9l-5.759-1.478a31.977,31.977,0,0,0-2.2-5.328l3.026-5.111-11.416-11.416-5.111,3.025a31.834,31.834,0,0,0-5.329-2.2l-1.478-5.759H337.366a6.4,6.4,0,0,0-6.02-4.276H322.74a10.578,10.578,0,0,0,2.194-6.413,10.711,10.711,0,0,0-8.551-10.474V-395.79A6.422,6.422,0,0,1,322.8-402.2h23.732a10.6,10.6,0,0,0,1.976,4.276Zm-49.169,83.374v17.1a2.14,2.14,0,0,1-2.138,2.137h-34.2a2.139,2.139,0,0,1-2.137-2.137v-17.1a2.139,2.139,0,0,1,2.137-2.137h34.2A2.14,2.14,0,0,1,290.729-314.554ZM277.9-327.38a6.421,6.421,0,0,1-6.413,6.413,6.422,6.422,0,0,1-6.414-6.413,6.423,6.423,0,0,1,6.414-6.414A6.422,6.422,0,0,1,277.9-327.38ZM350.2-345.958l1.2.322a27.657,27.657,0,0,1,6.623,2.737l1.081.624,4.381-2.593,6.726,6.726-2.591,4.384.624,1.083a27.474,27.474,0,0,1,2.737,6.621l.325,1.2,4.936,1.266v9.511l-4.936,1.267-.325,1.2a27.6,27.6,0,0,1-2.737,6.62l-.624,1.081,2.591,4.386-6.726,6.723-4.381-2.591-1.081.624a27.5,27.5,0,0,1-6.621,2.736l-1.206.323-1.268,4.938h-9.509l-1.268-4.938-1.206-.323a27.594,27.594,0,0,1-6.621-2.736l-1.081-.624-4.381,2.591-6.726-6.723,2.591-4.386-.624-1.081a27.541,27.541,0,0,1-2.737-6.62l-.325-1.2-4.936-1.265v-9.511l4.936-1.268.325-1.2a27.747,27.747,0,0,1,1.208-3.461h4.652a23.315,23.315,0,0,0-2.569,10.686,23.544,23.544,0,0,0,23.516,23.516,23.543,23.543,0,0,0,23.515-23.516,23.543,23.543,0,0,0-23.515-23.515,23.474,23.474,0,0,0-6.414.91V-350.9h11.168ZM337.76-335.932v-1.022a19.149,19.149,0,0,1,6.414-1.116,19.263,19.263,0,0,1,19.239,19.24,19.262,19.262,0,0,1-19.239,19.24,19.262,19.262,0,0,1-19.24-19.24,19.061,19.061,0,0,1,3.255-10.689h3.158A6.42,6.42,0,0,0,337.76-335.932Zm-4.276-17.1v17.1a2.139,2.139,0,0,1-2.137,2.137h-34.2A2.14,2.14,0,0,1,295-335.932v-17.1a2.142,2.142,0,0,1,2.138-2.137h34.2A2.14,2.14,0,0,1,333.484-353.035Zm-12.826-12.826a6.421,6.421,0,0,1-6.414,6.413,6.42,6.42,0,0,1-6.413-6.413,6.422,6.422,0,0,1,6.413-6.414A6.423,6.423,0,0,1,320.658-365.861Zm55.582-25.653v17.1a2.141,2.141,0,0,1-2.137,2.137H339.9a2.142,2.142,0,0,1-2.138-2.137v-17.1a2.142,2.142,0,0,1,2.138-2.138h34.2A2.141,2.141,0,0,1,376.24-391.514Zm-25.653-12.827A6.42,6.42,0,0,1,357-410.754a6.42,6.42,0,0,1,6.413,6.413A6.421,6.421,0,0,1,357-397.928,6.421,6.421,0,0,1,350.587-404.341Z" transform="translate(0 0)" fill="#00223d"/>
      <g id="Grupo_16956" data-name="Grupo 16956" transform="translate(256.525 -389.377)">
        <path id="Trazado_26618" data-name="Trazado 26618" d="M325.916-393.773h29.929v4.276H325.916Z" transform="translate(-240.405 393.773)" fill="#00223d"/>
        <path id="Trazado_26619" data-name="Trazado 26619" d="M325.916-386.687h29.929v4.276H325.916Z" transform="translate(-240.405 395.238)" fill="#00223d"/>
        <path id="Trazado_26620" data-name="Trazado 26620" d="M290.487-361.887h29.929v4.276H290.487Z" transform="translate(-247.732 400.367)" fill="#00223d"/>
        <path id="Trazado_26621" data-name="Trazado 26621" d="M290.487-354.8h29.929v4.275H290.487Z" transform="translate(-247.732 401.833)" fill="#00223d"/>
        <path id="Trazado_26622" data-name="Trazado 26622" d="M255.059-330h29.929v4.276H255.059Z" transform="translate(-255.059 406.962)" fill="#00223d"/>
        <path id="Trazado_26623" data-name="Trazado 26623" d="M255.059-322.916h29.929v4.276H255.059Z" transform="translate(-255.059 408.427)" fill="#00223d"/>
        <path id="Trazado_26624" data-name="Trazado 26624" d="M329.52-322.794a10.7,10.7,0,0,0,10.689-10.69,10.7,10.7,0,0,0-10.689-10.689,10.7,10.7,0,0,0-10.69,10.689A10.7,10.7,0,0,0,329.52-322.794Zm0-17.1a6.421,6.421,0,0,1,6.413,6.413,6.422,6.422,0,0,1-6.413,6.414,6.423,6.423,0,0,1-6.414-6.414A6.422,6.422,0,0,1,329.52-339.9Z" transform="translate(-241.87 404.031)" fill="#00223d"/>
      </g>
    </g>
  </g>
</svg>
