<svg xmlns="http://www.w3.org/2000/svg" width="117" height="117" viewBox="0 0 117 117">
  <g id="Grupo_17021" data-name="Grupo 17021" transform="translate(214.933 405.17)">
    <path id="Trazado_26761" data-name="Trazado 26761" d="M-95.154-390.413h-12.34v-12.341l-14.626,14.626v12.341h12.341Z" transform="translate(-5.064 -0.132)" fill="#78d2fa"/>
    <circle id="Elipse_985" data-name="Elipse 985" cx="41.512" cy="41.512" r="41.512" transform="translate(-197.654 -388.178)" fill="#ff8c8c"/>
    <path id="Trazado_26762" data-name="Trazado 26762" d="M-128.062-344.823a26.529,26.529,0,0,0-26.529-26.528,26.445,26.445,0,0,0-18.758,7.77,26.446,26.446,0,0,0-7.771,18.759,26.529,26.529,0,0,0,26.529,26.528A26.529,26.529,0,0,0-128.062-344.823Z" transform="translate(-1.845 -1.845)" fill="#fff"/>
    <circle id="Elipse_986" data-name="Elipse 986" cx="13.197" cy="13.197" r="13.197" transform="translate(-169.633 -359.866)" fill="#ff5a5a"/>
    <g id="Grupo_17019" data-name="Grupo 17019" transform="translate(-212.648 -402.885)">
      <circle id="Elipse_987" data-name="Elipse 987" cx="14.854" cy="14.854" r="14.854" transform="translate(41.425)" fill="#f5c86e"/>
      <circle id="Elipse_988" data-name="Elipse 988" cx="14.854" cy="14.854" r="14.854" transform="translate(0 41.363)" fill="#f5c86e"/>
      <circle id="Elipse_989" data-name="Elipse 989" cx="14.854" cy="14.854" r="14.854" transform="translate(41.359 82.722)" fill="#f5c86e"/>
      <circle id="Elipse_990" data-name="Elipse 990" cx="14.854" cy="14.854" r="14.854" transform="translate(82.722 41.37)" fill="#f5c86e"/>
    </g>
    <path id="Trazado_26763" data-name="Trazado 26763" d="M-171.188-299.54Z" transform="translate(-2.387 -5.764)"/>
    <path id="Trazado_26764" data-name="Trazado 26764" d="M-115.07-363.8h0c-.394,0-.785.018-1.172.044a43.665,43.665,0,0,0-5.842-9.877h7.243a2.286,2.286,0,0,0,1.616-.669L-98.6-388.929a2.285,2.285,0,0,0,.5-2.49,2.286,2.286,0,0,0-2.111-1.411h-10.056v-10.055A2.285,2.285,0,0,0-111.685-405a2.285,2.285,0,0,0-2.49.494L-128.8-389.876a2.286,2.286,0,0,0-.669,1.616v7.243a43.649,43.649,0,0,0-9.805-5.81c.027-.39.046-.782.046-1.176a17.157,17.157,0,0,0-17.11-17.167h-.029a17.159,17.159,0,0,0-17.139,17.111c0,.394.017.786.043,1.175a43.676,43.676,0,0,0-6.2,3.233,2.285,2.285,0,0,0-.718,3.151,2.284,2.284,0,0,0,1.936,1.068,2.277,2.277,0,0,0,1.215-.351,39.052,39.052,0,0,1,4.7-2.521,17.089,17.089,0,0,0,4.024,6.372A17.318,17.318,0,0,0-166-373.847a28.952,28.952,0,0,0-17.6,17.566,17.387,17.387,0,0,0-2.08-2.511,17.085,17.085,0,0,0-6.368-4.032,38.971,38.971,0,0,1,2-3.82,2.285,2.285,0,0,0-.794-3.132,2.285,2.285,0,0,0-3.133.793,43.668,43.668,0,0,0-2.649,5.219c-.388-.027-.776-.044-1.168-.044h-.007a17.16,17.16,0,0,0-17.133,17.146,17.159,17.159,0,0,0,17.139,17.133h.007c.39,0,.778-.018,1.165-.044a43.7,43.7,0,0,0,23.091,23.092c-.026.39-.044.782-.044,1.176a17.024,17.024,0,0,0,5.025,12.118,17.022,17.022,0,0,0,12.115,5.016h.007A17.161,17.161,0,0,0-139.3-305.317c0-.391-.018-.779-.044-1.164a43.708,43.708,0,0,0,23.088-23.087c.39.026.781.044,1.176.044h0a17.159,17.159,0,0,0,17.139-17.136A17.159,17.159,0,0,0-115.07-363.8Zm-14.195,7.545a28.831,28.831,0,0,0-5.257-9.093l7.3-7.3a39.1,39.1,0,0,1,6.4,9.844A17.225,17.225,0,0,0-129.265-356.257Zm13.474-21.947h-5.877l2.743-2.743h5.877Zm7.313-7.313h-5.877l2.743-2.743h5.876Zm-6.367-5.974-2.742,2.743v-5.877l2.742-2.743Zm-7.313,1.436v5.877l-2.742,2.742v-5.876Zm-8.294,14.171-7.3,7.3a28.824,28.824,0,0,0-9.039-5.235,17.267,17.267,0,0,0,2.524-2.074,17.074,17.074,0,0,0,4.045-6.359A39.1,39.1,0,0,1-130.452-375.884Zm-38.275-9.856c0-.028-.01-.058-.015-.086a12.693,12.693,0,0,1-.2-2.226A12.583,12.583,0,0,1-156.369-400.6h.021A12.583,12.583,0,0,1-143.8-388.01a12.72,12.72,0,0,1-.2,2.22c-.007.031-.012.063-.017.095a12.474,12.474,0,0,1-3.478,6.567,12.485,12.485,0,0,1-8.872,3.666h-.021a12.484,12.484,0,0,1-8.881-3.7A12.474,12.474,0,0,1-168.727-385.74ZM-197.789-334.1h0a12.584,12.584,0,0,1-12.569-12.565A12.584,12.584,0,0,1-197.8-359.237h0a12.807,12.807,0,0,1,2.187.192c.034.008.068.013.1.018a12.469,12.469,0,0,1,6.594,3.469,12.489,12.489,0,0,1,3.685,8.886,12.489,12.489,0,0,1-3.679,8.889,12.483,12.483,0,0,1-6.584,3.472l-.087.014A12.747,12.747,0,0,1-197.789-334.1Zm5.745,3.586a17.083,17.083,0,0,0,6.374-4.04,17.329,17.329,0,0,0,2.069-2.507,28.953,28.953,0,0,0,17.555,17.554,17.352,17.352,0,0,0-2.514,2.081,17.084,17.084,0,0,0-4.031,6.367A39.142,39.142,0,0,1-192.044-330.513Zm35.613,37.771h0a12.485,12.485,0,0,1-8.884-3.678A12.485,12.485,0,0,1-169-305.305h0a12.682,12.682,0,0,1,.2-2.225c.006-.029.01-.058.015-.087a12.471,12.471,0,0,1,3.465-6.577,12.49,12.49,0,0,1,8.886-3.685h0a12.584,12.584,0,0,1,12.569,12.565A12.582,12.582,0,0,1-156.431-292.742Zm16.143-18.314a17.216,17.216,0,0,0-6.543-8.44q1.218-.431,2.4-.973A2.286,2.286,0,0,0-143.3-323.5a2.286,2.286,0,0,0-3.03-1.123,24.035,24.035,0,0,1-10.1,2.2,24.271,24.271,0,0,1-24.244-24.244,24.271,24.271,0,0,1,24.244-24.243,24.128,24.128,0,0,1,15.443,5.569l-6.2,6.2a15.455,15.455,0,0,0-9.175-3.007,15.562,15.562,0,0,0-15.545,15.545,15.563,15.563,0,0,0,15.545,15.545,15.563,15.563,0,0,0,15.545-15.545,15.462,15.462,0,0,0-3.117-9.327l6.178-6.178a24.134,24.134,0,0,1,5.569,15.443,24.069,24.069,0,0,1-2.01,9.682,2.285,2.285,0,0,0,1.181,3.008,2.285,2.285,0,0,0,3.008-1.181c.272-.624.519-1.255.745-1.892a17.3,17.3,0,0,0,2.074,2.505,17.075,17.075,0,0,0,6.365,4.035A39.134,39.134,0,0,1-140.288-311.056Zm-5.105-35.55a10.987,10.987,0,0,1-10.975,10.975,10.987,10.987,0,0,1-10.975-10.975,10.987,10.987,0,0,1,10.975-10.974,10.9,10.9,0,0,1,5.89,1.722l-6.771,6.771a2.286,2.286,0,0,0,0,3.232,2.279,2.279,0,0,0,1.616.669,2.277,2.277,0,0,0,1.616-.669l6.8-6.8A10.906,10.906,0,0,1-145.393-346.606Zm39.206,8.833a12.479,12.479,0,0,1-8.885,3.68h0a12.653,12.653,0,0,1-2.223-.2c-.03-.006-.061-.011-.09-.015a12.476,12.476,0,0,1-6.574-3.469,12.487,12.487,0,0,1-3.681-8.888,12.583,12.583,0,0,1,12.569-12.567h0A12.582,12.582,0,0,1-102.5-346.66,12.481,12.481,0,0,1-106.187-337.773Z" transform="translate(0 0)" fill="#00223d"/>
    <g id="Grupo_17020" data-name="Grupo 17020" transform="translate(-204.407 -394.638)">
      <path id="Trazado_26765" data-name="Trazado 26765" d="M-184.131-372.078a2.305,2.305,0,0,0,1.616-.67,2.3,2.3,0,0,0,.669-1.615,2.3,2.3,0,0,0-.669-1.616,2.3,2.3,0,0,0-1.616-.669,2.3,2.3,0,0,0-1.616.669,2.3,2.3,0,0,0-.669,1.616,2.3,2.3,0,0,0,.669,1.615A2.3,2.3,0,0,0-184.131-372.078Z" transform="translate(202.851 393.082)" fill="#00223d"/>
      <path id="Trazado_26766" data-name="Trazado 26766" d="M-133.352-325.867a2.3,2.3,0,0,0-1.615.669,2.3,2.3,0,0,0-.67,1.616,2.3,2.3,0,0,0,.67,1.616,2.3,2.3,0,0,0,1.615.669,2.3,2.3,0,0,0,1.616-.669,2.3,2.3,0,0,0,.669-1.616,2.29,2.29,0,0,0-.669-1.616A2.3,2.3,0,0,0-133.352-325.867Z" transform="translate(200.081 390.311)" fill="#00223d"/>
      <path id="Trazado_26767" data-name="Trazado 26767" d="M-159.8-389.46a2.309,2.309,0,0,0,1.618-.669,2.3,2.3,0,0,0,.667-1.616,2.307,2.307,0,0,0-.667-1.618,2.3,2.3,0,0,0-1.618-.667,2.3,2.3,0,0,0-1.616.667,2.308,2.308,0,0,0-.667,1.618,2.3,2.3,0,0,0,.667,1.616A2.3,2.3,0,0,0-159.8-389.46Z" transform="translate(201.524 394.03)" fill="#00223d"/>
      <path id="Trazado_26768" data-name="Trazado 26768" d="M-146.585-389.46a2.3,2.3,0,0,0,1.615-.669,2.3,2.3,0,0,0,.67-1.616,2.306,2.306,0,0,0-.67-1.618,2.3,2.3,0,0,0-1.615-.667,2.3,2.3,0,0,0-1.616.667,2.306,2.306,0,0,0-.67,1.618,2.3,2.3,0,0,0,.67,1.616A2.3,2.3,0,0,0-146.585-389.46Z" transform="translate(200.803 394.03)" fill="#00223d"/>
      <path id="Trazado_26769" data-name="Trazado 26769" d="M-158.447-385.9a2.285,2.285,0,0,0-1.618,2.8,6.86,6.86,0,0,0,6.618,5.085,6.861,6.861,0,0,0,6.619-5.085,2.286,2.286,0,0,0-1.618-2.8,2.285,2.285,0,0,0-2.8,1.618,2.286,2.286,0,0,1-2.2,1.7,2.284,2.284,0,0,1-2.2-1.7A2.285,2.285,0,0,0-158.447-385.9Z" transform="translate(201.418 393.59)" fill="#00223d"/>
      <path id="Trazado_26770" data-name="Trazado 26770" d="M-104.87-352.315a2.3,2.3,0,0,0-1.616.669,2.3,2.3,0,0,0-.669,1.616,2.3,2.3,0,0,0,.669,1.616,2.3,2.3,0,0,0,1.616.669,2.3,2.3,0,0,0,1.615-.669,2.294,2.294,0,0,0,.67-1.616,2.294,2.294,0,0,0-.67-1.616A2.294,2.294,0,0,0-104.87-352.315Z" transform="translate(198.527 391.754)" fill="#00223d"/>
      <path id="Trazado_26771" data-name="Trazado 26771" d="M-104.87-339.1a2.3,2.3,0,0,0-1.616.669,2.305,2.305,0,0,0-.669,1.618,2.3,2.3,0,0,0,.669,1.616,2.3,2.3,0,0,0,1.616.667,2.287,2.287,0,0,0,1.615-.667,2.292,2.292,0,0,0,.67-1.616,2.3,2.3,0,0,0-.67-1.618A2.294,2.294,0,0,0-104.87-339.1Z" transform="translate(198.527 391.033)" fill="#00223d"/>
      <path id="Trazado_26772" data-name="Trazado 26772" d="M-112.532-341.475a2.286,2.286,0,0,1-1.694-2.2,2.285,2.285,0,0,1,1.693-2.2,2.285,2.285,0,0,0,1.619-2.8,2.284,2.284,0,0,0-2.8-1.618,6.86,6.86,0,0,0-5.086,6.618,6.861,6.861,0,0,0,5.086,6.619,2.282,2.282,0,0,0,.591.077,2.287,2.287,0,0,0,2.207-1.7A2.285,2.285,0,0,0-112.532-341.475Z" transform="translate(199.162 391.648)" fill="#00223d"/>
      <path id="Trazado_26773" data-name="Trazado 26773" d="M-146.585-297.386a2.3,2.3,0,0,0-1.616.67,2.3,2.3,0,0,0-.67,1.615,2.3,2.3,0,0,0,.67,1.616,2.3,2.3,0,0,0,1.616.669,2.3,2.3,0,0,0,1.615-.669,2.3,2.3,0,0,0,.67-1.616,2.3,2.3,0,0,0-.67-1.615A2.3,2.3,0,0,0-146.585-297.386Z" transform="translate(200.803 388.757)" fill="#00223d"/>
      <path id="Trazado_26774" data-name="Trazado 26774" d="M-159.8-297.386a2.3,2.3,0,0,0-1.616.67,2.3,2.3,0,0,0-.667,1.615,2.3,2.3,0,0,0,.667,1.616,2.3,2.3,0,0,0,1.616.669,2.309,2.309,0,0,0,1.618-.669,2.3,2.3,0,0,0,.667-1.616,2.292,2.292,0,0,0-.667-1.615A2.306,2.306,0,0,0-159.8-297.386Z" transform="translate(201.524 388.757)" fill="#00223d"/>
      <path id="Trazado_26775" data-name="Trazado 26775" d="M-148.445-301.146a2.285,2.285,0,0,0,1.618-2.8,6.861,6.861,0,0,0-6.619-5.086,6.862,6.862,0,0,0-6.619,5.086,2.286,2.286,0,0,0,1.618,2.8,2.285,2.285,0,0,0,2.8-1.618,2.285,2.285,0,0,1,2.2-1.694,2.285,2.285,0,0,1,2.2,1.694,2.287,2.287,0,0,0,2.207,1.7A2.293,2.293,0,0,0-148.445-301.146Z" transform="translate(201.418 389.392)" fill="#00223d"/>
      <path id="Trazado_26776" data-name="Trazado 26776" d="M-201.515-339.1a2.3,2.3,0,0,0-1.616.668,2.3,2.3,0,0,0-.669,1.616,2.309,2.309,0,0,0,.669,1.618,2.305,2.305,0,0,0,1.616.669,2.3,2.3,0,0,0,1.616-.669,2.3,2.3,0,0,0,.669-1.618,2.3,2.3,0,0,0-.669-1.616A2.3,2.3,0,0,0-201.515-339.1Z" transform="translate(203.8 391.033)" fill="#00223d"/>
      <path id="Trazado_26777" data-name="Trazado 26777" d="M-201.515-352.315a2.3,2.3,0,0,0-1.616.669,2.305,2.305,0,0,0-.669,1.616,2.305,2.305,0,0,0,.669,1.616,2.305,2.305,0,0,0,1.616.669,2.3,2.3,0,0,0,1.616-.669,2.293,2.293,0,0,0,.669-1.616,2.293,2.293,0,0,0-.669-1.616A2.3,2.3,0,0,0-201.515-352.315Z" transform="translate(203.8 391.754)" fill="#00223d"/>
      <path id="Trazado_26778" data-name="Trazado 26778" d="M-193.459-336.981a2.283,2.283,0,0,0,.591-.078,6.861,6.861,0,0,0,5.085-6.618,6.861,6.861,0,0,0-5.085-6.619,2.285,2.285,0,0,0-2.8,1.619,2.285,2.285,0,0,0,1.619,2.8,2.285,2.285,0,0,1,1.693,2.2,2.285,2.285,0,0,1-1.694,2.2,2.285,2.285,0,0,0-1.618,2.8A2.287,2.287,0,0,0-193.459-336.981Z" transform="translate(203.36 391.648)" fill="#00223d"/>
    </g>
  </g>
</svg>
