<svg xmlns="http://www.w3.org/2000/svg" width="130" height="130" viewBox="0 0 130 130">
  <g id="Grupo_17168" data-name="Grupo 17168" transform="translate(-6556 -732)">
    <rect id="Rectángulo_4290" data-name="Rectángulo 4290" width="130" height="130" transform="translate(6556 732)" fill="none"/>
    <g id="Grupo_17166" data-name="Grupo 17166" transform="translate(6600.977 1293.146)">
      <path id="Trazado_26795" data-name="Trazado 26795" d="M-11.647-459.662l-.053-.091q-.153-.263-.291-.532l-.03-.057a10.707,10.707,0,0,1-.54-1.276l-.009-.027a10.6,10.6,0,0,1-.585-3.461v-67.128a4.609,4.609,0,0,1,4.609-4.609H39.723v-2.743a6.818,6.818,0,0,0-6.818-6.818H-16.269a6.817,6.817,0,0,0-6.817,6.818v74.239a6.817,6.817,0,0,0,6.817,6.818h5.4l-.031-.04A10.664,10.664,0,0,1-11.647-459.662Z" transform="translate(0.177 0.176)" fill="#fab05f"/>
      <g id="Grupo_17041" data-name="Grupo 17041" transform="translate(-12.977 -536.668)">
        <path id="Trazado_26796" data-name="Trazado 26796" d="M-.911-456.219c-.186-.086-.369-.181-.552-.278C-1.28-456.4-1.1-456.305-.911-456.219Z" transform="translate(15.215 545.413)" fill="#ffe07d"/>
        <path id="Trazado_26797" data-name="Trazado 26797" d="M-2.637-457.241q-.2-.15-.4-.31Q-2.84-457.39-2.637-457.241Z" transform="translate(15.065 545.313)" fill="#ffe07d"/>
        <path id="Trazado_26798" data-name="Trazado 26798" d="M-11-465.156c-.158-.151-.309-.309-.455-.468C-11.31-465.465-11.159-465.307-11-465.156Z" transform="translate(14.262 544.543)" fill="#ffe07d"/>
        <path id="Trazado_26799" data-name="Trazado 26799" d="M-2.045-456.833c-.177-.114-.353-.232-.524-.357C-2.4-457.065-2.223-456.947-2.045-456.833Z" transform="translate(15.109 545.347)" fill="#ffe07d"/>
        <path id="Trazado_26800" data-name="Trazado 26800" d="M-11.54-465.715c-.112-.126-.219-.253-.324-.383C-11.759-465.968-11.652-465.841-11.54-465.715Z" transform="translate(14.223 544.498)" fill="#ffe07d"/>
        <path id="Trazado_26801" data-name="Trazado 26801" d="M-11.041-465.2l8.161,7.838c.153.147.312.287.473.424-.161-.137-.319-.277-.473-.424Z" transform="translate(14.302 544.584)" fill="#ffe07d"/>
        <path id="Trazado_26802" data-name="Trazado 26802" d="M-1.543-456.539q-.237-.133-.468-.275Q-1.779-456.673-1.543-456.539Z" transform="translate(15.162 545.383)" fill="#ffe07d"/>
        <path id="Trazado_26803" data-name="Trazado 26803" d="M.228-455.785q-.266-.085-.528-.184C-.126-455.9.05-455.842.228-455.785Z" transform="translate(15.325 545.464)" fill="#ffe07d"/>
        <path id="Trazado_26804" data-name="Trazado 26804" d="M-.346-455.983c-.2-.08-.4-.164-.6-.255C-.75-456.147-.548-456.063-.346-455.983Z" transform="translate(15.264 545.438)" fill="#ffe07d"/>
        <path id="Trazado_26805" data-name="Trazado 26805" d="M-13.476-469a10.708,10.708,0,0,0,.54,1.276A10.708,10.708,0,0,1-13.476-469Z" transform="translate(14.07 544.222)" fill="#ffe07d"/>
        <path id="Trazado_26806" data-name="Trazado 26806" d="M30.616-466.578C19.506-466.578,8.4-471.184-.3-480.4a4.522,4.522,0,0,1,0-6.046c13.551-14.351,32.956-17.521,49.094-9.513v-37.112a4.609,4.609,0,0,0-4.609-4.609H-9.409a4.608,4.608,0,0,0-4.609,4.609v67.128a10.564,10.564,0,0,0,.585,3.461q-.115-.327-.206-.663H-.986a3.26,3.26,0,0,1,3.26,3.261v12.09c-.216-.053-.427-.112-.639-.177a10.554,10.554,0,0,0,3.115.471H44.184a4.608,4.608,0,0,0,4.608-4.609v-18.777A40.818,40.818,0,0,1,30.616-466.578Z" transform="translate(14.018 537.676)" fill="#ffe07d"/>
        <path id="Trazado_26807" data-name="Trazado 26807" d="M-12.642-467.21a10.657,10.657,0,0,0,.75,1.092A10.657,10.657,0,0,1-12.642-467.21Z" transform="translate(14.149 544.392)" fill="#ffe07d"/>
        <path id="Trazado_26808" data-name="Trazado 26808" d="M-12.956-467.779c.092.18.188.357.291.532Q-12.817-467.51-12.956-467.779Z" transform="translate(14.119 544.338)" fill="#ffe07d"/>
      </g>
      <path id="Trazado_26809" data-name="Trazado 26809" d="M2.241-466.365a3.26,3.26,0,0,0-3.26-3.261H-13.672q.092.335.206.663l.009.027a10.7,10.7,0,0,0,.54,1.276l.03.057q.138.269.291.532l.053.091a10.663,10.663,0,0,0,.75,1.092c.011.013.02.027.031.041.023.03.048.057.071.085.105.13.212.257.324.383.041.046.08.091.123.136.146.16.3.317.455.468l8.161,7.838c.153.147.312.287.473.424.045.038.09.076.136.113.129.107.262.21.4.311.038.027.076.057.113.084.171.125.346.243.524.357l.089.055c.153.1.309.186.467.275l.134.072c.182.1.365.192.552.278l.012.005c.2.092.4.175.6.255l.108.041c.174.066.349.126.527.183l.1.032c.211.065.424.125.64.176v-12.09Z" transform="translate(1.074 7.494)" fill="#fab05f"/>
      <path id="Trazado_26810" data-name="Trazado 26810" d="M60.439-489.7A45.135,45.135,0,0,0,47.7-499.211c-16.137-8.008-35.542-4.838-49.093,9.513a4.522,4.522,0,0,0,0,6.046c8.7,9.212,19.808,13.817,30.917,13.817a16.839,16.839,0,0,1-16.84-16.839,16.84,16.84,0,0,1,16.84-16.84,16.839,16.839,0,0,1,16.839,16.84,16.839,16.839,0,0,1-16.839,16.839,40.821,40.821,0,0,0,18.176-4.3,45.14,45.14,0,0,0,12.741-9.514A4.524,4.524,0,0,0,60.439-489.7Z" transform="translate(2.134 4.264)" fill="#d6effb"/>
      <path id="Trazado_26811" data-name="Trazado 26811" d="M45.037-486.674A16.839,16.839,0,0,0,28.2-503.514a16.84,16.84,0,0,0-16.84,16.84A16.839,16.839,0,0,0,28.2-469.834,16.839,16.839,0,0,0,45.037-486.674ZM28.2-478.43a8.244,8.244,0,0,1-8.244-8.243,8.244,8.244,0,0,1,8.244-8.244,8.244,8.244,0,0,1,8.243,8.244A8.244,8.244,0,0,1,28.2-478.43Z" transform="translate(3.459 4.264)" fill="#00b7ec"/>
      <path id="Trazado_26812" data-name="Trazado 26812" d="M35.693-487.422a8.244,8.244,0,0,1-8.243,8.243,8.244,8.244,0,0,1-8.244-8.243,8.244,8.244,0,0,1,8.244-8.244A8.244,8.244,0,0,1,35.693-487.422Z" transform="translate(4.207 5.012)" fill="#d6effb"/>
      <path id="Trazado_26813" data-name="Trazado 26813" d="M64.047-486.826a47.489,47.489,0,0,0-12.188-9.359v-35.874a6.643,6.643,0,0,0-6.635-6.636h-3.3v-.715a8.856,8.856,0,0,0-8.846-8.846H-16.092a8.856,8.856,0,0,0-8.846,8.846v74.24a8.855,8.855,0,0,0,8.846,8.845h4.475c.176.191.334.352.492.5l0,0h0l0,0,8.16,7.835c.114.111.234.22.368.34.061.053.125.108.191.163l0,0h0c.033.027.068.054.1.079s.038.037.059.055c.153.126.311.25.469.368h0c.024.019.049.034.073.05s.039.035.062.05c.2.149.414.292.622.426l.064.034c.014.01.027.021.042.03.179.111.365.222.556.329.027.014.057.025.084.039s.049.034.076.047c.235.127.451.235.657.331l.007,0,.008.005c.227.1.461.2.717.3l.074.025c.018.007.035.015.051.023h0c.123.045.245.09.369.131.087.03.173.059.26.085.019.007.037.011.057.016s.038.015.059.021l.01,0c.261.08.507.148.751.207l.064.014a12.625,12.625,0,0,0,2.886.335H45.224A6.642,6.642,0,0,0,51.86-451.1v-17.538a47.5,47.5,0,0,0,12.188-9.36A6.516,6.516,0,0,0,64.047-486.826ZM1.287-449.8l-.038-.023-.05-.027-.021-.015c-.14-.089-.283-.186-.423-.289l-.039-.025c-.018-.014-.033-.03-.05-.042-.11-.082-.217-.167-.323-.253-.02-.018-.042-.032-.062-.047s-.03-.03-.046-.043c-.058-.049-.111-.1-.16-.139-.082-.072-.157-.14-.225-.206h0l-8.162-7.837h0c-.111-.106-.231-.23-.366-.378l-.045-.043c-.019-.023-.035-.046-.055-.069-.091-.1-.177-.2-.263-.309l-.036-.041-.044-.058h0l-.007-.008c-.115-.148-.222-.3-.327-.453H.055a1.234,1.234,0,0,1,1.232,1.233Zm46.519-1.3a2.584,2.584,0,0,1-2.582,2.581H5.791c-.15,0-.3,0-.449-.012v-10.344a5.293,5.293,0,0,0-5.287-5.288H-10.914l0-.029c-.007-.082-.012-.165-.016-.248,0-.042-.007-.083-.008-.124-.005-.124-.009-.249-.009-.371v-11.561a2.027,2.027,0,0,0-2.027-2.026A2.027,2.027,0,0,0-15-476.491v11.561c0,.162,0,.323.011.485,0,.051.005.1.008.156.005.111.012.222.021.334,0,.059.01.117.015.176.01.106.021.211.033.317.007.058.014.116.022.175.014.111.032.221.049.332.008.05.015.1.024.151q.038.225.085.45l.005.027c.034.16.071.32.112.479.011.045.024.091.036.136.021.082.043.165.067.248.007.027.016.054.024.081.022.076.046.151.07.227.019.06.034.117.055.177v.005c.014.043.03.087.044.13a.371.371,0,0,1,.012.037h0l.011.032q.041.117.085.233c.02.054.038.108.059.161h-1.939a4.8,4.8,0,0,1-4.791-4.791v-74.24a4.8,4.8,0,0,1,4.791-4.791H33.082a4.8,4.8,0,0,1,4.791,4.791v.715H-8.368A6.644,6.644,0,0,0-15-532.06v39.351a2.027,2.027,0,0,0,2.027,2.026,2.027,2.027,0,0,0,2.027-2.026v-39.35a2.584,2.584,0,0,1,2.582-2.582H45.224a2.584,2.584,0,0,1,2.582,2.582v33.97q-1.71-.7-3.469-1.248l-.2-.065c-.188-.057-.375-.114-.563-.169-.165-.048-.332-.094-.5-.141l-.5-.139c-.26-.068-.518-.135-.778-.2l-.242-.059a42.126,42.126,0,0,0-13.211-1.039l-.211.019q-.358.031-.717.067c-.135.014-.269.026-.4.042s-.292.035-.438.053c-.349.043-.7.089-1.044.139l-.11.015a42.945,42.945,0,0,0-10.65,3.036l-.154.066c-.227.1-.455.2-.68.3l-.208.1q-.982.452-1.947.957c-.131.068-.262.135-.391.2-.157.083-.312.169-.467.253s-.306.169-.457.254-.28.159-.42.24c-.195.113-.388.228-.582.344-.1.058-.194.114-.291.173-.283.172-.564.349-.844.529-.1.061-.193.125-.288.187-.2.13-.4.262-.6.4-.1.068-.2.137-.3.206q-.311.212-.617.429l-.248.174c-.286.206-.571.414-.853.628-.019.013-.036.027-.054.042q-.4.3-.788.608l-.24.192c-.2.163-.407.328-.609.494l-.249.207c-.225.186-.447.377-.668.57-.049.044-.1.085-.151.13q-.4.355-.8.721c-.061.056-.12.112-.182.169-.2.188-.407.38-.61.573-.084.081-.169.162-.252.244q-.279.271-.554.547c-.078.077-.156.154-.232.232q-.383.388-.758.783a6.513,6.513,0,0,0,0,8.829c.25.266.5.526.758.783.077.079.154.157.232.233q.274.276.554.547l.252.244q.3.289.611.574c.06.055.119.112.18.167.267.245.536.485.806.723l.149.128q.332.289.67.572c.081.069.163.137.246.2q.3.251.611.5c.08.062.158.127.238.19q.394.311.794.612l.046.036q.426.32.858.629c.08.058.16.114.24.171.208.147.415.291.624.435.1.068.2.136.3.2q.3.205.608.4l.28.183q.422.269.85.53c.092.057.186.112.278.167q.3.179.595.352c.137.08.274.157.412.234q.232.131.466.26t.458.249c.136.073.272.143.409.215q.951.5,1.923.946l.223.1q.335.151.671.3l.166.071a42.837,42.837,0,0,0,10.643,3.033l.11.016c.344.049.688.1,1.034.138.149.017.3.037.448.054l.4.041c.241.025.483.047.724.068l.206.018a42.113,42.113,0,0,0,13.224-1.043l.218-.053c.275-.068.551-.138.826-.211.14-.037.28-.077.421-.116.185-.051.371-.1.556-.158s.358-.106.536-.161c.083-.025.166-.053.25-.079q1.742-.545,3.439-1.238V-451.1ZM7.18-476.245q-.261-.205-.519-.415l-.233-.188-.456-.378c-.105-.089-.21-.18-.315-.271-.133-.113-.265-.226-.4-.341-.22-.194-.437-.389-.654-.586l-.277-.26c-.152-.141-.3-.281-.452-.425L3.6-479.37q-.24-.232-.474-.469c-.077-.076-.153-.151-.229-.229q-.347-.352-.689-.712a1.726,1.726,0,0,1-.14-.168,2.439,2.439,0,0,1-.463-1.462,2.387,2.387,0,0,1,.6-1.632q.345-.363.694-.717c.07-.071.14-.14.21-.21q.246-.246.5-.489l.256-.248c.157-.15.315-.3.473-.445.087-.081.172-.162.26-.241q.334-.306.671-.6c.12-.106.242-.209.365-.314s.226-.195.34-.29c.147-.124.295-.245.443-.367l.249-.2q.253-.205.507-.405l.079-.06a41.442,41.442,0,0,1,9.787-5.7A18.776,18.776,0,0,0,12.79-482.41a18.781,18.781,0,0,0,4.251,11.918,41.478,41.478,0,0,1-9.8-5.708C7.219-476.215,7.2-476.231,7.18-476.245ZM31.657-467.6a14.829,14.829,0,0,1-14.813-14.812,14.83,14.83,0,0,1,14.813-14.813,14.829,14.829,0,0,1,14.812,14.813A14.828,14.828,0,0,1,31.657-467.6ZM61.1-480.779a43.132,43.132,0,0,1-12.272,9.14q-1.27.626-2.56,1.152a18.781,18.781,0,0,0,4.256-11.922,18.781,18.781,0,0,0-4.256-11.924q.955.391,1.9.834l.026.013q.311.146.619.3A43.151,43.151,0,0,1,61.1-484.04,2.5,2.5,0,0,1,61.1-480.779Z" fill="#00223d"/>
      <path id="Trazado_26814" data-name="Trazado 26814" d="M27.626-497.516a10.282,10.282,0,0,0-10.271,10.271,10.282,10.282,0,0,0,10.271,10.271A10.283,10.283,0,0,0,37.9-487.245,10.282,10.282,0,0,0,27.626-497.516Zm0,16.487a6.223,6.223,0,0,1-6.217-6.216,6.224,6.224,0,0,1,6.217-6.217,6.223,6.223,0,0,1,6.216,6.217A6.223,6.223,0,0,1,27.626-481.029Z" transform="translate(4.031 4.836)"/>
      <path id="Trazado_26815" data-name="Trazado 26815" d="M-2.9-524.952h35.68a2.027,2.027,0,0,0,2.027-2.027,2.027,2.027,0,0,0-2.027-2.027H-2.9a2.028,2.028,0,0,0-2.027,2.027A2.028,2.028,0,0,0-2.9-524.952Z" transform="translate(1.907 1.835)" fill="#00223d"/>
      <path id="Trazado_26816" data-name="Trazado 26816" d="M-2.9-514.772H22.9a2.028,2.028,0,0,0,2.027-2.027,2.027,2.027,0,0,0-2.027-2.027H-2.9A2.027,2.027,0,0,0-4.929-516.8,2.028,2.028,0,0,0-2.9-514.772Z" transform="translate(1.907 2.805)" fill="#00223d"/>
      <path id="Trazado_26817" data-name="Trazado 26817" d="M-2.9-504.593H8.133a2.026,2.026,0,0,0,2.027-2.027,2.026,2.026,0,0,0-2.027-2.026H-2.9a2.027,2.027,0,0,0-2.027,2.026A2.027,2.027,0,0,0-2.9-504.593Z" transform="translate(1.907 3.775)" fill="#00223d"/>
      <path id="Trazado_26818" data-name="Trazado 26818" d="M-11.97-490.739a1.969,1.969,0,0,0-.186-.348,1.956,1.956,0,0,0-.253-.309,2.1,2.1,0,0,0-.309-.253,2.157,2.157,0,0,0-.348-.184,1.842,1.842,0,0,0-.379-.116,2.045,2.045,0,0,0-1.83.553,1.891,1.891,0,0,0-.252.309,1.969,1.969,0,0,0-.186.348,2.187,2.187,0,0,0-.116.379,2.128,2.128,0,0,0-.039.4,2.1,2.1,0,0,0,.039.4,2.075,2.075,0,0,0,.116.379,1.951,1.951,0,0,0,.186.351,1.894,1.894,0,0,0,.252.309,2.1,2.1,0,0,0,.308.253,2.183,2.183,0,0,0,.35.184,2.106,2.106,0,0,0,.379.116,2.031,2.031,0,0,0,.4.041,2.009,2.009,0,0,0,.4-.041,2.08,2.08,0,0,0,.379-.116,2.248,2.248,0,0,0,.348-.184,2.173,2.173,0,0,0,.309-.253,1.959,1.959,0,0,0,.253-.309,1.951,1.951,0,0,0,.186-.351,2.075,2.075,0,0,0,.116-.379,2.01,2.01,0,0,0,.041-.4,2.042,2.042,0,0,0-.041-.4A2.187,2.187,0,0,0-11.97-490.739Z" transform="translate(0.864 5.363)" fill="#00223d"/>
    </g>
  </g>
</svg>
